<svg xmlns="http://www.w3.org/2000/svg" xmlns:xlink="http://www.w3.org/1999/xlink" xmlns:lucid="lucid" width="1362.22" height="802.75"><g transform="translate(-100 -220.9999999999999)" lucid:page-tab-id="0_0"><path d="M0 0h1760v1360H0z" fill="#fff"/><path d="M880 286a6 6 0 0 1 6-6h148a6 6 0 0 1 6 6v108a6 6 0 0 1-6 6H886a6 6 0 0 1-6-6z" stroke="#3a414a" fill="#fff"/><use xlink:href="#a" transform="matrix(1,0,0,1,892,292) translate(14.975308641975303 53.77777777777778)"/><path d="M1220 606a6 6 0 0 1 6-6h148a6 6 0 0 1 6 6v108a6 6 0 0 1-6 6h-148a6 6 0 0 1-6-6z" stroke="#3a414a" fill="#fff"/><use xlink:href="#b" transform="matrix(1,0,0,1,1232,612) translate(8.771604938271594 53.77777777777778)"/><path d="M860 606a6 6 0 0 1 6-6h188a6 6 0 0 1 6 6v108a6 6 0 0 1-6 6H866a6 6 0 0 1-6-6z" stroke="#3a414a" fill="#fff"/><use xlink:href="#c" transform="matrix(1,0,0,1,872,612) translate(55.345679012345684 53.77777777777778)"/><path d="M1114.67 660.5H1061v-1h53.75zm88.45 0h-37.87l.04-.5-.05-.5h37.87z" stroke="#3a414a" stroke-width=".05" fill="#3a414a"/><path d="M1061 660.5h-.5v-1h.5z" fill="#3a414a"/><path d="M1061.04 660.52h-.57v-1.04h.57zm-.5-1v.96h.45v-.96z" stroke="#3a414a" stroke-width=".05" fill="#3a414a"/><path d="M1217.88 660l-14.26 4.63v-9.26z" fill="#3a414a"/><path d="M1219.5 660l-16.38 5.32v-10.64zm-15.38 3.95l12.14-3.95-12.14-3.95z" stroke="#3a414a" stroke-width=".05" fill="#3a414a"/><path d="M1115.2 660a14.67 14.67 0 0 1 14.68-14.67h20.24A14.67 14.67 0 0 1 1164.8 660a14.67 14.67 0 0 1-14.68 14.67h-20.24A14.67 14.67 0 0 1 1115.2 660z" stroke="#3a414a" fill-opacity="0"/><use xlink:href="#d" transform="matrix(1,0,0,1,1127.20987654321,649.3333333333334) translate(0 14.222222222222223)"/><path d="M960.5 599h-1v-22.52h1zm0-52.86h-1V416.88h1z" stroke="#3a414a" stroke-width=".05" fill="#3a414a"/><path d="M960.5 599.5h-1v-.5h1z" fill="#3a414a"/><path d="M960.52 599.52h-1.04v-.56h1.04zm-1-.5v.46h.96V599z" stroke="#3a414a" stroke-width=".05" fill="#3a414a"/><path d="M964.63 416.38h-9.26l4.63-14.26z" fill="#3a414a"/><path d="M965.32 416.88h-10.64L960 400.5zm-9.27-1h7.9L960 403.74z" stroke="#3a414a" stroke-width=".05" fill="#3a414a"/><path d="M936.2 561.3a14.67 14.67 0 0 1 14.66-14.66h18.28a14.67 14.67 0 0 1 14.66 14.67A14.67 14.67 0 0 1 969.14 576h-18.28a14.67 14.67 0 0 1-14.66-14.67z" stroke="#3a414a" fill-opacity="0"/><use xlink:href="#e" transform="matrix(1,0,0,1,948.1975308641976,550.6440161466654) translate(0 14.222222222222223)"/><path d="M1300.5 599h-1v-42.53h1zm-340-85.02l.07.88.2.84.33.8.45.73.56.66.67.55.73.45.8.33.84.2.88.07h328l1 .08 1 .24.93.4.87.52.78.66.66.78.53.87.38.94.24.98.08 1v.16h-1v-.12l-.07-.88-.2-.84-.33-.8-.45-.73-.56-.66-.67-.55-.73-.45-.8-.33-.84-.2-.88-.07h-328l-1-.08-1-.24-.93-.4-.87-.52-.78-.66-.66-.78-.53-.87-.38-.94-.24-.98-.08-1v-97.14h1z" stroke="#3a414a" stroke-width=".05" fill="#3a414a"/><path d="M1300.5 599.5h-1v-.5h1z" fill="#3a414a"/><path d="M1300.53 599.52h-1.06v-.56h1.06zm-1-.5v.46h.94V599z" stroke="#3a414a" stroke-width=".05" fill="#3a414a"/><path d="M964.63 416.38h-9.26l4.63-14.26z" fill="#3a414a"/><path d="M965.32 416.88h-10.64L960 400.5zm-9.27-1h7.9L960 403.74z" stroke="#3a414a" stroke-width=".05" fill="#3a414a"/><path d="M1276.2 541.3a14.67 14.67 0 0 1 14.66-14.66h18.28a14.67 14.67 0 0 1 14.66 14.66 14.67 14.67 0 0 1-14.66 14.67h-18.28a14.67 14.67 0 0 1-14.66-14.67z" stroke="#3a414a" fill-opacity="0"/><use xlink:href="#e" transform="matrix(1,0,0,1,1288.1975308641975,530.6378960006845) translate(0 14.222222222222223)"/><path d="M1100.5 334.02l-.08 1-.24 1-.4.93-.52.87-.66.78-.78.66-.87.53-.94.38-.98.24-1 .08H1041v-1h52.98l.88-.07.84-.2.8-.33.73-.45.66-.56.55-.67.45-.73.33-.8.2-.84.07-.88v-.16h1zm-5.48-37.14l1 .24.93.4.87.53.78.66.66.78.53.87.38.95.24 1 .08 1v.2h-1v-.18l-.07-.88-.2-.83-.33-.8-.45-.73-.56-.65-.67-.56-.73-.45-.8-.32-.84-.2-.88-.07h-37.1v-1h37.14z" stroke="#3a414a" stroke-width=".05" fill="#3a414a"/><path d="M1041 340.5h-.5v-1h.5z" fill="#3a414a"/><path d="M1041.04 340.52h-.57v-1.04h.57zm-.5-1v.96h.45v-.96z" stroke="#3a414a" stroke-width=".05" fill="#3a414a"/><path d="M1056.38 301.94l-14.26-4.63 14.26-4.63z" fill="#3a414a"/><path d="M1056.88 302.63l-16.38-5.32 16.38-5.32zm-13.14-5.32l12.14 3.95v-7.9z" stroke="#3a414a" stroke-width=".05" fill="#3a414a"/><path d="M1053.5 318.65a14.67 14.67 0 0 1 14.67-14.66h63.66a14.67 14.67 0 0 1 14.66 14.65 14.67 14.67 0 0 1-14.67 14.67h-63.66a14.67 14.67 0 0 1-14.66-14.67z" stroke="#3a414a" fill-opacity="0"/><use xlink:href="#f" transform="matrix(1,0,0,1,1065.5061728395062,307.9860760614738) translate(0 14.222222222222223)"/><path d="M1220 386a6 6 0 0 1 6-6h148a6 6 0 0 1 6 6v108a6 6 0 0 1-6 6h-148a6 6 0 0 1-6-6z" stroke="#3a414a" fill="#fff"/><use xlink:href="#g" transform="matrix(1,0,0,1,1232,392) translate(2.629629629629619 53.77777777777778)"/><path d="M960.5 433.98l.07.88.2.84.33.8.45.73.56.66.67.55.73.45.8.33.84.2.88.07h40.5l-.07 1h-40.47l-1-.08-1-.24-.93-.4-.87-.52-.78-.66-.66-.78-.53-.87-.38-.94-.24-.98-.08-1v-17.14h1zm258.5 5.52v1h-163.94l.04-.5-.04-.5z" stroke="#3a414a" stroke-width=".05" fill="#3a414a"/><path d="M1219.5 440.5h-.5v-1h.5z" fill="#3a414a"/><path d="M1219.53 440.52h-.57v-1.04h.57zm-.52-1v.96h.47v-.96z" stroke="#3a414a" stroke-width=".05" fill="#3a414a"/><path d="M964.63 416.38h-9.26l4.63-14.26z" fill="#3a414a"/><path d="M965.32 416.88h-10.64L960 400.5zm-9.27-1h7.9L960 403.74z" stroke="#3a414a" stroke-width=".05" fill="#3a414a"/><path d="M1007 440a14.67 14.67 0 0 1 14.66-14.67h18.27A14.67 14.67 0 0 1 1054.6 440a14.67 14.67 0 0 1-14.67 14.67h-18.27A14.67 14.67 0 0 1 1007 440z" stroke="#3a414a" fill-opacity="0"/><use xlink:href="#e" transform="matrix(1,0,0,1,1018.9953270088962,429.3333333333333) translate(0 14.222222222222223)"/><path d="M1180 515.36l-3.14 1.03-1.63 2.22-.22 1.34.9 2.68 2.22 1.63 1.88.3v129.4l.07.9.2.83.33.8.45.73.56.66.67.55.73.45.8.33.84.2.88.07h17.6v1h-17.64l-1-.08-1-.24-.93-.4-.87-.52-.78-.66-.66-.78-.53-.87-.38-.94-.24-.98-.08-1v-128.6l-1.28-.2-2.68-1.96-1.05-3.22.28-1.82 1.96-2.68 2.76-.9v-6.97h1zm39-45.47h-33.48l-.88.06-.84.2-.8.33-.73.44-.66.56-.55.65-.45.74-.33.8-.2.83-.07.88v1.94h-1v-1.97l.08-1 .24-1 .4-.93.52-.87.66-.78.78-.67.87-.54.94-.4.98-.23 1-.08H1219z" stroke="#3a414a" stroke-width=".05" fill="#3a414a"/><path d="M1219.5 469.9h-.5v-1h.5z" fill="#3a414a"/><path d="M1219.53 469.9h-.57v-1.04h.57zm-.52-1v.96h.47v-.95z" stroke="#3a414a" stroke-width=".05" fill="#3a414a"/><path d="M1217.88 660l-14.26 4.63v-9.26z" fill="#3a414a"/><path d="M1219.5 660l-16.38 5.32v-10.64zm-15.38 3.95l12.14-3.95-12.14-3.95z" stroke="#3a414a" stroke-width=".05" fill="#3a414a"/><path d="M1154.7 492.5a14.67 14.67 0 0 1 14.68-14.66h20.24a14.67 14.67 0 0 1 14.67 14.66 14.67 14.67 0 0 1-14.68 14.67h-20.24a14.67 14.67 0 0 1-14.67-14.67z" stroke="#3a414a" fill-opacity="0"/><use xlink:href="#d" transform="matrix(1,0,0,1,1166.7099265432098,481.8375186102232) translate(0 14.222222222222223)"/><path d="M1180 653.98l.07.88.2.84.33.8.45.73.56.66.67.55.73.45.8.33.84.2.88.07h5.85v1h-5.9l-1-.08-.98-.24-.95-.4-.87-.52-.78-.66-.66-.78-.53-.87-.38-.94-.24-.98-.08-1v-4.94h1zm23.12 6.52h-5.88v-1h5.88zM1180 644.17h-1v-9.84h1zm0-14.75h-1v-9.84h1zm0-14.75h-1v-9.84h1zm0-14.75h-1v-9.84h1zm100.47-.92h-1v-5.58h1zm0-11.17h-1v-11.16h1zM1180 585.17h-1v-9.84h1zm95-26.1l.98.25.95.4.87.52.77.66.66.78.54.87.4.94.23.98.07 1v5.6h-1v-5.56l-.07-.88-.2-.84-.33-.8-.45-.73-.56-.66-.65-.55-.73-.45-.8-.33-.84-.2-.88-.07h-4.9v-1h4.94zm-84.6.93h-4.88l-.88.07-.84.2-.8.33-.73.45-.66.56-.55.67-.45.73-.33.8-.2.84-.07.88v4.9h-1v-4.94l.08-1 .24-1 .4-.93.52-.87.66-.78.78-.66.87-.53.94-.38.98-.24 1-.08h4.93zm73.74 0h-9.83v-1h9.84zm-65.5 0h-3.3v-1h3.37zm50.76 0h-.2l.05-.5-.04-.5h.2z" stroke="#3a414a" stroke-width=".05" fill="#3a414a"/><path d="M1280.47 599.5h-1v-.5h1z" fill="#3a414a"/><path d="M1280.5 599.52h-1.05v-.56h1.05zm-1-.5v.46h.95V599z" stroke="#3a414a" stroke-width=".05" fill="#3a414a"/><path d="M1217.88 660l-14.26 4.63v-9.26z" fill="#3a414a"/><path d="M1219.5 660l-16.38 5.32v-10.64zm-15.38 3.95l12.14-3.95-12.14-3.95z" stroke="#3a414a" stroke-width=".05" fill="#3a414a"/><path d="M1201.17 552.2l.8-1.32 1.5-1.75 1.75-1.5 1.3-.8m3.53-1.46l1.5-.36 2.3-.17h6.74m6.74 0h6.75l2.28.18 1.5.37m3.52 1.46l1.3.8 1.76 1.5 1.5 1.75.8 1.3m1.45 3.53l.37 1.5.18 2.3-.18 2.3-.36 1.5m-1.45 3.5l-.8 1.32-1.5 1.75-1.74 1.5-1.3.8m-3.53 1.46l-1.5.36-2.28.17h-6.76m-6.75 0h-6.76l-2.3-.18-1.5-.37m-3.5-1.46l-1.32-.8-1.75-1.5-1.5-1.75-.8-1.3m-1.46-3.53l-.35-1.5-.18-2.3.18-2.3.36-1.5" stroke="#3a414a" fill="none"/><use xlink:href="#d" transform="matrix(1,0,0,1,1211.1712796936067,548.8333968640438) translate(0 14.222222222222223)"/><path d="M805.08 560h-9.06l-.88.07-.84.2-.8.33-.73.45-.66.56-.55.67-.45.73-.33.8-.2.84-.07.88v61.82l.07.88.2.84.33.8.45.73.56.65.67.56.73.46.8.33.84.2.88.06h47.1v1h-47.14l-1-.08-1-.24-.93-.4-.87-.52-.78-.66-.66-.78-.53-.87-.38-.93-.24-1-.08-1v-61.9l.08-1 .24-.98.4-.95.52-.87.66-.78.78-.66.87-.53.94-.38.98-.24 1-.08h9.18zm83.3-.92l1 .24.93.4.88.52.78.66.66.78.53.87.4.94.23.98.08 1V599h-1v-33.48l-.07-.88-.2-.84-.34-.8-.45-.73-.55-.66-.66-.55-.75-.45-.8-.33-.83-.2-.88-.07h-10.98l.03-.5-.04-.5h11.02z" stroke="#3a414a" stroke-width=".05" fill="#3a414a"/><path d="M893.86 599.5h-1v-.5h1z" fill="#3a414a"/><path d="M893.88 599.52h-1.05v-.56h1.05zm-1-.5v.46h.95V599z" stroke="#3a414a" stroke-width=".05" fill="#3a414a"/><path d="M857.88 633.36L843.62 638v-9.28z" fill="#3a414a"/><path d="M859.5 633.36l-16.38 5.32v-10.65zm-15.38 3.94l12.14-3.94-12.14-3.95z" stroke="#3a414a" stroke-width=".05" fill="#3a414a"/><path d="M805.62 559.5a14.67 14.67 0 0 1 14.67-14.67h40.93a14.67 14.67 0 0 1 14.66 14.67 14.67 14.67 0 0 1-14.67 14.67H820.3a14.67 14.67 0 0 1-14.68-14.67z" stroke="#3a414a" fill-opacity="0"/><use xlink:href="#h" transform="matrix(1,0,0,1,817.62221194077,548.8334187812695) translate(0 14.222222222222223)"/><path d="M843.12 697.82h-17.6l-.88.07-.84.2-.8.32-.73.45-.66.56-.55.66-.45.72-.33.8-.2.84-.07.88v51.14l.07.88.2.84.33.8.45.73.56.66.67.55.73.45.8.33.84.2.88.07h4.7l-.08 1h-4.66l-1-.08-1-.24-.93-.4-.87-.52-.78-.66-.66-.78-.53-.87-.38-.94-.24-.98-.08-1V703.3l.08-1 .24-1 .4-.93.52-.87.66-.78.78-.66.87-.53.94-.4.98-.23 1-.08h17.64zm88.03 56.7l-.07 1-.24 1-.4.93-.53.87-.65.78-.77.66-.88.53-.94.38-1 .24-1 .08H908.4l.04-.5-.04-.5h16.25l.88-.07.85-.2.8-.33.74-.45.64-.56.56-.67.45-.73.33-.8.2-.84.07-.88V721h1z" stroke="#3a414a" stroke-width=".05" fill="#3a414a"/><path d="M931.15 721h-1v-.5h1z" fill="#3a414a"/><path d="M931.18 721.04h-1.05v-.56h1.05zm-1-.5v.45h.95v-.48z" stroke="#3a414a" stroke-width=".05" fill="#3a414a"/><path d="M857.88 697.32l-14.26 4.64v-9.28z" fill="#3a414a"/><path d="M859.5 697.32l-16.38 5.32V692zm-15.38 3.95l12.14-3.95-12.14-3.95z" stroke="#3a414a" stroke-width=".05" fill="#3a414a"/><path d="M830.68 760.5a14.67 14.67 0 0 1 14.67-14.67h47.9a14.67 14.67 0 0 1 14.67 14.67 14.67 14.67 0 0 1-14.67 14.67h-47.9a14.67 14.67 0 0 1-14.67-14.67z" stroke="#3a414a" fill-opacity="0"/><use xlink:href="#i" transform="matrix(1,0,0,1,842.6830953787176,749.8332989431481) translate(0 14.222222222222223)"/><path d="M720.5 483.98l.07.88.2.84.33.8.45.73.56.66.67.55.73.45.8.33.84.2.88.07h194.55l1 .08 1 .24.93.4.87.52.78.66.66.78.54.87.4.94.23.98.08 1V599h-1V496.02l-.07-.88-.2-.84-.33-.8-.45-.73-.56-.66-.66-.55-.73-.45-.8-.33-.84-.2-.87-.07H725.98l-1-.08-1-.24-.93-.4-.87-.52-.78-.66-.66-.78-.53-.87-.38-.94-.24-.98-.08-1V382.6h1zm0-131.7h-1v-55.9h1z" stroke="#3a414a" stroke-width=".05" fill="#3a414a"/><path d="M927.05 599.5h-1v-.5h1z" fill="#3a414a"/><path d="M927.08 599.52h-1.06v-.56h1.06zm-1-.5v.46h.94V599z" stroke="#3a414a" stroke-width=".05" fill="#3a414a"/><path d="M724.63 295.88h-9.26l4.63-14.26z" fill="#3a414a"/><path d="M725.32 296.38h-10.64L720 280zm-9.27-1h7.9L720 283.24z" stroke="#3a414a" stroke-width=".05" fill="#3a414a"/><path d="M642.96 367.43a14.67 14.67 0 0 1 14.67-14.66h124.74a14.67 14.67 0 0 1 14.67 14.66 14.67 14.67 0 0 1-14.67 14.67H657.63a14.67 14.67 0 0 1-14.67-14.67z" stroke="#3a414a" fill-opacity="0"/><use xlink:href="#j" transform="matrix(1,0,0,1,654.9629629629629,356.7676784998235) translate(0 14.222222222222223)"/><path d="M1160.5 464.02l-.08 1-.24 1-.4.93-.52.87-.66.78-.78.66-.87.53-.94.38-.98.24-1 .08h-134.65l-.88.07-.85.2-.8.33-.73.45-.66.56-.56.67-.45.73-.33.8-.2.84-.07.88V599h-1V475.98l.08-1 .24-1 .4-.93.52-.87.65-.78.78-.66.87-.53.94-.38 1-.24 1-.08h134.64l.88-.07.84-.2.8-.33.73-.45.66-.56.55-.67.45-.73.33-.8.2-.84.07-.88v-59.65h1zm0-111.36h-1v-56.28h1z" stroke="#3a414a" stroke-width=".05" fill="#3a414a"/><path d="M1013.85 599.5h-1v-.5h1z" fill="#3a414a"/><path d="M1013.88 599.52h-1.05v-.56h1.05zm-1-.5v.46h.95V599z" stroke="#3a414a" stroke-width=".05" fill="#3a414a"/><path d="M1164.63 295.88h-9.27l4.64-14.26z" fill="#3a414a"/><path d="M1165.32 296.38h-10.64L1160 280zm-9.27-1h7.9l-3.95-12.14z" stroke="#3a414a" stroke-width=".05" fill="#3a414a"/><path d="M1115 378.5a25.33 25.33 0 0 1 25.32-25.34h39.36A25.33 25.33 0 0 1 1205 378.5a25.33 25.33 0 0 1-25.32 25.33h-39.36A25.33 25.33 0 0 1 1115 378.5z" stroke="#3a414a" fill-opacity="0"/><use xlink:href="#k" transform="matrix(1,0,0,1,1126.9876543209875,357.15917015251864) translate(6.5729012345679045 14.222222222222223)"/><use xlink:href="#l" transform="matrix(1,0,0,1,1126.9876543209875,357.15917015251864) translate(0.005000000000002558 35.55555555555556)"/><g class="lucid-layer" lucid:layer-id="TwsV2b.ZEAMe" display="block"><path d="M880 806a6 6 0 0 1 6-6h148a6 6 0 0 1 6 6v108a6 6 0 0 1-6 6H886a6 6 0 0 1-6-6z" stroke="#3a414a" fill="#fff"/><use xlink:href="#m" transform="matrix(1,0,0,1,892,812) translate(25.469135802469133 38.77777777777778)"/><use xlink:href="#n" transform="matrix(1,0,0,1,892,812) translate(32.50617283950618 65.44444444444446)"/><path d="M480 886a6 6 0 0 1 6-6h148a6 6 0 0 1 6 6v108a6 6 0 0 1-6 6H486a6 6 0 0 1-6-6z" stroke="#3a414a" fill="#fff"/><use xlink:href="#o" transform="matrix(1,0,0,1,492,892) translate(25.469135802469133 53.77777777777778)"/><path d="M954.02 789.5l1 .08 1 .24.93.4.87.52.78.66.66.78.53.87.38.94.24.98.08 1V799h-1v-2.98l-.07-.88-.2-.84-.33-.8-.45-.73-.56-.66-.67-.55-.73-.45-.8-.33-.84-.2-.88-.07H810.3l.05-.5-.04-.5zm-139.5-132.62l1 .23.93.4.87.54.78.66.66.78.53.87.38.94.24.98.08 1v28.02l.07.88.2.84.33.8.45.73.56.66.67.57.73.45.8.33.84.2.88.07h17.6v1h-17.64l-1-.08-1-.24-.93-.4-.87-.52-.78-.66-.66-.78-.53-.87-.38-.94-.24-1-.08-1v-28l-.07-.9-.2-.83-.33-.8-.45-.73-.56-.66-.67-.55-.73-.45-.8-.33-.84-.2-.88-.07h-37.46l-.88.07-.84.2-.8.33-.73.45-.66.56-.55.67-.45.73-.33.8-.2.84-.07.88v111.5h-1V663.3l.08-1 .24-1 .4-.93.52-.87.66-.78.78-.66.87-.53.94-.4.98-.22 1-.08h37.54z" stroke="#3a414a" stroke-width=".05" fill="#3a414a"/><path d="M960.5 799.5h-1v-.5h1z" fill="#3a414a"/><path d="M960.52 799.52h-1.04v-.56h1.04zm-1-.5v.46h.96V799z" stroke="#3a414a" stroke-width=".05" fill="#3a414a"/><path d="M857.88 697.32l-14.26 4.64v-9.28z" fill="#3a414a"/><path d="M859.5 697.32l-16.38 5.32V692zm-15.38 3.95l12.14-3.95-12.14-3.95z" stroke="#3a414a" stroke-width=".05" fill="#3a414a"/><path d="M732.6 790a14.67 14.67 0 0 1 14.68-14.67h47.9A14.67 14.67 0 0 1 809.85 790a14.67 14.67 0 0 1-14.67 14.67h-47.9A14.67 14.67 0 0 1 732.6 790z" stroke="#3a414a" fill-opacity="0"/><use xlink:href="#i" transform="matrix(1,0,0,1,744.612468439456,779.3333333333334) translate(0 14.222222222222223)"/><path d="M560.5 879h-1v-83.05h1zm212.76-186.14l1.96 2.68.2 1.28h67.7v1h-68.55l-.3-1.88-1.63-2.23-2.68-.87-1.34.22-2.23 1.63-1.04 3.14H566.02l-.88.07-.84.2-.8.32-.73.45-.66.56-.55.66-.45.72-.33.8-.2.84-.07.88v62.28h-1V703.3l.08-1 .24-1 .4-.93.52-.87.66-.78.78-.66.87-.53.94-.4.98-.23 1-.08h198.66l.9-2.76 2.68-1.96 1.82-.3z" stroke="#3a414a" stroke-width=".05" fill="#3a414a"/><path d="M560.5 879.5h-1v-.5h1z" fill="#3a414a"/><path d="M560.52 879.52h-1.04v-.56h1.04zm-1-.5v.46h.96V879z" stroke="#3a414a" stroke-width=".05" fill="#3a414a"/><path d="M857.88 697.32l-14.26 4.64v-9.28z" fill="#3a414a"/><path d="M859.5 697.32l-16.38 5.32V692zm-15.38 3.95l12.14-3.95-12.14-3.95z" stroke="#3a414a" stroke-width=".05" fill="#3a414a"/><path d="M521.38 780.8a14.67 14.67 0 0 1 14.67-14.68h47.9a14.67 14.67 0 0 1 14.67 14.67 14.67 14.67 0 0 1-14.67 14.66h-47.9a14.67 14.67 0 0 1-14.67-14.67z" stroke="#3a414a" fill-opacity="0"/><use xlink:href="#i" transform="matrix(1,0,0,1,533.3827160493827,770.121166953073) translate(0 14.222222222222223)"/><path d="M685.02 940.5h-28.14v-1h28.22zM879 901h-14.42l-.88.07-.84.2-.8.33-.73.45-.65.56-.56.66-.46.74-.32.8-.2.84-.08.88V934l-.07 1-.25 1-.4.93-.53.87-.66.78-.77.66-.88.53-.95.38-1 .24-1 .08h-23.43l.04-.5-.04-.5h23.4l.88-.07.84-.2.8-.33.74-.45.65-.56.56-.67.46-.73.33-.8.2-.84.06-.88v-27.5l.08-1 .24-1 .4-.94.52-.87.67-.77.77-.66.87-.54.95-.4 1-.23 1-.08H879z" stroke="#3a414a" stroke-width=".05" fill="#3a414a"/><path d="M879.5 901h-.5v-1h.5z" fill="#3a414a"/><path d="M879.52 901.02h-.56v-1.05h.56zm-.5-1v.95h.46v-.95z" stroke="#3a414a" stroke-width=".05" fill="#3a414a"/><path d="M656.38 944.63L642.12 940l14.26-4.63z" fill="#3a414a"/><path d="M656.88 945.32L640.5 940l16.38-5.32zM643.74 940l12.14 3.95v-7.9z" stroke="#3a414a" stroke-width=".05" fill="#3a414a"/><path d="M685.56 940a14.67 14.67 0 0 1 14.67-14.67H814A14.67 14.67 0 0 1 828.7 940 14.67 14.67 0 0 1 814 954.67H700.24A14.67 14.67 0 0 1 685.56 940z" stroke="#3a414a" fill-opacity="0"/><use xlink:href="#p" transform="matrix(1,0,0,1,697.5644371547157,929.3333333333334) translate(0 14.222222222222223)"/><use xlink:href="#q" transform="matrix(1,0,0,1,697.5644371547157,929.3333333333334) translate(53.18518518518519 14.222222222222223)"/><path d="M646.04 972.5H641v-1h5.04zm15.13 0h-10.1v-1h10.1zm15.12 0h-10.1v-1h10.1zm15.12 0h-10.1v-1h10.1zm15.12 0h-10.08v-1h10.08zm15.13 0h-10.1v-1h10.1zm15.12 0h-10.1v-1h10.1zm15.1 0h-10.07v-1h10.08zm15.14 0h-10.08v-1h10.08zm15.12 0h-10.08v-1h10.08zm15.13 0h-10.1v-1h10.1zm15.1 0h-10.07v-1h10.08zm15.14 0h-10.08v-1h10.08zm15.12 0h-10.08v-1h10.08zm15.13 0h-10.1v-1h10.1zm15.1 0h-10.07v-1h10.08zm15.14 0h-10.1v-1h10.1zm8.3 0h-3.26v-1h3.34zm218.57 0h-10.08v-1h10.1zm15.13 0h-10.08v-1h10.08zm15.13 0h-10.1v-1h10.1zm15.12 0h-10.08v-1h10.08zm15.13 0h-10.08v-1h10.1zm15.13 0h-10.08v-1h10.08zm15.13 0h-10.1v-1h10.1zm15.12 0h-10.08v-1h10.08zm15.12 0h-10.08v-1h10.08zm16.6-6.47l-.1 1-.23 1-.4.93-.52.87-.66.78-.8.67-.86.53-.94.4-1 .23-1 .08h-5.05v-1h5.02l.88-.06.84-.2.78-.33.74-.44.65-.56.57-.66.45-.73.32-.8.2-.83.07-.88v-5.08h1zm0-10.2h-1v-10.2h1zm0-15.28h-1v-10.18h1zm0-15.27h-1v-10.2h1zm0-15.28h-1v-10.18h1zm0-15.27h-1v-10.2h1zm0-15.28h-1v-10.18h1zm0-15.27h-1v-10.2h1zm0-15.28h-1v-10.18h1zm0-15.27h-1v-10.2h1zm0-15.28h-1v-10.18h1zm0-15.27h-1v-10.2h1zm0-15.28h-1v-10.18h1zm0-15.27h-1v-10.2h1zm0-15.28h-1v-10.18h1zm0-15.27h-1v-5.1h1z" stroke="#3a414a" stroke-width=".05" fill="#3a414a"/><path d="M641 972.5h-.5v-1h.5z" fill="#3a414a"/><path d="M641.04 972.54h-.56v-1.05h.56zm-.5-1v.95h.45v-.96z" stroke="#3a414a" stroke-width=".05" fill="#3a414a"/><path d="M1256.62 736.38h-9.27l4.64-14.26z" fill="#3a414a"/><path d="M1257.3 736.88h-10.64l5.33-16.38zm-9.26-1h7.9l-3.95-12.14z" stroke="#3a414a" stroke-width=".05" fill="#3a414a"/><path d="M898.9 964.7l.8-1.3 1.48-1.76 1.75-1.5 1.3-.8m3.54-1.46l1.5-.36 2.28-.18h4.84m4.82 0h9.66m4.83 0h9.67m4.83 0h9.67m4.83 0h9.66m4.83 0h9.65m4.83 0h9.67m4.83 0h9.66m4.83 0h9.67m4.83 0h9.66m4.83 0h9.66m4.84 0h9.66m4.83 0h4.83l2.3.18 1.5.36m3.5 1.46l1.32.8 1.75 1.5 1.5 1.75.8 1.3m1.46 3.52l.37 1.5.18 2.3-.18 2.28-.36 1.5m-1.45 3.52l-.8 1.3-1.5 1.76-1.75 1.5-1.3.8m-3.53 1.46l-1.5.36-2.3.18h-4.82m-4.83 0h-9.66m-4.84 0h-9.66m-4.83 0h-9.66m-4.83 0h-9.67m-4.83 0h-9.66m-4.83 0h-9.67m-4.83 0h-9.66m-4.84 0h-9.66m-4.83 0h-9.67m-4.83 0h-9.66m-4.82 0h-9.66m-4.84 0h-4.83l-2.3-.18-1.48-.36m-3.53-1.46l-1.3-.8-1.76-1.5-1.5-1.75-.8-1.3m-1.45-3.53l-.36-1.5-.18-2.3.17-2.28.36-1.5" stroke="#3a414a" fill="none"/><use xlink:href="#p" transform="matrix(1,0,0,1,908.8870798097477,961.3443644515643) translate(0 14.222222222222223)"/><use xlink:href="#r" transform="matrix(1,0,0,1,908.8870798097477,961.3443644515643) translate(53.18518518518519 14.222222222222223)"/><use xlink:href="#s" transform="matrix(1,0,0,1,908.8870798097477,961.3443644515643) translate(107.35802469135803 14.222222222222223)"/><path d="M1063.32 861.84H1041v-1h22.4zm139.8-180h-17.1l-.88.08-.84.2-.8.33-.73.45-.66.56-.55.66-.45.74-.33.8-.2.83-.07.87v168l-.08 1-.24.98-.4.94-.52.86-.66.78-.78.66-.87.53-.94.4-.98.23-1 .08h-40.46l.04-.5-.04-.5h40.42l.88-.07.84-.2.8-.33.73-.45.66-.57.55-.66.45-.74.33-.8.2-.83.07-.88v-168l.08-1 .24-.98.4-.94.52-.87.66-.78.78-.66.87-.54.94-.4.98-.23 1-.08h17.14z" stroke="#3a414a" stroke-width=".05" fill="#3a414a"/><path d="M1041 861.84h-.5v-1h.5z" fill="#3a414a"/><path d="M1041.04 861.86h-.57v-1.05h.57zm-.5-1v.95h.45v-.94z" stroke="#3a414a" stroke-width=".05" fill="#3a414a"/><path d="M1217.88 681.35l-14.26 4.64v-9.28z" fill="#3a414a"/><path d="M1219.5 681.35l-16.38 5.32v-10.64zm-15.38 3.95l12.14-3.95-12.14-3.95z" stroke="#3a414a" stroke-width=".05" fill="#3a414a"/><path d="M1063.86 861.34a14.67 14.67 0 0 1 14.67-14.67h39.9a14.67 14.67 0 0 1 14.67 14.67 14.67 14.67 0 0 1-14.67 14.66h-39.9a14.67 14.67 0 0 1-14.67-14.66z" stroke="#3a414a" fill-opacity="0"/><use xlink:href="#t" transform="matrix(1,0,0,1,1075.8627135406277,850.6720909081523) translate(0 14.222222222222223)"/><path d="M690.5 841.1l.07.9.2.83.33.8.45.73.56.66.67.56.73.45.8.33.84.2.88.07H879v1H695.98l-1-.08-1-.24-.93-.38-.87-.53-.78-.67-.66-.78-.53-.87-.38-.94-.24-1-.08-1v-37.7h1zm270-406.62l-.08 1-.24 1-.4.94-.52.87-.66.76-.78.66-.87.54-.94.4-.98.22-1 .08H724.57l-.3-1.88-1.63-2.23-2.68-.87-1.34.2-2.23 1.64-1.04 3.14h-19.34l-.88.07-.84.2-.8.33-.73.45-.66.57-.55.66-.45.74-.33.8-.2.83-.07.88v246.27l-1.88.3-2.23 1.63-.9 2.68.23 1.34 1.63 2.23 3.14 1.03v71.15h-1V702.7l-2.76-.9-1.96-2.68-.3-1.82 1.06-3.22 2.68-1.96 1.28-.2V446.43l.08-1 .24-1 .4-.93.52-.86.66-.77.78-.67.87-.53.94-.4.98-.23 1-.08h18.66l.9-2.76 2.68-1.96 1.82-.3 3.22 1.06 1.96 2.7.2 1.26H954l.88-.07.84-.2.8-.34.73-.45.66-.55.55-.66.45-.74.33-.8.2-.84.07-.88v-17.56h1z" stroke="#3a414a" stroke-width=".05" fill="#3a414a"/><path d="M879.5 847.63h-.5v-1h.5z" fill="#3a414a"/><path d="M879.52 847.65h-.56v-1.05h.56zm-.5-1v.95h.46v-.95z" stroke="#3a414a" stroke-width=".05" fill="#3a414a"/><path d="M964.63 416.38h-9.26l4.63-14.26z" fill="#3a414a"/><path d="M965.32 416.88h-10.64L960 400.5zm-9.27-1h7.9L960 403.74z" stroke="#3a414a" stroke-width=".05" fill="#3a414a"/><path d="M666.2 788.27a14.67 14.67 0 0 1 14.66-14.66h18.28a14.67 14.67 0 0 1 14.66 14.67 14.67 14.67 0 0 1-14.66 14.67h-18.28a14.67 14.67 0 0 1-14.66-14.67z" stroke="#3a414a" fill-opacity="0"/><use xlink:href="#e" transform="matrix(1,0,0,1,678.1975308641976,777.6070539265344) translate(0 14.222222222222223)"/><path d="M677.55 889.42H641v-1h36.63zm185.57-28.92h-57.1l-.88.07-.84.2-.8.33-.73.45-.66.56-.55.67-.45.73-.33.8-.2.84-.07.88v16.92l-.08 1-.24 1-.38.93-.54.87-.66.77-.78.68-.87.53-.94.4-.98.24-1 .08h-45.2l.04-.5-.03-.5h45.15l.88-.07.84-.2.8-.33.73-.46.66-.56.55-.65.45-.74.33-.78.2-.84.07-.88v-16.92l.08-1 .24-1 .4-.93.52-.87.66-.78.78-.66.87-.53.94-.38 1-.24.98-.08h57.14z" stroke="#3a414a" stroke-width=".05" fill="#3a414a"/><path d="M641 889.42h-.5v-1h.5z" fill="#3a414a"/><path d="M641.04 889.44h-.56v-1.05h.56zm-.5-1v.95h.45v-.96z" stroke="#3a414a" stroke-width=".05" fill="#3a414a"/><path d="M877.88 860l-14.26 4.63v-9.26z" fill="#3a414a"/><path d="M879.5 860l-16.38 5.32v-10.64zm-15.38 3.95l12.14-3.95-12.14-3.95z" stroke="#3a414a" stroke-width=".05" fill="#3a414a"/><path d="M678.1 888.92a14.67 14.67 0 0 1 14.66-14.67h40.94a14.67 14.67 0 0 1 14.66 14.67 14.67 14.67 0 0 1-14.66 14.66h-40.94a14.67 14.67 0 0 1-14.67-14.66z" stroke="#3a414a" fill-opacity="0"/><use xlink:href="#h" transform="matrix(1,0,0,1,690.0917881571698,878.250159926633) translate(0 14.222222222222223)"/><path d="M1082.5 700.5h-22v-1h22.1zm120.62-18.65h-17.44l-.88.07-.84.2-.8.33-.73.45-.65.56-.57.66-.44.74-.33.8-.2.83-.07.87v6.65l-.08 1-.23 1-.4.93-.53.87-.66.78-.78.66-.87.53-.93.38-1 .24-1 .08h-20.92l.04-.5-.05-.5h20.9l.87-.07.84-.2.8-.33.73-.45.65-.56.56-.67.46-.73.33-.8.2-.84.06-.88v-6.65l.08-1 .24-1 .4-.93.52-.87.67-.78.77-.66.87-.54.95-.4 1-.23 1-.08h17.47zM1060.5 700.5h-.5v-1h.5z" stroke="#3a414a" stroke-width=".05" fill="#3a414a"/><path d="M1217.88 681.35l-14.26 4.64v-9.28z" fill="#3a414a"/><path d="M1219.5 681.35l-16.38 5.32v-10.64zm-15.38 3.95l12.14-3.95-12.14-3.95z" stroke="#3a414a" stroke-width=".05" fill="#3a414a"/><path d="M1083.05 700a14.67 14.67 0 0 1 14.67-14.67h39.9A14.67 14.67 0 0 1 1152.3 700a14.67 14.67 0 0 1-14.68 14.67h-39.9a14.67 14.67 0 0 1-14.67-14.67z" stroke="#3a414a" fill-opacity="0"/><use xlink:href="#t" transform="matrix(1,0,0,1,1095.0527689310582,689.3333333333334) translate(0 14.222222222222223)"/><path d="M843.12 633.86h-107.1l-.88.07-.84.2-.8.33-.73.45-.66.57-.55.66-.45.73-.33.8-.2.84-.07.88v177.26l.07.88.2.84.33.8.45.73.56.65.67.56.74.46.8.33.84.2.88.06h43.9l-.07 1h-43.87l-1-.08-1-.24-.93-.4-.87-.52-.77-.66-.66-.78-.53-.87-.38-.93-.24-1-.08-1V639.35l.08-1 .24-1 .4-.93.52-.86.66-.78.78-.66.87-.53.94-.4 1-.23.98-.08h107.14zM879 822.16v1h-27.88l.04-.5-.04-.5z" stroke="#3a414a" stroke-width=".05" fill="#3a414a"/><path d="M879.5 823.16h-.5v-1h.5z" fill="#3a414a"/><path d="M879.52 823.18h-.56v-1.04h.56zm-.5-1v.96h.46v-.96z" stroke="#3a414a" stroke-width=".05" fill="#3a414a"/><path d="M857.88 633.36L843.62 638v-9.28z" fill="#3a414a"/><path d="M859.5 633.36l-16.38 5.32v-10.65zm-15.38 3.94l12.14-3.94-12.14-3.95z" stroke="#3a414a" stroke-width=".05" fill="#3a414a"/><path d="M780.4 822.66A14.67 14.67 0 0 1 795.05 808H836a14.67 14.67 0 0 1 14.66 14.66A14.67 14.67 0 0 1 836 837.33h-40.94a14.67 14.67 0 0 1-14.67-14.67z" stroke="#3a414a" fill-opacity="0"/><g><use xlink:href="#h" transform="matrix(1,0,0,1,792.3893783750465,811.9932808728367) translate(0 14.222222222222223)"/></g></g><g class="lucid-layer" lucid:layer-id="ACTVirC3_X-~" display="block"><path d="M260 609.96a6 6 0 0 1 6-6h148a6 6 0 0 1 6 6v108a6 6 0 0 1-6 6H266a6 6 0 0 1-6-6z" stroke="#3a414a" fill="#fff"/><use xlink:href="#u" transform="matrix(1,0,0,1,272,615.9635960774615) translate(39.635802469135804 53.77777777777778)"/><path d="M260 439.3a6 6 0 0 1 6-6h148a6 6 0 0 1 6 6v108a6 6 0 0 1-6 6H266a6 6 0 0 1-6-6z" stroke="#3a414a" fill="#fff"/><use xlink:href="#v" transform="matrix(1,0,0,1,272,445.2902928919031) translate(11.456790123456784 38.77777777777778)"/><use xlink:href="#w" transform="matrix(1,0,0,1,272,445.2902928919031) translate(39.635802469135804 65.44444444444446)"/><path d="M843.12 632.86v1L620 633.84h-95.9l.03-.5-.03-.5H620zM421 632.84h31.9l-.08 1H421z" stroke="#3a414a" stroke-width=".05" fill="#3a414a"/><path d="M421 633.84h-.5v-1h.5z" fill="#3a414a"/><path d="M421.04 633.87h-.56v-1.05h.56zm-.52-1v.95h.47v-.95z" stroke="#3a414a" stroke-width=".05" fill="#3a414a"/><path d="M857.88 633.36L843.62 638v-9.28z" fill="#3a414a"/><path d="M859.5 633.36l-16.38 5.32v-10.65zm-15.38 3.94l12.14-3.94-12.14-3.95z" stroke="#3a414a" stroke-width=".05" fill="#3a414a"/><path d="M453.36 633.34a14.67 14.67 0 0 1 14.67-14.67h40.94a14.67 14.67 0 0 1 14.66 14.67A14.67 14.67 0 0 1 508.97 648h-40.94a14.67 14.67 0 0 1-14.67-14.66z" stroke="#3a414a" fill-opacity="0"/><use xlink:href="#h" transform="matrix(1,0,0,1,465.361470127601,622.6743731705486) translate(0 14.222222222222223)"/><path d="M470.5 853.98l.07.88.2.84.33.8.45.73.56.66.67.55.73.45.8.33.84.2.88.07h387.1v1H475.98l-1-.08-1-.24-.93-.4-.87-.52-.78-.66-.66-.78-.53-.87-.38-.94-.24-.98-.08-1v-60.57h1zm-5.48-139.56l1 .24.93.4.87.52.78.66.66.78.53.87.38.93.24 1 .08 1v42.28h-1v-42.24l-.07-.88-.2-.84-.33-.8-.45-.73-.56-.65-.67-.56-.73-.46-.8-.33-.84-.2-.88-.06H421v-1h43.02z" stroke="#3a414a" stroke-width=".05" fill="#3a414a"/><path d="M421 715.34h-.5v-1h.5z" fill="#3a414a"/><path d="M421.04 715.36h-.56v-1.05h.56zm-.52-1v.95h.47v-.94z" stroke="#3a414a" stroke-width=".05" fill="#3a414a"/><path d="M877.88 860l-14.26 4.63v-9.26z" fill="#3a414a"/><path d="M879.5 860l-16.38 5.32v-10.64zm-15.38 3.95l12.14-3.95-12.14-3.95z" stroke="#3a414a" stroke-width=".05" fill="#3a414a"/><path d="M434.86 778.28a14.67 14.67 0 0 1 14.67-14.67h40.94a14.67 14.67 0 0 1 14.67 14.68 14.67 14.67 0 0 1-14.67 14.67h-40.94a14.67 14.67 0 0 1-14.67-14.67z" stroke="#3a414a" fill-opacity="0"/><use xlink:href="#h" transform="matrix(1,0,0,1,446.8641975308642,767.61250627189) translate(0 14.222222222222223)"/><path d="M773.26 692.86l1.96 2.68.2 1.28h67.7v1h-68.55l-.3-1.88-1.63-2.23-2.68-.87-1.34.22-2.23 1.63-1.04 3.14h-30.78l-.3-1.88-1.63-2.23-2.7-.87-1.33.22-2.23 1.63-1.04 3.14h-30.8l-.3-1.88-1.62-2.23-2.68-.87-1.34.22-2.23 1.63-1.04 3.14h-156.4l.05-.5-.03-.5h155.67l.9-2.76 2.68-1.96 1.82-.3 3.22 1.06 1.96 2.68.2 1.28h29.22l.9-2.76 2.68-1.96 1.82-.3 3.22 1.06 1.96 2.68.2 1.28h29.22l.9-2.76 2.68-1.96 1.82-.3zM450.8 696.8l-.07 1H421v-1h20.48z" stroke="#3a414a" stroke-width=".05" fill="#3a414a"/><path d="M421 697.8h-.5v-1h.5z" fill="#3a414a"/><path d="M421.04 697.83h-.56v-1.05h.56zm-.52-1v.95h.47v-.95z" stroke="#3a414a" stroke-width=".05" fill="#3a414a"/><path d="M857.88 697.32l-14.26 4.64v-9.28z" fill="#3a414a"/><path d="M859.5 697.32l-16.38 5.32V692zm-15.38 3.95l12.14-3.95-12.14-3.95z" stroke="#3a414a" stroke-width=".05" fill="#3a414a"/><path d="M451.27 697.32a14.67 14.67 0 0 1 14.67-14.67h47.9a14.67 14.67 0 0 1 14.67 14.67A14.67 14.67 0 0 1 513.85 712h-47.9a14.67 14.67 0 0 1-14.67-14.68z" stroke="#3a414a" fill-opacity="0"/><use xlink:href="#i" transform="matrix(1,0,0,1,463.27252240002906,686.6538223605165) translate(0 14.222222222222223)"/><path d="M546.36 492.87l1 .24.94.4.87.53.77.66.67.77.54.87.4.94.23 1 .08 1V628.7l-3.15 1.03-1.63 2.23-.2 1.34.87 2.7 2.22 1.6 1.9.3v53.4l.05.88.22.84.33.8.45.73.56.66.65.57.75.45.8.33.84.2.87.07h127.27l.9-2.76 2.68-1.96 1.82-.3 3.22 1.06 1.96 2.68.2 1.28h29.22l.9-2.76 2.68-1.96 1.82-.3 3.22 1.06 1.96 2.68.2 1.28h29.22l.9-2.76 2.68-1.96 1.82-.3 3.22 1.06 1.96 2.68.2 1.28h67.7v1h-68.55l-.3-1.88-1.63-2.23-2.68-.87-1.34.22-2.23 1.63-1.04 3.14h-30.78l-.3-1.88-1.63-2.23-2.7-.87-1.33.22-2.23 1.63-1.04 3.14h-30.8l-.3-1.88-1.62-2.23-2.68-.87-1.34.22-2.23 1.63-1.04 3.14H557.33l-1-.08-1-.24-.94-.4-.88-.52-.77-.66-.66-.78-.55-.87-.4-.94-.23-1-.07-1v-52.56l-1.28-.2-2.68-1.97-1.07-3.22.3-1.82 1.95-2.68 2.77-.9V499.3l-.07-.87-.2-.84-.34-.8-.45-.74-.57-.66-.65-.56-.74-.45-.8-.34-.83-.2-.87-.07h-15.48l.04-.5-.05-.5h15.52zM421 492.8h30.7l-.08 1H421z" stroke="#3a414a" stroke-width=".05" fill="#3a414a"/><path d="M421 493.8h-.5v-1h.5z" fill="#3a414a"/><path d="M421.04 493.8h-.56v-1.04h.56zm-.52-1v.96h.47v-.94z" stroke="#3a414a" stroke-width=".05" fill="#3a414a"/><path d="M857.88 697.32l-14.26 4.64v-9.28z" fill="#3a414a"/><path d="M859.5 697.32l-16.38 5.32V692zm-15.38 3.95l12.14-3.95-12.14-3.95z" stroke="#3a414a" stroke-width=".05" fill="#3a414a"/><path d="M452.16 493.3a14.67 14.67 0 0 1 14.66-14.68h47.9a14.67 14.67 0 0 1 14.67 14.67 14.67 14.67 0 0 1-14.67 14.66h-47.9a14.67 14.67 0 0 1-14.67-14.67z" stroke="#3a414a" fill-opacity="0"/><use xlink:href="#i" transform="matrix(1,0,0,1,464.1578025552232,482.6236262252364) translate(0 14.222222222222223)"/><path d="M174.48 493.8H160.5v-1h14.06zm68.64 0h-15.04l.04-.5-.04-.5h15.04zM160.5 493.8h-.5v-1h.5z" stroke="#3a414a" stroke-width=".05" fill="#3a414a"/><path d="M257.88 493.3l-14.26 4.63v-9.28z" fill="#3a414a"/><path d="M259.5 493.3l-16.38 5.3v-10.63zm-15.38 3.94l12.14-3.95-12.14-3.96z" stroke="#3a414a" stroke-width=".05" fill="#3a414a"/><path d="M175.02 493.3a14.67 14.67 0 0 1 14.67-14.68h23.25a14.67 14.67 0 0 1 14.66 14.67 14.67 14.67 0 0 1-14.65 14.66H189.7A14.67 14.67 0 0 1 175 493.3z" stroke="#3a414a" fill-opacity="0"/><use xlink:href="#x" transform="matrix(1,0,0,1,187.02183496594074,482.6236262252364) translate(0 14.222222222222223)"/><path d="M243.12 692.8v1h-12.04l.04-.5-.04-.5zm-102.62 0h12.42l-.08 1H140.5zM140.5 693.8h-.5v-1h.5z" stroke="#3a414a" stroke-width=".05" fill="#3a414a"/><path d="M257.88 693.3l-14.26 4.65v-9.27z" fill="#3a414a"/><path d="M259.5 693.3l-16.38 5.33V688zm-15.38 3.96l12.14-3.95-12.14-3.94z" stroke="#3a414a" stroke-width=".05" fill="#3a414a"/><path d="M153.38 693.3a14.67 14.67 0 0 1 14.67-14.68h47.9a14.67 14.67 0 0 1 14.67 14.67 14.67 14.67 0 0 1-14.67 14.66h-47.9a14.67 14.67 0 0 1-14.67-14.67z" stroke="#3a414a" fill-opacity="0"/><use xlink:href="#i" transform="matrix(1,0,0,1,165.38482009702395,682.6236262252364) translate(0 14.222222222222223)"/><path d="M156.3 633.83h-15.8v-1h15.88zm86.82 0h-15.54l.03-.5-.02-.5h15.54zM140.5 633.83h-.5v-1h.5z" stroke="#3a414a" stroke-width=".05" fill="#3a414a"/><path d="M257.88 633.33l-14.26 4.63v-9.27z" fill="#3a414a"/><path d="M259.5 633.33l-16.38 5.32V628zm-15.38 3.94l12.14-3.94-12.14-3.95z" stroke="#3a414a" stroke-width=".05" fill="#3a414a"/><path d="M156.84 633.33a14.67 14.67 0 0 1 14.67-14.67h40.95a14.67 14.67 0 0 1 14.66 14.67A14.67 14.67 0 0 1 212.46 648H171.5a14.67 14.67 0 0 1-14.66-14.67z" stroke="#3a414a" fill-opacity="0"/><use xlink:href="#h" transform="matrix(1,0,0,1,168.84222576079614,622.6646066958195) translate(0 14.222222222222223)"/><path d="M960.5 455.3l-.08 1-.24 1-.4.94-.52.87-.66.8-.78.65-.87.53-.94.4-.98.23-1 .1h-4.95v-1h4.9l.9-.08.83-.2.8-.33.73-.46.66-.56.55-.66.45-.73.33-.8.2-.85.07-.88v-4.25h1zm-16.37 5.5v1h-9.87v-1zm-14.8 0v1h-9.88v-1zm-14.8 0v1h-9.88v-1zm-14.82 0v1h-9.86v-1zm-14.8 0v1h-9.86v-1zm-14.8 0v1h-9.87v-1zm-14.8 0v1h-9.87v-1zm-14.8 0v1h-9.88v-1zm-14.82 0v1h-9.86v-1zm-14.8 0v1H801v-1zm-14.8 0v1h-9.88v-1zm-14.8 0v1h-9.88v-1zm-14.82-.02v1h-9.87v-1zm-14.8 0v1h-9.87v-1zm-14.8 0v1h-9.88v-1zm-14.8 0v1h-9.88v-1zm-14.82 0v1h-9.87v-1zm-14.8 0v1h-9.88v-1zm-14.8 0v1h-9.88v-1zm-14.82 0v1h-9.87v-1zm-14.8 0v1h-9.87v-1zm-14.8 0v1h-9.88v-1zm-14.8 0v1h-9.88v-1zm-14.82 0v1h-9.87v-1zm-14.8 0v1h-9.87v-1zm-14.8 0v1h-9.88v-1zm-14.82 0v1h-9.86v-1zm-14.8 0v1h-9.87v-1zm-14.8 0v1h-9.88v-1zm-14.8 0v1h-1.48l.04-.5-.04-.5zm-50 0l-.1 1h-4.2v-1zm-9.23 0v1h-9.87v-1zm-14.8 0v1h-9.88v-1zm-14.8 0v1H421v-1zm534.55-14.02h-1v-8.54h1zm0-12.8h-1v-8.54h1zm0-12.8h-1v-4.28h1z" stroke="#3a414a" stroke-width=".05" fill="#3a414a"/><path d="M421 460.77v1h-.5v-1z" fill="#3a414a"/><path d="M421.04 460.75v1.05h-.56v-1.06zm-.52 1h.47v-.95h-.48z" stroke="#3a414a" stroke-width=".05" fill="#3a414a"/><path d="M964.63 416.38h-9.26l4.63-14.26z" fill="#3a414a"/><path d="M965.32 416.88h-10.64L960 400.5zm-9.27-1h7.9L960 403.74z" stroke="#3a414a" stroke-width=".05" fill="#3a414a"/><path d="M467.23 453.96l.8-1.3 1.5-1.76 1.75-1.5 1.3-.8m3.53-1.46l1.5-.35 2.3-.2h6.1m6.08 0h6.1l2.28.2 1.5.34m3.52 1.47l1.3.8 1.76 1.5 1.5 1.75.8 1.3m1.46 3.54l.36 1.48.18 2.3-.2 2.3-.34 1.48m-1.46 3.52l-.8 1.3-1.5 1.76-1.75 1.5-1.32.8m-3.53 1.46l-1.5.36-2.28.18h-6.1m-6.08 0h-6.1l-2.3-.18-1.5-.36m-3.52-1.46l-1.3-.8-1.75-1.5-1.5-1.75-.8-1.3m-1.46-3.54l-.36-1.5-.17-2.3.18-2.28.37-1.5" stroke="#3a414a" fill="none"/><use xlink:href="#e" transform="matrix(1,0,0,1,477.2306034827509,450.60579709731815) translate(0 14.222222222222223)"/><path d="M409.83 602.96h-1v-4.83h1zm4.88-20h.1v.05l-.33.03-.84.2-.8.34-.73.45-.65.56-.56.65-.46.74-.33.8-.2.84-.07.9v4.8h-1v-4.85l.08-1 .25-1 .4-.94.52-.86.67-.77.77-.66.88-.53.94-.4 1-.23.46-.03zm55.8-6.47l-.08.98-.24 1-.4.94-.52.87-.66.76-.78.67-.87.53-.94.4-.98.23-1 .07h-.7l.04-.5-.04-.5h.66l.88-.07.84-.2.8-.34.73-.45.66-.55.55-.65.45-.74.33-.8.2-.83.07-.88v-5.6h1zm0-11.25h-1v-11.2h1zm0-16.82h-1v-11.2h1zm10.48-27.93h-4.96l-.88.07-.84.2-.8.33-.73.45-.66.56-.55.67-.45.73-.33.8-.2.84-.07.88v5.6h-1v-5.64l.08-1 .24-1 .4-.93.52-.87.66-.78.78-.66.87-.53.94-.38.98-.24 1-.08h5zm14.94 0h-9.96v-1h9.96zm14.93 0h-9.95v-1h9.95zm14.94 0h-9.97v-1h9.96zm14.93 0h-9.96v-1h9.96zm14.94 0h-9.96v-1h9.97zm14.93 0h-9.95v-1h9.95zm14.94 0h-9.96v-1h9.96zm14.94 0h-9.96v-1h9.96zm14.94 0h-9.96v-1h9.96zm14.93 0h-9.95v-1h9.95zm14.94 0h-9.97v-1h9.96zm14.93 0h-9.96v-1h9.96zm14.94 0h-9.96v-1h9.97zm14.93 0h-9.95v-1h9.95zm14.94 0h-9.96v-1h9.96zm14.94 0h-9.96v-1h9.96zm14.94 0h-9.96v-1h9.96zm14.93 0h-9.95v-1h9.95zm14.94 0h-9.97v-1h9.96zm14.93 0h-9.96v-1h9.96zm14.94 0h-9.96v-1h9.97zm14.93 0h-9.95v-1h9.95zm14.94 0h-9.96v-1h9.96zm14.94 0h-9.96v-1h9.96zm14.94 0h-9.96v-1h9.96zm14.93 0h-9.95v-1h9.95zm14.94 0h-9.97v-1h9.96zm14.93 0h-9.96v-1h9.96zm14.94 0h-9.96v-1h9.97zm14.93 0h-9.95v-1h9.95zm14.94 0h-9.96v-1h9.96zm16.46-6.48l-.08 1-.24 1-.4.93-.52.87-.66.78-.78.66-.87.53-.94.38-.98.24-1 .08h-5v-1h4.96l.88-.07.84-.2.8-.33.73-.45.66-.56.55-.67.45-.73.33-.8.2-.84.07-.88v-5.38h1zm0-10.8h-1v-10.8h1zm0-16.2h-1v-10.8h1zm0-16.18h-1v-10.8h1zm0-16.2h-1v-10.78h1zm0-16.18h-1V427.7h1zm0-16.18h-1v-5.4h1z" stroke="#3a414a" stroke-width=".05" fill="#3a414a"/><path d="M409.83 603.46h-1v-.5h1z" fill="#3a414a"/><path d="M409.86 603.5h-1.05v-.57h1.06zm-1-.52v.46h.95v-.46z" stroke="#3a414a" stroke-width=".05" fill="#3a414a"/><path d="M964.63 416.38h-9.26l4.63-14.26z" fill="#3a414a"/><path d="M965.32 416.88h-10.64L960 400.5zm-9.27-1h7.9L960 403.74z" stroke="#3a414a" stroke-width=".05" fill="#3a414a"/><path d="M417.25 575.15l.8-1.3 1.5-1.75 1.75-1.5 1.3-.8m3.53-1.46l1.5-.36 2.3-.18H436m6.1 0h6.1l2.28.18 1.5.36m3.52 1.46l1.3.8 1.76 1.5 1.5 1.75.8 1.3m1.45 3.53l.37 1.5.18 2.3-.18 2.28-.36 1.5m-1.45 3.52l-.8 1.3-1.5 1.76-1.74 1.5-1.3.8m-3.53 1.45l-1.5.35-2.28.18h-6.1m-6.1 0h-6.08l-2.3-.18-1.5-.36m-3.52-1.47l-1.3-.8-1.75-1.5-1.5-1.74-.8-1.32m-1.46-3.53l-.37-1.5-.18-2.28.18-2.3.36-1.5" stroke="#3a414a" fill="none"/><g><use xlink:href="#e" transform="matrix(1,0,0,1,427.24883490778575,571.7992473465487) translate(0 14.222222222222223)"/></g></g><defs><path fill="#3a414a" d="M209 0H11v-25l151-195H24v-28h176v25L50-27h159V0" id="y"/><path fill="#3a414a" d="M100-194c62-1 85 37 85 99 1 63-27 99-86 99S16-35 15-95c0-66 28-99 85-99zM99-20c44 1 53-31 53-75 0-43-8-75-51-75s-53 32-53 75 10 74 51 75" id="z"/><path fill="#3a414a" d="M143 0L79-87 56-68V0H24v-261h32v163l83-92h37l-77 82L181 0h-38" id="A"/><path fill="#3a414a" d="M100-194c63 0 86 42 84 106H49c0 40 14 67 53 68 26 1 43-12 49-29l28 8c-11 28-37 45-77 45C44 4 14-33 15-96c1-61 26-98 85-98zm52 81c6-60-76-77-97-28-3 7-6 17-6 28h103" id="B"/><path fill="#3a414a" d="M115-194c55 1 70 41 70 98S169 2 115 4C84 4 66-9 55-30l1 105H24l-1-265h31l2 30c10-21 28-34 59-34zm-8 174c40 0 45-34 45-75s-6-73-45-74c-42 0-51 32-51 76 0 43 10 73 51 73" id="C"/><path fill="#3a414a" d="M114-163C36-179 61-72 57 0H25l-1-190h30c1 12-1 29 2 39 6-27 23-49 58-41v29" id="D"/><g id="a"><use transform="matrix(0.06172839506172839,0,0,0.06172839506172839,0,0)" xlink:href="#y"/><use transform="matrix(0.06172839506172839,0,0,0.06172839506172839,13.518518518518517,0)" xlink:href="#z"/><use transform="matrix(0.06172839506172839,0,0,0.06172839506172839,25.864197530864196,0)" xlink:href="#z"/><use transform="matrix(0.06172839506172839,0,0,0.06172839506172839,38.20987654320987,0)" xlink:href="#A"/><use transform="matrix(0.06172839506172839,0,0,0.06172839506172839,49.32098765432099,0)" xlink:href="#B"/><use transform="matrix(0.06172839506172839,0,0,0.06172839506172839,61.666666666666664,0)" xlink:href="#B"/><use transform="matrix(0.06172839506172839,0,0,0.06172839506172839,74.01234567901234,0)" xlink:href="#C"/><use transform="matrix(0.06172839506172839,0,0,0.06172839506172839,86.35802469135803,0)" xlink:href="#B"/><use transform="matrix(0.06172839506172839,0,0,0.06172839506172839,98.70370370370371,0)" xlink:href="#D"/></g><path fill="#3a414a" d="M160-131c35 5 61 23 61 61C221 17 115-2 30 0v-248c76 3 177-17 177 60 0 33-19 50-47 57zm-97-11c50-1 110 9 110-42 0-47-63-36-110-37v79zm0 115c55-2 124 14 124-45 0-56-70-42-124-44v89" id="E"/><g id="b"><use transform="matrix(0.06172839506172839,0,0,0.06172839506172839,0,0)" xlink:href="#E"/><use transform="matrix(0.06172839506172839,0,0,0.06172839506172839,14.814814814814813,0)" xlink:href="#z"/><use transform="matrix(0.06172839506172839,0,0,0.06172839506172839,27.160493827160494,0)" xlink:href="#z"/><use transform="matrix(0.06172839506172839,0,0,0.06172839506172839,39.50617283950617,0)" xlink:href="#A"/><use transform="matrix(0.06172839506172839,0,0,0.06172839506172839,50.61728395061728,0)" xlink:href="#A"/><use transform="matrix(0.06172839506172839,0,0,0.06172839506172839,61.72839506172839,0)" xlink:href="#B"/><use transform="matrix(0.06172839506172839,0,0,0.06172839506172839,74.07407407407408,0)" xlink:href="#B"/><use transform="matrix(0.06172839506172839,0,0,0.06172839506172839,86.41975308641976,0)" xlink:href="#C"/><use transform="matrix(0.06172839506172839,0,0,0.06172839506172839,98.76543209876544,0)" xlink:href="#B"/><use transform="matrix(0.06172839506172839,0,0,0.06172839506172839,111.11111111111113,0)" xlink:href="#D"/></g><g id="c"><use transform="matrix(0.06172839506172839,0,0,0.06172839506172839,0,0)" xlink:href="#E"/><use transform="matrix(0.06172839506172839,0,0,0.06172839506172839,14.814814814814813,0)" xlink:href="#D"/><use transform="matrix(0.06172839506172839,0,0,0.06172839506172839,22.160493827160494,0)" xlink:href="#z"/><use transform="matrix(0.06172839506172839,0,0,0.06172839506172839,34.50617283950617,0)" xlink:href="#A"/><use transform="matrix(0.06172839506172839,0,0,0.06172839506172839,45.61728395061728,0)" xlink:href="#B"/><use transform="matrix(0.06172839506172839,0,0,0.06172839506172839,57.962962962962955,0)" xlink:href="#D"/></g><path fill="#333" d="M182-130c37 4 62 22 62 59C244 23 116-4 24 0v-248c84 5 203-23 205 63 0 31-19 50-47 55zM76-148c40-3 101 13 101-30 0-44-60-28-101-31v61zm0 110c48-3 116 14 116-37 0-48-69-32-116-35v72" id="F"/><path fill="#333" d="M195 0l-88-114-31 24V0H24v-248h52v113l112-113h60L142-143 257 0h-62" id="G"/><g id="d"><use transform="matrix(0.04938271604938272,0,0,0.04938271604938272,0,0)" xlink:href="#F"/><use transform="matrix(0.04938271604938272,0,0,0.04938271604938272,12.790123456790125,0)" xlink:href="#G"/></g><path fill="#333" d="M210 0H11v-37l134-170H24v-41h178v36L68-41h142V0" id="H"/><g id="e"><use transform="matrix(0.04938271604938272,0,0,0.04938271604938272,0,0)" xlink:href="#H"/><use transform="matrix(0.04938271604938272,0,0,0.04938271604938272,10.814814814814815,0)" xlink:href="#G"/></g><path fill="#333" d="M140-251c80 0 125 45 125 126 0 70-33 111-92 124 6 28 34 38 68 31l-1 36C177 83 129 55 120 2 51-6 15-50 15-125c0-81 44-126 125-126zm-1 214c52 0 73-35 73-88 0-50-21-86-72-86-52 0-73 35-73 86s22 88 72 88" id="I"/><path fill="#333" d="M85 4C-2 5 27-109 22-190h50c7 57-23 150 33 157 60-5 35-97 40-157h50l1 190h-47c-2-12 1-28-3-38-12 25-28 42-61 42" id="J"/><path fill="#333" d="M110-194c64 0 96 36 96 99 0 64-35 99-97 99-61 0-95-36-95-99 0-62 34-99 96-99zm-1 164c35 0 45-28 45-65 0-40-10-65-43-65-34 0-45 26-45 65 0 36 10 65 43 65" id="K"/><path fill="#333" d="M135-150c-39-12-60 13-60 57V0H25l-1-190h47c2 13-1 29 3 40 6-28 27-53 61-41v41" id="L"/><path fill="#333" d="M220-157c-53 9-28 100-34 157h-49v-107c1-27-5-49-29-50C55-147 81-57 75 0H25l-1-190h47c2 12-1 28 3 38 10-53 101-56 108 0 13-22 24-43 59-42 82 1 51 116 57 194h-49v-107c-1-25-5-48-29-50" id="M"/><g id="f"><use transform="matrix(0.04938271604938272,0,0,0.04938271604938272,0,0)" xlink:href="#I"/><use transform="matrix(0.04938271604938272,0,0,0.04938271604938272,13.827160493827162,0)" xlink:href="#J"/><use transform="matrix(0.04938271604938272,0,0,0.04938271604938272,24.641975308641975,0)" xlink:href="#K"/><use transform="matrix(0.04938271604938272,0,0,0.04938271604938272,35.45679012345679,0)" xlink:href="#L"/><use transform="matrix(0.04938271604938272,0,0,0.04938271604938272,42.370370370370374,0)" xlink:href="#J"/><use transform="matrix(0.04938271604938272,0,0,0.04938271604938272,53.18518518518519,0)" xlink:href="#M"/></g><path fill="#3a414a" d="M205 0l-28-72H64L36 0H1l101-248h38L239 0h-34zm-38-99l-47-123c-12 45-31 82-46 123h93" id="N"/><path fill="#3a414a" d="M84 4C-5 8 30-112 23-190h32v120c0 31 7 50 39 49 72-2 45-101 50-169h31l1 190h-30c-1-10 1-25-2-33-11 22-28 36-60 37" id="O"/><path fill="#3a414a" d="M59-47c-2 24 18 29 38 22v24C64 9 27 4 27-40v-127H5v-23h24l9-43h21v43h35v23H59v120" id="P"/><path fill="#3a414a" d="M96-169c-40 0-48 33-48 73s9 75 48 75c24 0 41-14 43-38l32 2c-6 37-31 61-74 61-59 0-76-41-82-99-10-93 101-131 147-64 4 7 5 14 7 22l-32 3c-4-21-16-35-41-35" id="Q"/><path fill="#3a414a" d="M108 0H70L1-190h34L89-25l56-165h34" id="R"/><path fill="#3a414a" d="M179-190L93 31C79 59 56 82 12 73V49c39 6 53-20 64-50L1-190h34L92-34l54-156h33" id="S"/><g id="g"><use transform="matrix(0.06172839506172839,0,0,0.06172839506172839,0,0)" xlink:href="#N"/><use transform="matrix(0.06172839506172839,0,0,0.06172839506172839,14.814814814814813,0)" xlink:href="#O"/><use transform="matrix(0.06172839506172839,0,0,0.06172839506172839,27.160493827160494,0)" xlink:href="#P"/><use transform="matrix(0.06172839506172839,0,0,0.06172839506172839,33.333333333333336,0)" xlink:href="#z"/><use transform="matrix(0.06172839506172839,0,0,0.06172839506172839,45.67901234567901,0)" xlink:href="#D"/><use transform="matrix(0.06172839506172839,0,0,0.06172839506172839,53.02469135802469,0)" xlink:href="#B"/><use transform="matrix(0.06172839506172839,0,0,0.06172839506172839,65.37037037037037,0)" xlink:href="#Q"/><use transform="matrix(0.06172839506172839,0,0,0.06172839506172839,76.48148148148148,0)" xlink:href="#z"/><use transform="matrix(0.06172839506172839,0,0,0.06172839506172839,88.82716049382717,0)" xlink:href="#R"/><use transform="matrix(0.06172839506172839,0,0,0.06172839506172839,99.93827160493828,0)" xlink:href="#B"/><use transform="matrix(0.06172839506172839,0,0,0.06172839506172839,112.28395061728396,0)" xlink:href="#D"/><use transform="matrix(0.06172839506172839,0,0,0.06172839506172839,119.62962962962965,0)" xlink:href="#S"/></g><path fill="#333" d="M186 0v-106H76V0H24v-248h52v99h110v-99h50V0h-50" id="T"/><path fill="#333" d="M136-208V0H84v-208H4v-40h212v40h-80" id="U"/><path fill="#333" d="M24-248c93 1 206-16 204 79-1 75-69 88-152 82V0H24v-248zm52 121c47 0 100 7 100-41 0-47-54-39-100-39v80" id="V"/><g id="h"><use transform="matrix(0.04938271604938272,0,0,0.04938271604938272,0,0)" xlink:href="#T"/><use transform="matrix(0.04938271604938272,0,0,0.04938271604938272,12.790123456790125,0)" xlink:href="#U"/><use transform="matrix(0.04938271604938272,0,0,0.04938271604938272,23.60493827160494,0)" xlink:href="#U"/><use transform="matrix(0.04938271604938272,0,0,0.04938271604938272,34.41975308641975,0)" xlink:href="#V"/></g><path fill="#333" d="M135-194c53 0 70 44 70 98 0 56-19 98-73 100-31 1-45-17-59-34 3 33 2 69 2 105H25l-1-265h48c2 10 0 23 3 31 11-24 29-35 60-35zM114-30c33 0 39-31 40-66 0-38-9-64-40-64-56 0-55 130 0 130" id="W"/><path fill="#333" d="M25 0v-261h50V0H25" id="X"/><path fill="#333" d="M137-138c1-29-70-34-71-4 15 46 118 7 119 86 1 83-164 76-172 9l43-7c4 19 20 25 44 25 33 8 57-30 24-41C81-84 22-81 20-136c-2-80 154-74 161-7" id="Y"/><path fill="#333" d="M133-34C117-15 103 5 69 4 32 3 11-16 11-54c-1-60 55-63 116-61 1-26-3-47-28-47-18 1-26 9-28 27l-52-2c7-38 36-58 82-57s74 22 75 68l1 82c-1 14 12 18 25 15v27c-30 8-71 5-69-32zm-48 3c29 0 43-24 42-57-32 0-66-3-65 30 0 17 8 27 23 27" id="Z"/><g id="i"><use transform="matrix(0.04938271604938272,0,0,0.04938271604938272,0,0)" xlink:href="#W"/><use transform="matrix(0.04938271604938272,0,0,0.04938271604938272,10.814814814814815,0)" xlink:href="#J"/><use transform="matrix(0.04938271604938272,0,0,0.04938271604938272,21.62962962962963,0)" xlink:href="#X"/><use transform="matrix(0.04938271604938272,0,0,0.04938271604938272,26.567901234567902,0)" xlink:href="#Y"/><use transform="matrix(0.04938271604938272,0,0,0.04938271604938272,36.44444444444444,0)" xlink:href="#Z"/><use transform="matrix(0.04938271604938272,0,0,0.04938271604938272,46.32098765432099,0)" xlink:href="#L"/></g><path fill="#333" d="M67-125c0 54 23 88 75 88 28 0 53-7 68-21v-34h-60v-39h108v91C232-14 192 4 140 4 58 4 20-42 15-125 8-236 126-280 215-234c19 10 29 26 37 47l-47 15c-11-23-29-39-63-39-53 1-75 33-75 86" id="aa"/><path fill="#333" d="M185-48c-13 30-37 53-82 52C43 2 14-33 14-96s30-98 90-98c62 0 83 45 84 108H66c0 31 8 55 39 56 18 0 30-7 34-22zm-45-69c5-46-57-63-70-21-2 6-4 13-4 21h74" id="ab"/><path fill="#333" d="M14-72v-43h91v43H14" id="ac"/><path fill="#333" d="M25-224v-37h50v37H25zM25 0v-190h50V0H25" id="ad"/><path fill="#333" d="M190-63c-7 42-38 67-86 67-59 0-84-38-90-98-12-110 154-137 174-36l-49 2c-2-19-15-32-35-32-30 0-35 28-38 64-6 74 65 87 74 30" id="ae"/><path fill="#333" d="M115-3C79 11 28 4 28-45v-112H4v-33h27l15-45h31v45h36v33H77v99c-1 23 16 31 38 25v30" id="af"/><path fill="#333" d="M135-194c87-1 58 113 63 194h-50c-7-57 23-157-34-157-59 0-34 97-39 157H25l-1-190h47c2 12-1 28 3 38 12-26 28-41 61-42" id="ag"/><g id="j"><use transform="matrix(0.04938271604938272,0,0,0.04938271604938272,0,0)" xlink:href="#aa"/><use transform="matrix(0.04938271604938272,0,0,0.04938271604938272,13.827160493827162,0)" xlink:href="#ab"/><use transform="matrix(0.04938271604938272,0,0,0.04938271604938272,23.703703703703706,0)" xlink:href="#K"/><use transform="matrix(0.04938271604938272,0,0,0.04938271604938272,34.51851851851852,0)" xlink:href="#ac"/><use transform="matrix(0.04938271604938272,0,0,0.04938271604938272,40.39506172839506,0)" xlink:href="#L"/><use transform="matrix(0.04938271604938272,0,0,0.04938271604938272,47.308641975308646,0)" xlink:href="#ab"/><use transform="matrix(0.04938271604938272,0,0,0.04938271604938272,57.18518518518519,0)" xlink:href="#W"/><use transform="matrix(0.04938271604938272,0,0,0.04938271604938272,68,0)" xlink:href="#X"/><use transform="matrix(0.04938271604938272,0,0,0.04938271604938272,72.93827160493828,0)" xlink:href="#ad"/><use transform="matrix(0.04938271604938272,0,0,0.04938271604938272,77.87654320987656,0)" xlink:href="#ae"/><use transform="matrix(0.04938271604938272,0,0,0.04938271604938272,87.7530864197531,0)" xlink:href="#Z"/><use transform="matrix(0.04938271604938272,0,0,0.04938271604938272,97.62962962962965,0)" xlink:href="#af"/><use transform="matrix(0.04938271604938272,0,0,0.04938271604938272,103.50617283950618,0)" xlink:href="#ad"/><use transform="matrix(0.04938271604938272,0,0,0.04938271604938272,108.44444444444446,0)" xlink:href="#K"/><use transform="matrix(0.04938271604938272,0,0,0.04938271604938272,119.25925925925927,0)" xlink:href="#ag"/></g><path fill="#333" d="M88-194c31-1 46 15 58 34l-1-101h50l1 261h-48c-2-10 0-23-3-31C134-8 116 4 84 4 32 4 16-41 15-95c0-56 19-97 73-99zm17 164c33 0 40-30 41-66 1-37-9-64-41-64s-38 30-39 65c0 43 13 65 39 65" id="ah"/><g id="k"><use transform="matrix(0.04938271604938272,0,0,0.04938271604938272,0,0)" xlink:href="#U"/><use transform="matrix(0.04938271604938272,0,0,0.04938271604938272,10.469135802469136,0)" xlink:href="#ad"/><use transform="matrix(0.04938271604938272,0,0,0.04938271604938272,15.407407407407408,0)" xlink:href="#ab"/><use transform="matrix(0.04938271604938272,0,0,0.04938271604938272,25.283950617283953,0)" xlink:href="#L"/><use transform="matrix(0.04938271604938272,0,0,0.04938271604938272,32.19753086419753,0)" xlink:href="#ab"/><use transform="matrix(0.04938271604938272,0,0,0.04938271604938272,42.074074074074076,0)" xlink:href="#ah"/></g><path fill="#333" d="M169-182c-1-43-94-46-97-3 18 66 151 10 154 114 3 95-165 93-204 36-6-8-10-19-12-30l50-8c3 46 112 56 116 5-17-69-150-10-154-114-4-87 153-88 188-35 5 8 8 18 10 28" id="ai"/><path fill="#333" d="M195-6C206 82 75 100 31 46c-4-6-6-13-8-21l49-6c3 16 16 24 34 25 40 0 42-37 40-79-11 22-30 35-61 35-53 0-70-43-70-97 0-56 18-96 73-97 30 0 46 14 59 34l2-30h47zm-90-29c32 0 41-27 41-63 0-35-9-62-40-62-32 0-39 29-40 63 0 36 9 62 39 62" id="aj"/><g id="l"><use transform="matrix(0.04938271604938272,0,0,0.04938271604938272,0,0)" xlink:href="#ai"/><use transform="matrix(0.04938271604938272,0,0,0.04938271604938272,11.851851851851853,0)" xlink:href="#af"/><use transform="matrix(0.04938271604938272,0,0,0.04938271604938272,17.728395061728396,0)" xlink:href="#K"/><use transform="matrix(0.04938271604938272,0,0,0.04938271604938272,28.543209876543205,0)" xlink:href="#L"/><use transform="matrix(0.04938271604938272,0,0,0.04938271604938272,35.45679012345679,0)" xlink:href="#Z"/><use transform="matrix(0.04938271604938272,0,0,0.04938271604938272,45.333333333333336,0)" xlink:href="#aj"/><use transform="matrix(0.04938271604938272,0,0,0.04938271604938272,56.14814814814815,0)" xlink:href="#ab"/></g><path fill="#3a414a" d="M63-220v92h138v28H63V0H30v-248h175v28H63" id="ak"/><path fill="#3a414a" d="M117-194c89-4 53 116 60 194h-32v-121c0-31-8-49-39-48C34-167 62-67 57 0H25l-1-190h30c1 10-1 24 2 32 11-22 29-35 61-36" id="al"/><path fill="#3a414a" d="M24-231v-30h32v30H24zM24 0v-190h32V0H24" id="am"/><g id="m"><use transform="matrix(0.06172839506172839,0,0,0.06172839506172839,0,0)" xlink:href="#ak"/><use transform="matrix(0.06172839506172839,0,0,0.06172839506172839,13.518518518518517,0)" xlink:href="#O"/><use transform="matrix(0.06172839506172839,0,0,0.06172839506172839,25.864197530864196,0)" xlink:href="#al"/><use transform="matrix(0.06172839506172839,0,0,0.06172839506172839,38.20987654320987,0)" xlink:href="#Q"/><use transform="matrix(0.06172839506172839,0,0,0.06172839506172839,49.32098765432099,0)" xlink:href="#P"/><use transform="matrix(0.06172839506172839,0,0,0.06172839506172839,55.49382716049383,0)" xlink:href="#am"/><use transform="matrix(0.06172839506172839,0,0,0.06172839506172839,60.370370370370374,0)" xlink:href="#z"/><use transform="matrix(0.06172839506172839,0,0,0.06172839506172839,72.71604938271605,0)" xlink:href="#al"/></g><path fill="#3a414a" d="M266 0h-40l-56-210L115 0H75L2-248h35L96-30l15-64 43-154h32l59 218 59-218h35" id="an"/><g id="n"><use transform="matrix(0.06172839506172839,0,0,0.06172839506172839,0,0)" xlink:href="#an"/><use transform="matrix(0.06172839506172839,0,0,0.06172839506172839,20.493827160493826,0)" xlink:href="#z"/><use transform="matrix(0.06172839506172839,0,0,0.06172839506172839,32.839506172839506,0)" xlink:href="#D"/><use transform="matrix(0.06172839506172839,0,0,0.06172839506172839,40.18518518518518,0)" xlink:href="#A"/><use transform="matrix(0.06172839506172839,0,0,0.06172839506172839,51.29629629629629,0)" xlink:href="#B"/><use transform="matrix(0.06172839506172839,0,0,0.06172839506172839,63.641975308641975,0)" xlink:href="#D"/></g><g id="o"><use transform="matrix(0.06172839506172839,0,0,0.06172839506172839,0,0)" xlink:href="#ak"/><use transform="matrix(0.06172839506172839,0,0,0.06172839506172839,13.518518518518517,0)" xlink:href="#O"/><use transform="matrix(0.06172839506172839,0,0,0.06172839506172839,25.864197530864196,0)" xlink:href="#al"/><use transform="matrix(0.06172839506172839,0,0,0.06172839506172839,38.20987654320987,0)" xlink:href="#Q"/><use transform="matrix(0.06172839506172839,0,0,0.06172839506172839,49.32098765432099,0)" xlink:href="#P"/><use transform="matrix(0.06172839506172839,0,0,0.06172839506172839,55.49382716049383,0)" xlink:href="#am"/><use transform="matrix(0.06172839506172839,0,0,0.06172839506172839,60.370370370370374,0)" xlink:href="#z"/><use transform="matrix(0.06172839506172839,0,0,0.06172839506172839,72.71604938271605,0)" xlink:href="#al"/></g><path fill="#333" d="M240-174c0 40-23 61-54 70L253 0h-59l-57-94H76V0H24v-248c93 4 217-23 216 74zM76-134c48-2 112 12 112-38 0-48-66-32-112-35v73" id="ao"/><path fill="#333" d="M67-125c0 53 21 87 73 88 37 1 54-22 65-47l45 17C233-25 199 4 140 4 58 4 20-42 15-125 8-235 124-281 211-232c18 10 29 29 36 50l-46 12c-8-25-30-41-62-41-52 0-71 34-72 86" id="ap"/><g id="p"><use transform="matrix(0.04938271604938272,0,0,0.04938271604938272,0,0)" xlink:href="#aj"/><use transform="matrix(0.04938271604938272,0,0,0.04938271604938272,10.814814814814815,0)" xlink:href="#ao"/><use transform="matrix(0.04938271604938272,0,0,0.04938271604938272,23.60493827160494,0)" xlink:href="#V"/><use transform="matrix(0.04938271604938272,0,0,0.04938271604938272,35.45679012345679,0)" xlink:href="#ap"/></g><path fill="#333" d="M67-93c0 74 22 123 53 168H70C40 30 18-18 18-93s22-123 52-168h50c-32 44-53 94-53 168" id="aq"/><path fill="#333" d="M102-93c0 74-22 123-52 168H0C30 29 54-18 53-93c0-74-22-123-53-168h50c30 45 52 94 52 168" id="ar"/><g id="q"><use transform="matrix(0.04938271604938272,0,0,0.04938271604938272,0,0)" xlink:href="#aq"/><use transform="matrix(0.04938271604938272,0,0,0.04938271604938272,5.8765432098765435,0)" xlink:href="#ai"/><use transform="matrix(0.04938271604938272,0,0,0.04938271604938272,17.728395061728396,0)" xlink:href="#af"/><use transform="matrix(0.04938271604938272,0,0,0.04938271604938272,23.60493827160494,0)" xlink:href="#Z"/><use transform="matrix(0.04938271604938272,0,0,0.04938271604938272,33.48148148148148,0)" xlink:href="#af"/><use transform="matrix(0.04938271604938272,0,0,0.04938271604938272,39.358024691358025,0)" xlink:href="#J"/><use transform="matrix(0.04938271604938272,0,0,0.04938271604938272,50.17283950617284,0)" xlink:href="#Y"/><use transform="matrix(0.04938271604938272,0,0,0.04938271604938272,60.04938271604939,0)" xlink:href="#ar"/></g><g id="r"><use transform="matrix(0.04938271604938272,0,0,0.04938271604938272,0,0)" xlink:href="#aq"/><use transform="matrix(0.04938271604938272,0,0,0.04938271604938272,5.8765432098765435,0)" xlink:href="#ai"/><use transform="matrix(0.04938271604938272,0,0,0.04938271604938272,17.728395061728396,0)" xlink:href="#af"/><use transform="matrix(0.04938271604938272,0,0,0.04938271604938272,23.60493827160494,0)" xlink:href="#Z"/><use transform="matrix(0.04938271604938272,0,0,0.04938271604938272,33.48148148148148,0)" xlink:href="#af"/><use transform="matrix(0.04938271604938272,0,0,0.04938271604938272,39.358024691358025,0)" xlink:href="#ab"/></g><g id="s"><use transform="matrix(0.04938271604938272,0,0,0.04938271604938272,0,0)" xlink:href="#ai"/><use transform="matrix(0.04938271604938272,0,0,0.04938271604938272,11.851851851851853,0)" xlink:href="#af"/><use transform="matrix(0.04938271604938272,0,0,0.04938271604938272,17.728395061728396,0)" xlink:href="#K"/><use transform="matrix(0.04938271604938272,0,0,0.04938271604938272,28.543209876543205,0)" xlink:href="#L"/><use transform="matrix(0.04938271604938272,0,0,0.04938271604938272,35.45679012345679,0)" xlink:href="#Z"/><use transform="matrix(0.04938271604938272,0,0,0.04938271604938272,45.333333333333336,0)" xlink:href="#aj"/><use transform="matrix(0.04938271604938272,0,0,0.04938271604938272,56.14814814814815,0)" xlink:href="#ab"/><use transform="matrix(0.04938271604938272,0,0,0.04938271604938272,66.0246913580247,0)" xlink:href="#ar"/></g><path fill="#333" d="M24-248c120-7 223 5 221 122C244-46 201 0 124 0H24v-248zM76-40c74 7 117-18 117-86 0-67-45-88-117-82v168" id="as"/><path fill="#333" d="M24 0v-248h52v208h133V0H24" id="at"/><g id="t"><use transform="matrix(0.04938271604938272,0,0,0.04938271604938272,0,0)" xlink:href="#as"/><use transform="matrix(0.04938271604938272,0,0,0.04938271604938272,12.790123456790125,0)" xlink:href="#at"/><use transform="matrix(0.04938271604938272,0,0,0.04938271604938272,23.60493827160494,0)" xlink:href="#K"/><use transform="matrix(0.04938271604938272,0,0,0.04938271604938272,34.41975308641975,0)" xlink:href="#aj"/></g><path fill="#3a414a" d="M30-248c87 1 191-15 191 75 0 78-77 80-158 76V0H30v-248zm33 125c57 0 124 11 124-50 0-59-68-47-124-48v98" id="au"/><path fill="#3a414a" d="M141 0L90-78 38 0H4l68-98-65-92h35l48 74 47-74h35l-64 92 68 98h-35" id="av"/><g id="u"><use transform="matrix(0.06172839506172839,0,0,0.06172839506172839,0,0)" xlink:href="#au"/><use transform="matrix(0.06172839506172839,0,0,0.06172839506172839,14.814814814814813,0)" xlink:href="#D"/><use transform="matrix(0.06172839506172839,0,0,0.06172839506172839,22.160493827160494,0)" xlink:href="#z"/><use transform="matrix(0.06172839506172839,0,0,0.06172839506172839,34.50617283950617,0)" xlink:href="#av"/><use transform="matrix(0.06172839506172839,0,0,0.06172839506172839,45.61728395061728,0)" xlink:href="#S"/></g><path fill="#3a414a" d="M115-194c53 0 69 39 70 98 0 66-23 100-70 100C84 3 66-7 56-30L54 0H23l1-261h32v101c10-23 28-34 59-34zm-8 174c40 0 45-34 45-75 0-40-5-75-45-74-42 0-51 32-51 76 0 43 10 73 51 73" id="aw"/><path fill="#3a414a" d="M185-189c-5-48-123-54-124 2 14 75 158 14 163 119 3 78-121 87-175 55-17-10-28-26-33-46l33-7c5 56 141 63 141-1 0-78-155-14-162-118-5-82 145-84 179-34 5 7 8 16 11 25" id="ax"/><g id="v"><use transform="matrix(0.06172839506172839,0,0,0.06172839506172839,0,0)" xlink:href="#an"/><use transform="matrix(0.06172839506172839,0,0,0.06172839506172839,20.493827160493826,0)" xlink:href="#B"/><use transform="matrix(0.06172839506172839,0,0,0.06172839506172839,32.839506172839506,0)" xlink:href="#aw"/><use transform="matrix(0.06172839506172839,0,0,0.06172839506172839,45.18518518518518,0)" xlink:href="#ax"/><use transform="matrix(0.06172839506172839,0,0,0.06172839506172839,60,0)" xlink:href="#z"/><use transform="matrix(0.06172839506172839,0,0,0.06172839506172839,72.34567901234568,0)" xlink:href="#Q"/><use transform="matrix(0.06172839506172839,0,0,0.06172839506172839,83.4567901234568,0)" xlink:href="#A"/><use transform="matrix(0.06172839506172839,0,0,0.06172839506172839,94.56790123456791,0)" xlink:href="#B"/><use transform="matrix(0.06172839506172839,0,0,0.06172839506172839,106.9135802469136,0)" xlink:href="#P"/></g><g id="w"><use transform="matrix(0.06172839506172839,0,0,0.06172839506172839,0,0)" xlink:href="#au"/><use transform="matrix(0.06172839506172839,0,0,0.06172839506172839,14.814814814814813,0)" xlink:href="#D"/><use transform="matrix(0.06172839506172839,0,0,0.06172839506172839,22.160493827160494,0)" xlink:href="#z"/><use transform="matrix(0.06172839506172839,0,0,0.06172839506172839,34.50617283950617,0)" xlink:href="#av"/><use transform="matrix(0.06172839506172839,0,0,0.06172839506172839,45.61728395061728,0)" xlink:href="#S"/></g><path fill="#333" d="M275 0h-61l-44-196L126 0H64L0-248h53L97-49l45-199h58l43 199 44-199h52" id="ay"/><g id="x"><use transform="matrix(0.04938271604938272,0,0,0.04938271604938272,0,0)" xlink:href="#ay"/><use transform="matrix(0.04938271604938272,0,0,0.04938271604938272,16.74074074074074,0)" xlink:href="#ai"/></g></defs></g></svg>