<svg xmlns="http://www.w3.org/2000/svg" xmlns:xlink="http://www.w3.org/1999/xlink" xmlns:lucid="lucid" width="1174.8" height="312.5"><g transform="translate(-38.86163631441559 -37.57446415547713)" lucid:page-tab-id="0_0"><path d="M0 0h6299.2v6299.2H0z" fill="#fff"/><path d="M767.96 63.57a6 6 0 0 1 6-6h307a6 6 0 0 1 6 6v260.5a6 6 0 0 1-6 6h-307a6 6 0 0 1-6-6z" stroke="#4881b3" stroke-width="3" fill="#cfe4ff"/><path d="M807.06 133.02c-8.86 0-16.05-6.36-16.05-14.2 0-6.27 4.36-11.57 11.1-13.5-.4-18.45 26.36-22 37.06-14.9 5.36-10.65 32.1-7.1 32.1 3.55 16.06-3.55 32.1 10.65 21.4 28.4 10.7 14.2 0 31.95-21.4 24.85-5.34 9.23-26.75 9.23-32.1 0-10.7 7.1-32.1 3.55-32.1-14.2z" stroke="#4881b3" stroke-width="3" fill="#f5fbff"/><use xlink:href="#a" transform="matrix(1,0,0,1,796.0113735608156,88.31974370638534) translate(11.698847656249997 35.7705078125)"/><path d="M869.67 168.25a6 6 0 0 1 6-6h312a6 6 0 0 1 6 6v48a6 6 0 0 1-6 6h-312a6 6 0 0 1-6-6z" stroke="#000" stroke-opacity="0" stroke-width="2" fill="#fff" fill-opacity="0"/><use xlink:href="#b" transform="matrix(1,0,0,1,874.6657913843386,167.25510494277785) translate(0 32.27115885416666)"/><path d="M943.2 282.15c-11.76 0-21.3-8.15-21.3-18.2 0-8.04 5.77-14.82 14.72-17.3-.52-23.65 34.98-28.2 49.18-19.1 7.1-13.65 42.6-9.1 42.6 4.55 21.3-4.55 42.6 13.65 28.4 36.4 14.2 18.2 0 40.95-28.4 31.85-7.1 11.83-35.5 11.83-42.6 0-14.2 9.1-42.6 4.55-42.6-18.2z" stroke="#4881b3" stroke-width="3" fill="#f5fbff"/><use xlink:href="#c" transform="matrix(1,0,0,1,926.9006360681869,223.44902123360032) translate(10.9912109375 47.0830078125)"/><path d="M962.66 132.17c-8.37 0-15.15-6.25-15.15-13.96 0-6.16 4.1-11.36 10.48-13.26-.37-18.13 24.88-21.62 34.98-14.64 5.05-10.47 30.3-6.98 30.3 3.5 15.16-3.5 30.3 10.45 20.2 27.9 10.1 13.96 0 31.4-20.2 24.42-5.04 9.07-25.25 9.07-30.3 0-10.1 6.98-30.3 3.5-30.3-13.95z" stroke="#4881b3" stroke-width="3" fill="#f5fbff"/><use xlink:href="#d" transform="matrix(1,0,0,1,952.5113735608156,88.31974370638602) translate(13.599726562499997 35.4580078125)"/><path d="M819.32 267.4c-5.97 0-10.8-4.38-10.8-9.8 0-4.33 2.92-7.98 7.46-9.32-.26-12.73 17.74-15.18 24.93-10.28 3.62-7.35 21.62-4.9 21.62 2.45 10.8-2.45 21.6 7.35 14.4 19.6 7.2 9.8 0 22.05-14.4 17.15-3.6 6.37-18 6.37-21.6 0-7.2 4.9-21.6 2.45-21.6-9.8z" stroke="#4881b3" stroke-width="3" fill="#f5fbff"/><use xlink:href="#e" transform="matrix(1,0,0,1,813.5146554976982,238.10377692527902) translate(17.802363281250003 26.4580078125)"/><path d="M134.07 141.04c-27.6 0-50 22.4-50 50s22.4 50 50 50 50-22.4 50-50-22.4-50-50-50z" stroke="#000" stroke-opacity="0" stroke-width="2.34" fill="#032d60"/><path d="M121.54 200.9c.34.17.68.17 1.03.17.34 0 .7 0 1.03-.17 1.72-.52 2.93-1.9 2.93-3.8 0-1.72-1.2-3.27-2.93-3.8-.34-.16-.7-.16-1.03-.16-.35 0-.7 0-1.03.17-.87.18-1.56.7-2.08 1.4-.52.68-.7 1.37-.7 2.23 0 .86.35 1.73.7 2.24.35 1.04 1.2 1.56 2.08 1.73zM129.8 188.98h7.75c-.33-1.38-.33-2.93.2-4.15h-7.95c-1.2 0-2.1-.84-2.1-2.06 0-1.2.9-2.06 2.1-2.06h8.44c.72 0 1.4.36 1.74 1.04l4.5-5.52v-8.08h-20.9v21c1.54.18 3.1.87 4.32 1.9 0-1.38.86-2.06 1.9-2.06zm0-16.88h8.44c1.22 0 2.1.87 2.1 2.06 0 1.22-.88 2.06-2.1 2.06h-8.44c-1.2 0-2.1-.84-2.1-2.06 0-1.2 1.06-2.06 2.1-2.06zM123.5 205.5c-.33 0-.68-.16-1.03-.16-.34 0-.7 0-1.03.17-.7.2-1.55.35-2.07.7-1.9 1.03-3.1 3.1-3.1 5.35v2.24h12.4v-2.08c0-3.1-2.24-5.7-5.17-6.2zM138.17 193.08h-8.44-.18c.7 1.2 1.04 2.58 1.04 3.95v.17h7.4c1.2 0 2.06.87 2.06 2.06 0 1.22-.85 2.1-2.07 2.1h-8.79c-.33.5-.7 1-1.03 1.36 1.04.7 2.08 1.7 2.76 2.75H138c1.2 0 2.06.87 2.06 2.06 0 1.22-.85 2.1-2.07 2.1h-5.34c.16.5.16 1.18.16 1.7v2.4h11.55v-16l-4.83-5.7c-.17.88-.67 1.05-1.37 1.05zM161.5 185h-13.28l.7-.87 2.6-3.44c.66-.88.66-2.24-.2-2.94-.34-.35-.84-.52-1.37-.52-.35 0-.68.17-1.03.35-.17.16-.35.16-.52.33l-1.56 1.9-2.06 2.58-2.58 3.3c-.53.67-.7 1.54-.35 2.23.17.17.17.33.35.5l2.58 3.1 2.06 2.42 1.56 1.9c.17.17.35.34.52.34.35.17.68.34 1.03.34.53 0 1.03-.17 1.38-.52.85-.68 1.03-2.07.18-2.94l-2.58-3.08-.7-.7H161.52c1.2 0 2.05-.87 2.05-2.06 0-1.22-.85-2.24-2.06-2.24z" stroke="#000" stroke-opacity="0" stroke-width="2.34" fill-opacity="0"/><path d="M129.74 176.18h8.47c1.22 0 2.07-.86 2.07-2.07 0-1.2-.85-2.06-2.06-2.06h-8.46c-1.2 0-2.07.86-2.07 2.07 0 1.22 1.04 2.08 2.07 2.08z" stroke="#000" stroke-opacity="0" stroke-width="2.34" fill="#fff"/><path d="M161.5 180.9h-5.37c.5-2.2-.16-4.47-2.06-6.23-1.23-1-2.58-1.54-4.14-1.54-.34 0-.67 0-1.06.17v-7.37c0-1.2-.84-2.1-2.07-2.1h-25.32c-1.23 0-2.07.9-2.07 2.1v23.76c-3.12 1.2-5.2 4.33-5.2 7.74 0 2.26.9 4.35 2.4 5.9-2.73 1.86-4.63 5.16-4.63 8.8v4.44c0 1.2 1.06 2.26 2.24 2.26h32.6c1.23 0 2.07-.88 2.07-2.1v-15.5c.4 0 .72.16 1.06.16 1.56 0 2.9-.5 4.14-1.54 1.73-1.54 2.4-3.8 2.06-5.83h5.37c3.47 0 6.37-2.8 6.37-6.38 0-3.63-2.9-6.76-6.37-6.76zm-37.96-12.94h21.02v8.14l-4.47 5.5c-.34-.55-1-1.04-1.74-1.04h-8.44c-1.23 0-2.07.88-2.07 2.1 0 1.2.84 2.02 2.07 2.02h7.94c-.5 1.38-.68 2.75-.17 4.18h-7.6c-1.02 0-1.92.83-2.08 1.87-1.23-1.04-2.58-1.54-4.3-1.87v-20.9zm-4.3 26.9c.5-.66 1.17-1.2 2.07-1.38.34-.16.68-.16 1.02-.16.33 0 .72 0 1.06.16 1.73.55 2.9 1.93 2.9 3.8 0 1.7-1.17 3.3-2.9 3.8-.34.16-.73.16-1.06.16-.34 0-.68 0-1-.17-.9-.16-1.58-.66-2.08-1.37-.56-.72-.73-1.38-.73-2.26 0-1.04.35-1.87.74-2.58zM128.7 214h-12.41v-2.26c0-2.2 1.23-4.3 3.13-5.33.68-.32 1.35-.65 2.08-.65.33 0 .67-.17 1-.17.34 0 .73 0 1.06.17 2.9.5 5.15 3.08 5.15 6.2V214zm15.86.16h-11.5v-2.42c0-.66 0-1.15-.24-1.7h5.37c1.22 0 2.06-.88 2.06-2.04 0-1.2-.84-2.1-2.07-2.1h-7.05c-.73-1.03-1.74-2.08-2.8-2.74.34-.38.9-.88 1.06-1.37h8.79c1.22 0 2.06-.9 2.06-2.1 0-1.2-.84-2.1-2.07-2.1h-7.44v-.16c0-1.37-.34-2.75-1-3.96h8.6c.5 0 1.23-.16 1.56-.66l4.8 5.67v15.66zm16.94-24.8h-13.3l.67.66 2.62 3.13c.66.88.66 2.26-.17 2.92-.34.33-.9.55-1.4.55-.34 0-.67-.22-1.06-.4-.17-.15-.34-.15-.5-.32l-1.57-1.87-2.07-2.42-2.57-3.12c-.17-.17-.17-.33-.34-.5-.33-.7-.16-1.54.34-2.25l2.57-3.25 2.07-2.58 1.56-1.93c.17-.16.34-.33.5-.33.4-.16.73-.33 1.07-.33.5 0 1.06.18 1.4.5.83.67 1 2.1.16 2.92l-2.63 3.47-.67.87h13.3c1.17 0 2.07.82 2.07 2.03 0 1.2-.9 2.26-2.07 2.26z" stroke="#000" stroke-opacity="0" stroke-width="2.34" fill="#fff"/><path d="M58.86 247.9h150.42v30.94H58.86z" fill="#fff" fill-opacity="0"/><use xlink:href="#f" transform="matrix(1,0,0,1,63.86163631441559,252.88724820295) translate(38.0947265625 18.0205078125)"/><path d="M424.55 143.1l-55.53 11.23-41.4 6.54-37.76 4.34-37.1 2.7-38.17 1.16-39.6-.47.04-2 39.53.46 38.08-1.16 37.03-2.68 37.66-4.33 41.33-6.54 55.46-11.23L572 108.05h9.16zM745.3 89.74l-29.8.9-10.93.8v-2l10.82-.8 29.85-.9z" stroke="#224c72" stroke-width=".05" fill="#224c72"/><path d="M175.06 166.6l-.02 2-1.03-.02.04-2z" stroke="#224c72" stroke-width=".05" fill="#224c72"/><path d="M760.54 88.48l-14.18 4.9-.17-9.28z" fill="#224c72"/><path d="M763.77 88.43l-18.4 6.33-.2-12.02zm-16.44 3.55l9.97-3.44-10.08-3.08z" stroke="#224c72" stroke-width=".05" fill="#224c72"/><use xlink:href="#g" transform="matrix(1,0,0,1,564.143917722858,87.09139461536552) translate(0.0049999999999954525 16.7080078125)"/><use xlink:href="#h" transform="matrix(1,0,0,1,564.143917722858,87.09139461536552) translate(54.013789062499995 16.7080078125)"/><path d="M750.5 291.24l12.3.47-.06 2-12.35-.46-53.3-3.32v-2zm-516.02-71.5L286.5 223l48.4 5.08 51.12 7.58L585.4 272.5h-7.13v.73l-192.58-35.6-51.04-7.57-48.32-5.07-51.94-3.26-41.9-.85.04-2z" stroke="#224c72" stroke-width=".05" fill="#224c72"/><path d="M191.43 224.5l-14.17-4.92 14.36-4.34z" fill="#224c72"/><path d="M192.4 225.9l-18.37-6.4 18.62-5.62zm-11.9-6.25l9.96 3.46.13-6.5zM763.8 291.75l-.06 2-1.03-.04.1-2z" stroke="#224c72" stroke-width=".05" fill="#224c72"/><use xlink:href="#i" transform="matrix(1,0,0,1,578.2695470851133,272.5120514280692) translate(0.005000000000002558 16.7080078125)"/><use xlink:href="#j" transform="matrix(1,0,0,1,578.2695470851133,272.5120514280692) translate(75.6173046875 16.7080078125)"/><path d="M231.82 88.3a6 6 0 0 1 6-6h276.23a6 6 0 0 1 6 6v211.05a6 6 0 0 1-6 6H237.82a6 6 0 0 1-6-6z" stroke="#000" stroke-opacity="0" stroke-width="3" fill="#6db1ff"/><g><use xlink:href="#k" transform="matrix(1,0,0,1,236.82056083480626,87.29996579159013) translate(25.014702690972257 114.45844184027777)"/><use xlink:href="#l" transform="matrix(1,0,0,1,236.82056083480626,87.29996579159013) translate(119.29671223958334 114.45844184027777)"/><use xlink:href="#m" transform="matrix(1,0,0,1,236.82056083480626,87.29996579159013) translate(200.10986328124997 114.45844184027777)"/></g><defs><path fill="#1d262b" d="M707 0H520v-1298H102v-164h1022v164H707V0" id="n"/><path fill="#1d262b" d="M631-1118c283 0 470 204 465 491v113H322c5 250 120 375 344 375 130 0 253-25 370-76v160C925-5 804 20 672 20c-329 0-539-224-539-561 0-331 182-577 498-577zM326-662h573c0-203-91-305-272-305-183 0-284 102-301 305" id="o"/><path fill="#1d262b" d="M887 0v-707c0-173-79-260-238-260-205 0-307 133-307 398V0H160v-1098h147l27 148h10c69-112 181-168 336-168 259 0 389 134 389 401V0H887" id="p"/><path fill="#1d262b" d="M596-1118c288 2 430 92 430 366V0H895l-37-152h-8C752-34 680 17 483 20 272 23 135-98 135-307c0-221 170-337 510-348l203-7c15-197-55-305-244-305-98 0-207 27-328 82l-63-137c131-64 258-96 383-96zm-72 991c194 0 325-116 322-311v-99c-251 15-522-6-522 232 0 119 67 178 200 178" id="q"/><path fill="#1d262b" d="M1020-150v138C933 9 849 20 768 20 527 20 406-95 406-324v-637H139v-94l267-49 77-287h105v293h438v137H588v637c0 130 64 195 192 195 62 0 142-7 240-21" id="r"/><path fill="#1d262b" d="M1026-301c0 225-197 321-448 321-165 0-290-23-375-69v-166c129 57 252 86 370 86 183 0 275-54 275-162 0-38-16-71-49-99s-108-63-226-106c-156-57-253-112-293-160s-61-105-61-171c2-338 524-340 789-217l-60 149c-121-48-228-72-319-72-157 0-236 44-236 133 0 41 17 74 51 98s111 57 232 101c141 51 234 101 280 151s70 111 70 183" id="s"/><g id="a"><use transform="matrix(0.0087890625,0,0,0.0087890625,0,0)" xlink:href="#n"/><use transform="matrix(0.0087890625,0,0,0.0087890625,10.8017578125,0)" xlink:href="#o"/><use transform="matrix(0.0087890625,0,0,0.0087890625,21.603515625,0)" xlink:href="#p"/><use transform="matrix(0.0087890625,0,0,0.0087890625,32.4052734375,0)" xlink:href="#q"/><use transform="matrix(0.0087890625,0,0,0.0087890625,43.20703125,0)" xlink:href="#p"/><use transform="matrix(0.0087890625,0,0,0.0087890625,54.0087890625,0)" xlink:href="#r"/><use transform="matrix(0.0087890625,0,0,0.0087890625,64.810546875,0)" xlink:href="#s"/></g><path fill="#1d262b" d="M1094-1034c0 310-213 470-541 465H362V0H176v-1462h404c343 0 514 143 514 428zM532-727c244-1 369-71 369-297 0-186-113-279-338-279H362v576h170" id="t"/><path fill="#1d262b" d="M578-131c239 0 309-137 309-397v-570h182V0H922l-27-147h-10C815-36 704 20 551 20c-261 0-391-134-391-401v-717h182v707c0 173 79 260 236 260" id="u"/><path fill="#1d262b" d="M532-1413l-268-21v-122h451v1413l352 20V0H188v-123l344-20v-1270" id="v"/><path fill="#1d262b" d="M442-897c93-139 173-221 377-221 79 0 159 15 240 45l-49 166c-82-30-157-45-224-45-221 0-340 134-340 360V0H264v-1098h148l22 201h8" id="w"/><g id="b"><use transform="matrix(0.01204427083333333,0,0,0.01204427083333333,0,0)" xlink:href="#t"/><use transform="matrix(0.01204427083333333,0,0,0.01204427083333333,14.802408854166663,0)" xlink:href="#u"/><use transform="matrix(0.01204427083333333,0,0,0.01204427083333333,29.604817708333325,0)" xlink:href="#v"/><use transform="matrix(0.01204427083333333,0,0,0.01204427083333333,44.407226562499986,0)" xlink:href="#s"/><use transform="matrix(0.01204427083333333,0,0,0.01204427083333333,59.20963541666665,0)" xlink:href="#q"/><use transform="matrix(0.01204427083333333,0,0,0.01204427083333333,74.01204427083331,0)" xlink:href="#w"/></g><path fill="#1d262b" d="M1092 0H877L297-1210h-8c32 442 13 766 18 1210H135v-1462h213L926-258h6c-25-469-9-747-14-1204h174V0" id="x"/><path fill="#1d262b" d="M977 0v-707c0-97-9-165-27-203s-47-57-88-57c-58 0-100 28-126 83s-40 148-40 278V0H535v-707c0-173-42-260-125-260-56 0-96 26-120 79s-36 160-36 319V0H92v-1098h127l27 148h10c45-112 112-168 201-168 109 0 180 61 213 182h6c51-121 124-182 219-182 85 0 147 30 186 92s58 165 58 309V0H977" id="y"/><path fill="#1d262b" d="M1092-551c0 322-136 571-430 571-138 0-245-53-322-159h-12c24 220 7 402 12 631H158v-1590h147l27 148h8c73-112 181-168 322-168 294 0 430 246 430 567zM629-967c-241 0-288 156-289 416 0 151 24 259 70 323s120 97 221 97c181 0 272-141 272-422 0-276-91-414-274-414" id="z"/><path fill="#1d262b" d="M172-543c0-365 197-575 553-575 119 0 231 20 336 59l-62 158c-100-38-189-57-268-57-247 0-371 138-371 413 0 271 120 406 361 406 105 0 212-21 321-62v160C953 0 843 20 713 20c-347 1-541-210-541-563" id="A"/><g id="c"><use transform="matrix(0.0087890625,0,0,0.0087890625,0,0)" xlink:href="#x"/><use transform="matrix(0.0087890625,0,0,0.0087890625,10.8017578125,0)" xlink:href="#q"/><use transform="matrix(0.0087890625,0,0,0.0087890625,21.603515625,0)" xlink:href="#y"/><use transform="matrix(0.0087890625,0,0,0.0087890625,32.4052734375,0)" xlink:href="#o"/><use transform="matrix(0.0087890625,0,0,0.0087890625,43.20703125,0)" xlink:href="#s"/><use transform="matrix(0.0087890625,0,0,0.0087890625,54.0087890625,0)" xlink:href="#z"/><use transform="matrix(0.0087890625,0,0,0.0087890625,64.810546875,0)" xlink:href="#q"/><use transform="matrix(0.0087890625,0,0,0.0087890625,75.6123046875,0)" xlink:href="#A"/><use transform="matrix(0.0087890625,0,0,0.0087890625,86.4140625,0)" xlink:href="#o"/><use transform="matrix(0.0087890625,0,0,0.0087890625,97.2158203125,0)" xlink:href="#s"/></g><path fill="#1d262b" d="M1112-551c0 331-186 571-502 571-301 0-495-251-495-571 0-330 184-567 501-567 302 0 496 249 496 567zM614-131c207 0 310-140 310-420 0-277-104-416-312-416-206 0-309 139-309 416 0 280 104 420 311 420" id="B"/><path fill="#1d262b" d="M739-1436c0 71-43 115-106 115-71 0-107-38-107-115 0-76 36-114 107-114s106 38 106 114zM541-954l-269-21v-123h451v955l352 20V0H197v-123l344-20v-811" id="C"/><g id="d"><use transform="matrix(0.0087890625,0,0,0.0087890625,0,0)" xlink:href="#n"/><use transform="matrix(0.0087890625,0,0,0.0087890625,10.8017578125,0)" xlink:href="#B"/><use transform="matrix(0.0087890625,0,0,0.0087890625,21.603515625,0)" xlink:href="#z"/><use transform="matrix(0.0087890625,0,0,0.0087890625,32.4052734375,0)" xlink:href="#C"/><use transform="matrix(0.0087890625,0,0,0.0087890625,43.20703125,0)" xlink:href="#A"/><use transform="matrix(0.0087890625,0,0,0.0087890625,54.0087890625,0)" xlink:href="#s"/></g><path fill="#1d262b" d="M614-301c101 0 152 55 152 166S715 31 614 31 463-24 463-135s50-166 151-166" id="D"/><g id="e"><use transform="matrix(0.0087890625,0,0,0.0087890625,0,0)" xlink:href="#D"/><use transform="matrix(0.0087890625,0,0,0.0087890625,10.8017578125,0)" xlink:href="#D"/><use transform="matrix(0.0087890625,0,0,0.0087890625,21.603515625,0)" xlink:href="#D"/></g><path d="M1147-745C1147-274 901 1 436 0H135v-1462h342c429-3 670 280 670 717zm-825-558v1143h96c355 0 532-193 532-579 0-376-164-564-493-564H322" id="E"/><path d="M631-1118c283 0 470 204 465 491v113H322c5 250 120 375 344 375 130 0 253-25 370-76v160C925-5 804 20 672 20c-329 0-539-224-539-561 0-331 182-577 498-577zM326-662h573c0-203-91-305-272-305-183 0-284 102-301 305" id="F"/><path d="M498 0L82-1098h188l240 652c57 154 90 262 100 325h6c67-256 244-708 340-977h189L729 0H498" id="G"/><path d="M616 20C261 20 84-232 84-735c0-500 178-750 534-750 171 0 301 65 392 195s137 316 137 557-46 426-138 557S786 20 616 20zm0-163c115 0 195-51 254-145 102-163 102-730-2-890-59-92-137-143-250-143-225 0-337 196-337 588 0 393 112 590 335 590" id="H"/><path d="M1092-551c0 322-136 571-430 571-138 0-245-53-322-159h-12c24 220 7 402 12 631H158v-1590h147l27 148h8c73-112 181-168 322-168 294 0 430 246 430 567zM629-967c-241 0-288 156-289 416 0 151 24 259 70 323s120 97 221 97c181 0 272-141 272-422 0-276-91-414-274-414" id="I"/><path d="M1026-301c0 225-197 321-448 321-165 0-290-23-375-69v-166c129 57 252 86 370 86 183 0 275-54 275-162 0-38-16-71-49-99s-108-63-226-106c-156-57-253-112-293-160s-61-105-61-171c2-338 524-340 789-217l-60 149c-121-48-228-72-319-72-157 0-236 44-236 133 0 41 17 74 51 98s111 57 232 101c141 51 234 101 280 151s70 111 70 183" id="J"/><g id="f"><use transform="matrix(0.0087890625,0,0,0.0087890625,0,0)" xlink:href="#E"/><use transform="matrix(0.0087890625,0,0,0.0087890625,10.8017578125,0)" xlink:href="#F"/><use transform="matrix(0.0087890625,0,0,0.0087890625,21.603515625,0)" xlink:href="#G"/><use transform="matrix(0.0087890625,0,0,0.0087890625,32.4052734375,0)" xlink:href="#H"/><use transform="matrix(0.0087890625,0,0,0.0087890625,43.20703125,0)" xlink:href="#I"/><use transform="matrix(0.0087890625,0,0,0.0087890625,54.0087890625,0)" xlink:href="#J"/></g><path fill="#1d262b" d="M1087-391c0 281-226 411-532 411-177 0-315-23-414-69v-178c141 57 279 86 414 86 233 0 350-80 350-240 0-69-24-123-71-160s-142-82-285-133c-139-49-239-106-299-174s-90-156-90-264c2-252 211-371 481-371 153 0 291 26 416 78l-64 164c-129-52-249-78-360-78-195 0-293 70-293 209 0 68 22 123 66 164s134 85 270 133c164 58 273 119 328 181s83 143 83 241" id="K"/><path fill="#1d262b" d="M137-547c0-322 136-571 430-571 137 0 245 53 322 160h12c-24-215-7-376-12-598h182V0H924l-27-147h-8C814-36 706 20 567 20c-294 0-430-246-430-567zm463 416c241 0 288-157 289-416 0-151-23-259-69-323s-121-97-222-97c-181 0-272 141-272 422 0 276 91 414 274 414" id="L"/><g id="g"><use transform="matrix(0.0087890625,0,0,0.0087890625,0,0)" xlink:href="#K"/><use transform="matrix(0.0087890625,0,0,0.0087890625,10.8017578125,0)" xlink:href="#o"/><use transform="matrix(0.0087890625,0,0,0.0087890625,21.603515625,0)" xlink:href="#p"/><use transform="matrix(0.0087890625,0,0,0.0087890625,32.4052734375,0)" xlink:href="#L"/></g><path fill="#1d262b" d="M137-547c0-322 136-571 430-571 138 0 245 56 322 168h8l27-148h147V492H889c5-232-12-415 12-639h-12C814-36 706 20 567 20c-294 0-430-246-430-567zm463 416c241 0 288-157 289-416 0-151-23-259-69-323s-121-97-222-97c-181 0-272 141-272 422 0 276 91 414 274 414" id="M"/><g id="h"><use transform="matrix(0.0087890625,0,0,0.0087890625,0,0)" xlink:href="#w"/><use transform="matrix(0.0087890625,0,0,0.0087890625,10.8017578125,0)" xlink:href="#o"/><use transform="matrix(0.0087890625,0,0,0.0087890625,21.603515625,0)" xlink:href="#M"/><use transform="matrix(0.0087890625,0,0,0.0087890625,32.4052734375,0)" xlink:href="#u"/><use transform="matrix(0.0087890625,0,0,0.0087890625,43.20703125,0)" xlink:href="#o"/><use transform="matrix(0.0087890625,0,0,0.0087890625,54.0087890625,0)" xlink:href="#s"/><use transform="matrix(0.0087890625,0,0,0.0087890625,64.810546875,0)" xlink:href="#r"/><use transform="matrix(0.0087890625,0,0,0.0087890625,75.6123046875,0)" xlink:href="#s"/></g><path fill="#1d262b" d="M373-604V0H186v-1462h357c347 0 520 138 520 415 0 191-96 322-289 392L1171 0H952L602-604H373zm497-434c0-207-118-263-338-265H373v541h164c215-1 333-70 333-276" id="N"/><g id="i"><use transform="matrix(0.0087890625,0,0,0.0087890625,0,0)" xlink:href="#N"/><use transform="matrix(0.0087890625,0,0,0.0087890625,10.8017578125,0)" xlink:href="#o"/><use transform="matrix(0.0087890625,0,0,0.0087890625,21.603515625,0)" xlink:href="#r"/><use transform="matrix(0.0087890625,0,0,0.0087890625,32.4052734375,0)" xlink:href="#u"/><use transform="matrix(0.0087890625,0,0,0.0087890625,43.20703125,0)" xlink:href="#w"/><use transform="matrix(0.0087890625,0,0,0.0087890625,54.0087890625,0)" xlink:href="#p"/></g><g id="j"><use transform="matrix(0.0087890625,0,0,0.0087890625,0,0)" xlink:href="#L"/><use transform="matrix(0.0087890625,0,0,0.0087890625,10.8017578125,0)" xlink:href="#q"/><use transform="matrix(0.0087890625,0,0,0.0087890625,21.603515625,0)" xlink:href="#r"/><use transform="matrix(0.0087890625,0,0,0.0087890625,32.4052734375,0)" xlink:href="#q"/></g><path fill="#fff" d="M1094-1034c0 310-213 470-541 465H362V0H176v-1462h404c343 0 514 143 514 428zM532-727c244-1 369-71 369-297 0-186-113-279-338-279H362v576h170" id="O"/><path fill="#fff" d="M578-131c239 0 309-137 309-397v-570h182V0H922l-27-147h-10C815-36 704 20 551 20c-261 0-391-134-391-401v-717h182v707c0 173 79 260 236 260" id="P"/><path fill="#fff" d="M532-1413l-268-21v-122h451v1413l352 20V0H188v-123l344-20v-1270" id="Q"/><path fill="#fff" d="M1026-301c0 225-197 321-448 321-165 0-290-23-375-69v-166c129 57 252 86 370 86 183 0 275-54 275-162 0-38-16-71-49-99s-108-63-226-106c-156-57-253-112-293-160s-61-105-61-171c2-338 524-340 789-217l-60 149c-121-48-228-72-319-72-157 0-236 44-236 133 0 41 17 74 51 98s111 57 232 101c141 51 234 101 280 151s70 111 70 183" id="R"/><path fill="#fff" d="M596-1118c288 2 430 92 430 366V0H895l-37-152h-8C752-34 680 17 483 20 272 23 135-98 135-307c0-221 170-337 510-348l203-7c15-197-55-305-244-305-98 0-207 27-328 82l-63-137c131-64 258-96 383-96zm-72 991c194 0 325-116 322-311v-99c-251 15-522-6-522 232 0 119 67 178 200 178" id="S"/><path fill="#fff" d="M442-897c93-139 173-221 377-221 79 0 159 15 240 45l-49 166c-82-30-157-45-224-45-221 0-340 134-340 360V0H264v-1098h148l22 201h8" id="T"/><g id="k"><use transform="matrix(0.010959201388888885,0,0,0.010959201388888885,0,0)" xlink:href="#O"/><use transform="matrix(0.010959201388888885,0,0,0.010959201388888885,13.46885850694444,0)" xlink:href="#P"/><use transform="matrix(0.010959201388888885,0,0,0.010959201388888885,26.93771701388888,0)" xlink:href="#Q"/><use transform="matrix(0.010959201388888885,0,0,0.010959201388888885,40.406575520833314,0)" xlink:href="#R"/><use transform="matrix(0.010959201388888885,0,0,0.010959201388888885,53.87543402777776,0)" xlink:href="#S"/><use transform="matrix(0.010959201388888885,0,0,0.010959201388888885,67.3442925347222,0)" xlink:href="#T"/></g><path fill="#fff" d="M1004 0L860-453H369L223 0H33l483-1468h195L1196 0h-192zM807-618c-63-210-144-435-195-650-51 232-127 431-190 650h385" id="U"/><path fill="#fff" d="M137-547c0-322 136-571 430-571 137 0 245 53 322 160h12c-24-215-7-376-12-598h182V0H924l-27-147h-8C814-36 706 20 567 20c-294 0-430-246-430-567zm463 416c241 0 288-157 289-416 0-151-23-259-69-323s-121-97-222-97c-181 0-272 141-272 422 0 276 91 414 274 414" id="V"/><path fill="#fff" d="M977 0v-707c0-97-9-165-27-203s-47-57-88-57c-58 0-100 28-126 83s-40 148-40 278V0H535v-707c0-173-42-260-125-260-56 0-96 26-120 79s-36 160-36 319V0H92v-1098h127l27 148h10c45-112 112-168 201-168 109 0 180 61 213 182h6c51-121 124-182 219-182 85 0 147 30 186 92s58 165 58 309V0H977" id="W"/><path fill="#fff" d="M739-1436c0 71-43 115-106 115-71 0-107-38-107-115 0-76 36-114 107-114s106 38 106 114zM541-954l-269-21v-123h451v955l352 20V0H197v-123l344-20v-811" id="X"/><path fill="#fff" d="M887 0v-707c0-173-79-260-238-260-205 0-307 133-307 398V0H160v-1098h147l27 148h10c69-112 181-168 336-168 259 0 389 134 389 401V0H887" id="Y"/><g id="l"><use transform="matrix(0.010959201388888885,0,0,0.010959201388888885,0,0)" xlink:href="#U"/><use transform="matrix(0.010959201388888885,0,0,0.010959201388888885,13.46885850694444,0)" xlink:href="#V"/><use transform="matrix(0.010959201388888885,0,0,0.010959201388888885,26.93771701388888,0)" xlink:href="#W"/><use transform="matrix(0.010959201388888885,0,0,0.010959201388888885,40.406575520833314,0)" xlink:href="#X"/><use transform="matrix(0.010959201388888885,0,0,0.010959201388888885,53.87543402777776,0)" xlink:href="#Y"/></g><path fill="#fff" d="M1001 0H225v-123l295-20v-1176l-295-20v-123h776v123l-294 20v1176l294 20V0" id="Z"/><g id="m"><use transform="matrix(0.010959201388888885,0,0,0.010959201388888885,0,0)" xlink:href="#U"/><use transform="matrix(0.010959201388888885,0,0,0.010959201388888885,13.46885850694444,0)" xlink:href="#O"/><use transform="matrix(0.010959201388888885,0,0,0.010959201388888885,26.93771701388888,0)" xlink:href="#Z"/><use transform="matrix(0.010959201388888885,0,0,0.010959201388888885,40.406575520833314,0)" xlink:href="#R"/></g></defs></g></svg>