<svg xmlns="http://www.w3.org/2000/svg" xmlns:xlink="http://www.w3.org/1999/xlink" xmlns:lucid="lucid" width="1435.68" height="906.41"><g transform="translate(-91.86109967415419 367.7421641397281)" lucid:page-tab-id="0_0"><path d="M328 78.47c17.67 0 32 13.43 32 30s-14.33 30-32 30h-96c-17.67 0-32-13.43-32-30s14.33-30 32-30z" stroke="#666" stroke-width="4" fill="#fff"/><use xlink:href="#a" transform="matrix(1,0,0,1,205,83.4725166590132) translate(21.124565972222236 33.33344184027777)"/><path d="M390 98.47h42v-10l18 20-18 20v-10h-42z" stroke="#474e55" stroke-width="2" fill="#666"/><path d="M753.33 78.47h40v60h-40z" stroke="#474e55" stroke-width="2" fill="#fff"/><use xlink:href="#b" transform="matrix(1,0,0,1,758.3333333333334,83.4725166590132) translate(5.675000000000001 30.025)"/><path d="M793.33 78.47h40v60h-40z" stroke="#474e55" stroke-width="2" fill="#fff"/><use xlink:href="#c" transform="matrix(1,0,0,1,798.3333333333334,83.4725166590132) translate(5 30.025)"/><path d="M833.33 78.47h40v60h-40z" stroke="#474e55" stroke-width="2" fill="#fff"/><use xlink:href="#d" transform="matrix(1,0,0,1,838.3333333333334,83.4725166590132) translate(10 30.025)"/><path d="M873.33 78.47h40v60h-40z" stroke="#474e55" stroke-width="2" fill="#188fff"/><use xlink:href="#e" transform="matrix(1,0,0,1,878.3333333333334,83.4725166590132) translate(10 30.025)"/><path d="M913.33 78.47h40v60h-40z" stroke="#474e55" stroke-width="2" fill="#188fff"/><use xlink:href="#f" transform="matrix(1,0,0,1,918.3333333333334,83.4725166590132) translate(10 30.025)"/><path d="M953.33 78.47h40v60h-40z" stroke="#474e55" stroke-width="2" fill="#188fff"/><use xlink:href="#g" transform="matrix(1,0,0,1,958.3333333333334,83.4725166590132) translate(10 30.025)"/><path d="M993.33 78.47h40v60h-40z" stroke="#474e55" stroke-width="2" fill="#188fff"/><use xlink:href="#h" transform="matrix(1,0,0,1,998.3333333333334,83.4725166590132) translate(10 30.025)"/><path d="M1033.33 78.47h40v60h-40z" stroke="#474e55" stroke-width="2" fill="#188fff"/><use xlink:href="#i" transform="matrix(1,0,0,1,1038.3333333333335,83.4725166590132) translate(10 30.025)"/><path d="M1073.33 78.47h40v60h-40z" stroke="#474e55" stroke-width="2" fill="#188fff"/><use xlink:href="#j" transform="matrix(1,0,0,1,1078.3333333333335,83.4725166590132) translate(10 30.025)"/><path d="M1113.33 78.47h40v60h-40z" stroke="#474e55" stroke-width="2" fill="#d3e3fc"/><use xlink:href="#k" transform="matrix(1,0,0,1,1118.3333333333335,83.4725166590132) translate(10 30.025)"/><path d="M1153.33 78.47h40v60h-40z" stroke="#474e55" stroke-width="2" fill="#d3e3fc"/><use xlink:href="#l" transform="matrix(1,0,0,1,1158.3333333333335,83.4725166590132) translate(10 30.025)"/><path d="M1193.33 78.47h40v60h-40z" stroke="#474e55" stroke-width="2" fill="#d3e3fc"/><use xlink:href="#m" transform="matrix(1,0,0,1,1198.3333333333335,83.4725166590132) translate(10 30.025)"/><path d="M490 416.93h60v22.14h-60z" stroke="#666" stroke-width="2" fill="#188fff"/><path d="M570 398h700v60H570z" stroke="#000" stroke-opacity="0" stroke-width="2" fill="#fff" fill-opacity="0"/><use xlink:href="#n" transform="matrix(1,0,0,1,574.9999999999999,403) translate(0 32.3330078125)"/><use xlink:href="#o" transform="matrix(1,0,0,1,574.9999999999999,403) translate(64.810546875 32.3330078125)"/><use xlink:href="#p" transform="matrix(1,0,0,1,574.9999999999999,403) translate(151.224609375 32.3330078125)"/><use xlink:href="#q" transform="matrix(1,0,0,1,574.9999999999999,403) translate(226.8369140625 32.3330078125)"/><use xlink:href="#r" transform="matrix(1,0,0,1,574.9999999999999,403) translate(334.8544921875 32.3330078125)"/><use xlink:href="#s" transform="matrix(1,0,0,1,574.9999999999999,403) translate(399.6650390625 32.3330078125)"/><use xlink:href="#t" transform="matrix(1,0,0,1,574.9999999999999,403) translate(453.673828125 32.3330078125)"/><use xlink:href="#u" transform="matrix(1,0,0,1,574.9999999999999,403) translate(518.484375 32.3330078125)"/><use xlink:href="#v" transform="matrix(1,0,0,1,574.9999999999999,403) translate(561.69140625 32.3330078125)"/><path d="M490 477.6h60v22.14h-60z" stroke="#666" stroke-width="2" fill="#d3e3fc"/><path d="M570 458.67h700v60H570z" stroke="#000" stroke-opacity="0" stroke-width="2" fill="#fff" fill-opacity="0"/><use xlink:href="#n" transform="matrix(1,0,0,1,574.9999999999999,463.66666666666674) translate(0 32.3330078125)"/><use xlink:href="#o" transform="matrix(1,0,0,1,574.9999999999999,463.66666666666674) translate(64.810546875 32.3330078125)"/><use xlink:href="#w" transform="matrix(1,0,0,1,574.9999999999999,463.66666666666674) translate(151.224609375 32.3330078125)"/><use xlink:href="#q" transform="matrix(1,0,0,1,574.9999999999999,463.66666666666674) translate(205.2333984375 32.3330078125)"/><use xlink:href="#r" transform="matrix(1,0,0,1,574.9999999999999,463.66666666666674) translate(313.2509765625 32.3330078125)"/><use xlink:href="#x" transform="matrix(1,0,0,1,574.9999999999999,463.66666666666674) translate(378.0615234375 32.3330078125)"/><use xlink:href="#u" transform="matrix(1,0,0,1,574.9999999999999,463.66666666666674) translate(453.673828125 32.3330078125)"/><use xlink:href="#v" transform="matrix(1,0,0,1,574.9999999999999,463.66666666666674) translate(496.880859375 32.3330078125)"/><path d="M874.33 294.33h-2v-66.45h2zm0-87.4h-2v-48.96h2z" stroke="#474e55" stroke-width=".05" fill="#474e55"/><path d="M874.33 295.33h-2v-1.02h2z" fill="#474e55"/><path d="M874.36 295.36h-2.05v-1.08h2.06zm-2-1.03v.98h1.95v-.97z" stroke="#474e55" stroke-width=".05" fill="#474e55"/><path d="M877.97 156.97h-9.27l4.63-14.26z" fill="#474e55"/><path d="M879.35 157.97h-12.03l6-18.5zm-9.28-2h6.52l-3.27-10.03z" stroke="#474e55" stroke-width=".05" fill="#474e55"/><use xlink:href="#y" transform="matrix(1,0,0,1,840.9280598958335,206.92519355173766) translate(0 16.7080078125)"/><path d="M945.33 297.33c26.5 0 48 13.94 48 31.13 0 17.2-21.5 31.13-48 31.13h-144c-26.5 0-48-13.95-48-31.14 0-17.2 21.5-31.13 48-31.13z" stroke="#474e55" stroke-width="4" fill="#fff"/><use xlink:href="#z" transform="matrix(1,0,0,1,758.3333333333334,302.33333333333326) translate(34.18684895833337 34.08344184027777)"/><path d="M633.33 78.47h40v60h-40z" stroke="#474e55" stroke-width="2" fill="#fff"/><use xlink:href="#A" transform="matrix(1,0,0,1,638.3333333333334,83.4725166590132) translate(5 30.025)"/><path d="M673.33 78.47h40v60h-40z" stroke="#474e55" stroke-width="2" fill="#fff"/><use xlink:href="#B" transform="matrix(1,0,0,1,678.3333333333334,83.4725166590132) translate(5 30.025)"/><path d="M713.33 78.47h40v60h-40z" stroke="#474e55" stroke-width="2" fill="#fff"/><use xlink:href="#C" transform="matrix(1,0,0,1,718.3333333333334,83.4725166590132) translate(5 30.025)"/><g fill="none"><path d="M1113.33-22.67V64H878.67v-86.67z"/><path d="M878.67 64c0-8.1 6.56-14.67 14.66-14.67h88c8.1 0 14.67-6.56 14.67-14.66 0 8.1 6.57 14.66 14.67 14.66h88c8.1 0 14.66 6.57 14.66 14.67" stroke="#188fff" stroke-width="2"/></g><use xlink:href="#D" transform="matrix(1,-2.4492935982947064e-16,2.4492935982947064e-16,1,883.6666666666669,-17.66666666666662) translate(20.68505859375 22.7314453125)"/><use xlink:href="#E" transform="matrix(1,-2.4492935982947064e-16,2.4492935982947064e-16,1,883.6666666666669,-17.66666666666662) translate(117.90087890625 22.7314453125)"/><path d="M490 78.47h130v60H490z" stroke="#474e55" stroke-width="2" fill="#fff"/><use xlink:href="#F" transform="matrix(1,0,0,1,494.9999999999999,83.4725166590132) translate(32.99560546875 16.7080078125)"/><use xlink:href="#G" transform="matrix(1,0,0,1,494.9999999999999,83.4725166590132) translate(54.59912109375 16.7080078125)"/><use xlink:href="#H" transform="matrix(1,0,0,1,494.9999999999999,83.4725166590132) translate(22.19384765625 37.6611328125)"/><path d="M620-36.27c0 2.76-2.24 5-5 5H412.67l86.66 100.6-128-100.6H245c-2.76 0-5-2.24-5-5v-81.4c0-2.76 2.24-5 5-5h370c2.76 0 5 2.24 5 5z" stroke="#c92d39" stroke-width="2" fill-opacity="0"/><use xlink:href="#I" transform="matrix(1,-2.4492935982947064e-16,2.4492935982947064e-16,1,239.99999999999974,-122.66666666666663) translate(0.9692382812501421 31.08300781249999)"/><use xlink:href="#J" transform="matrix(1,-2.4492935982947064e-16,2.4492935982947064e-16,1,239.99999999999974,-122.66666666666663) translate(44.176269531250114 31.08300781249999)"/><use xlink:href="#K" transform="matrix(1,-2.4492935982947064e-16,2.4492935982947064e-16,1,239.99999999999974,-122.66666666666663) translate(87.38330078125009 31.08300781249999)"/><use xlink:href="#L" transform="matrix(1,-2.4492935982947064e-16,2.4492935982947064e-16,1,239.99999999999974,-122.66666666666663) translate(173.79736328125003 31.08300781249999)"/><use xlink:href="#M" transform="matrix(1,-2.4492935982947064e-16,2.4492935982947064e-16,1,239.99999999999974,-122.66666666666663) translate(206.20263671875 31.08300781249999)"/><use xlink:href="#N" transform="matrix(1,-2.4492935982947064e-16,2.4492935982947064e-16,1,239.99999999999974,-122.66666666666663) translate(260.21142578125 31.08300781249999)"/><use xlink:href="#O" transform="matrix(1,-2.4492935982947064e-16,2.4492935982947064e-16,1,239.99999999999974,-122.66666666666663) translate(303.4184570312499 31.08300781249999)"/><use xlink:href="#P" transform="matrix(1,-2.4492935982947064e-16,2.4492935982947064e-16,1,239.99999999999974,-122.66666666666663) translate(27.973632812500142 52.03613281249997)"/><use xlink:href="#Q" transform="matrix(1,-2.4492935982947064e-16,2.4492935982947064e-16,1,239.99999999999974,-122.66666666666663) translate(92.7841796875001 52.03613281249997)"/><use xlink:href="#R" transform="matrix(1,-2.4492935982947064e-16,2.4492935982947064e-16,1,239.99999999999974,-122.66666666666663) translate(168.39648437500003 52.03613281249997)"/><use xlink:href="#S" transform="matrix(1,-2.4492935982947064e-16,2.4492935982947064e-16,1,239.99999999999974,-122.66666666666663) translate(244.00878906249997 52.03613281249997)"/><use xlink:href="#T" transform="matrix(1,-2.4492935982947064e-16,2.4492935982947064e-16,1,239.99999999999974,-122.66666666666663) translate(298.0175781249999 52.03613281249997)"/><use xlink:href="#U" transform="matrix(1,-2.4492935982947064e-16,2.4492935982947064e-16,1,239.99999999999974,-122.66666666666663) translate(27.973632812500114 72.98925781249996)"/><use xlink:href="#V" transform="matrix(1,-2.4492935982947064e-16,2.4492935982947064e-16,1,239.99999999999974,-122.66666666666663) translate(114.38769531250006 72.98925781249996)"/><use xlink:href="#W" transform="matrix(1,-2.4492935982947064e-16,2.4492935982947064e-16,1,239.99999999999974,-122.66666666666663) translate(222.4052734375 72.98925781249996)"/><use xlink:href="#X" transform="matrix(1,-2.4492935982947064e-16,2.4492935982947064e-16,1,239.99999999999974,-122.66666666666663) translate(298.01757812499994 72.98925781249996)"/><g fill="none"><path d="M874.67-22.67V64H633.33v-86.67z"/><path d="M633.33 64c0-8.33 6.76-15.08 15.1-15.08h90.5c8.32 0 15.07-6.76 15.07-15.1 0 8.34 6.75 15.1 15.08 15.1h90.5c8.33 0 15.1 6.75 15.1 15.08" stroke="#666" stroke-width="2"/></g><g><use xlink:href="#Y" transform="matrix(1,-2.4492935982947064e-16,2.4492935982947064e-16,1,638.3333333333334,-17.6666666666669) translate(78.19384765625 22.2314453125)"/></g><path d="M686.46 181H658.5v-2h27.96zm168.37 0h-27.95v-2h27.95z" stroke="#c92d39" stroke-width=".05" fill="#c92d39"/><path d="M657.5 184.64L643.24 180l14.26-4.64z" fill="#c92d39"/><path d="M658.5 186l-18.5-6 18.5-6zm-12.03-6l10.03 3.26v-6.52z" stroke="#c92d39" stroke-width=".05" fill="#c92d39"/><path d="M870.1 180l-14.27 4.64v-9.28z" fill="#c92d39"/><path d="M873.33 180l-18.5 6v-12zm-16.5 3.26l10.03-3.26-10.03-3.26z" stroke="#c92d39" stroke-width=".05" fill="#c92d39"/><g><use xlink:href="#Z" transform="matrix(1,0,0,1,686.4552408854167,169.5234375) translate(0 16.7080078125)"/><use xlink:href="#aa" transform="matrix(1,0,0,1,686.4552408854167,169.5234375) translate(86.4140625 16.7080078125)"/></g><path d="M941.4 181h-49.56v-2h49.55zm146.76 0h-49.55v-2h49.56z" stroke="#0c7cba" stroke-width=".05" fill="#0c7cba"/><path d="M890.84 184.64L876.57 180l14.27-4.64z" fill="#0c7cba"/><path d="M891.84 186l-18.5-6 18.5-6zm-12.03-6l10.04 3.26v-6.52z" stroke="#0c7cba" stroke-width=".05" fill="#0c7cba"/><path d="M1103.43 180l-14.27 4.64v-9.28z" fill="#0c7cba"/><path d="M1106.67 180l-18.5 6v-12zm-16.5 3.26l10.02-3.26-10.04-3.26z" stroke="#0c7cba" stroke-width=".05" fill="#0c7cba"/><g><use xlink:href="#ab" transform="matrix(1,0,0,1,941.39208984375,159.046875) translate(0.005000000000002558 16.7080078125)"/><use xlink:href="#ac" transform="matrix(1,0,0,1,941.39208984375,159.046875) translate(16.207636718750003 37.6611328125)"/></g><g><path d="M972-165.43c0 12.9-10.45 23.33-23.33 23.33h-80.44L748.67-35l21.77-107.1H690c-12.9 0-23.33-10.44-23.33-23.33v-50.67c0-12.88 10.44-23.33 23.33-23.33h258.67c12.88 0 23.33 10.45 23.33 23.33z" stroke="#474e55" stroke-width="2" fill-opacity="0"/></g><g><use xlink:href="#ad" transform="matrix(1,-2.4492935982947064e-16,2.4492935982947064e-16,1,666.6666666666666,-239.43040833716015) translate(6.676269531250085 35.083007812499986)"/><use xlink:href="#ae" transform="matrix(1,-2.4492935982947064e-16,2.4492935982947064e-16,1,666.6666666666666,-239.43040833716015) translate(93.09033203125003 35.083007812499986)"/><use xlink:href="#af" transform="matrix(1,-2.4492935982947064e-16,2.4492935982947064e-16,1,666.6666666666666,-239.43040833716015) translate(190.30615234374997 35.083007812499986)"/><use xlink:href="#ag" transform="matrix(1,-2.4492935982947064e-16,2.4492935982947064e-16,1,666.6666666666666,-239.43040833716015) translate(233.51318359374994 35.083007812499986)"/><use xlink:href="#ah" transform="matrix(1,-2.4492935982947064e-16,2.4492935982947064e-16,1,666.6666666666666,-239.43040833716015) translate(1.2753906250001137 56.03613281249997)"/><use xlink:href="#ai" transform="matrix(1,-2.4492935982947064e-16,2.4492935982947064e-16,1,666.6666666666666,-239.43040833716015) translate(87.68945312500006 56.03613281249997)"/><use xlink:href="#aj" transform="matrix(1,-2.4492935982947064e-16,2.4492935982947064e-16,1,666.6666666666666,-239.43040833716015) translate(152.5 56.03613281249997)"/><use xlink:href="#af" transform="matrix(1,-2.4492935982947064e-16,2.4492935982947064e-16,1,666.6666666666666,-239.43040833716015) translate(217.31054687499994 56.03613281249997)"/><use xlink:href="#ak" transform="matrix(1,-2.4492935982947064e-16,2.4492935982947064e-16,1,666.6666666666666,-239.43040833716015) translate(260.5175781249999 56.03613281249997)"/><use xlink:href="#al" transform="matrix(1,-2.4492935982947064e-16,2.4492935982947064e-16,1,666.6666666666666,-239.43040833716015) translate(76.89269531250007 76.98925781249996)"/><use xlink:href="#am" transform="matrix(1,-2.4492935982947064e-16,2.4492935982947064e-16,1,666.6666666666666,-239.43040833716015) translate(109.29796875000004 76.98925781249996)"/><use xlink:href="#an" transform="matrix(1,-2.4492935982947064e-16,2.4492935982947064e-16,1,666.6666666666666,-239.43040833716015) translate(152.505 76.98925781249996)"/></g><g><path d="M1298.67-98.93c0 2.76-2.24 5-5 5H1078.4l-72.67 66.6 18-66.6h-25.4c-2.76 0-5-2.24-5-5V-175c0-2.76 2.24-5 5-5h295.34c2.76 0 5 2.24 5 5z" stroke="#188fff" stroke-width="2" fill-opacity="0"/></g><g><use xlink:href="#ao" transform="matrix(1,-2.4492935982947064e-16,2.4492935982947064e-16,1,993.3333333333335,-179.99999999999997) translate(39.081542968750085 27.58300781249999)"/><use xlink:href="#ap" transform="matrix(1,-2.4492935982947064e-16,2.4492935982947064e-16,1,993.3333333333335,-179.99999999999997) translate(103.89208984375004 27.58300781249999)"/><use xlink:href="#aq" transform="matrix(1,-2.4492935982947064e-16,2.4492935982947064e-16,1,993.3333333333335,-179.99999999999997) translate(201.10791015624997 27.58300781249999)"/><use xlink:href="#ar" transform="matrix(1,-2.4492935982947064e-16,2.4492935982947064e-16,1,993.3333333333335,-179.99999999999997) translate(1.2753906250000853 48.53613281249997)"/><use xlink:href="#as" transform="matrix(1,-2.4492935982947064e-16,2.4492935982947064e-16,1,993.3333333333335,-179.99999999999997) translate(109.29296875000003 48.53613281249997)"/><use xlink:href="#at" transform="matrix(1,-2.4492935982947064e-16,2.4492935982947064e-16,1,993.3333333333335,-179.99999999999997) translate(184.90527343749997 48.53613281249997)"/><use xlink:href="#au" transform="matrix(1,-2.4492935982947064e-16,2.4492935982947064e-16,1,993.3333333333335,-179.99999999999997) translate(238.91406249999994 48.53613281249997)"/><use xlink:href="#av" transform="matrix(1,-2.4492935982947064e-16,2.4492935982947064e-16,1,993.3333333333335,-179.99999999999997) translate(282.1210937499999 48.53613281249997)"/><use xlink:href="#aw" transform="matrix(1,-2.4492935982947064e-16,2.4492935982947064e-16,1,993.3333333333335,-179.99999999999997) translate(114.69384765625003 69.48925781249996)"/></g><g><path d="M1478.67 14.4c0 2.76-2.24 5-5 5h-228.25l-48.75 43.93-5.92-43.93h-28.42c-2.76 0-5-2.24-5-5V-55c0-2.76 2.24-5 5-5h311.34c2.76 0 5 2.24 5 5z" stroke="#474e55" stroke-width="2" fill-opacity="0"/></g><g><use xlink:href="#ao" transform="matrix(1,-2.4492935982947064e-16,2.4492935982947064e-16,1,1157.3333333333335,-59.99999999999989) translate(47.081542968750085 24.20800781249999)"/><use xlink:href="#ap" transform="matrix(1,-2.4492935982947064e-16,2.4492935982947064e-16,1,1157.3333333333335,-59.99999999999989) translate(111.89208984375004 24.20800781249999)"/><use xlink:href="#ax" transform="matrix(1,-2.4492935982947064e-16,2.4492935982947064e-16,1,1157.3333333333335,-59.99999999999989) translate(209.10791015624997 24.20800781249999)"/><use xlink:href="#ar" transform="matrix(1,-2.4492935982947064e-16,2.4492935982947064e-16,1,1157.3333333333335,-59.99999999999989) translate(20.077148437500085 45.16113281249997)"/><use xlink:href="#as" transform="matrix(1,-2.4492935982947064e-16,2.4492935982947064e-16,1,1157.3333333333335,-59.99999999999989) translate(128.09472656250003 45.16113281249997)"/><use xlink:href="#ay" transform="matrix(1,-2.4492935982947064e-16,2.4492935982947064e-16,1,1157.3333333333335,-59.99999999999989) translate(203.70703124999997 45.16113281249997)"/><use xlink:href="#az" transform="matrix(1,-2.4492935982947064e-16,2.4492935982947064e-16,1,1157.3333333333335,-59.99999999999989) translate(246.91406249999994 45.16113281249997)"/><use xlink:href="#aA" transform="matrix(1,-2.4492935982947064e-16,2.4492935982947064e-16,1,1157.3333333333335,-59.99999999999989) translate(95.68945312500004 66.11425781249996)"/><use xlink:href="#aB" transform="matrix(1,-2.4492935982947064e-16,2.4492935982947064e-16,1,1157.3333333333335,-59.99999999999989) translate(138.896484375 66.11425781249996)"/></g><defs><path fill="#474e55" d="M1094-1034c0 310-213 470-541 465H362V0H176v-1462h404c343 0 514 143 514 428zM532-727c244-1 369-71 369-297 0-186-113-279-338-279H362v576h170" id="aC"/><path fill="#474e55" d="M442-897c93-139 173-221 377-221 79 0 159 15 240 45l-49 166c-82-30-157-45-224-45-221 0-340 134-340 360V0H264v-1098h148l22 201h8" id="aD"/><path fill="#474e55" d="M1112-551c0 331-186 571-502 571-301 0-495-251-495-571 0-330 184-567 501-567 302 0 496 249 496 567zM614-131c207 0 310-140 310-420 0-277-104-416-312-416-206 0-309 139-309 416 0 280 104 420 311 420" id="aE"/><path fill="#474e55" d="M137-547c0-322 136-571 430-571 137 0 245 53 322 160h12c-24-215-7-376-12-598h182V0H924l-27-147h-8C814-36 706 20 567 20c-294 0-430-246-430-567zm463 416c241 0 288-157 289-416 0-151-23-259-69-323s-121-97-222-97c-181 0-272 141-272 422 0 276 91 414 274 414" id="aF"/><path fill="#474e55" d="M578-131c239 0 309-137 309-397v-570h182V0H922l-27-147h-10C815-36 704 20 551 20c-261 0-391-134-391-401v-717h182v707c0 173 79 260 236 260" id="aG"/><path fill="#474e55" d="M172-543c0-365 197-575 553-575 119 0 231 20 336 59l-62 158c-100-38-189-57-268-57-247 0-371 138-371 413 0 271 120 406 361 406 105 0 212-21 321-62v160C953 0 843 20 713 20c-347 1-541-210-541-563" id="aH"/><path fill="#474e55" d="M631-1118c283 0 470 204 465 491v113H322c5 250 120 375 344 375 130 0 253-25 370-76v160C925-5 804 20 672 20c-329 0-539-224-539-561 0-331 182-577 498-577zM326-662h573c0-203-91-305-272-305-183 0-284 102-301 305" id="aI"/><g id="a"><use transform="matrix(0.010959201388888886,0,0,0.010959201388888886,0,0)" xlink:href="#aC"/><use transform="matrix(0.010959201388888886,0,0,0.010959201388888886,13.468858506944441,0)" xlink:href="#aD"/><use transform="matrix(0.010959201388888886,0,0,0.010959201388888886,26.937717013888882,0)" xlink:href="#aE"/><use transform="matrix(0.010959201388888886,0,0,0.010959201388888886,40.40657552083332,0)" xlink:href="#aF"/><use transform="matrix(0.010959201388888886,0,0,0.010959201388888886,53.875434027777764,0)" xlink:href="#aG"/><use transform="matrix(0.010959201388888886,0,0,0.010959201388888886,67.3442925347222,0)" xlink:href="#aH"/><use transform="matrix(0.010959201388888886,0,0,0.010959201388888886,80.81315104166664,0)" xlink:href="#aI"/><use transform="matrix(0.010959201388888886,0,0,0.010959201388888886,94.28200954861109,0)" xlink:href="#aD"/></g><path fill="#474e55" d="M27 0v-27h64v-190l-56 39v-29l58-41h29v221h61V0H27" id="aJ"/><g id="b"><use transform="matrix(0.05,0,0,0.05,0,0)" xlink:href="#aJ"/><use transform="matrix(0.05,0,0,0.05,8.65,0)" xlink:href="#aJ"/></g><path fill="#474e55" d="M101-251c68 0 85 55 85 127S166 4 100 4C33 4 14-52 14-124c0-73 17-127 87-127zm-1 229c47 0 54-49 54-102s-4-102-53-102c-51 0-55 48-55 102 0 53 5 102 54 102" id="aK"/><g id="c"><use transform="matrix(0.05,0,0,0.05,0,0)" xlink:href="#aJ"/><use transform="matrix(0.05,0,0,0.05,10,0)" xlink:href="#aK"/></g><path fill="#474e55" d="M99-251c64 0 84 50 84 122C183-37 130 33 47-8c-14-7-20-23-25-40l30-5c6 39 69 39 84 7 9-19 16-44 16-74-10 22-31 35-62 35-49 0-73-33-73-83 0-54 28-83 82-83zm-1 141c31-1 51-18 51-49 0-36-14-67-51-67-34 0-49 23-49 58 0 34 15 58 49 58" id="aL"/><use transform="matrix(0.05,0,0,0.05,0,0)" xlink:href="#aL" id="d"/><path fill="#474e55" d="M134-131c28 9 52 24 51 62-1 50-34 73-85 73S17-19 16-69c0-36 21-54 49-61-75-25-45-126 34-121 46 3 78 18 79 63 0 33-17 51-44 57zm-34-11c31 1 46-15 46-44 0-28-17-43-47-42-29 0-46 13-45 42 1 28 16 44 46 44zm1 122c35 0 51-18 51-52 0-30-18-46-53-46-33 0-51 17-51 47 0 34 19 51 53 51" id="aM"/><use transform="matrix(0.05,0,0,0.05,0,0)" xlink:href="#aM" id="e"/><path fill="#474e55" d="M64 0c3-98 48-159 88-221H18v-27h164v26C143-157 98-101 97 0H64" id="aN"/><use transform="matrix(0.05,0,0,0.05,0,0)" xlink:href="#aN" id="f"/><path fill="#474e55" d="M110-160c48 1 74 30 74 79 0 53-28 85-80 85-65 0-83-55-86-122-5-90 50-162 133-122 14 7 22 21 27 39l-31 6c-5-40-67-38-82-6-9 19-15 44-15 74 11-20 30-34 60-33zm-7 138c34 0 49-23 49-58s-16-56-50-56c-29 0-50 16-49 49 1 36 15 65 50 65" id="aO"/><use transform="matrix(0.05,0,0,0.05,0,0)" xlink:href="#aO" id="g"/><path fill="#474e55" d="M54-142c48-35 137-8 131 61C196 18 31 33 14-55l32-4c7 23 22 37 52 37 35-1 51-22 54-58 4-55-73-65-99-34H22l8-134h141v27H59" id="aP"/><use transform="matrix(0.05,0,0,0.05,0,0)" xlink:href="#aP" id="h"/><path fill="#474e55" d="M155-56V0h-30v-56H8v-25l114-167h33v167h35v25h-35zm-30-156c-27 46-58 90-88 131h88v-131" id="aQ"/><use transform="matrix(0.05,0,0,0.05,0,0)" xlink:href="#aQ" id="i"/><path fill="#474e55" d="M126-127c33 6 58 20 58 59 0 88-139 92-164 29-3-8-5-16-6-25l32-3c6 27 21 44 54 44 32 0 52-15 52-46 0-38-36-46-79-43v-28c39 1 72-4 72-42 0-27-17-43-46-43-28 0-47 15-49 41l-32-3c6-42 35-63 81-64 48-1 79 21 79 65 0 36-21 52-52 59" id="aR"/><use transform="matrix(0.05,0,0,0.05,0,0)" xlink:href="#aR" id="j"/><path fill="#474e55" d="M101-251c82-7 93 87 43 132L82-64C71-53 59-42 53-27h129V0H18c2-99 128-94 128-182 0-28-16-43-45-43s-46 15-49 41l-32-3c6-41 34-60 81-64" id="aS"/><use transform="matrix(0.05,0,0,0.05,0,0)" xlink:href="#aS" id="k"/><use transform="matrix(0.05,0,0,0.05,0,0)" xlink:href="#aJ" id="l"/><use transform="matrix(0.05,0,0,0.05,0,0)" xlink:href="#aK" id="m"/><path fill="#474e55" d="M1004 0L860-453H369L223 0H33l483-1468h195L1196 0h-192zM807-618c-63-210-144-435-195-650-51 232-127 431-190 650h385" id="aT"/><path fill="#474e55" d="M383-553l135-152 395-393h222L641-623 1163 0H950L524-504l-129 82V0H215v-1556h180c-3 337 9 689-16 1003h4" id="aU"/><g id="n"><use transform="matrix(0.0087890625,0,0,0.0087890625,0,0)" xlink:href="#aT"/><use transform="matrix(0.0087890625,0,0,0.0087890625,10.8017578125,0)" xlink:href="#aH"/><use transform="matrix(0.0087890625,0,0,0.0087890625,21.603515625,0)" xlink:href="#aU"/><use transform="matrix(0.0087890625,0,0,0.0087890625,32.4052734375,0)" xlink:href="#aI"/><use transform="matrix(0.0087890625,0,0,0.0087890625,43.20703125,0)" xlink:href="#aF"/></g><path fill="#474e55" d="M532 0L254-1280h-8c34 456 12 817 18 1280H113v-1462h247L608-270h6l250-1192h252V0H963c5-467-12-807 14-1278h-8L686 0H532" id="aV"/><path fill="#474e55" d="M1026-301c0 225-197 321-448 321-165 0-290-23-375-69v-166c129 57 252 86 370 86 183 0 275-54 275-162 0-38-16-71-49-99s-108-63-226-106c-156-57-253-112-293-160s-61-105-61-171c2-338 524-340 789-217l-60 149c-121-48-228-72-319-72-157 0-236 44-236 133 0 41 17 74 51 98s111 57 232 101c141 51 234 101 280 151s70 111 70 183" id="aW"/><path fill="#474e55" d="M596-1118c288 2 430 92 430 366V0H895l-37-152h-8C752-34 680 17 483 20 272 23 135-98 135-307c0-221 170-337 510-348l203-7c15-197-55-305-244-305-98 0-207 27-328 82l-63-137c131-64 258-96 383-96zm-72 991c194 0 325-116 322-311v-99c-251 15-522-6-522 232 0 119 67 178 200 178" id="aX"/><path fill="#474e55" d="M188-739c-1-248 156-381 410-379 57 0 107 7 150 20h378v113l-196 27c43 57 65 128 65 213 2 253-212 385-489 346-67 37-100 82-100 133 0 56 54 84 161 84h187c216-2 358 93 358 297 0 251-188 377-565 377-145 0-255-26-331-80S102 283 102 186c0-141 80-231 240-270-64-31-96-83-96-154 0-75 44-139 133-192-109-41-191-166-191-309zm406 221c149 0 223-77 223-230 0-159-75-239-225-239s-225 81-225 242c0 151 76 227 227 227zm346 649c0-146-78-149-248-149H504c-153 0-230 66-230 198 0 116 90 174 271 174 263 0 395-74 395-223" id="aY"/><g id="o"><use transform="matrix(0.0087890625,0,0,0.0087890625,0,0)" xlink:href="#aV"/><use transform="matrix(0.0087890625,0,0,0.0087890625,10.8017578125,0)" xlink:href="#aI"/><use transform="matrix(0.0087890625,0,0,0.0087890625,21.603515625,0)" xlink:href="#aW"/><use transform="matrix(0.0087890625,0,0,0.0087890625,32.4052734375,0)" xlink:href="#aW"/><use transform="matrix(0.0087890625,0,0,0.0087890625,43.20703125,0)" xlink:href="#aX"/><use transform="matrix(0.0087890625,0,0,0.0087890625,54.0087890625,0)" xlink:href="#aY"/><use transform="matrix(0.0087890625,0,0,0.0087890625,64.810546875,0)" xlink:href="#aI"/></g><path fill="#474e55" d="M813 0c-67-308-137-613-199-926h-6C551-608 477-306 408 0H219L-4-1098h162c53 313 118 604 155 936h6c53-329 132-625 201-936h193c63 300 147 629 194 936h6c45-366 103-603 162-936h158L1008 0H813" id="aZ"/><path fill="#474e55" d="M739-1436c0 71-43 115-106 115-71 0-107-38-107-115 0-76 36-114 107-114s106 38 106 114zM541-954l-269-21v-123h451v955l352 20V0H197v-123l344-20v-811" id="ba"/><path fill="#474e55" d="M1020-150v138C933 9 849 20 768 20 527 20 406-95 406-324v-637H139v-94l267-49 77-287h105v293h438v137H588v637c0 130 64 195 192 195 62 0 142-7 240-21" id="bb"/><path fill="#474e55" d="M887 0v-707c0-173-79-260-238-260-205 0-307 133-307 398V0H160v-1556h182c-2 202 6 416-8 606h10c69-112 181-168 336-168 259 0 389 134 389 401V0H887" id="bc"/><path fill="#474e55" d="M887 0v-707c0-173-79-260-238-260-205 0-307 133-307 398V0H160v-1098h147l27 148h10c69-112 181-168 336-168 259 0 389 134 389 401V0H887" id="bd"/><g id="p"><use transform="matrix(0.0087890625,0,0,0.0087890625,0,0)" xlink:href="#aZ"/><use transform="matrix(0.0087890625,0,0,0.0087890625,10.8017578125,0)" xlink:href="#ba"/><use transform="matrix(0.0087890625,0,0,0.0087890625,21.603515625,0)" xlink:href="#bb"/><use transform="matrix(0.0087890625,0,0,0.0087890625,32.4052734375,0)" xlink:href="#bc"/><use transform="matrix(0.0087890625,0,0,0.0087890625,43.20703125,0)" xlink:href="#ba"/><use transform="matrix(0.0087890625,0,0,0.0087890625,54.0087890625,0)" xlink:href="#bd"/></g><g id="q"><use transform="matrix(0.0087890625,0,0,0.0087890625,0,0)" xlink:href="#aD"/><use transform="matrix(0.0087890625,0,0,0.0087890625,10.8017578125,0)" xlink:href="#aI"/><use transform="matrix(0.0087890625,0,0,0.0087890625,21.603515625,0)" xlink:href="#bb"/><use transform="matrix(0.0087890625,0,0,0.0087890625,32.4052734375,0)" xlink:href="#aI"/><use transform="matrix(0.0087890625,0,0,0.0087890625,43.20703125,0)" xlink:href="#bd"/><use transform="matrix(0.0087890625,0,0,0.0087890625,54.0087890625,0)" xlink:href="#bb"/><use transform="matrix(0.0087890625,0,0,0.0087890625,64.810546875,0)" xlink:href="#ba"/><use transform="matrix(0.0087890625,0,0,0.0087890625,75.6123046875,0)" xlink:href="#aE"/><use transform="matrix(0.0087890625,0,0,0.0087890625,86.4140625,0)" xlink:href="#bd"/></g><path fill="#474e55" d="M532-1413l-268-21v-122h451v1413l352 20V0H188v-123l344-20v-1270" id="be"/><path fill="#474e55" d="M977 0v-707c0-97-9-165-27-203s-47-57-88-57c-58 0-100 28-126 83s-40 148-40 278V0H535v-707c0-173-42-260-125-260-56 0-96 26-120 79s-36 160-36 319V0H92v-1098h127l27 148h10c45-112 112-168 201-168 109 0 180 61 213 182h6c51-121 124-182 219-182 85 0 147 30 186 92s58 165 58 309V0H977" id="bf"/><g id="r"><use transform="matrix(0.0087890625,0,0,0.0087890625,0,0)" xlink:href="#be"/><use transform="matrix(0.0087890625,0,0,0.0087890625,10.8017578125,0)" xlink:href="#ba"/><use transform="matrix(0.0087890625,0,0,0.0087890625,21.603515625,0)" xlink:href="#bf"/><use transform="matrix(0.0087890625,0,0,0.0087890625,32.4052734375,0)" xlink:href="#ba"/><use transform="matrix(0.0087890625,0,0,0.0087890625,43.20703125,0)" xlink:href="#bb"/></g><path fill="#474e55" d="M739-1462h193c-299 251-449 548-449 893 0 347 149 645 447 893H739C443 89 295-208 295-567c0-355 148-653 444-895" id="bg"/><g id="s"><use transform="matrix(0.0087890625,0,0,0.0087890625,0,0)" xlink:href="#bg"/><use transform="matrix(0.0087890625,0,0,0.0087890625,10.8017578125,0)" xlink:href="#bd"/><use transform="matrix(0.0087890625,0,0,0.0087890625,21.603515625,0)" xlink:href="#aE"/><use transform="matrix(0.0087890625,0,0,0.0087890625,32.4052734375,0)" xlink:href="#bb"/></g><path fill="#474e55" d="M82-1098h188l262 654c55 137 84 233 89 290h6c15-75 45-172 90-292l239-652h189L670 143c-45 116-99 201-156 261-87 92-259 104-414 71V330c92 17 226 18 286-29 67-53 115-195 153-291" id="bh"/><g id="t"><use transform="matrix(0.0087890625,0,0,0.0087890625,0,0)" xlink:href="#aD"/><use transform="matrix(0.0087890625,0,0,0.0087890625,10.8017578125,0)" xlink:href="#aI"/><use transform="matrix(0.0087890625,0,0,0.0087890625,21.603515625,0)" xlink:href="#aX"/><use transform="matrix(0.0087890625,0,0,0.0087890625,32.4052734375,0)" xlink:href="#aF"/><use transform="matrix(0.0087890625,0,0,0.0087890625,43.20703125,0)" xlink:href="#bh"/></g><path fill="#474e55" d="M866-1417c-164 2-207 56-211 215v104h389v137H655V0H473v-961H156v-110l317-33c-17-319 78-463 389-463 86 0 170 12 252 35l-41 143c-69-19-138-28-207-28" id="bi"/><g id="u"><use transform="matrix(0.0087890625,0,0,0.0087890625,0,0)" xlink:href="#bi"/><use transform="matrix(0.0087890625,0,0,0.0087890625,10.8017578125,0)" xlink:href="#aE"/><use transform="matrix(0.0087890625,0,0,0.0087890625,21.603515625,0)" xlink:href="#aD"/></g><path fill="#474e55" d="M489 324H299C596 77 745-221 745-569c0-345-149-643-448-893h192c297 241 445 539 445 895 0 360-148 657-445 891" id="bj"/><g id="v"><use transform="matrix(0.0087890625,0,0,0.0087890625,0,0)" xlink:href="#aF"/><use transform="matrix(0.0087890625,0,0,0.0087890625,10.8017578125,0)" xlink:href="#aI"/><use transform="matrix(0.0087890625,0,0,0.0087890625,21.603515625,0)" xlink:href="#be"/><use transform="matrix(0.0087890625,0,0,0.0087890625,32.4052734375,0)" xlink:href="#aI"/><use transform="matrix(0.0087890625,0,0,0.0087890625,43.20703125,0)" xlink:href="#bb"/><use transform="matrix(0.0087890625,0,0,0.0087890625,54.0087890625,0)" xlink:href="#ba"/><use transform="matrix(0.0087890625,0,0,0.0087890625,64.810546875,0)" xlink:href="#aE"/><use transform="matrix(0.0087890625,0,0,0.0087890625,75.6123046875,0)" xlink:href="#bd"/><use transform="matrix(0.0087890625,0,0,0.0087890625,86.4140625,0)" xlink:href="#bj"/></g><path fill="#474e55" d="M498 0L82-1098h188l240 652c57 154 90 262 100 325h6c67-256 244-708 340-977h189L729 0H498" id="bk"/><g id="w"><use transform="matrix(0.0087890625,0,0,0.0087890625,0,0)" xlink:href="#aE"/><use transform="matrix(0.0087890625,0,0,0.0087890625,10.8017578125,0)" xlink:href="#bk"/><use transform="matrix(0.0087890625,0,0,0.0087890625,21.603515625,0)" xlink:href="#aI"/><use transform="matrix(0.0087890625,0,0,0.0087890625,32.4052734375,0)" xlink:href="#aD"/></g><g id="x"><use transform="matrix(0.0087890625,0,0,0.0087890625,0,0)" xlink:href="#bg"/><use transform="matrix(0.0087890625,0,0,0.0087890625,10.8017578125,0)" xlink:href="#aD"/><use transform="matrix(0.0087890625,0,0,0.0087890625,21.603515625,0)" xlink:href="#aI"/><use transform="matrix(0.0087890625,0,0,0.0087890625,32.4052734375,0)" xlink:href="#aX"/><use transform="matrix(0.0087890625,0,0,0.0087890625,43.20703125,0)" xlink:href="#aF"/><use transform="matrix(0.0087890625,0,0,0.0087890625,54.0087890625,0)" xlink:href="#bh"/></g><path fill="#474e55" d="M326-731c0 353 139 584 471 588 87 0 196-19 327-58v162c-97 39-217 59-358 59-433-1-637-301-637-753 0-438 243-750 668-750 147 0 274 29 383 86l-78 156c-103-52-204-78-305-78-307 1-471 259-471 588" id="bl"/><g id="y"><use transform="matrix(0.0087890625,0,0,0.0087890625,0,0)" xlink:href="#bl"/><use transform="matrix(0.0087890625,0,0,0.0087890625,10.8017578125,0)" xlink:href="#aG"/><use transform="matrix(0.0087890625,0,0,0.0087890625,21.603515625,0)" xlink:href="#aD"/><use transform="matrix(0.0087890625,0,0,0.0087890625,32.4052734375,0)" xlink:href="#aW"/><use transform="matrix(0.0087890625,0,0,0.0087890625,43.20703125,0)" xlink:href="#aE"/><use transform="matrix(0.0087890625,0,0,0.0087890625,54.0087890625,0)" xlink:href="#aD"/></g><path fill="#474e55" d="M1087-391c0 281-226 411-532 411-177 0-315-23-414-69v-178c141 57 279 86 414 86 233 0 350-80 350-240 0-69-24-123-71-160s-142-82-285-133c-139-49-239-106-299-174s-90-156-90-264c2-252 211-371 481-371 153 0 291 26 416 78l-64 164c-129-52-249-78-360-78-195 0-293 70-293 209 0 68 22 123 66 164s134 85 270 133c164 58 273 119 328 181s83 143 83 241" id="bm"/><path fill="#474e55" d="M1092-551c0 322-136 571-430 571-138 0-245-53-322-159h-12L291 0H158v-1556h182c-2 221 6 379-8 602h8c71-109 179-164 322-164 294 0 430 246 430 567zM629-967c-241 0-289 146-289 416 0 151 24 259 70 323s120 97 221 97c181 0 272-141 272-422 0-276-91-414-274-414" id="bn"/><path fill="#474e55" d="M1092-551c0 322-136 571-430 571-138 0-245-53-322-159h-12c24 220 7 402 12 631H158v-1590h147l27 148h8c73-112 181-168 322-168 294 0 430 246 430 567zM629-967c-241 0-288 156-289 416 0 151 24 259 70 323s120 97 221 97c181 0 272-141 272-422 0-276-91-414-274-414" id="bo"/><g id="z"><use transform="matrix(0.010959201388888886,0,0,0.010959201388888886,0,0)" xlink:href="#bm"/><use transform="matrix(0.010959201388888886,0,0,0.010959201388888886,13.468858506944441,0)" xlink:href="#aG"/><use transform="matrix(0.010959201388888886,0,0,0.010959201388888886,26.937717013888882,0)" xlink:href="#bn"/><use transform="matrix(0.010959201388888886,0,0,0.010959201388888886,40.40657552083332,0)" xlink:href="#aW"/><use transform="matrix(0.010959201388888886,0,0,0.010959201388888886,53.875434027777764,0)" xlink:href="#aH"/><use transform="matrix(0.010959201388888886,0,0,0.010959201388888886,67.3442925347222,0)" xlink:href="#aD"/><use transform="matrix(0.010959201388888886,0,0,0.010959201388888886,80.81315104166664,0)" xlink:href="#ba"/><use transform="matrix(0.010959201388888886,0,0,0.010959201388888886,94.28200954861109,0)" xlink:href="#bo"/><use transform="matrix(0.010959201388888886,0,0,0.010959201388888886,107.75086805555553,0)" xlink:href="#bb"/><use transform="matrix(0.010959201388888886,0,0,0.010959201388888886,121.21972656249997,0)" xlink:href="#ba"/><use transform="matrix(0.010959201388888886,0,0,0.010959201388888886,134.6885850694444,0)" xlink:href="#aE"/><use transform="matrix(0.010959201388888886,0,0,0.010959201388888886,148.15744357638883,0)" xlink:href="#bd"/></g><g id="A"><use transform="matrix(0.05,0,0,0.05,0,0)" xlink:href="#aJ"/><use transform="matrix(0.05,0,0,0.05,10,0)" xlink:href="#aQ"/></g><g id="B"><use transform="matrix(0.05,0,0,0.05,0,0)" xlink:href="#aJ"/><use transform="matrix(0.05,0,0,0.05,10,0)" xlink:href="#aR"/></g><g id="C"><use transform="matrix(0.05,0,0,0.05,0,0)" xlink:href="#aJ"/><use transform="matrix(0.05,0,0,0.05,10,0)" xlink:href="#aS"/></g><path fill="#188fff" d="M373-604V0H186v-1462h357c347 0 520 138 520 415 0 191-96 322-289 392L1171 0H952L602-604H373zm497-434c0-207-118-263-338-265H373v541h164c215-1 333-70 333-276" id="bp"/><path fill="#188fff" d="M631-1118c283 0 470 204 465 491v113H322c5 250 120 375 344 375 130 0 253-25 370-76v160C925-5 804 20 672 20c-329 0-539-224-539-561 0-331 182-577 498-577zM326-662h573c0-203-91-305-272-305-183 0-284 102-301 305" id="bq"/><path fill="#188fff" d="M1020-150v138C933 9 849 20 768 20 527 20 406-95 406-324v-637H139v-94l267-49 77-287h105v293h438v137H588v637c0 130 64 195 192 195 62 0 142-7 240-21" id="br"/><path fill="#188fff" d="M596-1118c288 2 430 92 430 366V0H895l-37-152h-8C752-34 680 17 483 20 272 23 135-98 135-307c0-221 170-337 510-348l203-7c15-197-55-305-244-305-98 0-207 27-328 82l-63-137c131-64 258-96 383-96zm-72 991c194 0 325-116 322-311v-99c-251 15-522-6-522 232 0 119 67 178 200 178" id="bs"/><path fill="#188fff" d="M739-1436c0 71-43 115-106 115-71 0-107-38-107-115 0-76 36-114 107-114s106 38 106 114zM541-954l-269-21v-123h451v955l352 20V0H197v-123l344-20v-811" id="bt"/><path fill="#188fff" d="M887 0v-707c0-173-79-260-238-260-205 0-307 133-307 398V0H160v-1098h147l27 148h10c69-112 181-168 336-168 259 0 389 134 389 401V0H887" id="bu"/><path fill="#188fff" d="M137-547c0-322 136-571 430-571 137 0 245 53 322 160h12c-24-215-7-376-12-598h182V0H924l-27-147h-8C814-36 706 20 567 20c-294 0-430-246-430-567zm463 416c241 0 288-157 289-416 0-151-23-259-69-323s-121-97-222-97c-181 0-272 141-272 422 0 276 91 414 274 414" id="bv"/><g id="D"><use transform="matrix(0.0087890625,0,0,0.0087890625,0,0)" xlink:href="#bp"/><use transform="matrix(0.0087890625,0,0,0.0087890625,10.8017578125,0)" xlink:href="#bq"/><use transform="matrix(0.0087890625,0,0,0.0087890625,21.603515625,0)" xlink:href="#br"/><use transform="matrix(0.0087890625,0,0,0.0087890625,32.4052734375,0)" xlink:href="#bs"/><use transform="matrix(0.0087890625,0,0,0.0087890625,43.20703125,0)" xlink:href="#bt"/><use transform="matrix(0.0087890625,0,0,0.0087890625,54.0087890625,0)" xlink:href="#bu"/><use transform="matrix(0.0087890625,0,0,0.0087890625,64.810546875,0)" xlink:href="#bq"/><use transform="matrix(0.0087890625,0,0,0.0087890625,75.6123046875,0)" xlink:href="#bv"/></g><path fill="#188fff" d="M532 0L254-1280h-8c34 456 12 817 18 1280H113v-1462h247L608-270h6l250-1192h252V0H963c5-467-12-807 14-1278h-8L686 0H532" id="bw"/><path fill="#188fff" d="M1026-301c0 225-197 321-448 321-165 0-290-23-375-69v-166c129 57 252 86 370 86 183 0 275-54 275-162 0-38-16-71-49-99s-108-63-226-106c-156-57-253-112-293-160s-61-105-61-171c2-338 524-340 789-217l-60 149c-121-48-228-72-319-72-157 0-236 44-236 133 0 41 17 74 51 98s111 57 232 101c141 51 234 101 280 151s70 111 70 183" id="bx"/><path fill="#188fff" d="M188-739c-1-248 156-381 410-379 57 0 107 7 150 20h378v113l-196 27c43 57 65 128 65 213 2 253-212 385-489 346-67 37-100 82-100 133 0 56 54 84 161 84h187c216-2 358 93 358 297 0 251-188 377-565 377-145 0-255-26-331-80S102 283 102 186c0-141 80-231 240-270-64-31-96-83-96-154 0-75 44-139 133-192-109-41-191-166-191-309zm406 221c149 0 223-77 223-230 0-159-75-239-225-239s-225 81-225 242c0 151 76 227 227 227zm346 649c0-146-78-149-248-149H504c-153 0-230 66-230 198 0 116 90 174 271 174 263 0 395-74 395-223" id="by"/><g id="E"><use transform="matrix(0.0087890625,0,0,0.0087890625,0,0)" xlink:href="#bw"/><use transform="matrix(0.0087890625,0,0,0.0087890625,10.8017578125,0)" xlink:href="#bq"/><use transform="matrix(0.0087890625,0,0,0.0087890625,21.603515625,0)" xlink:href="#bx"/><use transform="matrix(0.0087890625,0,0,0.0087890625,32.4052734375,0)" xlink:href="#bx"/><use transform="matrix(0.0087890625,0,0,0.0087890625,43.20703125,0)" xlink:href="#bs"/><use transform="matrix(0.0087890625,0,0,0.0087890625,54.0087890625,0)" xlink:href="#by"/><use transform="matrix(0.0087890625,0,0,0.0087890625,64.810546875,0)" xlink:href="#bq"/><use transform="matrix(0.0087890625,0,0,0.0087890625,75.6123046875,0)" xlink:href="#bx"/></g><use transform="matrix(0.0087890625,0,0,0.0087890625,0,0)" xlink:href="#aT" id="F"/><g id="G"><use transform="matrix(0.0087890625,0,0,0.0087890625,0,0)" xlink:href="#bd"/><use transform="matrix(0.0087890625,0,0,0.0087890625,10.8017578125,0)" xlink:href="#aI"/><use transform="matrix(0.0087890625,0,0,0.0087890625,21.603515625,0)" xlink:href="#aZ"/></g><g id="H"><use transform="matrix(0.0087890625,0,0,0.0087890625,0,0)" xlink:href="#bf"/><use transform="matrix(0.0087890625,0,0,0.0087890625,10.8017578125,0)" xlink:href="#aI"/><use transform="matrix(0.0087890625,0,0,0.0087890625,21.603515625,0)" xlink:href="#aW"/><use transform="matrix(0.0087890625,0,0,0.0087890625,32.4052734375,0)" xlink:href="#aW"/><use transform="matrix(0.0087890625,0,0,0.0087890625,43.20703125,0)" xlink:href="#aX"/><use transform="matrix(0.0087890625,0,0,0.0087890625,54.0087890625,0)" xlink:href="#aY"/><use transform="matrix(0.0087890625,0,0,0.0087890625,64.810546875,0)" xlink:href="#aI"/></g><path fill="#c92d39" d="M707 0H520v-1298H102v-164h1022v164H707V0" id="bz"/><path fill="#c92d39" d="M887 0v-707c0-173-79-260-238-260-205 0-307 133-307 398V0H160v-1556h182c-2 202 6 416-8 606h10c69-112 181-168 336-168 259 0 389 134 389 401V0H887" id="bA"/><path fill="#c92d39" d="M631-1118c283 0 470 204 465 491v113H322c5 250 120 375 344 375 130 0 253-25 370-76v160C925-5 804 20 672 20c-329 0-539-224-539-561 0-331 182-577 498-577zM326-662h573c0-203-91-305-272-305-183 0-284 102-301 305" id="bB"/><g id="I"><use transform="matrix(0.008789062499999995,0,0,0.008789062499999995,0,0)" xlink:href="#bz"/><use transform="matrix(0.008789062499999995,0,0,0.008789062499999995,10.801757812499993,0)" xlink:href="#bA"/><use transform="matrix(0.008789062499999995,0,0,0.008789062499999995,21.603515624999986,0)" xlink:href="#bB"/></g><path fill="#c92d39" d="M887 0v-707c0-173-79-260-238-260-205 0-307 133-307 398V0H160v-1098h147l27 148h10c69-112 181-168 336-168 259 0 389 134 389 401V0H887" id="bC"/><path fill="#c92d39" d="M813 0c-67-308-137-613-199-926h-6C551-608 477-306 408 0H219L-4-1098h162c53 313 118 604 155 936h6c53-329 132-625 201-936h193c63 300 147 629 194 936h6c45-366 103-603 162-936h158L1008 0H813" id="bD"/><g id="J"><use transform="matrix(0.008789062499999995,0,0,0.008789062499999995,0,0)" xlink:href="#bC"/><use transform="matrix(0.008789062499999995,0,0,0.008789062499999995,10.801757812499993,0)" xlink:href="#bB"/><use transform="matrix(0.008789062499999995,0,0,0.008789062499999995,21.603515624999986,0)" xlink:href="#bD"/></g><path fill="#c92d39" d="M977 0v-707c0-97-9-165-27-203s-47-57-88-57c-58 0-100 28-126 83s-40 148-40 278V0H535v-707c0-173-42-260-125-260-56 0-96 26-120 79s-36 160-36 319V0H92v-1098h127l27 148h10c45-112 112-168 201-168 109 0 180 61 213 182h6c51-121 124-182 219-182 85 0 147 30 186 92s58 165 58 309V0H977" id="bE"/><path fill="#c92d39" d="M1026-301c0 225-197 321-448 321-165 0-290-23-375-69v-166c129 57 252 86 370 86 183 0 275-54 275-162 0-38-16-71-49-99s-108-63-226-106c-156-57-253-112-293-160s-61-105-61-171c2-338 524-340 789-217l-60 149c-121-48-228-72-319-72-157 0-236 44-236 133 0 41 17 74 51 98s111 57 232 101c141 51 234 101 280 151s70 111 70 183" id="bF"/><path fill="#c92d39" d="M596-1118c288 2 430 92 430 366V0H895l-37-152h-8C752-34 680 17 483 20 272 23 135-98 135-307c0-221 170-337 510-348l203-7c15-197-55-305-244-305-98 0-207 27-328 82l-63-137c131-64 258-96 383-96zm-72 991c194 0 325-116 322-311v-99c-251 15-522-6-522 232 0 119 67 178 200 178" id="bG"/><path fill="#c92d39" d="M188-739c-1-248 156-381 410-379 57 0 107 7 150 20h378v113l-196 27c43 57 65 128 65 213 2 253-212 385-489 346-67 37-100 82-100 133 0 56 54 84 161 84h187c216-2 358 93 358 297 0 251-188 377-565 377-145 0-255-26-331-80S102 283 102 186c0-141 80-231 240-270-64-31-96-83-96-154 0-75 44-139 133-192-109-41-191-166-191-309zm406 221c149 0 223-77 223-230 0-159-75-239-225-239s-225 81-225 242c0 151 76 227 227 227zm346 649c0-146-78-149-248-149H504c-153 0-230 66-230 198 0 116 90 174 271 174 263 0 395-74 395-223" id="bH"/><g id="K"><use transform="matrix(0.008789062499999995,0,0,0.008789062499999995,0,0)" xlink:href="#bE"/><use transform="matrix(0.008789062499999995,0,0,0.008789062499999995,10.801757812499993,0)" xlink:href="#bB"/><use transform="matrix(0.008789062499999995,0,0,0.008789062499999995,21.603515624999986,0)" xlink:href="#bF"/><use transform="matrix(0.008789062499999995,0,0,0.008789062499999995,32.40527343749998,0)" xlink:href="#bF"/><use transform="matrix(0.008789062499999995,0,0,0.008789062499999995,43.20703124999997,0)" xlink:href="#bG"/><use transform="matrix(0.008789062499999995,0,0,0.008789062499999995,54.008789062499964,0)" xlink:href="#bH"/><use transform="matrix(0.008789062499999995,0,0,0.008789062499999995,64.81054687499996,0)" xlink:href="#bB"/></g><path fill="#c92d39" d="M739-1436c0 71-43 115-106 115-71 0-107-38-107-115 0-76 36-114 107-114s106 38 106 114zM541-954l-269-21v-123h451v955l352 20V0H197v-123l344-20v-811" id="bI"/><g id="L"><use transform="matrix(0.008789062499999995,0,0,0.008789062499999995,0,0)" xlink:href="#bI"/><use transform="matrix(0.008789062499999995,0,0,0.008789062499999995,10.801757812499993,0)" xlink:href="#bF"/></g><path fill="#c92d39" d="M1112-551c0 331-186 571-502 571-301 0-495-251-495-571 0-330 184-567 501-567 302 0 496 249 496 567zM614-131c207 0 310-140 310-420 0-277-104-416-312-416-206 0-309 139-309 416 0 280 104 420 311 420" id="bJ"/><path fill="#c92d39" d="M498 0L82-1098h188l240 652c57 154 90 262 100 325h6c67-256 244-708 340-977h189L729 0H498" id="bK"/><path fill="#c92d39" d="M442-897c93-139 173-221 377-221 79 0 159 15 240 45l-49 166c-82-30-157-45-224-45-221 0-340 134-340 360V0H264v-1098h148l22 201h8" id="bL"/><g id="M"><use transform="matrix(0.008789062499999995,0,0,0.008789062499999995,0,0)" xlink:href="#bJ"/><use transform="matrix(0.008789062499999995,0,0,0.008789062499999995,10.801757812499993,0)" xlink:href="#bK"/><use transform="matrix(0.008789062499999995,0,0,0.008789062499999995,21.603515624999986,0)" xlink:href="#bB"/><use transform="matrix(0.008789062499999995,0,0,0.008789062499999995,32.40527343749998,0)" xlink:href="#bL"/></g><path fill="#c92d39" d="M1020-150v138C933 9 849 20 768 20 527 20 406-95 406-324v-637H139v-94l267-49 77-287h105v293h438v137H588v637c0 130 64 195 192 195 62 0 142-7 240-21" id="bM"/><g id="N"><use transform="matrix(0.008789062499999995,0,0,0.008789062499999995,0,0)" xlink:href="#bM"/><use transform="matrix(0.008789062499999995,0,0,0.008789062499999995,10.801757812499993,0)" xlink:href="#bA"/><use transform="matrix(0.008789062499999995,0,0,0.008789062499999995,21.603515624999986,0)" xlink:href="#bB"/></g><path fill="#c92d39" d="M1092-551c0 322-136 571-430 571-138 0-245-53-322-159h-12L291 0H158v-1556h182c-2 221 6 379-8 602h8c71-109 179-164 322-164 294 0 430 246 430 567zM629-967c-241 0-289 146-289 416 0 151 24 259 70 323s120 97 221 97c181 0 272-141 272-422 0-276-91-414-274-414" id="bN"/><path fill="#c92d39" d="M172-543c0-365 197-575 553-575 119 0 231 20 336 59l-62 158c-100-38-189-57-268-57-247 0-371 138-371 413 0 271 120 406 361 406 105 0 212-21 321-62v160C953 0 843 20 713 20c-347 1-541-210-541-563" id="bO"/><path fill="#c92d39" d="M383-553l135-152 395-393h222L641-623 1163 0H950L524-504l-129 82V0H215v-1556h180c-3 337 9 689-16 1003h4" id="bP"/><path fill="#c92d39" d="M532-1413l-268-21v-122h451v1413l352 20V0H188v-123l344-20v-1270" id="bQ"/><g id="O"><use transform="matrix(0.008789062499999995,0,0,0.008789062499999995,0,0)" xlink:href="#bN"/><use transform="matrix(0.008789062499999995,0,0,0.008789062499999995,10.801757812499993,0)" xlink:href="#bG"/><use transform="matrix(0.008789062499999995,0,0,0.008789062499999995,21.603515624999986,0)" xlink:href="#bO"/><use transform="matrix(0.008789062499999995,0,0,0.008789062499999995,32.40527343749998,0)" xlink:href="#bP"/><use transform="matrix(0.008789062499999995,0,0,0.008789062499999995,43.20703124999997,0)" xlink:href="#bQ"/><use transform="matrix(0.008789062499999995,0,0,0.008789062499999995,54.008789062499964,0)" xlink:href="#bJ"/><use transform="matrix(0.008789062499999995,0,0,0.008789062499999995,64.81054687499996,0)" xlink:href="#bH"/></g><path fill="#c92d39" d="M137-547c0-322 136-571 430-571 138 0 245 56 322 168h8l27-148h147V492H889c5-232-12-415 12-639h-12C814-36 706 20 567 20c-294 0-430-246-430-567zm463 416c241 0 288-157 289-416 0-151-23-259-69-323s-121-97-222-97c-181 0-272 141-272 422 0 276 91 414 274 414" id="bR"/><path fill="#c92d39" d="M578-131c239 0 309-137 309-397v-570h182V0H922l-27-147h-10C815-36 704 20 551 20c-261 0-391-134-391-401v-717h182v707c0 173 79 260 236 260" id="bS"/><g id="P"><use transform="matrix(0.008789062499999995,0,0,0.008789062499999995,0,0)" xlink:href="#bR"/><use transform="matrix(0.008789062499999995,0,0,0.008789062499999995,10.801757812499993,0)" xlink:href="#bS"/><use transform="matrix(0.008789062499999995,0,0,0.008789062499999995,21.603515624999986,0)" xlink:href="#bJ"/><use transform="matrix(0.008789062499999995,0,0,0.008789062499999995,32.40527343749998,0)" xlink:href="#bM"/><use transform="matrix(0.008789062499999995,0,0,0.008789062499999995,43.20703124999997,0)" xlink:href="#bG"/></g><path fill="#c92d39" d="M676-414H555l-51-1048h223zm-62 164c85 0 127 46 127 139S699 29 614 29 487-18 487-111s42-139 127-139" id="bT"/><g id="Q"><use transform="matrix(0.008789062499999995,0,0,0.008789062499999995,0,0)" xlink:href="#bQ"/><use transform="matrix(0.008789062499999995,0,0,0.008789062499999995,10.801757812499993,0)" xlink:href="#bI"/><use transform="matrix(0.008789062499999995,0,0,0.008789062499999995,21.603515624999986,0)" xlink:href="#bE"/><use transform="matrix(0.008789062499999995,0,0,0.008789062499999995,32.40527343749998,0)" xlink:href="#bI"/><use transform="matrix(0.008789062499999995,0,0,0.008789062499999995,43.20703124999997,0)" xlink:href="#bM"/><use transform="matrix(0.008789062499999995,0,0,0.008789062499999995,54.008789062499964,0)" xlink:href="#bT"/></g><path fill="#c92d39" d="M1094-1034c0 310-213 470-541 465H362V0H176v-1462h404c343 0 514 143 514 428zM532-727c244-1 369-71 369-297 0-186-113-279-338-279H362v576h170" id="bU"/><g id="R"><use transform="matrix(0.008789062499999995,0,0,0.008789062499999995,0,0)" xlink:href="#bU"/><use transform="matrix(0.008789062499999995,0,0,0.008789062499999995,10.801757812499993,0)" xlink:href="#bS"/><use transform="matrix(0.008789062499999995,0,0,0.008789062499999995,21.603515624999986,0)" xlink:href="#bQ"/><use transform="matrix(0.008789062499999995,0,0,0.008789062499999995,32.40527343749998,0)" xlink:href="#bF"/><use transform="matrix(0.008789062499999995,0,0,0.008789062499999995,43.20703124999997,0)" xlink:href="#bG"/><use transform="matrix(0.008789062499999995,0,0,0.008789062499999995,54.008789062499964,0)" xlink:href="#bL"/></g><g id="S"><use transform="matrix(0.008789062499999995,0,0,0.008789062499999995,0,0)" xlink:href="#bD"/><use transform="matrix(0.008789062499999995,0,0,0.008789062499999995,10.801757812499993,0)" xlink:href="#bI"/><use transform="matrix(0.008789062499999995,0,0,0.008789062499999995,21.603515624999986,0)" xlink:href="#bQ"/><use transform="matrix(0.008789062499999995,0,0,0.008789062499999995,32.40527343749998,0)" xlink:href="#bQ"/></g><path fill="#c92d39" d="M1092-551c0 322-136 571-430 571-138 0-245-53-322-159h-12c24 220 7 402 12 631H158v-1590h147l27 148h8c73-112 181-168 322-168 294 0 430 246 430 567zM629-967c-241 0-288 156-289 416 0 151 24 259 70 323s120 97 221 97c181 0 272-141 272-422 0-276-91-414-274-414" id="bV"/><path fill="#c92d39" d="M82-1098h188l262 654c55 137 84 233 89 290h6c15-75 45-172 90-292l239-652h189L670 143c-45 116-99 201-156 261-87 92-259 104-414 71V330c92 17 226 18 286-29 67-53 115-195 153-291" id="bW"/><g id="T"><use transform="matrix(0.008789062499999995,0,0,0.008789062499999995,0,0)" xlink:href="#bG"/><use transform="matrix(0.008789062499999995,0,0,0.008789062499999995,10.801757812499993,0)" xlink:href="#bV"/><use transform="matrix(0.008789062499999995,0,0,0.008789062499999995,21.603515624999986,0)" xlink:href="#bV"/><use transform="matrix(0.008789062499999995,0,0,0.008789062499999995,32.40527343749998,0)" xlink:href="#bQ"/><use transform="matrix(0.008789062499999995,0,0,0.008789062499999995,43.20703124999997,0)" xlink:href="#bW"/></g><g id="U"><use transform="matrix(0.008789062499999995,0,0,0.008789062499999995,0,0)" xlink:href="#bN"/><use transform="matrix(0.008789062499999995,0,0,0.008789062499999995,10.801757812499993,0)" xlink:href="#bG"/><use transform="matrix(0.008789062499999995,0,0,0.008789062499999995,21.603515624999986,0)" xlink:href="#bO"/><use transform="matrix(0.008789062499999995,0,0,0.008789062499999995,32.40527343749998,0)" xlink:href="#bP"/><use transform="matrix(0.008789062499999995,0,0,0.008789062499999995,43.20703124999997,0)" xlink:href="#bQ"/><use transform="matrix(0.008789062499999995,0,0,0.008789062499999995,54.008789062499964,0)" xlink:href="#bJ"/><use transform="matrix(0.008789062499999995,0,0,0.008789062499999995,64.81054687499996,0)" xlink:href="#bH"/></g><g id="V"><use transform="matrix(0.008789062499999995,0,0,0.008789062499999995,0,0)" xlink:href="#bL"/><use transform="matrix(0.008789062499999995,0,0,0.008789062499999995,10.801757812499993,0)" xlink:href="#bB"/><use transform="matrix(0.008789062499999995,0,0,0.008789062499999995,21.603515624999986,0)" xlink:href="#bM"/><use transform="matrix(0.008789062499999995,0,0,0.008789062499999995,32.40527343749998,0)" xlink:href="#bB"/><use transform="matrix(0.008789062499999995,0,0,0.008789062499999995,43.20703124999997,0)" xlink:href="#bC"/><use transform="matrix(0.008789062499999995,0,0,0.008789062499999995,54.008789062499964,0)" xlink:href="#bM"/><use transform="matrix(0.008789062499999995,0,0,0.008789062499999995,64.81054687499996,0)" xlink:href="#bI"/><use transform="matrix(0.008789062499999995,0,0,0.008789062499999995,75.61230468749994,0)" xlink:href="#bJ"/><use transform="matrix(0.008789062499999995,0,0,0.008789062499999995,86.41406249999994,0)" xlink:href="#bC"/></g><g id="W"><use transform="matrix(0.008789062499999995,0,0,0.008789062499999995,0,0)" xlink:href="#bV"/><use transform="matrix(0.008789062499999995,0,0,0.008789062499999995,10.801757812499993,0)" xlink:href="#bJ"/><use transform="matrix(0.008789062499999995,0,0,0.008789062499999995,21.603515624999986,0)" xlink:href="#bQ"/><use transform="matrix(0.008789062499999995,0,0,0.008789062499999995,32.40527343749998,0)" xlink:href="#bI"/><use transform="matrix(0.008789062499999995,0,0,0.008789062499999995,43.20703124999997,0)" xlink:href="#bO"/><use transform="matrix(0.008789062499999995,0,0,0.008789062499999995,54.008789062499964,0)" xlink:href="#bW"/></g><g id="X"><use transform="matrix(0.008789062499999995,0,0,0.008789062499999995,0,0)" xlink:href="#bA"/><use transform="matrix(0.008789062499999995,0,0,0.008789062499999995,10.801757812499993,0)" xlink:href="#bB"/><use transform="matrix(0.008789062499999995,0,0,0.008789062499999995,21.603515624999986,0)" xlink:href="#bL"/><use transform="matrix(0.008789062499999995,0,0,0.008789062499999995,32.40527343749998,0)" xlink:href="#bB"/><use transform="matrix(0.008789062499999995,0,0,0.008789062499999995,43.20703124999997,0)" xlink:href="#bT"/></g><path fill="#474e55" d="M1137-424C1137-153 941 0 662 0H135v-1462c284 7 685-30 837 88 80 62 124 152 124 282 0 179-125 297-291 316v10c221 36 332 150 332 342zm-232-655c0-182-120-224-319-224H322v461h284c195-2 299-53 299-237zM322-686v528h307c207 0 311-91 311-274 0-169-108-254-324-254H322" id="bX"/><g id="Y"><use transform="matrix(0.0087890625,0,0,0.0087890625,0,0)" xlink:href="#bX"/><use transform="matrix(0.0087890625,0,0,0.0087890625,10.8017578125,0)" xlink:href="#aX"/><use transform="matrix(0.0087890625,0,0,0.0087890625,21.603515625,0)" xlink:href="#aH"/><use transform="matrix(0.0087890625,0,0,0.0087890625,32.4052734375,0)" xlink:href="#aU"/><use transform="matrix(0.0087890625,0,0,0.0087890625,43.20703125,0)" xlink:href="#be"/><use transform="matrix(0.0087890625,0,0,0.0087890625,54.0087890625,0)" xlink:href="#aE"/><use transform="matrix(0.0087890625,0,0,0.0087890625,64.810546875,0)" xlink:href="#aY"/></g><path fill="#c92d39" d="M1137-424C1137-153 941 0 662 0H135v-1462c284 7 685-30 837 88 80 62 124 152 124 282 0 179-125 297-291 316v10c221 36 332 150 332 342zm-232-655c0-182-120-224-319-224H322v461h284c195-2 299-53 299-237zM322-686v528h307c207 0 311-91 311-274 0-169-108-254-324-254H322" id="bY"/><g id="Z"><use transform="matrix(0.0087890625,0,0,0.0087890625,0,0)" xlink:href="#bY"/><use transform="matrix(0.0087890625,0,0,0.0087890625,10.8017578125,0)" xlink:href="#bG"/><use transform="matrix(0.0087890625,0,0,0.0087890625,21.603515625,0)" xlink:href="#bO"/><use transform="matrix(0.0087890625,0,0,0.0087890625,32.4052734375,0)" xlink:href="#bP"/><use transform="matrix(0.0087890625,0,0,0.0087890625,43.20703125,0)" xlink:href="#bQ"/><use transform="matrix(0.0087890625,0,0,0.0087890625,54.0087890625,0)" xlink:href="#bJ"/><use transform="matrix(0.0087890625,0,0,0.0087890625,64.810546875,0)" xlink:href="#bH"/></g><path fill="#c92d39" d="M862-39c57 120 150 224 279 311l-121 142C863 300 753 167 692 14 277 55 84-202 84-735c0-500 178-750 534-750 171 0 301 65 392 195s137 316 137 557c0 351-95 582-285 694zM616-143c115 0 195-51 254-145 102-163 102-730-2-890-59-92-137-143-250-143-225 0-337 196-337 588 0 393 112 590 335 590" id="bZ"/><g id="aa"><use transform="matrix(0.0087890625,0,0,0.0087890625,0,0)" xlink:href="#bZ"/><use transform="matrix(0.0087890625,0,0,0.0087890625,10.8017578125,0)" xlink:href="#bS"/><use transform="matrix(0.0087890625,0,0,0.0087890625,21.603515625,0)" xlink:href="#bJ"/><use transform="matrix(0.0087890625,0,0,0.0087890625,32.4052734375,0)" xlink:href="#bM"/><use transform="matrix(0.0087890625,0,0,0.0087890625,43.20703125,0)" xlink:href="#bG"/></g><path fill="#0c7cba" d="M373-604V0H186v-1462h357c347 0 520 138 520 415 0 191-96 322-289 392L1171 0H952L602-604H373zm497-434c0-207-118-263-338-265H373v541h164c215-1 333-70 333-276" id="ca"/><path fill="#0c7cba" d="M631-1118c283 0 470 204 465 491v113H322c5 250 120 375 344 375 130 0 253-25 370-76v160C925-5 804 20 672 20c-329 0-539-224-539-561 0-331 182-577 498-577zM326-662h573c0-203-91-305-272-305-183 0-284 102-301 305" id="cb"/><path fill="#0c7cba" d="M1020-150v138C933 9 849 20 768 20 527 20 406-95 406-324v-637H139v-94l267-49 77-287h105v293h438v137H588v637c0 130 64 195 192 195 62 0 142-7 240-21" id="cc"/><path fill="#0c7cba" d="M887 0v-707c0-173-79-260-238-260-205 0-307 133-307 398V0H160v-1098h147l27 148h10c69-112 181-168 336-168 259 0 389 134 389 401V0H887" id="cd"/><path fill="#0c7cba" d="M739-1436c0 71-43 115-106 115-71 0-107-38-107-115 0-76 36-114 107-114s106 38 106 114zM541-954l-269-21v-123h451v955l352 20V0H197v-123l344-20v-811" id="ce"/><path fill="#0c7cba" d="M1112-551c0 331-186 571-502 571-301 0-495-251-495-571 0-330 184-567 501-567 302 0 496 249 496 567zM614-131c207 0 310-140 310-420 0-277-104-416-312-416-206 0-309 139-309 416 0 280 104 420 311 420" id="cf"/><g id="ab"><use transform="matrix(0.0087890625,0,0,0.0087890625,0,0)" xlink:href="#ca"/><use transform="matrix(0.0087890625,0,0,0.0087890625,10.8017578125,0)" xlink:href="#cb"/><use transform="matrix(0.0087890625,0,0,0.0087890625,21.603515625,0)" xlink:href="#cc"/><use transform="matrix(0.0087890625,0,0,0.0087890625,32.4052734375,0)" xlink:href="#cb"/><use transform="matrix(0.0087890625,0,0,0.0087890625,43.20703125,0)" xlink:href="#cd"/><use transform="matrix(0.0087890625,0,0,0.0087890625,54.0087890625,0)" xlink:href="#cc"/><use transform="matrix(0.0087890625,0,0,0.0087890625,64.810546875,0)" xlink:href="#ce"/><use transform="matrix(0.0087890625,0,0,0.0087890625,75.6123046875,0)" xlink:href="#cf"/><use transform="matrix(0.0087890625,0,0,0.0087890625,86.4140625,0)" xlink:href="#cd"/></g><path fill="#0c7cba" d="M1094-1034c0 310-213 470-541 465H362V0H176v-1462h404c343 0 514 143 514 428zM532-727c244-1 369-71 369-297 0-186-113-279-338-279H362v576h170" id="cg"/><path fill="#0c7cba" d="M532-1413l-268-21v-122h451v1413l352 20V0H188v-123l344-20v-1270" id="ch"/><path fill="#0c7cba" d="M172-543c0-365 197-575 553-575 119 0 231 20 336 59l-62 158c-100-38-189-57-268-57-247 0-371 138-371 413 0 271 120 406 361 406 105 0 212-21 321-62v160C953 0 843 20 713 20c-347 1-541-210-541-563" id="ci"/><path fill="#0c7cba" d="M82-1098h188l262 654c55 137 84 233 89 290h6c15-75 45-172 90-292l239-652h189L670 143c-45 116-99 201-156 261-87 92-259 104-414 71V330c92 17 226 18 286-29 67-53 115-195 153-291" id="cj"/><g id="ac"><use transform="matrix(0.0087890625,0,0,0.0087890625,0,0)" xlink:href="#cg"/><use transform="matrix(0.0087890625,0,0,0.0087890625,10.8017578125,0)" xlink:href="#cf"/><use transform="matrix(0.0087890625,0,0,0.0087890625,21.603515625,0)" xlink:href="#ch"/><use transform="matrix(0.0087890625,0,0,0.0087890625,32.4052734375,0)" xlink:href="#ce"/><use transform="matrix(0.0087890625,0,0,0.0087890625,43.20703125,0)" xlink:href="#ci"/><use transform="matrix(0.0087890625,0,0,0.0087890625,54.0087890625,0)" xlink:href="#cj"/></g><path fill="#474e55" d="M1104-516c1 337-164 537-496 536-322 0-483-180-483-540v-942h186v932c0 258 102 387 307 387 197 0 300-130 300-389v-932h186v948" id="ck"/><g id="ad"><use transform="matrix(0.008789062499999995,0,0,0.008789062499999995,0,0)" xlink:href="#ck"/><use transform="matrix(0.008789062499999995,0,0,0.008789062499999995,10.801757812499993,0)" xlink:href="#bd"/><use transform="matrix(0.008789062499999995,0,0,0.008789062499999995,21.603515624999986,0)" xlink:href="#aX"/><use transform="matrix(0.008789062499999995,0,0,0.008789062499999995,32.40527343749998,0)" xlink:href="#aH"/><use transform="matrix(0.008789062499999995,0,0,0.008789062499999995,43.20703124999997,0)" xlink:href="#aU"/><use transform="matrix(0.008789062499999995,0,0,0.008789062499999995,54.008789062499964,0)" xlink:href="#aI"/><use transform="matrix(0.008789062499999995,0,0,0.008789062499999995,64.81054687499996,0)" xlink:href="#aF"/></g><g id="ae"><use transform="matrix(0.008789062499999995,0,0,0.008789062499999995,0,0)" xlink:href="#bf"/><use transform="matrix(0.008789062499999995,0,0,0.008789062499999995,10.801757812499993,0)" xlink:href="#aI"/><use transform="matrix(0.008789062499999995,0,0,0.008789062499999995,21.603515624999986,0)" xlink:href="#aW"/><use transform="matrix(0.008789062499999995,0,0,0.008789062499999995,32.40527343749998,0)" xlink:href="#aW"/><use transform="matrix(0.008789062499999995,0,0,0.008789062499999995,43.20703124999997,0)" xlink:href="#aX"/><use transform="matrix(0.008789062499999995,0,0,0.008789062499999995,54.008789062499964,0)" xlink:href="#aY"/><use transform="matrix(0.008789062499999995,0,0,0.008789062499999995,64.81054687499996,0)" xlink:href="#aI"/><use transform="matrix(0.008789062499999995,0,0,0.008789062499999995,75.61230468749994,0)" xlink:href="#aW"/></g><g id="af"><use transform="matrix(0.008789062499999995,0,0,0.008789062499999995,0,0)" xlink:href="#aX"/><use transform="matrix(0.008789062499999995,0,0,0.008789062499999995,10.801757812499993,0)" xlink:href="#aD"/><use transform="matrix(0.008789062499999995,0,0,0.008789062499999995,21.603515624999986,0)" xlink:href="#aI"/></g><g id="ag"><use transform="matrix(0.008789062499999995,0,0,0.008789062499999995,0,0)" xlink:href="#aZ"/><use transform="matrix(0.008789062499999995,0,0,0.008789062499999995,10.801757812499993,0)" xlink:href="#ba"/><use transform="matrix(0.008789062499999995,0,0,0.008789062499999995,21.603515624999986,0)" xlink:href="#bb"/><use transform="matrix(0.008789062499999995,0,0,0.008789062499999995,32.40527343749998,0)" xlink:href="#bc"/><use transform="matrix(0.008789062499999995,0,0,0.008789062499999995,43.20703124999997,0)" xlink:href="#ba"/><use transform="matrix(0.008789062499999995,0,0,0.008789062499999995,54.008789062499964,0)" xlink:href="#bd"/></g><g id="ah"><use transform="matrix(0.008789062499999995,0,0,0.008789062499999995,0,0)" xlink:href="#bn"/><use transform="matrix(0.008789062499999995,0,0,0.008789062499999995,10.801757812499993,0)" xlink:href="#aX"/><use transform="matrix(0.008789062499999995,0,0,0.008789062499999995,21.603515624999986,0)" xlink:href="#aH"/><use transform="matrix(0.008789062499999995,0,0,0.008789062499999995,32.40527343749998,0)" xlink:href="#aU"/><use transform="matrix(0.008789062499999995,0,0,0.008789062499999995,43.20703124999997,0)" xlink:href="#be"/><use transform="matrix(0.008789062499999995,0,0,0.008789062499999995,54.008789062499964,0)" xlink:href="#aE"/><use transform="matrix(0.008789062499999995,0,0,0.008789062499999995,64.81054687499996,0)" xlink:href="#aY"/></g><path fill="#474e55" d="M137-547c0-322 136-571 430-571 138 0 245 56 322 168h8l27-148h147V492H889c5-232-12-415 12-639h-12C814-36 706 20 567 20c-294 0-430-246-430-567zm463 416c241 0 288-157 289-416 0-151-23-259-69-323s-121-97-222-97c-181 0-272 141-272 422 0 276 91 414 274 414" id="cl"/><g id="ai"><use transform="matrix(0.008789062499999995,0,0,0.008789062499999995,0,0)" xlink:href="#cl"/><use transform="matrix(0.008789062499999995,0,0,0.008789062499999995,10.801757812499993,0)" xlink:href="#aG"/><use transform="matrix(0.008789062499999995,0,0,0.008789062499999995,21.603515624999986,0)" xlink:href="#aE"/><use transform="matrix(0.008789062499999995,0,0,0.008789062499999995,32.40527343749998,0)" xlink:href="#bb"/><use transform="matrix(0.008789062499999995,0,0,0.008789062499999995,43.20703124999997,0)" xlink:href="#aX"/></g><g id="aj"><use transform="matrix(0.008789062499999995,0,0,0.008789062499999995,0,0)" xlink:href="#be"/><use transform="matrix(0.008789062499999995,0,0,0.008789062499999995,10.801757812499993,0)" xlink:href="#ba"/><use transform="matrix(0.008789062499999995,0,0,0.008789062499999995,21.603515624999986,0)" xlink:href="#bf"/><use transform="matrix(0.008789062499999995,0,0,0.008789062499999995,32.40527343749998,0)" xlink:href="#ba"/><use transform="matrix(0.008789062499999995,0,0,0.008789062499999995,43.20703124999997,0)" xlink:href="#bb"/></g><g id="ak"><use transform="matrix(0.008789062499999995,0,0,0.008789062499999995,0,0)" xlink:href="#aU"/><use transform="matrix(0.008789062499999995,0,0,0.008789062499999995,10.801757812499993,0)" xlink:href="#aI"/><use transform="matrix(0.008789062499999995,0,0,0.008789062499999995,21.603515624999986,0)" xlink:href="#bo"/><use transform="matrix(0.008789062499999995,0,0,0.008789062499999995,32.40527343749998,0)" xlink:href="#bb"/></g><g id="al"><use transform="matrix(0.008789062499999995,0,0,0.008789062499999995,0,0)" xlink:href="#ba"/><use transform="matrix(0.008789062499999995,0,0,0.008789062499999995,10.801757812499993,0)" xlink:href="#bd"/></g><g id="am"><use transform="matrix(0.008789062499999995,0,0,0.008789062499999995,0,0)" xlink:href="#bb"/><use transform="matrix(0.008789062499999995,0,0,0.008789062499999995,10.801757812499993,0)" xlink:href="#bc"/><use transform="matrix(0.008789062499999995,0,0,0.008789062499999995,21.603515624999986,0)" xlink:href="#aI"/></g><g id="an"><use transform="matrix(0.008789062499999995,0,0,0.008789062499999995,0,0)" xlink:href="#bn"/><use transform="matrix(0.008789062499999995,0,0,0.008789062499999995,10.801757812499993,0)" xlink:href="#aX"/><use transform="matrix(0.008789062499999995,0,0,0.008789062499999995,21.603515624999986,0)" xlink:href="#aH"/><use transform="matrix(0.008789062499999995,0,0,0.008789062499999995,32.40527343749998,0)" xlink:href="#aU"/><use transform="matrix(0.008789062499999995,0,0,0.008789062499999995,43.20703124999997,0)" xlink:href="#be"/><use transform="matrix(0.008789062499999995,0,0,0.008789062499999995,54.008789062499964,0)" xlink:href="#aE"/><use transform="matrix(0.008789062499999995,0,0,0.008789062499999995,64.81054687499996,0)" xlink:href="#aY"/></g><path fill="#188fff" d="M1004 0L860-453H369L223 0H33l483-1468h195L1196 0h-192zM807-618c-63-210-144-435-195-650-51 232-127 431-190 650h385" id="cm"/><path fill="#188fff" d="M172-543c0-365 197-575 553-575 119 0 231 20 336 59l-62 158c-100-38-189-57-268-57-247 0-371 138-371 413 0 271 120 406 361 406 105 0 212-21 321-62v160C953 0 843 20 713 20c-347 1-541-210-541-563" id="cn"/><path fill="#188fff" d="M383-553l135-152 395-393h222L641-623 1163 0H950L524-504l-129 82V0H215v-1556h180c-3 337 9 689-16 1003h4" id="co"/><g id="ao"><use transform="matrix(0.008789062499999995,0,0,0.008789062499999995,0,0)" xlink:href="#cm"/><use transform="matrix(0.008789062499999995,0,0,0.008789062499999995,10.801757812499993,0)" xlink:href="#cn"/><use transform="matrix(0.008789062499999995,0,0,0.008789062499999995,21.603515624999986,0)" xlink:href="#co"/><use transform="matrix(0.008789062499999995,0,0,0.008789062499999995,32.40527343749998,0)" xlink:href="#bq"/><use transform="matrix(0.008789062499999995,0,0,0.008789062499999995,43.20703124999997,0)" xlink:href="#bv"/></g><path fill="#188fff" d="M977 0v-707c0-97-9-165-27-203s-47-57-88-57c-58 0-100 28-126 83s-40 148-40 278V0H535v-707c0-173-42-260-125-260-56 0-96 26-120 79s-36 160-36 319V0H92v-1098h127l27 148h10c45-112 112-168 201-168 109 0 180 61 213 182h6c51-121 124-182 219-182 85 0 147 30 186 92s58 165 58 309V0H977" id="cp"/><g id="ap"><use transform="matrix(0.008789062499999995,0,0,0.008789062499999995,0,0)" xlink:href="#cp"/><use transform="matrix(0.008789062499999995,0,0,0.008789062499999995,10.801757812499993,0)" xlink:href="#bq"/><use transform="matrix(0.008789062499999995,0,0,0.008789062499999995,21.603515624999986,0)" xlink:href="#bx"/><use transform="matrix(0.008789062499999995,0,0,0.008789062499999995,32.40527343749998,0)" xlink:href="#bx"/><use transform="matrix(0.008789062499999995,0,0,0.008789062499999995,43.20703124999997,0)" xlink:href="#bs"/><use transform="matrix(0.008789062499999995,0,0,0.008789062499999995,54.008789062499964,0)" xlink:href="#by"/><use transform="matrix(0.008789062499999995,0,0,0.008789062499999995,64.81054687499996,0)" xlink:href="#bq"/><use transform="matrix(0.008789062499999995,0,0,0.008789062499999995,75.61230468749994,0)" xlink:href="#bx"/></g><path fill="#188fff" d="M813 0c-67-308-137-613-199-926h-6C551-608 477-306 408 0H219L-4-1098h162c53 313 118 604 155 936h6c53-329 132-625 201-936h193c63 300 147 629 194 936h6c45-366 103-603 162-936h158L1008 0H813" id="cq"/><path fill="#188fff" d="M887 0v-707c0-173-79-260-238-260-205 0-307 133-307 398V0H160v-1556h182c-2 202 6 416-8 606h10c69-112 181-168 336-168 259 0 389 134 389 401V0H887" id="cr"/><g id="aq"><use transform="matrix(0.008789062499999995,0,0,0.008789062499999995,0,0)" xlink:href="#cq"/><use transform="matrix(0.008789062499999995,0,0,0.008789062499999995,10.801757812499993,0)" xlink:href="#bt"/><use transform="matrix(0.008789062499999995,0,0,0.008789062499999995,21.603515624999986,0)" xlink:href="#br"/><use transform="matrix(0.008789062499999995,0,0,0.008789062499999995,32.40527343749998,0)" xlink:href="#cr"/><use transform="matrix(0.008789062499999995,0,0,0.008789062499999995,43.20703124999997,0)" xlink:href="#bt"/><use transform="matrix(0.008789062499999995,0,0,0.008789062499999995,54.008789062499964,0)" xlink:href="#bu"/></g><path fill="#188fff" d="M442-897c93-139 173-221 377-221 79 0 159 15 240 45l-49 166c-82-30-157-45-224-45-221 0-340 134-340 360V0H264v-1098h148l22 201h8" id="cs"/><path fill="#188fff" d="M1112-551c0 331-186 571-502 571-301 0-495-251-495-571 0-330 184-567 501-567 302 0 496 249 496 567zM614-131c207 0 310-140 310-420 0-277-104-416-312-416-206 0-309 139-309 416 0 280 104 420 311 420" id="ct"/><g id="ar"><use transform="matrix(0.008789062499999995,0,0,0.008789062499999995,0,0)" xlink:href="#cs"/><use transform="matrix(0.008789062499999995,0,0,0.008789062499999995,10.801757812499993,0)" xlink:href="#bq"/><use transform="matrix(0.008789062499999995,0,0,0.008789062499999995,21.603515624999986,0)" xlink:href="#br"/><use transform="matrix(0.008789062499999995,0,0,0.008789062499999995,32.40527343749998,0)" xlink:href="#bq"/><use transform="matrix(0.008789062499999995,0,0,0.008789062499999995,43.20703124999997,0)" xlink:href="#bu"/><use transform="matrix(0.008789062499999995,0,0,0.008789062499999995,54.008789062499964,0)" xlink:href="#br"/><use transform="matrix(0.008789062499999995,0,0,0.008789062499999995,64.81054687499996,0)" xlink:href="#bt"/><use transform="matrix(0.008789062499999995,0,0,0.008789062499999995,75.61230468749994,0)" xlink:href="#ct"/><use transform="matrix(0.008789062499999995,0,0,0.008789062499999995,86.41406249999994,0)" xlink:href="#bu"/></g><path fill="#188fff" d="M1092-551c0 322-136 571-430 571-138 0-245-53-322-159h-12c24 220 7 402 12 631H158v-1590h147l27 148h8c73-112 181-168 322-168 294 0 430 246 430 567zM629-967c-241 0-288 156-289 416 0 151 24 259 70 323s120 97 221 97c181 0 272-141 272-422 0-276-91-414-274-414" id="cu"/><g id="as"><use transform="matrix(0.008789062499999995,0,0,0.008789062499999995,0,0)" xlink:href="#cu"/><use transform="matrix(0.008789062499999995,0,0,0.008789062499999995,10.801757812499993,0)" xlink:href="#bq"/><use transform="matrix(0.008789062499999995,0,0,0.008789062499999995,21.603515624999986,0)" xlink:href="#cs"/><use transform="matrix(0.008789062499999995,0,0,0.008789062499999995,32.40527343749998,0)" xlink:href="#bt"/><use transform="matrix(0.008789062499999995,0,0,0.008789062499999995,43.20703124999997,0)" xlink:href="#ct"/><use transform="matrix(0.008789062499999995,0,0,0.008789062499999995,54.008789062499964,0)" xlink:href="#bv"/></g><path fill="#188fff" d="M532-1413l-268-21v-122h451v1413l352 20V0H188v-123l344-20v-1270" id="cv"/><g id="at"><use transform="matrix(0.008789062499999995,0,0,0.008789062499999995,0,0)" xlink:href="#cq"/><use transform="matrix(0.008789062499999995,0,0,0.008789062499999995,10.801757812499993,0)" xlink:href="#bt"/><use transform="matrix(0.008789062499999995,0,0,0.008789062499999995,21.603515624999986,0)" xlink:href="#cv"/><use transform="matrix(0.008789062499999995,0,0,0.008789062499999995,32.40527343749998,0)" xlink:href="#cv"/></g><g id="au"><use transform="matrix(0.008789062499999995,0,0,0.008789062499999995,0,0)" xlink:href="#bu"/><use transform="matrix(0.008789062499999995,0,0,0.008789062499999995,10.801757812499993,0)" xlink:href="#ct"/><use transform="matrix(0.008789062499999995,0,0,0.008789062499999995,21.603515624999986,0)" xlink:href="#br"/></g><path fill="#188fff" d="M1092-551c0 322-136 571-430 571-138 0-245-53-322-159h-12L291 0H158v-1556h182c-2 221 6 379-8 602h8c71-109 179-164 322-164 294 0 430 246 430 567zM629-967c-241 0-289 146-289 416 0 151 24 259 70 323s120 97 221 97c181 0 272-141 272-422 0-276-91-414-274-414" id="cw"/><g id="av"><use transform="matrix(0.008789062499999995,0,0,0.008789062499999995,0,0)" xlink:href="#cw"/><use transform="matrix(0.008789062499999995,0,0,0.008789062499999995,10.801757812499993,0)" xlink:href="#bq"/></g><g id="aw"><use transform="matrix(0.008789062499999995,0,0,0.008789062499999995,0,0)" xlink:href="#bv"/><use transform="matrix(0.008789062499999995,0,0,0.008789062499999995,10.801757812499993,0)" xlink:href="#bq"/><use transform="matrix(0.008789062499999995,0,0,0.008789062499999995,21.603515624999986,0)" xlink:href="#cv"/><use transform="matrix(0.008789062499999995,0,0,0.008789062499999995,32.40527343749998,0)" xlink:href="#bq"/><use transform="matrix(0.008789062499999995,0,0,0.008789062499999995,43.20703124999997,0)" xlink:href="#br"/><use transform="matrix(0.008789062499999995,0,0,0.008789062499999995,54.008789062499964,0)" xlink:href="#bq"/><use transform="matrix(0.008789062499999995,0,0,0.008789062499999995,64.81054687499996,0)" xlink:href="#bv"/></g><g id="ax"><use transform="matrix(0.008789062499999995,0,0,0.008789062499999995,0,0)" xlink:href="#cu"/><use transform="matrix(0.008789062499999995,0,0,0.008789062499999995,10.801757812499993,0)" xlink:href="#bs"/><use transform="matrix(0.008789062499999995,0,0,0.008789062499999995,21.603515624999986,0)" xlink:href="#bx"/><use transform="matrix(0.008789062499999995,0,0,0.008789062499999995,32.40527343749998,0)" xlink:href="#bx"/><use transform="matrix(0.008789062499999995,0,0,0.008789062499999995,43.20703124999997,0)" xlink:href="#bq"/><use transform="matrix(0.008789062499999995,0,0,0.008789062499999995,54.008789062499964,0)" xlink:href="#bv"/></g><g id="ay"><use transform="matrix(0.008789062499999995,0,0,0.008789062499999995,0,0)" xlink:href="#bs"/><use transform="matrix(0.008789062499999995,0,0,0.008789062499999995,10.801757812499993,0)" xlink:href="#cs"/><use transform="matrix(0.008789062499999995,0,0,0.008789062499999995,21.603515624999986,0)" xlink:href="#bq"/></g><path fill="#188fff" d="M82-1098h188l262 654c55 137 84 233 89 290h6c15-75 45-172 90-292l239-652h189L670 143c-45 116-99 201-156 261-87 92-259 104-414 71V330c92 17 226 18 286-29 67-53 115-195 153-291" id="cx"/><g id="az"><use transform="matrix(0.008789062499999995,0,0,0.008789062499999995,0,0)" xlink:href="#cs"/><use transform="matrix(0.008789062499999995,0,0,0.008789062499999995,10.801757812499993,0)" xlink:href="#bq"/><use transform="matrix(0.008789062499999995,0,0,0.008789062499999995,21.603515624999986,0)" xlink:href="#bs"/><use transform="matrix(0.008789062499999995,0,0,0.008789062499999995,32.40527343749998,0)" xlink:href="#bv"/><use transform="matrix(0.008789062499999995,0,0,0.008789062499999995,43.20703124999997,0)" xlink:href="#cx"/></g><path fill="#188fff" d="M866-1417c-164 2-207 56-211 215v104h389v137H655V0H473v-961H156v-110l317-33c-17-319 78-463 389-463 86 0 170 12 252 35l-41 143c-69-19-138-28-207-28" id="cy"/><g id="aA"><use transform="matrix(0.008789062499999995,0,0,0.008789062499999995,0,0)" xlink:href="#cy"/><use transform="matrix(0.008789062499999995,0,0,0.008789062499999995,10.801757812499993,0)" xlink:href="#ct"/><use transform="matrix(0.008789062499999995,0,0,0.008789062499999995,21.603515624999986,0)" xlink:href="#cs"/></g><g id="aB"><use transform="matrix(0.008789062499999995,0,0,0.008789062499999995,0,0)" xlink:href="#bv"/><use transform="matrix(0.008789062499999995,0,0,0.008789062499999995,10.801757812499993,0)" xlink:href="#bq"/><use transform="matrix(0.008789062499999995,0,0,0.008789062499999995,21.603515624999986,0)" xlink:href="#cv"/><use transform="matrix(0.008789062499999995,0,0,0.008789062499999995,32.40527343749998,0)" xlink:href="#bq"/><use transform="matrix(0.008789062499999995,0,0,0.008789062499999995,43.20703124999997,0)" xlink:href="#br"/><use transform="matrix(0.008789062499999995,0,0,0.008789062499999995,54.008789062499964,0)" xlink:href="#bt"/><use transform="matrix(0.008789062499999995,0,0,0.008789062499999995,64.81054687499996,0)" xlink:href="#ct"/><use transform="matrix(0.008789062499999995,0,0,0.008789062499999995,75.61230468749994,0)" xlink:href="#bu"/></g></defs></g></svg>