<svg xmlns="http://www.w3.org/2000/svg" xmlns:xlink="http://www.w3.org/1999/xlink" xmlns:lucid="lucid" width="1720" height="520"><g transform="translate(-20 -360)" lucid:page-tab-id="0_0"><path d="M40 386c0-3.3 2.7-6 6-6h1668c3.3 0 6 2.7 6 6v468c0 3.3-2.7 6-6 6H46c-3.3 0-6-2.7-6-6z" stroke="#dfe3e8" stroke-width="2" fill="#fff" filter="url(#a)"/><path d="M1040 565c0-3.3 2.7-6 6-6h268c3.3 0 6 2.7 6 6v168c0 3.3-2.7 6-6 6h-268c-3.3 0-6-2.7-6-6z" stroke="#3a414a" fill="#fff"/><use xlink:href="#b" transform="matrix(1,0,0,1,1045,564) translate(78.99088541666667 97.94053819444443)"/><path d="M980.5 637c0-.28.22-.5.5-.5h48c.28 0 .5.22.5.5s-.22.5-.5.5h-48c-.28 0-.5-.22-.5-.5z" stroke="#3a414a" fill="none"/><path d="M1400 566c0-3.3 2.7-6 6-6h268c3.3 0 6 2.7 6 6v168c0 3.3-2.7 6-6 6h-268c-3.3 0-6-2.7-6-6z" stroke="#3a414a" fill="#fff"/><use xlink:href="#c" transform="matrix(1,0,0,1,1405,565) translate(60.32118055555556 97.94053819444443)"/><path d="M1335.5 639c0-.28.22-.5.5-.5h48c.28 0 .5.22.5.5s-.22.5-.5.5h-48c-.28 0-.5-.22-.5-.5z" stroke="#3a414a" fill="none"/><path d="M80 466c0-3.3 2.7-6 6-6h868c3.3 0 6 2.7 6 6v317c0 3.3-2.7 6-6 6H86c-3.3 0-6-2.7-6-6z" stroke="#3a414a" fill="#fff"/><use xlink:href="#d" transform="matrix(1,0,0,1,92,472) translate(0 28.878038194444436)"/><path d="M120 605c0-3.3 2.7-6 6-6h88c3.3 0 6 2.7 6 6v128c0 3.3-2.7 6-6 6h-88c-3.3 0-6-2.7-6-6z" stroke="#3a414a" fill="#fff"/><use xlink:href="#e" transform="matrix(1,0,0,1,125,604) translate(26.330295138888896 77.62803819444443)"/><path d="M220 605c0-3.3 2.7-6 6-6h88c3.3 0 6 2.7 6 6v128c0 3.3-2.7 6-6 6h-88c-3.3 0-6-2.7-6-6z" stroke="#3a414a" fill="#fff"/><use xlink:href="#f" transform="matrix(1,0,0,1,225,604) translate(26.330295138888896 77.62803819444443)"/><path d="M370 605c0-3.3 2.7-6 6-6h88c3.3 0 6 2.7 6 6v128c0 3.3-2.7 6-6 6h-88c-3.3 0-6-2.7-6-6z" stroke="#3a414a" fill="#dfe3e8"/><use xlink:href="#g" transform="matrix(1,0,0,1,375,604) translate(-1.6742621527777573 75.77039930555554)"/><path d="M470 605c0-3.3 2.7-6 6-6h88c3.3 0 6 2.7 6 6v128c0 3.3-2.7 6-6 6h-88c-3.3 0-6-2.7-6-6z" stroke="#3a414a" fill="#dfe3e8"/><use xlink:href="#h" transform="matrix(1,0,0,1,475,604) translate(-1.6742621527777573 75.77039930555554)"/><path d="M620 605c0-3.3 2.7-6 6-6h88c3.3 0 6 2.7 6 6v128c0 3.3-2.7 6-6 6h-88c-3.3 0-6-2.7-6-6z" stroke="#3a414a" fill="#d3e3fc"/><use xlink:href="#i" transform="matrix(1,0,0,1,625,604) translate(7.660590277777793 77.62803819444443)"/><path d="M720 605c0-3.3 2.7-6 6-6h88c3.3 0 6 2.7 6 6v128c0 3.3-2.7 6-6 6h-88c-3.3 0-6-2.7-6-6z" stroke="#3a414a" fill="#d3e3fc"/><use xlink:href="#j" transform="matrix(1,0,0,1,725,604) translate(7.660590277777793 77.62803819444443)"/><path d="M820 605c0-3.3 2.7-6 6-6h88c3.3 0 6 2.7 6 6v128c0 3.3-2.7 6-6 6h-88c-3.3 0-6-2.7-6-6z" stroke="#3a414a" fill="#d3e3fc"/><use xlink:href="#k" transform="matrix(1,0,0,1,825,604) translate(7.660590277777793 77.62803819444443)"/><path d="M370.5 570c0-.28.22-.5.5-.5h198c.28 0 .5.22.5.5s-.22.5-.5.5H371c-.28 0-.5-.22-.5-.5z" stroke="#3a414a" fill="none"/><path d="M370.53 570c.27 0 .5.22.5.5v18c0 .28-.23.5-.5.5-.28 0-.5-.22-.5-.5v-18c0-.28.22-.5.5-.5zM569.47 571c.28 0 .5.22.5.5v18c0 .28-.22.5-.5.5-.27 0-.5-.22-.5-.5v-18c0-.28.23-.5.5-.5z" stroke="#3a414a" fill="none"/><path d="M350 516c0-3.3 2.7-6 6-6h228c3.3 0 6 2.7 6 6v48c0 3.3-2.7 6-6 6H356c-3.3 0-6-2.7-6-6z" stroke="#000" stroke-opacity="0" fill="#fff" fill-opacity="0"/><use xlink:href="#l" transform="matrix(1,0,0,1,355,515) translate(49.656032986111114 35.128038194444436)"/><path d="M670.5 570c0-.28.22-.5.5-.5h198c.28 0 .5.22.5.5s-.22.5-.5.5H671c-.28 0-.5-.22-.5-.5z" stroke="#3a414a" fill="none"/><path d="M670.53 570c.27 0 .5.22.5.5v18c0 .28-.23.5-.5.5-.28 0-.5-.22-.5-.5v-18c0-.28.22-.5.5-.5zM869.47 571c.28 0 .5.22.5.5v18c0 .28-.22.5-.5.5-.27 0-.5-.22-.5-.5v-18c0-.28.23-.5.5-.5z" stroke="#3a414a" fill="none"/><path d="M650 516c0-3.3 2.7-6 6-6h228c3.3 0 6 2.7 6 6v48c0 3.3-2.7 6-6 6H656c-3.3 0-6-2.7-6-6z" stroke="#000" stroke-opacity="0" fill="#fff" fill-opacity="0"/><use xlink:href="#l" transform="matrix(1,0,0,1,655,515) translate(49.656032986111114 35.128038194444436)"/><path d="M325.5 670c0-.28.22-.5.5-.5h38c.28 0 .5.22.5.5s-.22.5-.5.5h-38c-.28 0-.5-.22-.5-.5zM575.5 671c0-.28.22-.5.5-.5h38c.28 0 .5.22.5.5s-.22.5-.5.5h-38c-.28 0-.5-.22-.5-.5z" stroke="#3a414a" fill="none"/><defs><filter id="a" filterUnits="objectBoundingBox" x="0" y="-.01" width="1.01" height="1.04"><feOffset result="offOut" in="SourceAlpha" dx="4.24" dy="4.24"/><feGaussianBlur result="blurOut" in="offOut" stdDeviation="5"/><feColorMatrix result="colorOut" in="blurOut" values="0 0 0 0 0 0 0 0 0 0 0 0 0 0 0 0 0 0 0.5019607843137255 0"/><feBlend in="SourceGraphic" in2="colorOut"/></filter><path fill="#3a414a" d="M1137-424C1137-153 941 0 662 0H135v-1462c284 7 685-30 837 88 80 62 124 152 124 282 0 179-125 297-291 316v10c221 36 332 150 332 342zm-232-655c0-182-120-224-319-224H322v461h284c195-2 299-53 299-237zM322-686v528h307c207 0 311-91 311-274 0-169-108-254-324-254H322" id="m"/><path fill="#3a414a" d="M442-897c93-139 173-221 377-221 79 0 159 15 240 45l-49 166c-82-30-157-45-224-45-221 0-340 134-340 360V0H264v-1098h148l22 201h8" id="n"/><path fill="#3a414a" d="M1112-551c0 331-186 571-502 571-301 0-495-251-495-571 0-330 184-567 501-567 302 0 496 249 496 567zM614-131c207 0 310-140 310-420 0-277-104-416-312-416-206 0-309 139-309 416 0 280 104 420 311 420" id="o"/><path fill="#3a414a" d="M383-553l135-152 395-393h222L641-623 1163 0H950L524-504l-129 82V0H215v-1556h180c-3 337 9 689-16 1003h4" id="p"/><path fill="#3a414a" d="M631-1118c283 0 470 204 465 491v113H322c5 250 120 375 344 375 130 0 253-25 370-76v160C925-5 804 20 672 20c-329 0-539-224-539-561 0-331 182-577 498-577zM326-662h573c0-203-91-305-272-305-183 0-284 102-301 305" id="q"/><g id="b"><use transform="matrix(0.015190972222222219,0,0,0.015190972222222219,0,0)" xlink:href="#m"/><use transform="matrix(0.015190972222222219,0,0,0.015190972222222219,18.669704861111107,0)" xlink:href="#n"/><use transform="matrix(0.015190972222222219,0,0,0.015190972222222219,37.339409722222214,0)" xlink:href="#o"/><use transform="matrix(0.015190972222222219,0,0,0.015190972222222219,56.00911458333332,0)" xlink:href="#p"/><use transform="matrix(0.015190972222222219,0,0,0.015190972222222219,74.67881944444443,0)" xlink:href="#q"/><use transform="matrix(0.015190972222222219,0,0,0.015190972222222219,93.34852430555554,0)" xlink:href="#n"/></g><path fill="#3a414a" d="M326-731c0 353 139 584 471 588 87 0 196-19 327-58v162c-97 39-217 59-358 59-433-1-637-301-637-753 0-438 243-750 668-750 147 0 274 29 383 86l-78 156c-103-52-204-78-305-78-307 1-471 259-471 588" id="r"/><path fill="#3a414a" d="M887 0v-707c0-173-79-260-238-260-205 0-307 133-307 398V0H160v-1098h147l27 148h10c69-112 181-168 336-168 259 0 389 134 389 401V0H887" id="s"/><path fill="#3a414a" d="M1026-301c0 225-197 321-448 321-165 0-290-23-375-69v-166c129 57 252 86 370 86 183 0 275-54 275-162 0-38-16-71-49-99s-108-63-226-106c-156-57-253-112-293-160s-61-105-61-171c2-338 524-340 789-217l-60 149c-121-48-228-72-319-72-157 0-236 44-236 133 0 41 17 74 51 98s111 57 232 101c141 51 234 101 280 151s70 111 70 183" id="t"/><path fill="#3a414a" d="M578-131c239 0 309-137 309-397v-570h182V0H922l-27-147h-10C815-36 704 20 551 20c-261 0-391-134-391-401v-717h182v707c0 173 79 260 236 260" id="u"/><path fill="#3a414a" d="M977 0v-707c0-97-9-165-27-203s-47-57-88-57c-58 0-100 28-126 83s-40 148-40 278V0H535v-707c0-173-42-260-125-260-56 0-96 26-120 79s-36 160-36 319V0H92v-1098h127l27 148h10c45-112 112-168 201-168 109 0 180 61 213 182h6c51-121 124-182 219-182 85 0 147 30 186 92s58 165 58 309V0H977" id="v"/><g id="c"><use transform="matrix(0.015190972222222219,0,0,0.015190972222222219,0,0)" xlink:href="#r"/><use transform="matrix(0.015190972222222219,0,0,0.015190972222222219,18.669704861111107,0)" xlink:href="#o"/><use transform="matrix(0.015190972222222219,0,0,0.015190972222222219,37.339409722222214,0)" xlink:href="#s"/><use transform="matrix(0.015190972222222219,0,0,0.015190972222222219,56.00911458333332,0)" xlink:href="#t"/><use transform="matrix(0.015190972222222219,0,0,0.015190972222222219,74.67881944444443,0)" xlink:href="#u"/><use transform="matrix(0.015190972222222219,0,0,0.015190972222222219,93.34852430555554,0)" xlink:href="#v"/><use transform="matrix(0.015190972222222219,0,0,0.015190972222222219,112.01822916666666,0)" xlink:href="#q"/><use transform="matrix(0.015190972222222219,0,0,0.015190972222222219,130.68793402777777,0)" xlink:href="#n"/></g><path fill="#3a414a" d="M1094-1034c0 310-213 470-541 465H362V0H176v-1462h404c343 0 514 143 514 428zM532-727c244-1 369-71 369-297 0-186-113-279-338-279H362v576h170" id="w"/><path fill="#3a414a" d="M137-547c0-322 136-571 430-571 137 0 245 53 322 160h12c-24-215-7-376-12-598h182V0H924l-27-147h-8C814-36 706 20 567 20c-294 0-430-246-430-567zm463 416c241 0 288-157 289-416 0-151-23-259-69-323s-121-97-222-97c-181 0-272 141-272 422 0 276 91 414 274 414" id="x"/><path fill="#3a414a" d="M172-543c0-365 197-575 553-575 119 0 231 20 336 59l-62 158c-100-38-189-57-268-57-247 0-371 138-371 413 0 271 120 406 361 406 105 0 212-21 321-62v160C953 0 843 20 713 20c-347 1-541-210-541-563" id="y"/><g id="d"><use transform="matrix(0.015190972222222219,0,0,0.015190972222222219,0,0)" xlink:href="#w"/><use transform="matrix(0.015190972222222219,0,0,0.015190972222222219,18.669704861111107,0)" xlink:href="#n"/><use transform="matrix(0.015190972222222219,0,0,0.015190972222222219,37.339409722222214,0)" xlink:href="#o"/><use transform="matrix(0.015190972222222219,0,0,0.015190972222222219,56.00911458333332,0)" xlink:href="#x"/><use transform="matrix(0.015190972222222219,0,0,0.015190972222222219,74.67881944444443,0)" xlink:href="#u"/><use transform="matrix(0.015190972222222219,0,0,0.015190972222222219,93.34852430555554,0)" xlink:href="#y"/><use transform="matrix(0.015190972222222219,0,0,0.015190972222222219,112.01822916666666,0)" xlink:href="#q"/><use transform="matrix(0.015190972222222219,0,0,0.015190972222222219,130.68793402777777,0)" xlink:href="#n"/></g><path fill="#3a414a" d="M532 0L254-1280h-8c34 456 12 817 18 1280H113v-1462h247L608-270h6l250-1192h252V0H963c5-467-12-807 14-1278h-8L686 0H532" id="z"/><path fill="#3a414a" d="M1126-328H913V0H737v-328H61v-159l664-983h188v976h213v166zM737-494c1-292-4-481 13-788h-9c-24 68-55 128-90 180L240-494h497" id="A"/><g id="e"><use transform="matrix(0.015190972222222215,0,0,0.015190972222222215,0,0)" xlink:href="#z"/><use transform="matrix(0.015190972222222215,0,0,0.015190972222222215,18.669704861111104,0)" xlink:href="#A"/></g><path fill="#3a414a" d="M1010-1120c0 200-132 322-316 350v6c241 31 361 147 361 348 0 294-219 436-537 436-161 0-290-26-387-79v-170c123 64 250 96 383 96 236 0 354-96 354-289 0-172-127-258-381-258H354v-151h133c195 4 334-97 336-277 1-140-106-221-250-221-119 0-233 40-344 121l-92-125c125-100 270-150 436-150 252 0 437 128 437 363" id="B"/><g id="f"><use transform="matrix(0.015190972222222215,0,0,0.015190972222222215,0,0)" xlink:href="#z"/><use transform="matrix(0.015190972222222215,0,0,0.015190972222222215,18.669704861111104,0)" xlink:href="#B"/></g><path fill="#3a414a" d="M594-1483c248 0 420 149 418 391 0 79-21 160-59 244-73 161-414 504-572 674v8h688V0H158v-156c172-193 489-508 607-698 43-69 62-147 62-231 0-146-91-244-235-244-107 0-213 46-318 137l-102-119c128-115 269-172 422-172" id="C"/><path fill="#3a414a" d="M285-465v-168h659v168H285" id="D"/><g id="g"><use transform="matrix(0.015190972222222215,0,0,0.015190972222222215,0,0)" xlink:href="#z"/><use transform="matrix(0.015190972222222215,0,0,0.015190972222222215,18.669704861111104,0)" xlink:href="#C"/><use transform="matrix(0.015190972222222215,0,0,0.015190972222222215,37.33940972222221,0)" xlink:href="#D"/><use transform="matrix(0.015190972222222215,0,0,0.015190972222222215,56.009114583333314,0)" xlink:href="#r"/><use transform="matrix(0.015190972222222215,0,0,0.015190972222222215,74.67881944444441,0)" xlink:href="#C"/></g><path fill="#3a414a" d="M758 0H582c3-449-8-824 8-1274-61 68-188 168-268 234l-97-123 383-299h150V0" id="E"/><g id="h"><use transform="matrix(0.015190972222222215,0,0,0.015190972222222215,0,0)" xlink:href="#z"/><use transform="matrix(0.015190972222222215,0,0,0.015190972222222215,18.669704861111104,0)" xlink:href="#C"/><use transform="matrix(0.015190972222222215,0,0,0.015190972222222215,37.33940972222221,0)" xlink:href="#D"/><use transform="matrix(0.015190972222222215,0,0,0.015190972222222215,56.009114583333314,0)" xlink:href="#r"/><use transform="matrix(0.015190972222222215,0,0,0.015190972222222215,74.67881944444441,0)" xlink:href="#E"/></g><g id="i"><use transform="matrix(0.015190972222222215,0,0,0.015190972222222215,0,0)" xlink:href="#z"/><use transform="matrix(0.015190972222222215,0,0,0.015190972222222215,18.669704861111104,0)" xlink:href="#E"/><use transform="matrix(0.015190972222222215,0,0,0.015190972222222215,37.33940972222221,0)" xlink:href="#r"/><use transform="matrix(0.015190972222222215,0,0,0.015190972222222215,56.009114583333314,0)" xlink:href="#B"/></g><g id="j"><use transform="matrix(0.015190972222222215,0,0,0.015190972222222215,0,0)" xlink:href="#z"/><use transform="matrix(0.015190972222222215,0,0,0.015190972222222215,18.669704861111104,0)" xlink:href="#E"/><use transform="matrix(0.015190972222222215,0,0,0.015190972222222215,37.33940972222221,0)" xlink:href="#r"/><use transform="matrix(0.015190972222222215,0,0,0.015190972222222215,56.009114583333314,0)" xlink:href="#C"/></g><g id="k"><use transform="matrix(0.015190972222222215,0,0,0.015190972222222215,0,0)" xlink:href="#z"/><use transform="matrix(0.015190972222222215,0,0,0.015190972222222215,18.669704861111104,0)" xlink:href="#E"/><use transform="matrix(0.015190972222222215,0,0,0.015190972222222215,37.33940972222221,0)" xlink:href="#r"/><use transform="matrix(0.015190972222222215,0,0,0.015190972222222215,56.009114583333314,0)" xlink:href="#E"/></g><path fill="#3a414a" d="M596-1118c288 2 430 92 430 366V0H895l-37-152h-8C752-34 680 17 483 20 272 23 135-98 135-307c0-221 170-337 510-348l203-7c15-197-55-305-244-305-98 0-207 27-328 82l-63-137c131-64 258-96 383-96zm-72 991c194 0 325-116 322-311v-99c-251 15-522-6-522 232 0 119 67 178 200 178" id="F"/><path fill="#3a414a" d="M1020-150v138C933 9 849 20 768 20 527 20 406-95 406-324v-637H139v-94l267-49 77-287h105v293h438v137H588v637c0 130 64 195 192 195 62 0 142-7 240-21" id="G"/><path fill="#3a414a" d="M887 0v-707c0-173-79-260-238-260-205 0-307 133-307 398V0H160v-1556h182c-2 202 6 416-8 606h10c69-112 181-168 336-168 259 0 389 134 389 401V0H887" id="H"/><g id="l"><use transform="matrix(0.015190972222222219,0,0,0.015190972222222219,0,0)" xlink:href="#m"/><use transform="matrix(0.015190972222222219,0,0,0.015190972222222219,18.669704861111107,0)" xlink:href="#F"/><use transform="matrix(0.015190972222222219,0,0,0.015190972222222219,37.339409722222214,0)" xlink:href="#G"/><use transform="matrix(0.015190972222222219,0,0,0.015190972222222219,56.00911458333332,0)" xlink:href="#y"/><use transform="matrix(0.015190972222222219,0,0,0.015190972222222219,74.67881944444443,0)" xlink:href="#H"/><use transform="matrix(0.015190972222222219,0,0,0.015190972222222219,93.34852430555554,0)" xlink:href="#q"/><use transform="matrix(0.015190972222222219,0,0,0.015190972222222219,112.01822916666666,0)" xlink:href="#x"/></g></defs></g></svg>