<svg xmlns="http://www.w3.org/2000/svg" xmlns:xlink="http://www.w3.org/1999/xlink" xmlns:lucid="lucid" width="1209.54" height="374.95"><g transform="translate(-62.56434173341904 -83.19027391047223)" lucid:page-tab-id="0_0"><path d="M0 0h6299.2v6299.2H0z" fill="#fff"/><path d="M610.8 168l-3.1.47-34.98 6.68-111.47 28.22-45.12 10.68-35.07 6.7-35.33 5.2-39.35 4.12-47.03 2.93-59 1.18-.03-2 58.94-1.18 46.95-2.92 39.28-4.1 35.25-5.2 34.98-6.7 45.07-10.65 111.5-28.24 35.1-6.7 3.43-.5zm159.8-12.6l-41.44.84-21.14 1.32v-2l21.06-1.32 41.5-.83z" stroke="#224c72" stroke-width=".05" fill="#224c72"/><path d="M200.4 234.18l-1.07.02v-2l1.02-.02z" fill="#224c72"/><path d="M200.4 234.2l-1.1.02v-2.05l1.07-.02zm-1.04-1.98v1.95l1-.02-.04-1.95z" stroke="#224c72" stroke-width=".05" fill="#224c72"/><path d="M785.85 154.1l-14.17 4.93-.18-9.27z" fill="#224c72"/><path d="M789.1 154.04l-18.4 6.38-.23-12.02zm-16.44 3.6l9.96-3.47-10.1-3.05z" stroke="#224c72" stroke-width=".05" fill="#224c72"/><use xlink:href="#a" transform="matrix(1,0,0,1,610.8038265711021,150.0645010821888) translate(0.005000000000002558 16.7080078125)"/><use xlink:href="#b" transform="matrix(1,0,0,1,610.8038265711021,150.0645010821888) translate(54.0137890625 16.7080078125)"/><path d="M770.67 356.54l-.13 2-37.33-2.34v-2zM259.8 285.36l52.02 3.25 48.4 5.1 51.12 7.57 199.37 36.86h-11L411 303.25 360 295.68l-48.33-5.08-51.94-3.24-59.38-1.2.04-2z" stroke="#224c72" stroke-width=".05" fill="#224c72"/><path d="M200.4 284.15l-.05 2-1.02-.02v-2z" fill="#224c72"/><path d="M200.4 284.13l-.03 2.05-1.06-.03v-2.05zm-1.04 1.98l.96.02.04-1.94-1-.03z" stroke="#224c72" stroke-width=".05" fill="#224c72"/><path d="M785.86 358.22l-14.46 4 .4-9.27z" fill="#224c72"/><path d="M789.1 358.36l-18.76 5.18.53-12zm-16.64 2.52l10.16-2.8-9.87-3.7z" stroke="#224c72" stroke-width=".05" fill="#224c72"/><use xlink:href="#c" transform="matrix(1,0,0,1,592.782611920591,338.1278611830643) translate(0.0049999999999954525 16.7080078125)"/><use xlink:href="#b" transform="matrix(1,0,0,1,592.782611920591,338.1278611830643) translate(97.2208203125 16.7080078125)"/><path d="M98.88 204.9h100.45v100.46H98.87V204.9z" stroke="#fff" stroke-opacity="0" fill="#224c72"/><path d="M142.4 269.86h25.46v2.68H142.4v-2.68zM130.35 269.86h6.7v2.68h-6.7v-2.68zM142.4 275.22h16.08v2.68H142.4v-2.68zM130.35 275.22h6.7v2.68h-6.7v-2.68zM116.96 232.35h64.3v2.68h-64.3v-2.68z" stroke="#fff" stroke-opacity="0" fill="#fff"/><path d="M181.25 285.93h-6.7v-2.65h5.63v-56.25H118.3v56.25h42.86v2.65h-44.2c-.74 0-1.34-.6-1.34-1.35v-58.9c0-.75.6-1.36 1.34-1.36h64.22c.74-.06 1.34.5 1.4 1.23V284.57c0 .38-.12.7-.4 1-.26.24-.53.36-.93.36z" stroke="#fff" stroke-opacity="0" fill="#fff"/><path d="M141.36 264.6c-.3 0-.53-.07-.78-.23-.44-.32-.64-.82-.53-1.35l1.34-7.9-5.8-5.64c-.5-.53-.47-1.38.06-1.9.2-.2.45-.3.72-.36l7.96-1.17 3.56-7.22c.22-.45.66-.74 1.2-.74.52 0 .97.25 1.2.73l3.55 7.22 8.04 1.14c.74.1 1.24.76 1.16 1.5-.06.33-.2.56-.42.78l-5.76 5.63 1.34 7.94c.1.53-.1 1.04-.53 1.33-.43.32-.96.35-1.4.1l-7.15-3.74-7.12 3.75c-.22.1-.42.16-.67.13zm-1.92-15.12l4.34 4.22c.3.32.45.72.4 1.17l-1.04 5.97 5.37-2.8c.4-.23.84-.23 1.23 0l5.37 2.77-1-5.93c-.08-.45.03-.88.36-1.2l4.34-4.22-5.98-.85c-.47-.05-.83-.32-1.03-.74l-2.68-5.37-2.67 5.44c-.22.4-.55.66-1.03.72z" stroke="#fff" stroke-opacity="0" fill="#fff"/><use xlink:href="#d" transform="matrix(1,0,0,1,68.87488860841904,314.3551118760539) translate(15.689453125 16.7314453125)"/><path d="M789.1 103.2h101.7v101.7H789.1V103.2z" stroke="#fff" stroke-opacity="0" stroke-width="2" fill="#224c72"/><path d="M832.22 159.6l-5.98-5.83c-.52-.54-.5-1.4.02-1.9.05-.05.08-.1.13-.1l6.64-5.02 1.6 2.13-5.43 4.07 4.87 4.74zM846.56 160.53l-1.6-2.14 5.44-4.08-4.86-4.74 1.86-1.9 5.97 5.82c.53.54.52 1.4-.02 1.9-.04.05-.08.1-.12.12z" stroke="#fff" stroke-opacity="0" stroke-width="2" fill="#fff"/><path d="M834.27 163.7l8.52-19.37 2.42 1.06-8.52 19.36-2.43-1.06z" stroke="#fff" stroke-opacity="0" stroke-width=".8" fill="#fff"/><path d="M854.86 126.94v3.18l-3.4-1.17c.12-.5.16-.96.16-1.5 0-2.56-1.18-4.73-3.32-6.12-3.37-2.2-7.9-1.24-10.1 2.13-2.2 3.4-1.24 7.9 2.15 10.1 3.36 2.2 7.88 1.24 10.1-2.13l5.42 1.8c.14.05.3.08.43.07.3 0 .56-.08.8-.25.36-.26.57-.64.57-1.08v-5.03zm-10.6 5.18c-2.6 0-4.67-2.08-4.67-4.66-.03-2.57 2.05-4.67 4.63-4.67 2.58-.02 4.66 2.06 4.68 4.63v.03c0 2.57-2.07 4.64-4.65 4.66zM829.77 128.8c-.05-.45-.27-.8-.65-1.04l-4.4-2.52-1.35 2.3 2.8 1.6-2.55 2.2c-.32-.26-.6-.45-.96-.66-1.73-1.03-3.6-1.28-5.55-.73-3.25.86-5.42 3.7-5.42 7.06 0 4.04 3.28 7.32 7.3 7.32.68 0 1.26-.08 1.93-.25 3.9-1.05 6.22-5.05 5.17-8.97-.17-.64-.38-1.18-.73-1.75l3.96-3.44c.33-.27.5-.65.48-1.1zM823 139.3c-.6 1.1-1.5 1.83-2.72 2.2-1.25.32-2.4.15-3.53-.5-1.12-.63-1.85-1.56-2.17-2.8-.67-2.5.8-5.04 3.27-5.7h.02c.42-.13.78-.16 1.2-.16 2.17-.02 3.96 1.37 4.5 3.45.33 1.25.18 2.4-.47 3.52zM821.1 159.94c-1.03-1.75-2.5-2.9-4.46-3.42-.65-.17-1.22-.23-1.9-.23l-1-5.18c-.08-.44-.34-.75-.74-.94-.4-.18-.84-.16-1.22.07l-4.38 2.54 1.35 2.28 2.7-1.6.7 3.3c-.38.14-.7.28-1.04.5-3.5 2-4.7 6.47-2.7 9.95 1 1.77 2.5 2.92 4.44 3.44.66.17 1.23.23 1.9.23 1.34 0 2.5-.3 3.65-.98 3.5-2.02 4.7-6.5 2.7-9.98zm-1.85 4.85c-.64 2.47-3.17 3.95-5.65 3.3h-.1c-1.2-.37-2.1-1.1-2.7-2.18-.66-1.1-.82-2.3-.48-3.54.57-2.05 2.34-3.42 4.5-3.44.4 0 .78.04 1.2.14 1.24.34 2.2 1.07 2.82 2.2.63 1.12.76 2.28.4 3.5zM835.62 173.3c-2.56 0-4.75 1.2-6.13 3.36l-5.43-1.82c-.16-.06-.3-.08-.45-.08-.74 0-1.36.6-1.36 1.35v5.1h2.72v-3.23l3.44 1.17c-.12.5-.16.96-.16 1.5 0 4.03 3.27 7.3 7.3 7.3 4.03 0 7.3-3.27 7.3-7.3 0-4.03-3.27-7.3-7.3-7.3zm0 11.97c-2.58 0-4.66-2.08-4.66-4.64 0-2.58 2.08-4.65 4.66-4.65 2.57 0 4.65 2.07 4.65 4.65-.02 2.56-2.08 4.64-4.65 4.64zM864.46 164.76c-1.75-1.03-3.63-1.28-5.58-.75-3.9 1.1-6.2 5.08-5.14 8.97.18.65.4 1.18.74 1.78l-3.97 3.42c-.32.3-.48.7-.45 1.13.04.44.28.8.65 1.03l4.42 2.54 1.35-2.3-2.78-1.6 2.54-2.22c.3.25.6.44.94.65 1.73 1.04 3.6 1.28 5.55.75 1.95-.52 3.43-1.66 4.43-3.4v-.02c2-3.5.8-7.96-2.7-9.97zm.36 8.63c-.83 1.52-2.33 2.38-4.06 2.32-.84-.02-1.56-.23-2.28-.65-2.23-1.28-3-4.13-1.72-6.35 0-.02 0-.02.02-.02 1.25-2.24 4.07-3.04 6.33-1.8 2.25 1.25 3.04 4.1 1.8 6.33-.02.04-.04.08-.08.12zM871.15 153l-2.77 1.6-.64-3.3c.38-.13.7-.28 1.04-.48 3.5-2 4.7-6.47 2.7-9.97-2-3.5-6.47-4.73-9.97-2.73-3.5 2.02-4.7 6.47-2.7 10 1 1.74 2.47 2.86 4.42 3.38.66.17 1.23.25 1.9.25l1 5.16c.1.45.36.76.75.95.2.1.36.13.56.13.25 0 .46-.04.66-.17l4.4-2.53zm-7.24-4.08c-2.47-.64-3.95-3.18-3.3-5.68.66-2.48 3.2-3.95 5.7-3.3 1.25.33 2.22 1.07 2.85 2.22 1.3 2.2.52 5.06-1.7 6.35-1.1.65-2.3.82-3.54.5z" stroke="#fff" stroke-opacity="0" stroke-width="2" fill="#fff"/><use xlink:href="#e" transform="matrix(1,0,0,1,759.0893181463366,213.89677854342756) translate(32.39208984375 16.7314453125)"/><path d="M789.1 306.6h103.5v103.52H789.1V306.6z" stroke="#fff" stroke-opacity="0" stroke-width="2" fill="#224c72"/><path d="M836.72 344.5c-3.36-.07-6.12 2.25-6.8 5.48-.73 3.76 1.65 7.4 5.42 8.15v9.1c-.04 1.38-.93 2.62-2.27 3.03l-12.5 4.93c-2 .74-3.42 2.18-4.17 4.24-.56-.34-1.12-.55-1.75-.62v-10.76c2.76-.54 4.8-2.6 5.37-5.4.78-3.7-1.64-7.4-5.37-8.16v-16.93c2.76-.54 4.8-2.6 5.37-5.34.74-3.77-1.64-7.4-5.37-8.15-3.76-.76-7.38 1.64-8.16 5.4-.76 3.7 1.63 7.34 5.4 8.1v16.92c-2.8.6-4.86 2.6-5.4 5.4-.76 3.78 1.63 7.4 5.4 8.16v10.76c-1.05.2-1.9.55-2.77 1.17-3.05 2.3-3.7 6.63-1.4 9.65 2.26 3.08 6.55 3.7 9.64 1.44 3.06-2.28 3.7-6.6 1.42-9.68.06-1.7 1.14-3.08 2.75-3.63l12.52-4.94c2.42-.9 4-3.08 4.03-5.62v-9.1c3.24-.7 5.5-3.44 5.5-6.8 0-3.76-3.08-6.9-6.88-6.85zm-27.63-13.64c0-2.26 1.86-4.18 4.13-4.18 2.3 0 4.14 1.92 4.14 4.18s-1.83 4.1-4.14 4.1c-2.27 0-4.13-1.84-4.13-4.1zm0 30.35c0-2.25 1.86-4.1 4.13-4.1 2.3 0 4.14 1.85 4.14 4.1 0 2.27-1.83 4.2-4.14 4.2-2.23 0-4.1-1.86-4.13-4.12zm4.13 28.45c-2.27 0-4.13-1.85-4.13-4.18 0-2.26 1.86-4.1 4.13-4.1 2.3 0 4.14 1.84 4.14 4.1.04 2.33-1.8 4.18-4.06 4.24h-.07zm23.5-34.2c-2.32 0-4.15-1.84-4.15-4.17 0-2.26 1.83-4.1 4.14-4.1 2.27 0 4.14 1.84 4.14 4.1.03 2.33-1.8 4.18-4.07 4.25h-.08z" stroke="#fff" stroke-opacity="0" stroke-width="2" fill="#fff"/><path d="M874 392.77h-37.3c-.77 0-1.37-.6-1.37-1.38v-15.2h2.76V390h34.5v-49.68h-34.5v-2.76H874c.75 0 1.35.6 1.35 1.38v52.45c0 .76-.6 1.37-1.36 1.37z" stroke="#fff" stroke-opacity="0" stroke-width="2" fill="#fff"/><path d="M848.88 371.34l-5.54-5.4c-.3-.28-.45-.64-.43-1.07.05-.4.23-.75.57-1l6.2-4.64 1.65 2.2-4.9 3.68 4.38 4.27zM862.4 372.22l-1.66-2.2 4.9-3.7-4.38-4.24 1.92-2 5.52 5.4c.54.54.56 1.4.02 1.96l-.15.14z" stroke="#fff" stroke-opacity="0" stroke-width="2" fill="#fff"/><path d="M850.76 375l7.9-18 2.52 1.12-7.9 17.97-2.52-1.12z" stroke="#fff" stroke-opacity="0" stroke-width=".8" fill="#fff"/><path d="M832.17 342.1l-.98.98-1 .98-5.92-5.9v4.92h-2.76v-8.28c0-.76.62-1.38 1.4-1.38h8.27v2.76h-4.95z" stroke="#fff" stroke-opacity="0" stroke-width="2" fill="#fff"/><use xlink:href="#f" transform="matrix(1,0,0,1,759.0893181463366,419.11962192286103) translate(33.39208984375 16.7314453125)"/><path d="M1148.6 204.9h103.5v103.5h-103.5V204.9z" stroke="#fff" stroke-opacity="0" stroke-width="2" fill="#224c72"/><path d="M1210 249.62c1.16.62 2.06 1.45 2.75 2.62V232.1c0-6.43-12.15-9.95-23.47-9.95-11.4 0-23.48 3.52-23.48 9.94v49.12c0 6.42 12.08 9.94 23.48 9.94 11.32 0 23.47-3.52 23.47-9.94v-6.62H1210v6.62c0 3.4-8.57 7.18-20.72 7.18-12.23 0-20.72-3.8-20.72-7.18v-10.28c4.14 3.38 12.64 5.18 20.72 5.18 2.48 0 4.55-.14 7.04-.5-.62-.8-1.04-1.57-1.24-2.6-2.08.2-3.8.34-5.8.34-12.16 0-20.72-3.8-20.72-7.25h.07v-12c4.14 3.38 12.63 5.1 20.64 5.1 4.42.08 8.08-.34 12.3-1.37-.35-.83-.5-1.6-.5-2.5v-.2c-4.06 1.04-7.58 1.46-11.8 1.4-12.15 0-20.64-3.8-20.64-7.2v-12.27c4.2 3.3 12.63 5.1 20.64 5.1 8.08 0 16.5-1.8 20.72-5.1V249.62zm-20.72-10.3c-12.23 0-20.72-3.78-20.72-7.23 0-3.4 8.5-7.2 20.72-7.2 12.15 0 20.7 3.8 20.7 7.2 0 3.44-8.48 7.23-20.7 7.23zm42.12 35.28c-1.94 0-3.46 1.52-3.46 3.45 0 .28 0 .48.07.76l-4.54 2.84c-.76-.76-1.6-1.18-2.63-1.38l-.27-6.14c1.45-.35 2.55-1.04 3.6-2.14 2.6-2.97 2.33-7.46-.57-10.08l4.28-7.3c.48.12.9.2 1.38.2 2.7 0 4.83-2.15 4.83-4.84 0-2.62-2.15-4.83-4.84-4.83-2.63 0-4.84 2.2-4.84 4.83 0 1.17.42 2.2 1.18 3.1l-4.42 7.4c-.76-.28-1.52-.35-2.35-.35-1.45 0-2.63.35-3.87 1.18l-4.5-4.62c.15-.5.22-.9.22-1.4v.02c0-1.94-1.52-3.46-3.45-3.46-1.87 0-3.45 1.52-3.45 3.46 0 1.93 1.58 3.45 3.45 3.45.48 0 .83-.07 1.24-.2l4.5 4.6c-.84 1.25-1.25 2.57-1.25 4.08l-5.4 1.2c-.9-1.32-2.27-2.08-3.92-2.08-2.63.07-4.77 2.2-4.77 4.9 0 2.62 2.14 4.76 4.83 4.76 2.63 0 4.77-2.14 4.77-4.83V271l5.04-1.02c1.04 2.34 2.97 3.86 5.52 4.27l.27 6.08c-2.35.76-3.94 2.83-3.94 5.3 0 3.05 2.5 5.53 5.53 5.53 3.04 0 5.52-2.48 5.52-5.52 0-.62-.07-1.1-.27-1.65l4.77-2.98c.55.34 1.1.48 1.73.48 1.93 0 3.45-1.52 3.45-3.45 0-1.93-1.52-3.45-3.45-3.45zm-2.08-26.64c1.18 0 2.08.9 2.08 2.07 0 1.1-.9 2.07-2.08 2.07-1.17 0-2.07-.97-2.07-2.07 0-1.17.9-2.07 2.08-2.07zm-22.1 8c-.34 0-.68-.27-.68-.7 0-.4.34-.67.7-.67.4 0 .68.26.68.68 0 .4-.28.7-.7.7zm-4.83 17.26c-1.1 0-2.08-.9-2.08-2.07s.97-2.07 2.08-2.07c1.17 0 2.07.9 2.07 2.07s-.9 2.07-2.08 2.07zm12.08-6c0-2.42 1.93-4.42 4.35-4.42s4.42 2 4.42 4.4c0 2.43-2 4.36-4.42 4.36s-4.35-1.93-4.35-4.35zm5.18 21.18c-1.52 0-2.76-1.24-2.76-2.76 0-1.52 1.24-2.76 2.76-2.76 1.52 0 2.76 1.24 2.76 2.76 0 1.52-1.24 2.76-2.76 2.76zm11.74-9.66c-.35 0-.7-.28-.7-.7 0-.4.35-.68.7-.68.4 0 .7.28.7.7 0 .4-.3.68-.7.68z" stroke="#fff" stroke-opacity="0" stroke-width="2" fill="#fff"/><use xlink:href="#g" transform="matrix(1,0,0,1,1118.5859861867689,317.4131172899057) translate(44.19384765625 16.7314453125)"/><path d="M1050.54 214.74l7.9 4.14 7.24 3.4 6.94 2.92 6.86 2.56 6.95 2.25 7.16 2 7.48 1.77 7.94 1.5 8.54 1.27 9.3.97 3.3.22-.12 2-3.36-.2-9.37-1-8.6-1.27-8.04-1.53-7.57-1.77-7.25-2.02-7.02-2.28-6.95-2.6-7.02-2.94-7.3-3.43-8.02-4.2-12.78-8.06h3.75zm-148.18-61.46l10.34.65 9.38.98 8.6 1.28 8.04 1.53 7.57 1.8 7.23 2 7.03 2.3 6.94 2.57.32.14h-5.7l-2.22-.82-6.95-2.26-7.16-2-7.5-1.75-7.94-1.52-8.53-1.25-9.3-.98-10.25-.64-10.5-.22.04-2z" stroke="#224c72" stroke-width=".05" fill="#224c72"/><path d="M891.85 153.06l-.05 2-1-.02v-2z" fill="#224c72"/><path d="M891.87 153.04l-.04 2.05-1.06-.03v-2.05zm-1.05 1.98l.96.02.04-1.95-1-.03z" stroke="#224c72" stroke-width=".05" fill="#224c72"/><path d="M1145.35 239.28l-14.42 4.1.33-9.26z" fill="#224c72"/><path d="M1148.6 239.4l-18.72 5.33.43-12.02zm-16.62 2.65l10.14-2.9-9.9-3.6z" stroke="#224c72" stroke-width=".05" fill="#224c72"/><use xlink:href="#h" transform="matrix(1,0,0,1,935.1988345595381,166.50809613085917) translate(27.009394531249995 16.7080078125)"/><use xlink:href="#i" transform="matrix(1,0,0,1,935.1988345595381,166.50809613085917) translate(81.01818359375 16.7080078125)"/><use xlink:href="#j" transform="matrix(1,0,0,1,935.1988345595381,166.50809613085917) translate(0.0049999999999954525 37.6611328125)"/><use xlink:href="#k" transform="matrix(1,0,0,1,935.1988345595381,166.50809613085917) translate(32.410273437499995 37.6611328125)"/><use xlink:href="#b" transform="matrix(1,0,0,1,935.1988345595381,166.50809613085917) translate(97.2208203125 37.6611328125)"/><path d="M999.08 333.23l-9.67 5.06-8.15 3.84-7.57 3.2-7.37 2.73-7.38 2.4-7.58 2.12-7.92 1.84-8.4 1.6-9.07 1.34-9.9 1.04-4.9.3-.12-2 4.84-.3 9.83-1.03 8.98-1.33 8.33-1.58 7.84-1.85 7.5-2.1 7.3-2.37 7.3-2.7 7.5-3.17 8.08-3.8 9.58-5 16.47-9.76h3.92zm148.52-51.75l-11.35.23-10.93.7-9.83 1.03-9 1.32-8.3 1.6-7.85 1.82-7.5 2.1-7.3 2.37-7.3 2.72-7.5 3.15-4.84 2.3h-4.62l.5-.27 8.16-3.85 7.58-3.2 7.36-2.73 7.4-2.4 7.57-2.1 7.92-1.87 8.4-1.6 9.07-1.34 9.9-1.04 11.02-.68 11.4-.24z" stroke="#224c72" stroke-width=".05" fill="#224c72"/><path d="M1148.6 281.46l-1.02.02-.04-2 1.05-.02z" fill="#224c72"/><path d="M1148.6 281.5h-1.05l-.04-2.04 1.1-.02zm-1.04-2l.04 1.96.96-.02v-1.95z" stroke="#224c72" stroke-width=".05" fill="#224c72"/><path d="M910.26 362.4l-14.42-4.15 14.1-5.12z" fill="#224c72"/><path d="M911.3 363.73l-18.7-5.37 18.3-6.64zm-12.23-5.6l10.14 2.92-.2-6.5z" stroke="#224c72" stroke-width=".05" fill="#224c72"/><g><use xlink:href="#l" transform="matrix(1,0,0,1,974.9573268497409,300.78834888997187) translate(0.005000000000002558 16.7080078125)"/><use xlink:href="#b" transform="matrix(1,0,0,1,974.9573268497409,300.78834888997187) translate(75.6173046875 16.7080078125)"/></g><path d="M252.95 151.13a6 6 0 0 1 6-6h276.23a6 6 0 0 1 6 6v211.05a6 6 0 0 1-6 6H258.95a6 6 0 0 1-6-6z" stroke="#000" stroke-opacity="0" stroke-width="3" fill="#6db1ff"/><g><use xlink:href="#m" transform="matrix(1,0,0,1,257.9505922297595,150.12958522522274) translate(18.28027343750003 114.45844184027777)"/><use xlink:href="#n" transform="matrix(1,0,0,1,257.9505922297595,150.12958522522274) translate(112.56228298611111 114.45844184027777)"/><use xlink:href="#o" transform="matrix(1,0,0,1,257.9505922297595,150.12958522522274) translate(206.8442925347222 114.45844184027777)"/></g><defs><path fill="#1d262b" d="M1087-391c0 281-226 411-532 411-177 0-315-23-414-69v-178c141 57 279 86 414 86 233 0 350-80 350-240 0-69-24-123-71-160s-142-82-285-133c-139-49-239-106-299-174s-90-156-90-264c2-252 211-371 481-371 153 0 291 26 416 78l-64 164c-129-52-249-78-360-78-195 0-293 70-293 209 0 68 22 123 66 164s134 85 270 133c164 58 273 119 328 181s83 143 83 241" id="p"/><path fill="#1d262b" d="M631-1118c283 0 470 204 465 491v113H322c5 250 120 375 344 375 130 0 253-25 370-76v160C925-5 804 20 672 20c-329 0-539-224-539-561 0-331 182-577 498-577zM326-662h573c0-203-91-305-272-305-183 0-284 102-301 305" id="q"/><path fill="#1d262b" d="M887 0v-707c0-173-79-260-238-260-205 0-307 133-307 398V0H160v-1098h147l27 148h10c69-112 181-168 336-168 259 0 389 134 389 401V0H887" id="r"/><path fill="#1d262b" d="M137-547c0-322 136-571 430-571 137 0 245 53 322 160h12c-24-215-7-376-12-598h182V0H924l-27-147h-8C814-36 706 20 567 20c-294 0-430-246-430-567zm463 416c241 0 288-157 289-416 0-151-23-259-69-323s-121-97-222-97c-181 0-272 141-272 422 0 276 91 414 274 414" id="s"/><g id="a"><use transform="matrix(0.0087890625,0,0,0.0087890625,0,0)" xlink:href="#p"/><use transform="matrix(0.0087890625,0,0,0.0087890625,10.8017578125,0)" xlink:href="#q"/><use transform="matrix(0.0087890625,0,0,0.0087890625,21.603515625,0)" xlink:href="#r"/><use transform="matrix(0.0087890625,0,0,0.0087890625,32.4052734375,0)" xlink:href="#s"/></g><path fill="#1d262b" d="M977 0v-707c0-97-9-165-27-203s-47-57-88-57c-58 0-100 28-126 83s-40 148-40 278V0H535v-707c0-173-42-260-125-260-56 0-96 26-120 79s-36 160-36 319V0H92v-1098h127l27 148h10c45-112 112-168 201-168 109 0 180 61 213 182h6c51-121 124-182 219-182 85 0 147 30 186 92s58 165 58 309V0H977" id="t"/><path fill="#1d262b" d="M1026-301c0 225-197 321-448 321-165 0-290-23-375-69v-166c129 57 252 86 370 86 183 0 275-54 275-162 0-38-16-71-49-99s-108-63-226-106c-156-57-253-112-293-160s-61-105-61-171c2-338 524-340 789-217l-60 149c-121-48-228-72-319-72-157 0-236 44-236 133 0 41 17 74 51 98s111 57 232 101c141 51 234 101 280 151s70 111 70 183" id="u"/><path fill="#1d262b" d="M188-739c-1-248 156-381 410-379 57 0 107 7 150 20h378v113l-196 27c43 57 65 128 65 213 2 253-212 385-489 346-67 37-100 82-100 133 0 56 54 84 161 84h187c216-2 358 93 358 297 0 251-188 377-565 377-145 0-255-26-331-80S102 283 102 186c0-141 80-231 240-270-64-31-96-83-96-154 0-75 44-139 133-192-109-41-191-166-191-309zm406 221c149 0 223-77 223-230 0-159-75-239-225-239s-225 81-225 242c0 151 76 227 227 227zm346 649c0-146-78-149-248-149H504c-153 0-230 66-230 198 0 116 90 174 271 174 263 0 395-74 395-223" id="v"/><g id="b"><use transform="matrix(0.0087890625,0,0,0.0087890625,0,0)" xlink:href="#t"/><use transform="matrix(0.0087890625,0,0,0.0087890625,10.8017578125,0)" xlink:href="#u"/><use transform="matrix(0.0087890625,0,0,0.0087890625,21.603515625,0)" xlink:href="#v"/><use transform="matrix(0.0087890625,0,0,0.0087890625,32.4052734375,0)" xlink:href="#u"/></g><path fill="#1d262b" d="M373-604V0H186v-1462h357c347 0 520 138 520 415 0 191-96 322-289 392L1171 0H952L602-604H373zm497-434c0-207-118-263-338-265H373v541h164c215-1 333-70 333-276" id="w"/><path fill="#1d262b" d="M172-543c0-365 197-575 553-575 119 0 231 20 336 59l-62 158c-100-38-189-57-268-57-247 0-371 138-371 413 0 271 120 406 361 406 105 0 212-21 321-62v160C953 0 843 20 713 20c-347 1-541-210-541-563" id="x"/><path fill="#1d262b" d="M739-1436c0 71-43 115-106 115-71 0-107-38-107-115 0-76 36-114 107-114s106 38 106 114zM541-954l-269-21v-123h451v955l352 20V0H197v-123l344-20v-811" id="y"/><path fill="#1d262b" d="M498 0L82-1098h188l240 652c57 154 90 262 100 325h6c67-256 244-708 340-977h189L729 0H498" id="z"/><g id="c"><use transform="matrix(0.0087890625,0,0,0.0087890625,0,0)" xlink:href="#w"/><use transform="matrix(0.0087890625,0,0,0.0087890625,10.8017578125,0)" xlink:href="#q"/><use transform="matrix(0.0087890625,0,0,0.0087890625,21.603515625,0)" xlink:href="#x"/><use transform="matrix(0.0087890625,0,0,0.0087890625,32.4052734375,0)" xlink:href="#q"/><use transform="matrix(0.0087890625,0,0,0.0087890625,43.20703125,0)" xlink:href="#y"/><use transform="matrix(0.0087890625,0,0,0.0087890625,54.0087890625,0)" xlink:href="#z"/><use transform="matrix(0.0087890625,0,0,0.0087890625,64.810546875,0)" xlink:href="#q"/></g><path fill="#1d262b" d="M1004 0L860-453H369L223 0H33l483-1468h195L1196 0h-192zM807-618c-63-210-144-435-195-650-51 232-127 431-190 650h385" id="A"/><path fill="#1d262b" d="M1092-551c0 322-136 571-430 571-138 0-245-53-322-159h-12c24 220 7 402 12 631H158v-1590h147l27 148h8c73-112 181-168 322-168 294 0 430 246 430 567zM629-967c-241 0-288 156-289 416 0 151 24 259 70 323s120 97 221 97c181 0 272-141 272-422 0-276-91-414-274-414" id="B"/><path fill="#1d262b" d="M532-1413l-268-21v-122h451v1413l352 20V0H188v-123l344-20v-1270" id="C"/><path fill="#1d262b" d="M596-1118c288 2 430 92 430 366V0H895l-37-152h-8C752-34 680 17 483 20 272 23 135-98 135-307c0-221 170-337 510-348l203-7c15-197-55-305-244-305-98 0-207 27-328 82l-63-137c131-64 258-96 383-96zm-72 991c194 0 325-116 322-311v-99c-251 15-522-6-522 232 0 119 67 178 200 178" id="D"/><path fill="#1d262b" d="M1020-150v138C933 9 849 20 768 20 527 20 406-95 406-324v-637H139v-94l267-49 77-287h105v293h438v137H588v637c0 130 64 195 192 195 62 0 142-7 240-21" id="E"/><path fill="#1d262b" d="M1112-551c0 331-186 571-502 571-301 0-495-251-495-571 0-330 184-567 501-567 302 0 496 249 496 567zM614-131c207 0 310-140 310-420 0-277-104-416-312-416-206 0-309 139-309 416 0 280 104 420 311 420" id="F"/><g id="d"><use transform="matrix(0.0087890625,0,0,0.0087890625,0,0)" xlink:href="#A"/><use transform="matrix(0.0087890625,0,0,0.0087890625,10.8017578125,0)" xlink:href="#B"/><use transform="matrix(0.0087890625,0,0,0.0087890625,21.603515625,0)" xlink:href="#B"/><use transform="matrix(0.0087890625,0,0,0.0087890625,32.4052734375,0)" xlink:href="#C"/><use transform="matrix(0.0087890625,0,0,0.0087890625,43.20703125,0)" xlink:href="#y"/><use transform="matrix(0.0087890625,0,0,0.0087890625,54.0087890625,0)" xlink:href="#x"/><use transform="matrix(0.0087890625,0,0,0.0087890625,64.810546875,0)" xlink:href="#D"/><use transform="matrix(0.0087890625,0,0,0.0087890625,75.6123046875,0)" xlink:href="#E"/><use transform="matrix(0.0087890625,0,0,0.0087890625,86.4140625,0)" xlink:href="#y"/><use transform="matrix(0.0087890625,0,0,0.0087890625,97.2158203125,0)" xlink:href="#F"/><use transform="matrix(0.0087890625,0,0,0.0087890625,108.017578125,0)" xlink:href="#r"/><use transform="matrix(0.0087890625,0,0,0.0087890625,118.8193359375,0)" xlink:href="#u"/></g><path fill="#1d262b" d="M1094-1034c0 310-213 470-541 465H362V0H176v-1462h404c343 0 514 143 514 428zM532-727c244-1 369-71 369-297 0-186-113-279-338-279H362v576h170" id="G"/><path fill="#1d262b" d="M442-897c93-139 173-221 377-221 79 0 159 15 240 45l-49 166c-82-30-157-45-224-45-221 0-340 134-340 360V0H264v-1098h148l22 201h8" id="H"/><path fill="#1d262b" d="M578-131c239 0 309-137 309-397v-570h182V0H922l-27-147h-10C815-36 704 20 551 20c-261 0-391-134-391-401v-717h182v707c0 173 79 260 236 260" id="I"/><g id="e"><use transform="matrix(0.0087890625,0,0,0.0087890625,0,0)" xlink:href="#G"/><use transform="matrix(0.0087890625,0,0,0.0087890625,10.8017578125,0)" xlink:href="#H"/><use transform="matrix(0.0087890625,0,0,0.0087890625,21.603515625,0)" xlink:href="#F"/><use transform="matrix(0.0087890625,0,0,0.0087890625,32.4052734375,0)" xlink:href="#s"/><use transform="matrix(0.0087890625,0,0,0.0087890625,43.20703125,0)" xlink:href="#I"/><use transform="matrix(0.0087890625,0,0,0.0087890625,54.0087890625,0)" xlink:href="#x"/><use transform="matrix(0.0087890625,0,0,0.0087890625,64.810546875,0)" xlink:href="#q"/><use transform="matrix(0.0087890625,0,0,0.0087890625,75.6123046875,0)" xlink:href="#H"/><use transform="matrix(0.0087890625,0,0,0.0087890625,86.4140625,0)" xlink:href="#u"/></g><path fill="#1d262b" d="M326-731c0 353 139 584 471 588 87 0 196-19 327-58v162c-97 39-217 59-358 59-433-1-637-301-637-753 0-438 243-750 668-750 147 0 274 29 383 86l-78 156c-103-52-204-78-305-78-307 1-471 259-471 588" id="J"/><g id="f"><use transform="matrix(0.0087890625,0,0,0.0087890625,0,0)" xlink:href="#J"/><use transform="matrix(0.0087890625,0,0,0.0087890625,10.8017578125,0)" xlink:href="#F"/><use transform="matrix(0.0087890625,0,0,0.0087890625,21.603515625,0)" xlink:href="#r"/><use transform="matrix(0.0087890625,0,0,0.0087890625,32.4052734375,0)" xlink:href="#u"/><use transform="matrix(0.0087890625,0,0,0.0087890625,43.20703125,0)" xlink:href="#I"/><use transform="matrix(0.0087890625,0,0,0.0087890625,54.0087890625,0)" xlink:href="#t"/><use transform="matrix(0.0087890625,0,0,0.0087890625,64.810546875,0)" xlink:href="#q"/><use transform="matrix(0.0087890625,0,0,0.0087890625,75.6123046875,0)" xlink:href="#H"/><use transform="matrix(0.0087890625,0,0,0.0087890625,86.4140625,0)" xlink:href="#u"/></g><path fill="#1d262b" d="M1137-424C1137-153 941 0 662 0H135v-1462c284 7 685-30 837 88 80 62 124 152 124 282 0 179-125 297-291 316v10c221 36 332 150 332 342zm-232-655c0-182-120-224-319-224H322v461h284c195-2 299-53 299-237zM322-686v528h307c207 0 311-91 311-274 0-169-108-254-324-254H322" id="K"/><path fill="#1d262b" d="M383-553l135-152 395-393h222L641-623 1163 0H950L524-504l-129 82V0H215v-1556h180c-3 337 9 689-16 1003h4" id="L"/><g id="g"><use transform="matrix(0.0087890625,0,0,0.0087890625,0,0)" xlink:href="#K"/><use transform="matrix(0.0087890625,0,0,0.0087890625,10.8017578125,0)" xlink:href="#H"/><use transform="matrix(0.0087890625,0,0,0.0087890625,21.603515625,0)" xlink:href="#F"/><use transform="matrix(0.0087890625,0,0,0.0087890625,32.4052734375,0)" xlink:href="#L"/><use transform="matrix(0.0087890625,0,0,0.0087890625,43.20703125,0)" xlink:href="#q"/><use transform="matrix(0.0087890625,0,0,0.0087890625,54.0087890625,0)" xlink:href="#H"/><use transform="matrix(0.0087890625,0,0,0.0087890625,64.810546875,0)" xlink:href="#u"/></g><path fill="#1d262b" d="M887 0v-707c0-173-79-260-238-260-205 0-307 133-307 398V0H160v-1556h182c-2 202 6 416-8 606h10c69-112 181-168 336-168 259 0 389 134 389 401V0H887" id="M"/><g id="h"><use transform="matrix(0.0087890625,0,0,0.0087890625,0,0)" xlink:href="#G"/><use transform="matrix(0.0087890625,0,0,0.0087890625,10.8017578125,0)" xlink:href="#I"/><use transform="matrix(0.0087890625,0,0,0.0087890625,21.603515625,0)" xlink:href="#u"/><use transform="matrix(0.0087890625,0,0,0.0087890625,32.4052734375,0)" xlink:href="#M"/></g><g id="i"><use transform="matrix(0.0087890625,0,0,0.0087890625,0,0)" xlink:href="#D"/><use transform="matrix(0.0087890625,0,0,0.0087890625,10.8017578125,0)" xlink:href="#r"/><use transform="matrix(0.0087890625,0,0,0.0087890625,21.603515625,0)" xlink:href="#s"/></g><g id="k"><use transform="matrix(0.0087890625,0,0,0.0087890625,0,0)" xlink:href="#H"/><use transform="matrix(0.0087890625,0,0,0.0087890625,10.8017578125,0)" xlink:href="#F"/><use transform="matrix(0.0087890625,0,0,0.0087890625,21.603515625,0)" xlink:href="#I"/><use transform="matrix(0.0087890625,0,0,0.0087890625,32.4052734375,0)" xlink:href="#E"/><use transform="matrix(0.0087890625,0,0,0.0087890625,43.20703125,0)" xlink:href="#q"/></g><g id="l"><use transform="matrix(0.0087890625,0,0,0.0087890625,0,0)" xlink:href="#w"/><use transform="matrix(0.0087890625,0,0,0.0087890625,10.8017578125,0)" xlink:href="#q"/><use transform="matrix(0.0087890625,0,0,0.0087890625,21.603515625,0)" xlink:href="#E"/><use transform="matrix(0.0087890625,0,0,0.0087890625,32.4052734375,0)" xlink:href="#I"/><use transform="matrix(0.0087890625,0,0,0.0087890625,43.20703125,0)" xlink:href="#H"/><use transform="matrix(0.0087890625,0,0,0.0087890625,54.0087890625,0)" xlink:href="#r"/></g><path fill="#fff" d="M1094-1034c0 310-213 470-541 465H362V0H176v-1462h404c343 0 514 143 514 428zM532-727c244-1 369-71 369-297 0-186-113-279-338-279H362v576h170" id="N"/><path fill="#fff" d="M578-131c239 0 309-137 309-397v-570h182V0H922l-27-147h-10C815-36 704 20 551 20c-261 0-391-134-391-401v-717h182v707c0 173 79 260 236 260" id="O"/><path fill="#fff" d="M532-1413l-268-21v-122h451v1413l352 20V0H188v-123l344-20v-1270" id="P"/><path fill="#fff" d="M1026-301c0 225-197 321-448 321-165 0-290-23-375-69v-166c129 57 252 86 370 86 183 0 275-54 275-162 0-38-16-71-49-99s-108-63-226-106c-156-57-253-112-293-160s-61-105-61-171c2-338 524-340 789-217l-60 149c-121-48-228-72-319-72-157 0-236 44-236 133 0 41 17 74 51 98s111 57 232 101c141 51 234 101 280 151s70 111 70 183" id="Q"/><path fill="#fff" d="M596-1118c288 2 430 92 430 366V0H895l-37-152h-8C752-34 680 17 483 20 272 23 135-98 135-307c0-221 170-337 510-348l203-7c15-197-55-305-244-305-98 0-207 27-328 82l-63-137c131-64 258-96 383-96zm-72 991c194 0 325-116 322-311v-99c-251 15-522-6-522 232 0 119 67 178 200 178" id="R"/><path fill="#fff" d="M442-897c93-139 173-221 377-221 79 0 159 15 240 45l-49 166c-82-30-157-45-224-45-221 0-340 134-340 360V0H264v-1098h148l22 201h8" id="S"/><g id="m"><use transform="matrix(0.010959201388888885,0,0,0.010959201388888885,0,0)" xlink:href="#N"/><use transform="matrix(0.010959201388888885,0,0,0.010959201388888885,13.46885850694444,0)" xlink:href="#O"/><use transform="matrix(0.010959201388888885,0,0,0.010959201388888885,26.93771701388888,0)" xlink:href="#P"/><use transform="matrix(0.010959201388888885,0,0,0.010959201388888885,40.406575520833314,0)" xlink:href="#Q"/><use transform="matrix(0.010959201388888885,0,0,0.010959201388888885,53.87543402777776,0)" xlink:href="#R"/><use transform="matrix(0.010959201388888885,0,0,0.010959201388888885,67.3442925347222,0)" xlink:href="#S"/></g><path fill="#fff" d="M326-731c0 353 139 584 471 588 87 0 196-19 327-58v162c-97 39-217 59-358 59-433-1-637-301-637-753 0-438 243-750 668-750 147 0 274 29 383 86l-78 156c-103-52-204-78-305-78-307 1-471 259-471 588" id="T"/><path fill="#fff" d="M739-1436c0 71-43 115-106 115-71 0-107-38-107-115 0-76 36-114 107-114s106 38 106 114zM541-954l-269-21v-123h451v955l352 20V0H197v-123l344-20v-811" id="U"/><path fill="#fff" d="M631-1118c283 0 470 204 465 491v113H322c5 250 120 375 344 375 130 0 253-25 370-76v160C925-5 804 20 672 20c-329 0-539-224-539-561 0-331 182-577 498-577zM326-662h573c0-203-91-305-272-305-183 0-284 102-301 305" id="V"/><path fill="#fff" d="M887 0v-707c0-173-79-260-238-260-205 0-307 133-307 398V0H160v-1098h147l27 148h10c69-112 181-168 336-168 259 0 389 134 389 401V0H887" id="W"/><path fill="#fff" d="M1020-150v138C933 9 849 20 768 20 527 20 406-95 406-324v-637H139v-94l267-49 77-287h105v293h438v137H588v637c0 130 64 195 192 195 62 0 142-7 240-21" id="X"/><g id="n"><use transform="matrix(0.010959201388888885,0,0,0.010959201388888885,0,0)" xlink:href="#T"/><use transform="matrix(0.010959201388888885,0,0,0.010959201388888885,13.46885850694444,0)" xlink:href="#P"/><use transform="matrix(0.010959201388888885,0,0,0.010959201388888885,26.93771701388888,0)" xlink:href="#U"/><use transform="matrix(0.010959201388888885,0,0,0.010959201388888885,40.406575520833314,0)" xlink:href="#V"/><use transform="matrix(0.010959201388888885,0,0,0.010959201388888885,53.87543402777776,0)" xlink:href="#W"/><use transform="matrix(0.010959201388888885,0,0,0.010959201388888885,67.3442925347222,0)" xlink:href="#X"/></g><path fill="#fff" d="M1004 0L860-453H369L223 0H33l483-1468h195L1196 0h-192zM807-618c-63-210-144-435-195-650-51 232-127 431-190 650h385" id="Y"/><path fill="#fff" d="M1001 0H225v-123l295-20v-1176l-295-20v-123h776v123l-294 20v1176l294 20V0" id="Z"/><g id="o"><use transform="matrix(0.010959201388888885,0,0,0.010959201388888885,0,0)" xlink:href="#Y"/><use transform="matrix(0.010959201388888885,0,0,0.010959201388888885,13.46885850694444,0)" xlink:href="#N"/><use transform="matrix(0.010959201388888885,0,0,0.010959201388888885,26.93771701388888,0)" xlink:href="#Z"/><use transform="matrix(0.010959201388888885,0,0,0.010959201388888885,40.406575520833314,0)" xlink:href="#Q"/></g></defs></g></svg>