<svg xmlns="http://www.w3.org/2000/svg" xmlns:xlink="http://www.w3.org/1999/xlink" xmlns:lucid="lucid" width="1760" height="460"><g transform="translate(0 -329)" lucid:page-tab-id="0_0"><path d="M20 355c0-3.3 2.7-6 6-6h1708c3.3 0 6 2.7 6 6v408c0 3.3-2.7 6-6 6H26c-3.3 0-6-2.7-6-6z" stroke="#979ea8" fill="#fff" filter="url(#a)"/><path d="M1460 406c0-3.3 2.7-6 6-6h248c3.3 0 6 2.7 6 6v68c0 3.3-2.7 6-6 6h-248c-3.3 0-6-2.7-6-6z" stroke="#3a414a" stroke-width="3" fill="#cfe4ff"/><use xlink:href="#b" transform="matrix(1,0,0,1,1465,405) translate(31.651475694444443 46.378038194444436)"/><use xlink:href="#c" transform="matrix(1,0,0,1,1465,405) translate(199.67881944444446 46.378038194444436)"/><path d="M1460 526c0-3.3 2.7-6 6-6h248c3.3 0 6 2.7 6 6v68c0 3.3-2.7 6-6 6h-248c-3.3 0-6-2.7-6-6z" stroke="#3a414a" stroke-width="3" fill="#cfe4ff"/><use xlink:href="#b" transform="matrix(1,0,0,1,1465,525) translate(31.651475694444443 46.378038194444436)"/><use xlink:href="#d" transform="matrix(1,0,0,1,1465,525) translate(199.67881944444446 46.378038194444436)"/><path d="M1460 646c0-3.3 2.7-6 6-6h248c3.3 0 6 2.7 6 6v68c0 3.3-2.7 6-6 6h-248c-3.3 0-6-2.7-6-6z" stroke="#3a414a" stroke-width="3" fill="#cfe4ff"/><use xlink:href="#b" transform="matrix(1,0,0,1,1465,645) translate(31.651475694444443 46.378038194444436)"/><use xlink:href="#e" transform="matrix(1,0,0,1,1465,645) translate(199.67881944444446 46.378038194444436)"/><path d="M40 446c0-3.3 2.7-6 6-6h248c3.3 0 6 2.7 6 6v68c0 3.3-2.7 6-6 6H46c-3.3 0-6-2.7-6-6z" stroke="#3a414a" stroke-width="3" fill="#fff"/><use xlink:href="#f" transform="matrix(1,0,0,1,45,445) translate(31.651475694444443 46.378038194444436)"/><use xlink:href="#c" transform="matrix(1,0,0,1,45,445) translate(199.67881944444446 46.378038194444436)"/><path d="M40 606c0-3.3 2.7-6 6-6h248c3.3 0 6 2.7 6 6v68c0 3.3-2.7 6-6 6H46c-3.3 0-6-2.7-6-6z" stroke="#3a414a" stroke-width="3" fill="#fff"/><use xlink:href="#f" transform="matrix(1,0,0,1,45,605) translate(31.651475694444443 46.378038194444436)"/><use xlink:href="#d" transform="matrix(1,0,0,1,45,605) translate(199.67881944444446 46.378038194444436)"/><path d="M420 526c0-3.3 2.7-6 6-6h168c3.3 0 6 2.7 6 6v88c0 3.3-2.7 6-6 6H426c-3.3 0-6-2.7-6-6z" stroke="#3a414a" stroke-width="3" fill="#fff"/><use xlink:href="#g" transform="matrix(1,0,0,1,425,525) translate(38.32573784722223 57.003038194444436)"/><path d="M720 486c0-3.3 2.7-6 6-6h208c3.3 0 6 2.7 6 6v148c0 3.3-2.7 6-6 6H726c-3.3 0-6-2.7-6-6z" stroke="#3a414a" stroke-width="3" fill="#fff"/><use xlink:href="#h" transform="matrix(1,0,0,1,725,485) translate(48.99088541666667 85.12803819444443)"/><path d="M1040 486c0-3.3 2.7-6 6-6h288c3.3 0 6 2.7 6 6v148c0 3.3-2.7 6-6 6h-288c-3.3 0-6-2.7-6-6z" stroke="#3a414a" stroke-width="3" fill="#fff"/><use xlink:href="#i" transform="matrix(1,0,0,1,1045,485) translate(32.98177083333333 85.12803819444443)"/><path d="M303 480h51c3.3 0 6 2.7 6 6v78c0 3.3 2.7 6 6 6h31.88" stroke="#3a414a" stroke-width="3" fill="none"/><path d="M303.04 481.5h-1.54v-3h1.54z" stroke="#3a414a" stroke-width=".05" fill="#3a414a"/><path d="M413.65 570l-14.27 4.64v-9.28z" stroke="#3a414a" stroke-width="3" fill="#3a414a"/><path d="M303 640h51c3.3 0 6-2.7 6-6v-58c0-3.3 2.7-6 6-6h31.88" stroke="#3a414a" stroke-width="3" fill="none"/><path d="M303.04 641.5h-1.54v-3h1.54z" stroke="#3a414a" stroke-width=".05" fill="#3a414a"/><path d="M413.65 570l-14.27 4.64v-9.28z" stroke="#3a414a" stroke-width="3" fill="#3a414a"/><path d="M603 538.4h94.88" stroke="#3a414a" stroke-width="3" fill="none"/><path d="M603.04 539.9h-1.54v-3h1.54z" stroke="#3a414a" stroke-width=".05" fill="#3a414a"/><path d="M713.65 538.4l-14.27 4.64v-9.28z" stroke="#3a414a" stroke-width="3" fill="#3a414a"/><path d="M717 607.9h-7.12m-14.24 0H681.4m-14.23 0H660v.09h-4.78m-9.46 0h-9.45m-9.45 0h-4.73" stroke="#3a414a" stroke-width="3" fill="none"/><path d="M718.5 609.4h-1.54v-3h1.54z" stroke="#3a414a" stroke-width=".05" fill="#3a414a"/><path d="M606.35 608l14.27-4.64v9.28z" stroke="#3a414a" stroke-width="3" fill="#3a414a"/><path d="M690 608c0 11.05-8.95 20-20 20s-20-8.95-20-20 8.95-20 20-20 20 8.95 20 20z" stroke="#3a414a" stroke-width="2" fill="#fff"/><path d="M1037 610.4h-5.87m-11.73 0h-11.74m-11.74 0h-5.87l-.03-.02-.02-.03-.02-.04H983m-13.92 0h-6.96" stroke="#3a414a" stroke-width="3" fill="none"/><path d="M1038.5 611.9h-1.54v-3h1.54z" stroke="#3a414a" stroke-width=".05" fill="#3a414a"/><path d="M946.35 610.3l14.27-4.64v9.27z" stroke="#3a414a" stroke-width="3" fill="#3a414a"/><path d="M1014 610c0 11.05-8.95 20-20 20s-20-8.95-20-20 8.95-20 20-20 20 8.95 20 20z" stroke="#3a414a" stroke-width="2" fill="#fff"/><path d="M943 542.4h74.88" stroke="#3a414a" stroke-width="3" fill="none"/><path d="M943.04 543.9h-1.54v-3h1.54z" stroke="#3a414a" stroke-width=".05" fill="#3a414a"/><path d="M1033.65 542.4l-14.27 4.64v-9.28z" stroke="#3a414a" stroke-width="3" fill="#3a414a"/><path d="M1343 560h51c3.3 0 6-2.7 6-6V449c0-3.3 2.7-6 6-6h31.88" stroke="#3a414a" stroke-width="3" fill="none"/><path d="M1343.04 561.5h-1.54v-3h1.54z" stroke="#3a414a" stroke-width=".05" fill="#3a414a"/><path d="M1453.65 443l-14.27 4.64v-9.28z" stroke="#3a414a" stroke-width="3" fill="#3a414a"/><path d="M1343 560h94.88" stroke="#3a414a" stroke-width="3" fill="none"/><path d="M1343.04 561.5h-1.54v-3h1.54z" stroke="#3a414a" stroke-width=".05" fill="#3a414a"/><path d="M1453.65 560l-14.27 4.64v-9.28z" stroke="#3a414a" stroke-width="3" fill="#3a414a"/><path d="M1343 560h51c3.3 0 6 2.7 6 6v105c0 3.3 2.7 6 6 6h31.88" stroke="#3a414a" stroke-width="3" fill="none"/><path d="M1343.04 561.5h-1.54v-3h1.54z" stroke="#3a414a" stroke-width=".05" fill="#3a414a"/><path d="M1453.65 677l-14.27 4.64v-9.28z" stroke="#3a414a" stroke-width="3" fill="#3a414a"/><path d="M732 508c0-3.3 2.7-6 6-6h48c3.3 0 6 2.7 6 6v28c0 3.3-2.7 6-6 6h-48c-3.3 0-6-2.7-6-6z" stroke="#979ea8" stroke-width="4" fill="#fff"/><path d="M735.18 505.2c.22-.36.7-.46 1.03-.23l24.42 15.9c.35.22.45.7.22 1.03-.22.35-.7.45-1.04.22l-24.4-15.9c-.35-.22-.45-.7-.22-1.03zM788.97 504.56c.22.35.12.8-.23 1.04l-25.94 16.44c-.35.22-.8.1-1.04-.24-.22-.35-.1-.8.24-1.03l25.93-16.44c.35-.22.82-.12 1.04.23z" stroke="#ced4db" stroke-width="1.5" fill="none"/><path d="M735.12 538.85c-.16-.22-.12-.53.1-.7l24.12-18.03c.22-.17.54-.12.7.1.17.22.12.53-.1.7l-24.12 18.03c-.22.17-.53.12-.7-.1zM764.05 519.66c.17-.22.5-.26.7-.1l23.92 18.47c.22.16.26.48.1.7-.18.22-.5.26-.7.1l-23.93-18.47c-.22-.17-.26-.48-.1-.7z" stroke="#ced4db" fill="none"/><path d="M867 509.52c0-3.3 2.7-6 6-6h48c3.3 0 6 2.7 6 6v28c0 3.3-2.7 6-6 6h-48c-3.3 0-6-2.7-6-6z" stroke="#979ea8" stroke-width="4" fill="#fff"/><path d="M870.18 506.7c.22-.34.7-.44 1.03-.2l24.42 15.9c.35.2.45.68.22 1.02-.22.35-.7.45-1.04.22l-24.4-15.9c-.35-.22-.45-.7-.22-1.03zM923.97 506.08c.22.35.12.8-.23 1.04l-25.94 16.44c-.35.22-.8.1-1.04-.24-.22-.35-.1-.8.24-1.03l25.93-16.45c.35-.22.82-.12 1.04.23z" stroke="#ced4db" stroke-width="1.5" fill="none"/><path d="M870.12 540.37c-.16-.22-.12-.53.1-.7l24.12-18.03c.22-.17.54-.12.7.1.17.22.12.53-.1.7l-24.12 18.03c-.22.17-.53.12-.7-.1zM899.05 521.18c.17-.22.5-.26.7-.1l23.92 18.47c.22.16.26.48.1.7-.18.22-.5.26-.7.1l-23.93-18.47c-.22-.17-.26-.48-.1-.7z" stroke="#ced4db" fill="none"/><path d="M754.4 598c0-3.3 2.7-6 6-6h48c3.32 0 6 2.7 6 6v28c0 3.3-2.68 6-6 6h-48c-3.3 0-6-2.7-6-6z" stroke="#979ea8" stroke-width="4" fill="#fff"/><path d="M757.58 595.2c.23-.36.7-.46 1.04-.23l24.4 15.9c.36.22.45.7.23 1.03-.23.35-.7.45-1.04.22l-24.4-15.9c-.35-.22-.45-.7-.22-1.03zM811.37 594.56c.23.35.12.8-.23 1.04l-25.94 16.44c-.35.22-.8.1-1.03-.24-.22-.35-.12-.8.23-1.03l25.94-16.44c.35-.22.8-.12 1.03.23z" stroke="#ced4db" stroke-width="1.5" fill="none"/><path d="M757.53 628.85c-.17-.22-.12-.53.1-.7l24.12-18.03c.22-.17.53-.12.7.1.16.22.12.53-.1.7l-24.12 18.03c-.22.17-.53.12-.7-.1zM786.46 609.66c.17-.22.48-.26.7-.1l23.9 18.47c.23.16.27.48.1.7-.17.22-.48.26-.7.1l-23.9-18.47c-.23-.17-.27-.48-.1-.7z" stroke="#ced4db" fill="none"/><path d="M800 586c0-3.3 2.7-6 6-6h48c3.3 0 6 2.7 6 6v28c0 3.3-2.7 6-6 6h-48c-3.3 0-6-2.7-6-6z" stroke="#979ea8" stroke-width="4" fill="#fff"/><path d="M803.18 583.2c.22-.36.7-.46 1.03-.23l24.42 15.9c.35.22.45.7.22 1.03-.22.35-.7.45-1.04.22l-24.4-15.9c-.35-.22-.45-.7-.22-1.03zM856.97 582.56c.22.35.12.8-.23 1.04l-25.94 16.44c-.35.22-.8.1-1.04-.24-.22-.35-.1-.8.24-1.03l25.93-16.44c.35-.22.82-.12 1.04.23z" stroke="#ced4db" stroke-width="1.5" fill="none"/><path d="M803.12 616.85c-.16-.22-.12-.53.1-.7l24.12-18.03c.22-.17.54-.12.7.1.17.22.12.53-.1.7l-24.12 18.03c-.22.17-.53.12-.7-.1zM832.05 597.66c.17-.22.5-.26.7-.1l23.92 18.47c.22.16.26.48.1.7-.18.22-.5.26-.7.1l-23.93-18.47c-.22-.17-.26-.48-.1-.7z" stroke="#ced4db" fill="none"/><path d="M847.27 599.52c0-3.3 2.68-6 6-6h48c3.3 0 6 2.7 6 6v28c0 3.3-2.7 6-6 6h-48c-3.32 0-6-2.7-6-6z" stroke="#979ea8" stroke-width="4" fill="#fff"/><g><path d="M850.44 596.7c.23-.34.7-.44 1.04-.2l24.4 15.9c.35.2.45.68.23 1.02-.22.35-.68.45-1.03.22l-24.4-15.9c-.36-.22-.46-.7-.23-1.03z" stroke="#ced4db" stroke-width="1.5" fill="none"/></g><g><path d="M904.23 596.08c.23.35.12.8-.23 1.04l-25.94 16.44c-.35.22-.8.1-1.03-.24-.22-.35-.12-.8.23-1.03l25.94-16.45c.35-.22.8-.12 1.03.23z" stroke="#ced4db" stroke-width="1.5" fill="none"/></g><g><path d="M850.4 630.37c-.18-.22-.13-.53.1-.7l24.1-18.03c.23-.17.54-.12.7.1.17.22.13.53-.1.7l-24.1 18.03c-.23.17-.54.12-.7-.1z" stroke="#ced4db" fill="none"/></g><g><path d="M879.32 611.18c.17-.22.48-.26.7-.1l23.9 18.47c.23.16.27.48.1.7-.17.22-.48.26-.7.1l-23.9-18.47c-.23-.17-.27-.48-.1-.7z" stroke="#ced4db" fill="none"/></g><defs><filter id="a" filterUnits="objectBoundingBox" x="0" y="-.01" width="1.01" height="1.05"><feOffset result="offOut" in="SourceAlpha" dx="4.24" dy="4.24"/><feGaussianBlur result="blurOut" in="offOut" stdDeviation="5"/><feColorMatrix result="colorOut" in="blurOut" values="0 0 0 0 0 0 0 0 0 0 0 0 0 0 0 0 0 0 0.5019607843137255 0"/><feBlend in="SourceGraphic" in2="colorOut"/></filter><path fill="#3a414a" d="M326-731c0 353 139 584 471 588 87 0 196-19 327-58v162c-97 39-217 59-358 59-433-1-637-301-637-753 0-438 243-750 668-750 147 0 274 29 383 86l-78 156c-103-52-204-78-305-78-307 1-471 259-471 588" id="j"/><path fill="#3a414a" d="M1112-551c0 331-186 571-502 571-301 0-495-251-495-571 0-330 184-567 501-567 302 0 496 249 496 567zM614-131c207 0 310-140 310-420 0-277-104-416-312-416-206 0-309 139-309 416 0 280 104 420 311 420" id="k"/><path fill="#3a414a" d="M887 0v-707c0-173-79-260-238-260-205 0-307 133-307 398V0H160v-1098h147l27 148h10c69-112 181-168 336-168 259 0 389 134 389 401V0H887" id="l"/><path fill="#3a414a" d="M1026-301c0 225-197 321-448 321-165 0-290-23-375-69v-166c129 57 252 86 370 86 183 0 275-54 275-162 0-38-16-71-49-99s-108-63-226-106c-156-57-253-112-293-160s-61-105-61-171c2-338 524-340 789-217l-60 149c-121-48-228-72-319-72-157 0-236 44-236 133 0 41 17 74 51 98s111 57 232 101c141 51 234 101 280 151s70 111 70 183" id="m"/><path fill="#3a414a" d="M578-131c239 0 309-137 309-397v-570h182V0H922l-27-147h-10C815-36 704 20 551 20c-261 0-391-134-391-401v-717h182v707c0 173 79 260 236 260" id="n"/><path fill="#3a414a" d="M977 0v-707c0-97-9-165-27-203s-47-57-88-57c-58 0-100 28-126 83s-40 148-40 278V0H535v-707c0-173-42-260-125-260-56 0-96 26-120 79s-36 160-36 319V0H92v-1098h127l27 148h10c45-112 112-168 201-168 109 0 180 61 213 182h6c51-121 124-182 219-182 85 0 147 30 186 92s58 165 58 309V0H977" id="o"/><path fill="#3a414a" d="M631-1118c283 0 470 204 465 491v113H322c5 250 120 375 344 375 130 0 253-25 370-76v160C925-5 804 20 672 20c-329 0-539-224-539-561 0-331 182-577 498-577zM326-662h573c0-203-91-305-272-305-183 0-284 102-301 305" id="p"/><path fill="#3a414a" d="M442-897c93-139 173-221 377-221 79 0 159 15 240 45l-49 166c-82-30-157-45-224-45-221 0-340 134-340 360V0H264v-1098h148l22 201h8" id="q"/><g id="b"><use transform="matrix(0.015190972222222219,0,0,0.015190972222222219,0,0)" xlink:href="#j"/><use transform="matrix(0.015190972222222219,0,0,0.015190972222222219,18.669704861111107,0)" xlink:href="#k"/><use transform="matrix(0.015190972222222219,0,0,0.015190972222222219,37.339409722222214,0)" xlink:href="#l"/><use transform="matrix(0.015190972222222219,0,0,0.015190972222222219,56.00911458333332,0)" xlink:href="#m"/><use transform="matrix(0.015190972222222219,0,0,0.015190972222222219,74.67881944444443,0)" xlink:href="#n"/><use transform="matrix(0.015190972222222219,0,0,0.015190972222222219,93.34852430555554,0)" xlink:href="#o"/><use transform="matrix(0.015190972222222219,0,0,0.015190972222222219,112.01822916666666,0)" xlink:href="#p"/><use transform="matrix(0.015190972222222219,0,0,0.015190972222222219,130.68793402777777,0)" xlink:href="#q"/></g><path fill="#3a414a" d="M758 0H582c3-449-8-824 8-1274-61 68-188 168-268 234l-97-123 383-299h150V0" id="r"/><use transform="matrix(0.015190972222222219,0,0,0.015190972222222219,0,0)" xlink:href="#r" id="c"/><path fill="#3a414a" d="M594-1483c248 0 420 149 418 391 0 79-21 160-59 244-73 161-414 504-572 674v8h688V0H158v-156c172-193 489-508 607-698 43-69 62-147 62-231 0-146-91-244-235-244-107 0-213 46-318 137l-102-119c128-115 269-172 422-172" id="s"/><use transform="matrix(0.015190972222222219,0,0,0.015190972222222219,0,0)" xlink:href="#s" id="d"/><path fill="#3a414a" d="M1010-1120c0 200-132 322-316 350v6c241 31 361 147 361 348 0 294-219 436-537 436-161 0-290-26-387-79v-170c123 64 250 96 383 96 236 0 354-96 354-289 0-172-127-258-381-258H354v-151h133c195 4 334-97 336-277 1-140-106-221-250-221-119 0-233 40-344 121l-92-125c125-100 270-150 436-150 252 0 437 128 437 363" id="t"/><use transform="matrix(0.015190972222222219,0,0,0.015190972222222219,0,0)" xlink:href="#t" id="e"/><path fill="#3a414a" d="M1094-1034c0 310-213 470-541 465H362V0H176v-1462h404c343 0 514 143 514 428zM532-727c244-1 369-71 369-297 0-186-113-279-338-279H362v576h170" id="u"/><path fill="#3a414a" d="M137-547c0-322 136-571 430-571 137 0 245 53 322 160h12c-24-215-7-376-12-598h182V0H924l-27-147h-8C814-36 706 20 567 20c-294 0-430-246-430-567zm463 416c241 0 288-157 289-416 0-151-23-259-69-323s-121-97-222-97c-181 0-272 141-272 422 0 276 91 414 274 414" id="v"/><path fill="#3a414a" d="M172-543c0-365 197-575 553-575 119 0 231 20 336 59l-62 158c-100-38-189-57-268-57-247 0-371 138-371 413 0 271 120 406 361 406 105 0 212-21 321-62v160C953 0 843 20 713 20c-347 1-541-210-541-563" id="w"/><g id="f"><use transform="matrix(0.015190972222222219,0,0,0.015190972222222219,0,0)" xlink:href="#u"/><use transform="matrix(0.015190972222222219,0,0,0.015190972222222219,18.669704861111107,0)" xlink:href="#q"/><use transform="matrix(0.015190972222222219,0,0,0.015190972222222219,37.339409722222214,0)" xlink:href="#k"/><use transform="matrix(0.015190972222222219,0,0,0.015190972222222219,56.00911458333332,0)" xlink:href="#v"/><use transform="matrix(0.015190972222222219,0,0,0.015190972222222219,74.67881944444443,0)" xlink:href="#n"/><use transform="matrix(0.015190972222222219,0,0,0.015190972222222219,93.34852430555554,0)" xlink:href="#w"/><use transform="matrix(0.015190972222222219,0,0,0.015190972222222219,112.01822916666666,0)" xlink:href="#p"/><use transform="matrix(0.015190972222222219,0,0,0.015190972222222219,130.68793402777777,0)" xlink:href="#q"/></g><path fill="#3a414a" d="M707 0H520v-1298H102v-164h1022v164H707V0" id="x"/><path fill="#3a414a" d="M1092-551c0 322-136 571-430 571-138 0-245-53-322-159h-12c24 220 7 402 12 631H158v-1590h147l27 148h8c73-112 181-168 322-168 294 0 430 246 430 567zM629-967c-241 0-288 156-289 416 0 151 24 259 70 323s120 97 221 97c181 0 272-141 272-422 0-276-91-414-274-414" id="y"/><path fill="#3a414a" d="M739-1436c0 71-43 115-106 115-71 0-107-38-107-115 0-76 36-114 107-114s106 38 106 114zM541-954l-269-21v-123h451v955l352 20V0H197v-123l344-20v-811" id="z"/><g id="g"><use transform="matrix(0.015190972222222219,0,0,0.015190972222222219,0,0)" xlink:href="#x"/><use transform="matrix(0.015190972222222219,0,0,0.015190972222222219,18.669704861111107,0)" xlink:href="#k"/><use transform="matrix(0.015190972222222219,0,0,0.015190972222222219,37.339409722222214,0)" xlink:href="#y"/><use transform="matrix(0.015190972222222219,0,0,0.015190972222222219,56.00911458333332,0)" xlink:href="#z"/><use transform="matrix(0.015190972222222219,0,0,0.015190972222222219,74.67881944444443,0)" xlink:href="#w"/></g><path fill="#3a414a" d="M1137-424C1137-153 941 0 662 0H135v-1462c284 7 685-30 837 88 80 62 124 152 124 282 0 179-125 297-291 316v10c221 36 332 150 332 342zm-232-655c0-182-120-224-319-224H322v461h284c195-2 299-53 299-237zM322-686v528h307c207 0 311-91 311-274 0-169-108-254-324-254H322" id="A"/><path fill="#3a414a" d="M383-553l135-152 395-393h222L641-623 1163 0H950L524-504l-129 82V0H215v-1556h180c-3 337 9 689-16 1003h4" id="B"/><g id="h"><use transform="matrix(0.015190972222222219,0,0,0.015190972222222219,0,0)" xlink:href="#A"/><use transform="matrix(0.015190972222222219,0,0,0.015190972222222219,18.669704861111107,0)" xlink:href="#q"/><use transform="matrix(0.015190972222222219,0,0,0.015190972222222219,37.339409722222214,0)" xlink:href="#k"/><use transform="matrix(0.015190972222222219,0,0,0.015190972222222219,56.00911458333332,0)" xlink:href="#B"/><use transform="matrix(0.015190972222222219,0,0,0.015190972222222219,74.67881944444443,0)" xlink:href="#p"/><use transform="matrix(0.015190972222222219,0,0,0.015190972222222219,93.34852430555554,0)" xlink:href="#q"/></g><path fill="#3a414a" d="M1087-391c0 281-226 411-532 411-177 0-315-23-414-69v-178c141 57 279 86 414 86 233 0 350-80 350-240 0-69-24-123-71-160s-142-82-285-133c-139-49-239-106-299-174s-90-156-90-264c2-252 211-371 481-371 153 0 291 26 416 78l-64 164c-129-52-249-78-360-78-195 0-293 70-293 209 0 68 22 123 66 164s134 85 270 133c164 58 273 119 328 181s83 143 83 241" id="C"/><path fill="#3a414a" d="M1092-551c0 322-136 571-430 571-138 0-245-53-322-159h-12L291 0H158v-1556h182c-2 221 6 379-8 602h8c71-109 179-164 322-164 294 0 430 246 430 567zM629-967c-241 0-289 146-289 416 0 151 24 259 70 323s120 97 221 97c181 0 272-141 272-422 0-276-91-414-274-414" id="D"/><path fill="#3a414a" d="M1020-150v138C933 9 849 20 768 20 527 20 406-95 406-324v-637H139v-94l267-49 77-287h105v293h438v137H588v637c0 130 64 195 192 195 62 0 142-7 240-21" id="E"/><g id="i"><use transform="matrix(0.015190972222222219,0,0,0.015190972222222219,0,0)" xlink:href="#C"/><use transform="matrix(0.015190972222222219,0,0,0.015190972222222219,18.669704861111107,0)" xlink:href="#n"/><use transform="matrix(0.015190972222222219,0,0,0.015190972222222219,37.339409722222214,0)" xlink:href="#D"/><use transform="matrix(0.015190972222222219,0,0,0.015190972222222219,56.00911458333332,0)" xlink:href="#m"/><use transform="matrix(0.015190972222222219,0,0,0.015190972222222219,74.67881944444443,0)" xlink:href="#w"/><use transform="matrix(0.015190972222222219,0,0,0.015190972222222219,93.34852430555554,0)" xlink:href="#q"/><use transform="matrix(0.015190972222222219,0,0,0.015190972222222219,112.01822916666666,0)" xlink:href="#z"/><use transform="matrix(0.015190972222222219,0,0,0.015190972222222219,130.68793402777777,0)" xlink:href="#y"/><use transform="matrix(0.015190972222222219,0,0,0.015190972222222219,149.35763888888889,0)" xlink:href="#E"/><use transform="matrix(0.015190972222222219,0,0,0.015190972222222219,168.02734375,0)" xlink:href="#z"/><use transform="matrix(0.015190972222222219,0,0,0.015190972222222219,186.69704861111111,0)" xlink:href="#k"/><use transform="matrix(0.015190972222222219,0,0,0.015190972222222219,205.36675347222223,0)" xlink:href="#l"/></g></defs></g></svg>