<svg xmlns="http://www.w3.org/2000/svg" xmlns:xlink="http://www.w3.org/1999/xlink" xmlns:lucid="lucid" width="1194.33" height="621.67"><g transform="translate(-99.33333333333343 -148.327109726049)" lucid:page-tab-id="0_0"><path d="M0 0h1870.87v1322.83H0z" fill="#fff"/><path d="M509.67 317a6 6 0 0 1 6-6h752a6 6 0 0 1 6 6v146.67a6 6 0 0 1-6 6h-752a6 6 0 0 1-6-6z" stroke="#188fff" fill="#188fff"/><path d="M492.33 337.33a6 6 0 0 1 6-6h752a6 6 0 0 1 6 6V484a6 6 0 0 1-6 6h-752a6 6 0 0 1-6-6z" stroke="#edf5ff" fill="#188fff"/><path d="M476.33 356.33a6 6 0 0 1 6-6h752a6 6 0 0 1 6 6V503a6 6 0 0 1-6 6h-752a6 6 0 0 1-6-6z" stroke="#edf5ff" fill="#188fff"/><path d="M463.33 373.2a6 6 0 0 1 6-6h745.34a6 6 0 0 1 6 6v154.27a6 6 0 0 1-6 6H469.33a6 6 0 0 1-6-6z" stroke="#edf5ff" fill="#188fff"/><use xlink:href="#a" transform="matrix(1,0,0,1,475.33333333329466,379.1961805555556) translate(205.64040798611114 22.68988715277777)"/><use xlink:href="#b" transform="matrix(1,0,0,1,475.33333333329466,379.1961805555556) translate(308.32378472222223 22.68988715277777)"/><use xlink:href="#c" transform="matrix(1,0,0,1,475.33333333329466,379.1961805555556) translate(440.3452690972222 22.68988715277777)"/><use xlink:href="#d" transform="matrix(1,0,0,1,475.33333333329466,379.1961805555556) translate(367 51.14474826388887)"/><use xlink:href="#d" transform="matrix(1,0,0,1,475.33333333329466,379.1961805555556) translate(367 79.59960937499997)"/><use xlink:href="#d" transform="matrix(1,0,0,1,475.33333333329466,379.1961805555556) translate(367 108.05447048611109)"/><use xlink:href="#e" transform="matrix(1,0,0,1,475.33333333329466,379.1961805555556) translate(367 136.50933159722217)"/><path d="M528 368.5a6 6 0 0 1 6 6v151.68a6 6 0 0 1-6 6h-58.67a6 6 0 0 1-6-6v-151.7a6 6 0 0 1 6-6z" stroke="#188fff" fill="#fff"/><use xlink:href="#f" transform="matrix(6.123233995736766e-17,1,-1,6.123233995736766e-17,521.999999999961,380.48958333333337) translate(3.989257812500014 30.314453124999996)"/><use xlink:href="#g" transform="matrix(6.123233995736766e-17,1,-1,6.123233995736766e-17,521.999999999961,380.48958333333337) translate(63.99902343750001 30.314453124999996)"/><path d="M534 449.2a6 6 0 0 1 6-6h206.67a6 6 0 0 1 6 6v76.98a6 6 0 0 1-6 6H540a6 6 0 0 1-6-6z" stroke="#188fff" fill="#fff"/><use xlink:href="#h" transform="matrix(1,0,0,1,545.9999999999611,455.2052215296718) translate(49.49218750000001 28.720703124999996)"/><use xlink:href="#i" transform="matrix(1,0,0,1,545.9999999999611,455.2052215296718) translate(1.4843750000000142 52.001953125)"/><use xlink:href="#j" transform="matrix(1,0,0,1,545.9999999999611,455.2052215296718) translate(109.501953125 52.001953125)"/><path d="M752.67 449.2a6 6 0 0 1 6-6h106.66a6 6 0 0 1 6 6v76.98a6 6 0 0 1-6 6H758.67a6 6 0 0 1-6-6z" stroke="#188fff" fill="#fff"/><use xlink:href="#k" transform="matrix(1,0,0,1,764.6666666666276,455.2052215296718) translate(-0.5078124999999929 27.783203125)"/><use xlink:href="#j" transform="matrix(1,0,0,1,764.6666666666276,455.2052215296718) translate(5.493164062500007 51.064453125)"/><path d="M871.33 449.2a6 6 0 0 1 6-6h196a6 6 0 0 1 6 6v76.98a6 6 0 0 1-6 6h-196a6 6 0 0 1-6-6z" stroke="#188fff" fill="#fff"/><use xlink:href="#l" transform="matrix(1,0,0,1,883.3333333332947,455.2052215296718) translate(44.49218750000001 28.720703124999996)"/><use xlink:href="#m" transform="matrix(1,0,0,1,883.3333333332947,455.2052215296718) translate(2.485351562500014 52.001953125)"/><use xlink:href="#n" transform="matrix(1,0,0,1,883.3333333332947,455.2052215296718) translate(98.5009765625 52.001953125)"/><path d="M1079.33 449.2a6 6 0 0 1 6-6h129.34a6 6 0 0 1 6 6v76.98a6 6 0 0 1-6 6h-129.34a6 6 0 0 1-6-6z" stroke="#188fff" fill="#fff"/><use xlink:href="#o" transform="matrix(1,0,0,1,1091.333333333295,455.2052215296718) translate(-1.009765624999993 27.783203125)"/><use xlink:href="#j" transform="matrix(1,0,0,1,1091.333333333295,455.2052215296718) translate(16.993164062500007 51.064453125)"/><path d="M179.33 397.67a6 6 0 0 1 6-6h108a6 6 0 0 1 6 6v78a6 6 0 0 1-6 6h-108a6 6 0 0 1-6-6z" stroke="#000" stroke-opacity="0" stroke-width="3" fill="#188fff"/><path d="M210.16 466.07h58.35c4.6 0 8.33-3.68 8.33-8.33v-41.62c0-4.65-3.74-8.33-8.32-8.33h-58.34c-4.57 0-8.33 3.67-8.33 8.32v41.62c0 4.65 3.76 8.33 8.33 8.33m33.37-41.63h27.75V430h-27.75v-5.56zm0 11.1h27.75v5.55h-27.75v-5.56zm0 11.1h27.75v5.55h-27.75v-5.56zm-21.74-25.27c4.03 0 7.26 3.22 7.26 7.27 0 4.05-3.23 7.28-7.27 7.28-4 0-7.3-3.23-7.3-7.28 0-4.05 3.3-7.27 7.3-7.27m.13 17.47c6.98 0 12.75 5.85 13.36 13.35.06.96-.3 1.86-1.14 2.4-3.53 2.16-7.73 3.44-12.23 3.44s-8.62-1.28-12.22-3.45c-.74-.54-1.2-1.44-1.1-2.4.66-7.5 6.36-13.36 13.33-13.36" fill="#69b6ff"/><path d="M119.33 503.33a6 6 0 0 1 6-6h228a6 6 0 0 1 6 6v48a6 6 0 0 1-6 6h-228a6 6 0 0 1-6-6z" stroke="#000" stroke-opacity="0" fill="#fff" fill-opacity="0"/><use xlink:href="#p" transform="matrix(1,0,0,1,124.33333333333343,502.33333333333337) translate(84.9951171875 31.064453124999996)"/><path d="M700 738c0 6.63-33.73 12-75.33 12s-75.34-5.37-75.34-12v-96c0-6.63 33.73-12 75.34-12 41.6 0 75.33 5.37 75.33 12z" stroke="#3a414a" fill="#fff"/><path d="M700 642c0 6.63-33.73 12-75.33 12s-75.34-5.37-75.34-12" stroke="#3a414a" fill="none"/><use xlink:href="#l" transform="matrix(1,0,0,1,554.3333333332947,659) translate(22.492187500000007 26.626953124999996)"/><use xlink:href="#q" transform="matrix(1,0,0,1,554.3333333332947,659) translate(22.492187500000007 49.90820312499999)"/><use xlink:href="#r" transform="matrix(1,0,0,1,554.3333333332947,659) translate(40.4951171875 73.18945312499999)"/><path d="M949.67 738c0 6.63-33.73 12-75.34 12-41.6 0-75.33-5.37-75.33-12v-96c0-6.63 33.73-12 75.33-12s75.34 5.37 75.34 12z" stroke="#3a414a" fill="#fff"/><path d="M949.67 642c0 6.63-33.73 12-75.34 12-41.6 0-75.33-5.37-75.33-12" stroke="#3a414a" fill="none"/><use xlink:href="#s" transform="matrix(1,0,0,1,803.9999999999615,659) translate(10.490234375000007 37.376953125)"/><use xlink:href="#r" transform="matrix(1,0,0,1,803.9999999999615,659) translate(40.4951171875 60.658203125)"/><path d="M1199.33 738c0 6.63-33.72 12-75.33 12-41.6 0-75.33-5.37-75.33-12v-96c0-6.63 33.72-12 75.33-12 41.6 0 75.33 5.37 75.33 12z" stroke="#3a414a" fill="#fff"/><path d="M1199.33 642c0 6.63-33.72 12-75.33 12-41.6 0-75.33-5.37-75.33-12" stroke="#3a414a" fill="none"/><use xlink:href="#t" transform="matrix(1,0,0,1,1053.6666666666283,659) translate(-1.5117187499999858 38.283203125)"/><use xlink:href="#u" transform="matrix(1,0,0,1,1053.6666666666283,659) translate(40.4951171875 61.564453125)"/><path d="M591.33 168.33c17.68 0 32 17.9 32 40s-14.32 40-32 40h-96c-17.67 0-32-17.9-32-40s14.33-40 32-40z" stroke="#666" stroke-width="2" fill="#fff"/><use xlink:href="#v" transform="matrix(1,0,0,1,468.3333333332946,173.327109726049) translate(26.463767361111135 29.708224826388882)"/><use xlink:href="#w" transform="matrix(1,0,0,1,468.3333333332946,173.327109726049) translate(26.463767361111135 53.24815538194443)"/><path d="M780.67 168.33c17.67 0 32 17.9 32 40s-14.33 40-32 40h-96c-17.68 0-32-17.9-32-40s14.32-40 32-40z" stroke="#666" stroke-width="2" fill="#fff"/><use xlink:href="#x" transform="matrix(1,0,0,1,657.6666666666667,173.327109726049) translate(26.463767361111135 29.708224826388882)"/><use xlink:href="#y" transform="matrix(1,0,0,1,657.6666666666667,173.327109726049) translate(26.463767361111135 53.24815538194443)"/><path d="M978 168.33c17.67 0 32 17.9 32 40s-14.33 40-32 40h-96c-17.67 0-32-17.9-32-40s14.33-40 32-40z" stroke="#666" stroke-width="2" fill="#fff"/><use xlink:href="#x" transform="matrix(1,0,0,1,854.9999999999613,173.327109726049) translate(26.463767361111135 29.708224826388882)"/><use xlink:href="#y" transform="matrix(1,0,0,1,854.9999999999613,173.327109726049) translate(26.463767361111135 53.24815538194443)"/><path d="M1235.33 168.33c17.68 0 32 17.9 32 40s-14.32 40-32 40h-96c-17.67 0-32-17.9-32-40s14.33-40 32-40z" stroke="#666" stroke-width="2" fill="#fff"/><use xlink:href="#v" transform="matrix(1,0,0,1,1112.3333333332946,173.327109726049) translate(26.463767361111135 29.708224826388882)"/><use xlink:href="#w" transform="matrix(1,0,0,1,1112.3333333332946,173.327109726049) translate(26.463767361111135 53.24815538194443)"/><path d="M930 184.33a6 6 0 0 1 6-6h228a6 6 0 0 1 6 6v48a6 6 0 0 1-6 6H936a6 6 0 0 1-6-6z" stroke="#000" stroke-opacity="0" fill="#fff" fill-opacity="0"/><use xlink:href="#z" transform="matrix(1,0,0,1,935,183.327109726049) translate(104.16666666666667 29.36111111111111)"/><g fill="none"><path d="M469.33 311a6 6 0 0 1-6-6v-37.33a6 6 0 0 1 6-6h792a6 6 0 0 1 6 6V305a6 6 0 0 1-6 6z"/><path d="M1267.33 261.67c0 5.52-4.47 10-10 10h-382c-5.52 0-10 4.47-10 10 0-5.53-4.47-10-10-10h-382c-5.52 0-10-4.48-10-10" stroke="#3a414a" stroke-width="2"/></g><path d="M376.62 419.17h-76.84v-1h76.84zm69.85 0H385.5v-1h60.97z" stroke="#3a414a" stroke-width=".05" fill="#3a414a"/><path d="M299.8 419.17h-.52v-1h.5z" fill="#3a414a"/><path d="M299.82 419.2h-.56v-1.05h.56zm-.52-1v.95h.47v-.95z" stroke="#3a414a" stroke-width=".05" fill="#3a414a"/><path d="M461.24 418.67l-14.27 4.64v-9.26z" fill="#3a414a"/><path d="M462.85 418.67L446.47 424v-10.65zm-15.38 3.95l12.15-3.95-12.15-3.95z" stroke="#3a414a" stroke-width=".05" fill="#3a414a"/><use xlink:href="#A" transform="matrix(1,0,0,1,376.62289456575854,408.0050466515797) translate(0 14.222222222222223)"/><path d="M376.65 450.83H315.7v-1h60.95zm85.72 0h-76.84v-1h76.84z" stroke="#3a414a" stroke-width=".05" fill="#3a414a"/><path d="M462.87 450.83h-.5v-1h.5z" fill="#3a414a"/><path d="M462.9 450.86h-.57v-1.05h.56zm-.52-1v.95h.47v-.94z" stroke="#3a414a" stroke-width=".05" fill="#3a414a"/><path d="M315.2 454.97l-14.27-4.64 14.26-4.63z" fill="#3a414a"/><path d="M315.7 455.66l-16.4-5.33 16.4-5.32zm-13.15-5.33l12.14 3.95v-7.9z" stroke="#3a414a" stroke-width=".05" fill="#3a414a"/><use xlink:href="#B" transform="matrix(1,0,0,1,376.6453967563052,439.6666666666667) translate(0 14.222222222222223)"/><path d="M591.83 614.54h-1v-15.87h1zm0-37.2h-1v-44.18h1z" stroke="#3a414a" stroke-width=".05" fill="#3a414a"/><path d="M591.83 533.17h-1v-.5h1z" fill="#3a414a"/><path d="M591.86 533.2h-1.05v-.57h1.06zm-1-.52v.47h.95v-.47z" stroke="#3a414a" stroke-width=".05" fill="#3a414a"/><path d="M591.33 629.3l-4.63-14.26h9.27z" fill="#3a414a"/><path d="M591.33 630.92L586 614.54h10.66zm-3.94-15.38l3.93 12.14 3.95-12.14z" stroke="#3a414a" stroke-width=".05" fill="#3a414a"/><use xlink:href="#C" transform="matrix(1,0,0,1,586.8876986559673,577.3333333333334) translate(0 14.222222222222223)"/><path d="M625.17 629h-1v-30.33h1zm0-51.67h-1v-27h1z" stroke="#3a414a" stroke-width=".05" fill="#3a414a"/><path d="M625.17 629.52l-.5-.02h-.5v-.5h1z" fill="#3a414a"/><path d="M625.2 629.54l-.53-.02-.53.02v-.58h1.05zm-1-.53v.5l.47-.03.47.02v-.5z" stroke="#3a414a" stroke-width=".05" fill="#3a414a"/><path d="M629.3 549.84h-9.27l4.64-14.27z" fill="#3a414a"/><path d="M630 550.34h-10.66l5.33-16.38zm-9.28-1h7.9l-3.95-12.15z" stroke="#3a414a" stroke-width=".05" fill="#3a414a"/><use xlink:href="#D" transform="matrix(1,0,0,1,620.2222223141932,577.3333333333335) translate(0 14.222222222222223)"/><path d="M900.88 629.83h-1v-31.16h1zm0-52.5h-1V550.3h1z" stroke="#3a414a" stroke-width=".05" fill="#3a414a"/><path d="M900.88 630.34l-1-.03v-.5h1z" fill="#3a414a"/><path d="M900.9 630.37l-1.04-.03v-.55h1.05zm-1-.53v.45l.96.02v-.48z" stroke="#3a414a" stroke-width=".05" fill="#3a414a"/><path d="M905.02 549.8h-9.27l4.63-14.25z" fill="#3a414a"/><path d="M905.7 550.3h-10.64l5.32-16.37zm-9.27-1h7.9l-3.95-12.14z" stroke="#3a414a" stroke-width=".05" fill="#3a414a"/><g><use xlink:href="#E" transform="matrix(1,0,0,1,895.9365746819869,577.3333333333335) translate(0 14.222222222222223)"/></g><path d="M1121.16 613.2h-1v-15.33h1zm0-36.67h-1v-43.37h1z" stroke="#3a414a" stroke-width=".05" fill="#3a414a"/><path d="M1121.16 533.17h-1v-.5h1z" fill="#3a414a"/><path d="M1121.2 533.2h-1.06v-.57h1.05zm-1-.52v.46h.94v-.46z" stroke="#3a414a" stroke-width=".05" fill="#3a414a"/><path d="M1120.66 627.95l-4.63-14.26h9.27z" fill="#3a414a"/><path d="M1120.66 629.57l-5.32-16.38H1126zm-3.94-15.38l3.94 12.14 3.95-12.15z" stroke="#3a414a" stroke-width=".05" fill="#3a414a"/><g><use xlink:href="#F" transform="matrix(1,0,0,1,1116.218810567177,576.5333333333335) translate(0 14.222222222222223)"/></g><path d="M1145.1 629.65h-1v-31.78h1zm0-53.12h-1V550.3h1z" stroke="#3a414a" stroke-width=".05" fill="#3a414a"/><path d="M1145.1 630.17l-1-.03v-.5h1z" fill="#3a414a"/><path d="M1145.12 630.2l-1.05-.04v-.54h1.05zm-1-.53v.44l.95.04v-.47z" stroke="#3a414a" stroke-width=".05" fill="#3a414a"/><path d="M1149.23 549.8h-9.27l4.64-14.28z" fill="#3a414a"/><path d="M1149.92 550.3h-10.65l5.33-16.4zm-9.27-1h7.9l-3.95-12.16z" stroke="#3a414a" stroke-width=".05" fill="#3a414a"/><g><use xlink:href="#G" transform="matrix(1,0,0,1,1140.153810538388,576.5333333333335) translate(0 14.222222222222223)"/></g><path d="M842.5 614.46h-1v-14.2h1zm0-35.53h-1v-44.5h1z" stroke="#3a414a" stroke-width=".05" fill="#3a414a"/><path d="M842.5 534.45h-1v-.52h1z" fill="#3a414a"/><path d="M842.52 534.47h-1.04v-.56h1.04zm-1-.5v.45h.96v-.46z" stroke="#3a414a" stroke-width=".05" fill="#3a414a"/><path d="M842 629.23l-4.64-14.27h9.28z" fill="#3a414a"/><path d="M842 630.85l-5.32-16.4h10.64zm-3.95-15.4l3.95 12.16 3.95-12.14z" stroke="#3a414a" stroke-width=".05" fill="#3a414a"/><g><use xlink:href="#H" transform="matrix(1,0,0,1,837.5555555555171,578.9333333333335) translate(0 14.222222222222223)"/></g><defs><path fill="#fff" d="M1094-1034c0 310-213 470-541 465H362V0H176v-1462h404c343 0 514 143 514 428zM532-727c244-1 369-71 369-297 0-186-113-279-338-279H362v576h170" id="I"/><path fill="#fff" d="M578-131c239 0 309-137 309-397v-570h182V0H922l-27-147h-10C815-36 704 20 551 20c-261 0-391-134-391-401v-717h182v707c0 173 79 260 236 260" id="J"/><path fill="#fff" d="M532-1413l-268-21v-122h451v1413l352 20V0H188v-123l344-20v-1270" id="K"/><path fill="#fff" d="M1026-301c0 225-197 321-448 321-165 0-290-23-375-69v-166c129 57 252 86 370 86 183 0 275-54 275-162 0-38-16-71-49-99s-108-63-226-106c-156-57-253-112-293-160s-61-105-61-171c2-338 524-340 789-217l-60 149c-121-48-228-72-319-72-157 0-236 44-236 133 0 41 17 74 51 98s111 57 232 101c141 51 234 101 280 151s70 111 70 183" id="L"/><path fill="#fff" d="M596-1118c288 2 430 92 430 366V0H895l-37-152h-8C752-34 680 17 483 20 272 23 135-98 135-307c0-221 170-337 510-348l203-7c15-197-55-305-244-305-98 0-207 27-328 82l-63-137c131-64 258-96 383-96zm-72 991c194 0 325-116 322-311v-99c-251 15-522-6-522 232 0 119 67 178 200 178" id="M"/><path fill="#fff" d="M442-897c93-139 173-221 377-221 79 0 159 15 240 45l-49 166c-82-30-157-45-224-45-221 0-340 134-340 360V0H264v-1098h148l22 201h8" id="N"/><g id="a"><use transform="matrix(0.011935763888888886,0,0,0.011935763888888886,0,0)" xlink:href="#I"/><use transform="matrix(0.011935763888888886,0,0,0.011935763888888886,14.669053819444441,0)" xlink:href="#J"/><use transform="matrix(0.011935763888888886,0,0,0.011935763888888886,29.338107638888882,0)" xlink:href="#K"/><use transform="matrix(0.011935763888888886,0,0,0.011935763888888886,44.00716145833332,0)" xlink:href="#L"/><use transform="matrix(0.011935763888888886,0,0,0.011935763888888886,58.676215277777764,0)" xlink:href="#M"/><use transform="matrix(0.011935763888888886,0,0,0.011935763888888886,73.3452690972222,0)" xlink:href="#N"/></g><path fill="#fff" d="M866-1417c-164 2-207 56-211 215v104h389v137H655V0H473v-961H156v-110l317-33c-17-319 78-463 389-463 86 0 170 12 252 35l-41 143c-69-19-138-28-207-28" id="O"/><path fill="#fff" d="M887 0v-707c0-173-79-260-238-260-205 0-307 133-307 398V0H160v-1098h147l27 148h10c69-112 181-168 336-168 259 0 389 134 389 401V0H887" id="P"/><path fill="#fff" d="M172-543c0-365 197-575 553-575 119 0 231 20 336 59l-62 158c-100-38-189-57-268-57-247 0-371 138-371 413 0 271 120 406 361 406 105 0 212-21 321-62v160C953 0 843 20 713 20c-347 1-541-210-541-563" id="Q"/><path fill="#fff" d="M1020-150v138C933 9 849 20 768 20 527 20 406-95 406-324v-637H139v-94l267-49 77-287h105v293h438v137H588v637c0 130 64 195 192 195 62 0 142-7 240-21" id="R"/><path fill="#fff" d="M739-1436c0 71-43 115-106 115-71 0-107-38-107-115 0-76 36-114 107-114s106 38 106 114zM541-954l-269-21v-123h451v955l352 20V0H197v-123l344-20v-811" id="S"/><path fill="#fff" d="M1112-551c0 331-186 571-502 571-301 0-495-251-495-571 0-330 184-567 501-567 302 0 496 249 496 567zM614-131c207 0 310-140 310-420 0-277-104-416-312-416-206 0-309 139-309 416 0 280 104 420 311 420" id="T"/><g id="b"><use transform="matrix(0.011935763888888886,0,0,0.011935763888888886,0,0)" xlink:href="#O"/><use transform="matrix(0.011935763888888886,0,0,0.011935763888888886,14.669053819444441,0)" xlink:href="#J"/><use transform="matrix(0.011935763888888886,0,0,0.011935763888888886,29.338107638888882,0)" xlink:href="#P"/><use transform="matrix(0.011935763888888886,0,0,0.011935763888888886,44.00716145833332,0)" xlink:href="#Q"/><use transform="matrix(0.011935763888888886,0,0,0.011935763888888886,58.676215277777764,0)" xlink:href="#R"/><use transform="matrix(0.011935763888888886,0,0,0.011935763888888886,73.3452690972222,0)" xlink:href="#S"/><use transform="matrix(0.011935763888888886,0,0,0.011935763888888886,88.01432291666664,0)" xlink:href="#T"/><use transform="matrix(0.011935763888888886,0,0,0.011935763888888886,102.68337673611109,0)" xlink:href="#P"/></g><path fill="#fff" d="M813 0c-67-308-137-613-199-926h-6C551-608 477-306 408 0H219L-4-1098h162c53 313 118 604 155 936h6c53-329 132-625 201-936h193c63 300 147 629 194 936h6c45-366 103-603 162-936h158L1008 0H813" id="U"/><path fill="#fff" d="M383-553l135-152 395-393h222L641-623 1163 0H950L524-504l-129 82V0H215v-1556h180c-3 337 9 689-16 1003h4" id="V"/><path fill="#fff" d="M631-1118c283 0 470 204 465 491v113H322c5 250 120 375 344 375 130 0 253-25 370-76v160C925-5 804 20 672 20c-329 0-539-224-539-561 0-331 182-577 498-577zM326-662h573c0-203-91-305-272-305-183 0-284 102-301 305" id="W"/><g id="c"><use transform="matrix(0.011935763888888886,0,0,0.011935763888888886,0,0)" xlink:href="#U"/><use transform="matrix(0.011935763888888886,0,0,0.011935763888888886,14.669053819444441,0)" xlink:href="#T"/><use transform="matrix(0.011935763888888886,0,0,0.011935763888888886,29.338107638888882,0)" xlink:href="#N"/><use transform="matrix(0.011935763888888886,0,0,0.011935763888888886,44.00716145833332,0)" xlink:href="#V"/><use transform="matrix(0.011935763888888886,0,0,0.011935763888888886,58.676215277777764,0)" xlink:href="#W"/><use transform="matrix(0.011935763888888886,0,0,0.011935763888888886,73.3452690972222,0)" xlink:href="#N"/></g><path fill="#3a414a" d="M373-604V0H186v-1462h357c347 0 520 138 520 415 0 191-96 322-289 392L1171 0H952L602-604H373zm497-434c0-207-118-263-338-265H373v541h164c215-1 333-70 333-276" id="X"/><path fill="#3a414a" d="M1059 0H217v-1462h842v164H403v452h617v162H403v520h656V0" id="Y"/><path fill="#3a414a" d="M1087-391c0 281-226 411-532 411-177 0-315-23-414-69v-178c141 57 279 86 414 86 233 0 350-80 350-240 0-69-24-123-71-160s-142-82-285-133c-139-49-239-106-299-174s-90-156-90-264c2-252 211-371 481-371 153 0 291 26 416 78l-64 164c-129-52-249-78-360-78-195 0-293 70-293 209 0 68 22 123 66 164s134 85 270 133c164 58 273 119 328 181s83 143 83 241" id="Z"/><path fill="#3a414a" d="M707 0H520v-1298H102v-164h1022v164H707V0" id="aa"/><g id="f"><use transform="matrix(0.009765624999999998,0,0,0.009765624999999998,0,0)" xlink:href="#X"/><use transform="matrix(0.009765624999999998,0,0,0.009765624999999998,12.001953124999998,0)" xlink:href="#Y"/><use transform="matrix(0.009765624999999998,0,0,0.009765624999999998,24.003906249999996,0)" xlink:href="#Z"/><use transform="matrix(0.009765624999999998,0,0,0.009765624999999998,36.00585937499999,0)" xlink:href="#aa"/></g><path fill="#3a414a" d="M1026-301c0 225-197 321-448 321-165 0-290-23-375-69v-166c129 57 252 86 370 86 183 0 275-54 275-162 0-38-16-71-49-99s-108-63-226-106c-156-57-253-112-293-160s-61-105-61-171c2-338 524-340 789-217l-60 149c-121-48-228-72-319-72-157 0-236 44-236 133 0 41 17 74 51 98s111 57 232 101c141 51 234 101 280 151s70 111 70 183" id="ab"/><path fill="#3a414a" d="M631-1118c283 0 470 204 465 491v113H322c5 250 120 375 344 375 130 0 253-25 370-76v160C925-5 804 20 672 20c-329 0-539-224-539-561 0-331 182-577 498-577zM326-662h573c0-203-91-305-272-305-183 0-284 102-301 305" id="ac"/><path fill="#3a414a" d="M442-897c93-139 173-221 377-221 79 0 159 15 240 45l-49 166c-82-30-157-45-224-45-221 0-340 134-340 360V0H264v-1098h148l22 201h8" id="ad"/><path fill="#3a414a" d="M498 0L82-1098h188l240 652c57 154 90 262 100 325h6c67-256 244-708 340-977h189L729 0H498" id="ae"/><g id="g"><use transform="matrix(0.009765624999999998,0,0,0.009765624999999998,0,0)" xlink:href="#ab"/><use transform="matrix(0.009765624999999998,0,0,0.009765624999999998,12.001953124999998,0)" xlink:href="#ac"/><use transform="matrix(0.009765624999999998,0,0,0.009765624999999998,24.003906249999996,0)" xlink:href="#ad"/><use transform="matrix(0.009765624999999998,0,0,0.009765624999999998,36.00585937499999,0)" xlink:href="#ae"/><use transform="matrix(0.009765624999999998,0,0,0.009765624999999998,48.00781249999999,0)" xlink:href="#ac"/><use transform="matrix(0.009765624999999998,0,0,0.009765624999999998,60.009765624999986,0)" xlink:href="#ad"/></g><path fill="#3a414a" d="M430 0H244v-1462h841v164H430v516h617v164H430V0" id="af"/><path fill="#3a414a" d="M578-131c239 0 309-137 309-397v-570h182V0H922l-27-147h-10C815-36 704 20 551 20c-261 0-391-134-391-401v-717h182v707c0 173 79 260 236 260" id="ag"/><path fill="#3a414a" d="M887 0v-707c0-173-79-260-238-260-205 0-307 133-307 398V0H160v-1098h147l27 148h10c69-112 181-168 336-168 259 0 389 134 389 401V0H887" id="ah"/><path fill="#3a414a" d="M172-543c0-365 197-575 553-575 119 0 231 20 336 59l-62 158c-100-38-189-57-268-57-247 0-371 138-371 413 0 271 120 406 361 406 105 0 212-21 321-62v160C953 0 843 20 713 20c-347 1-541-210-541-563" id="ai"/><path fill="#3a414a" d="M1020-150v138C933 9 849 20 768 20 527 20 406-95 406-324v-637H139v-94l267-49 77-287h105v293h438v137H588v637c0 130 64 195 192 195 62 0 142-7 240-21" id="aj"/><path fill="#3a414a" d="M739-1436c0 71-43 115-106 115-71 0-107-38-107-115 0-76 36-114 107-114s106 38 106 114zM541-954l-269-21v-123h451v955l352 20V0H197v-123l344-20v-811" id="ak"/><path fill="#3a414a" d="M1112-551c0 331-186 571-502 571-301 0-495-251-495-571 0-330 184-567 501-567 302 0 496 249 496 567zM614-131c207 0 310-140 310-420 0-277-104-416-312-416-206 0-309 139-309 416 0 280 104 420 311 420" id="al"/><g id="h"><use transform="matrix(0.009765624999999998,0,0,0.009765624999999998,0,0)" xlink:href="#af"/><use transform="matrix(0.009765624999999998,0,0,0.009765624999999998,12.001953124999998,0)" xlink:href="#ag"/><use transform="matrix(0.009765624999999998,0,0,0.009765624999999998,24.003906249999996,0)" xlink:href="#ah"/><use transform="matrix(0.009765624999999998,0,0,0.009765624999999998,36.00585937499999,0)" xlink:href="#ai"/><use transform="matrix(0.009765624999999998,0,0,0.009765624999999998,48.00781249999999,0)" xlink:href="#aj"/><use transform="matrix(0.009765624999999998,0,0,0.009765624999999998,60.009765624999986,0)" xlink:href="#ak"/><use transform="matrix(0.009765624999999998,0,0,0.009765624999999998,72.01171874999999,0)" xlink:href="#al"/><use transform="matrix(0.009765624999999998,0,0,0.009765624999999998,84.01367187499999,0)" xlink:href="#ah"/></g><path fill="#3a414a" d="M977 0v-707c0-97-9-165-27-203s-47-57-88-57c-58 0-100 28-126 83s-40 148-40 278V0H535v-707c0-173-42-260-125-260-56 0-96 26-120 79s-36 160-36 319V0H92v-1098h127l27 148h10c45-112 112-168 201-168 109 0 180 61 213 182h6c51-121 124-182 219-182 85 0 147 30 186 92s58 165 58 309V0H977" id="am"/><path fill="#3a414a" d="M596-1118c288 2 430 92 430 366V0H895l-37-152h-8C752-34 680 17 483 20 272 23 135-98 135-307c0-221 170-337 510-348l203-7c15-197-55-305-244-305-98 0-207 27-328 82l-63-137c131-64 258-96 383-96zm-72 991c194 0 325-116 322-311v-99c-251 15-522-6-522 232 0 119 67 178 200 178" id="an"/><path fill="#3a414a" d="M137-547c0-322 136-571 430-571 137 0 245 53 322 160h12c-24-215-7-376-12-598h182V0H924l-27-147h-8C814-36 706 20 567 20c-294 0-430-246-430-567zm463 416c241 0 288-157 289-416 0-151-23-259-69-323s-121-97-222-97c-181 0-272 141-272 422 0 276 91 414 274 414" id="ao"/><g id="i"><use transform="matrix(0.009765624999999998,0,0,0.009765624999999998,0,0)" xlink:href="#am"/><use transform="matrix(0.009765624999999998,0,0,0.009765624999999998,12.001953124999998,0)" xlink:href="#ac"/><use transform="matrix(0.009765624999999998,0,0,0.009765624999999998,24.003906249999996,0)" xlink:href="#aj"/><use transform="matrix(0.009765624999999998,0,0,0.009765624999999998,36.00585937499999,0)" xlink:href="#an"/><use transform="matrix(0.009765624999999998,0,0,0.009765624999999998,48.00781249999999,0)" xlink:href="#ao"/><use transform="matrix(0.009765624999999998,0,0,0.009765624999999998,60.009765624999986,0)" xlink:href="#an"/><use transform="matrix(0.009765624999999998,0,0,0.009765624999999998,72.01171874999999,0)" xlink:href="#aj"/><use transform="matrix(0.009765624999999998,0,0,0.009765624999999998,84.01367187499999,0)" xlink:href="#an"/></g><path fill="#3a414a" d="M188-739c-1-248 156-381 410-379 57 0 107 7 150 20h378v113l-196 27c43 57 65 128 65 213 2 253-212 385-489 346-67 37-100 82-100 133 0 56 54 84 161 84h187c216-2 358 93 358 297 0 251-188 377-565 377-145 0-255-26-331-80S102 283 102 186c0-141 80-231 240-270-64-31-96-83-96-154 0-75 44-139 133-192-109-41-191-166-191-309zm406 221c149 0 223-77 223-230 0-159-75-239-225-239s-225 81-225 242c0 151 76 227 227 227zm346 649c0-146-78-149-248-149H504c-153 0-230 66-230 198 0 116 90 174 271 174 263 0 395-74 395-223" id="ap"/><g id="j"><use transform="matrix(0.009765624999999998,0,0,0.009765624999999998,0,0)" xlink:href="#am"/><use transform="matrix(0.009765624999999998,0,0,0.009765624999999998,12.001953124999998,0)" xlink:href="#an"/><use transform="matrix(0.009765624999999998,0,0,0.009765624999999998,24.003906249999996,0)" xlink:href="#ah"/><use transform="matrix(0.009765624999999998,0,0,0.009765624999999998,36.00585937499999,0)" xlink:href="#an"/><use transform="matrix(0.009765624999999998,0,0,0.009765624999999998,48.00781249999999,0)" xlink:href="#ap"/><use transform="matrix(0.009765624999999998,0,0,0.009765624999999998,60.009765624999986,0)" xlink:href="#ac"/><use transform="matrix(0.009765624999999998,0,0,0.009765624999999998,72.01171874999999,0)" xlink:href="#ad"/></g><path fill="#3a414a" d="M887 0v-707c0-173-79-260-238-260-205 0-307 133-307 398V0H160v-1556h182c-2 202 6 416-8 606h10c69-112 181-168 336-168 259 0 389 134 389 401V0H887" id="aq"/><path fill="#3a414a" d="M532-1413l-268-21v-122h451v1413l352 20V0H188v-123l344-20v-1270" id="ar"/><g id="k"><use transform="matrix(0.009765624999999998,0,0,0.009765624999999998,0,0)" xlink:href="#Z"/><use transform="matrix(0.009765624999999998,0,0,0.009765624999999998,12.001953124999998,0)" xlink:href="#ai"/><use transform="matrix(0.009765624999999998,0,0,0.009765624999999998,24.003906249999996,0)" xlink:href="#aq"/><use transform="matrix(0.009765624999999998,0,0,0.009765624999999998,36.00585937499999,0)" xlink:href="#ac"/><use transform="matrix(0.009765624999999998,0,0,0.009765624999999998,48.00781249999999,0)" xlink:href="#ao"/><use transform="matrix(0.009765624999999998,0,0,0.009765624999999998,60.009765624999986,0)" xlink:href="#ag"/><use transform="matrix(0.009765624999999998,0,0,0.009765624999999998,72.01171874999999,0)" xlink:href="#ar"/><use transform="matrix(0.009765624999999998,0,0,0.009765624999999998,84.01367187499999,0)" xlink:href="#ac"/></g><g id="l"><use transform="matrix(0.009765624999999998,0,0,0.009765624999999998,0,0)" xlink:href="#af"/><use transform="matrix(0.009765624999999998,0,0,0.009765624999999998,12.001953124999998,0)" xlink:href="#ag"/><use transform="matrix(0.009765624999999998,0,0,0.009765624999999998,24.003906249999996,0)" xlink:href="#ah"/><use transform="matrix(0.009765624999999998,0,0,0.009765624999999998,36.00585937499999,0)" xlink:href="#ai"/><use transform="matrix(0.009765624999999998,0,0,0.009765624999999998,48.00781249999999,0)" xlink:href="#aj"/><use transform="matrix(0.009765624999999998,0,0,0.009765624999999998,60.009765624999986,0)" xlink:href="#ak"/><use transform="matrix(0.009765624999999998,0,0,0.009765624999999998,72.01171874999999,0)" xlink:href="#al"/><use transform="matrix(0.009765624999999998,0,0,0.009765624999999998,84.01367187499999,0)" xlink:href="#ah"/></g><g id="m"><use transform="matrix(0.009765624999999998,0,0,0.009765624999999998,0,0)" xlink:href="#ad"/><use transform="matrix(0.009765624999999998,0,0,0.009765624999999998,12.001953124999998,0)" xlink:href="#ag"/><use transform="matrix(0.009765624999999998,0,0,0.009765624999999998,24.003906249999996,0)" xlink:href="#ah"/><use transform="matrix(0.009765624999999998,0,0,0.009765624999999998,36.00585937499999,0)" xlink:href="#aj"/><use transform="matrix(0.009765624999999998,0,0,0.009765624999999998,48.00781249999999,0)" xlink:href="#ak"/><use transform="matrix(0.009765624999999998,0,0,0.009765624999999998,60.009765624999986,0)" xlink:href="#am"/><use transform="matrix(0.009765624999999998,0,0,0.009765624999999998,72.01171874999999,0)" xlink:href="#ac"/></g><g id="n"><use transform="matrix(0.009765624999999998,0,0,0.009765624999999998,0,0)" xlink:href="#am"/><use transform="matrix(0.009765624999999998,0,0,0.009765624999999998,12.001953124999998,0)" xlink:href="#an"/><use transform="matrix(0.009765624999999998,0,0,0.009765624999999998,24.003906249999996,0)" xlink:href="#ah"/><use transform="matrix(0.009765624999999998,0,0,0.009765624999999998,36.00585937499999,0)" xlink:href="#an"/><use transform="matrix(0.009765624999999998,0,0,0.009765624999999998,48.00781249999999,0)" xlink:href="#ap"/><use transform="matrix(0.009765624999999998,0,0,0.009765624999999998,60.009765624999986,0)" xlink:href="#ac"/><use transform="matrix(0.009765624999999998,0,0,0.009765624999999998,72.01171874999999,0)" xlink:href="#ad"/></g><path fill="#3a414a" d="M532 0L254-1280h-8c34 456 12 817 18 1280H113v-1462h247L608-270h6l250-1192h252V0H963c5-467-12-807 14-1278h-8L686 0H532" id="as"/><path fill="#3a414a" d="M1092-551c0 322-136 571-430 571-138 0-245-53-322-159h-12L291 0H158v-1556h182c-2 221 6 379-8 602h8c71-109 179-164 322-164 294 0 430 246 430 567zM629-967c-241 0-289 146-289 416 0 151 24 259 70 323s120 97 221 97c181 0 272-141 272-422 0-276-91-414-274-414" id="at"/><path fill="#3a414a" d="M1092-551c0 322-136 571-430 571-138 0-245-53-322-159h-12c24 220 7 402 12 631H158v-1590h147l27 148h8c73-112 181-168 322-168 294 0 430 246 430 567zM629-967c-241 0-288 156-289 416 0 151 24 259 70 323s120 97 221 97c181 0 272-141 272-422 0-276-91-414-274-414" id="au"/><g id="o"><use transform="matrix(0.009765624999999998,0,0,0.009765624999999998,0,0)" xlink:href="#as"/><use transform="matrix(0.009765624999999998,0,0,0.009765624999999998,12.001953124999998,0)" xlink:href="#ac"/><use transform="matrix(0.009765624999999998,0,0,0.009765624999999998,24.003906249999996,0)" xlink:href="#am"/><use transform="matrix(0.009765624999999998,0,0,0.009765624999999998,36.00585937499999,0)" xlink:href="#at"/><use transform="matrix(0.009765624999999998,0,0,0.009765624999999998,48.00781249999999,0)" xlink:href="#ac"/><use transform="matrix(0.009765624999999998,0,0,0.009765624999999998,60.009765624999986,0)" xlink:href="#ad"/><use transform="matrix(0.009765624999999998,0,0,0.009765624999999998,72.01171874999999,0)" xlink:href="#ab"/><use transform="matrix(0.009765624999999998,0,0,0.009765624999999998,84.01367187499999,0)" xlink:href="#aq"/><use transform="matrix(0.009765624999999998,0,0,0.009765624999999998,96.01562499999999,0)" xlink:href="#ak"/><use transform="matrix(0.009765624999999998,0,0,0.009765624999999998,108.01757812499999,0)" xlink:href="#au"/></g><path fill="#3a414a" d="M1104-516c1 337-164 537-496 536-322 0-483-180-483-540v-942h186v932c0 258 102 387 307 387 197 0 300-130 300-389v-932h186v948" id="av"/><g id="p"><use transform="matrix(0.009765624999999998,0,0,0.009765624999999998,0,0)" xlink:href="#av"/><use transform="matrix(0.009765624999999998,0,0,0.009765624999999998,12.001953124999998,0)" xlink:href="#ab"/><use transform="matrix(0.009765624999999998,0,0,0.009765624999999998,24.003906249999996,0)" xlink:href="#ac"/><use transform="matrix(0.009765624999999998,0,0,0.009765624999999998,36.00585937499999,0)" xlink:href="#ad"/><use transform="matrix(0.009765624999999998,0,0,0.009765624999999998,48.00781249999999,0)" xlink:href="#ab"/></g><g id="q"><use transform="matrix(0.009765624999999998,0,0,0.009765624999999998,0,0)" xlink:href="#am"/><use transform="matrix(0.009765624999999998,0,0,0.009765624999999998,12.001953124999998,0)" xlink:href="#ac"/><use transform="matrix(0.009765624999999998,0,0,0.009765624999999998,24.003906249999996,0)" xlink:href="#aj"/><use transform="matrix(0.009765624999999998,0,0,0.009765624999999998,36.00585937499999,0)" xlink:href="#an"/><use transform="matrix(0.009765624999999998,0,0,0.009765624999999998,48.00781249999999,0)" xlink:href="#ao"/><use transform="matrix(0.009765624999999998,0,0,0.009765624999999998,60.009765624999986,0)" xlink:href="#an"/><use transform="matrix(0.009765624999999998,0,0,0.009765624999999998,72.01171874999999,0)" xlink:href="#aj"/><use transform="matrix(0.009765624999999998,0,0,0.009765624999999998,84.01367187499999,0)" xlink:href="#an"/></g><g id="r"><use transform="matrix(0.009765624999999998,0,0,0.009765624999999998,0,0)" xlink:href="#aj"/><use transform="matrix(0.009765624999999998,0,0,0.009765624999999998,12.001953124999998,0)" xlink:href="#al"/><use transform="matrix(0.009765624999999998,0,0,0.009765624999999998,24.003906249999996,0)" xlink:href="#au"/><use transform="matrix(0.009765624999999998,0,0,0.009765624999999998,36.00585937499999,0)" xlink:href="#ak"/><use transform="matrix(0.009765624999999998,0,0,0.009765624999999998,48.00781249999999,0)" xlink:href="#ai"/></g><path fill="#3a414a" d="M1004 0L860-453H369L223 0H33l483-1468h195L1196 0h-192zM807-618c-63-210-144-435-195-650-51 232-127 431-190 650h385" id="aw"/><g id="s"><use transform="matrix(0.009765624999999998,0,0,0.009765624999999998,0,0)" xlink:href="#aw"/><use transform="matrix(0.009765624999999998,0,0,0.009765624999999998,12.001953124999998,0)" xlink:href="#ab"/><use transform="matrix(0.009765624999999998,0,0,0.009765624999999998,24.003906249999996,0)" xlink:href="#ab"/><use transform="matrix(0.009765624999999998,0,0,0.009765624999999998,36.00585937499999,0)" xlink:href="#ak"/><use transform="matrix(0.009765624999999998,0,0,0.009765624999999998,48.00781249999999,0)" xlink:href="#ap"/><use transform="matrix(0.009765624999999998,0,0,0.009765624999999998,60.009765624999986,0)" xlink:href="#ah"/><use transform="matrix(0.009765624999999998,0,0,0.009765624999999998,72.01171874999999,0)" xlink:href="#am"/><use transform="matrix(0.009765624999999998,0,0,0.009765624999999998,84.01367187499999,0)" xlink:href="#ac"/><use transform="matrix(0.009765624999999998,0,0,0.009765624999999998,96.01562499999999,0)" xlink:href="#ah"/><use transform="matrix(0.009765624999999998,0,0,0.009765624999999998,108.01757812499999,0)" xlink:href="#aj"/></g><path fill="#3a414a" d="M326-731c0 353 139 584 471 588 87 0 196-19 327-58v162c-97 39-217 59-358 59-433-1-637-301-637-753 0-438 243-750 668-750 147 0 274 29 383 86l-78 156c-103-52-204-78-305-78-307 1-471 259-471 588" id="ax"/><g id="t"><use transform="matrix(0.009765624999999998,0,0,0.009765624999999998,0,0)" xlink:href="#ax"/><use transform="matrix(0.009765624999999998,0,0,0.009765624999999998,12.001953124999998,0)" xlink:href="#al"/><use transform="matrix(0.009765624999999998,0,0,0.009765624999999998,24.003906249999996,0)" xlink:href="#al"/><use transform="matrix(0.009765624999999998,0,0,0.009765624999999998,36.00585937499999,0)" xlink:href="#ad"/><use transform="matrix(0.009765624999999998,0,0,0.009765624999999998,48.00781249999999,0)" xlink:href="#ao"/><use transform="matrix(0.009765624999999998,0,0,0.009765624999999998,60.009765624999986,0)" xlink:href="#ak"/><use transform="matrix(0.009765624999999998,0,0,0.009765624999999998,72.01171874999999,0)" xlink:href="#ah"/><use transform="matrix(0.009765624999999998,0,0,0.009765624999999998,84.01367187499999,0)" xlink:href="#an"/><use transform="matrix(0.009765624999999998,0,0,0.009765624999999998,96.01562499999999,0)" xlink:href="#aj"/><use transform="matrix(0.009765624999999998,0,0,0.009765624999999998,108.01757812499999,0)" xlink:href="#ak"/><use transform="matrix(0.009765624999999998,0,0,0.009765624999999998,120.01953124999997,0)" xlink:href="#al"/><use transform="matrix(0.009765624999999998,0,0,0.009765624999999998,132.02148437499997,0)" xlink:href="#ah"/></g><g id="u"><use transform="matrix(0.009765624999999998,0,0,0.009765624999999998,0,0)" xlink:href="#aj"/><use transform="matrix(0.009765624999999998,0,0,0.009765624999999998,12.001953124999998,0)" xlink:href="#al"/><use transform="matrix(0.009765624999999998,0,0,0.009765624999999998,24.003906249999996,0)" xlink:href="#au"/><use transform="matrix(0.009765624999999998,0,0,0.009765624999999998,36.00585937499999,0)" xlink:href="#ak"/><use transform="matrix(0.009765624999999998,0,0,0.009765624999999998,48.00781249999999,0)" xlink:href="#ai"/></g><path fill="#474e55" d="M430 0H244v-1462h841v164H430v516h617v164H430V0" id="ay"/><path fill="#474e55" d="M578-131c239 0 309-137 309-397v-570h182V0H922l-27-147h-10C815-36 704 20 551 20c-261 0-391-134-391-401v-717h182v707c0 173 79 260 236 260" id="az"/><path fill="#474e55" d="M887 0v-707c0-173-79-260-238-260-205 0-307 133-307 398V0H160v-1098h147l27 148h10c69-112 181-168 336-168 259 0 389 134 389 401V0H887" id="aA"/><path fill="#474e55" d="M172-543c0-365 197-575 553-575 119 0 231 20 336 59l-62 158c-100-38-189-57-268-57-247 0-371 138-371 413 0 271 120 406 361 406 105 0 212-21 321-62v160C953 0 843 20 713 20c-347 1-541-210-541-563" id="aB"/><path fill="#474e55" d="M1020-150v138C933 9 849 20 768 20 527 20 406-95 406-324v-637H139v-94l267-49 77-287h105v293h438v137H588v637c0 130 64 195 192 195 62 0 142-7 240-21" id="aC"/><path fill="#474e55" d="M739-1436c0 71-43 115-106 115-71 0-107-38-107-115 0-76 36-114 107-114s106 38 106 114zM541-954l-269-21v-123h451v955l352 20V0H197v-123l344-20v-811" id="aD"/><path fill="#474e55" d="M1112-551c0 331-186 571-502 571-301 0-495-251-495-571 0-330 184-567 501-567 302 0 496 249 496 567zM614-131c207 0 310-140 310-420 0-277-104-416-312-416-206 0-309 139-309 416 0 280 104 420 311 420" id="aE"/><g id="v"><use transform="matrix(0.00987413194444444,0,0,0.00987413194444444,0,0)" xlink:href="#ay"/><use transform="matrix(0.00987413194444444,0,0,0.00987413194444444,12.135308159722218,0)" xlink:href="#az"/><use transform="matrix(0.00987413194444444,0,0,0.00987413194444444,24.270616319444436,0)" xlink:href="#aA"/><use transform="matrix(0.00987413194444444,0,0,0.00987413194444444,36.40592447916666,0)" xlink:href="#aB"/><use transform="matrix(0.00987413194444444,0,0,0.00987413194444444,48.54123263888887,0)" xlink:href="#aC"/><use transform="matrix(0.00987413194444444,0,0,0.00987413194444444,60.676540798611086,0)" xlink:href="#aD"/><use transform="matrix(0.00987413194444444,0,0,0.00987413194444444,72.8118489583333,0)" xlink:href="#aE"/><use transform="matrix(0.00987413194444444,0,0,0.00987413194444444,84.94715711805553,0)" xlink:href="#aA"/></g><path fill="#474e55" d="M1026-301c0 225-197 321-448 321-165 0-290-23-375-69v-166c129 57 252 86 370 86 183 0 275-54 275-162 0-38-16-71-49-99s-108-63-226-106c-156-57-253-112-293-160s-61-105-61-171c2-338 524-340 789-217l-60 149c-121-48-228-72-319-72-157 0-236 44-236 133 0 41 17 74 51 98s111 57 232 101c141 51 234 101 280 151s70 111 70 183" id="aF"/><path fill="#474e55" d="M596-1118c288 2 430 92 430 366V0H895l-37-152h-8C752-34 680 17 483 20 272 23 135-98 135-307c0-221 170-337 510-348l203-7c15-197-55-305-244-305-98 0-207 27-328 82l-63-137c131-64 258-96 383-96zm-72 991c194 0 325-116 322-311v-99c-251 15-522-6-522 232 0 119 67 178 200 178" id="aG"/><path fill="#474e55" d="M631-1118c283 0 470 204 465 491v113H322c5 250 120 375 344 375 130 0 253-25 370-76v160C925-5 804 20 672 20c-329 0-539-224-539-561 0-331 182-577 498-577zM326-662h573c0-203-91-305-272-305-183 0-284 102-301 305" id="aH"/><g id="w"><use transform="matrix(0.00987413194444444,0,0,0.00987413194444444,0,0)" xlink:href="#aD"/><use transform="matrix(0.00987413194444444,0,0,0.00987413194444444,12.135308159722218,0)" xlink:href="#aA"/><use transform="matrix(0.00987413194444444,0,0,0.00987413194444444,24.270616319444436,0)" xlink:href="#aF"/><use transform="matrix(0.00987413194444444,0,0,0.00987413194444444,36.40592447916666,0)" xlink:href="#aC"/><use transform="matrix(0.00987413194444444,0,0,0.00987413194444444,48.54123263888887,0)" xlink:href="#aG"/><use transform="matrix(0.00987413194444444,0,0,0.00987413194444444,60.676540798611086,0)" xlink:href="#aA"/><use transform="matrix(0.00987413194444444,0,0,0.00987413194444444,72.8118489583333,0)" xlink:href="#aB"/><use transform="matrix(0.00987413194444444,0,0,0.00987413194444444,84.94715711805553,0)" xlink:href="#aH"/></g><g id="x"><use transform="matrix(0.00987413194444444,0,0,0.00987413194444444,0,0)" xlink:href="#ay"/><use transform="matrix(0.00987413194444444,0,0,0.00987413194444444,12.135308159722218,0)" xlink:href="#az"/><use transform="matrix(0.00987413194444444,0,0,0.00987413194444444,24.270616319444436,0)" xlink:href="#aA"/><use transform="matrix(0.00987413194444444,0,0,0.00987413194444444,36.40592447916666,0)" xlink:href="#aB"/><use transform="matrix(0.00987413194444444,0,0,0.00987413194444444,48.54123263888887,0)" xlink:href="#aC"/><use transform="matrix(0.00987413194444444,0,0,0.00987413194444444,60.676540798611086,0)" xlink:href="#aD"/><use transform="matrix(0.00987413194444444,0,0,0.00987413194444444,72.8118489583333,0)" xlink:href="#aE"/><use transform="matrix(0.00987413194444444,0,0,0.00987413194444444,84.94715711805553,0)" xlink:href="#aA"/></g><g id="y"><use transform="matrix(0.00987413194444444,0,0,0.00987413194444444,0,0)" xlink:href="#aD"/><use transform="matrix(0.00987413194444444,0,0,0.00987413194444444,12.135308159722218,0)" xlink:href="#aA"/><use transform="matrix(0.00987413194444444,0,0,0.00987413194444444,24.270616319444436,0)" xlink:href="#aF"/><use transform="matrix(0.00987413194444444,0,0,0.00987413194444444,36.40592447916666,0)" xlink:href="#aC"/><use transform="matrix(0.00987413194444444,0,0,0.00987413194444444,48.54123263888887,0)" xlink:href="#aG"/><use transform="matrix(0.00987413194444444,0,0,0.00987413194444444,60.676540798611086,0)" xlink:href="#aA"/><use transform="matrix(0.00987413194444444,0,0,0.00987413194444444,72.8118489583333,0)" xlink:href="#aB"/><use transform="matrix(0.00987413194444444,0,0,0.00987413194444444,84.94715711805553,0)" xlink:href="#aH"/></g><path fill="#3a414a" d="M45-37c13 0 21 8 21 21C67-2 57 4 45 5 33 4 23-2 24-16c0-13 8-21 21-21" id="aI"/><g id="z"><use transform="matrix(0.08024691358024691,0,0,0.08024691358024691,0,0)" xlink:href="#aI"/><use transform="matrix(0.08024691358024691,0,0,0.08024691358024691,7.222222222222221,0)" xlink:href="#aI"/><use transform="matrix(0.08024691358024691,0,0,0.08024691358024691,14.444444444444443,0)" xlink:href="#aI"/></g><path fill="#333" d="M120-19l41 4V0H29v-15l41-4v-178l-41 13v-15l66-39h25v219" id="aJ"/><use transform="matrix(0.04938271604938272,0,0,0.04938271604938272,0,0)" xlink:href="#aJ" id="A"/><path fill="#333" d="M23-231c66-19 162-2 134 80C139-97 87-78 49-40h116V0H15v-33c34-46 90-67 94-145 2-38-37-54-63-33l-8 34H23v-54" id="aK"/><use transform="matrix(0.04938271604938272,0,0,0.04938271604938272,0,0)" xlink:href="#aK" id="B"/><path fill="#333" d="M108-123c37 3 59 22 60 59C169 8 81 11 16-4l-2-57h16c4 25 8 49 41 47 31-1 44-21 45-52 2-37-24-47-61-46v-22c33 1 52-9 50-44 6-38-35-53-61-33l-7 34H21v-54c52-13 140-14 136 51-2 33-19 52-49 57" id="aL"/><use transform="matrix(0.04938271604938272,0,0,0.04938271604938272,0,0)" xlink:href="#aL" id="C"/><path fill="#333" d="M150-47V0h-48v-47H5v-28l106-162h39v154h23v36h-23zm-48-36l2-107L34-83h68" id="aM"/><use transform="matrix(0.04938271604938272,0,0,0.04938271604938272,0,0)" xlink:href="#aM" id="D"/><path fill="#333" d="M64-135c49-21 105 0 105 62 0 50-26 77-73 77-64 0-82-53-84-120-2-89 54-142 143-115v54h-15c4-38-43-60-62-22-8 16-12 39-14 64zm54 65c3-37-19-64-54-46 3 43-3 92 31 102 23-3 21-26 23-56" id="aN"/><use transform="matrix(0.04938271604938272,0,0,0.04938271604938272,0,0)" xlink:href="#aN" id="E"/><path fill="#333" d="M36-168H21v-68h150v14L80 0H38l99-197H44" id="aO"/><use transform="matrix(0.04938271604938272,0,0,0.04938271604938272,0,0)" xlink:href="#aO" id="F"/><path fill="#333" d="M90-239c77 0 97 95 36 114 24 9 42 28 42 61 0 48-28 68-79 68-49 0-77-20-77-68 1-33 17-52 41-61-21-8-36-26-36-53 0-42 29-61 73-61zM89-14c26 0 29-23 29-50s-2-51-29-51c-26 0-27 24-27 51s2 50 27 50zm0-120c36-1 33-87 0-88-31 3-32 86 0 88" id="aP"/><use transform="matrix(0.04938271604938272,0,0,0.04938271604938272,0,0)" xlink:href="#aP" id="G"/><path fill="#333" d="M46-135c59-12 121 1 121 65C167 6 84 13 17-4l-3-57h17c4 25 9 49 44 47 30-2 40-23 40-54 0-46-35-65-71-47H26v-121h123v39H46v62" id="aQ"/><use transform="matrix(0.04938271604938272,0,0,0.04938271604938272,0,0)" xlink:href="#aQ" id="H"/></defs></g></svg>