<svg xmlns="http://www.w3.org/2000/svg" xmlns:xlink="http://www.w3.org/1999/xlink" xmlns:lucid="lucid" width="1311.29" height="720"><g transform="translate(-181.01102670536204 -72.15280523855222)" lucid:page-tab-id="0_0"><path d="M0 0h1870.87v1322.83H0z" fill="#fff"/><path d="M409 92.15c28.73 0 52 26.87 52 60 0 33.14-23.27 60-52 60H253c-28.7 0-52-26.86-52-60 0-33.13 23.3-60 52-60z" stroke="#000" stroke-width="3" fill="#fff"/><use xlink:href="#a" transform="matrix(1,0,0,1,206.01102670536204,97.15280523855222) translate(20.9830729166667 62.56510416666666)"/><use xlink:href="#b" transform="matrix(1,0,0,1,206.01102670536204,97.15280523855222) translate(116.99869791666667 62.56510416666666)"/><use xlink:href="#c" transform="matrix(1,0,0,1,206.01102670536204,97.15280523855222) translate(213.01432291666663 62.56510416666666)"/><path d="M409 292.15c28.73 0 52 26.87 52 60 0 33.14-23.27 60-52 60H253c-28.7 0-52-26.86-52-60 0-33.13 23.3-60 52-60z" stroke="#000" stroke-width="3" fill="#fff"/><use xlink:href="#a" transform="matrix(1,0,0,1,206.01102670536204,297.1528052385522) translate(20.9830729166667 62.56510416666666)"/><use xlink:href="#b" transform="matrix(1,0,0,1,206.01102670536204,297.1528052385522) translate(116.99869791666667 62.56510416666666)"/><use xlink:href="#d" transform="matrix(1,0,0,1,206.01102670536204,297.1528052385522) translate(213.01432291666663 62.56510416666666)"/><path d="M409 492.15c28.73 0 52 26.87 52 60 0 33.14-23.27 60-52 60H253c-28.7 0-52-26.86-52-60 0-33.13 23.3-60 52-60z" stroke="#000" stroke-width="3" fill="#fff"/><use xlink:href="#a" transform="matrix(1,0,0,1,206.01102670536204,497.1528052385522) translate(20.9830729166667 62.56510416666666)"/><use xlink:href="#b" transform="matrix(1,0,0,1,206.01102670536204,497.1528052385522) translate(116.99869791666667 62.56510416666666)"/><use xlink:href="#e" transform="matrix(1,0,0,1,206.01102670536204,497.1528052385522) translate(213.01432291666663 62.56510416666666)"/><path d="M582.5 174.13a6 6 0 0 1 6-6h496.3a6 6 0 0 1 6 6V527.6a6 6 0 0 1-6 6H588.5a6 6 0 0 1-6-6z" fill="#fff"/><path d="M585.5 174.13c0 1.66-1.33 3-3 3-1.64 0-3-1.34-3-3s1.36-3 3-3c1.67 0 3 1.34 3 3zm5.08-5.93c0 1.66-1.35 3-3 3-1.66 0-3-1.34-3-3 0-1.65 1.34-3 3-3 1.65 0 3 1.35 3 3zm12.12 0c0 1.66-1.34 3-3 3-1.65 0-3-1.34-3-3s1.35-3 3-3c1.66 0 3 1.34 3 3zm12.13 0c0 1.66-1.34 3-3 3s-3-1.34-3-3 1.34-3 3-3 3 1.34 3 3zm12.13 0c0 1.65-1.35 3-3 3-1.66 0-3-1.35-3-3 0-1.66 1.34-3 3-3 1.65 0 3 1.34 3 3zm12.13 0c0 1.65-1.36 3-3 3-1.67 0-3-1.35-3-3 0-1.66 1.33-3 3-3 1.64 0 3 1.34 3 3zm12.1 0c0 1.65-1.33 3-3 3-1.64 0-3-1.35-3-3 0-1.66 1.36-3 3-3 1.67 0 3 1.34 3 3zm12.14 0c0 1.65-1.34 3-3 3s-3-1.35-3-3c0-1.66 1.34-3 3-3s3 1.34 3 3zm12.13 0c0 1.65-1.35 3-3 3-1.66 0-3-1.35-3-3 0-1.67 1.34-3 3-3 1.65 0 3 1.33 3 3zm12.12 0c0 1.65-1.35 3-3 3-1.66 0-3-1.35-3-3 0-1.67 1.34-3 3-3 1.65 0 3 1.33 3 3zm12.12 0c0 1.64-1.34 3-3 3s-3-1.36-3-3c0-1.67 1.34-3 3-3s3 1.33 3 3zm12.13-.02c0 1.66-1.34 3-3 3s-3-1.34-3-3c0-1.65 1.34-3 3-3s3 1.35 3 3zm12.13 0c0 1.66-1.35 3-3 3-1.66 0-3-1.34-3-3 0-1.65 1.34-3 3-3 1.65 0 3 1.35 3 3zm12.12 0c0 1.66-1.34 3-3 3-1.65 0-3-1.34-3-3s1.35-3 3-3c1.66 0 3 1.34 3 3zm12.13 0c0 1.66-1.34 3-3 3s-3-1.34-3-3 1.34-3 3-3 3 1.34 3 3zm12.13 0c0 1.65-1.35 3-3 3-1.66 0-3-1.35-3-3 0-1.66 1.34-3 3-3 1.65 0 3 1.34 3 3zm12.12 0c0 1.65-1.34 3-3 3-1.65 0-3-1.35-3-3 0-1.66 1.35-3 3-3 1.66 0 3 1.34 3 3zm12.13 0c0 1.65-1.33 3-3 3-1.65 0-3-1.35-3-3 0-1.66 1.35-3 3-3 1.67 0 3 1.34 3 3zm12.14 0c0 1.65-1.34 3-3 3s-3-1.35-3-3c0-1.66 1.34-3 3-3s3 1.34 3 3zm12.13 0c0 1.65-1.35 3-3 3-1.66 0-3-1.35-3-3 0-1.67 1.34-3 3-3 1.65 0 3 1.33 3 3zm12.12 0c0 1.65-1.35 3-3 3-1.66 0-3-1.35-3-3 0-1.67 1.34-3 3-3 1.65 0 3 1.33 3 3zm12.12 0c0 1.64-1.34 3-3 3s-3-1.36-3-3c0-1.67 1.34-3 3-3s3 1.33 3 3zm12.13 0c0 1.64-1.35 3-3 3-1.66 0-3-1.36-3-3 0-1.67 1.34-3 3-3 1.65 0 3 1.33 3 3zm12.13-.02c0 1.66-1.35 3-3 3-1.66 0-3-1.34-3-3 0-1.65 1.34-3 3-3 1.65 0 3 1.35 3 3zm12.12 0c0 1.66-1.34 3-3 3-1.65 0-3-1.34-3-3s1.35-3 3-3c1.66 0 3 1.34 3 3zm12.13 0c0 1.66-1.34 3-3 3s-3-1.34-3-3 1.34-3 3-3 3 1.34 3 3zm12.13 0c0 1.65-1.35 3-3 3-1.66 0-3-1.35-3-3 0-1.66 1.34-3 3-3 1.65 0 3 1.34 3 3zm12.12 0c0 1.65-1.34 3-3 3-1.65 0-3-1.35-3-3 0-1.66 1.35-3 3-3 1.66 0 3 1.34 3 3zm12.13 0c0 1.65-1.33 3-3 3-1.65 0-3-1.35-3-3 0-1.66 1.35-3 3-3 1.67 0 3 1.34 3 3zm12.14 0c0 1.65-1.34 3-3 3s-3-1.35-3-3c0-1.66 1.34-3 3-3s3 1.34 3 3zm12.13 0c0 1.65-1.35 3-3 3-1.66 0-3-1.35-3-3 0-1.67 1.34-3 3-3 1.65 0 3 1.33 3 3zm12.12 0c0 1.65-1.35 3-3 3-1.66 0-3-1.35-3-3 0-1.67 1.34-3 3-3 1.65 0 3 1.33 3 3zm12.12 0c0 1.64-1.34 3-3 3s-3-1.36-3-3c0-1.67 1.34-3 3-3s3 1.33 3 3zm12.13 0c0 1.64-1.35 3-3 3-1.66 0-3-1.36-3-3 0-1.67 1.34-3 3-3 1.65 0 3 1.33 3 3zm12.12-.02c0 1.66-1.34 3-3 3-1.65 0-3-1.34-3-3 0-1.65 1.35-3 3-3 1.66 0 3 1.35 3 3zm12.13 0c0 1.66-1.34 3-3 3-1.65 0-3-1.34-3-3s1.35-3 3-3c1.66 0 3 1.34 3 3zm12.13 0c0 1.66-1.34 3-3 3s-3-1.34-3-3 1.34-3 3-3 3 1.34 3 3zm12.13 0c0 1.65-1.35 3-3 3-1.66 0-3-1.35-3-3 0-1.66 1.34-3 3-3 1.65 0 3 1.34 3 3zm12.12 0c0 1.65-1.34 3-3 3-1.65 0-3-1.35-3-3 0-1.66 1.35-3 3-3 1.66 0 3 1.34 3 3zm12.13 0c0 1.65-1.33 3-3 3-1.65 0-3-1.35-3-3 0-1.66 1.35-3 3-3 1.67 0 3 1.34 3 3zm12.14 0c0 1.65-1.34 3-3 3s-3-1.35-3-3c0-1.66 1.34-3 3-3s3 1.34 3 3zm12.13 0c0 1.65-1.35 3-3 3-1.66 0-3-1.35-3-3 0-1.67 1.34-3 3-3 1.65 0 3 1.33 3 3zm12.12 0c0 1.65-1.35 3-3 3-1.66 0-3-1.35-3-3 0-1.67 1.34-3 3-3 1.65 0 3 1.33 3 3zm5.92 5.05c0 1.65-1.34 3-3 3s-3-1.35-3-3c0-1.67 1.34-3 3-3s3 1.33 3 3zm0 11.8c0 1.66-1.34 3-3 3s-3-1.34-3-3c0-1.65 1.34-3 3-3s3 1.35 3 3zm0 11.82c0 1.65-1.34 3-3 3-1.65 0-3-1.35-3-3 0-1.66 1.35-3 3-3 1.66 0 3 1.34 3 3zm0 11.8c0 1.67-1.34 3-3 3-1.65 0-3-1.33-3-3 0-1.65 1.35-3 3-3 1.66 0 3 1.35 3 3zm0 11.82c0 1.66-1.33 3-3 3-1.65 0-3-1.34-3-3 0-1.65 1.35-3 3-3 1.67 0 3 1.35 3 3zm0 11.82c0 1.65-1.33 3-3 3-1.65 0-3-1.35-3-3 0-1.66 1.35-3 3-3 1.67 0 3 1.34 3 3zm0 11.8c0 1.67-1.33 3-3 3-1.64 0-3-1.33-3-3 0-1.65 1.36-3 3-3 1.67 0 3 1.35 3 3zm.02 11.82c0 1.66-1.35 3-3 3-1.66 0-3-1.34-3-3 0-1.65 1.34-3 3-3 1.65 0 3 1.35 3 3zm0 11.82c0 1.65-1.34 3-3 3s-3-1.35-3-3c0-1.66 1.34-3 3-3s3 1.34 3 3zm0 11.8c0 1.67-1.34 3-3 3s-3-1.33-3-3c0-1.65 1.34-3 3-3s3 1.35 3 3zm0 11.82c0 1.66-1.34 3-3 3-1.65 0-3-1.34-3-3 0-1.65 1.35-3 3-3 1.66 0 3 1.35 3 3zm0 11.82c0 1.65-1.34 3-3 3-1.65 0-3-1.35-3-3 0-1.66 1.35-3 3-3 1.66 0 3 1.34 3 3zm0 11.8c0 1.67-1.33 3-3 3-1.65 0-3-1.33-3-3 0-1.65 1.35-3 3-3 1.67 0 3 1.35 3 3zm0 11.82c0 1.66-1.33 3-3 3-1.65 0-3-1.34-3-3 0-1.65 1.35-3 3-3 1.67 0 3 1.35 3 3zm0 11.82c0 1.65-1.33 3-3 3-1.64 0-3-1.35-3-3 0-1.66 1.36-3 3-3 1.67 0 3 1.34 3 3zm.02 11.8c0 1.67-1.35 3-3 3-1.66 0-3-1.33-3-3 0-1.65 1.34-3 3-3 1.65 0 3 1.35 3 3zm0 11.82c0 1.66-1.34 3-3 3s-3-1.34-3-3c0-1.65 1.34-3 3-3s3 1.35 3 3zm0 11.82c0 1.65-1.34 3-3 3s-3-1.35-3-3c0-1.66 1.34-3 3-3s3 1.34 3 3zm0 11.8c0 1.67-1.34 3-3 3-1.65 0-3-1.33-3-3 0-1.65 1.35-3 3-3 1.66 0 3 1.35 3 3zm0 11.82c0 1.66-1.34 3-3 3-1.65 0-3-1.34-3-3s1.35-3 3-3c1.66 0 3 1.34 3 3zm0 11.8c0 1.67-1.34 3-3 3-1.65 0-3-1.33-3-3 0-1.64 1.35-3 3-3 1.66 0 3 1.36 3 3zm0 11.83c0 1.66-1.33 3-3 3-1.65 0-3-1.34-3-3s1.35-3 3-3c1.67 0 3 1.34 3 3zm0 11.8c0 1.67-1.33 3-3 3-1.64 0-3-1.33-3-3 0-1.65 1.36-3 3-3 1.67 0 3 1.35 3 3zm.02 11.82c0 1.65-1.35 3-3 3-1.66 0-3-1.35-3-3 0-1.66 1.34-3 3-3 1.65 0 3 1.34 3 3zm0 11.8c0 1.66-1.35 3-3 3-1.66 0-3-1.34-3-3 0-1.65 1.34-3 3-3 1.65 0 3 1.35 3 3zm0 11.82c0 1.66-1.34 3-3 3s-3-1.34-3-3 1.34-3 3-3 3 1.34 3 3zm0 11.8c0 1.67-1.34 3-3 3-1.65 0-3-1.33-3-3 0-1.64 1.35-3 3-3 1.66 0 3 1.36 3 3zm0 11.83c0 1.65-1.34 3-3 3-1.65 0-3-1.35-3-3 0-1.66 1.35-3 3-3 1.66 0 3 1.34 3 3zm0 11.8c0 1.67-1.34 3-3 3-1.65 0-3-1.33-3-3 0-1.65 1.35-3 3-3 1.66 0 3 1.35 3 3zm0 11.82c0 1.66-1.33 3-3 3-1.65 0-3-1.34-3-3 0-1.65 1.35-3 3-3 1.67 0 3 1.35 3 3zm0 11.82c0 1.64-1.33 3-3 3-1.64 0-3-1.36-3-3 0-1.67 1.36-3 3-3 1.67 0 3 1.33 3 3zm-5.05 5.9c0 1.67-1.34 3-3 3s-3-1.33-3-3c0-1.64 1.34-3 3-3s3 1.36 3 3zm-12.13.02c0 1.65-1.34 3-3 3-1.65 0-3-1.35-3-3 0-1.66 1.35-3 3-3 1.66 0 3 1.34 3 3zm-12.12 0c0 1.65-1.35 3-3 3-1.66 0-3-1.35-3-3 0-1.66 1.34-3 3-3 1.65 0 3 1.34 3 3zm-12.13 0c0 1.66-1.34 3-3 3s-3-1.34-3-3 1.34-3 3-3 3 1.34 3 3zm-12.13 0c0 1.66-1.34 3-3 3-1.65 0-3-1.34-3-3s1.35-3 3-3c1.66 0 3 1.34 3 3zm-12.12 0c0 1.66-1.35 3-3 3-1.66 0-3-1.34-3-3 0-1.65 1.34-3 3-3 1.65 0 3 1.35 3 3zm-12.13 0c0 1.66-1.35 3-3 3-1.66 0-3-1.34-3-3 0-1.65 1.34-3 3-3 1.65 0 3 1.35 3 3zm-12.13 0c0 1.66-1.34 3-3 3s-3-1.34-3-3c0-1.65 1.34-3 3-3s3 1.35 3 3zm-12.13 0c0 1.66-1.33 3-3 3-1.64 0-3-1.34-3-3 0-1.65 1.36-3 3-3 1.67 0 3 1.35 3 3zm-12.1 0c0 1.67-1.36 3-3 3-1.67 0-3-1.33-3-3 0-1.65 1.33-3 3-3 1.64 0 3 1.35 3 3zm-12.14 0c0 1.67-1.34 3-3 3s-3-1.33-3-3c0-1.65 1.34-3 3-3s3 1.35 3 3zm-12.13 0c0 1.67-1.34 3-3 3s-3-1.33-3-3c0-1.64 1.34-3 3-3s3 1.36 3 3zm-12.13 0c0 1.67-1.34 3-3 3-1.65 0-3-1.33-3-3 0-1.64 1.35-3 3-3 1.66 0 3 1.36 3 3zm-12.12.02c0 1.65-1.35 3-3 3-1.66 0-3-1.35-3-3 0-1.66 1.34-3 3-3 1.65 0 3 1.34 3 3zm-12.13 0c0 1.66-1.34 3-3 3s-3-1.34-3-3 1.34-3 3-3 3 1.34 3 3zm-12.13 0c0 1.66-1.34 3-3 3-1.65 0-3-1.34-3-3s1.35-3 3-3c1.66 0 3 1.34 3 3zm-12.12 0c0 1.66-1.35 3-3 3-1.66 0-3-1.34-3-3 0-1.65 1.34-3 3-3 1.65 0 3 1.35 3 3zm-12.13 0c0 1.66-1.34 3-3 3s-3-1.34-3-3c0-1.65 1.34-3 3-3s3 1.35 3 3zm-12.13 0c0 1.66-1.34 3-3 3s-3-1.34-3-3c0-1.65 1.34-3 3-3s3 1.35 3 3zm-12.13 0c0 1.66-1.33 3-3 3-1.64 0-3-1.34-3-3 0-1.65 1.36-3 3-3 1.67 0 3 1.35 3 3zm-12.1 0c0 1.67-1.36 3-3 3-1.67 0-3-1.33-3-3 0-1.65 1.33-3 3-3 1.64 0 3 1.35 3 3zm-12.14 0c0 1.67-1.34 3-3 3s-3-1.33-3-3c0-1.65 1.34-3 3-3s3 1.35 3 3zm-12.13 0c0 1.67-1.34 3-3 3-1.65 0-3-1.33-3-3 0-1.64 1.35-3 3-3 1.66 0 3 1.36 3 3zm-12.13 0c0 1.67-1.34 3-3 3-1.65 0-3-1.33-3-3 0-1.64 1.35-3 3-3 1.66 0 3 1.36 3 3zm-12.12.02c0 1.65-1.35 3-3 3-1.66 0-3-1.35-3-3 0-1.66 1.34-3 3-3 1.65 0 3 1.34 3 3zm-12.13 0c0 1.66-1.34 3-3 3s-3-1.34-3-3 1.34-3 3-3 3 1.34 3 3zm-12.13 0c0 1.66-1.34 3-3 3-1.65 0-3-1.34-3-3s1.35-3 3-3c1.66 0 3 1.34 3 3zm-12.12 0c0 1.66-1.35 3-3 3-1.66 0-3-1.34-3-3 0-1.65 1.34-3 3-3 1.65 0 3 1.35 3 3zm-12.13 0c0 1.66-1.34 3-3 3s-3-1.34-3-3c0-1.65 1.34-3 3-3s3 1.35 3 3zm-12.13 0c0 1.66-1.34 3-3 3s-3-1.34-3-3c0-1.65 1.34-3 3-3s3 1.35 3 3zm-12.13 0c0 1.66-1.33 3-3 3-1.64 0-3-1.34-3-3 0-1.65 1.36-3 3-3 1.67 0 3 1.35 3 3zm-12.1 0c0 1.67-1.36 3-3 3-1.67 0-3-1.33-3-3 0-1.65 1.33-3 3-3 1.64 0 3 1.35 3 3zm-12.14 0c0 1.67-1.34 3-3 3s-3-1.33-3-3c0-1.65 1.34-3 3-3s3 1.35 3 3zm-12.13 0c0 1.67-1.34 3-3 3-1.65 0-3-1.33-3-3 0-1.64 1.35-3 3-3 1.66 0 3 1.36 3 3zm-12.12 0c0 1.67-1.34 3-3 3-1.65 0-3-1.33-3-3 0-1.64 1.35-3 3-3 1.66 0 3 1.36 3 3zm-12.12.02c0 1.65-1.35 3-3 3-1.66 0-3-1.35-3-3 0-1.66 1.34-3 3-3 1.65 0 3 1.34 3 3zm-12.13 0c0 1.66-1.34 3-3 3s-3-1.34-3-3 1.34-3 3-3 3 1.34 3 3zm-12.13 0c0 1.66-1.34 3-3 3-1.65 0-3-1.34-3-3s1.35-3 3-3c1.66 0 3 1.34 3 3zm-12.12 0c0 1.66-1.35 3-3 3-1.66 0-3-1.34-3-3 0-1.65 1.34-3 3-3 1.65 0 3 1.35 3 3zm-12.13 0c0 1.66-1.34 3-3 3s-3-1.34-3-3c0-1.65 1.34-3 3-3s3 1.35 3 3zm-12.13 0c0 1.66-1.34 3-3 3-1.65 0-3-1.34-3-3 0-1.65 1.35-3 3-3 1.66 0 3 1.35 3 3zm-12.13 0c0 1.66-1.33 3-3 3-1.64 0-3-1.34-3-3 0-1.65 1.36-3 3-3 1.67 0 3 1.35 3 3zm-5.9-5.05c0 1.65-1.35 3-3 3-1.67 0-3-1.35-3-3 0-1.66 1.33-3 3-3 1.65 0 3 1.34 3 3zm0-11.82c0 1.67-1.36 3-3 3-1.67 0-3-1.33-3-3 0-1.64 1.33-3 3-3 1.64 0 3 1.36 3 3zm-.02-11.8c0 1.66-1.34 3-3 3-1.65 0-3-1.34-3-3s1.35-3 3-3c1.66 0 3 1.34 3 3zm0-11.8c0 1.64-1.34 3-3 3s-3-1.36-3-3c0-1.67 1.34-3 3-3s3 1.33 3 3zm0-11.83c0 1.66-1.34 3-3 3s-3-1.34-3-3c0-1.65 1.34-3 3-3s3 1.35 3 3zm0-11.8c0 1.65-1.35 3-3 3-1.66 0-3-1.35-3-3 0-1.67 1.34-3 3-3 1.65 0 3 1.33 3 3zm0-11.82c0 1.65-1.35 3-3 3-1.66 0-3-1.35-3-3 0-1.66 1.34-3 3-3 1.65 0 3 1.34 3 3zm0-11.82c0 1.66-1.35 3-3 3-1.67 0-3-1.34-3-3 0-1.65 1.33-3 3-3 1.65 0 3 1.35 3 3zm0-11.8c0 1.65-1.35 3-3 3-1.67 0-3-1.35-3-3 0-1.67 1.33-3 3-3 1.65 0 3 1.33 3 3zm0-11.82c0 1.66-1.36 3-3 3-1.67 0-3-1.34-3-3 0-1.65 1.33-3 3-3 1.64 0 3 1.35 3 3zm-.02-11.8c0 1.65-1.34 3-3 3-1.65 0-3-1.35-3-3 0-1.66 1.35-3 3-3 1.66 0 3 1.34 3 3zm0-11.82c0 1.66-1.34 3-3 3s-3-1.34-3-3 1.34-3 3-3 3 1.34 3 3zm0-11.8c0 1.64-1.34 3-3 3s-3-1.36-3-3c0-1.67 1.34-3 3-3s3 1.33 3 3zm0-11.83c0 1.66-1.35 3-3 3-1.66 0-3-1.34-3-3 0-1.65 1.34-3 3-3 1.65 0 3 1.35 3 3zm0-11.8c0 1.65-1.35 3-3 3-1.66 0-3-1.35-3-3 0-1.67 1.34-3 3-3 1.65 0 3 1.33 3 3zm0-11.82c0 1.65-1.35 3-3 3-1.67 0-3-1.35-3-3 0-1.66 1.33-3 3-3 1.65 0 3 1.34 3 3zm0-11.82c0 1.67-1.35 3-3 3-1.67 0-3-1.33-3-3 0-1.64 1.33-3 3-3 1.65 0 3 1.36 3 3zm0-11.8c0 1.66-1.36 3-3 3-1.67 0-3-1.34-3-3s1.33-3 3-3c1.64 0 3 1.34 3 3zm-.02-11.8c0 1.64-1.34 3-3 3-1.65 0-3-1.36-3-3 0-1.67 1.35-3 3-3 1.66 0 3 1.33 3 3zm0-11.83c0 1.66-1.34 3-3 3s-3-1.34-3-3c0-1.65 1.34-3 3-3s3 1.35 3 3zm0-11.8c0 1.65-1.34 3-3 3s-3-1.35-3-3c0-1.67 1.34-3 3-3s3 1.33 3 3zm0-11.82c0 1.65-1.35 3-3 3-1.66 0-3-1.35-3-3 0-1.66 1.34-3 3-3 1.65 0 3 1.34 3 3zm0-11.82c0 1.66-1.35 3-3 3-1.66 0-3-1.34-3-3 0-1.65 1.34-3 3-3 1.65 0 3 1.35 3 3zm0-11.8c0 1.65-1.35 3-3 3-1.66 0-3-1.35-3-3 0-1.67 1.34-3 3-3 1.65 0 3 1.33 3 3zm0-11.82c0 1.67-1.35 3-3 3-1.67 0-3-1.33-3-3 0-1.65 1.33-3 3-3 1.65 0 3 1.35 3 3zm0-11.8c0 1.65-1.36 3-3 3-1.67 0-3-1.35-3-3 0-1.66 1.33-3 3-3 1.64 0 3 1.34 3 3zm-.02-11.82c0 1.66-1.34 3-3 3-1.65 0-3-1.34-3-3 0-1.65 1.35-3 3-3 1.66 0 3 1.35 3 3zm0-11.8c0 1.65-1.34 3-3 3-1.65 0-3-1.35-3-3 0-1.67 1.35-3 3-3 1.66 0 3 1.33 3 3zm0-11.82c0 1.65-1.34 3-3 3s-3-1.35-3-3c0-1.66 1.34-3 3-3s3 1.34 3 3zm0-11.82c0 1.66-1.35 3-3 3-1.66 0-3-1.34-3-3 0-1.65 1.34-3 3-3 1.65 0 3 1.35 3 3z" fill="#188fff"/><use xlink:href="#f" transform="matrix(1,0,0,1,594.5146977773148,180.12897386312395) translate(106.47786458333337 24.752604166666664)"/><use xlink:href="#g" transform="matrix(1,0,0,1,594.5146977773148,180.12897386312395) translate(250.50130208333331 24.752604166666664)"/><use xlink:href="#h" transform="matrix(1,0,0,1,594.5146977773148,180.12897386312395) translate(242.5 55.79427083333333)"/><use xlink:href="#h" transform="matrix(1,0,0,1,594.5146977773148,180.12897386312395) translate(242.5 86.8359375)"/><use xlink:href="#h" transform="matrix(1,0,0,1,594.5146977773148,180.12897386312395) translate(242.5 117.87760416666666)"/><use xlink:href="#h" transform="matrix(1,0,0,1,594.5146977773148,180.12897386312395) translate(242.5 148.91927083333331)"/><use xlink:href="#h" transform="matrix(1,0,0,1,594.5146977773148,180.12897386312395) translate(242.5 179.96093749999997)"/><use xlink:href="#h" transform="matrix(1,0,0,1,594.5146977773148,180.12897386312395) translate(242.5 211.00260416666663)"/><use xlink:href="#h" transform="matrix(1,0,0,1,594.5146977773148,180.12897386312395) translate(242.5 242.0442708333333)"/><use xlink:href="#h" transform="matrix(1,0,0,1,594.5146977773148,180.12897386312395) translate(242.5 273.08593749999994)"/><use xlink:href="#h" transform="matrix(1,0,0,1,594.5146977773148,180.12897386312395) translate(242.5 304.12760416666663)"/><use xlink:href="#i" transform="matrix(1,0,0,1,594.5146977773148,180.12897386312395) translate(242.5 335.1692708333333)"/><path d="M567.2 255.82l-1.43 1.4-25.54-25.63h2.82zM501.8 190.2H499l-36.5-36.63 1.43-1.4z" stroke="#000" stroke-width=".05"/><path d="M463.94 152.17l-1.4 1.42-.03-1.44-.04-1.48z"/><path d="M463.98 152.17l-1.48 1.47v-1.48l-.07-1.54zm-1.44 0v1.36l1.37-1.36-1.4-1.42z" stroke="#000" stroke-width=".05"/><path d="M577.25 267.34l-13.35-6.84 6.57-6.54z"/><path d="M579.53 269.63l-17.3-8.87 8.5-8.48zm-13.95-9.4l9.4 4.8-4.78-9.4z" stroke="#000" stroke-width=".05"/><use xlink:href="#j" transform="matrix(1,0,0,1,478.3496827229462,190.1970127043818) translate(0 16.50173611111111)"/><use xlink:href="#k" transform="matrix(1,0,0,1,478.3496827229462,190.1970127043818) translate(0 37.19618055555556)"/><path d="M463.5 352.14l97.55-1.08" stroke="#000" stroke-width="2" fill="none"/><path d="M463.55 353.14h-1.08l.04-.98-.02-1 1.05-.02z" stroke="#000" stroke-width=".05"/><path d="M576.32 350.9l-14.22 4.8-.1-9.28z" stroke="#000" stroke-width="2"/><path d="M463.23 551.46l102.97-98.48" stroke="#000" stroke-width="2" fill="none"/><path d="M463.94 552.17l-1.5 1.42.07-1.44-.04-1.35.1-.08z" stroke="#000" stroke-width=".05"/><path d="M577.23 442.43l-7.1 13.2-6.4-6.7z" stroke="#000" stroke-width="2"/><path d="M1420.3 292.86c28.72 0 52 26.86 52 60s-23.28 60-52 60h-156c-28.72 0-52-26.86-52-60s23.28-60 52-60z" stroke="#000" stroke-width="3" fill="#fff"/><use xlink:href="#l" transform="matrix(1,0,0,1,1217.2963913651759,297.8581405297906) translate(12.981770833333371 62.56510416666666)"/><use xlink:href="#b" transform="matrix(1,0,0,1,1217.2963913651759,297.8581405297906) translate(125 62.56510416666666)"/><use xlink:href="#m" transform="matrix(1,0,0,1,1217.2963913651759,297.8581405297906) translate(221.01562499999997 62.56510416666666)"/><path d="M1086.67 352.86h105.62" stroke="#000" stroke-width="2" fill="none"/><path d="M1086.7 353.86h-1l-.05-1.65-.05-.34h1.1z" stroke="#000" stroke-width=".05"/><path d="M1207.56 352.86l-14.27 4.63v-9.28z" stroke="#000" stroke-width="2"/><use xlink:href="#n" transform="matrix(1,0,0,1,1105.5569255334383,307.4692516409017) translate(0 16.50173611111111)"/><use xlink:href="#k" transform="matrix(1,0,0,1,1105.5569255334383,307.4692516409017) translate(0 37.19618055555556)"/><path d="M1420.3 652.15c28.72 0 52 26.87 52 60 0 33.14-23.28 60-52 60h-156c-28.72 0-52-26.86-52-60 0-33.13 23.28-60 52-60z" stroke="#000" stroke-width="3" fill="#fff"/><use xlink:href="#o" transform="matrix(1,0,0,1,1217.2963913651759,657.1528052385522) translate(36.98567708333336 62.56510416666666)"/><use xlink:href="#b" transform="matrix(1,0,0,1,1217.2963913651759,657.1528052385522) translate(100.99609375000001 62.56510416666666)"/><use xlink:href="#p" transform="matrix(1,0,0,1,1217.2963913651759,657.1528052385522) translate(197.01171875 62.56510416666666)"/><path d="M921.65 760.15c0 6.63-38.05 12-85 12-46.94 0-85-5.37-85-12v-96c0-6.62 38.06-12 85-12 46.95 0 85 5.38 85 12z" stroke="#000" stroke-width="3" fill="#fff"/><path d="M921.65 664.15c0 6.63-38.05 12-85 12-46.94 0-85-5.37-85-12" stroke="#000" stroke-width="3" fill="none"/><use xlink:href="#q" transform="matrix(1,0,0,1,756.653709035269,681.1528052385522) translate(-0.013020833333300175 52.23177083333333)"/><path d="M837.65 632.15h-2v-3.94h2zm0-11.82h-2v-7.9h2zm0-15.77h-2V598h2zm0-31.53h-2v-7.9h2zm0-15.77h-2v-7.88h2zm0-15.77h-2v-3.95h2z" stroke="#000" stroke-width=".05"/><path d="M837.65 537.58h-2v-1.03h2z"/><path d="M837.68 537.6h-2.05v-1.07h2.05zm-2-1.02v.97h1.95v-.97z" stroke="#000" stroke-width=".05"/><path d="M836.65 647.42l-4.63-14.27h9.27z"/><path d="M836.65 650.65l-6-18.5h12.02zm-3.26-16.5l3.25 10.03 3.26-10.03z" stroke="#000" stroke-width=".05"/><use xlink:href="#r" transform="matrix(1,0,0,1,767.3090909797133,577.2950503411598) translate(0 16.50173611111111)"/><use xlink:href="#s" transform="matrix(1,0,0,1,767.3090909797133,577.2950503411598) translate(64.01041666666667 16.50173611111111)"/><path d="M1222.55 648.67l-.95 1.75-97.73-53h4.2zm-132.64-71.93h-4.2l-71.65-38.86.95-1.76z" stroke="#000" stroke-width=".05"/><path d="M1014.07 537.9l-2.52-1.38h3.26z"/><path d="M1014.08 537.93l-2.63-1.43h3.4zm-2.43-1.38l2.4 1.3.72-1.3z" stroke="#000" stroke-width=".05"/><path d="M1235.5 656.82l-14.75-2.72 4.4-8.15z"/><path d="M1238.34 658.36l-19.13-3.53 5.74-10.57zm-16.06-5l10.37 1.92-7.26-7.65z" stroke="#000" stroke-width=".05"/><g><use xlink:href="#t" transform="matrix(1,0,0,1,1053.5480495912086,576.7375671506278) translate(0 16.50173611111111)"/><use xlink:href="#u" transform="matrix(1,0,0,1,1053.5480495912086,576.7375671506278) translate(42.673611111111114 16.50173611111111)"/></g><path d="M1057.06 321.54c15 0 27.15 14.75 27.15 32.95 0 18.18-12.15 32.93-27.14 32.93H975.6c-15 0-27.14-14.75-27.14-32.94 0-18.2 12.15-32.96 27.15-32.96z" stroke="#188fff" stroke-width="3" fill="#fff"/><g><use xlink:href="#v" transform="matrix(1,0,0,1,953.4564501023273,326.53989231522274) translate(9.6579861111111 34.627170138888886)"/></g><path d="M878.8 314.5c16.73 0 30.3 17.9 30.3 40 0 22.08-13.57 40-30.3 40h-90.88c-16.73 0-30.3-17.92-30.3-40 0-22.1 13.57-40 30.3-40z" stroke="#188fff" stroke-width="4" fill="#188fff"/><g><use xlink:href="#w" transform="matrix(1,0,0,1,762.625808888426,319.48653940283896) translate(17.124565972222236 42.70844184027777)"/></g><path d="M691.12 243.54c15 0 27.15 14.76 27.15 32.95 0 18.2-12.16 32.94-27.15 32.94h-81.45c-15 0-27.16-14.75-27.16-32.95 0-18.2 12.17-32.96 27.17-32.96z" stroke="#188fff" stroke-width="3" fill="#fff"/><g><use xlink:href="#x" transform="matrix(1,0,0,1,587.5146977773148,248.54478707782675) translate(9.6579861111111 34.627170138888886)"/></g><path d="M691.12 321.54c15 0 27.15 14.75 27.15 32.95 0 18.18-12.16 32.93-27.15 32.93h-81.45c-15 0-27.16-14.75-27.16-32.94 0-18.2 12.17-32.96 27.17-32.96z" stroke="#188fff" stroke-width="3" fill="#fff"/><g><use xlink:href="#x" transform="matrix(1,0,0,1,587.5146977773148,326.5398923152227) translate(9.6579861111111 34.627170138888886)"/></g><path d="M691.12 399.53c15 0 27.15 14.76 27.15 32.95 0 18.2-12.16 32.95-27.15 32.95h-81.45c-15 0-27.16-14.75-27.16-32.95 0-18.2 12.17-32.95 27.17-32.95z" stroke="#188fff" stroke-width="3" fill="#fff"/><g><use xlink:href="#x" transform="matrix(1,0,0,1,587.5146977773147,404.5349975526186) translate(9.6579861111111 34.627170138888886)"/></g><path d="M720.27 276.5l.27.04.38.06.38.1.38.1.38.14.4.18.4.2.42.26.44.3.47.4.5.45.55.57.6.72.7.9.77 1.2.9 1.63 1.1 2.3 1.4 3.48 1.98 5.98 11.96 45.95.6 1.52" stroke="#3a414a" stroke-linejoin="round" fill="none"/><path d="M720.3 276l-.04 1h-.53l.04-.47-.02-.54z" stroke="#3a414a" stroke-width=".05" fill="#3a414a"/><path d="M754.54 353.28l-12.98-7.5 6.9-6.2z" stroke="#3a414a" fill="#3a414a"/><path d="M720.27 354.5h18.97" stroke="#3a414a" fill="none"/><path d="M720.28 355h-.55l.04-.48-.02-.53h.53z" stroke="#3a414a" stroke-width=".05" fill="#3a414a"/><path d="M754 354.5l-14.26 4.62v-9.27z" stroke="#3a414a" fill="#3a414a"/><path d="M720.27 432.46l.27-.03.38-.06.38-.1.38-.1.38-.14.4-.17.4-.2.42-.27.44-.32.47-.38.5-.46.55-.57.6-.7.7-.93.77-1.2.9-1.62 1.1-2.3 1.4-3.48 1.98-5.98 11.96-45.93.6-1.52" stroke="#3a414a" stroke-linejoin="round" fill="none"/><path d="M720.3 432.96l-.57.02.04-.46-.02-.54h.5z" stroke="#3a414a" stroke-width=".05" fill="#3a414a"/><path d="M754.54 355.7l-6.1 13.7-6.88-6.2z" stroke="#3a414a" fill="#3a414a"/><path d="M911.6 354.5h18.97" stroke="#3a414a" fill="none"/><path d="M911.6 355h-.53l.03-.5-.02-.5h.53z" stroke="#3a414a" stroke-width=".05" fill="#3a414a"/><path d="M945.34 354.5l-14.27 4.62v-9.27z" stroke="#3a414a" fill="#3a414a"/><defs><path fill="#333" d="M1001 0H225v-123l295-20v-1176l-295-20v-123h776v123l-294 20v1176l294 20V0" id="y"/><path fill="#333" d="M887 0v-707c0-173-79-260-238-260-205 0-307 133-307 398V0H160v-1098h147l27 148h10c69-112 181-168 336-168 259 0 389 134 389 401V0H887" id="z"/><path fill="#333" d="M1092-551c0 322-136 571-430 571-138 0-245-53-322-159h-12c24 220 7 402 12 631H158v-1590h147l27 148h8c73-112 181-168 322-168 294 0 430 246 430 567zM629-967c-241 0-288 156-289 416 0 151 24 259 70 323s120 97 221 97c181 0 272-141 272-422 0-276-91-414-274-414" id="A"/><path fill="#333" d="M578-131c239 0 309-137 309-397v-570h182V0H922l-27-147h-10C815-36 704 20 551 20c-261 0-391-134-391-401v-717h182v707c0 173 79 260 236 260" id="B"/><path fill="#333" d="M1020-150v138C933 9 849 20 768 20 527 20 406-95 406-324v-637H139v-94l267-49 77-287h105v293h438v137H588v637c0 130 64 195 192 195 62 0 142-7 240-21" id="C"/><g id="a"><use transform="matrix(0.01302083333333333,0,0,0.01302083333333333,0,0)" xlink:href="#y"/><use transform="matrix(0.01302083333333333,0,0,0.01302083333333333,16.002604166666664,0)" xlink:href="#z"/><use transform="matrix(0.01302083333333333,0,0,0.01302083333333333,32.00520833333333,0)" xlink:href="#A"/><use transform="matrix(0.01302083333333333,0,0,0.01302083333333333,48.00781249999999,0)" xlink:href="#B"/><use transform="matrix(0.01302083333333333,0,0,0.01302083333333333,64.01041666666666,0)" xlink:href="#C"/></g><path fill="#333" d="M1112-551c0 331-186 571-502 571-301 0-495-251-495-571 0-330 184-567 501-567 302 0 496 249 496 567zM614-131c207 0 310-140 310-420 0-277-104-416-312-416-206 0-309 139-309 416 0 280 104 420 311 420" id="D"/><path fill="#333" d="M739-1436c0 71-43 115-106 115-71 0-107-38-107-115 0-76 36-114 107-114s106 38 106 114zM541-954l-269-21v-123h451v955l352 20V0H197v-123l344-20v-811" id="E"/><path fill="#333" d="M172-543c0-365 197-575 553-575 119 0 231 20 336 59l-62 158c-100-38-189-57-268-57-247 0-371 138-371 413 0 271 120 406 361 406 105 0 212-21 321-62v160C953 0 843 20 713 20c-347 1-541-210-541-563" id="F"/><g id="b"><use transform="matrix(0.01302083333333333,0,0,0.01302083333333333,0,0)" xlink:href="#C"/><use transform="matrix(0.01302083333333333,0,0,0.01302083333333333,16.002604166666664,0)" xlink:href="#D"/><use transform="matrix(0.01302083333333333,0,0,0.01302083333333333,32.00520833333333,0)" xlink:href="#A"/><use transform="matrix(0.01302083333333333,0,0,0.01302083333333333,48.00781249999999,0)" xlink:href="#E"/><use transform="matrix(0.01302083333333333,0,0,0.01302083333333333,64.01041666666666,0)" xlink:href="#F"/></g><path fill="#333" d="M758 0H582c3-449-8-824 8-1274-61 68-188 168-268 234l-97-123 383-299h150V0" id="G"/><use transform="matrix(0.01302083333333333,0,0,0.01302083333333333,0,0)" xlink:href="#G" id="c"/><path fill="#333" d="M594-1483c248 0 420 149 418 391 0 79-21 160-59 244-73 161-414 504-572 674v8h688V0H158v-156c172-193 489-508 607-698 43-69 62-147 62-231 0-146-91-244-235-244-107 0-213 46-318 137l-102-119c128-115 269-172 422-172" id="H"/><use transform="matrix(0.01302083333333333,0,0,0.01302083333333333,0,0)" xlink:href="#H" id="d"/><path fill="#333" d="M1010-1120c0 200-132 322-316 350v6c241 31 361 147 361 348 0 294-219 436-537 436-161 0-290-26-387-79v-170c123 64 250 96 383 96 236 0 354-96 354-289 0-172-127-258-381-258H354v-151h133c195 4 334-97 336-277 1-140-106-221-250-221-119 0-233 40-344 121l-92-125c125-100 270-150 436-150 252 0 437 128 437 363" id="I"/><use transform="matrix(0.01302083333333333,0,0,0.01302083333333333,0,0)" xlink:href="#I" id="e"/><path fill="#333" d="M430 0H244v-1462h841v164H430v516h617v164H430V0" id="J"/><g id="f"><use transform="matrix(0.013020833333333332,0,0,0.013020833333333332,0,0)" xlink:href="#J"/><use transform="matrix(0.013020833333333332,0,0,0.013020833333333332,16.002604166666664,0)" xlink:href="#B"/><use transform="matrix(0.013020833333333332,0,0,0.013020833333333332,32.00520833333333,0)" xlink:href="#z"/><use transform="matrix(0.013020833333333332,0,0,0.013020833333333332,48.00781249999999,0)" xlink:href="#F"/><use transform="matrix(0.013020833333333332,0,0,0.013020833333333332,64.01041666666666,0)" xlink:href="#C"/><use transform="matrix(0.013020833333333332,0,0,0.013020833333333332,80.01302083333331,0)" xlink:href="#E"/><use transform="matrix(0.013020833333333332,0,0,0.013020833333333332,96.01562499999997,0)" xlink:href="#D"/><use transform="matrix(0.013020833333333332,0,0,0.013020833333333332,112.01822916666663,0)" xlink:href="#z"/></g><path fill="#333" d="M1026-301c0 225-197 321-448 321-165 0-290-23-375-69v-166c129 57 252 86 370 86 183 0 275-54 275-162 0-38-16-71-49-99s-108-63-226-106c-156-57-253-112-293-160s-61-105-61-171c2-338 524-340 789-217l-60 149c-121-48-228-72-319-72-157 0-236 44-236 133 0 41 17 74 51 98s111 57 232 101c141 51 234 101 280 151s70 111 70 183" id="K"/><path fill="#333" d="M596-1118c288 2 430 92 430 366V0H895l-37-152h-8C752-34 680 17 483 20 272 23 135-98 135-307c0-221 170-337 510-348l203-7c15-197-55-305-244-305-98 0-207 27-328 82l-63-137c131-64 258-96 383-96zm-72 991c194 0 325-116 322-311v-99c-251 15-522-6-522 232 0 119 67 178 200 178" id="L"/><path fill="#333" d="M631-1118c283 0 470 204 465 491v113H322c5 250 120 375 344 375 130 0 253-25 370-76v160C925-5 804 20 672 20c-329 0-539-224-539-561 0-331 182-577 498-577zM326-662h573c0-203-91-305-272-305-183 0-284 102-301 305" id="M"/><g id="g"><use transform="matrix(0.013020833333333332,0,0,0.013020833333333332,0,0)" xlink:href="#E"/><use transform="matrix(0.013020833333333332,0,0,0.013020833333333332,16.002604166666664,0)" xlink:href="#z"/><use transform="matrix(0.013020833333333332,0,0,0.013020833333333332,32.00520833333333,0)" xlink:href="#K"/><use transform="matrix(0.013020833333333332,0,0,0.013020833333333332,48.00781249999999,0)" xlink:href="#C"/><use transform="matrix(0.013020833333333332,0,0,0.013020833333333332,64.01041666666666,0)" xlink:href="#L"/><use transform="matrix(0.013020833333333332,0,0,0.013020833333333332,80.01302083333331,0)" xlink:href="#z"/><use transform="matrix(0.013020833333333332,0,0,0.013020833333333332,96.01562499999997,0)" xlink:href="#F"/><use transform="matrix(0.013020833333333332,0,0,0.013020833333333332,112.01822916666663,0)" xlink:href="#M"/></g><g id="j"><use transform="matrix(0.008680555555555556,0,0,0.008680555555555556,0,0)" xlink:href="#y"/><use transform="matrix(0.008680555555555556,0,0,0.008680555555555556,10.668402777777779,0)" xlink:href="#z"/><use transform="matrix(0.008680555555555556,0,0,0.008680555555555556,21.336805555555557,0)" xlink:href="#A"/><use transform="matrix(0.008680555555555556,0,0,0.008680555555555556,32.005208333333336,0)" xlink:href="#B"/><use transform="matrix(0.008680555555555556,0,0,0.008680555555555556,42.673611111111114,0)" xlink:href="#C"/></g><path fill="#333" d="M977 0v-707c0-97-9-165-27-203s-47-57-88-57c-58 0-100 28-126 83s-40 148-40 278V0H535v-707c0-173-42-260-125-260-56 0-96 26-120 79s-36 160-36 319V0H92v-1098h127l27 148h10c45-112 112-168 201-168 109 0 180 61 213 182h6c51-121 124-182 219-182 85 0 147 30 186 92s58 165 58 309V0H977" id="N"/><path fill="#333" d="M188-739c-1-248 156-381 410-379 57 0 107 7 150 20h378v113l-196 27c43 57 65 128 65 213 2 253-212 385-489 346-67 37-100 82-100 133 0 56 54 84 161 84h187c216-2 358 93 358 297 0 251-188 377-565 377-145 0-255-26-331-80S102 283 102 186c0-141 80-231 240-270-64-31-96-83-96-154 0-75 44-139 133-192-109-41-191-166-191-309zm406 221c149 0 223-77 223-230 0-159-75-239-225-239s-225 81-225 242c0 151 76 227 227 227zm346 649c0-146-78-149-248-149H504c-153 0-230 66-230 198 0 116 90 174 271 174 263 0 395-74 395-223" id="O"/><g id="k"><use transform="matrix(0.008680555555555556,0,0,0.008680555555555556,0,0)" xlink:href="#N"/><use transform="matrix(0.008680555555555556,0,0,0.008680555555555556,10.668402777777779,0)" xlink:href="#M"/><use transform="matrix(0.008680555555555556,0,0,0.008680555555555556,21.336805555555557,0)" xlink:href="#K"/><use transform="matrix(0.008680555555555556,0,0,0.008680555555555556,32.005208333333336,0)" xlink:href="#K"/><use transform="matrix(0.008680555555555556,0,0,0.008680555555555556,42.673611111111114,0)" xlink:href="#L"/><use transform="matrix(0.008680555555555556,0,0,0.008680555555555556,53.34201388888889,0)" xlink:href="#O"/><use transform="matrix(0.008680555555555556,0,0,0.008680555555555556,64.01041666666667,0)" xlink:href="#M"/><use transform="matrix(0.008680555555555556,0,0,0.008680555555555556,74.67881944444446,0)" xlink:href="#K"/></g><path fill="#333" d="M616 20C261 20 84-232 84-735c0-500 178-750 534-750 171 0 301 65 392 195s137 316 137 557-46 426-138 557S786 20 616 20zm0-163c115 0 195-51 254-145 102-163 102-730-2-890-59-92-137-143-250-143-225 0-337 196-337 588 0 393 112 590 335 590" id="P"/><g id="l"><use transform="matrix(0.01302083333333333,0,0,0.01302083333333333,0,0)" xlink:href="#P"/><use transform="matrix(0.01302083333333333,0,0,0.01302083333333333,16.002604166666664,0)" xlink:href="#B"/><use transform="matrix(0.01302083333333333,0,0,0.01302083333333333,32.00520833333333,0)" xlink:href="#C"/><use transform="matrix(0.01302083333333333,0,0,0.01302083333333333,48.00781249999999,0)" xlink:href="#A"/><use transform="matrix(0.01302083333333333,0,0,0.01302083333333333,64.01041666666666,0)" xlink:href="#B"/><use transform="matrix(0.01302083333333333,0,0,0.01302083333333333,80.01302083333331,0)" xlink:href="#C"/></g><path fill="#333" d="M1126-328H913V0H737v-328H61v-159l664-983h188v976h213v166zM737-494c1-292-4-481 13-788h-9c-24 68-55 128-90 180L240-494h497" id="Q"/><use transform="matrix(0.01302083333333333,0,0,0.01302083333333333,0,0)" xlink:href="#Q" id="m"/><g id="n"><use transform="matrix(0.008680555555555556,0,0,0.008680555555555556,0,0)" xlink:href="#P"/><use transform="matrix(0.008680555555555556,0,0,0.008680555555555556,10.668402777777779,0)" xlink:href="#B"/><use transform="matrix(0.008680555555555556,0,0,0.008680555555555556,21.336805555555557,0)" xlink:href="#C"/><use transform="matrix(0.008680555555555556,0,0,0.008680555555555556,32.005208333333336,0)" xlink:href="#A"/><use transform="matrix(0.008680555555555556,0,0,0.008680555555555556,42.673611111111114,0)" xlink:href="#B"/><use transform="matrix(0.008680555555555556,0,0,0.008680555555555556,53.34201388888889,0)" xlink:href="#C"/></g><path fill="#333" d="M233 0v-1462h187v1296h635V0H233" id="R"/><g id="o"><use transform="matrix(0.01302083333333333,0,0,0.01302083333333333,0,0)" xlink:href="#R"/><use transform="matrix(0.01302083333333333,0,0,0.01302083333333333,16.002604166666664,0)" xlink:href="#D"/><use transform="matrix(0.01302083333333333,0,0,0.01302083333333333,32.00520833333333,0)" xlink:href="#O"/></g><path fill="#333" d="M1055-469c0 318-203 489-527 489-149 0-268-26-356-79v-172c96 64 216 96 360 96 224 0 336-105 336-314 0-196-115-294-344-294-59 0-136 9-231 26l-90-57 55-688h690v166H416l-39 419c71-13 141-20 209-20 270-4 469 161 469 428" id="S"/><use transform="matrix(0.01302083333333333,0,0,0.01302083333333333,0,0)" xlink:href="#S" id="p"/><path fill="#333" d="M1137-424C1137-153 941 0 662 0H135v-1462c284 7 685-30 837 88 80 62 124 152 124 282 0 179-125 297-291 316v10c221 36 332 150 332 342zm-232-655c0-182-120-224-319-224H322v461h284c195-2 299-53 299-237zM322-686v528h307c207 0 311-91 311-274 0-169-108-254-324-254H322" id="T"/><path fill="#333" d="M383-553l135-152 395-393h222L641-623 1163 0H950L524-504l-129 82V0H215v-1556h180c-3 337 9 689-16 1003h4" id="U"/><path fill="#333" d="M1198 0H987L537-698 397-584V0H211v-1462h186v731l121-168 453-563h209L659-825" id="V"/><path fill="#333" d="M442-897c93-139 173-221 377-221 79 0 159 15 240 45l-49 166c-82-30-157-45-224-45-221 0-340 134-340 360V0H264v-1098h148l22 201h8" id="W"/><g id="q"><use transform="matrix(0.013020833333333332,0,0,0.013020833333333332,0,0)" xlink:href="#T"/><use transform="matrix(0.013020833333333332,0,0,0.013020833333333332,16.002604166666664,0)" xlink:href="#D"/><use transform="matrix(0.013020833333333332,0,0,0.013020833333333332,32.00520833333333,0)" xlink:href="#D"/><use transform="matrix(0.013020833333333332,0,0,0.013020833333333332,48.00781249999999,0)" xlink:href="#U"/><use transform="matrix(0.013020833333333332,0,0,0.013020833333333332,64.01041666666666,0)" xlink:href="#V"/><use transform="matrix(0.013020833333333332,0,0,0.013020833333333332,80.01302083333331,0)" xlink:href="#M"/><use transform="matrix(0.013020833333333332,0,0,0.013020833333333332,96.01562499999997,0)" xlink:href="#M"/><use transform="matrix(0.013020833333333332,0,0,0.013020833333333332,112.01822916666663,0)" xlink:href="#A"/><use transform="matrix(0.013020833333333332,0,0,0.013020833333333332,128.0208333333333,0)" xlink:href="#M"/><use transform="matrix(0.013020833333333332,0,0,0.013020833333333332,144.02343749999994,0)" xlink:href="#W"/></g><path fill="#333" d="M1087-391c0 281-226 411-532 411-177 0-315-23-414-69v-178c141 57 279 86 414 86 233 0 350-80 350-240 0-69-24-123-71-160s-142-82-285-133c-139-49-239-106-299-174s-90-156-90-264c2-252 211-371 481-371 153 0 291 26 416 78l-64 164c-129-52-249-78-360-78-195 0-293 70-293 209 0 68 22 123 66 164s134 85 270 133c164 58 273 119 328 181s83 143 83 241" id="X"/><g id="r"><use transform="matrix(0.008680555555555556,0,0,0.008680555555555556,0,0)" xlink:href="#X"/><use transform="matrix(0.008680555555555556,0,0,0.008680555555555556,10.668402777777779,0)" xlink:href="#C"/><use transform="matrix(0.008680555555555556,0,0,0.008680555555555556,21.336805555555557,0)" xlink:href="#L"/><use transform="matrix(0.008680555555555556,0,0,0.008680555555555556,32.005208333333336,0)" xlink:href="#C"/><use transform="matrix(0.008680555555555556,0,0,0.008680555555555556,42.673611111111114,0)" xlink:href="#M"/></g><path fill="#333" d="M137-547c0-322 136-571 430-571 137 0 245 53 322 160h12c-24-215-7-376-12-598h182V0H924l-27-147h-8C814-36 706 20 567 20c-294 0-430-246-430-567zm463 416c241 0 288-157 289-416 0-151-23-259-69-323s-121-97-222-97c-181 0-272 141-272 422 0 276 91 414 274 414" id="Y"/><g id="s"><use transform="matrix(0.008680555555555556,0,0,0.008680555555555556,0,0)" xlink:href="#B"/><use transform="matrix(0.008680555555555556,0,0,0.008680555555555556,10.668402777777779,0)" xlink:href="#A"/><use transform="matrix(0.008680555555555556,0,0,0.008680555555555556,21.336805555555557,0)" xlink:href="#Y"/><use transform="matrix(0.008680555555555556,0,0,0.008680555555555556,32.005208333333336,0)" xlink:href="#L"/><use transform="matrix(0.008680555555555556,0,0,0.008680555555555556,42.673611111111114,0)" xlink:href="#C"/><use transform="matrix(0.008680555555555556,0,0,0.008680555555555556,53.34201388888889,0)" xlink:href="#M"/><use transform="matrix(0.008680555555555556,0,0,0.008680555555555556,64.01041666666667,0)" xlink:href="#K"/></g><g id="t"><use transform="matrix(0.008680555555555556,0,0,0.008680555555555556,0,0)" xlink:href="#R"/><use transform="matrix(0.008680555555555556,0,0,0.008680555555555556,10.668402777777779,0)" xlink:href="#D"/><use transform="matrix(0.008680555555555556,0,0,0.008680555555555556,21.336805555555557,0)" xlink:href="#O"/></g><g id="u"><use transform="matrix(0.008680555555555556,0,0,0.008680555555555556,0,0)" xlink:href="#D"/><use transform="matrix(0.008680555555555556,0,0,0.008680555555555556,10.668402777777779,0)" xlink:href="#B"/><use transform="matrix(0.008680555555555556,0,0,0.008680555555555556,21.336805555555557,0)" xlink:href="#C"/><use transform="matrix(0.008680555555555556,0,0,0.008680555555555556,32.005208333333336,0)" xlink:href="#A"/><use transform="matrix(0.008680555555555556,0,0,0.008680555555555556,42.673611111111114,0)" xlink:href="#B"/><use transform="matrix(0.008680555555555556,0,0,0.008680555555555556,53.34201388888889,0)" xlink:href="#C"/></g><path fill="#3a414a" d="M1094-1034c0 310-213 470-541 465H362V0H176v-1462h404c343 0 514 143 514 428zM532-727c244-1 369-71 369-297 0-186-113-279-338-279H362v576h170" id="Z"/><path fill="#3a414a" d="M442-897c93-139 173-221 377-221 79 0 159 15 240 45l-49 166c-82-30-157-45-224-45-221 0-340 134-340 360V0H264v-1098h148l22 201h8" id="aa"/><path fill="#3a414a" d="M1112-551c0 331-186 571-502 571-301 0-495-251-495-571 0-330 184-567 501-567 302 0 496 249 496 567zM614-131c207 0 310-140 310-420 0-277-104-416-312-416-206 0-309 139-309 416 0 280 104 420 311 420" id="ab"/><path fill="#3a414a" d="M137-547c0-322 136-571 430-571 137 0 245 53 322 160h12c-24-215-7-376-12-598h182V0H924l-27-147h-8C814-36 706 20 567 20c-294 0-430-246-430-567zm463 416c241 0 288-157 289-416 0-151-23-259-69-323s-121-97-222-97c-181 0-272 141-272 422 0 276 91 414 274 414" id="ac"/><path fill="#3a414a" d="M578-131c239 0 309-137 309-397v-570h182V0H922l-27-147h-10C815-36 704 20 551 20c-261 0-391-134-391-401v-717h182v707c0 173 79 260 236 260" id="ad"/><path fill="#3a414a" d="M172-543c0-365 197-575 553-575 119 0 231 20 336 59l-62 158c-100-38-189-57-268-57-247 0-371 138-371 413 0 271 120 406 361 406 105 0 212-21 321-62v160C953 0 843 20 713 20c-347 1-541-210-541-563" id="ae"/><path fill="#3a414a" d="M631-1118c283 0 470 204 465 491v113H322c5 250 120 375 344 375 130 0 253-25 370-76v160C925-5 804 20 672 20c-329 0-539-224-539-561 0-331 182-577 498-577zM326-662h573c0-203-91-305-272-305-183 0-284 102-301 305" id="af"/><g id="v"><use transform="matrix(0.010850694444444444,0,0,0.010850694444444444,0,0)" xlink:href="#Z"/><use transform="matrix(0.010850694444444444,0,0,0.010850694444444444,13.335503472222221,0)" xlink:href="#aa"/><use transform="matrix(0.010850694444444444,0,0,0.010850694444444444,26.671006944444443,0)" xlink:href="#ab"/><use transform="matrix(0.010850694444444444,0,0,0.010850694444444444,40.006510416666664,0)" xlink:href="#ac"/><use transform="matrix(0.010850694444444444,0,0,0.010850694444444444,53.342013888888886,0)" xlink:href="#ad"/><use transform="matrix(0.010850694444444444,0,0,0.010850694444444444,66.67751736111111,0)" xlink:href="#ae"/><use transform="matrix(0.010850694444444444,0,0,0.010850694444444444,80.01302083333334,0)" xlink:href="#af"/><use transform="matrix(0.010850694444444444,0,0,0.010850694444444444,93.34852430555557,0)" xlink:href="#aa"/></g><path fill="#fff" d="M1059 0H217v-1462h842v164H403v452h617v162H403v520h656V0" id="ag"/><path fill="#fff" d="M510-563l-393-535h207l290 410 291-410h207L717-563 1130 0H924L614-436 303 0H96" id="ah"/><path fill="#fff" d="M631-1118c283 0 470 204 465 491v113H322c5 250 120 375 344 375 130 0 253-25 370-76v160C925-5 804 20 672 20c-329 0-539-224-539-561 0-331 182-577 498-577zM326-662h573c0-203-91-305-272-305-183 0-284 102-301 305" id="ai"/><path fill="#fff" d="M172-543c0-365 197-575 553-575 119 0 231 20 336 59l-62 158c-100-38-189-57-268-57-247 0-371 138-371 413 0 271 120 406 361 406 105 0 212-21 321-62v160C953 0 843 20 713 20c-347 1-541-210-541-563" id="aj"/><path fill="#fff" d="M578-131c239 0 309-137 309-397v-570h182V0H922l-27-147h-10C815-36 704 20 551 20c-261 0-391-134-391-401v-717h182v707c0 173 79 260 236 260" id="ak"/><path fill="#fff" d="M1020-150v138C933 9 849 20 768 20 527 20 406-95 406-324v-637H139v-94l267-49 77-287h105v293h438v137H588v637c0 130 64 195 192 195 62 0 142-7 240-21" id="al"/><path fill="#fff" d="M1112-551c0 331-186 571-502 571-301 0-495-251-495-571 0-330 184-567 501-567 302 0 496 249 496 567zM614-131c207 0 310-140 310-420 0-277-104-416-312-416-206 0-309 139-309 416 0 280 104 420 311 420" id="am"/><path fill="#fff" d="M442-897c93-139 173-221 377-221 79 0 159 15 240 45l-49 166c-82-30-157-45-224-45-221 0-340 134-340 360V0H264v-1098h148l22 201h8" id="an"/><g id="w"><use transform="matrix(0.010959201388888886,0,0,0.010959201388888886,0,0)" xlink:href="#ag"/><use transform="matrix(0.010959201388888886,0,0,0.010959201388888886,13.468858506944441,0)" xlink:href="#ah"/><use transform="matrix(0.010959201388888886,0,0,0.010959201388888886,26.937717013888882,0)" xlink:href="#ai"/><use transform="matrix(0.010959201388888886,0,0,0.010959201388888886,40.40657552083332,0)" xlink:href="#aj"/><use transform="matrix(0.010959201388888886,0,0,0.010959201388888886,53.875434027777764,0)" xlink:href="#ak"/><use transform="matrix(0.010959201388888886,0,0,0.010959201388888886,67.3442925347222,0)" xlink:href="#al"/><use transform="matrix(0.010959201388888886,0,0,0.010959201388888886,80.81315104166664,0)" xlink:href="#am"/><use transform="matrix(0.010959201388888886,0,0,0.010959201388888886,94.28200954861109,0)" xlink:href="#an"/></g><path fill="#3a414a" d="M326-731c0 353 139 584 471 588 87 0 196-19 327-58v162c-97 39-217 59-358 59-433-1-637-301-637-753 0-438 243-750 668-750 147 0 274 29 383 86l-78 156c-103-52-204-78-305-78-307 1-471 259-471 588" id="ao"/><path fill="#3a414a" d="M887 0v-707c0-173-79-260-238-260-205 0-307 133-307 398V0H160v-1098h147l27 148h10c69-112 181-168 336-168 259 0 389 134 389 401V0H887" id="ap"/><path fill="#3a414a" d="M1026-301c0 225-197 321-448 321-165 0-290-23-375-69v-166c129 57 252 86 370 86 183 0 275-54 275-162 0-38-16-71-49-99s-108-63-226-106c-156-57-253-112-293-160s-61-105-61-171c2-338 524-340 789-217l-60 149c-121-48-228-72-319-72-157 0-236 44-236 133 0 41 17 74 51 98s111 57 232 101c141 51 234 101 280 151s70 111 70 183" id="aq"/><path fill="#3a414a" d="M977 0v-707c0-97-9-165-27-203s-47-57-88-57c-58 0-100 28-126 83s-40 148-40 278V0H535v-707c0-173-42-260-125-260-56 0-96 26-120 79s-36 160-36 319V0H92v-1098h127l27 148h10c45-112 112-168 201-168 109 0 180 61 213 182h6c51-121 124-182 219-182 85 0 147 30 186 92s58 165 58 309V0H977" id="ar"/><g id="x"><use transform="matrix(0.010850694444444444,0,0,0.010850694444444444,0,0)" xlink:href="#ao"/><use transform="matrix(0.010850694444444444,0,0,0.010850694444444444,13.335503472222221,0)" xlink:href="#ab"/><use transform="matrix(0.010850694444444444,0,0,0.010850694444444444,26.671006944444443,0)" xlink:href="#ap"/><use transform="matrix(0.010850694444444444,0,0,0.010850694444444444,40.006510416666664,0)" xlink:href="#aq"/><use transform="matrix(0.010850694444444444,0,0,0.010850694444444444,53.342013888888886,0)" xlink:href="#ad"/><use transform="matrix(0.010850694444444444,0,0,0.010850694444444444,66.67751736111111,0)" xlink:href="#ar"/><use transform="matrix(0.010850694444444444,0,0,0.010850694444444444,80.01302083333334,0)" xlink:href="#af"/><use transform="matrix(0.010850694444444444,0,0,0.010850694444444444,93.34852430555557,0)" xlink:href="#aa"/></g></defs></g></svg>