<svg xmlns="http://www.w3.org/2000/svg" xmlns:xlink="http://www.w3.org/1999/xlink" xmlns:lucid="lucid" width="1299.8" height="543.1"><g transform="translate(-212.19947506569406 -112.90383925092392)" lucid:page-tab-id="0_0"><path d="M0 0h1870.87v1322.83H0z" fill="#fff"/><path d="M232.2 214a6 6 0 0 1 6-6h162.67a6 6 0 0 1 6 6v118.67a6 6 0 0 1-6 6H238.2a6 6 0 0 1-6-6z" stroke="#5e5e5e" stroke-width="2" fill="#fff"/><use xlink:href="#a" transform="matrix(1,0,0,1,237.19947506569406,213.00000000000003) translate(35.825737847222236 69.78342013888889)"/><path d="M1037.33 227.33c19.9 0 36 17.9 36 40s-16.1 40-36 40h-108c-19.88 0-36-17.9-36-40s16.12-40 36-40z" stroke="#188fff" stroke-width="4" fill="#188fff"/><use xlink:href="#b" transform="matrix(1,0,0,1,898.3333333333721,232.33333333333343) translate(31.12956597222223 29.58344184027777)"/><use xlink:href="#c" transform="matrix(1,0,0,1,898.3333333333721,232.33333333333343) translate(37.86399522569445 55.71017795138887)"/><path d="M1246.67 227.33c19.88 0 36 17.9 36 40s-16.12 40-36 40h-108c-19.9 0-36-17.9-36-40s16.1-40 36-40z" stroke="#188fff" stroke-width="4" fill="#188fff"/><use xlink:href="#b" transform="matrix(1,0,0,1,1107.6666666666667,232.33333333333354) translate(31.12956597222223 29.58344184027777)"/><use xlink:href="#d" transform="matrix(1,0,0,1,1107.6666666666667,232.33333333333354) translate(37.86399522569445 55.71017795138887)"/><path d="M1456 227.33c19.88 0 36 17.9 36 40s-16.12 40-36 40h-108c-19.88 0-36-17.9-36-40s16.12-40 36-40z" stroke="#188fff" stroke-width="4" fill="#188fff"/><use xlink:href="#b" transform="matrix(1,0,0,1,1316.9999999999613,232.33333333333343) translate(31.12956597222223 29.58344184027777)"/><use xlink:href="#e" transform="matrix(1,0,0,1,1316.9999999999613,232.33333333333343) translate(37.86399522569445 55.71017795138887)"/><path d="M835.78 597.78h-20.74c-.95 0-1.7-.76-1.7-1.7v-2.54c0-9.48 6.23-17.44 15.48-19.67.43-.1.82-.04 1.22.17 2.72 1.46 5.67 1.46 8.4 0 .4-.2.78-.26 1.2-.17 2.44.6 4.44 1.47 6.5 2.85l-1.9 2.83c-1.54-1-2.98-1.68-4.8-2.15-3.43 1.58-6.98 1.58-10.42 0-7.38 2.06-12.27 8.5-12.27 16.14v.84h19.03z" stroke="#fff" stroke-opacity="0" fill="#232f3e"/><path d="M834.2 578.46c-6.16 0-11.16-5-11.16-11.14 0-6.16 5-11.15 11.17-11.15 6.18-.07 11.2 4.88 11.27 11 .04 4.27-2.1 7.9-5.85 9.9-1.73.97-3.4 1.4-5.4 1.4zm0-18.9c-4.3 0-7.82 3.45-7.84 7.76 0 2.92 1.48 5.4 4.06 6.8 2.44 1.3 5.14 1.3 7.58 0 2.6-1.4 4.1-3.95 4.06-6.9-.04-4.27-3.57-7.68-7.85-7.64zM891.66 597.78H870.9v-3.4h19.05v-.83c0-7.67-4.9-14.1-12.27-16.17-3.45 1.6-7 1.6-10.46 0-1.8.5-3.28 1.2-4.83 2.28l-1.95-2.8c2.07-1.44 4.08-2.35 6.5-2.97.44-.1.87-.06 1.26.16 2.7 1.46 5.7 1.46 8.43 0 .4-.22.8-.27 1.22-.17 9.24 2.22 15.48 10.16 15.48 19.65v2.53c0 .94-.75 1.68-1.67 1.7z" stroke="#fff" stroke-opacity="0" fill="#232f3e"/><path d="M872.42 578.46c-6.22 0-11.24-5.05-11.24-11.25s5.07-11.2 11.28-11.2c6.2 0 11.23 5.05 11.23 11.25 0 4.23-2.14 7.82-5.86 9.84-1.75.94-3.44 1.36-5.42 1.36zm0-18.9c-4.3 0-7.82 3.45-7.84 7.76-.02 2.92 1.47 5.42 4.05 6.8 2.44 1.3 5.14 1.3 7.6 0 2.62-1.4 4.13-3.97 4.1-6.96-.1-4.26-3.64-7.68-7.9-7.6zM880.52 636h-54.44c-.93 0-1.68-.75-1.68-1.7v-3.6c-.06-13.1 8.6-24.1 21.33-27.18.46-.13.87-.06 1.27.13 4.05 2.18 8.5 2.18 12.6 0 .35-.2.75-.26 1.2-.13 12.8 3.06 21.45 14.06 21.4 27.18v3.6c0 .95-.75 1.7-1.68 1.7zm-52.7-3.38h50.97v-1.92c0-11.27-7.3-20.74-18.22-23.66-4.8 2.3-9.82 2.3-14.62 0-10.92 2.92-18.15 12.4-18.15 23.66z" stroke="#fff" stroke-opacity="0" fill="#232f3e"/><path d="M853.36 608.64c-2.7 0-5-.58-7.4-1.86-7.4-4.07-10.14-13.34-6.1-20.77 4.08-7.4 13.37-10.12 20.82-6.08 7.42 4.07 10.15 13.34 6.1 20.77-1.47 2.68-3.4 4.6-6.1 6.08-2.36 1.28-4.66 1.86-7.32 1.86zm0-26.76c-4.45-.06-8.28 2.17-10.43 6.1-3.06 5.64-.98 12.74 4.7 15.83 3.67 1.97 7.72 1.97 11.4 0 3.95-2.13 6.22-5.95 6.16-10.42-.1-6.42-5.4-11.6-11.84-11.5z" stroke="#fff" stroke-opacity="0" fill="#232f3e"/><path d="M892.1 597.78h-39.7c-.68 0-1.23-.54-1.23-1.23v-2.64c-.05-9.53 6.28-17.56 15.56-19.8.33-.1.63-.06.92.08 2.96 1.6 6.2 1.6 9.2 0 .25-.14.54-.2.88-.1 9.32 2.24 15.65 10.27 15.6 19.83v2.65c0 .7-.54 1.23-1.22 1.23zm-38.45-2.47h37.2v-1.4c0-8.2-5.32-15.1-13.3-17.25-3.5 1.7-7.16 1.7-10.65 0-7.97 2.14-13.25 9.05-13.25 17.26z" stroke="#fff" stroke-opacity="0" stroke-width=".73" fill="#fff" fill-opacity="0"/><path d="M854.28 597.78h-39.72c-.68 0-1.23-.54-1.23-1.23v-2.64c-.04-9.53 6.3-17.56 15.56-19.8.33-.1.63-.06.92.08 2.95 1.6 6.2 1.6 9.2 0 .25-.14.54-.2.88-.1 9.32 2.24 15.64 10.27 15.6 19.83v2.65c0 .7-.55 1.23-1.22 1.23zm-38.46-2.47h37.2v-1.4c0-8.2-5.32-15.1-13.3-17.25-3.5 1.7-7.16 1.7-10.66 0-7.97 2.14-13.24 9.05-13.24 17.26z" stroke="#fff" stroke-opacity="0" stroke-width=".73" fill="#fff" fill-opacity="0"/><path d="M822.87 566.63l-.52.85-112.24-68.22h1.94zm-160.5-99.5l16.96 11.43h-1.78l-15.75-10.62-78.1-56 .57-.8z" stroke="#3a414a" stroke-width=".05" fill="#3a414a"/><path d="M823.1 566.77l-.06.55.08.63-.78-.48.52-.85z" fill="#3a414a"/><path d="M823.14 566.76l-.08.56.1.68-.86-.52.55-.9zm-.77.7l.72.44-.1-.58.08-.53-.22-.15z" stroke="#3a414a" stroke-width=".05" fill="#3a414a"/><path d="M586.28 407.5l-5.4 7.52-8.9-12.08z" fill="#3a414a"/><path d="M587.08 407.22l-6.2 8.65-10.2-13.87zm-6.2 6.95l4.6-6.42-12.18-3.86z" stroke="#3a414a" stroke-width=".05" fill="#3a414a"/><use xlink:href="#f" transform="matrix(1,0,0,1,587.3690511822729,478.56239041938574) translate(0 16.50173611111111)"/><use xlink:href="#g" transform="matrix(1,0,0,1,587.3690511822729,478.56239041938574) translate(42.673611111111114 16.50173611111111)"/><use xlink:href="#h" transform="matrix(1,0,0,1,587.3690511822729,478.56239041938574) translate(106.68402777777779 16.50173611111111)"/><path d="M455 379.67H231v-2h224zm368 0H599v-2h224z" stroke="#3a414a" stroke-width=".05" fill="#3a414a"/><path d="M231.03 379.67H230v-2h1.03zM824 379.67h-1.03v-2H824z" stroke="#3a414a" stroke-width=".05" fill="#3a414a"/><use xlink:href="#i" transform="matrix(1,0,0,1,454.9882812500193,367.0260416666667) translate(0 18.564453124999996)"/><use xlink:href="#j" transform="matrix(1,0,0,1,454.9882812500193,367.0260416666667) translate(96.01562499999999 18.564453124999996)"/><path d="M438 214a6 6 0 0 1 6-6h162.67a6 6 0 0 1 6 6v118.67a6 6 0 0 1-6 6H444a6 6 0 0 1-6-6z" stroke="#5e5e5e" stroke-width="2" fill="#fff"/><use xlink:href="#k" transform="matrix(1,0,0,1,443,213.00000000000003) translate(35.825737847222236 69.78342013888889)"/><path d="M643.8 214a6 6 0 0 1 6-6h162.67a6 6 0 0 1 6 6v118.67a6 6 0 0 1-6 6H649.8a6 6 0 0 1-6-6z" stroke="#5e5e5e" stroke-width="2" fill="#fff"/><use xlink:href="#l" transform="matrix(1,0,0,1,648.8005249343064,213.00000000000003) translate(35.825737847222236 69.78342013888889)"/><path d="M1127.85 380.33H903.87v-2h223.98zm368.02 0h-224v-2h224z" stroke="#3a414a" stroke-width=".05" fill="#3a414a"/><path d="M903.9 380.33h-1.03v-2h1.02zM1496.87 380.33h-1.03v-2h1.03z" stroke="#3a414a" stroke-width=".05" fill="#3a414a"/><use xlink:href="#i" transform="matrix(1,0,0,1,1127.8544229823412,367.69270833333337) translate(0 18.564453124999996)"/><use xlink:href="#j" transform="matrix(1,0,0,1,1127.8544229823412,367.69270833333337) translate(96.01562499999999 18.564453124999996)"/><path d="M884.2 565.94l-.53-.85 116.02-70.9h1.9zm248.88-152.1l-63.75 38.96h-1.92l65.16-39.8z" stroke="#3a414a" stroke-width=".05" fill="#3a414a"/><path d="M884.2 565.94l-.63.38-.14-1.08.25-.16z" fill="#3a414a"/><path d="M884.24 565.95l-.7.4-.14-1.12.3-.18zm-.78-.7l.13 1.03.57-.35-.5-.8z" stroke="#3a414a" stroke-width=".05" fill="#3a414a"/><path d="M1135.72 417.07l-4.96-7.83 14.54-3.7z" fill="#3a414a"/><path d="M1135.66 417.92l-5.7-9 16.7-4.25zm-4.1-8.37l4.2 6.67 8.17-9.82z" stroke="#3a414a" stroke-width=".05" fill="#3a414a"/><g><use xlink:href="#m" transform="matrix(1,0,0,1,885.1513693823945,452.80472985337155) translate(0.0049999999999954525 16.50173611111111)"/><use xlink:href="#n" transform="matrix(1,0,0,1,885.1513693823945,452.80472985337155) translate(117.35743055555554 16.50173611111111)"/><use xlink:href="#o" transform="matrix(1,0,0,1,885.1513693823945,452.80472985337155) translate(213.37305555555554 16.50173611111111)"/><use xlink:href="#p" transform="matrix(1,0,0,1,885.1513693823945,452.80472985337155) translate(85.35222222222221 37.19618055555556)"/><use xlink:href="#q" transform="matrix(1,0,0,1,885.1513693823945,452.80472985337155) translate(170.69944444444445 37.19618055555556)"/></g><path d="M1184.87 185.14l-23.55-9.83-27.2-10.03-30.28-9.75-33.04-9.14-35.28-8.2-36.86-6.93-37.7-5.5-37.88-3.88-37.4-2.28-36.5-.7-35.2.8-33.7 2.2-32.06 3.44-30.4 4.55-28.73 5.53-27.14 6.42-25.58 7.2-24.13 7.9-22.78 8.52-21.5 9.1-7.85 3.7" stroke="#3a414a" stroke-linejoin="round" fill="none"/><path d="M1184.86 185.13l.47.2" stroke="#3a414a" fill="none"/><path d="M546.8 184.64l10.87-10.33 4 8.37z" stroke="#3a414a" fill="#3a414a"/><defs><path fill="#333" d="M1137-424C1137-153 941 0 662 0H135v-1462c284 7 685-30 837 88 80 62 124 152 124 282 0 179-125 297-291 316v10c221 36 332 150 332 342zm-232-655c0-182-120-224-319-224H322v461h284c195-2 299-53 299-237zM322-686v528h307c207 0 311-91 311-274 0-169-108-254-324-254H322" id="r"/><path fill="#333" d="M442-897c93-139 173-221 377-221 79 0 159 15 240 45l-49 166c-82-30-157-45-224-45-221 0-340 134-340 360V0H264v-1098h148l22 201h8" id="s"/><path fill="#333" d="M1112-551c0 331-186 571-502 571-301 0-495-251-495-571 0-330 184-567 501-567 302 0 496 249 496 567zM614-131c207 0 310-140 310-420 0-277-104-416-312-416-206 0-309 139-309 416 0 280 104 420 311 420" id="t"/><path fill="#333" d="M383-553l135-152 395-393h222L641-623 1163 0H950L524-504l-129 82V0H215v-1556h180c-3 337 9 689-16 1003h4" id="u"/><path fill="#333" d="M631-1118c283 0 470 204 465 491v113H322c5 250 120 375 344 375 130 0 253-25 370-76v160C925-5 804 20 672 20c-329 0-539-224-539-561 0-331 182-577 498-577zM326-662h573c0-203-91-305-272-305-183 0-284 102-301 305" id="v"/><path fill="#333" d="M612 20c-153 0-268-65-347-194S147-489 147-733c0-501 155-752 465-752 155 0 271 64 350 193s119 316 119 559c0 502-156 753-469 753zm0-155c98 0 165-50 216-141 86-153 87-759 0-912-51-91-118-141-216-141-97 0-162 49-212 139-85 152-84 764 0 915 50 90 115 140 212 140" id="w"/><g id="a"><use transform="matrix(0.010850694444444442,0,0,0.010850694444444442,0,0)" xlink:href="#r"/><use transform="matrix(0.010850694444444442,0,0,0.010850694444444442,13.33550347222222,0)" xlink:href="#s"/><use transform="matrix(0.010850694444444442,0,0,0.010850694444444442,26.67100694444444,0)" xlink:href="#t"/><use transform="matrix(0.010850694444444442,0,0,0.010850694444444442,40.00651041666666,0)" xlink:href="#u"/><use transform="matrix(0.010850694444444442,0,0,0.010850694444444442,53.34201388888888,0)" xlink:href="#v"/><use transform="matrix(0.010850694444444442,0,0,0.010850694444444442,66.6775173611111,0)" xlink:href="#s"/><use transform="matrix(0.010850694444444442,0,0,0.010850694444444442,80.01302083333331,0)" xlink:href="#w"/></g><path fill="#fff" d="M430 0H244v-1462h841v164H430v516h617v164H430V0" id="x"/><path fill="#fff" d="M578-131c239 0 309-137 309-397v-570h182V0H922l-27-147h-10C815-36 704 20 551 20c-261 0-391-134-391-401v-717h182v707c0 173 79 260 236 260" id="y"/><path fill="#fff" d="M887 0v-707c0-173-79-260-238-260-205 0-307 133-307 398V0H160v-1098h147l27 148h10c69-112 181-168 336-168 259 0 389 134 389 401V0H887" id="z"/><path fill="#fff" d="M172-543c0-365 197-575 553-575 119 0 231 20 336 59l-62 158c-100-38-189-57-268-57-247 0-371 138-371 413 0 271 120 406 361 406 105 0 212-21 321-62v160C953 0 843 20 713 20c-347 1-541-210-541-563" id="A"/><path fill="#fff" d="M1020-150v138C933 9 849 20 768 20 527 20 406-95 406-324v-637H139v-94l267-49 77-287h105v293h438v137H588v637c0 130 64 195 192 195 62 0 142-7 240-21" id="B"/><path fill="#fff" d="M739-1436c0 71-43 115-106 115-71 0-107-38-107-115 0-76 36-114 107-114s106 38 106 114zM541-954l-269-21v-123h451v955l352 20V0H197v-123l344-20v-811" id="C"/><path fill="#fff" d="M1112-551c0 331-186 571-502 571-301 0-495-251-495-571 0-330 184-567 501-567 302 0 496 249 496 567zM614-131c207 0 310-140 310-420 0-277-104-416-312-416-206 0-309 139-309 416 0 280 104 420 311 420" id="D"/><g id="b"><use transform="matrix(0.010959201388888886,0,0,0.010959201388888886,0,0)" xlink:href="#x"/><use transform="matrix(0.010959201388888886,0,0,0.010959201388888886,13.468858506944441,0)" xlink:href="#y"/><use transform="matrix(0.010959201388888886,0,0,0.010959201388888886,26.937717013888882,0)" xlink:href="#z"/><use transform="matrix(0.010959201388888886,0,0,0.010959201388888886,40.40657552083332,0)" xlink:href="#A"/><use transform="matrix(0.010959201388888886,0,0,0.010959201388888886,53.875434027777764,0)" xlink:href="#B"/><use transform="matrix(0.010959201388888886,0,0,0.010959201388888886,67.3442925347222,0)" xlink:href="#C"/><use transform="matrix(0.010959201388888886,0,0,0.010959201388888886,80.81315104166664,0)" xlink:href="#D"/><use transform="matrix(0.010959201388888886,0,0,0.010959201388888886,94.28200954861109,0)" xlink:href="#z"/></g><path fill="#fff" d="M528-1008h177c63 241 176 595 217 828 10-131 108-1012 135-1282h170L1040 0H850c-78-286-175-558-234-862C553-542 470-299 395 0H205L2-1462h170c52 408 123 848 145 1282 49-284 143-558 211-828" id="E"/><path fill="#fff" d="M442-897c93-139 173-221 377-221 79 0 159 15 240 45l-49 166c-82-30-157-45-224-45-221 0-340 134-340 360V0H264v-1098h148l22 201h8" id="F"/><path fill="#fff" d="M383-553l135-152 395-393h222L641-623 1163 0H950L524-504l-129 82V0H215v-1556h180c-3 337 9 689-16 1003h4" id="G"/><path fill="#fff" d="M631-1118c283 0 470 204 465 491v113H322c5 250 120 375 344 375 130 0 253-25 370-76v160C925-5 804 20 672 20c-329 0-539-224-539-561 0-331 182-577 498-577zM326-662h573c0-203-91-305-272-305-183 0-284 102-301 305" id="H"/><path fill="#fff" d="M612 20c-153 0-268-65-347-194S147-489 147-733c0-501 155-752 465-752 155 0 271 64 350 193s119 316 119 559c0 502-156 753-469 753zm0-155c98 0 165-50 216-141 86-153 87-759 0-912-51-91-118-141-216-141-97 0-162 49-212 139-85 152-84 764 0 915 50 90 115 140 212 140" id="I"/><g id="c"><use transform="matrix(0.010959201388888886,0,0,0.010959201388888886,0,0)" xlink:href="#E"/><use transform="matrix(0.010959201388888886,0,0,0.010959201388888886,13.468858506944441,0)" xlink:href="#D"/><use transform="matrix(0.010959201388888886,0,0,0.010959201388888886,26.937717013888882,0)" xlink:href="#F"/><use transform="matrix(0.010959201388888886,0,0,0.010959201388888886,40.40657552083332,0)" xlink:href="#G"/><use transform="matrix(0.010959201388888886,0,0,0.010959201388888886,53.875434027777764,0)" xlink:href="#H"/><use transform="matrix(0.010959201388888886,0,0,0.010959201388888886,67.3442925347222,0)" xlink:href="#F"/><use transform="matrix(0.010959201388888886,0,0,0.010959201388888886,80.81315104166664,0)" xlink:href="#I"/></g><path fill="#fff" d="M758 0H582c3-449-8-824 8-1274-61 68-188 168-268 234l-97-123 383-299h150V0" id="J"/><g id="d"><use transform="matrix(0.010959201388888886,0,0,0.010959201388888886,0,0)" xlink:href="#E"/><use transform="matrix(0.010959201388888886,0,0,0.010959201388888886,13.468858506944441,0)" xlink:href="#D"/><use transform="matrix(0.010959201388888886,0,0,0.010959201388888886,26.937717013888882,0)" xlink:href="#F"/><use transform="matrix(0.010959201388888886,0,0,0.010959201388888886,40.40657552083332,0)" xlink:href="#G"/><use transform="matrix(0.010959201388888886,0,0,0.010959201388888886,53.875434027777764,0)" xlink:href="#H"/><use transform="matrix(0.010959201388888886,0,0,0.010959201388888886,67.3442925347222,0)" xlink:href="#F"/><use transform="matrix(0.010959201388888886,0,0,0.010959201388888886,80.81315104166664,0)" xlink:href="#J"/></g><path fill="#fff" d="M594-1483c248 0 420 149 418 391 0 79-21 160-59 244-73 161-414 504-572 674v8h688V0H158v-156c172-193 489-508 607-698 43-69 62-147 62-231 0-146-91-244-235-244-107 0-213 46-318 137l-102-119c128-115 269-172 422-172" id="K"/><g id="e"><use transform="matrix(0.010959201388888886,0,0,0.010959201388888886,0,0)" xlink:href="#E"/><use transform="matrix(0.010959201388888886,0,0,0.010959201388888886,13.468858506944441,0)" xlink:href="#D"/><use transform="matrix(0.010959201388888886,0,0,0.010959201388888886,26.937717013888882,0)" xlink:href="#F"/><use transform="matrix(0.010959201388888886,0,0,0.010959201388888886,40.40657552083332,0)" xlink:href="#G"/><use transform="matrix(0.010959201388888886,0,0,0.010959201388888886,53.875434027777764,0)" xlink:href="#H"/><use transform="matrix(0.010959201388888886,0,0,0.010959201388888886,67.3442925347222,0)" xlink:href="#F"/><use transform="matrix(0.010959201388888886,0,0,0.010959201388888886,80.81315104166664,0)" xlink:href="#K"/></g><path fill="#333" d="M1004 0L860-453H369L223 0H33l483-1468h195L1196 0h-192zM807-618c-63-210-144-435-195-650-51 232-127 431-190 650h385" id="L"/><path fill="#333" d="M532-1413l-268-21v-122h451v1413l352 20V0H188v-123l344-20v-1270" id="M"/><g id="f"><use transform="matrix(0.008680555555555556,0,0,0.008680555555555556,0,0)" xlink:href="#L"/><use transform="matrix(0.008680555555555556,0,0,0.008680555555555556,10.668402777777779,0)" xlink:href="#M"/><use transform="matrix(0.008680555555555556,0,0,0.008680555555555556,21.336805555555557,0)" xlink:href="#M"/></g><path fill="#333" d="M1020-150v138C933 9 849 20 768 20 527 20 406-95 406-324v-637H139v-94l267-49 77-287h105v293h438v137H588v637c0 130 64 195 192 195 62 0 142-7 240-21" id="N"/><path fill="#333" d="M887 0v-707c0-173-79-260-238-260-205 0-307 133-307 398V0H160v-1556h182c-2 202 6 416-8 606h10c69-112 181-168 336-168 259 0 389 134 389 401V0H887" id="O"/><g id="g"><use transform="matrix(0.008680555555555556,0,0,0.008680555555555556,0,0)" xlink:href="#t"/><use transform="matrix(0.008680555555555556,0,0,0.008680555555555556,10.668402777777779,0)" xlink:href="#N"/><use transform="matrix(0.008680555555555556,0,0,0.008680555555555556,21.336805555555557,0)" xlink:href="#O"/><use transform="matrix(0.008680555555555556,0,0,0.008680555555555556,32.005208333333336,0)" xlink:href="#v"/><use transform="matrix(0.008680555555555556,0,0,0.008680555555555556,42.673611111111114,0)" xlink:href="#s"/></g><path fill="#333" d="M1092-551c0 322-136 571-430 571-138 0-245-53-322-159h-12c24 220 7 402 12 631H158v-1590h147l27 148h8c73-112 181-168 322-168 294 0 430 246 430 567zM629-967c-241 0-288 156-289 416 0 151 24 259 70 323s120 97 221 97c181 0 272-141 272-422 0-276-91-414-274-414" id="P"/><path fill="#333" d="M596-1118c288 2 430 92 430 366V0H895l-37-152h-8C752-34 680 17 483 20 272 23 135-98 135-307c0-221 170-337 510-348l203-7c15-197-55-305-244-305-98 0-207 27-328 82l-63-137c131-64 258-96 383-96zm-72 991c194 0 325-116 322-311v-99c-251 15-522-6-522 232 0 119 67 178 200 178" id="Q"/><path fill="#333" d="M739-1436c0 71-43 115-106 115-71 0-107-38-107-115 0-76 36-114 107-114s106 38 106 114zM541-954l-269-21v-123h451v955l352 20V0H197v-123l344-20v-811" id="R"/><path fill="#333" d="M887 0v-707c0-173-79-260-238-260-205 0-307 133-307 398V0H160v-1098h147l27 148h10c69-112 181-168 336-168 259 0 389 134 389 401V0H887" id="S"/><path fill="#333" d="M1026-301c0 225-197 321-448 321-165 0-290-23-375-69v-166c129 57 252 86 370 86 183 0 275-54 275-162 0-38-16-71-49-99s-108-63-226-106c-156-57-253-112-293-160s-61-105-61-171c2-338 524-340 789-217l-60 149c-121-48-228-72-319-72-157 0-236 44-236 133 0 41 17 74 51 98s111 57 232 101c141 51 234 101 280 151s70 111 70 183" id="T"/><g id="h"><use transform="matrix(0.008680555555555556,0,0,0.008680555555555556,0,0)" xlink:href="#t"/><use transform="matrix(0.008680555555555556,0,0,0.008680555555555556,10.668402777777779,0)" xlink:href="#P"/><use transform="matrix(0.008680555555555556,0,0,0.008680555555555556,21.336805555555557,0)" xlink:href="#v"/><use transform="matrix(0.008680555555555556,0,0,0.008680555555555556,32.005208333333336,0)" xlink:href="#s"/><use transform="matrix(0.008680555555555556,0,0,0.008680555555555556,42.673611111111114,0)" xlink:href="#Q"/><use transform="matrix(0.008680555555555556,0,0,0.008680555555555556,53.34201388888889,0)" xlink:href="#N"/><use transform="matrix(0.008680555555555556,0,0,0.008680555555555556,64.01041666666667,0)" xlink:href="#R"/><use transform="matrix(0.008680555555555556,0,0,0.008680555555555556,74.67881944444446,0)" xlink:href="#t"/><use transform="matrix(0.008680555555555556,0,0,0.008680555555555556,85.34722222222223,0)" xlink:href="#S"/><use transform="matrix(0.008680555555555556,0,0,0.008680555555555556,96.015625,0)" xlink:href="#T"/></g><path fill="#3a414a" d="M1087-391c0 281-226 411-532 411-177 0-315-23-414-69v-178c141 57 279 86 414 86 233 0 350-80 350-240 0-69-24-123-71-160s-142-82-285-133c-139-49-239-106-299-174s-90-156-90-264c2-252 211-371 481-371 153 0 291 26 416 78l-64 164c-129-52-249-78-360-78-195 0-293 70-293 209 0 68 22 123 66 164s134 85 270 133c164 58 273 119 328 181s83 143 83 241" id="U"/><path fill="#3a414a" d="M631-1118c283 0 470 204 465 491v113H322c5 250 120 375 344 375 130 0 253-25 370-76v160C925-5 804 20 672 20c-329 0-539-224-539-561 0-331 182-577 498-577zM326-662h573c0-203-91-305-272-305-183 0-284 102-301 305" id="V"/><path fill="#3a414a" d="M442-897c93-139 173-221 377-221 79 0 159 15 240 45l-49 166c-82-30-157-45-224-45-221 0-340 134-340 360V0H264v-1098h148l22 201h8" id="W"/><path fill="#3a414a" d="M498 0L82-1098h188l240 652c57 154 90 262 100 325h6c67-256 244-708 340-977h189L729 0H498" id="X"/><path fill="#3a414a" d="M739-1436c0 71-43 115-106 115-71 0-107-38-107-115 0-76 36-114 107-114s106 38 106 114zM541-954l-269-21v-123h451v955l352 20V0H197v-123l344-20v-811" id="Y"/><path fill="#3a414a" d="M172-543c0-365 197-575 553-575 119 0 231 20 336 59l-62 158c-100-38-189-57-268-57-247 0-371 138-371 413 0 271 120 406 361 406 105 0 212-21 321-62v160C953 0 843 20 713 20c-347 1-541-210-541-563" id="Z"/><g id="i"><use transform="matrix(0.009765624999999998,0,0,0.009765624999999998,0,0)" xlink:href="#U"/><use transform="matrix(0.009765624999999998,0,0,0.009765624999999998,12.001953124999998,0)" xlink:href="#V"/><use transform="matrix(0.009765624999999998,0,0,0.009765624999999998,24.003906249999996,0)" xlink:href="#W"/><use transform="matrix(0.009765624999999998,0,0,0.009765624999999998,36.00585937499999,0)" xlink:href="#X"/><use transform="matrix(0.009765624999999998,0,0,0.009765624999999998,48.00781249999999,0)" xlink:href="#Y"/><use transform="matrix(0.009765624999999998,0,0,0.009765624999999998,60.009765624999986,0)" xlink:href="#Z"/><use transform="matrix(0.009765624999999998,0,0,0.009765624999999998,72.01171874999999,0)" xlink:href="#V"/></g><path fill="#3a414a" d="M1104-516c1 337-164 537-496 536-322 0-483-180-483-540v-942h186v932c0 258 102 387 307 387 197 0 300-130 300-389v-932h186v948" id="aa"/><path fill="#3a414a" d="M373-604V0H186v-1462h357c347 0 520 138 520 415 0 191-96 322-289 392L1171 0H952L602-604H373zm497-434c0-207-118-263-338-265H373v541h164c215-1 333-70 333-276" id="ab"/><path fill="#3a414a" d="M233 0v-1462h187v1296h635V0H233" id="ac"/><path fill="#3a414a" d="M1026-301c0 225-197 321-448 321-165 0-290-23-375-69v-166c129 57 252 86 370 86 183 0 275-54 275-162 0-38-16-71-49-99s-108-63-226-106c-156-57-253-112-293-160s-61-105-61-171c2-338 524-340 789-217l-60 149c-121-48-228-72-319-72-157 0-236 44-236 133 0 41 17 74 51 98s111 57 232 101c141 51 234 101 280 151s70 111 70 183" id="ad"/><g id="j"><use transform="matrix(0.009765624999999998,0,0,0.009765624999999998,0,0)" xlink:href="#aa"/><use transform="matrix(0.009765624999999998,0,0,0.009765624999999998,12.001953124999998,0)" xlink:href="#ab"/><use transform="matrix(0.009765624999999998,0,0,0.009765624999999998,24.003906249999996,0)" xlink:href="#ac"/><use transform="matrix(0.009765624999999998,0,0,0.009765624999999998,36.00585937499999,0)" xlink:href="#ad"/></g><path fill="#333" d="M758 0H582c3-449-8-824 8-1274-61 68-188 168-268 234l-97-123 383-299h150V0" id="ae"/><g id="k"><use transform="matrix(0.010850694444444442,0,0,0.010850694444444442,0,0)" xlink:href="#r"/><use transform="matrix(0.010850694444444442,0,0,0.010850694444444442,13.33550347222222,0)" xlink:href="#s"/><use transform="matrix(0.010850694444444442,0,0,0.010850694444444442,26.67100694444444,0)" xlink:href="#t"/><use transform="matrix(0.010850694444444442,0,0,0.010850694444444442,40.00651041666666,0)" xlink:href="#u"/><use transform="matrix(0.010850694444444442,0,0,0.010850694444444442,53.34201388888888,0)" xlink:href="#v"/><use transform="matrix(0.010850694444444442,0,0,0.010850694444444442,66.6775173611111,0)" xlink:href="#s"/><use transform="matrix(0.010850694444444442,0,0,0.010850694444444442,80.01302083333331,0)" xlink:href="#ae"/></g><path fill="#333" d="M594-1483c248 0 420 149 418 391 0 79-21 160-59 244-73 161-414 504-572 674v8h688V0H158v-156c172-193 489-508 607-698 43-69 62-147 62-231 0-146-91-244-235-244-107 0-213 46-318 137l-102-119c128-115 269-172 422-172" id="af"/><g id="l"><use transform="matrix(0.010850694444444442,0,0,0.010850694444444442,0,0)" xlink:href="#r"/><use transform="matrix(0.010850694444444442,0,0,0.010850694444444442,13.33550347222222,0)" xlink:href="#s"/><use transform="matrix(0.010850694444444442,0,0,0.010850694444444442,26.67100694444444,0)" xlink:href="#t"/><use transform="matrix(0.010850694444444442,0,0,0.010850694444444442,40.00651041666666,0)" xlink:href="#u"/><use transform="matrix(0.010850694444444442,0,0,0.010850694444444442,53.34201388888888,0)" xlink:href="#v"/><use transform="matrix(0.010850694444444442,0,0,0.010850694444444442,66.6775173611111,0)" xlink:href="#s"/><use transform="matrix(0.010850694444444442,0,0,0.010850694444444442,80.01302083333331,0)" xlink:href="#af"/></g><path fill="#333" d="M430 0H244v-1462h841v164H430v516h617v164H430V0" id="ag"/><path fill="#333" d="M578-131c239 0 309-137 309-397v-570h182V0H922l-27-147h-10C815-36 704 20 551 20c-261 0-391-134-391-401v-717h182v707c0 173 79 260 236 260" id="ah"/><path fill="#333" d="M172-543c0-365 197-575 553-575 119 0 231 20 336 59l-62 158c-100-38-189-57-268-57-247 0-371 138-371 413 0 271 120 406 361 406 105 0 212-21 321-62v160C953 0 843 20 713 20c-347 1-541-210-541-563" id="ai"/><path fill="#333" d="M770-262l16 24C748-89 683 87 592 289H440c51-215 88-399 111-551h219" id="aj"/><g id="m"><use transform="matrix(0.008680555555555556,0,0,0.008680555555555556,0,0)" xlink:href="#ag"/><use transform="matrix(0.008680555555555556,0,0,0.008680555555555556,10.668402777777779,0)" xlink:href="#ah"/><use transform="matrix(0.008680555555555556,0,0,0.008680555555555556,21.336805555555557,0)" xlink:href="#S"/><use transform="matrix(0.008680555555555556,0,0,0.008680555555555556,32.005208333333336,0)" xlink:href="#ai"/><use transform="matrix(0.008680555555555556,0,0,0.008680555555555556,42.673611111111114,0)" xlink:href="#N"/><use transform="matrix(0.008680555555555556,0,0,0.008680555555555556,53.34201388888889,0)" xlink:href="#R"/><use transform="matrix(0.008680555555555556,0,0,0.008680555555555556,64.01041666666667,0)" xlink:href="#t"/><use transform="matrix(0.008680555555555556,0,0,0.008680555555555556,74.67881944444446,0)" xlink:href="#S"/><use transform="matrix(0.008680555555555556,0,0,0.008680555555555556,85.34722222222223,0)" xlink:href="#T"/><use transform="matrix(0.008680555555555556,0,0,0.008680555555555556,96.015625,0)" xlink:href="#aj"/></g><g id="n"><use transform="matrix(0.008680555555555556,0,0,0.008680555555555556,0,0)" xlink:href="#ag"/><use transform="matrix(0.008680555555555556,0,0,0.008680555555555556,10.668402777777779,0)" xlink:href="#ah"/><use transform="matrix(0.008680555555555556,0,0,0.008680555555555556,21.336805555555557,0)" xlink:href="#S"/><use transform="matrix(0.008680555555555556,0,0,0.008680555555555556,32.005208333333336,0)" xlink:href="#ai"/><use transform="matrix(0.008680555555555556,0,0,0.008680555555555556,42.673611111111114,0)" xlink:href="#N"/><use transform="matrix(0.008680555555555556,0,0,0.008680555555555556,53.34201388888889,0)" xlink:href="#R"/><use transform="matrix(0.008680555555555556,0,0,0.008680555555555556,64.01041666666667,0)" xlink:href="#t"/><use transform="matrix(0.008680555555555556,0,0,0.008680555555555556,74.67881944444446,0)" xlink:href="#S"/></g><path fill="#333" d="M813 0c-67-308-137-613-199-926h-6C551-608 477-306 408 0H219L-4-1098h162c53 313 118 604 155 936h6c53-329 132-625 201-936h193c63 300 147 629 194 936h6c45-366 103-603 162-936h158L1008 0H813" id="ak"/><g id="o"><use transform="matrix(0.008680555555555556,0,0,0.008680555555555556,0,0)" xlink:href="#ak"/><use transform="matrix(0.008680555555555556,0,0,0.008680555555555556,10.668402777777779,0)" xlink:href="#t"/><use transform="matrix(0.008680555555555556,0,0,0.008680555555555556,21.336805555555557,0)" xlink:href="#s"/><use transform="matrix(0.008680555555555556,0,0,0.008680555555555556,32.005208333333336,0)" xlink:href="#u"/><use transform="matrix(0.008680555555555556,0,0,0.008680555555555556,42.673611111111114,0)" xlink:href="#v"/><use transform="matrix(0.008680555555555556,0,0,0.008680555555555556,53.34201388888889,0)" xlink:href="#s"/><use transform="matrix(0.008680555555555556,0,0,0.008680555555555556,64.01041666666667,0)" xlink:href="#T"/><use transform="matrix(0.008680555555555556,0,0,0.008680555555555556,74.67881944444446,0)" xlink:href="#aj"/></g><path fill="#333" d="M1087-391c0 281-226 411-532 411-177 0-315-23-414-69v-178c141 57 279 86 414 86 233 0 350-80 350-240 0-69-24-123-71-160s-142-82-285-133c-139-49-239-106-299-174s-90-156-90-264c2-252 211-371 481-371 153 0 291 26 416 78l-64 164c-129-52-249-78-360-78-195 0-293 70-293 209 0 68 22 123 66 164s134 85 270 133c164 58 273 119 328 181s83 143 83 241" id="al"/><g id="p"><use transform="matrix(0.008680555555555556,0,0,0.008680555555555556,0,0)" xlink:href="#al"/><use transform="matrix(0.008680555555555556,0,0,0.008680555555555556,10.668402777777779,0)" xlink:href="#t"/><use transform="matrix(0.008680555555555556,0,0,0.008680555555555556,21.336805555555557,0)" xlink:href="#ah"/><use transform="matrix(0.008680555555555556,0,0,0.008680555555555556,32.005208333333336,0)" xlink:href="#s"/><use transform="matrix(0.008680555555555556,0,0,0.008680555555555556,42.673611111111114,0)" xlink:href="#ai"/><use transform="matrix(0.008680555555555556,0,0,0.008680555555555556,53.34201388888889,0)" xlink:href="#v"/><use transform="matrix(0.008680555555555556,0,0,0.008680555555555556,64.01041666666667,0)" xlink:href="#aj"/></g><g id="q"><use transform="matrix(0.008680555555555556,0,0,0.008680555555555556,0,0)" xlink:href="#al"/><use transform="matrix(0.008680555555555556,0,0,0.008680555555555556,10.668402777777779,0)" xlink:href="#R"/><use transform="matrix(0.008680555555555556,0,0,0.008680555555555556,21.336805555555557,0)" xlink:href="#S"/><use transform="matrix(0.008680555555555556,0,0,0.008680555555555556,32.005208333333336,0)" xlink:href="#u"/></g></defs></g></svg>