<svg xmlns="http://www.w3.org/2000/svg" xmlns:xlink="http://www.w3.org/1999/xlink" xmlns:lucid="lucid" width="909.87" height="343.91"><g transform="translate(-17.333333333294433 -456.5918872073414)" lucid:page-tab-id="0_0"><path d="M0 0h1870.87v1322.83H0z" fill="#fff"/><path d="M195.33 569.26a6 6 0 0 1 6-6h102.25a6 6 0 0 1 6 6v92.17a6 6 0 0 1-6 6H201.33a6 6 0 0 1-6-6z" fill="#fff"/><path d="M199.04 563.74l.44-.18.9-.22h1.03m4.05 0h2.03m4.04 0h2.03m4.04-.02h2.02m4.04 0h2.03m4.03 0h2.03m4.04 0h2.03m4.04 0h2.03m4.04-.02h2.03m4.04 0h2.04m4.04 0h2.03m4.05 0h2.03m4.04-.02h2.03m4.04 0h2.02m4.04 0h2.03m4.03 0h2.03m4.04 0h2.03m4.04-.02h1l.95.08.46.1m4.13 3.53l.2.44.2.92v.97m0 3.87v1.94m.02 3.9v1.93m0 3.88v1.95m0 3.88v1.94m0 3.88v1.94m.02 3.87v1.94m0 3.9v1.93m0 3.88v1.95m0 3.88v1.94m0 3.87l.02 1.94m0 3.88v1.94m0 3.88v1.94m0 3.88v1.94m0 3.88v1.94m.02 3.88v1.94m0 3.88v.97l-.07.94-.1.46m-3.53 4.13l-.43.18-.92.22h-1m-4.06 0h-2.02m-4.05 0h-2.03m-4.05 0h-2.02m-4.05 0h-2.02m-4.05.02h-2.02m-4.05 0h-2m-4.06 0h-2.02m-4.05 0h-2.02m-4.05 0l-2.02.02m-4.05 0h-2.02m-4.04 0h-2.02m-4.05 0h-2.03m-4.05 0h-2.02m-4.05.02h-2.02m-4.05 0h-2.02m-4.05 0h-2m-4.06 0h-1l-.95-.06-.46-.1m-4.13-3.54l-.17-.44-.22-.9v-.98m0-3.88v-1.94m0-3.88v-1.94m0-3.88v-1.94m0-3.88v-1.94m-.02-3.88v-1.94m0-3.88v-1.94m0-3.88v-1.94m0-3.88v-1.93m0-3.88l-.02-1.94m0-3.88v-1.94m0-3.87v-1.94m0-3.9v-1.93m0-3.88v-1.95m-.02-3.88v-1.94m0-3.88v-1.94m0-3.87v-.97l.07-.94.12-.45" stroke="#e81313" fill="none"/><path d="M206.57 585.35h40v60h-40z" stroke="#474e55" stroke-width="2" fill="#188fff"/><g fill="none"><path d="M687.2 476.6v78.06H568.4V476.6z"/><path d="M568.4 554.66c0-4.1 3.32-7.43 7.43-7.43h44.55c4.1 0 7.42-3.32 7.42-7.42 0 4.1 3.32 7.43 7.43 7.43h44.55c4.1 0 7.42 3.33 7.42 7.43" stroke="#666" stroke-width="2"/></g><use xlink:href="#a" transform="matrix(1,-2.4492935982947064e-16,2.4492935982947064e-16,1,573.4000000000002,481.59188720734136) translate(22.0947265625 18.7548828125)"/><use xlink:href="#b" transform="matrix(1,-2.4492935982947064e-16,2.4492935982947064e-16,1,573.4000000000002,481.59188720734136) translate(22.0947265625 39.7080078125)"/><path d="M190.8 680.68h679.78" stroke="#3a414a" stroke-width="3" fill="none"/><path d="M190.84 682.18h-1.54v-3h1.54z" stroke="#3a414a" stroke-width=".05" fill="#3a414a"/><path d="M886.35 680.68l-14.27 4.63v-9.26z" stroke="#3a414a" stroke-width="3" fill="#3a414a"/><path d="M37.33 656.67a6 6 0 0 1 6-6h140a6 6 0 0 1 6 6v48a6 6 0 0 1-6 6h-140a6 6 0 0 1-6-6z" stroke="#000" stroke-opacity="0" fill="#fff" fill-opacity="0"/><use xlink:href="#c" transform="matrix(1,0,0,1,42.33333333329443,655.6666666667053) translate(44.32899305555556 33.127170138888886)"/><path d="M190.33 679.67a.5.5 0 0 1 .5.5V719a.5.5 0 0 1-.5.5.5.5 0 0 1-.5-.5v-38.83a.5.5 0 0 1 .5-.5zM377.83 682a.5.5 0 0 1 .5.5v38.1a.5.5 0 0 1-.5.5.5.5 0 0 1-.5-.5v-38.1a.5.5 0 0 1 .5-.5zM567.4 682a.5.5 0 0 1 .5.5V719a.5.5 0 0 1-.5.5.5.5 0 0 1-.5-.5v-36.5a.5.5 0 0 1 .5-.5zM757.5 682a.5.5 0 0 1 .5.5v38.1a.5.5 0 0 1-.5.5.5.5 0 0 1-.5-.5v-38.1a.5.5 0 0 1 .5-.5z" stroke="#3a414a" fill="none"/><path d="M128.08 726.5a6 6 0 0 1 6-6h112.5a6 6 0 0 1 6 6v48a6 6 0 0 1-6 6h-112.5a6 6 0 0 1-6-6z" stroke="#000" stroke-opacity="0" fill="#fff" fill-opacity="0"/><use xlink:href="#d" transform="matrix(1,0,0,1,133.08333333329432,725.4999999999998) translate(50.832248263888886 33.127170138888886)"/><path d="M315.58 725.27a6 6 0 0 1 6-6h112.5a6 6 0 0 1 6 6v48a6 6 0 0 1-6 6h-112.5a6 6 0 0 1-6-6z" stroke="#000" stroke-opacity="0" fill="#fff" fill-opacity="0"/><use xlink:href="#e" transform="matrix(1,0,0,1,320.5833333333333,724.2666666666664) translate(50.832248263888886 33.127170138888886)"/><path d="M505.15 722.57a6 6 0 0 1 6-6h112.5a6 6 0 0 1 6 6v48a6 6 0 0 1-6 6h-112.5a6 6 0 0 1-6-6z" stroke="#000" stroke-opacity="0" fill="#fff" fill-opacity="0"/><use xlink:href="#f" transform="matrix(1,0,0,1,510.1500000000001,721.5666666666666) translate(50.832248263888886 33.127170138888886)"/><path d="M700.08 726.5a6 6 0 0 1 6-6h112.5a6 6 0 0 1 6 6v48a6 6 0 0 1-6 6h-112.5a6 6 0 0 1-6-6z" stroke="#000" stroke-opacity="0" fill="#fff" fill-opacity="0"/><use xlink:href="#g" transform="matrix(1,0,0,1,705.0833333333333,725.4999999999998) translate(50.832248263888886 33.127170138888886)"/><path d="M258.58 585.35h40v60h-40zM636.72 585.35h40v60h-40zM707.28 585.35h40v60h-40z" stroke="#474e55" stroke-width="2" fill="#188fff"/><path d="M210.93 482.6a6 6 0 0 1 6-6h234.4a6 6 0 0 1 6 6v14.46a6 6 0 0 1-6 6h-234.4a6 6 0 0 1-6-6z" stroke="#000" stroke-opacity="0" fill="#fff" fill-opacity="0"/><use xlink:href="#h" transform="matrix(1,0,0,1,215.92899015828368,481.5918872073414) translate(38.486979166666686 16.501736111111107)"/><use xlink:href="#i" transform="matrix(1,0,0,1,215.92899015828368,481.5918872073414) translate(134.50260416666666 16.501736111111107)"/><path d="M334.1 503.53v.48l-.1.96-.14.92-.2.9-.25.9-.3.9-.38.9-.45.9-.53.94-.64.96-.75 1-.9 1.07-1.1 1.13-1.32 1.22-1.66 1.35-2.1 1.5-2.8 1.76-3.93 2.14-6.16 2.87-40.34 16.08-3.92 2.13-2.8 1.76-2.1 1.52-1.3 1.05" stroke="#3a414a" stroke-linejoin="round" fill="none"/><path d="M334.6 503.55l-1-.03.02-.5h1z" stroke="#3a414a" stroke-width=".05" fill="#3a414a"/><path d="M253.22 561.37l2.63-14.77 8.18 4.37z" stroke="#3a414a" fill="#3a414a"/><path d="M578.53 585.35h40v60h-40z" stroke="#474e55" stroke-width="2" fill="#188fff"/><path d="M320.7 569.26a6 6 0 0 1 6-6h102.26a6 6 0 0 1 6 6v92.17a6 6 0 0 1-6 6H326.7a6 6 0 0 1-6-6z" fill="#fff"/><path d="M324.42 563.74l.43-.18.92-.22h1m4.06 0h2.02m4.05 0h2.02m4.05-.02H345m4.04 0h2.02m4.05 0h2.03m4.05 0h2.02m4.05 0h2.02m4.05-.02h2.02m4.05 0h2m4.06 0h2.02m4.05 0h2.02m4.05-.02h2.02m4.05 0h2.02m4.04 0h2.02m4.05 0h2.03m4.05 0h2.02m4.05-.02h1l.95.08.45.1m4.13 3.53l.18.44.22.92v.97m0 3.87v1.94m0 3.9v1.93m.02 3.88v1.95m0 3.88v1.94m0 3.88v1.94m0 3.87v1.94m.02 3.9v1.93m0 3.88v1.95m0 3.88v1.94m0 3.87v1.94m0 3.88l.02 1.94m0 3.88v1.94m0 3.88v1.94m0 3.88v1.94m0 3.88v1.94m.02 3.88v.97l-.08.94-.1.46m-3.53 4.13l-.44.18-.9.22h-1m-4.06 0h-2.02m-4.05 0h-2.02m-4.05 0h-2.02m-4.05 0h-2.02m-4.04.02h-2.02m-4.05 0h-2.03m-4.05 0h-2.02m-4.05 0h-2.02m-4.05 0l-2.02.02m-4.05 0h-2m-4.06 0h-2.02m-4.05 0h-2.02m-4.05 0h-2.02m-4.05.02h-2.02m-4.04 0h-2.02m-4.05 0h-2.03m-4.05 0h-1l-.95-.06-.46-.1m-4.12-3.54l-.18-.44-.22-.9v-.98m0-3.88v-1.94m0-3.88v-1.94m0-3.88v-1.94m-.02-3.88v-1.94m0-3.88v-1.94m0-3.88v-1.94m0-3.88v-1.94m0-3.88l-.02-1.93m0-3.88v-1.94m0-3.88v-1.94m0-3.87v-1.94m0-3.9v-1.93m-.02-3.88v-1.95m0-3.88v-1.94m0-3.88v-1.94m0-3.87v-.97l.06-.94.1-.45" stroke="#e81313" fill="none"/><path d="M331.94 585.35h40v60h-40zM383.96 585.35h40v60h-40z" stroke="#474e55" stroke-width="2" fill="#188fff"/><path d="M446.08 569.26a6 6 0 0 1 6-6h102.25a6 6 0 0 1 6 6v92.17a6 6 0 0 1-6 6H452.08a6 6 0 0 1-6-6z" fill="#fff"/><path d="M449.8 563.74l.43-.18.9-.22h1.03m4.04 0h2.03m4.04 0h2.03m4.04-.02h2.03m4.04 0h2.04m4.04 0h2.03m4.05 0h2.03m4.04 0h2.03m4.04-.02h2.02m4.04 0h2.03m4.03 0h2.03m4.04 0h2.03m4.04-.02H525m4.04 0h2.03m4.04 0h2.04m4.04 0h2.03m4.05 0h2.03m4.04-.02h1l.95.08.46.1m4.13 3.53l.18.44.22.92v.97m0 3.87v1.94m0 3.9v1.93m0 3.88v1.95m.02 3.88v1.94m0 3.88v1.94m0 3.87v1.94m0 3.9v1.93m.02 3.88v1.95m0 3.88v1.94m0 3.87v1.94m0 3.88v1.94m0 3.88l.02 1.94m0 3.88v1.94m0 3.88v1.94m0 3.88v1.94m0 3.88v.97l-.06.94-.1.46m-3.54 4.13l-.43.18-.93.22h-1m-4.06 0h-2m-4.06 0h-2.02m-4.05 0h-2.02m-4.05 0h-2.02m-4.05.02h-2.02m-4.04 0h-2.02m-4.05 0h-2.03m-4.05 0h-2.02m-4.05 0l-2.02.02m-4.05 0h-2.02m-4.05 0h-2m-4.06 0h-2.02m-4.05 0h-2.02m-4.05.02h-2.02m-4.05 0h-2.02m-4.04 0h-2.02m-4.05 0h-1.02l-.94-.06-.45-.1m-4.14-3.54l-.18-.44-.22-.9v-.98m0-3.88v-1.94m0-3.88v-1.94m-.02-3.88v-1.94m0-3.88v-1.94m0-3.88v-1.94m0-3.88v-1.94m0-3.88l-.02-1.94m0-3.88v-1.93m0-3.88v-1.94m0-3.88v-1.94m0-3.87v-1.94m-.02-3.9v-1.93m0-3.88v-1.95m0-3.88v-1.94m0-3.88v-1.94m-.02-3.87v-.97l.08-.94.1-.45" stroke="#e81313" fill="none"/><path d="M457.32 585.35h40v60h-40zM509.33 585.35h40v60h-40z" stroke="#474e55" stroke-width="2" fill="#188fff"/><path d="M334.14 503.53l.08 1.96.3 2.24.43 2.1.6 1.98.76 1.93.96 1.9 1.18 1.95 1.48 2.04 1.92 2.22 2.65 2.6 4.32 3.56 18 13.35 2.66 2.6 1.92 2.2.92 1.28" stroke="#3a414a" stroke-linejoin="round" fill="none"/><path d="M334.64 503.52l-1 .04-.02-.53h1z" stroke="#3a414a" stroke-width=".05" fill="#3a414a"/><path d="M376.7 561.26l-8.74-12.2 8.84-2.8z" stroke="#3a414a" fill="#3a414a"/><path d="M334.14 503.53v.15l.04.33.05.33.06.32.07.32.1.33.1.33.12.33.13.34.17.35.18.35.22.37.24.38.27.4.32.4.36.43.4.46.48.48.54.5.64.55.74.6.9.64 1.04.7 1.3.78 1.57.87 1.96.98 2.53 1.12 3.3 1.3 4.55 1.6 6.53 1.95 10.3 2.63 20.94 4.37 69.62 13.2 10.3 2.63 6.54 1.96 4.54 1.56 3.32 1.3 2.53 1.14 1.7.83" stroke="#3a414a" stroke-linejoin="round" fill="none"/><path d="M334.63 503.53l-1 .02v-.52h1z" stroke="#3a414a" stroke-width=".05" fill="#3a414a"/><path d="M502.13 561.6L489.2 554l6.94-6.16z" stroke="#3a414a" fill="#3a414a"/><defs><path fill="#474e55" d="M528-1008h177c63 241 176 595 217 828 10-131 108-1012 135-1282h170L1040 0H850c-78-286-175-558-234-862C553-542 470-299 395 0H205L2-1462h170c52 408 123 848 145 1282 49-284 143-558 211-828" id="j"/><path fill="#474e55" d="M739-1436c0 71-43 115-106 115-71 0-107-38-107-115 0-76 36-114 107-114s106 38 106 114zM541-954l-269-21v-123h451v955l352 20V0H197v-123l344-20v-811" id="k"/><path fill="#474e55" d="M887 0v-707c0-173-79-260-238-260-205 0-307 133-307 398V0H160v-1098h147l27 148h10c69-112 181-168 336-168 259 0 389 134 389 401V0H887" id="l"/><path fill="#474e55" d="M137-547c0-322 136-571 430-571 137 0 245 53 322 160h12c-24-215-7-376-12-598h182V0H924l-27-147h-8C814-36 706 20 567 20c-294 0-430-246-430-567zm463 416c241 0 288-157 289-416 0-151-23-259-69-323s-121-97-222-97c-181 0-272 141-272 422 0 276 91 414 274 414" id="m"/><path fill="#474e55" d="M1112-551c0 331-186 571-502 571-301 0-495-251-495-571 0-330 184-567 501-567 302 0 496 249 496 567zM614-131c207 0 310-140 310-420 0-277-104-416-312-416-206 0-309 139-309 416 0 280 104 420 311 420" id="n"/><path fill="#474e55" d="M813 0c-67-308-137-613-199-926h-6C551-608 477-306 408 0H219L-4-1098h162c53 313 118 604 155 936h6c53-329 132-625 201-936h193c63 300 147 629 194 936h6c45-366 103-603 162-936h158L1008 0H813" id="o"/><g id="a"><use transform="matrix(0.0087890625,0,0,0.0087890625,0,0)" xlink:href="#j"/><use transform="matrix(0.0087890625,0,0,0.0087890625,10.8017578125,0)" xlink:href="#k"/><use transform="matrix(0.0087890625,0,0,0.0087890625,21.603515625,0)" xlink:href="#l"/><use transform="matrix(0.0087890625,0,0,0.0087890625,32.4052734375,0)" xlink:href="#m"/><use transform="matrix(0.0087890625,0,0,0.0087890625,43.20703125,0)" xlink:href="#n"/><use transform="matrix(0.0087890625,0,0,0.0087890625,54.0087890625,0)" xlink:href="#o"/></g><path fill="#474e55" d="M532-1413l-268-21v-122h451v1413l352 20V0H188v-123l344-20v-1270" id="p"/><path fill="#474e55" d="M631-1118c283 0 470 204 465 491v113H322c5 250 120 375 344 375 130 0 253-25 370-76v160C925-5 804 20 672 20c-329 0-539-224-539-561 0-331 182-577 498-577zM326-662h573c0-203-91-305-272-305-183 0-284 102-301 305" id="q"/><path fill="#474e55" d="M188-739c-1-248 156-381 410-379 57 0 107 7 150 20h378v113l-196 27c43 57 65 128 65 213 2 253-212 385-489 346-67 37-100 82-100 133 0 56 54 84 161 84h187c216-2 358 93 358 297 0 251-188 377-565 377-145 0-255-26-331-80S102 283 102 186c0-141 80-231 240-270-64-31-96-83-96-154 0-75 44-139 133-192-109-41-191-166-191-309zm406 221c149 0 223-77 223-230 0-159-75-239-225-239s-225 81-225 242c0 151 76 227 227 227zm346 649c0-146-78-149-248-149H504c-153 0-230 66-230 198 0 116 90 174 271 174 263 0 395-74 395-223" id="r"/><path fill="#474e55" d="M1020-150v138C933 9 849 20 768 20 527 20 406-95 406-324v-637H139v-94l267-49 77-287h105v293h438v137H588v637c0 130 64 195 192 195 62 0 142-7 240-21" id="s"/><path fill="#474e55" d="M887 0v-707c0-173-79-260-238-260-205 0-307 133-307 398V0H160v-1556h182c-2 202 6 416-8 606h10c69-112 181-168 336-168 259 0 389 134 389 401V0H887" id="t"/><g id="b"><use transform="matrix(0.0087890625,0,0,0.0087890625,0,0)" xlink:href="#p"/><use transform="matrix(0.0087890625,0,0,0.0087890625,10.8017578125,0)" xlink:href="#q"/><use transform="matrix(0.0087890625,0,0,0.0087890625,21.603515625,0)" xlink:href="#l"/><use transform="matrix(0.0087890625,0,0,0.0087890625,32.4052734375,0)" xlink:href="#r"/><use transform="matrix(0.0087890625,0,0,0.0087890625,43.20703125,0)" xlink:href="#s"/><use transform="matrix(0.0087890625,0,0,0.0087890625,54.0087890625,0)" xlink:href="#t"/></g><path fill="#3a414a" d="M707 0H520v-1298H102v-164h1022v164H707V0" id="u"/><path fill="#3a414a" d="M739-1436c0 71-43 115-106 115-71 0-107-38-107-115 0-76 36-114 107-114s106 38 106 114zM541-954l-269-21v-123h451v955l352 20V0H197v-123l344-20v-811" id="v"/><path fill="#3a414a" d="M977 0v-707c0-97-9-165-27-203s-47-57-88-57c-58 0-100 28-126 83s-40 148-40 278V0H535v-707c0-173-42-260-125-260-56 0-96 26-120 79s-36 160-36 319V0H92v-1098h127l27 148h10c45-112 112-168 201-168 109 0 180 61 213 182h6c51-121 124-182 219-182 85 0 147 30 186 92s58 165 58 309V0H977" id="w"/><path fill="#3a414a" d="M631-1118c283 0 470 204 465 491v113H322c5 250 120 375 344 375 130 0 253-25 370-76v160C925-5 804 20 672 20c-329 0-539-224-539-561 0-331 182-577 498-577zM326-662h573c0-203-91-305-272-305-183 0-284 102-301 305" id="x"/><g id="c"><use transform="matrix(0.010850694444444444,0,0,0.010850694444444444,0,0)" xlink:href="#u"/><use transform="matrix(0.010850694444444444,0,0,0.010850694444444444,13.335503472222221,0)" xlink:href="#v"/><use transform="matrix(0.010850694444444444,0,0,0.010850694444444444,26.671006944444443,0)" xlink:href="#w"/><use transform="matrix(0.010850694444444444,0,0,0.010850694444444444,40.006510416666664,0)" xlink:href="#x"/></g><path fill="#3a414a" d="M612 20c-153 0-268-65-347-194S147-489 147-733c0-501 155-752 465-752 155 0 271 64 350 193s119 316 119 559c0 502-156 753-469 753zm0-155c98 0 165-50 216-141 86-153 87-759 0-912-51-91-118-141-216-141-97 0-162 49-212 139-85 152-84 764 0 915 50 90 115 140 212 140" id="y"/><use transform="matrix(0.010850694444444444,0,0,0.010850694444444444,0,0)" xlink:href="#y" id="d"/><path fill="#3a414a" d="M758 0H582c3-449-8-824 8-1274-61 68-188 168-268 234l-97-123 383-299h150V0" id="z"/><use transform="matrix(0.010850694444444444,0,0,0.010850694444444444,0,0)" xlink:href="#z" id="e"/><path fill="#3a414a" d="M594-1483c248 0 420 149 418 391 0 79-21 160-59 244-73 161-414 504-572 674v8h688V0H158v-156c172-193 489-508 607-698 43-69 62-147 62-231 0-146-91-244-235-244-107 0-213 46-318 137l-102-119c128-115 269-172 422-172" id="A"/><use transform="matrix(0.010850694444444444,0,0,0.010850694444444444,0,0)" xlink:href="#A" id="f"/><path fill="#3a414a" d="M1010-1120c0 200-132 322-316 350v6c241 31 361 147 361 348 0 294-219 436-537 436-161 0-290-26-387-79v-170c123 64 250 96 383 96 236 0 354-96 354-289 0-172-127-258-381-258H354v-151h133c195 4 334-97 336-277 1-140-106-221-250-221-119 0-233 40-344 121l-92-125c125-100 270-150 436-150 252 0 437 128 437 363" id="B"/><use transform="matrix(0.010850694444444444,0,0,0.010850694444444444,0,0)" xlink:href="#B" id="g"/><path fill="#3a414a" d="M1094-1034c0 310-213 470-541 465H362V0H176v-1462h404c343 0 514 143 514 428zM532-727c244-1 369-71 369-297 0-186-113-279-338-279H362v576h170" id="C"/><path fill="#3a414a" d="M442-897c93-139 173-221 377-221 79 0 159 15 240 45l-49 166c-82-30-157-45-224-45-221 0-340 134-340 360V0H264v-1098h148l22 201h8" id="D"/><path fill="#3a414a" d="M498 0L82-1098h188l240 652c57 154 90 262 100 325h6c67-256 244-708 340-977h189L729 0H498" id="E"/><path fill="#3a414a" d="M1112-551c0 331-186 571-502 571-301 0-495-251-495-571 0-330 184-567 501-567 302 0 496 249 496 567zM614-131c207 0 310-140 310-420 0-277-104-416-312-416-206 0-309 139-309 416 0 280 104 420 311 420" id="F"/><path fill="#3a414a" d="M578-131c239 0 309-137 309-397v-570h182V0H922l-27-147h-10C815-36 704 20 551 20c-261 0-391-134-391-401v-717h182v707c0 173 79 260 236 260" id="G"/><path fill="#3a414a" d="M1026-301c0 225-197 321-448 321-165 0-290-23-375-69v-166c129 57 252 86 370 86 183 0 275-54 275-162 0-38-16-71-49-99s-108-63-226-106c-156-57-253-112-293-160s-61-105-61-171c2-338 524-340 789-217l-60 149c-121-48-228-72-319-72-157 0-236 44-236 133 0 41 17 74 51 98s111 57 232 101c141 51 234 101 280 151s70 111 70 183" id="H"/><g id="h"><use transform="matrix(0.008680555555555554,0,0,0.008680555555555554,0,0)" xlink:href="#C"/><use transform="matrix(0.008680555555555554,0,0,0.008680555555555554,10.668402777777777,0)" xlink:href="#D"/><use transform="matrix(0.008680555555555554,0,0,0.008680555555555554,21.336805555555554,0)" xlink:href="#x"/><use transform="matrix(0.008680555555555554,0,0,0.008680555555555554,32.00520833333333,0)" xlink:href="#E"/><use transform="matrix(0.008680555555555554,0,0,0.008680555555555554,42.67361111111111,0)" xlink:href="#v"/><use transform="matrix(0.008680555555555554,0,0,0.008680555555555554,53.342013888888886,0)" xlink:href="#F"/><use transform="matrix(0.008680555555555554,0,0,0.008680555555555554,64.01041666666666,0)" xlink:href="#G"/><use transform="matrix(0.008680555555555554,0,0,0.008680555555555554,74.67881944444443,0)" xlink:href="#H"/></g><path fill="#3a414a" d="M813 0c-67-308-137-613-199-926h-6C551-608 477-306 408 0H219L-4-1098h162c53 313 118 604 155 936h6c53-329 132-625 201-936h193c63 300 147 629 194 936h6c45-366 103-603 162-936h158L1008 0H813" id="I"/><path fill="#3a414a" d="M887 0v-707c0-173-79-260-238-260-205 0-307 133-307 398V0H160v-1098h147l27 148h10c69-112 181-168 336-168 259 0 389 134 389 401V0H887" id="J"/><path fill="#3a414a" d="M137-547c0-322 136-571 430-571 137 0 245 53 322 160h12c-24-215-7-376-12-598h182V0H924l-27-147h-8C814-36 706 20 567 20c-294 0-430-246-430-567zm463 416c241 0 288-157 289-416 0-151-23-259-69-323s-121-97-222-97c-181 0-272 141-272 422 0 276 91 414 274 414" id="K"/><g id="i"><use transform="matrix(0.008680555555555554,0,0,0.008680555555555554,0,0)" xlink:href="#I"/><use transform="matrix(0.008680555555555554,0,0,0.008680555555555554,10.668402777777777,0)" xlink:href="#v"/><use transform="matrix(0.008680555555555554,0,0,0.008680555555555554,21.336805555555554,0)" xlink:href="#J"/><use transform="matrix(0.008680555555555554,0,0,0.008680555555555554,32.00520833333333,0)" xlink:href="#K"/><use transform="matrix(0.008680555555555554,0,0,0.008680555555555554,42.67361111111111,0)" xlink:href="#F"/><use transform="matrix(0.008680555555555554,0,0,0.008680555555555554,53.342013888888886,0)" xlink:href="#I"/></g></defs></g></svg>