<svg xmlns="http://www.w3.org/2000/svg" xmlns:xlink="http://www.w3.org/1999/xlink" xmlns:lucid="lucid" width="1345.82" height="620"><g transform="translate(-72.90651003426365 -1412.229074889868)" lucid:page-tab-id="0_0"><path d="M0 1258.83h1870.87v1322.84H0z" fill="#fff"/><path d="M300.9 1432.23c28.73 0 52 26.86 52 60s-23.27 60-52 60h-156c-28.7 0-52-26.86-52-60s23.3-60 52-60z" stroke="#000" stroke-width="2" fill="#fff"/><use xlink:href="#a" transform="matrix(1,0,0,1,97.90651003426365,1437.229074889868) translate(28.98437500000003 62.56510416666666)"/><use xlink:href="#b" transform="matrix(1,0,0,1,97.90651003426365,1437.229074889868) translate(125 62.56510416666666)"/><path d="M300.9 1632.23c28.73 0 52 26.86 52 60s-23.27 60-52 60h-156c-28.7 0-52-26.86-52-60s23.3-60 52-60z" stroke="#000" stroke-width="2" fill="#fff"/><use xlink:href="#a" transform="matrix(1,0,0,1,97.90651003426365,1637.229074889868) translate(28.98437500000003 62.56510416666666)"/><use xlink:href="#c" transform="matrix(1,0,0,1,97.90651003426365,1637.229074889868) translate(125 62.56510416666666)"/><path d="M300.9 1832.23c28.73 0 52 26.86 52 60s-23.27 60-52 60h-156c-28.7 0-52-26.86-52-60s23.3-60 52-60z" stroke="#000" stroke-width="2" fill="#fff"/><use xlink:href="#a" transform="matrix(1,0,0,1,97.90651003426365,1837.229074889868) translate(28.98437500000003 62.56510416666666)"/><use xlink:href="#d" transform="matrix(1,0,0,1,97.90651003426365,1837.229074889868) translate(125 62.56510416666666)"/><path d="M578.5 1638.93a6 6 0 0 1 6-6h391.15a6 6 0 0 1 6 6v108a6 6 0 0 1-6 6H584.5a6 6 0 0 1-6-6z" stroke="#188fff" stroke-width="6" fill="#fff"/><use xlink:href="#e" transform="matrix(1,0,0,1,590.495608203159,1644.9344101811062) translate(115.32118055555556 58.878038194444436)"/><path d="M561.58 1653.97l-1.24 1.57-70.9-55.64h3.25zm-121.6-95.46h-3.25l-82.65-64.87 1.23-1.57z" stroke="#000" stroke-width=".05"/><path d="M355.33 1492.08l-1.23 1.57-.24-.2.05-1.22-.04-1.3z"/><path d="M355.37 1492.07l-1.27 1.6-.27-.2.05-1.24-.05-1.36zm-1.44.16l-.05 1.22.2.16 1.22-1.52-1.4-1.1z" stroke="#000" stroke-width=".05"/><path d="M572.97 1664.18l-14.1-5.16 5.74-7.3z"/><path d="M575.5 1666.18l-18.25-6.7 7.42-9.45zm-14.98-7.62l9.9 3.63-5.87-8.77z" stroke="#000" stroke-width=".05"/><use xlink:href="#f" transform="matrix(1,0,0,1,422.0370078384269,1558.5110956991575) translate(0 16.50173611111111)"/><use xlink:href="#g" transform="matrix(1,0,0,1,422.0370078384269,1558.5110956991575) translate(0 37.19618055555556)"/><path d="M354.9 1692.23l202.13.65" stroke="#000" stroke-width="2" fill="none"/><path d="M354.94 1691.23v2h-1.07l.04-1-.03-1z" stroke="#000" stroke-width=".05"/><path d="M572.3 1692.92l-14.28 4.6.03-9.28z" stroke="#000" stroke-width="2"/><path d="M561.48 1734.4l-206.17 158-1.2-1.57 206.16-158z" stroke="#000" stroke-width=".05"/><path d="M355.33 1892.4l-1.48 1.13.06-1.3-.04-1.23.25-.2z"/><path d="M355.36 1892.4l-1.53 1.18.05-1.35-.04-1.24.28-.22zm-1.47-1.4l.03 1.23-.05 1.25 1.4-1.1-1.17-1.53z" stroke="#000" stroke-width=".05"/><path d="M564.48 1736.68l-5.64-7.36 14.14-5z"/><path d="M564.52 1738.38l-7.3-9.54 18.33-6.48zm-4.05-8.57l3.97 5.18 5.98-8.7z" stroke="#000" stroke-width=".05"/><path d="M1346.73 1632.23c28.72 0 52 26.86 52 60s-23.28 60-52 60h-156c-28.72 0-52-26.86-52-60s23.28-60 52-60z" stroke="#000" stroke-width="2" fill="#fff"/><use xlink:href="#h" transform="matrix(1,0,0,1,1143.73127753304,1637.229074889868) translate(28.98437500000003 62.56510416666666)"/><use xlink:href="#i" transform="matrix(1,0,0,1,1143.73127753304,1637.229074889868) translate(141.00260416666666 62.56510416666666)"/><path d="M985.62 1692.93h2.02m8.1-.05l4.05-.02m8.1-.03l4.03-.02m8.1-.03l4.05-.02m8.1-.03l4.05-.02m8.1-.04l4.04-.02m8.1-.04l4.05-.02m8.1-.03l4.05-.02m8.1-.04l4.04-.03m8.1-.03l4.06-.02m8.1-.04l4.05-.02m8.1-.04h2.03" stroke="#000" stroke-width="2" fill="none"/><path d="M985.65 1693.93h-1.03v-2h1.02z" stroke="#000" stroke-width=".05"/><path d="M1134.5 1692.24l-14.25 4.7-.04-9.27z" stroke="#000" stroke-width="2"/><use xlink:href="#j" transform="matrix(1,0,0,1,1018.0212512625912,1647.1939568841096) translate(0 16.50173611111111)"/><use xlink:href="#g" transform="matrix(1,0,0,1,1018.0212512625912,1647.1939568841096) translate(0 37.19618055555556)"/><path d="M947.97 1892.23c24.9 0 45.1 26.86 45.1 60s-20.2 60-45.1 60H812.7c-24.9 0-45.1-26.86-45.1-60s20.2-60 45.1-60z" stroke="#000" stroke-width="2" fill="#fff"/><use xlink:href="#k" transform="matrix(1,0,0,1,772.6045031815959,1897.229074889868) translate(35.988281250000014 62.56510416666666)"/><use xlink:href="#i" transform="matrix(1,0,0,1,772.6045031815959,1897.229074889868) translate(99.99869791666667 62.56510416666666)"/><path d="M725.07 2000.23c0 6.63-38.05 12-85 12-46.94 0-85-5.37-85-12v-96c0-6.63 38.06-12 85-12 46.95 0 85 5.37 85 12z" stroke="#000" stroke-width="2" fill="#fff"/><path d="M725.07 1904.23c0 6.63-38.05 12-85 12-46.94 0-85-5.37-85-12" stroke="#000" stroke-width="2" fill="none"/><use xlink:href="#l" transform="matrix(1,0,0,1,560.074658619214,1921.229074889868) translate(-0.013020833333300175 52.23177083333333)"/><path d="M641.07 1872.73h-2v-4.14h2zm0-12.4h-2v-8.28h2zm0-16.55h-2v-8.28h2zm0-16.55h-2v-.37h2zm0-21.07h-2v-3.74h2zm0-12h-2v-8.3h2zm0-16.56h-2v-8.27h2zm0-16.54h-2v-4.14h2z" stroke="#000" stroke-width=".05"/><path d="M641.07 1756.95h-2v-1.03h2z"/><path d="M641.1 1756.97h-2.05v-1.07h2.05zm-2-1.02v.97h1.95v-.97z" stroke="#000" stroke-width=".05"/><path d="M640.07 1888l-4.63-14.27h9.27z"/><path d="M640.07 1891.23l-6-18.5h12.02zm-3.25-16.5l3.25 10.03 3.26-10.03z" stroke="#000" stroke-width=".05"/><use xlink:href="#m" transform="matrix(1,0,0,1,570.7300405636586,1806.162644679288) translate(0 16.50173611111111)"/><use xlink:href="#n" transform="matrix(1,0,0,1,570.7300405636586,1806.162644679288) translate(64.01041666666667 16.50173611111111)"/><path d="M866 1872.73h-2v-1.93h2zm0-9.66h-2v-3.86h2zm0-11.58h-2v-3.87h2zm0-11.6h-2v-3.86h2zm0-11.58h-2v-3.86h2zm0-26.62h-2v-.4h2zm0-8.13h-2v-3.87h2zm0-11.6h-2v-3.85h2zm0-11.57h-2v-3.86h2zm0-11.6h-2v-1.92h2z" stroke="#000" stroke-width=".05"/><path d="M866 1756.9h-2v-1.02h2z"/><path d="M866.03 1756.93h-2.05v-1.07h2.05zm-2-1.02v.98h1.95v-.97z" stroke="#000" stroke-width=".05"/><path d="M865 1888l-4.63-14.27h9.27z"/><path d="M865 1891.23l-6-18.5h12zm-3.26-16.5l3.26 10.03 3.26-10.03z" stroke="#000" stroke-width=".05"/><g><use xlink:href="#o" transform="matrix(1,0,0,1,811.6611533063074,1801.7005076603477) translate(0 16.50173611111111)"/><use xlink:href="#p" transform="matrix(1,0,0,1,811.6611533063074,1801.7005076603477) translate(42.673611111111114 16.50173611111111)"/></g><defs><path fill="#333" d="M1001 0H225v-123l295-20v-1176l-295-20v-123h776v123l-294 20v1176l294 20V0" id="q"/><path fill="#333" d="M887 0v-707c0-173-79-260-238-260-205 0-307 133-307 398V0H160v-1098h147l27 148h10c69-112 181-168 336-168 259 0 389 134 389 401V0H887" id="r"/><path fill="#333" d="M1092-551c0 322-136 571-430 571-138 0-245-53-322-159h-12c24 220 7 402 12 631H158v-1590h147l27 148h8c73-112 181-168 322-168 294 0 430 246 430 567zM629-967c-241 0-288 156-289 416 0 151 24 259 70 323s120 97 221 97c181 0 272-141 272-422 0-276-91-414-274-414" id="s"/><path fill="#333" d="M578-131c239 0 309-137 309-397v-570h182V0H922l-27-147h-10C815-36 704 20 551 20c-261 0-391-134-391-401v-717h182v707c0 173 79 260 236 260" id="t"/><path fill="#333" d="M1020-150v138C933 9 849 20 768 20 527 20 406-95 406-324v-637H139v-94l267-49 77-287h105v293h438v137H588v637c0 130 64 195 192 195 62 0 142-7 240-21" id="u"/><g id="a"><use transform="matrix(0.01302083333333333,0,0,0.01302083333333333,0,0)" xlink:href="#q"/><use transform="matrix(0.01302083333333333,0,0,0.01302083333333333,16.002604166666664,0)" xlink:href="#r"/><use transform="matrix(0.01302083333333333,0,0,0.01302083333333333,32.00520833333333,0)" xlink:href="#s"/><use transform="matrix(0.01302083333333333,0,0,0.01302083333333333,48.00781249999999,0)" xlink:href="#t"/><use transform="matrix(0.01302083333333333,0,0,0.01302083333333333,64.01041666666666,0)" xlink:href="#u"/></g><path fill="#333" d="M1112-551c0 331-186 571-502 571-301 0-495-251-495-571 0-330 184-567 501-567 302 0 496 249 496 567zM614-131c207 0 310-140 310-420 0-277-104-416-312-416-206 0-309 139-309 416 0 280 104 420 311 420" id="v"/><path fill="#333" d="M739-1436c0 71-43 115-106 115-71 0-107-38-107-115 0-76 36-114 107-114s106 38 106 114zM541-954l-269-21v-123h451v955l352 20V0H197v-123l344-20v-811" id="w"/><path fill="#333" d="M172-543c0-365 197-575 553-575 119 0 231 20 336 59l-62 158c-100-38-189-57-268-57-247 0-371 138-371 413 0 271 120 406 361 406 105 0 212-21 321-62v160C953 0 843 20 713 20c-347 1-541-210-541-563" id="x"/><path fill="#333" d="M612 20c-153 0-268-65-347-194S147-489 147-733c0-501 155-752 465-752 155 0 271 64 350 193s119 316 119 559c0 502-156 753-469 753zm0-155c98 0 165-50 216-141 86-153 87-759 0-912-51-91-118-141-216-141-97 0-162 49-212 139-85 152-84 764 0 915 50 90 115 140 212 140" id="y"/><g id="b"><use transform="matrix(0.01302083333333333,0,0,0.01302083333333333,0,0)" xlink:href="#u"/><use transform="matrix(0.01302083333333333,0,0,0.01302083333333333,16.002604166666664,0)" xlink:href="#v"/><use transform="matrix(0.01302083333333333,0,0,0.01302083333333333,32.00520833333333,0)" xlink:href="#s"/><use transform="matrix(0.01302083333333333,0,0,0.01302083333333333,48.00781249999999,0)" xlink:href="#w"/><use transform="matrix(0.01302083333333333,0,0,0.01302083333333333,64.01041666666666,0)" xlink:href="#x"/><use transform="matrix(0.01302083333333333,0,0,0.01302083333333333,80.01302083333331,0)" xlink:href="#y"/></g><path fill="#333" d="M758 0H582c3-449-8-824 8-1274-61 68-188 168-268 234l-97-123 383-299h150V0" id="z"/><g id="c"><use transform="matrix(0.01302083333333333,0,0,0.01302083333333333,0,0)" xlink:href="#u"/><use transform="matrix(0.01302083333333333,0,0,0.01302083333333333,16.002604166666664,0)" xlink:href="#v"/><use transform="matrix(0.01302083333333333,0,0,0.01302083333333333,32.00520833333333,0)" xlink:href="#s"/><use transform="matrix(0.01302083333333333,0,0,0.01302083333333333,48.00781249999999,0)" xlink:href="#w"/><use transform="matrix(0.01302083333333333,0,0,0.01302083333333333,64.01041666666666,0)" xlink:href="#x"/><use transform="matrix(0.01302083333333333,0,0,0.01302083333333333,80.01302083333331,0)" xlink:href="#z"/></g><path fill="#333" d="M594-1483c248 0 420 149 418 391 0 79-21 160-59 244-73 161-414 504-572 674v8h688V0H158v-156c172-193 489-508 607-698 43-69 62-147 62-231 0-146-91-244-235-244-107 0-213 46-318 137l-102-119c128-115 269-172 422-172" id="A"/><g id="d"><use transform="matrix(0.01302083333333333,0,0,0.01302083333333333,0,0)" xlink:href="#u"/><use transform="matrix(0.01302083333333333,0,0,0.01302083333333333,16.002604166666664,0)" xlink:href="#v"/><use transform="matrix(0.01302083333333333,0,0,0.01302083333333333,32.00520833333333,0)" xlink:href="#s"/><use transform="matrix(0.01302083333333333,0,0,0.01302083333333333,48.00781249999999,0)" xlink:href="#w"/><use transform="matrix(0.01302083333333333,0,0,0.01302083333333333,64.01041666666666,0)" xlink:href="#x"/><use transform="matrix(0.01302083333333333,0,0,0.01302083333333333,80.01302083333331,0)" xlink:href="#A"/></g><path fill="#333" d="M430 0H244v-1462h841v164H430v516h617v164H430V0" id="B"/><g id="e"><use transform="matrix(0.015190972222222219,0,0,0.015190972222222219,0,0)" xlink:href="#B"/><use transform="matrix(0.015190972222222219,0,0,0.015190972222222219,18.669704861111107,0)" xlink:href="#t"/><use transform="matrix(0.015190972222222219,0,0,0.015190972222222219,37.339409722222214,0)" xlink:href="#r"/><use transform="matrix(0.015190972222222219,0,0,0.015190972222222219,56.00911458333332,0)" xlink:href="#x"/><use transform="matrix(0.015190972222222219,0,0,0.015190972222222219,74.67881944444443,0)" xlink:href="#u"/><use transform="matrix(0.015190972222222219,0,0,0.015190972222222219,93.34852430555554,0)" xlink:href="#w"/><use transform="matrix(0.015190972222222219,0,0,0.015190972222222219,112.01822916666666,0)" xlink:href="#v"/><use transform="matrix(0.015190972222222219,0,0,0.015190972222222219,130.68793402777777,0)" xlink:href="#r"/></g><g id="f"><use transform="matrix(0.008680555555555556,0,0,0.008680555555555556,0,0)" xlink:href="#q"/><use transform="matrix(0.008680555555555556,0,0,0.008680555555555556,10.668402777777779,0)" xlink:href="#r"/><use transform="matrix(0.008680555555555556,0,0,0.008680555555555556,21.336805555555557,0)" xlink:href="#s"/><use transform="matrix(0.008680555555555556,0,0,0.008680555555555556,32.005208333333336,0)" xlink:href="#t"/><use transform="matrix(0.008680555555555556,0,0,0.008680555555555556,42.673611111111114,0)" xlink:href="#u"/></g><path fill="#333" d="M977 0v-707c0-97-9-165-27-203s-47-57-88-57c-58 0-100 28-126 83s-40 148-40 278V0H535v-707c0-173-42-260-125-260-56 0-96 26-120 79s-36 160-36 319V0H92v-1098h127l27 148h10c45-112 112-168 201-168 109 0 180 61 213 182h6c51-121 124-182 219-182 85 0 147 30 186 92s58 165 58 309V0H977" id="C"/><path fill="#333" d="M631-1118c283 0 470 204 465 491v113H322c5 250 120 375 344 375 130 0 253-25 370-76v160C925-5 804 20 672 20c-329 0-539-224-539-561 0-331 182-577 498-577zM326-662h573c0-203-91-305-272-305-183 0-284 102-301 305" id="D"/><path fill="#333" d="M1026-301c0 225-197 321-448 321-165 0-290-23-375-69v-166c129 57 252 86 370 86 183 0 275-54 275-162 0-38-16-71-49-99s-108-63-226-106c-156-57-253-112-293-160s-61-105-61-171c2-338 524-340 789-217l-60 149c-121-48-228-72-319-72-157 0-236 44-236 133 0 41 17 74 51 98s111 57 232 101c141 51 234 101 280 151s70 111 70 183" id="E"/><path fill="#333" d="M596-1118c288 2 430 92 430 366V0H895l-37-152h-8C752-34 680 17 483 20 272 23 135-98 135-307c0-221 170-337 510-348l203-7c15-197-55-305-244-305-98 0-207 27-328 82l-63-137c131-64 258-96 383-96zm-72 991c194 0 325-116 322-311v-99c-251 15-522-6-522 232 0 119 67 178 200 178" id="F"/><path fill="#333" d="M188-739c-1-248 156-381 410-379 57 0 107 7 150 20h378v113l-196 27c43 57 65 128 65 213 2 253-212 385-489 346-67 37-100 82-100 133 0 56 54 84 161 84h187c216-2 358 93 358 297 0 251-188 377-565 377-145 0-255-26-331-80S102 283 102 186c0-141 80-231 240-270-64-31-96-83-96-154 0-75 44-139 133-192-109-41-191-166-191-309zm406 221c149 0 223-77 223-230 0-159-75-239-225-239s-225 81-225 242c0 151 76 227 227 227zm346 649c0-146-78-149-248-149H504c-153 0-230 66-230 198 0 116 90 174 271 174 263 0 395-74 395-223" id="G"/><g id="g"><use transform="matrix(0.008680555555555556,0,0,0.008680555555555556,0,0)" xlink:href="#C"/><use transform="matrix(0.008680555555555556,0,0,0.008680555555555556,10.668402777777779,0)" xlink:href="#D"/><use transform="matrix(0.008680555555555556,0,0,0.008680555555555556,21.336805555555557,0)" xlink:href="#E"/><use transform="matrix(0.008680555555555556,0,0,0.008680555555555556,32.005208333333336,0)" xlink:href="#E"/><use transform="matrix(0.008680555555555556,0,0,0.008680555555555556,42.673611111111114,0)" xlink:href="#F"/><use transform="matrix(0.008680555555555556,0,0,0.008680555555555556,53.34201388888889,0)" xlink:href="#G"/><use transform="matrix(0.008680555555555556,0,0,0.008680555555555556,64.01041666666667,0)" xlink:href="#D"/><use transform="matrix(0.008680555555555556,0,0,0.008680555555555556,74.67881944444446,0)" xlink:href="#E"/></g><path fill="#333" d="M616 20C261 20 84-232 84-735c0-500 178-750 534-750 171 0 301 65 392 195s137 316 137 557-46 426-138 557S786 20 616 20zm0-163c115 0 195-51 254-145 102-163 102-730-2-890-59-92-137-143-250-143-225 0-337 196-337 588 0 393 112 590 335 590" id="H"/><g id="h"><use transform="matrix(0.01302083333333333,0,0,0.01302083333333333,0,0)" xlink:href="#H"/><use transform="matrix(0.01302083333333333,0,0,0.01302083333333333,16.002604166666664,0)" xlink:href="#t"/><use transform="matrix(0.01302083333333333,0,0,0.01302083333333333,32.00520833333333,0)" xlink:href="#u"/><use transform="matrix(0.01302083333333333,0,0,0.01302083333333333,48.00781249999999,0)" xlink:href="#s"/><use transform="matrix(0.01302083333333333,0,0,0.01302083333333333,64.01041666666666,0)" xlink:href="#t"/><use transform="matrix(0.01302083333333333,0,0,0.01302083333333333,80.01302083333331,0)" xlink:href="#u"/></g><g id="i"><use transform="matrix(0.01302083333333333,0,0,0.01302083333333333,0,0)" xlink:href="#u"/><use transform="matrix(0.01302083333333333,0,0,0.01302083333333333,16.002604166666664,0)" xlink:href="#v"/><use transform="matrix(0.01302083333333333,0,0,0.01302083333333333,32.00520833333333,0)" xlink:href="#s"/><use transform="matrix(0.01302083333333333,0,0,0.01302083333333333,48.00781249999999,0)" xlink:href="#w"/><use transform="matrix(0.01302083333333333,0,0,0.01302083333333333,64.01041666666666,0)" xlink:href="#x"/></g><g id="j"><use transform="matrix(0.008680555555555556,0,0,0.008680555555555556,0,0)" xlink:href="#H"/><use transform="matrix(0.008680555555555556,0,0,0.008680555555555556,10.668402777777779,0)" xlink:href="#t"/><use transform="matrix(0.008680555555555556,0,0,0.008680555555555556,21.336805555555557,0)" xlink:href="#u"/><use transform="matrix(0.008680555555555556,0,0,0.008680555555555556,32.005208333333336,0)" xlink:href="#s"/><use transform="matrix(0.008680555555555556,0,0,0.008680555555555556,42.673611111111114,0)" xlink:href="#t"/><use transform="matrix(0.008680555555555556,0,0,0.008680555555555556,53.34201388888889,0)" xlink:href="#u"/></g><path fill="#333" d="M233 0v-1462h187v1296h635V0H233" id="I"/><g id="k"><use transform="matrix(0.01302083333333333,0,0,0.01302083333333333,0,0)" xlink:href="#I"/><use transform="matrix(0.01302083333333333,0,0,0.01302083333333333,16.002604166666664,0)" xlink:href="#v"/><use transform="matrix(0.01302083333333333,0,0,0.01302083333333333,32.00520833333333,0)" xlink:href="#G"/></g><path fill="#333" d="M1137-424C1137-153 941 0 662 0H135v-1462c284 7 685-30 837 88 80 62 124 152 124 282 0 179-125 297-291 316v10c221 36 332 150 332 342zm-232-655c0-182-120-224-319-224H322v461h284c195-2 299-53 299-237zM322-686v528h307c207 0 311-91 311-274 0-169-108-254-324-254H322" id="J"/><path fill="#333" d="M383-553l135-152 395-393h222L641-623 1163 0H950L524-504l-129 82V0H215v-1556h180c-3 337 9 689-16 1003h4" id="K"/><path fill="#333" d="M1198 0H987L537-698 397-584V0H211v-1462h186v731l121-168 453-563h209L659-825" id="L"/><path fill="#333" d="M442-897c93-139 173-221 377-221 79 0 159 15 240 45l-49 166c-82-30-157-45-224-45-221 0-340 134-340 360V0H264v-1098h148l22 201h8" id="M"/><g id="l"><use transform="matrix(0.013020833333333332,0,0,0.013020833333333332,0,0)" xlink:href="#J"/><use transform="matrix(0.013020833333333332,0,0,0.013020833333333332,16.002604166666664,0)" xlink:href="#v"/><use transform="matrix(0.013020833333333332,0,0,0.013020833333333332,32.00520833333333,0)" xlink:href="#v"/><use transform="matrix(0.013020833333333332,0,0,0.013020833333333332,48.00781249999999,0)" xlink:href="#K"/><use transform="matrix(0.013020833333333332,0,0,0.013020833333333332,64.01041666666666,0)" xlink:href="#L"/><use transform="matrix(0.013020833333333332,0,0,0.013020833333333332,80.01302083333331,0)" xlink:href="#D"/><use transform="matrix(0.013020833333333332,0,0,0.013020833333333332,96.01562499999997,0)" xlink:href="#D"/><use transform="matrix(0.013020833333333332,0,0,0.013020833333333332,112.01822916666663,0)" xlink:href="#s"/><use transform="matrix(0.013020833333333332,0,0,0.013020833333333332,128.0208333333333,0)" xlink:href="#D"/><use transform="matrix(0.013020833333333332,0,0,0.013020833333333332,144.02343749999994,0)" xlink:href="#M"/></g><path fill="#333" d="M1087-391c0 281-226 411-532 411-177 0-315-23-414-69v-178c141 57 279 86 414 86 233 0 350-80 350-240 0-69-24-123-71-160s-142-82-285-133c-139-49-239-106-299-174s-90-156-90-264c2-252 211-371 481-371 153 0 291 26 416 78l-64 164c-129-52-249-78-360-78-195 0-293 70-293 209 0 68 22 123 66 164s134 85 270 133c164 58 273 119 328 181s83 143 83 241" id="N"/><g id="m"><use transform="matrix(0.008680555555555556,0,0,0.008680555555555556,0,0)" xlink:href="#N"/><use transform="matrix(0.008680555555555556,0,0,0.008680555555555556,10.668402777777779,0)" xlink:href="#u"/><use transform="matrix(0.008680555555555556,0,0,0.008680555555555556,21.336805555555557,0)" xlink:href="#F"/><use transform="matrix(0.008680555555555556,0,0,0.008680555555555556,32.005208333333336,0)" xlink:href="#u"/><use transform="matrix(0.008680555555555556,0,0,0.008680555555555556,42.673611111111114,0)" xlink:href="#D"/></g><path fill="#333" d="M137-547c0-322 136-571 430-571 137 0 245 53 322 160h12c-24-215-7-376-12-598h182V0H924l-27-147h-8C814-36 706 20 567 20c-294 0-430-246-430-567zm463 416c241 0 288-157 289-416 0-151-23-259-69-323s-121-97-222-97c-181 0-272 141-272 422 0 276 91 414 274 414" id="O"/><g id="n"><use transform="matrix(0.008680555555555556,0,0,0.008680555555555556,0,0)" xlink:href="#t"/><use transform="matrix(0.008680555555555556,0,0,0.008680555555555556,10.668402777777779,0)" xlink:href="#s"/><use transform="matrix(0.008680555555555556,0,0,0.008680555555555556,21.336805555555557,0)" xlink:href="#O"/><use transform="matrix(0.008680555555555556,0,0,0.008680555555555556,32.005208333333336,0)" xlink:href="#F"/><use transform="matrix(0.008680555555555556,0,0,0.008680555555555556,42.673611111111114,0)" xlink:href="#u"/><use transform="matrix(0.008680555555555556,0,0,0.008680555555555556,53.34201388888889,0)" xlink:href="#D"/><use transform="matrix(0.008680555555555556,0,0,0.008680555555555556,64.01041666666667,0)" xlink:href="#E"/></g><g id="o"><use transform="matrix(0.008680555555555556,0,0,0.008680555555555556,0,0)" xlink:href="#I"/><use transform="matrix(0.008680555555555556,0,0,0.008680555555555556,10.668402777777779,0)" xlink:href="#v"/><use transform="matrix(0.008680555555555556,0,0,0.008680555555555556,21.336805555555557,0)" xlink:href="#G"/></g><g id="p"><use transform="matrix(0.008680555555555556,0,0,0.008680555555555556,0,0)" xlink:href="#v"/><use transform="matrix(0.008680555555555556,0,0,0.008680555555555556,10.668402777777779,0)" xlink:href="#t"/><use transform="matrix(0.008680555555555556,0,0,0.008680555555555556,21.336805555555557,0)" xlink:href="#u"/><use transform="matrix(0.008680555555555556,0,0,0.008680555555555556,32.005208333333336,0)" xlink:href="#s"/><use transform="matrix(0.008680555555555556,0,0,0.008680555555555556,42.673611111111114,0)" xlink:href="#t"/><use transform="matrix(0.008680555555555556,0,0,0.008680555555555556,53.34201388888889,0)" xlink:href="#u"/></g></defs></g></svg>