<svg xmlns="http://www.w3.org/2000/svg" xmlns:xlink="http://www.w3.org/1999/xlink" xmlns:lucid="lucid" width="1640" height="520"><g transform="translate(-60 -380)" lucid:page-tab-id="0_0"><path d="M80 406c0-3.3 2.7-6 6-6h1588c3.3 0 6 2.7 6 6v468c0 3.3-2.7 6-6 6H86c-3.3 0-6-2.7-6-6z" stroke="#dfe3e8" fill="#fff" filter="url(#a)"/><path d="M160 726c0-3.3 2.7-6 6-6h168c3.3 0 6 2.7 6 6v88c0 3.3-2.7 6-6 6H166c-3.3 0-6-2.7-6-6z" stroke="#3a414a" stroke-width="2" fill="#fff"/><use xlink:href="#b" transform="matrix(1,0,0,1,165,725) translate(10.321180555555557 57.003038194444436)"/><path d="M748 720c28.72 0 52 22.4 52 50s-23.28 50-52 50H592c-28.72 0-52-22.4-52-50s23.28-50 52-50z" stroke="#3a414a" stroke-width="2" fill="#fff"/><use xlink:href="#c" transform="matrix(1,0,0,1,545,725) translate(12.981770833333343 57.003038194444436)"/><use xlink:href="#d" transform="matrix(1,0,0,1,545,725) translate(143.66970486111111 57.003038194444436)"/><path d="M1188 720c28.72 0 52 22.4 52 50s-23.28 50-52 50h-156c-28.72 0-52-22.4-52-50s23.28-50 52-50z" stroke="#3a414a" stroke-width="2" fill="#d3e3fc"/><use xlink:href="#e" transform="matrix(1,0,0,1,985,725) translate(12.981770833333329 57.003038194444436)"/><path d="M1420 726c0-3.3 2.7-6 6-6h168c3.3 0 6 2.7 6 6v88c0 3.3-2.7 6-6 6h-168c-3.3 0-6-2.7-6-6z" stroke="#3a414a" stroke-width="2" fill="#fff"/><use xlink:href="#f" transform="matrix(1,0,0,1,1425,725) translate(10.321180555555557 57.003038194444436)"/><path d="M1242 460c48.6 0 88 22.4 88 50s-39.4 50-88 50H978c-48.6 0-88-22.4-88-50s39.4-50 88-50z" stroke="#3a414a" stroke-width="2" fill="#dfe3e8"/><use xlink:href="#g" transform="matrix(1,0,0,1,895,465) translate(9.63824652777789 57.003038194444436)"/><path d="M342 770h178.5" stroke="#3a414a" stroke-width="2" fill="none"/><path d="M342.03 771H341v-2h1.03z" stroke="#3a414a" stroke-width=".05" fill="#3a414a"/><path d="M535.76 770l-14.26 4.64v-9.28z" stroke="#3a414a" stroke-width="2" fill="#3a414a"/><path d="M802 770h158.5" stroke="#3a414a" stroke-width="2" fill="none"/><path d="M802.03 771h-1.08l.05-.98-.02-1.02h1.05z" stroke="#3a414a" stroke-width=".05" fill="#3a414a"/><path d="M975.76 770l-14.26 4.64v-9.28z" stroke="#3a414a" stroke-width="2" fill="#3a414a"/><path d="M1242 770h158.5" stroke="#3a414a" stroke-width="2" fill="none"/><path d="M1242.03 771h-1.08l.05-.98-.02-1.02h1.05z" stroke="#3a414a" stroke-width=".05" fill="#3a414a"/><path d="M1415.76 770l-14.26 4.64v-9.28z" stroke="#3a414a" stroke-width="2" fill="#3a414a"/><path d="M1037.55 718V579.5" stroke="#3a414a" stroke-width="2" fill="none"/><path d="M1038.55 719h-2v-1.03h2z" stroke="#3a414a" stroke-width=".05" fill="#3a414a"/><path d="M1037.55 564.24l4.64 14.26h-9.28z" stroke="#3a414a" stroke-width="2" fill="#3a414a"/><path d="M1175.46 562v138.5" stroke="#3a414a" stroke-width="2" fill="none"/><path d="M1176.46 562.03h-2V561h2z" stroke="#3a414a" stroke-width=".05" fill="#3a414a"/><path d="M1175.46 715.76l-4.64-14.26h9.27z" stroke="#3a414a" stroke-width="2" fill="#3a414a"/><path d="M720 586c0-3.3 2.7-6 6-6h308c3.3 0 6 2.7 6 6v68c0 3.3-2.7 6-6 6H726c-3.3 0-6-2.7-6-6z" stroke="#000" stroke-opacity="0" fill="#fff" fill-opacity="0"/><use xlink:href="#h" transform="matrix(1,0,0,1,725,585) translate(6.335238233024711 44.190538194444436)"/><path d="M1180 626c0-3.3 2.7-6 6-6h128c3.3 0 6 2.7 6 6v68c0 3.3-2.7 6-6 6h-128c-3.3 0-6-2.7-6-6z" stroke="#000" stroke-opacity="0" fill="#fff" fill-opacity="0"/><use xlink:href="#i" transform="matrix(1,0,0,1,1185,625) translate(-0.34396701388888573 45.77039930555556)"/><defs><filter id="a" filterUnits="objectBoundingBox" x="0" y="-.01" width="1.01" height="1.04"><feOffset result="offOut" in="SourceAlpha" dx="4.24" dy="4.24"/><feGaussianBlur result="blurOut" in="offOut" stdDeviation="5"/><feColorMatrix result="colorOut" in="blurOut" values="0 0 0 0 0 0 0 0 0 0 0 0 0 0 0 0 0 0 0.5019607843137255 0"/><feBlend in="SourceGraphic" in2="colorOut"/></filter><path fill="#3a414a" d="M1094-1034c0 310-213 470-541 465H362V0H176v-1462h404c343 0 514 143 514 428zM532-727c244-1 369-71 369-297 0-186-113-279-338-279H362v576h170" id="j"/><path fill="#3a414a" d="M442-897c93-139 173-221 377-221 79 0 159 15 240 45l-49 166c-82-30-157-45-224-45-221 0-340 134-340 360V0H264v-1098h148l22 201h8" id="k"/><path fill="#3a414a" d="M1112-551c0 331-186 571-502 571-301 0-495-251-495-571 0-330 184-567 501-567 302 0 496 249 496 567zM614-131c207 0 310-140 310-420 0-277-104-416-312-416-206 0-309 139-309 416 0 280 104 420 311 420" id="l"/><path fill="#3a414a" d="M137-547c0-322 136-571 430-571 137 0 245 53 322 160h12c-24-215-7-376-12-598h182V0H924l-27-147h-8C814-36 706 20 567 20c-294 0-430-246-430-567zm463 416c241 0 288-157 289-416 0-151-23-259-69-323s-121-97-222-97c-181 0-272 141-272 422 0 276 91 414 274 414" id="m"/><path fill="#3a414a" d="M578-131c239 0 309-137 309-397v-570h182V0H922l-27-147h-10C815-36 704 20 551 20c-261 0-391-134-391-401v-717h182v707c0 173 79 260 236 260" id="n"/><path fill="#3a414a" d="M172-543c0-365 197-575 553-575 119 0 231 20 336 59l-62 158c-100-38-189-57-268-57-247 0-371 138-371 413 0 271 120 406 361 406 105 0 212-21 321-62v160C953 0 843 20 713 20c-347 1-541-210-541-563" id="o"/><path fill="#3a414a" d="M631-1118c283 0 470 204 465 491v113H322c5 250 120 375 344 375 130 0 253-25 370-76v160C925-5 804 20 672 20c-329 0-539-224-539-561 0-331 182-577 498-577zM326-662h573c0-203-91-305-272-305-183 0-284 102-301 305" id="p"/><g id="b"><use transform="matrix(0.015190972222222219,0,0,0.015190972222222219,0,0)" xlink:href="#j"/><use transform="matrix(0.015190972222222219,0,0,0.015190972222222219,18.669704861111107,0)" xlink:href="#k"/><use transform="matrix(0.015190972222222219,0,0,0.015190972222222219,37.339409722222214,0)" xlink:href="#l"/><use transform="matrix(0.015190972222222219,0,0,0.015190972222222219,56.00911458333332,0)" xlink:href="#m"/><use transform="matrix(0.015190972222222219,0,0,0.015190972222222219,74.67881944444443,0)" xlink:href="#n"/><use transform="matrix(0.015190972222222219,0,0,0.015190972222222219,93.34852430555554,0)" xlink:href="#o"/><use transform="matrix(0.015190972222222219,0,0,0.015190972222222219,112.01822916666666,0)" xlink:href="#p"/><use transform="matrix(0.015190972222222219,0,0,0.015190972222222219,130.68793402777777,0)" xlink:href="#k"/></g><path fill="#3a414a" d="M532-1413l-268-21v-122h451v1413l352 20V0H188v-123l344-20v-1270" id="q"/><path fill="#3a414a" d="M1026-301c0 225-197 321-448 321-165 0-290-23-375-69v-166c129 57 252 86 370 86 183 0 275-54 275-162 0-38-16-71-49-99s-108-63-226-106c-156-57-253-112-293-160s-61-105-61-171c2-338 524-340 789-217l-60 149c-121-48-228-72-319-72-157 0-236 44-236 133 0 41 17 74 51 98s111 57 232 101c141 51 234 101 280 151s70 111 70 183" id="r"/><path fill="#3a414a" d="M596-1118c288 2 430 92 430 366V0H895l-37-152h-8C752-34 680 17 483 20 272 23 135-98 135-307c0-221 170-337 510-348l203-7c15-197-55-305-244-305-98 0-207 27-328 82l-63-137c131-64 258-96 383-96zm-72 991c194 0 325-116 322-311v-99c-251 15-522-6-522 232 0 119 67 178 200 178" id="s"/><g id="c"><use transform="matrix(0.015190972222222219,0,0,0.015190972222222219,0,0)" xlink:href="#j"/><use transform="matrix(0.015190972222222219,0,0,0.015190972222222219,18.669704861111107,0)" xlink:href="#n"/><use transform="matrix(0.015190972222222219,0,0,0.015190972222222219,37.339409722222214,0)" xlink:href="#q"/><use transform="matrix(0.015190972222222219,0,0,0.015190972222222219,56.00911458333332,0)" xlink:href="#r"/><use transform="matrix(0.015190972222222219,0,0,0.015190972222222219,74.67881944444443,0)" xlink:href="#s"/><use transform="matrix(0.015190972222222219,0,0,0.015190972222222219,93.34852430555554,0)" xlink:href="#k"/></g><path fill="#3a414a" d="M707 0H520v-1298H102v-164h1022v164H707V0" id="t"/><path fill="#3a414a" d="M1092-551c0 322-136 571-430 571-138 0-245-53-322-159h-12c24 220 7 402 12 631H158v-1590h147l27 148h8c73-112 181-168 322-168 294 0 430 246 430 567zM629-967c-241 0-288 156-289 416 0 151 24 259 70 323s120 97 221 97c181 0 272-141 272-422 0-276-91-414-274-414" id="u"/><path fill="#3a414a" d="M739-1436c0 71-43 115-106 115-71 0-107-38-107-115 0-76 36-114 107-114s106 38 106 114zM541-954l-269-21v-123h451v955l352 20V0H197v-123l344-20v-811" id="v"/><g id="d"><use transform="matrix(0.015190972222222219,0,0,0.015190972222222219,0,0)" xlink:href="#t"/><use transform="matrix(0.015190972222222219,0,0,0.015190972222222219,18.669704861111107,0)" xlink:href="#l"/><use transform="matrix(0.015190972222222219,0,0,0.015190972222222219,37.339409722222214,0)" xlink:href="#u"/><use transform="matrix(0.015190972222222219,0,0,0.015190972222222219,56.00911458333332,0)" xlink:href="#v"/><use transform="matrix(0.015190972222222219,0,0,0.015190972222222219,74.67881944444443,0)" xlink:href="#o"/></g><path fill="#3a414a" d="M1087-391c0 281-226 411-532 411-177 0-315-23-414-69v-178c141 57 279 86 414 86 233 0 350-80 350-240 0-69-24-123-71-160s-142-82-285-133c-139-49-239-106-299-174s-90-156-90-264c2-252 211-371 481-371 153 0 291 26 416 78l-64 164c-129-52-249-78-360-78-195 0-293 70-293 209 0 68 22 123 66 164s134 85 270 133c164 58 273 119 328 181s83 143 83 241" id="w"/><path fill="#3a414a" d="M1092-551c0 322-136 571-430 571-138 0-245-53-322-159h-12L291 0H158v-1556h182c-2 221 6 379-8 602h8c71-109 179-164 322-164 294 0 430 246 430 567zM629-967c-241 0-289 146-289 416 0 151 24 259 70 323s120 97 221 97c181 0 272-141 272-422 0-276-91-414-274-414" id="x"/><path fill="#3a414a" d="M1020-150v138C933 9 849 20 768 20 527 20 406-95 406-324v-637H139v-94l267-49 77-287h105v293h438v137H588v637c0 130 64 195 192 195 62 0 142-7 240-21" id="y"/><path fill="#3a414a" d="M887 0v-707c0-173-79-260-238-260-205 0-307 133-307 398V0H160v-1098h147l27 148h10c69-112 181-168 336-168 259 0 389 134 389 401V0H887" id="z"/><g id="e"><use transform="matrix(0.015190972222222219,0,0,0.015190972222222219,0,0)" xlink:href="#w"/><use transform="matrix(0.015190972222222219,0,0,0.015190972222222219,18.669704861111107,0)" xlink:href="#n"/><use transform="matrix(0.015190972222222219,0,0,0.015190972222222219,37.339409722222214,0)" xlink:href="#x"/><use transform="matrix(0.015190972222222219,0,0,0.015190972222222219,56.00911458333332,0)" xlink:href="#r"/><use transform="matrix(0.015190972222222219,0,0,0.015190972222222219,74.67881944444443,0)" xlink:href="#o"/><use transform="matrix(0.015190972222222219,0,0,0.015190972222222219,93.34852430555554,0)" xlink:href="#k"/><use transform="matrix(0.015190972222222219,0,0,0.015190972222222219,112.01822916666666,0)" xlink:href="#v"/><use transform="matrix(0.015190972222222219,0,0,0.015190972222222219,130.68793402777777,0)" xlink:href="#u"/><use transform="matrix(0.015190972222222219,0,0,0.015190972222222219,149.35763888888889,0)" xlink:href="#y"/><use transform="matrix(0.015190972222222219,0,0,0.015190972222222219,168.02734375,0)" xlink:href="#v"/><use transform="matrix(0.015190972222222219,0,0,0.015190972222222219,186.69704861111111,0)" xlink:href="#l"/><use transform="matrix(0.015190972222222219,0,0,0.015190972222222219,205.36675347222223,0)" xlink:href="#z"/></g><path fill="#3a414a" d="M326-731c0 353 139 584 471 588 87 0 196-19 327-58v162c-97 39-217 59-358 59-433-1-637-301-637-753 0-438 243-750 668-750 147 0 274 29 383 86l-78 156c-103-52-204-78-305-78-307 1-471 259-471 588" id="A"/><path fill="#3a414a" d="M977 0v-707c0-97-9-165-27-203s-47-57-88-57c-58 0-100 28-126 83s-40 148-40 278V0H535v-707c0-173-42-260-125-260-56 0-96 26-120 79s-36 160-36 319V0H92v-1098h127l27 148h10c45-112 112-168 201-168 109 0 180 61 213 182h6c51-121 124-182 219-182 85 0 147 30 186 92s58 165 58 309V0H977" id="B"/><g id="f"><use transform="matrix(0.015190972222222219,0,0,0.015190972222222219,0,0)" xlink:href="#A"/><use transform="matrix(0.015190972222222219,0,0,0.015190972222222219,18.669704861111107,0)" xlink:href="#l"/><use transform="matrix(0.015190972222222219,0,0,0.015190972222222219,37.339409722222214,0)" xlink:href="#z"/><use transform="matrix(0.015190972222222219,0,0,0.015190972222222219,56.00911458333332,0)" xlink:href="#r"/><use transform="matrix(0.015190972222222219,0,0,0.015190972222222219,74.67881944444443,0)" xlink:href="#n"/><use transform="matrix(0.015190972222222219,0,0,0.015190972222222219,93.34852430555554,0)" xlink:href="#B"/><use transform="matrix(0.015190972222222219,0,0,0.015190972222222219,112.01822916666666,0)" xlink:href="#p"/><use transform="matrix(0.015190972222222219,0,0,0.015190972222222219,130.68793402777777,0)" xlink:href="#k"/></g><path fill="#3a414a" d="M1147-745C1147-274 901 1 436 0H135v-1462h342c429-3 670 280 670 717zm-825-558v1143h96c355 0 532-193 532-579 0-376-164-564-493-564H322" id="C"/><path fill="#3a414a" d="M82-1098h188l262 654c55 137 84 233 89 290h6c15-75 45-172 90-292l239-652h189L670 143c-45 116-99 201-156 261-87 92-259 104-414 71V330c92 17 226 18 286-29 67-53 115-195 153-291" id="D"/><path fill="#3a414a" d="M498 0L82-1098h188l240 652c57 154 90 262 100 325h6c67-256 244-708 340-977h189L729 0H498" id="E"/><path fill="#3a414a" d="M383-553l135-152 395-393h222L641-623 1163 0H950L524-504l-129 82V0H215v-1556h180c-3 337 9 689-16 1003h4" id="F"/><g id="g"><use transform="matrix(0.015190972222222219,0,0,0.015190972222222219,0,0)" xlink:href="#C"/><use transform="matrix(0.015190972222222219,0,0,0.015190972222222219,18.669704861111107,0)" xlink:href="#p"/><use transform="matrix(0.015190972222222219,0,0,0.015190972222222219,37.339409722222214,0)" xlink:href="#q"/><use transform="matrix(0.015190972222222219,0,0,0.015190972222222219,56.00911458333332,0)" xlink:href="#s"/><use transform="matrix(0.015190972222222219,0,0,0.015190972222222219,74.67881944444443,0)" xlink:href="#D"/><use transform="matrix(0.015190972222222219,0,0,0.015190972222222219,93.34852430555554,0)" xlink:href="#p"/><use transform="matrix(0.015190972222222219,0,0,0.015190972222222219,112.01822916666666,0)" xlink:href="#m"/><use transform="matrix(0.015190972222222219,0,0,0.015190972222222219,130.68793402777777,0)" xlink:href="#C"/><use transform="matrix(0.015190972222222219,0,0,0.015190972222222219,149.35763888888889,0)" xlink:href="#p"/><use transform="matrix(0.015190972222222219,0,0,0.015190972222222219,168.02734375,0)" xlink:href="#q"/><use transform="matrix(0.015190972222222219,0,0,0.015190972222222219,186.69704861111111,0)" xlink:href="#v"/><use transform="matrix(0.015190972222222219,0,0,0.015190972222222219,205.36675347222223,0)" xlink:href="#E"/><use transform="matrix(0.015190972222222219,0,0,0.015190972222222219,224.03645833333334,0)" xlink:href="#p"/><use transform="matrix(0.015190972222222219,0,0,0.015190972222222219,242.70616319444446,0)" xlink:href="#k"/><use transform="matrix(0.015190972222222219,0,0,0.015190972222222219,261.37586805555554,0)" xlink:href="#D"/><use transform="matrix(0.015190972222222219,0,0,0.015190972222222219,280.04557291666663,0)" xlink:href="#t"/><use transform="matrix(0.015190972222222219,0,0,0.015190972222222219,298.7152777777777,0)" xlink:href="#k"/><use transform="matrix(0.015190972222222219,0,0,0.015190972222222219,317.3849826388888,0)" xlink:href="#s"/><use transform="matrix(0.015190972222222219,0,0,0.015190972222222219,336.0546874999999,0)" xlink:href="#o"/><use transform="matrix(0.015190972222222219,0,0,0.015190972222222219,354.724392361111,0)" xlink:href="#F"/><use transform="matrix(0.015190972222222219,0,0,0.015190972222222219,373.39409722222206,0)" xlink:href="#p"/><use transform="matrix(0.015190972222222219,0,0,0.015190972222222219,392.06380208333314,0)" xlink:href="#k"/></g><path fill="#3a414a" d="M887 0v-707c0-173-79-260-238-260-205 0-307 133-307 398V0H160v-1556h182c-2 202 6 416-8 606h10c69-112 181-168 336-168 259 0 389 134 389 401V0H887" id="G"/><path fill="#3a414a" d="M1004 0L860-453H369L223 0H33l483-1468h195L1196 0h-192zM807-618c-63-210-144-435-195-650-51 232-127 431-190 650h385" id="H"/><path fill="#3a414a" d="M100-194c63 0 86 42 84 106H49c0 40 14 67 53 68 26 1 43-12 49-29l28 8c-11 28-37 45-77 45C44 4 14-33 15-96c1-61 26-98 85-98zm52 81c6-60-76-77-97-28-3 7-6 17-6 28h103" id="I"/><g id="h"><use transform="matrix(0.015190972222222219,0,0,0.015190972222222219,0,0)" xlink:href="#G"/><use transform="matrix(0.015190972222222219,0,0,0.015190972222222219,18.669704861111107,0)" xlink:href="#s"/><use transform="matrix(0.015190972222222219,0,0,0.015190972222222219,37.339409722222214,0)" xlink:href="#r"/><use transform="matrix(0.015190972222222219,0,0,0.015190972222222219,56.00911458333332,0)" xlink:href="#C"/><use transform="matrix(0.015190972222222219,0,0,0.015190972222222219,74.67881944444443,0)" xlink:href="#p"/><use transform="matrix(0.015190972222222219,0,0,0.015190972222222219,93.34852430555554,0)" xlink:href="#q"/><use transform="matrix(0.015190972222222219,0,0,0.015190972222222219,112.01822916666666,0)" xlink:href="#v"/><use transform="matrix(0.015190972222222219,0,0,0.015190972222222219,130.68793402777777,0)" xlink:href="#E"/><use transform="matrix(0.015190972222222219,0,0,0.015190972222222219,149.35763888888889,0)" xlink:href="#p"/><use transform="matrix(0.015190972222222219,0,0,0.015190972222222219,168.02734375,0)" xlink:href="#k"/><use transform="matrix(0.015190972222222219,0,0,0.015190972222222219,186.69704861111111,0)" xlink:href="#H"/><use transform="matrix(0.015190972222222219,0,0,0.015190972222222219,205.36675347222223,0)" xlink:href="#y"/><use transform="matrix(0.015190972222222219,0,0,0.015190972222222219,224.03645833333334,0)" xlink:href="#t"/><use transform="matrix(0.015190972222222219,0,0,0.015190972222222219,242.70616319444446,0)" xlink:href="#v"/><use transform="matrix(0.015190972222222219,0,0,0.015190972222222219,261.37586805555554,0)" xlink:href="#B"/><use transform="matrix(0.08641975308641973,0,0,0.08641975308641973,280.04557291666663,0)" xlink:href="#I"/></g><g id="i"><use transform="matrix(0.015190972222222219,0,0,0.015190972222222219,0,0)" xlink:href="#y"/><use transform="matrix(0.015190972222222219,0,0,0.015190972222222219,18.669704861111107,0)" xlink:href="#v"/><use transform="matrix(0.015190972222222219,0,0,0.015190972222222219,37.339409722222214,0)" xlink:href="#B"/><use transform="matrix(0.015190972222222219,0,0,0.015190972222222219,56.00911458333332,0)" xlink:href="#p"/><use transform="matrix(0.015190972222222219,0,0,0.015190972222222219,74.67881944444443,0)" xlink:href="#l"/><use transform="matrix(0.015190972222222219,0,0,0.015190972222222219,93.34852430555554,0)" xlink:href="#n"/><use transform="matrix(0.015190972222222219,0,0,0.015190972222222219,112.01822916666666,0)" xlink:href="#y"/></g></defs></g></svg>