<svg xmlns="http://www.w3.org/2000/svg" xmlns:xlink="http://www.w3.org/1999/xlink" xmlns:lucid="lucid" width="1720" height="920"><g transform="translate(-20 -180)" lucid:page-tab-id="0_0"><path d="M40 206c0-3.3 2.7-6 6-6h1668c3.3 0 6 2.7 6 6v868c0 3.3-2.7 6-6 6H46c-3.3 0-6-2.7-6-6z" stroke="#dfe3e8" fill="#fff" filter="url(#a)"/><path d="M80 246c0-3.3 2.7-6 6-6h188c3.3 0 6 2.7 6 6v88c0 3.3-2.7 6-6 6H86c-3.3 0-6-2.7-6-6z" stroke="#3a414a" stroke-width="3" fill="#dfe3e8"/><use xlink:href="#b" transform="matrix(1,0,0,1,92,252) translate(22.656032986111114 47.878038194444436)"/><path d="M780 246c0-3.3 2.7-6 6-6h188c3.3 0 6 2.7 6 6v88c0 3.3-2.7 6-6 6H786c-3.3 0-6-2.7-6-6z" stroke="#3a414a" stroke-width="3" fill="#fff"/><use xlink:href="#c" transform="matrix(1,0,0,1,792,252) translate(31.99088541666667 28.878038194444436)"/><use xlink:href="#d" transform="matrix(1,0,0,1,792,252) translate(31.99088541666667 65.0933159722222)"/><path d="M1480 246c0-3.3 2.7-6 6-6h188c3.3 0 6 2.7 6 6v88c0 3.3-2.7 6-6 6h-188c-3.3 0-6-2.7-6-6z" stroke="#3a414a" stroke-width="3" fill="#d3e3fc"/><use xlink:href="#e" transform="matrix(1,0,0,1,1492,252) translate(-5.348524305555557 48.77039930555556)"/><path d="M283 290h474.88" stroke="#3a414a" stroke-width="3" fill="none"/><path d="M283.04 291.5h-1.54v-3h1.54z" stroke="#3a414a" stroke-width=".05" fill="#3a414a"/><path d="M773.65 290l-14.27 4.64v-9.28z" stroke="#3a414a" stroke-width="3" fill="#3a414a"/><path d="M983 290h474.88" stroke="#3a414a" stroke-width="3" fill="none"/><path d="M983.04 291.5h-1.54v-3h1.54z" stroke="#3a414a" stroke-width=".05" fill="#3a414a"/><path d="M1473.65 290l-14.27 4.64v-9.28z" stroke="#3a414a" stroke-width="3" fill="#3a414a"/><path d="M390 286c0-3.3 2.7-6 6-6h268c3.3 0 6 2.7 6 6v70.43c0 3.3-2.7 6-6 6H396c-3.3 0-6-2.7-6-6z" stroke="#000" stroke-opacity="0" stroke-width="3" fill="#fff" fill-opacity="0"/><use xlink:href="#f" transform="matrix(1,0,0,1,395,285) translate(4.3120659722222285 47.128038194444436)"/><use xlink:href="#g" transform="matrix(1,0,0,1,395,285) translate(153.66970486111111 47.128038194444436)"/><use xlink:href="#h" transform="matrix(1,0,0,1,395,285) translate(191.00911458333331 47.128038194444436)"/><path d="M1020 286c0-3.3 2.7-6 6-6h408c3.3 0 6 2.7 6 6v70.43c0 3.3-2.7 6-6 6h-408c-3.3 0-6-2.7-6-6z" stroke="#000" stroke-opacity="0" stroke-width="3" fill="#fff" fill-opacity="0"/><use xlink:href="#f" transform="matrix(1,0,0,1,1025,285) translate(27.637803819444457 47.128038194444436)"/><use xlink:href="#g" transform="matrix(1,0,0,1,1025,285) translate(176.99544270833334 47.128038194444436)"/><use xlink:href="#i" transform="matrix(1,0,0,1,1025,285) translate(214.33485243055554 47.128038194444436)"/><path d="M80 466c0-3.3 2.7-6 6-6h188c3.3 0 6 2.7 6 6v88c0 3.3-2.7 6-6 6H86c-3.3 0-6-2.7-6-6z" stroke="#3a414a" stroke-width="3" fill="#dfe3e8"/><use xlink:href="#b" transform="matrix(1,0,0,1,92,472) translate(22.656032986111114 47.878038194444436)"/><path d="M780 466c0-3.3 2.7-6 6-6h188c3.3 0 6 2.7 6 6v88c0 3.3-2.7 6-6 6H786c-3.3 0-6-2.7-6-6z" stroke="#3a414a" stroke-width="3" fill="#fff"/><use xlink:href="#c" transform="matrix(1,0,0,1,792,472) translate(31.99088541666667 28.878038194444436)"/><use xlink:href="#d" transform="matrix(1,0,0,1,792,472) translate(31.99088541666667 65.0933159722222)"/><path d="M1480 466c0-3.3 2.7-6 6-6h188c3.3 0 6 2.7 6 6v88c0 3.3-2.7 6-6 6h-188c-3.3 0-6-2.7-6-6z" stroke="#3a414a" stroke-width="3" fill="#d3e3fc"/><use xlink:href="#e" transform="matrix(1,0,0,1,1492,472) translate(-5.348524305555557 48.77039930555556)"/><path d="M283 510h474.88" stroke="#3a414a" stroke-width="3" fill="none"/><path d="M283.04 511.5h-1.54v-3h1.54z" stroke="#3a414a" stroke-width=".05" fill="#3a414a"/><path d="M773.65 510l-14.27 4.64v-9.28z" stroke="#3a414a" stroke-width="3" fill="#3a414a"/><path d="M983 510h474.88" stroke="#3a414a" stroke-width="3" fill="none"/><path d="M983.04 511.5h-1.54v-3h1.54z" stroke="#3a414a" stroke-width=".05" fill="#3a414a"/><path d="M1473.65 510l-14.27 4.64v-9.28z" stroke="#3a414a" stroke-width="3" fill="#3a414a"/><path d="M390 526c0-3.3 2.7-6 6-6h268c3.3 0 6 2.7 6 6v70.43c0 3.3-2.7 6-6 6H396c-3.3 0-6-2.7-6-6z" stroke="#000" stroke-opacity="0" stroke-width="3" fill="#fff" fill-opacity="0"/><use xlink:href="#f" transform="matrix(1,0,0,1,395,525) translate(4.3120659722222285 28.878038194444436)"/><use xlink:href="#g" transform="matrix(1,0,0,1,395,525) translate(153.66970486111111 28.878038194444436)"/><use xlink:href="#j" transform="matrix(1,0,0,1,395,525) translate(191.00911458333331 28.878038194444436)"/><use xlink:href="#k" transform="matrix(1,0,0,1,395,525) translate(69.65603298611111 65.0933159722222)"/><path d="M1020 526c0-3.3 2.7-6 6-6h408c3.3 0 6 2.7 6 6v70.43c0 3.3-2.7 6-6 6h-408c-3.3 0-6-2.7-6-6z" stroke="#000" stroke-opacity="0" stroke-width="3" fill="#fff" fill-opacity="0"/><use xlink:href="#f" transform="matrix(1,0,0,1,1025,525) translate(27.637803819444457 28.878038194444436)"/><use xlink:href="#g" transform="matrix(1,0,0,1,1025,525) translate(176.99544270833334 28.878038194444436)"/><use xlink:href="#l" transform="matrix(1,0,0,1,1025,525) translate(214.33485243055554 28.878038194444436)"/><use xlink:href="#m" transform="matrix(1,0,0,1,1025,525) translate(158.32573784722223 65.0933159722222)"/><path d="M400 966c0-3.3 2.7-6 6-6h268c3.3 0 6 2.7 6 6v70.43c0 3.3-2.7 6-6 6H406c-3.3 0-6-2.7-6-6z" stroke="#000" stroke-opacity="0" stroke-width="3" fill="#fff" fill-opacity="0"/><use xlink:href="#f" transform="matrix(1,0,0,1,405,965) translate(4.3120659722222285 28.878038194444436)"/><use xlink:href="#g" transform="matrix(1,0,0,1,405,965) translate(153.66970486111111 28.878038194444436)"/><use xlink:href="#j" transform="matrix(1,0,0,1,405,965) translate(191.00911458333331 28.878038194444436)"/><use xlink:href="#k" transform="matrix(1,0,0,1,405,965) translate(69.65603298611111 65.0933159722222)"/><path d="M283 730h474.88" stroke="#3a414a" stroke-width="3" fill="none"/><path d="M283.04 731.5h-1.54v-3h1.54z" stroke="#3a414a" stroke-width=".05" fill="#3a414a"/><path d="M773.65 730l-14.27 4.64v-9.28z" stroke="#3a414a" stroke-width="3" fill="#3a414a"/><path d="M983 730h474.88" stroke="#3a414a" stroke-width="3" fill="none"/><path d="M983.04 731.5h-1.54v-3h1.54z" stroke="#3a414a" stroke-width=".05" fill="#3a414a"/><path d="M1473.65 730l-14.27 4.64v-9.28z" stroke="#3a414a" stroke-width="3" fill="#3a414a"/><path d="M80 686c0-3.3 2.7-6 6-6h188c3.3 0 6 2.7 6 6v88c0 3.3-2.7 6-6 6H86c-3.3 0-6-2.7-6-6z" stroke="#3a414a" stroke-width="3" fill="#dfe3e8"/><use xlink:href="#b" transform="matrix(1,0,0,1,92,692) translate(22.656032986111114 47.878038194444436)"/><path d="M780 686c0-3.3 2.7-6 6-6h188c3.3 0 6 2.7 6 6v88c0 3.3-2.7 6-6 6H786c-3.3 0-6-2.7-6-6z" stroke="#3a414a" stroke-width="3" fill="#fff"/><use xlink:href="#c" transform="matrix(1,0,0,1,792,692) translate(31.99088541666667 28.878038194444436)"/><use xlink:href="#d" transform="matrix(1,0,0,1,792,692) translate(31.99088541666667 65.0933159722222)"/><path d="M1480 686c0-3.3 2.7-6 6-6h188c3.3 0 6 2.7 6 6v88c0 3.3-2.7 6-6 6h-188c-3.3 0-6-2.7-6-6z" stroke="#3a414a" stroke-width="3" fill="#d3e3fc"/><use xlink:href="#e" transform="matrix(1,0,0,1,1492,692) translate(-5.348524305555557 48.77039930555556)"/><path d="M390 726c0-3.3 2.7-6 6-6h268c3.3 0 6 2.7 6 6v70.43c0 3.3-2.7 6-6 6H396c-3.3 0-6-2.7-6-6z" stroke="#000" stroke-opacity="0" stroke-width="3" fill="#fff" fill-opacity="0"/><use xlink:href="#f" transform="matrix(1,0,0,1,395,724.9999999999742) translate(4.3120659722222285 47.128038194444436)"/><use xlink:href="#g" transform="matrix(1,0,0,1,395,724.9999999999742) translate(153.66970486111111 47.128038194444436)"/><use xlink:href="#h" transform="matrix(1,0,0,1,395,724.9999999999742) translate(191.00911458333331 47.128038194444436)"/><path d="M1020 726c0-3.3 2.7-6 6-6h408c3.3 0 6 2.7 6 6v70.43c0 3.3-2.7 6-6 6h-408c-3.3 0-6-2.7-6-6z" stroke="#000" stroke-opacity="0" stroke-width="3" fill="#fff" fill-opacity="0"/><g><use xlink:href="#f" transform="matrix(1,0,0,1,1025,724.9999999999742) translate(27.637803819444457 47.128038194444436)"/><use xlink:href="#g" transform="matrix(1,0,0,1,1025,724.9999999999742) translate(176.99544270833334 47.128038194444436)"/><use xlink:href="#i" transform="matrix(1,0,0,1,1025,724.9999999999742) translate(214.33485243055554 47.128038194444436)"/></g><path d="M283 950h474.88" stroke="#3a414a" stroke-width="3" fill="none"/><path d="M283.04 951.5h-1.54v-3h1.54z" stroke="#3a414a" stroke-width=".05" fill="#3a414a"/><path d="M773.65 950l-14.27 4.64v-9.28z" stroke="#3a414a" stroke-width="3" fill="#3a414a"/><path d="M983 950h474.88" stroke="#3a414a" stroke-width="3" fill="none"/><path d="M983.04 951.5h-1.54v-3h1.54z" stroke="#3a414a" stroke-width=".05" fill="#3a414a"/><path d="M1473.65 950l-14.27 4.64v-9.28z" stroke="#3a414a" stroke-width="3" fill="#3a414a"/><path d="M80 906c0-3.3 2.7-6 6-6h188c3.3 0 6 2.7 6 6v88c0 3.3-2.7 6-6 6H86c-3.3 0-6-2.7-6-6z" stroke="#3a414a" stroke-width="3" fill="#dfe3e8"/><g><use xlink:href="#b" transform="matrix(1,0,0,1,92,912) translate(22.656032986111114 47.878038194444436)"/></g><path d="M780 906c0-3.3 2.7-6 6-6h188c3.3 0 6 2.7 6 6v88c0 3.3-2.7 6-6 6H786c-3.3 0-6-2.7-6-6z" stroke="#3a414a" stroke-width="3" fill="#fff"/><g><use xlink:href="#c" transform="matrix(1,0,0,1,792,912) translate(31.99088541666667 28.878038194444436)"/><use xlink:href="#d" transform="matrix(1,0,0,1,792,912) translate(31.99088541666667 65.0933159722222)"/></g><path d="M1480 906c0-3.3 2.7-6 6-6h188c3.3 0 6 2.7 6 6v88c0 3.3-2.7 6-6 6h-188c-3.3 0-6-2.7-6-6z" fill="#fff"/><path d="M1517.33 900h31.34m15.66 0h31.34m15.66 0h31.34m15.66 0H1674l3.03.82 2.15 2.15.82 3.03v14.67m0 14.66v29.34m0 14.66V994l-.82 3.03-2.15 2.15-3.03.82h-15.67m-15.66 0h-31.34m-15.66 0h-31.34m-15.66 0h-31.34m-15.66 0H1486l-3.03-.82-2.15-2.15-.82-3.03v-14.67m0-14.66v-29.34m0-14.66V906l.82-3.03 2.15-2.15 3.03-.82h15.67" stroke="#979ea8" stroke-width="3" fill="none"/><g><use xlink:href="#n" transform="matrix(1,0,0,1,1492,912) translate(-5.348524305555557 48.77039930555556)"/></g><path d="M390 946c0-3.3 2.7-6 6-6h268c3.3 0 6 2.7 6 6v70.43c0 3.3-2.7 6-6 6H396c-3.3 0-6-2.7-6-6zM1020 966c0-3.3 2.7-6 6-6h408c3.3 0 6 2.7 6 6v70.43c0 3.3-2.7 6-6 6h-408c-3.3 0-6-2.7-6-6z" stroke="#000" stroke-opacity="0" stroke-width="3" fill="#fff" fill-opacity="0"/><g><use xlink:href="#f" transform="matrix(1,0,0,1,1025,965) translate(83.6469184027778 28.878038194444436)"/><use xlink:href="#g" transform="matrix(1,0,0,1,1025,965) translate(233.00455729166669 28.878038194444436)"/><use xlink:href="#o" transform="matrix(1,0,0,1,1025,965) translate(270.3439670138889 28.878038194444436)"/><use xlink:href="#i" transform="matrix(1,0,0,1,1025,965) translate(120.986328125 65.0933159722222)"/></g><defs><filter id="a" filterUnits="objectBoundingBox" x="0" y="-.01" width="1.01" height="1.02"><feOffset result="offOut" in="SourceAlpha" dx="4.24" dy="4.24"/><feGaussianBlur result="blurOut" in="offOut" stdDeviation="5"/><feColorMatrix result="colorOut" in="blurOut" values="0 0 0 0 0 0 0 0 0 0 0 0 0 0 0 0 0 0 0.5019607843137255 0"/><feBlend in="SourceGraphic" in2="colorOut"/></filter><path fill="#3a414a" d="M1094-1034c0 310-213 470-541 465H362V0H176v-1462h404c343 0 514 143 514 428zM532-727c244-1 369-71 369-297 0-186-113-279-338-279H362v576h170" id="p"/><path fill="#3a414a" d="M442-897c93-139 173-221 377-221 79 0 159 15 240 45l-49 166c-82-30-157-45-224-45-221 0-340 134-340 360V0H264v-1098h148l22 201h8" id="q"/><path fill="#3a414a" d="M1112-551c0 331-186 571-502 571-301 0-495-251-495-571 0-330 184-567 501-567 302 0 496 249 496 567zM614-131c207 0 310-140 310-420 0-277-104-416-312-416-206 0-309 139-309 416 0 280 104 420 311 420" id="r"/><path fill="#3a414a" d="M172-543c0-365 197-575 553-575 119 0 231 20 336 59l-62 158c-100-38-189-57-268-57-247 0-371 138-371 413 0 271 120 406 361 406 105 0 212-21 321-62v160C953 0 843 20 713 20c-347 1-541-210-541-563" id="s"/><path fill="#3a414a" d="M631-1118c283 0 470 204 465 491v113H322c5 250 120 375 344 375 130 0 253-25 370-76v160C925-5 804 20 672 20c-329 0-539-224-539-561 0-331 182-577 498-577zM326-662h573c0-203-91-305-272-305-183 0-284 102-301 305" id="t"/><path fill="#3a414a" d="M1026-301c0 225-197 321-448 321-165 0-290-23-375-69v-166c129 57 252 86 370 86 183 0 275-54 275-162 0-38-16-71-49-99s-108-63-226-106c-156-57-253-112-293-160s-61-105-61-171c2-338 524-340 789-217l-60 149c-121-48-228-72-319-72-157 0-236 44-236 133 0 41 17 74 51 98s111 57 232 101c141 51 234 101 280 151s70 111 70 183" id="u"/><g id="b"><use transform="matrix(0.015190972222222219,0,0,0.015190972222222219,0,0)" xlink:href="#p"/><use transform="matrix(0.015190972222222219,0,0,0.015190972222222219,18.669704861111107,0)" xlink:href="#q"/><use transform="matrix(0.015190972222222219,0,0,0.015190972222222219,37.339409722222214,0)" xlink:href="#r"/><use transform="matrix(0.015190972222222219,0,0,0.015190972222222219,56.00911458333332,0)" xlink:href="#s"/><use transform="matrix(0.015190972222222219,0,0,0.015190972222222219,74.67881944444443,0)" xlink:href="#t"/><use transform="matrix(0.015190972222222219,0,0,0.015190972222222219,93.34852430555554,0)" xlink:href="#u"/><use transform="matrix(0.015190972222222219,0,0,0.015190972222222219,112.01822916666666,0)" xlink:href="#u"/></g><path fill="#3a414a" d="M578-131c239 0 309-137 309-397v-570h182V0H922l-27-147h-10C815-36 704 20 551 20c-261 0-391-134-391-401v-717h182v707c0 173 79 260 236 260" id="v"/><path fill="#3a414a" d="M532-1413l-268-21v-122h451v1413l352 20V0H188v-123l344-20v-1270" id="w"/><path fill="#3a414a" d="M596-1118c288 2 430 92 430 366V0H895l-37-152h-8C752-34 680 17 483 20 272 23 135-98 135-307c0-221 170-337 510-348l203-7c15-197-55-305-244-305-98 0-207 27-328 82l-63-137c131-64 258-96 383-96zm-72 991c194 0 325-116 322-311v-99c-251 15-522-6-522 232 0 119 67 178 200 178" id="x"/><g id="c"><use transform="matrix(0.015190972222222219,0,0,0.015190972222222219,0,0)" xlink:href="#p"/><use transform="matrix(0.015190972222222219,0,0,0.015190972222222219,18.669704861111107,0)" xlink:href="#v"/><use transform="matrix(0.015190972222222219,0,0,0.015190972222222219,37.339409722222214,0)" xlink:href="#w"/><use transform="matrix(0.015190972222222219,0,0,0.015190972222222219,56.00911458333332,0)" xlink:href="#u"/><use transform="matrix(0.015190972222222219,0,0,0.015190972222222219,74.67881944444443,0)" xlink:href="#x"/><use transform="matrix(0.015190972222222219,0,0,0.015190972222222219,93.34852430555554,0)" xlink:href="#q"/></g><path fill="#3a414a" d="M1137-424C1137-153 941 0 662 0H135v-1462c284 7 685-30 837 88 80 62 124 152 124 282 0 179-125 297-291 316v10c221 36 332 150 332 342zm-232-655c0-182-120-224-319-224H322v461h284c195-2 299-53 299-237zM322-686v528h307c207 0 311-91 311-274 0-169-108-254-324-254H322" id="y"/><path fill="#3a414a" d="M383-553l135-152 395-393h222L641-623 1163 0H950L524-504l-129 82V0H215v-1556h180c-3 337 9 689-16 1003h4" id="z"/><g id="d"><use transform="matrix(0.015190972222222219,0,0,0.015190972222222219,0,0)" xlink:href="#y"/><use transform="matrix(0.015190972222222219,0,0,0.015190972222222219,18.669704861111107,0)" xlink:href="#q"/><use transform="matrix(0.015190972222222219,0,0,0.015190972222222219,37.339409722222214,0)" xlink:href="#r"/><use transform="matrix(0.015190972222222219,0,0,0.015190972222222219,56.00911458333332,0)" xlink:href="#z"/><use transform="matrix(0.015190972222222219,0,0,0.015190972222222219,74.67881944444443,0)" xlink:href="#t"/><use transform="matrix(0.015190972222222219,0,0,0.015190972222222219,93.34852430555554,0)" xlink:href="#q"/></g><path fill="#3a414a" d="M1198 0H987L537-698 397-584V0H211v-1462h186v731l121-168 453-563h209L659-825" id="A"/><path fill="#3a414a" d="M1092-551c0 322-136 571-430 571-138 0-245-53-322-159h-12c24 220 7 402 12 631H158v-1590h147l27 148h8c73-112 181-168 322-168 294 0 430 246 430 567zM629-967c-241 0-288 156-289 416 0 151 24 259 70 323s120 97 221 97c181 0 272-141 272-422 0-276-91-414-274-414" id="B"/><g id="e"><use transform="matrix(0.015190972222222219,0,0,0.015190972222222219,0,0)" xlink:href="#y"/><use transform="matrix(0.015190972222222219,0,0,0.015190972222222219,18.669704861111107,0)" xlink:href="#r"/><use transform="matrix(0.015190972222222219,0,0,0.015190972222222219,37.339409722222214,0)" xlink:href="#r"/><use transform="matrix(0.015190972222222219,0,0,0.015190972222222219,56.00911458333332,0)" xlink:href="#z"/><use transform="matrix(0.015190972222222219,0,0,0.015190972222222219,74.67881944444443,0)" xlink:href="#A"/><use transform="matrix(0.015190972222222219,0,0,0.015190972222222219,93.34852430555554,0)" xlink:href="#t"/><use transform="matrix(0.015190972222222219,0,0,0.015190972222222219,112.01822916666666,0)" xlink:href="#t"/><use transform="matrix(0.015190972222222219,0,0,0.015190972222222219,130.68793402777777,0)" xlink:href="#B"/><use transform="matrix(0.015190972222222219,0,0,0.015190972222222219,149.35763888888889,0)" xlink:href="#t"/><use transform="matrix(0.015190972222222219,0,0,0.015190972222222219,168.02734375,0)" xlink:href="#q"/></g><path fill="#3a414a" d="M532 0L254-1280h-8c34 456 12 817 18 1280H113v-1462h247L608-270h6l250-1192h252V0H963c5-467-12-807 14-1278h-8L686 0H532" id="C"/><path fill="#3a414a" d="M188-739c-1-248 156-381 410-379 57 0 107 7 150 20h378v113l-196 27c43 57 65 128 65 213 2 253-212 385-489 346-67 37-100 82-100 133 0 56 54 84 161 84h187c216-2 358 93 358 297 0 251-188 377-565 377-145 0-255-26-331-80S102 283 102 186c0-141 80-231 240-270-64-31-96-83-96-154 0-75 44-139 133-192-109-41-191-166-191-309zm406 221c149 0 223-77 223-230 0-159-75-239-225-239s-225 81-225 242c0 151 76 227 227 227zm346 649c0-146-78-149-248-149H504c-153 0-230 66-230 198 0 116 90 174 271 174 263 0 395-74 395-223" id="D"/><g id="f"><use transform="matrix(0.015190972222222219,0,0,0.015190972222222219,0,0)" xlink:href="#C"/><use transform="matrix(0.015190972222222219,0,0,0.015190972222222219,18.669704861111107,0)" xlink:href="#t"/><use transform="matrix(0.015190972222222219,0,0,0.015190972222222219,37.339409722222214,0)" xlink:href="#u"/><use transform="matrix(0.015190972222222219,0,0,0.015190972222222219,56.00911458333332,0)" xlink:href="#u"/><use transform="matrix(0.015190972222222219,0,0,0.015190972222222219,74.67881944444443,0)" xlink:href="#x"/><use transform="matrix(0.015190972222222219,0,0,0.015190972222222219,93.34852430555554,0)" xlink:href="#D"/><use transform="matrix(0.015190972222222219,0,0,0.015190972222222219,112.01822916666666,0)" xlink:href="#t"/></g><path fill="#3a414a" d="M758 0H582c3-449-8-824 8-1274-61 68-188 168-268 234l-97-123 383-299h150V0" id="E"/><use transform="matrix(0.015190972222222219,0,0,0.015190972222222219,0,0)" xlink:href="#E" id="g"/><path fill="#3a414a" d="M887 0v-707c0-173-79-260-238-260-205 0-307 133-307 398V0H160v-1098h147l27 148h10c69-112 181-168 336-168 259 0 389 134 389 401V0H887" id="F"/><path fill="#3a414a" d="M1020-150v138C933 9 849 20 768 20 527 20 406-95 406-324v-637H139v-94l267-49 77-287h105v293h438v137H588v637c0 130 64 195 192 195 62 0 142-7 240-21" id="G"/><g id="h"><use transform="matrix(0.015190972222222219,0,0,0.015190972222222219,0,0)" xlink:href="#u"/><use transform="matrix(0.015190972222222219,0,0,0.015190972222222219,18.669704861111107,0)" xlink:href="#t"/><use transform="matrix(0.015190972222222219,0,0,0.015190972222222219,37.339409722222214,0)" xlink:href="#F"/><use transform="matrix(0.015190972222222219,0,0,0.015190972222222219,56.00911458333332,0)" xlink:href="#G"/></g><path fill="#3a414a" d="M739-1436c0 71-43 115-106 115-71 0-107-38-107-115 0-76 36-114 107-114s106 38 106 114zM541-954l-269-21v-123h451v955l352 20V0H197v-123l344-20v-811" id="H"/><path fill="#3a414a" d="M137-547c0-322 136-571 430-571 137 0 245 53 322 160h12c-24-215-7-376-12-598h182V0H924l-27-147h-8C814-36 706 20 567 20c-294 0-430-246-430-567zm463 416c241 0 288-157 289-416 0-151-23-259-69-323s-121-97-222-97c-181 0-272 141-272 422 0 276 91 414 274 414" id="I"/><g id="i"><use transform="matrix(0.015190972222222219,0,0,0.015190972222222219,0,0)" xlink:href="#B"/><use transform="matrix(0.015190972222222219,0,0,0.015190972222222219,18.669704861111107,0)" xlink:href="#t"/><use transform="matrix(0.015190972222222219,0,0,0.015190972222222219,37.339409722222214,0)" xlink:href="#q"/><use transform="matrix(0.015190972222222219,0,0,0.015190972222222219,56.00911458333332,0)" xlink:href="#u"/><use transform="matrix(0.015190972222222219,0,0,0.015190972222222219,74.67881944444443,0)" xlink:href="#H"/><use transform="matrix(0.015190972222222219,0,0,0.015190972222222219,93.34852430555554,0)" xlink:href="#u"/><use transform="matrix(0.015190972222222219,0,0,0.015190972222222219,112.01822916666666,0)" xlink:href="#G"/><use transform="matrix(0.015190972222222219,0,0,0.015190972222222219,130.68793402777777,0)" xlink:href="#t"/><use transform="matrix(0.015190972222222219,0,0,0.015190972222222219,149.35763888888889,0)" xlink:href="#I"/></g><g id="j"><use transform="matrix(0.015190972222222219,0,0,0.015190972222222219,0,0)" xlink:href="#u"/><use transform="matrix(0.015190972222222219,0,0,0.015190972222222219,18.669704861111107,0)" xlink:href="#t"/><use transform="matrix(0.015190972222222219,0,0,0.015190972222222219,37.339409722222214,0)" xlink:href="#F"/><use transform="matrix(0.015190972222222219,0,0,0.015190972222222219,56.00911458333332,0)" xlink:href="#G"/></g><path fill="#3a414a" d="M739-1462h193c-299 251-449 548-449 893 0 347 149 645 447 893H739C443 89 295-208 295-567c0-355 148-653 444-895" id="J"/><path fill="#3a414a" d="M373-604V0H186v-1462h357c347 0 520 138 520 415 0 191-96 322-289 392L1171 0H952L602-604H373zm497-434c0-207-118-263-338-265H373v541h164c215-1 333-70 333-276" id="K"/><path fill="#3a414a" d="M82-1098h188l262 654c55 137 84 233 89 290h6c15-75 45-172 90-292l239-652h189L670 143c-45 116-99 201-156 261-87 92-259 104-414 71V330c92 17 226 18 286-29 67-53 115-195 153-291" id="L"/><path fill="#3a414a" d="M489 324H299C596 77 745-221 745-569c0-345-149-643-448-893h192c297 241 445 539 445 895 0 360-148 657-445 891" id="M"/><g id="k"><use transform="matrix(0.015190972222222219,0,0,0.015190972222222219,0,0)" xlink:href="#J"/><use transform="matrix(0.015190972222222219,0,0,0.015190972222222219,18.669704861111107,0)" xlink:href="#K"/><use transform="matrix(0.015190972222222219,0,0,0.015190972222222219,37.339409722222214,0)" xlink:href="#t"/><use transform="matrix(0.015190972222222219,0,0,0.015190972222222219,56.00911458333332,0)" xlink:href="#G"/><use transform="matrix(0.015190972222222219,0,0,0.015190972222222219,74.67881944444443,0)" xlink:href="#q"/><use transform="matrix(0.015190972222222219,0,0,0.015190972222222219,93.34852430555554,0)" xlink:href="#L"/><use transform="matrix(0.015190972222222219,0,0,0.015190972222222219,112.01822916666666,0)" xlink:href="#M"/></g><g id="l"><use transform="matrix(0.015190972222222219,0,0,0.015190972222222219,0,0)" xlink:href="#B"/><use transform="matrix(0.015190972222222219,0,0,0.015190972222222219,18.669704861111107,0)" xlink:href="#t"/><use transform="matrix(0.015190972222222219,0,0,0.015190972222222219,37.339409722222214,0)" xlink:href="#q"/><use transform="matrix(0.015190972222222219,0,0,0.015190972222222219,56.00911458333332,0)" xlink:href="#u"/><use transform="matrix(0.015190972222222219,0,0,0.015190972222222219,74.67881944444443,0)" xlink:href="#H"/><use transform="matrix(0.015190972222222219,0,0,0.015190972222222219,93.34852430555554,0)" xlink:href="#u"/><use transform="matrix(0.015190972222222219,0,0,0.015190972222222219,112.01822916666666,0)" xlink:href="#G"/><use transform="matrix(0.015190972222222219,0,0,0.015190972222222219,130.68793402777777,0)" xlink:href="#t"/><use transform="matrix(0.015190972222222219,0,0,0.015190972222222219,149.35763888888889,0)" xlink:href="#I"/></g><g id="m"><use transform="matrix(0.015190972222222219,0,0,0.015190972222222219,0,0)" xlink:href="#x"/><use transform="matrix(0.015190972222222219,0,0,0.015190972222222219,18.669704861111107,0)" xlink:href="#D"/><use transform="matrix(0.015190972222222219,0,0,0.015190972222222219,37.339409722222214,0)" xlink:href="#x"/><use transform="matrix(0.015190972222222219,0,0,0.015190972222222219,56.00911458333332,0)" xlink:href="#H"/><use transform="matrix(0.015190972222222219,0,0,0.015190972222222219,74.67881944444443,0)" xlink:href="#F"/></g><path fill="#979ea8" d="M1137-424C1137-153 941 0 662 0H135v-1462c284 7 685-30 837 88 80 62 124 152 124 282 0 179-125 297-291 316v10c221 36 332 150 332 342zm-232-655c0-182-120-224-319-224H322v461h284c195-2 299-53 299-237zM322-686v528h307c207 0 311-91 311-274 0-169-108-254-324-254H322" id="N"/><path fill="#979ea8" d="M1112-551c0 331-186 571-502 571-301 0-495-251-495-571 0-330 184-567 501-567 302 0 496 249 496 567zM614-131c207 0 310-140 310-420 0-277-104-416-312-416-206 0-309 139-309 416 0 280 104 420 311 420" id="O"/><path fill="#979ea8" d="M383-553l135-152 395-393h222L641-623 1163 0H950L524-504l-129 82V0H215v-1556h180c-3 337 9 689-16 1003h4" id="P"/><path fill="#979ea8" d="M1198 0H987L537-698 397-584V0H211v-1462h186v731l121-168 453-563h209L659-825" id="Q"/><path fill="#979ea8" d="M631-1118c283 0 470 204 465 491v113H322c5 250 120 375 344 375 130 0 253-25 370-76v160C925-5 804 20 672 20c-329 0-539-224-539-561 0-331 182-577 498-577zM326-662h573c0-203-91-305-272-305-183 0-284 102-301 305" id="R"/><path fill="#979ea8" d="M1092-551c0 322-136 571-430 571-138 0-245-53-322-159h-12c24 220 7 402 12 631H158v-1590h147l27 148h8c73-112 181-168 322-168 294 0 430 246 430 567zM629-967c-241 0-288 156-289 416 0 151 24 259 70 323s120 97 221 97c181 0 272-141 272-422 0-276-91-414-274-414" id="S"/><path fill="#979ea8" d="M442-897c93-139 173-221 377-221 79 0 159 15 240 45l-49 166c-82-30-157-45-224-45-221 0-340 134-340 360V0H264v-1098h148l22 201h8" id="T"/><g id="n"><use transform="matrix(0.015190972222222219,0,0,0.015190972222222219,0,0)" xlink:href="#N"/><use transform="matrix(0.015190972222222219,0,0,0.015190972222222219,18.669704861111107,0)" xlink:href="#O"/><use transform="matrix(0.015190972222222219,0,0,0.015190972222222219,37.339409722222214,0)" xlink:href="#O"/><use transform="matrix(0.015190972222222219,0,0,0.015190972222222219,56.00911458333332,0)" xlink:href="#P"/><use transform="matrix(0.015190972222222219,0,0,0.015190972222222219,74.67881944444443,0)" xlink:href="#Q"/><use transform="matrix(0.015190972222222219,0,0,0.015190972222222219,93.34852430555554,0)" xlink:href="#R"/><use transform="matrix(0.015190972222222219,0,0,0.015190972222222219,112.01822916666666,0)" xlink:href="#R"/><use transform="matrix(0.015190972222222219,0,0,0.015190972222222219,130.68793402777777,0)" xlink:href="#S"/><use transform="matrix(0.015190972222222219,0,0,0.015190972222222219,149.35763888888889,0)" xlink:href="#R"/><use transform="matrix(0.015190972222222219,0,0,0.015190972222222219,168.02734375,0)" xlink:href="#T"/></g><g id="o"><use transform="matrix(0.015190972222222219,0,0,0.015190972222222219,0,0)" xlink:href="#F"/><use transform="matrix(0.015190972222222219,0,0,0.015190972222222219,18.669704861111107,0)" xlink:href="#r"/><use transform="matrix(0.015190972222222219,0,0,0.015190972222222219,37.339409722222214,0)" xlink:href="#G"/></g></defs></g></svg>