<svg xmlns="http://www.w3.org/2000/svg" xmlns:xlink="http://www.w3.org/1999/xlink" xmlns:lucid="lucid" width="1760" height="720"><g transform="translate(0 -320)" lucid:page-tab-id="0_0"><path d="M20 346c0-3.3 2.7-6 6-6h1708c3.3 0 6 2.7 6 6v668c0 3.3-2.7 6-6 6H26c-3.3 0-6-2.7-6-6z" stroke="#ced4db" stroke-width="2" fill="#fff" filter="url(#a)"/><path d="M1248.56 566c0-3.3 2.7-6 6-6H1714c3.3 0 6 2.7 6 6v230c0 3.3-2.7 6-6 6h-459.44c-3.3 0-6-2.7-6-6z" stroke="#3a414a" fill="#dfe3e8"/><path d="M296 420c35.35 0 64 26.86 64 60s-28.65 60-64 60H104c-35.35 0-64-26.86-64-60s28.65-60 64-60z" stroke="#3a414a" stroke-width="3" fill="#fff"/><use xlink:href="#b" transform="matrix(1,0,0,1,45,425) translate(61.65147569444444 66.69053819444443)"/><use xlink:href="#c" transform="matrix(1,0,0,1,45,425) translate(229.67881944444446 66.69053819444443)"/><path d="M296 821c35.35 0 64 26.86 64 60s-28.65 60-64 60H104c-35.35 0-64-26.86-64-60s28.65-60 64-60z" stroke="#3a414a" stroke-width="3" fill="#fff"/><use xlink:href="#b" transform="matrix(1,0,0,1,45,826) translate(61.65147569444444 66.69053819444443)"/><use xlink:href="#d" transform="matrix(1,0,0,1,45,826) translate(229.67881944444446 66.69053819444443)"/><path d="M476 622c35.35 0 64 26.86 64 60s-28.65 60-64 60H284c-35.35 0-64-26.86-64-60s28.65-60 64-60z" stroke="#3a414a" stroke-width="3" fill="#d3e3fc"/><use xlink:href="#e" transform="matrix(1,0,0,1,225,627) translate(34.15191840277779 46.065538194444436)"/><use xlink:href="#f" transform="matrix(1,0,0,1,225,627) translate(164.83985243055554 46.065538194444436)"/><use xlink:href="#g" transform="matrix(1,0,0,1,225,627) translate(70.99132812500001 82.2808159722222)"/><path d="M1060 622c33.14 0 60 26.86 60 60s-26.86 60-60 60H880c-33.14 0-60-26.86-60-60s26.86-60 60-60z" stroke="#3a414a" stroke-width="2" fill="#d3e3fc"/><use xlink:href="#h" transform="matrix(1,0,0,1,825,627) translate(14.312065972222229 66.69053819444443)"/><use xlink:href="#i" transform="matrix(1,0,0,1,825,627) translate(257.0182291666667 66.69053819444443)"/><path d="M1480 628c0-3.3 2.7-6 6-6h208c3.3 0 6 2.7 6 6v108c0 3.3-2.7 6-6 6h-208c-3.3 0-6-2.7-6-6z" stroke="#3a414a" stroke-width="2" fill="#d3e3fc"/><use xlink:href="#j" transform="matrix(1,0,0,1,1492,634) translate(4.651475694444443 58.878038194444436)"/><use xlink:href="#i" transform="matrix(1,0,0,1,1492,634) translate(172.67881944444446 58.878038194444436)"/><path d="M200 543v32c0 3.3 2.7 6 6 6h168c3.3 0 6 2.7 6 6v12.88" stroke="#3a414a" stroke-width="3" fill="none"/><path d="M201.5 543.04h-3v-1.54h3z" stroke="#3a414a" stroke-width=".05" fill="#3a414a"/><path d="M380 615.65l-4.64-14.27h9.28z" stroke="#3a414a" stroke-width="3" fill="#3a414a"/><path d="M200 818v-30.5c0-3.3 2.7-6 6-6h168c3.3 0 6-2.7 6-6v-11.38" stroke="#3a414a" stroke-width="3" fill="none"/><path d="M201.5 819.5h-3v-1.54h3z" stroke="#3a414a" stroke-width=".05" fill="#3a414a"/><path d="M380 748.35l4.64 14.27h-9.28z" stroke="#3a414a" stroke-width="3" fill="#3a414a"/><path d="M1480 426c0-3.3 2.7-6 6-6h208c3.3 0 6 2.7 6 6v108c0 3.3-2.7 6-6 6h-208c-3.3 0-6-2.7-6-6z" stroke="#3a414a" stroke-width="2" fill="#fff"/><use xlink:href="#j" transform="matrix(1,0,0,1,1492,432) translate(4.651475694444443 58.878038194444436)"/><use xlink:href="#k" transform="matrix(1,0,0,1,1492,432) translate(172.67881944444446 58.878038194444436)"/><path d="M542.93 680h255.53" stroke="#3a414a" stroke-width="3" fill="none"/><path d="M542.97 681.5h-1.47l-.14-3h1.6z" stroke="#3a414a" stroke-width=".05" fill="#3a414a"/><path d="M814.23 680l-14.27 4.64v-9.28z" stroke="#3a414a" stroke-width="3" fill="#3a414a"/><path d="M1122.5 682h335.88" stroke="#3a414a" stroke-width="3" fill="none"/><path d="M1122.54 683.5h-1.6l.06-1.5-.05-1.5h1.6z" stroke="#3a414a" stroke-width=".05" fill="#3a414a"/><path d="M1474.15 682l-14.27 4.64v-9.28z" stroke="#3a414a" stroke-width="3" fill="#3a414a"/><path d="M526.63 705.3c0-3.32 2.7-6 6-6h48c3.3 0 6 2.68 6 6v28c0 3.3-2.7 6-6 6h-48c-3.3 0-6-2.7-6-6z" stroke="#979ea8" stroke-width="4" fill="#fff"/><path d="M529.8 702.48c.23-.35.7-.44 1.04-.22l24.4 15.9c.36.23.46.7.23 1.04-.22.35-.7.44-1.04.22l-24.4-15.9c-.35-.23-.45-.7-.22-1.04zM583.6 701.86c.22.35.12.8-.23 1.03l-25.94 16.43c-.35.22-.8.12-1.04-.23-.23-.35-.12-.8.23-1.04l25.93-16.44c.35-.22.82-.1 1.04.24z" stroke="#ced4db" stroke-width="1.5" fill="none"/><path d="M529.75 736.15c-.16-.23-.12-.54.1-.7l24.12-18.04c.22-.15.54-.1.7.1.17.23.12.55-.1.7l-24.12 18.05c-.22.16-.53.12-.7-.1zM558.68 716.95c.17-.2.5-.25.7-.1l23.92 18.47c.22.17.26.48.1.7-.18.22-.5.26-.7.1l-23.93-18.46c-.22-.17-.26-.5-.1-.7z" stroke="#ced4db" fill="none"/><path d="M606.6 704.77c0-3.32 2.68-6 6-6h48c3.3 0 6 2.68 6 6v28c0 3.3-2.7 6-6 6h-48c-3.32 0-6-2.7-6-6z" stroke="#979ea8" stroke-width="4" fill="#fff"/><path d="M609.77 701.95c.23-.35.7-.44 1.04-.22l24.42 15.9c.35.23.44.7.22 1.04-.23.35-.7.45-1.04.22L610 703c-.36-.24-.46-.7-.23-1.05zM663.56 701.33c.23.35.12.8-.23 1.03L637.4 718.8c-.36.22-.82.12-1.04-.23-.22-.35-.12-.8.23-1.03l25.93-16.45c.35-.23.8-.12 1.03.23z" stroke="#ced4db" stroke-width="1.5" fill="none"/><path d="M609.72 735.62c-.17-.22-.12-.54.1-.7l24.12-18.04c.22-.16.53-.12.7.1.16.22.12.54-.1.7l-24.12 18.04c-.22.16-.53.12-.7-.1zM638.65 716.43c.17-.22.48-.26.7-.1l23.9 18.46c.23.16.27.47.1.7-.17.2-.48.25-.7.08l-23.9-18.45c-.23-.17-.27-.5-.1-.7z" stroke="#ced4db" fill="none"/><path d="M686.53 704.77c0-3.32 2.68-6 6-6h48c3.3 0 6 2.68 6 6v28c0 3.3-2.7 6-6 6h-48c-3.32 0-6-2.7-6-6z" stroke="#979ea8" stroke-width="4" fill="#fff"/><path d="M689.7 701.95c.23-.35.7-.44 1.04-.22l24.4 15.9c.36.23.45.7.23 1.04-.23.35-.7.45-1.04.22l-24.4-15.9c-.36-.24-.45-.7-.23-1.05zM743.5 701.33c.22.35.1.8-.24 1.03l-25.93 16.44c-.35.22-.82.12-1.04-.23-.23-.35-.13-.8.22-1.03l25.94-16.45c.35-.23.8-.12 1.04.23z" stroke="#ced4db" stroke-width="1.5" fill="none"/><path d="M689.65 735.62c-.16-.22-.12-.54.1-.7l24.12-18.04c.22-.16.53-.12.7.1.16.22.12.54-.1.7l-24.12 18.04c-.22.16-.53.12-.7-.1zM718.58 716.43c.17-.22.48-.26.7-.1l23.9 18.46c.23.16.27.47.1.7-.16.2-.48.25-.7.08l-23.9-18.45c-.23-.17-.27-.5-.1-.7z" stroke="#ced4db" fill="none"/><path d="M686.53 748c0-3.3 2.68-6 6-6h48c3.3 0 6 2.7 6 6v48c0 3.3-2.7 6-6 6h-48c-3.32 0-6-2.7-6-6z" stroke="#000" stroke-opacity="0" fill="#fff" fill-opacity="0"/><use xlink:href="#l" transform="matrix(1,0,0,1,691.5272028855981,747) translate(6.330295138888893 35.128038194444436)"/><path d="M604.36 748c0-3.3 2.7-6 6-6h48c3.3 0 6 2.7 6 6v48c0 3.3-2.7 6-6 6h-48c-3.3 0-6-2.7-6-6z" stroke="#000" stroke-opacity="0" fill="#fff" fill-opacity="0"/><use xlink:href="#m" transform="matrix(1,0,0,1,609.359511675852,747) translate(6.330295138888893 35.128038194444436)"/><path d="M528.76 748c0-3.3 2.68-6 6-6h48c3.3 0 6 2.7 6 6v48c0 3.3-2.7 6-6 6h-48c-3.32 0-6-2.7-6-6z" stroke="#000" stroke-opacity="0" fill="#fff" fill-opacity="0"/><use xlink:href="#n" transform="matrix(1,0,0,1,533.7552764848807,747) translate(6.330295138888893 35.128038194444436)"/><path d="M1270.83 706.8c0-3.3 2.7-6 6-6h48c3.3 0 6 2.7 6 6v28c0 3.33-2.7 6-6 6h-48c-3.3 0-6-2.67-6-6z" stroke="#979ea8" stroke-width="4" fill="#fff"/><path d="M1274 704c.23-.35.7-.44 1.04-.22l24.4 15.9c.36.23.46.7.23 1.04-.22.35-.7.44-1.04.22l-24.4-15.9c-.35-.23-.45-.7-.22-1.04zM1327.8 703.38c.22.35.12.8-.23 1.03l-25.94 16.45c-.35.22-.8.12-1.04-.23-.23-.35-.12-.8.23-1.04l25.93-16.44c.35-.22.82-.1 1.04.24z" stroke="#ced4db" stroke-width="1.5" fill="none"/><path d="M1273.96 737.67c-.17-.23-.12-.54.1-.7l24.1-18.04c.23-.16.55-.12.7.1.18.22.13.54-.1.7l-24.1 18.04c-.23.16-.54.12-.7-.1zM1302.88 718.47c.17-.2.5-.25.7-.1l23.92 18.47c.22.17.26.48.1.7-.18.22-.5.26-.7.1l-23.93-18.46c-.22-.17-.26-.5-.1-.7z" stroke="#ced4db" fill="none"/><path d="M1430.73 706.3c0-3.33 2.68-6 6-6h48c3.3 0 6 2.67 6 6v28c0 3.3-2.7 6-6 6h-48c-3.32 0-6-2.7-6-6z" stroke="#979ea8" stroke-width="4" fill="#fff"/><path d="M1433.9 703.47c.23-.34.7-.44 1.04-.22l24.4 15.9c.36.23.46.7.23 1.04-.23.34-.7.44-1.04.2l-24.4-15.9c-.35-.22-.45-.68-.23-1.03zM1487.7 702.85c.22.35.1.8-.23 1.03l-25.94 16.44c-.35.22-.82.12-1.04-.23-.23-.36-.13-.82.22-1.04l25.94-16.45c.35-.2.82-.1 1.04.25z" stroke="#ced4db" stroke-width="1.5" fill="none"/><path d="M1433.85 737.14c-.16-.22-.12-.54.1-.7l24.12-18.04c.22-.16.53-.12.7.1.17.22.12.54-.1.7l-24.12 18.04c-.22.16-.53.12-.7-.1zM1462.78 717.95c.17-.22.48-.26.7-.1l23.9 18.46c.23.18.27.5.1.7-.16.23-.48.27-.7.1l-23.9-18.45c-.23-.17-.27-.5-.1-.7z" stroke="#ced4db" fill="none"/><path d="M1350.8 706.3c0-3.33 2.68-6 6-6h48c3.3 0 6 2.67 6 6v28c0 3.3-2.7 6-6 6h-48c-3.32 0-6-2.7-6-6z" stroke="#979ea8" stroke-width="4" fill="#fff"/><path d="M1353.97 703.47c.23-.34.7-.44 1.04-.22l24.42 15.9c.35.23.44.7.22 1.04-.23.34-.7.44-1.04.2l-24.4-15.9c-.36-.22-.45-.68-.23-1.03zM1407.77 702.85c.22.35.1.8-.24 1.03l-25.93 16.44c-.35.22-.82.12-1.04-.23-.22-.36-.12-.82.23-1.04l25.93-16.45c.35-.2.8-.1 1.04.25z" stroke="#ced4db" stroke-width="1.5" fill="none"/><path d="M1353.92 737.14c-.16-.22-.12-.54.1-.7l24.12-18.04c.22-.16.53-.12.7.1.16.22.12.54-.1.7l-24.12 18.04c-.22.16-.53.12-.7-.1zM1382.85 717.95c.17-.22.48-.26.7-.1l23.9 18.46c.23.18.27.5.1.7-.17.23-.48.27-.7.1l-23.9-18.45c-.23-.17-.27-.5-.1-.7z" stroke="#ced4db" fill="none"/><path d="M1430.73 749.52c0-3.3 2.68-6 6-6h48c3.3 0 6 2.7 6 6v48c0 3.3-2.7 6-6 6h-48c-3.32 0-6-2.7-6-6z" stroke="#000" stroke-opacity="0" fill="#fff" fill-opacity="0"/><g><use xlink:href="#l" transform="matrix(1,0,0,1,1435.7279417739128,748.5200638032684) translate(6.330295138888893 35.128038194444436)"/></g><path d="M1348.56 749.52c0-3.3 2.7-6 6-6h48c3.3 0 6 2.7 6 6v48c0 3.3-2.7 6-6 6h-48c-3.3 0-6-2.7-6-6z" stroke="#000" stroke-opacity="0" fill="#fff" fill-opacity="0"/><g><use xlink:href="#m" transform="matrix(1,0,0,1,1353.56025056421,748.5200638032684) translate(6.330295138888893 35.128038194444436)"/></g><path d="M1272.96 749.52c0-3.3 2.68-6 6-6h48c3.3 0 6 2.7 6 6v48c0 3.3-2.7 6-6 6h-48c-3.32 0-6-2.7-6-6z" stroke="#000" stroke-opacity="0" fill="#fff" fill-opacity="0"/><g><use xlink:href="#n" transform="matrix(1,0,0,1,1277.9560153731954,748.5200638032684) translate(6.330295138888893 35.128038194444436)"/></g><defs><filter id="a" filterUnits="objectBoundingBox" x="0" y="-.01" width="1.01" height="1.03"><feOffset result="offOut" in="SourceAlpha" dx="4.24" dy="4.24"/><feGaussianBlur result="blurOut" in="offOut" stdDeviation="5"/><feColorMatrix result="colorOut" in="blurOut" values="0 0 0 0 0 0 0 0 0 0 0 0 0 0 0 0 0 0 0.5019607843137255 0"/><feBlend in="SourceGraphic" in2="colorOut"/></filter><path fill="#3a414a" d="M1094-1034c0 310-213 470-541 465H362V0H176v-1462h404c343 0 514 143 514 428zM532-727c244-1 369-71 369-297 0-186-113-279-338-279H362v576h170" id="o"/><path fill="#3a414a" d="M442-897c93-139 173-221 377-221 79 0 159 15 240 45l-49 166c-82-30-157-45-224-45-221 0-340 134-340 360V0H264v-1098h148l22 201h8" id="p"/><path fill="#3a414a" d="M1112-551c0 331-186 571-502 571-301 0-495-251-495-571 0-330 184-567 501-567 302 0 496 249 496 567zM614-131c207 0 310-140 310-420 0-277-104-416-312-416-206 0-309 139-309 416 0 280 104 420 311 420" id="q"/><path fill="#3a414a" d="M137-547c0-322 136-571 430-571 137 0 245 53 322 160h12c-24-215-7-376-12-598h182V0H924l-27-147h-8C814-36 706 20 567 20c-294 0-430-246-430-567zm463 416c241 0 288-157 289-416 0-151-23-259-69-323s-121-97-222-97c-181 0-272 141-272 422 0 276 91 414 274 414" id="r"/><path fill="#3a414a" d="M578-131c239 0 309-137 309-397v-570h182V0H922l-27-147h-10C815-36 704 20 551 20c-261 0-391-134-391-401v-717h182v707c0 173 79 260 236 260" id="s"/><path fill="#3a414a" d="M172-543c0-365 197-575 553-575 119 0 231 20 336 59l-62 158c-100-38-189-57-268-57-247 0-371 138-371 413 0 271 120 406 361 406 105 0 212-21 321-62v160C953 0 843 20 713 20c-347 1-541-210-541-563" id="t"/><path fill="#3a414a" d="M631-1118c283 0 470 204 465 491v113H322c5 250 120 375 344 375 130 0 253-25 370-76v160C925-5 804 20 672 20c-329 0-539-224-539-561 0-331 182-577 498-577zM326-662h573c0-203-91-305-272-305-183 0-284 102-301 305" id="u"/><g id="b"><use transform="matrix(0.015190972222222219,0,0,0.015190972222222219,0,0)" xlink:href="#o"/><use transform="matrix(0.015190972222222219,0,0,0.015190972222222219,18.669704861111107,0)" xlink:href="#p"/><use transform="matrix(0.015190972222222219,0,0,0.015190972222222219,37.339409722222214,0)" xlink:href="#q"/><use transform="matrix(0.015190972222222219,0,0,0.015190972222222219,56.00911458333332,0)" xlink:href="#r"/><use transform="matrix(0.015190972222222219,0,0,0.015190972222222219,74.67881944444443,0)" xlink:href="#s"/><use transform="matrix(0.015190972222222219,0,0,0.015190972222222219,93.34852430555554,0)" xlink:href="#t"/><use transform="matrix(0.015190972222222219,0,0,0.015190972222222219,112.01822916666666,0)" xlink:href="#u"/><use transform="matrix(0.015190972222222219,0,0,0.015190972222222219,130.68793402777777,0)" xlink:href="#p"/></g><path fill="#3a414a" d="M758 0H582c3-449-8-824 8-1274-61 68-188 168-268 234l-97-123 383-299h150V0" id="v"/><use transform="matrix(0.015190972222222219,0,0,0.015190972222222219,0,0)" xlink:href="#v" id="c"/><path fill="#3a414a" d="M594-1483c248 0 420 149 418 391 0 79-21 160-59 244-73 161-414 504-572 674v8h688V0H158v-156c172-193 489-508 607-698 43-69 62-147 62-231 0-146-91-244-235-244-107 0-213 46-318 137l-102-119c128-115 269-172 422-172" id="w"/><use transform="matrix(0.015190972222222219,0,0,0.015190972222222219,0,0)" xlink:href="#w" id="d"/><path fill="#3a414a" d="M532-1413l-268-21v-122h451v1413l352 20V0H188v-123l344-20v-1270" id="x"/><path fill="#3a414a" d="M1026-301c0 225-197 321-448 321-165 0-290-23-375-69v-166c129 57 252 86 370 86 183 0 275-54 275-162 0-38-16-71-49-99s-108-63-226-106c-156-57-253-112-293-160s-61-105-61-171c2-338 524-340 789-217l-60 149c-121-48-228-72-319-72-157 0-236 44-236 133 0 41 17 74 51 98s111 57 232 101c141 51 234 101 280 151s70 111 70 183" id="y"/><path fill="#3a414a" d="M596-1118c288 2 430 92 430 366V0H895l-37-152h-8C752-34 680 17 483 20 272 23 135-98 135-307c0-221 170-337 510-348l203-7c15-197-55-305-244-305-98 0-207 27-328 82l-63-137c131-64 258-96 383-96zm-72 991c194 0 325-116 322-311v-99c-251 15-522-6-522 232 0 119 67 178 200 178" id="z"/><g id="e"><use transform="matrix(0.015190972222222219,0,0,0.015190972222222219,0,0)" xlink:href="#o"/><use transform="matrix(0.015190972222222219,0,0,0.015190972222222219,18.669704861111107,0)" xlink:href="#s"/><use transform="matrix(0.015190972222222219,0,0,0.015190972222222219,37.339409722222214,0)" xlink:href="#x"/><use transform="matrix(0.015190972222222219,0,0,0.015190972222222219,56.00911458333332,0)" xlink:href="#y"/><use transform="matrix(0.015190972222222219,0,0,0.015190972222222219,74.67881944444443,0)" xlink:href="#z"/><use transform="matrix(0.015190972222222219,0,0,0.015190972222222219,93.34852430555554,0)" xlink:href="#p"/></g><path fill="#3a414a" d="M1020-150v138C933 9 849 20 768 20 527 20 406-95 406-324v-637H139v-94l267-49 77-287h105v293h438v137H588v637c0 130 64 195 192 195 62 0 142-7 240-21" id="A"/><path fill="#3a414a" d="M1092-551c0 322-136 571-430 571-138 0-245-53-322-159h-12c24 220 7 402 12 631H158v-1590h147l27 148h8c73-112 181-168 322-168 294 0 430 246 430 567zM629-967c-241 0-288 156-289 416 0 151 24 259 70 323s120 97 221 97c181 0 272-141 272-422 0-276-91-414-274-414" id="B"/><path fill="#3a414a" d="M739-1436c0 71-43 115-106 115-71 0-107-38-107-115 0-76 36-114 107-114s106 38 106 114zM541-954l-269-21v-123h451v955l352 20V0H197v-123l344-20v-811" id="C"/><path fill="#3a414a" d="M1016-1462L389 0H211l627-1462h178" id="D"/><g id="f"><use transform="matrix(0.015190972222222219,0,0,0.015190972222222219,0,0)" xlink:href="#A"/><use transform="matrix(0.015190972222222219,0,0,0.015190972222222219,18.669704861111107,0)" xlink:href="#q"/><use transform="matrix(0.015190972222222219,0,0,0.015190972222222219,37.339409722222214,0)" xlink:href="#B"/><use transform="matrix(0.015190972222222219,0,0,0.015190972222222219,56.00911458333332,0)" xlink:href="#C"/><use transform="matrix(0.015190972222222219,0,0,0.015190972222222219,74.67881944444443,0)" xlink:href="#t"/><use transform="matrix(0.015190972222222219,0,0,0.015190972222222219,93.34852430555554,0)" xlink:href="#D"/></g><path fill="#3a414a" d="M887 0v-707c0-173-79-260-238-260-205 0-307 133-307 398V0H160v-1098h147l27 148h10c69-112 181-168 336-168 259 0 389 134 389 401V0H887" id="E"/><g id="g"><use transform="matrix(0.015190972222222219,0,0,0.015190972222222219,0,0)" xlink:href="#B"/><use transform="matrix(0.015190972222222219,0,0,0.015190972222222219,18.669704861111107,0)" xlink:href="#z"/><use transform="matrix(0.015190972222222219,0,0,0.015190972222222219,37.339409722222214,0)" xlink:href="#p"/><use transform="matrix(0.015190972222222219,0,0,0.015190972222222219,56.00911458333332,0)" xlink:href="#A"/><use transform="matrix(0.015190972222222219,0,0,0.015190972222222219,74.67881944444443,0)" xlink:href="#C"/><use transform="matrix(0.015190972222222219,0,0,0.015190972222222219,93.34852430555554,0)" xlink:href="#A"/><use transform="matrix(0.015190972222222219,0,0,0.015190972222222219,112.01822916666666,0)" xlink:href="#C"/><use transform="matrix(0.015190972222222219,0,0,0.015190972222222219,130.68793402777777,0)" xlink:href="#q"/><use transform="matrix(0.015190972222222219,0,0,0.015190972222222219,149.35763888888889,0)" xlink:href="#E"/></g><path fill="#3a414a" d="M1087-391c0 281-226 411-532 411-177 0-315-23-414-69v-178c141 57 279 86 414 86 233 0 350-80 350-240 0-69-24-123-71-160s-142-82-285-133c-139-49-239-106-299-174s-90-156-90-264c2-252 211-371 481-371 153 0 291 26 416 78l-64 164c-129-52-249-78-360-78-195 0-293 70-293 209 0 68 22 123 66 164s134 85 270 133c164 58 273 119 328 181s83 143 83 241" id="F"/><path fill="#3a414a" d="M1092-551c0 322-136 571-430 571-138 0-245-53-322-159h-12L291 0H158v-1556h182c-2 221 6 379-8 602h8c71-109 179-164 322-164 294 0 430 246 430 567zM629-967c-241 0-289 146-289 416 0 151 24 259 70 323s120 97 221 97c181 0 272-141 272-422 0-276-91-414-274-414" id="G"/><g id="h"><use transform="matrix(0.015190972222222219,0,0,0.015190972222222219,0,0)" xlink:href="#F"/><use transform="matrix(0.015190972222222219,0,0,0.015190972222222219,18.669704861111107,0)" xlink:href="#s"/><use transform="matrix(0.015190972222222219,0,0,0.015190972222222219,37.339409722222214,0)" xlink:href="#G"/><use transform="matrix(0.015190972222222219,0,0,0.015190972222222219,56.00911458333332,0)" xlink:href="#y"/><use transform="matrix(0.015190972222222219,0,0,0.015190972222222219,74.67881944444443,0)" xlink:href="#t"/><use transform="matrix(0.015190972222222219,0,0,0.015190972222222219,93.34852430555554,0)" xlink:href="#p"/><use transform="matrix(0.015190972222222219,0,0,0.015190972222222219,112.01822916666666,0)" xlink:href="#C"/><use transform="matrix(0.015190972222222219,0,0,0.015190972222222219,130.68793402777777,0)" xlink:href="#B"/><use transform="matrix(0.015190972222222219,0,0,0.015190972222222219,149.35763888888889,0)" xlink:href="#A"/><use transform="matrix(0.015190972222222219,0,0,0.015190972222222219,168.02734375,0)" xlink:href="#C"/><use transform="matrix(0.015190972222222219,0,0,0.015190972222222219,186.69704861111111,0)" xlink:href="#q"/><use transform="matrix(0.015190972222222219,0,0,0.015190972222222219,205.36675347222223,0)" xlink:href="#E"/></g><path fill="#3a414a" d="M1004 0L860-453H369L223 0H33l483-1468h195L1196 0h-192zM807-618c-63-210-144-435-195-650-51 232-127 431-190 650h385" id="H"/><use transform="matrix(0.015190972222222219,0,0,0.015190972222222219,0,0)" xlink:href="#H" id="i"/><path fill="#3a414a" d="M326-731c0 353 139 584 471 588 87 0 196-19 327-58v162c-97 39-217 59-358 59-433-1-637-301-637-753 0-438 243-750 668-750 147 0 274 29 383 86l-78 156c-103-52-204-78-305-78-307 1-471 259-471 588" id="I"/><path fill="#3a414a" d="M977 0v-707c0-97-9-165-27-203s-47-57-88-57c-58 0-100 28-126 83s-40 148-40 278V0H535v-707c0-173-42-260-125-260-56 0-96 26-120 79s-36 160-36 319V0H92v-1098h127l27 148h10c45-112 112-168 201-168 109 0 180 61 213 182h6c51-121 124-182 219-182 85 0 147 30 186 92s58 165 58 309V0H977" id="J"/><g id="j"><use transform="matrix(0.015190972222222219,0,0,0.015190972222222219,0,0)" xlink:href="#I"/><use transform="matrix(0.015190972222222219,0,0,0.015190972222222219,18.669704861111107,0)" xlink:href="#q"/><use transform="matrix(0.015190972222222219,0,0,0.015190972222222219,37.339409722222214,0)" xlink:href="#E"/><use transform="matrix(0.015190972222222219,0,0,0.015190972222222219,56.00911458333332,0)" xlink:href="#y"/><use transform="matrix(0.015190972222222219,0,0,0.015190972222222219,74.67881944444443,0)" xlink:href="#s"/><use transform="matrix(0.015190972222222219,0,0,0.015190972222222219,93.34852430555554,0)" xlink:href="#J"/><use transform="matrix(0.015190972222222219,0,0,0.015190972222222219,112.01822916666666,0)" xlink:href="#u"/><use transform="matrix(0.015190972222222219,0,0,0.015190972222222219,130.68793402777777,0)" xlink:href="#p"/></g><path fill="#3a414a" d="M1137-424C1137-153 941 0 662 0H135v-1462c284 7 685-30 837 88 80 62 124 152 124 282 0 179-125 297-291 316v10c221 36 332 150 332 342zm-232-655c0-182-120-224-319-224H322v461h284c195-2 299-53 299-237zM322-686v528h307c207 0 311-91 311-274 0-169-108-254-324-254H322" id="K"/><use transform="matrix(0.015190972222222219,0,0,0.015190972222222219,0,0)" xlink:href="#K" id="k"/><path fill="#3a414a" d="M532 0L254-1280h-8c34 456 12 817 18 1280H113v-1462h247L608-270h6l250-1192h252V0H963c5-467-12-807 14-1278h-8L686 0H532" id="L"/><path fill="#3a414a" d="M612 20c-153 0-268-65-347-194S147-489 147-733c0-501 155-752 465-752 155 0 271 64 350 193s119 316 119 559c0 502-156 753-469 753zm0-155c98 0 165-50 216-141 86-153 87-759 0-912-51-91-118-141-216-141-97 0-162 49-212 139-85 152-84 764 0 915 50 90 115 140 212 140" id="M"/><g id="l"><use transform="matrix(0.015190972222222219,0,0,0.015190972222222219,0,0)" xlink:href="#L"/><use transform="matrix(0.015190972222222219,0,0,0.015190972222222219,18.669704861111107,0)" xlink:href="#M"/></g><g id="m"><use transform="matrix(0.015190972222222219,0,0,0.015190972222222219,0,0)" xlink:href="#L"/><use transform="matrix(0.015190972222222219,0,0,0.015190972222222219,18.669704861111107,0)" xlink:href="#v"/></g><g id="n"><use transform="matrix(0.015190972222222219,0,0,0.015190972222222219,0,0)" xlink:href="#L"/><use transform="matrix(0.015190972222222219,0,0,0.015190972222222219,18.669704861111107,0)" xlink:href="#w"/></g></defs></g></svg>