<svg xmlns="http://www.w3.org/2000/svg" xmlns:xlink="http://www.w3.org/1999/xlink" xmlns:lucid="lucid" width="878.63" height="502.93"><g transform="translate(-318.6842944781893 -112.53319647060653)" lucid:page-tab-id="0_0"><path d="M0 0h6299.2v6299.2H0z" fill="#fff"/><path d="M338.68 138.53a6 6 0 0 1 6-6h276.24a6 6 0 0 1 6 6v211.05a6 6 0 0 1-6 6H344.68a6 6 0 0 1-6-6z" stroke="#000" stroke-opacity="0" stroke-width="3" fill="#6db1ff"/><use xlink:href="#a" transform="matrix(1,0,0,1,343.6842944781893,137.53319647060675) translate(18.28027343750003 114.45844184027777)"/><use xlink:href="#b" transform="matrix(1,0,0,1,343.6842944781893,137.53319647060675) translate(112.56228298611111 114.45844184027777)"/><use xlink:href="#c" transform="matrix(1,0,0,1,343.6842944781893,137.53319647060675) translate(206.8442925347222 114.45844184027777)"/><path d="M739.76 365.62c-4.44 0-7.68-1.32-9.36-4.08-3-4.68-.12-11.16 5.4-17.52-5.52-6.36-8.4-12.96-5.4-17.64 1.56-2.4 5.16-5.16 13.8-3.6l-.96 5.28c-4.2-.72-7.32-.24-8.28 1.32-1.08 1.68.48 5.88 4.68 10.68 3.12-3 6.96-5.88 10.8-8.28 4.56-2.88 9.24-5.16 13.68-6.84-1.92-5.28-4.32-8.28-6.24-8.28-1.8 0-3.96 2.64-5.64 6.84l-5.04-2.04c2.64-6.6 6.48-10.2 10.68-10.2 5.16 0 8.88 5.04 11.4 12.12.6-.24 1.32-.36 1.92-.48 7.2-1.44 12.48-.12 14.76 3.48 2.4 3.84 1.2 9.36-3.72 15.6l-4.2-3.36c3-3.96 4.44-7.68 3.36-9.24-.84-1.32-3.6-2.16-9.12-1.08-.48 0-1.08.12-1.56.36 1.08 4.8 1.68 10.2 1.68 15.48 0 5.16-.6 10.44-1.56 15.24 5.52 1.32 9.48.96 10.56-.72.84-1.32.36-4.68-3.72-9.72l4.2-3.36c5.16 6.36 6.6 12 4.08 15.96-1.8 2.88-5.16 4.08-9.24 4.08-2.28 0-4.8-.36-7.32-1.08-2.4 7.32-6.36 12.48-11.52 12.48-2.88 0-7.08-1.68-10.44-9.6l5.04-2.16c1.56 3.96 3.72 6.36 5.4 6.36 2.04 0 4.44-3.12 6.36-8.64-4.68-1.56-9.36-3.96-13.8-6.72-3.84-2.52-7.68-5.4-10.8-8.4-4.2 4.92-5.76 9-4.68 10.8.96 1.56 4.32 1.92 8.88 1.08l.96 5.4c-1.8.36-3.48.48-5.04.48zM818 344.14c0 5.16-3.6 9.48-8.4 10.56-4.08 20.64-20.4 37.08-41.16 41.4-1.2 4.56-5.4 8.04-10.44 8.04-5.04 0-9.24-3.48-10.44-8.04-6-1.2-11.76-3.36-16.92-6.6l2.76-4.68c4.44 2.64 9.12 4.56 14.04 5.64 1.32-4.68 5.52-8.16 10.56-8.16 5.04 0 9.24 3.48 10.56 8.16 17.64-4.08 31.68-18.24 35.52-35.88-4.56-1.32-7.92-5.52-7.92-10.44s3.36-9 7.8-10.44c-1.8-7.44-5.28-14.4-10.44-20.28l.12 6.12-5.4.12-.24-13.44c0-.72.24-1.44.72-1.92.6-.6 1.2-.84 1.92-.84l13.68-.24.12 5.52-7.68.12c6.36 6.96 10.8 15.36 12.72 24.6 4.92 1.2 8.52 5.52 8.52 10.68zm-95.52 31.44l.12-6.96 5.4.12-.24 13.68c0 .72-.24 1.32-.84 1.92-.48.48-1.2.72-1.8.72H725l-13.44-.24.12-5.4 6.96.12c-6.24-7.08-10.56-15.72-12.36-24.84-4.8-1.2-8.28-5.52-8.28-10.56 0-5.16 3.6-9.48 8.4-10.56 4.32-20.28 20.52-36.6 40.92-40.8 1.08-4.92 5.4-8.64 10.68-8.64 5.28 0 9.72 3.72 10.68 8.76 5.76 1.2 11.28 3.24 16.44 6.36l-2.88 4.68c-4.32-2.64-9-4.44-13.92-5.64-1.44 4.44-5.52 7.68-10.32 7.68-4.92 0-9-3.24-10.32-7.68-17.64 3.96-31.68 17.88-35.76 35.4 4.56 1.32 7.92 5.52 7.92 10.44 0 5.04-3.48 9.24-8.04 10.44 1.68 7.8 5.4 15 10.68 21zm30.84-39.24c-3.96 2.52-7.2 5.16-9.96 7.68 2.76 2.52 6 5.04 9.96 7.56 4.44 2.76 8.52 4.8 12.24 6.24.84-3.96 1.32-8.52 1.32-13.68 0-5.28-.48-9.96-1.32-13.92-3.96 1.44-8.16 3.6-12.24 6.12zm53.76 13.2c3 0 5.52-2.4 5.52-5.4 0-3-2.52-5.4-5.52-5.4-3 0-5.4 2.4-5.4 5.4 0 3 2.4 5.4 5.4 5.4zM758 398.74c3 0 5.4-2.52 5.4-5.52 0-3-2.4-5.4-5.4-5.4-3 0-5.4 2.4-5.4 5.4 0 3 2.4 5.52 5.4 5.52zm0-109.2c-3 0-5.4 2.52-5.4 5.52 0 3 2.4 5.4 5.4 5.4 3 0 5.4-2.4 5.4-5.4 0-3-2.4-5.52-5.4-5.52zm-54.6 54.6c0 3 2.52 5.4 5.52 5.4 3 0 5.4-2.4 5.4-5.4 0-3-2.4-5.4-5.4-5.4-3 0-5.52 2.4-5.52 5.4z" stroke="#000" stroke-opacity="0" fill="#4881b3"/><path d="M785.14 299.35l5.7 4.18 14.3 21.86L808.9 337l6.17 5.7-3.65 8.6-5.37 5.24-3.9 11.97-15.07 17.2-17.93 8.27-11.3 8.14-10.3-7.44-16.8-5.12-5.7-4.54-10.62-11.97-7.2-19.2-6.4-7.43.8-7.56 5.94-5.35 6.97-17.2 9.7-10.6 17.15-10.22 8.44-2.55 4.34-6.98 8.46-.1 6.5 7.9z" stroke="#000" stroke-opacity="0" fill-opacity="0"/><use xlink:href="#d" transform="matrix(1,0,0,1,668,413.1412416925816) translate(33.59082031250002 29.084309895833318)"/><use xlink:href="#e" transform="matrix(1,0,0,1,668,413.1412416925816) translate(52.39388020833335 76.50045572916663)"/><g stroke="#4881b3" stroke-width="3" fill="#f5fbff"><path d="M562.82 397.45a6 6 0 0 1 6 6v186.02a6 6 0 0 1-6 6h-164.8a6 6 0 0 1-6-6V403.45a6 6 0 0 1 6-6z"/><path d="M528.62 377.45a6 6 0 0 1 6 6v28a6 6 0 0 1-6 6h-8a6 6 0 0 1-6-6v-28a6 6 0 0 1 6-6zM440.22 377.45a6 6 0 0 1 6 6v28a6 6 0 0 1-6 6h-8a6 6 0 0 1-6-6v-28a6 6 0 0 1 6-6z"/></g><use xlink:href="#f" transform="matrix(1,-2.4492935982947064e-16,2.4492935982947064e-16,1,409.6974093009332,421.05566103097567) translate(16.9912109375 28.253320312499994)"/><use xlink:href="#g" transform="matrix(1,-2.4492935982947064e-16,2.4492935982947064e-16,1,409.6974093009332,421.05566103097567) translate(71 55.4923828125)"/><use xlink:href="#h" transform="matrix(1,-2.4492935982947064e-16,2.4492935982947064e-16,1,409.6974093009332,421.05566103097567) translate(43.99560546875 82.7314453125)"/><use xlink:href="#i" transform="matrix(1,-2.4492935982947064e-16,2.4492935982947064e-16,1,409.6974093009332,421.05566103097567) translate(6.189453125 109.97050781249999)"/><use xlink:href="#j" transform="matrix(1,-2.4492935982947064e-16,2.4492935982947064e-16,1,409.6974093009332,421.05566103097567) translate(11.59033203125 137.20957031249998)"/><use xlink:href="#k" transform="matrix(1,-2.4492935982947064e-16,2.4492935982947064e-16,1,409.6974093009332,421.05566103097567) translate(65.59912109375 137.20957031249998)"/><path d="M889.08 138.53a6 6 0 0 1 6-6h276.24a6 6 0 0 1 6 6v211.05a6 6 0 0 1-6 6H895.08a6 6 0 0 1-6-6z" stroke="#4881b3" stroke-width="3" fill="#fff"/><g><use xlink:href="#l" transform="matrix(1,0,0,1,894.0808320724741,137.53319647060653) translate(139.5 50.1455078125)"/><use xlink:href="#l" transform="matrix(1,0,0,1,894.0808320724741,137.53319647060653) translate(139.5 71.0986328125)"/><use xlink:href="#l" transform="matrix(1,0,0,1,894.0808320724741,137.53319647060653) translate(139.5 92.0517578125)"/><use xlink:href="#l" transform="matrix(1,0,0,1,894.0808320724741,137.53319647060653) translate(139.5 113.0048828125)"/><use xlink:href="#l" transform="matrix(1,0,0,1,894.0808320724741,137.53319647060653) translate(139.5 133.9580078125)"/><use xlink:href="#m" transform="matrix(1,0,0,1,894.0808320724741,137.53319647060653) translate(139.5 154.9111328125)"/><use xlink:href="#n" transform="matrix(1,0,0,1,894.0808320724741,137.53319647060653) translate(25.014702690972257 179.98969184027777)"/><use xlink:href="#o" transform="matrix(1,0,0,1,894.0808320724741,137.53319647060653) translate(119.29671223958334 179.98969184027777)"/><use xlink:href="#p" transform="matrix(1,0,0,1,894.0808320724741,137.53319647060653) translate(200.10986328124997 179.98969184027777)"/></g><g stroke="#4881b3" stroke-width="3" fill="#f5fbff"><path d="M1113.2 397.45a6 6 0 0 1 6 6v186.02a6 6 0 0 1-6 6H948.4a6 6 0 0 1-6-6V403.45a6 6 0 0 1 6-6z"/><path d="M1079 377.45a6 6 0 0 1 6 6v28a6 6 0 0 1-6 6h-8a6 6 0 0 1-6-6v-28a6 6 0 0 1 6-6zM990.6 377.45a6 6 0 0 1 6 6v28a6 6 0 0 1-6 6h-8a6 6 0 0 1-6-6v-28a6 6 0 0 1 6-6z"/></g><g><use xlink:href="#q" transform="matrix(1,-2.4492935982947064e-16,2.4492935982947064e-16,1,960.0939468952181,421.05566103097556) translate(38.5947265625 28.253320312499994)"/><use xlink:href="#r" transform="matrix(1,-2.4492935982947064e-16,2.4492935982947064e-16,1,960.0939468952181,421.05566103097556) translate(71 55.4923828125)"/><use xlink:href="#s" transform="matrix(1,-2.4492935982947064e-16,2.4492935982947064e-16,1,960.0939468952181,421.05566103097556) translate(16.9912109375 82.7314453125)"/><use xlink:href="#t" transform="matrix(1,-2.4492935982947064e-16,2.4492935982947064e-16,1,960.0939468952181,421.05566103097556) translate(38.5947265625 109.97050781249999)"/><use xlink:href="#u" transform="matrix(1,-2.4492935982947064e-16,2.4492935982947064e-16,1,960.0939468952181,421.05566103097556) translate(27.79296875 137.20957031249998)"/></g><path d="M889.08 138.53a6 6 0 0 1 6-6h276.24a6 6 0 0 1 6 6v211.05a6 6 0 0 1-6 6H895.08a6 6 0 0 1-6-6z" stroke="#fff" stroke-width="3" fill="#6db1ff"/><g><use xlink:href="#a" transform="matrix(1,0,0,1,894.0808320724741,137.53319647060675) translate(25.014702690972257 114.45844184027777)"/><use xlink:href="#v" transform="matrix(1,0,0,1,894.0808320724741,137.53319647060675) translate(119.29671223958334 114.45844184027777)"/><use xlink:href="#c" transform="matrix(1,0,0,1,894.0808320724741,137.53319647060675) translate(200.10986328124997 114.45844184027777)"/></g><defs><path fill="#fff" d="M1094-1034c0 310-213 470-541 465H362V0H176v-1462h404c343 0 514 143 514 428zM532-727c244-1 369-71 369-297 0-186-113-279-338-279H362v576h170" id="w"/><path fill="#fff" d="M578-131c239 0 309-137 309-397v-570h182V0H922l-27-147h-10C815-36 704 20 551 20c-261 0-391-134-391-401v-717h182v707c0 173 79 260 236 260" id="x"/><path fill="#fff" d="M532-1413l-268-21v-122h451v1413l352 20V0H188v-123l344-20v-1270" id="y"/><path fill="#fff" d="M1026-301c0 225-197 321-448 321-165 0-290-23-375-69v-166c129 57 252 86 370 86 183 0 275-54 275-162 0-38-16-71-49-99s-108-63-226-106c-156-57-253-112-293-160s-61-105-61-171c2-338 524-340 789-217l-60 149c-121-48-228-72-319-72-157 0-236 44-236 133 0 41 17 74 51 98s111 57 232 101c141 51 234 101 280 151s70 111 70 183" id="z"/><path fill="#fff" d="M596-1118c288 2 430 92 430 366V0H895l-37-152h-8C752-34 680 17 483 20 272 23 135-98 135-307c0-221 170-337 510-348l203-7c15-197-55-305-244-305-98 0-207 27-328 82l-63-137c131-64 258-96 383-96zm-72 991c194 0 325-116 322-311v-99c-251 15-522-6-522 232 0 119 67 178 200 178" id="A"/><path fill="#fff" d="M442-897c93-139 173-221 377-221 79 0 159 15 240 45l-49 166c-82-30-157-45-224-45-221 0-340 134-340 360V0H264v-1098h148l22 201h8" id="B"/><g id="a"><use transform="matrix(0.010959201388888885,0,0,0.010959201388888885,0,0)" xlink:href="#w"/><use transform="matrix(0.010959201388888885,0,0,0.010959201388888885,13.46885850694444,0)" xlink:href="#x"/><use transform="matrix(0.010959201388888885,0,0,0.010959201388888885,26.93771701388888,0)" xlink:href="#y"/><use transform="matrix(0.010959201388888885,0,0,0.010959201388888885,40.406575520833314,0)" xlink:href="#z"/><use transform="matrix(0.010959201388888885,0,0,0.010959201388888885,53.87543402777776,0)" xlink:href="#A"/><use transform="matrix(0.010959201388888885,0,0,0.010959201388888885,67.3442925347222,0)" xlink:href="#B"/></g><path fill="#fff" d="M326-731c0 353 139 584 471 588 87 0 196-19 327-58v162c-97 39-217 59-358 59-433-1-637-301-637-753 0-438 243-750 668-750 147 0 274 29 383 86l-78 156c-103-52-204-78-305-78-307 1-471 259-471 588" id="C"/><path fill="#fff" d="M739-1436c0 71-43 115-106 115-71 0-107-38-107-115 0-76 36-114 107-114s106 38 106 114zM541-954l-269-21v-123h451v955l352 20V0H197v-123l344-20v-811" id="D"/><path fill="#fff" d="M631-1118c283 0 470 204 465 491v113H322c5 250 120 375 344 375 130 0 253-25 370-76v160C925-5 804 20 672 20c-329 0-539-224-539-561 0-331 182-577 498-577zM326-662h573c0-203-91-305-272-305-183 0-284 102-301 305" id="E"/><path fill="#fff" d="M887 0v-707c0-173-79-260-238-260-205 0-307 133-307 398V0H160v-1098h147l27 148h10c69-112 181-168 336-168 259 0 389 134 389 401V0H887" id="F"/><path fill="#fff" d="M1020-150v138C933 9 849 20 768 20 527 20 406-95 406-324v-637H139v-94l267-49 77-287h105v293h438v137H588v637c0 130 64 195 192 195 62 0 142-7 240-21" id="G"/><g id="b"><use transform="matrix(0.010959201388888885,0,0,0.010959201388888885,0,0)" xlink:href="#C"/><use transform="matrix(0.010959201388888885,0,0,0.010959201388888885,13.46885850694444,0)" xlink:href="#y"/><use transform="matrix(0.010959201388888885,0,0,0.010959201388888885,26.93771701388888,0)" xlink:href="#D"/><use transform="matrix(0.010959201388888885,0,0,0.010959201388888885,40.406575520833314,0)" xlink:href="#E"/><use transform="matrix(0.010959201388888885,0,0,0.010959201388888885,53.87543402777776,0)" xlink:href="#F"/><use transform="matrix(0.010959201388888885,0,0,0.010959201388888885,67.3442925347222,0)" xlink:href="#G"/></g><path fill="#fff" d="M1004 0L860-453H369L223 0H33l483-1468h195L1196 0h-192zM807-618c-63-210-144-435-195-650-51 232-127 431-190 650h385" id="H"/><path fill="#fff" d="M1001 0H225v-123l295-20v-1176l-295-20v-123h776v123l-294 20v1176l294 20V0" id="I"/><g id="c"><use transform="matrix(0.010959201388888885,0,0,0.010959201388888885,0,0)" xlink:href="#H"/><use transform="matrix(0.010959201388888885,0,0,0.010959201388888885,13.46885850694444,0)" xlink:href="#w"/><use transform="matrix(0.010959201388888885,0,0,0.010959201388888885,26.93771701388888,0)" xlink:href="#I"/><use transform="matrix(0.010959201388888885,0,0,0.010959201388888885,40.406575520833314,0)" xlink:href="#z"/></g><path fill="#4881b3" d="M1094-1034c0 310-213 470-541 465H362V0H176v-1462h404c343 0 514 143 514 428zM532-727c244-1 369-71 369-297 0-186-113-279-338-279H362v576h170" id="J"/><path fill="#4881b3" d="M578-131c239 0 309-137 309-397v-570h182V0H922l-27-147h-10C815-36 704 20 551 20c-261 0-391-134-391-401v-717h182v707c0 173 79 260 236 260" id="K"/><path fill="#4881b3" d="M532-1413l-268-21v-122h451v1413l352 20V0H188v-123l344-20v-1270" id="L"/><path fill="#4881b3" d="M1026-301c0 225-197 321-448 321-165 0-290-23-375-69v-166c129 57 252 86 370 86 183 0 275-54 275-162 0-38-16-71-49-99s-108-63-226-106c-156-57-253-112-293-160s-61-105-61-171c2-338 524-340 789-217l-60 149c-121-48-228-72-319-72-157 0-236 44-236 133 0 41 17 74 51 98s111 57 232 101c141 51 234 101 280 151s70 111 70 183" id="M"/><path fill="#4881b3" d="M596-1118c288 2 430 92 430 366V0H895l-37-152h-8C752-34 680 17 483 20 272 23 135-98 135-307c0-221 170-337 510-348l203-7c15-197-55-305-244-305-98 0-207 27-328 82l-63-137c131-64 258-96 383-96zm-72 991c194 0 325-116 322-311v-99c-251 15-522-6-522 232 0 119 67 178 200 178" id="N"/><path fill="#4881b3" d="M442-897c93-139 173-221 377-221 79 0 159 15 240 45l-49 166c-82-30-157-45-224-45-221 0-340 134-340 360V0H264v-1098h148l22 201h8" id="O"/><g id="d"><use transform="matrix(0.01529947916666666,0,0,0.01529947916666666,0,0)" xlink:href="#J"/><use transform="matrix(0.01529947916666666,0,0,0.01529947916666666,18.803059895833325,0)" xlink:href="#K"/><use transform="matrix(0.01529947916666666,0,0,0.01529947916666666,37.60611979166665,0)" xlink:href="#L"/><use transform="matrix(0.01529947916666666,0,0,0.01529947916666666,56.40917968749997,0)" xlink:href="#M"/><use transform="matrix(0.01529947916666666,0,0,0.01529947916666666,75.2122395833333,0)" xlink:href="#N"/><use transform="matrix(0.01529947916666666,0,0,0.01529947916666666,94.01529947916663,0)" xlink:href="#O"/></g><path fill="#4881b3" d="M1004 0L860-453H369L223 0H33l483-1468h195L1196 0h-192zM807-618c-63-210-144-435-195-650-51 232-127 431-190 650h385" id="P"/><path fill="#4881b3" d="M1001 0H225v-123l295-20v-1176l-295-20v-123h776v123l-294 20v1176l294 20V0" id="Q"/><g id="e"><use transform="matrix(0.01529947916666666,0,0,0.01529947916666666,0,0)" xlink:href="#P"/><use transform="matrix(0.01529947916666666,0,0,0.01529947916666666,18.803059895833325,0)" xlink:href="#J"/><use transform="matrix(0.01529947916666666,0,0,0.01529947916666666,37.60611979166665,0)" xlink:href="#Q"/><use transform="matrix(0.01529947916666666,0,0,0.01529947916666666,56.40917968749997,0)" xlink:href="#M"/></g><path d="M1147-745C1147-274 901 1 436 0H135v-1462h342c429-3 670 280 670 717zm-825-558v1143h96c355 0 532-193 532-579 0-376-164-564-493-564H322" id="R"/><path d="M631-1118c283 0 470 204 465 491v113H322c5 250 120 375 344 375 130 0 253-25 370-76v160C925-5 804 20 672 20c-329 0-539-224-539-561 0-331 182-577 498-577zM326-662h573c0-203-91-305-272-305-183 0-284 102-301 305" id="S"/><path d="M498 0L82-1098h188l240 652c57 154 90 262 100 325h6c67-256 244-708 340-977h189L729 0H498" id="T"/><path d="M532-1413l-268-21v-122h451v1413l352 20V0H188v-123l344-20v-1270" id="U"/><path d="M1112-551c0 331-186 571-502 571-301 0-495-251-495-571 0-330 184-567 501-567 302 0 496 249 496 567zM614-131c207 0 310-140 310-420 0-277-104-416-312-416-206 0-309 139-309 416 0 280 104 420 311 420" id="V"/><path d="M1092-551c0 322-136 571-430 571-138 0-245-53-322-159h-12c24 220 7 402 12 631H158v-1590h147l27 148h8c73-112 181-168 322-168 294 0 430 246 430 567zM629-967c-241 0-288 156-289 416 0 151 24 259 70 323s120 97 221 97c181 0 272-141 272-422 0-276-91-414-274-414" id="W"/><path d="M442-897c93-139 173-221 377-221 79 0 159 15 240 45l-49 166c-82-30-157-45-224-45-221 0-340 134-340 360V0H264v-1098h148l22 201h8" id="X"/><path d="M1026-301c0 225-197 321-448 321-165 0-290-23-375-69v-166c129 57 252 86 370 86 183 0 275-54 275-162 0-38-16-71-49-99s-108-63-226-106c-156-57-253-112-293-160s-61-105-61-171c2-338 524-340 789-217l-60 149c-121-48-228-72-319-72-157 0-236 44-236 133 0 41 17 74 51 98s111 57 232 101c141 51 234 101 280 151s70 111 70 183" id="Y"/><g id="f"><use transform="matrix(0.0087890625,0,0,0.0087890625,0,0)" xlink:href="#R"/><use transform="matrix(0.0087890625,0,0,0.0087890625,10.8017578125,0)" xlink:href="#S"/><use transform="matrix(0.0087890625,0,0,0.0087890625,21.603515625,0)" xlink:href="#T"/><use transform="matrix(0.0087890625,0,0,0.0087890625,32.4052734375,0)" xlink:href="#S"/><use transform="matrix(0.0087890625,0,0,0.0087890625,43.20703125,0)" xlink:href="#U"/><use transform="matrix(0.0087890625,0,0,0.0087890625,54.0087890625,0)" xlink:href="#V"/><use transform="matrix(0.0087890625,0,0,0.0087890625,64.810546875,0)" xlink:href="#W"/><use transform="matrix(0.0087890625,0,0,0.0087890625,75.6123046875,0)" xlink:href="#S"/><use transform="matrix(0.0087890625,0,0,0.0087890625,86.4140625,0)" xlink:href="#X"/><use transform="matrix(0.0087890625,0,0,0.0087890625,97.2158203125,0)" xlink:href="#Y"/></g><path d="M1137-424C1137-153 941 0 662 0H135v-1462c284 7 685-30 837 88 80 62 124 152 124 282 0 179-125 297-291 316v10c221 36 332 150 332 342zm-232-655c0-182-120-224-319-224H322v461h284c195-2 299-53 299-237zM322-686v528h307c207 0 311-91 311-274 0-169-108-254-324-254H322" id="Z"/><path d="M578-131c239 0 309-137 309-397v-570h182V0H922l-27-147h-10C815-36 704 20 551 20c-261 0-391-134-391-401v-717h182v707c0 173 79 260 236 260" id="aa"/><path d="M739-1436c0 71-43 115-106 115-71 0-107-38-107-115 0-76 36-114 107-114s106 38 106 114zM541-954l-269-21v-123h451v955l352 20V0H197v-123l344-20v-811" id="ab"/><path d="M137-547c0-322 136-571 430-571 137 0 245 53 322 160h12c-24-215-7-376-12-598h182V0H924l-27-147h-8C814-36 706 20 567 20c-294 0-430-246-430-567zm463 416c241 0 288-157 289-416 0-151-23-259-69-323s-121-97-222-97c-181 0-272 141-272 422 0 276 91 414 274 414" id="ac"/><g id="h"><use transform="matrix(0.0087890625,0,0,0.0087890625,0,0)" xlink:href="#Z"/><use transform="matrix(0.0087890625,0,0,0.0087890625,10.8017578125,0)" xlink:href="#aa"/><use transform="matrix(0.0087890625,0,0,0.0087890625,21.603515625,0)" xlink:href="#ab"/><use transform="matrix(0.0087890625,0,0,0.0087890625,32.4052734375,0)" xlink:href="#U"/><use transform="matrix(0.0087890625,0,0,0.0087890625,43.20703125,0)" xlink:href="#ac"/></g><path d="M596-1118c288 2 430 92 430 366V0H895l-37-152h-8C752-34 680 17 483 20 272 23 135-98 135-307c0-221 170-337 510-348l203-7c15-197-55-305-244-305-98 0-207 27-328 82l-63-137c131-64 258-96 383-96zm-72 991c194 0 325-116 322-311v-99c-251 15-522-6-522 232 0 119 67 178 200 178" id="ad"/><path d="M172-543c0-365 197-575 553-575 119 0 231 20 336 59l-62 158c-100-38-189-57-268-57-247 0-371 138-371 413 0 271 120 406 361 406 105 0 212-21 321-62v160C953 0 843 20 713 20c-347 1-541-210-541-563" id="ae"/><path d="M1020-150v138C933 9 849 20 768 20 527 20 406-95 406-324v-637H139v-94l267-49 77-287h105v293h438v137H588v637c0 130 64 195 192 195 62 0 142-7 240-21" id="af"/><path d="M887 0v-707c0-173-79-260-238-260-205 0-307 133-307 398V0H160v-1098h147l27 148h10c69-112 181-168 336-168 259 0 389 134 389 401V0H887" id="ag"/><g id="i"><use transform="matrix(0.0087890625,0,0,0.0087890625,0,0)" xlink:href="#ad"/><use transform="matrix(0.0087890625,0,0,0.0087890625,10.8017578125,0)" xlink:href="#W"/><use transform="matrix(0.0087890625,0,0,0.0087890625,21.603515625,0)" xlink:href="#W"/><use transform="matrix(0.0087890625,0,0,0.0087890625,32.4052734375,0)" xlink:href="#U"/><use transform="matrix(0.0087890625,0,0,0.0087890625,43.20703125,0)" xlink:href="#ab"/><use transform="matrix(0.0087890625,0,0,0.0087890625,54.0087890625,0)" xlink:href="#ae"/><use transform="matrix(0.0087890625,0,0,0.0087890625,64.810546875,0)" xlink:href="#ad"/><use transform="matrix(0.0087890625,0,0,0.0087890625,75.6123046875,0)" xlink:href="#af"/><use transform="matrix(0.0087890625,0,0,0.0087890625,86.4140625,0)" xlink:href="#ab"/><use transform="matrix(0.0087890625,0,0,0.0087890625,97.2158203125,0)" xlink:href="#V"/><use transform="matrix(0.0087890625,0,0,0.0087890625,108.017578125,0)" xlink:href="#ag"/><use transform="matrix(0.0087890625,0,0,0.0087890625,118.8193359375,0)" xlink:href="#Y"/></g><path d="M813 0c-67-308-137-613-199-926h-6C551-608 477-306 408 0H219L-4-1098h162c53 313 118 604 155 936h6c53-329 132-625 201-936h193c63 300 147 629 194 936h6c45-366 103-603 162-936h158L1008 0H813" id="ah"/><path d="M887 0v-707c0-173-79-260-238-260-205 0-307 133-307 398V0H160v-1556h182c-2 202 6 416-8 606h10c69-112 181-168 336-168 259 0 389 134 389 401V0H887" id="ai"/><g id="j"><use transform="matrix(0.0087890625,0,0,0.0087890625,0,0)" xlink:href="#ah"/><use transform="matrix(0.0087890625,0,0,0.0087890625,10.8017578125,0)" xlink:href="#ab"/><use transform="matrix(0.0087890625,0,0,0.0087890625,21.603515625,0)" xlink:href="#af"/><use transform="matrix(0.0087890625,0,0,0.0087890625,32.4052734375,0)" xlink:href="#ai"/></g><path d="M1094-1034c0 310-213 470-541 465H362V0H176v-1462h404c343 0 514 143 514 428zM532-727c244-1 369-71 369-297 0-186-113-279-338-279H362v576h170" id="aj"/><g id="k"><use transform="matrix(0.0087890625,0,0,0.0087890625,0,0)" xlink:href="#aj"/><use transform="matrix(0.0087890625,0,0,0.0087890625,10.8017578125,0)" xlink:href="#aa"/><use transform="matrix(0.0087890625,0,0,0.0087890625,21.603515625,0)" xlink:href="#U"/><use transform="matrix(0.0087890625,0,0,0.0087890625,32.4052734375,0)" xlink:href="#Y"/><use transform="matrix(0.0087890625,0,0,0.0087890625,43.20703125,0)" xlink:href="#ad"/><use transform="matrix(0.0087890625,0,0,0.0087890625,54.0087890625,0)" xlink:href="#X"/></g><g id="n"><use transform="matrix(0.010959201388888885,0,0,0.010959201388888885,0,0)" xlink:href="#J"/><use transform="matrix(0.010959201388888885,0,0,0.010959201388888885,13.46885850694444,0)" xlink:href="#K"/><use transform="matrix(0.010959201388888885,0,0,0.010959201388888885,26.93771701388888,0)" xlink:href="#L"/><use transform="matrix(0.010959201388888885,0,0,0.010959201388888885,40.406575520833314,0)" xlink:href="#M"/><use transform="matrix(0.010959201388888885,0,0,0.010959201388888885,53.87543402777776,0)" xlink:href="#N"/><use transform="matrix(0.010959201388888885,0,0,0.010959201388888885,67.3442925347222,0)" xlink:href="#O"/></g><path fill="#4881b3" d="M137-547c0-322 136-571 430-571 137 0 245 53 322 160h12c-24-215-7-376-12-598h182V0H924l-27-147h-8C814-36 706 20 567 20c-294 0-430-246-430-567zm463 416c241 0 288-157 289-416 0-151-23-259-69-323s-121-97-222-97c-181 0-272 141-272 422 0 276 91 414 274 414" id="ak"/><path fill="#4881b3" d="M977 0v-707c0-97-9-165-27-203s-47-57-88-57c-58 0-100 28-126 83s-40 148-40 278V0H535v-707c0-173-42-260-125-260-56 0-96 26-120 79s-36 160-36 319V0H92v-1098h127l27 148h10c45-112 112-168 201-168 109 0 180 61 213 182h6c51-121 124-182 219-182 85 0 147 30 186 92s58 165 58 309V0H977" id="al"/><path fill="#4881b3" d="M739-1436c0 71-43 115-106 115-71 0-107-38-107-115 0-76 36-114 107-114s106 38 106 114zM541-954l-269-21v-123h451v955l352 20V0H197v-123l344-20v-811" id="am"/><path fill="#4881b3" d="M887 0v-707c0-173-79-260-238-260-205 0-307 133-307 398V0H160v-1098h147l27 148h10c69-112 181-168 336-168 259 0 389 134 389 401V0H887" id="an"/><g id="o"><use transform="matrix(0.010959201388888885,0,0,0.010959201388888885,0,0)" xlink:href="#P"/><use transform="matrix(0.010959201388888885,0,0,0.010959201388888885,13.46885850694444,0)" xlink:href="#ak"/><use transform="matrix(0.010959201388888885,0,0,0.010959201388888885,26.93771701388888,0)" xlink:href="#al"/><use transform="matrix(0.010959201388888885,0,0,0.010959201388888885,40.406575520833314,0)" xlink:href="#am"/><use transform="matrix(0.010959201388888885,0,0,0.010959201388888885,53.87543402777776,0)" xlink:href="#an"/></g><g id="p"><use transform="matrix(0.010959201388888885,0,0,0.010959201388888885,0,0)" xlink:href="#P"/><use transform="matrix(0.010959201388888885,0,0,0.010959201388888885,13.46885850694444,0)" xlink:href="#J"/><use transform="matrix(0.010959201388888885,0,0,0.010959201388888885,26.93771701388888,0)" xlink:href="#Q"/><use transform="matrix(0.010959201388888885,0,0,0.010959201388888885,40.406575520833314,0)" xlink:href="#M"/></g><path d="M616 20C261 20 84-232 84-735c0-500 178-750 534-750 171 0 301 65 392 195s137 316 137 557-46 426-138 557S786 20 616 20zm0-163c115 0 195-51 254-145 102-163 102-730-2-890-59-92-137-143-250-143-225 0-337 196-337 588 0 393 112 590 335 590" id="ao"/><g id="q"><use transform="matrix(0.0087890625,0,0,0.0087890625,0,0)" xlink:href="#R"/><use transform="matrix(0.0087890625,0,0,0.0087890625,10.8017578125,0)" xlink:href="#S"/><use transform="matrix(0.0087890625,0,0,0.0087890625,21.603515625,0)" xlink:href="#T"/><use transform="matrix(0.0087890625,0,0,0.0087890625,32.4052734375,0)" xlink:href="#ao"/><use transform="matrix(0.0087890625,0,0,0.0087890625,43.20703125,0)" xlink:href="#W"/><use transform="matrix(0.0087890625,0,0,0.0087890625,54.0087890625,0)" xlink:href="#Y"/></g><path d="M1004 0L860-453H369L223 0H33l483-1468h195L1196 0h-192zM807-618c-63-210-144-435-195-650-51 232-127 431-190 650h385" id="ap"/><path d="M977 0v-707c0-97-9-165-27-203s-47-57-88-57c-58 0-100 28-126 83s-40 148-40 278V0H535v-707c0-173-42-260-125-260-56 0-96 26-120 79s-36 160-36 319V0H92v-1098h127l27 148h10c45-112 112-168 201-168 109 0 180 61 213 182h6c51-121 124-182 219-182 85 0 147 30 186 92s58 165 58 309V0H977" id="aq"/><g id="s"><use transform="matrix(0.0087890625,0,0,0.0087890625,0,0)" xlink:href="#ap"/><use transform="matrix(0.0087890625,0,0,0.0087890625,10.8017578125,0)" xlink:href="#ac"/><use transform="matrix(0.0087890625,0,0,0.0087890625,21.603515625,0)" xlink:href="#aq"/><use transform="matrix(0.0087890625,0,0,0.0087890625,32.4052734375,0)" xlink:href="#ab"/><use transform="matrix(0.0087890625,0,0,0.0087890625,43.20703125,0)" xlink:href="#ag"/><use transform="matrix(0.0087890625,0,0,0.0087890625,54.0087890625,0)" xlink:href="#ab"/><use transform="matrix(0.0087890625,0,0,0.0087890625,64.810546875,0)" xlink:href="#Y"/><use transform="matrix(0.0087890625,0,0,0.0087890625,75.6123046875,0)" xlink:href="#af"/><use transform="matrix(0.0087890625,0,0,0.0087890625,86.4140625,0)" xlink:href="#S"/><use transform="matrix(0.0087890625,0,0,0.0087890625,97.2158203125,0)" xlink:href="#X"/></g><g id="t"><use transform="matrix(0.0087890625,0,0,0.0087890625,0,0)" xlink:href="#aj"/><use transform="matrix(0.0087890625,0,0,0.0087890625,10.8017578125,0)" xlink:href="#aa"/><use transform="matrix(0.0087890625,0,0,0.0087890625,21.603515625,0)" xlink:href="#U"/><use transform="matrix(0.0087890625,0,0,0.0087890625,32.4052734375,0)" xlink:href="#Y"/><use transform="matrix(0.0087890625,0,0,0.0087890625,43.20703125,0)" xlink:href="#ad"/><use transform="matrix(0.0087890625,0,0,0.0087890625,54.0087890625,0)" xlink:href="#X"/></g><path d="M326-731c0 353 139 584 471 588 87 0 196-19 327-58v162c-97 39-217 59-358 59-433-1-637-301-637-753 0-438 243-750 668-750 147 0 274 29 383 86l-78 156c-103-52-204-78-305-78-307 1-471 259-471 588" id="ar"/><g id="u"><use transform="matrix(0.0087890625,0,0,0.0087890625,0,0)" xlink:href="#ar"/><use transform="matrix(0.0087890625,0,0,0.0087890625,10.8017578125,0)" xlink:href="#U"/><use transform="matrix(0.0087890625,0,0,0.0087890625,21.603515625,0)" xlink:href="#aa"/><use transform="matrix(0.0087890625,0,0,0.0087890625,32.4052734375,0)" xlink:href="#Y"/><use transform="matrix(0.0087890625,0,0,0.0087890625,43.20703125,0)" xlink:href="#af"/><use transform="matrix(0.0087890625,0,0,0.0087890625,54.0087890625,0)" xlink:href="#S"/><use transform="matrix(0.0087890625,0,0,0.0087890625,64.810546875,0)" xlink:href="#X"/><use transform="matrix(0.0087890625,0,0,0.0087890625,75.6123046875,0)" xlink:href="#Y"/></g><path fill="#fff" d="M137-547c0-322 136-571 430-571 137 0 245 53 322 160h12c-24-215-7-376-12-598h182V0H924l-27-147h-8C814-36 706 20 567 20c-294 0-430-246-430-567zm463 416c241 0 288-157 289-416 0-151-23-259-69-323s-121-97-222-97c-181 0-272 141-272 422 0 276 91 414 274 414" id="as"/><path fill="#fff" d="M977 0v-707c0-97-9-165-27-203s-47-57-88-57c-58 0-100 28-126 83s-40 148-40 278V0H535v-707c0-173-42-260-125-260-56 0-96 26-120 79s-36 160-36 319V0H92v-1098h127l27 148h10c45-112 112-168 201-168 109 0 180 61 213 182h6c51-121 124-182 219-182 85 0 147 30 186 92s58 165 58 309V0H977" id="at"/><g id="v"><use transform="matrix(0.010959201388888885,0,0,0.010959201388888885,0,0)" xlink:href="#H"/><use transform="matrix(0.010959201388888885,0,0,0.010959201388888885,13.46885850694444,0)" xlink:href="#as"/><use transform="matrix(0.010959201388888885,0,0,0.010959201388888885,26.93771701388888,0)" xlink:href="#at"/><use transform="matrix(0.010959201388888885,0,0,0.010959201388888885,40.406575520833314,0)" xlink:href="#D"/><use transform="matrix(0.010959201388888885,0,0,0.010959201388888885,53.87543402777776,0)" xlink:href="#F"/></g></defs></g></svg>