<svg xmlns="http://www.w3.org/2000/svg" xmlns:xlink="http://www.w3.org/1999/xlink" xmlns:lucid="lucid" width="1577.97" height="524.64"><g transform="translate(-105.51790922985217 891.6270829614556)" lucid:page-tab-id="0_0"><path d="M0-1258.83h1870.87V64H0z" fill="#fff"/><path d="M125.52-770.7a6 6 0 0 1 6-6h385.9a6 6 0 0 1 6 6v299.88a6 6 0 0 1-6 6H131.5a6 6 0 0 1-6-6z" stroke="#5e5e5e" stroke-width="2" fill="#fff"/><use xlink:href="#a" transform="matrix(1,0,0,1,130.51790922985217,-771.7049654493294) translate(194 32.12738715277777)"/><use xlink:href="#b" transform="matrix(1,0,0,1,130.51790922985217,-771.7049654493294) translate(194 60.58224826388887)"/><use xlink:href="#b" transform="matrix(1,0,0,1,130.51790922985217,-771.7049654493294) translate(194 89.03710937499997)"/><use xlink:href="#b" transform="matrix(1,0,0,1,130.51790922985217,-771.7049654493294) translate(194 117.49197048611107)"/><use xlink:href="#b" transform="matrix(1,0,0,1,130.51790922985217,-771.7049654493294) translate(194 145.94683159722217)"/><use xlink:href="#b" transform="matrix(1,0,0,1,130.51790922985217,-771.7049654493294) translate(194 174.4016927083333)"/><use xlink:href="#b" transform="matrix(1,0,0,1,130.51790922985217,-771.7049654493294) translate(194 202.8565538194444)"/><use xlink:href="#b" transform="matrix(1,0,0,1,130.51790922985217,-771.7049654493294) translate(194 231.31141493055551)"/><use xlink:href="#b" transform="matrix(1,0,0,1,130.51790922985217,-771.7049654493294) translate(194 259.76627604166663)"/><use xlink:href="#c" transform="matrix(1,0,0,1,130.51790922985217,-771.7049654493294) translate(10.636827256944514 288.2211371527777)"/><use xlink:href="#d" transform="matrix(1,0,0,1,130.51790922985217,-771.7049654493294) translate(304.01790364583326 288.2211371527777)"/><path d="M566.88-770.7a6 6 0 0 1 6-6h385.9a6 6 0 0 1 6 6v299.88a6 6 0 0 1-6 6h-385.9a6 6 0 0 1-6-6z" stroke="#5e5e5e" stroke-width="2" fill="#fff"/><use xlink:href="#a" transform="matrix(1,0,0,1,571.8841557284071,-771.7049654493295) translate(194 32.12738715277777)"/><use xlink:href="#b" transform="matrix(1,0,0,1,571.8841557284071,-771.7049654493295) translate(194 60.58224826388887)"/><use xlink:href="#b" transform="matrix(1,0,0,1,571.8841557284071,-771.7049654493295) translate(194 89.03710937499997)"/><use xlink:href="#b" transform="matrix(1,0,0,1,571.8841557284071,-771.7049654493295) translate(194 117.49197048611107)"/><use xlink:href="#b" transform="matrix(1,0,0,1,571.8841557284071,-771.7049654493295) translate(194 145.94683159722217)"/><use xlink:href="#b" transform="matrix(1,0,0,1,571.8841557284071,-771.7049654493295) translate(194 174.4016927083333)"/><use xlink:href="#b" transform="matrix(1,0,0,1,571.8841557284071,-771.7049654493295) translate(194 202.8565538194444)"/><use xlink:href="#b" transform="matrix(1,0,0,1,571.8841557284071,-771.7049654493295) translate(194 231.31141493055551)"/><use xlink:href="#b" transform="matrix(1,0,0,1,571.8841557284071,-771.7049654493295) translate(194 259.76627604166663)"/><use xlink:href="#c" transform="matrix(1,0,0,1,571.8841557284071,-771.7049654493295) translate(10.636827256944514 288.2211371527777)"/><use xlink:href="#e" transform="matrix(1,0,0,1,571.8841557284071,-771.7049654493295) translate(304.01790364583326 288.2211371527777)"/><path d="M909.25-745.25c17.34 0 31.4 15 31.4 33.53 0 18.52-14.06 33.53-31.4 33.53h-94.2c-17.34 0-31.4-15-31.4-33.52 0-18.52 14.06-33.53 31.4-33.53z" stroke="#188fff" stroke-width="4" fill-opacity="0"/><use xlink:href="#f" transform="matrix(1,0,0,1,788.654463851612,-740.2506677104702) translate(26.358995225694457 35.33344184027777)"/><path d="M726.2-589.92c17.34 0 31.4 15.02 31.4 33.53 0 18.53-14.06 33.54-31.4 33.54H632c-17.34 0-31.4-15-31.4-33.53 0-18.5 14.06-33.52 31.4-33.52z" stroke="#188fff" stroke-width="4" fill="#188fff"/><use xlink:href="#g" transform="matrix(1,0,0,1,605.5991401997587,-584.9161476211848) translate(26.358995225694457 35.33344184027777)"/><path d="M1008.25-770.7a6 6 0 0 1 6-6h201.87a6 6 0 0 1 6 6v299.88a6 6 0 0 1-6 6h-201.87a6 6 0 0 1-6-6z" stroke="#5e5e5e" stroke-width="2" fill="#ced4db"/><use xlink:href="#a" transform="matrix(1,0,0,1,1013.2504022269623,-771.7049654493294) translate(204 32.12738715277777)"/><use xlink:href="#b" transform="matrix(1,0,0,1,1013.2504022269623,-771.7049654493294) translate(204 60.58224826388887)"/><use xlink:href="#b" transform="matrix(1,0,0,1,1013.2504022269623,-771.7049654493294) translate(204 89.03710937499997)"/><use xlink:href="#b" transform="matrix(1,0,0,1,1013.2504022269623,-771.7049654493294) translate(204 117.49197048611107)"/><use xlink:href="#b" transform="matrix(1,0,0,1,1013.2504022269623,-771.7049654493294) translate(204 145.94683159722217)"/><use xlink:href="#b" transform="matrix(1,0,0,1,1013.2504022269623,-771.7049654493294) translate(204 174.4016927083333)"/><use xlink:href="#b" transform="matrix(1,0,0,1,1013.2504022269623,-771.7049654493294) translate(204 202.8565538194444)"/><use xlink:href="#b" transform="matrix(1,0,0,1,1013.2504022269623,-771.7049654493294) translate(204 231.31141493055551)"/><use xlink:href="#h" transform="matrix(1,0,0,1,1013.2504022269623,-771.7049654493294) translate(204 259.76627604166663)"/><use xlink:href="#i" transform="matrix(1,0,0,1,1013.2504022269623,-771.7049654493294) translate(130.6547309027778 288.2211371527777)"/><path d="M1161.16-589.92c17.35 0 31.4 15.02 31.4 33.53 0 18.53-14.05 33.54-31.4 33.54h-94.2c-17.34 0-31.4-15-31.4-33.53 0-18.5 14.06-33.52 31.4-33.52z" stroke="#6f7681" stroke-width="4" fill="#ced4db"/><use xlink:href="#j" transform="matrix(1,0,0,1,1040.5662285574936,-584.9161476211848) translate(26.358995225694457 35.33344184027777)"/><path d="M1265.6-770.7a6 6 0 0 1 6-6h385.88a6 6 0 0 1 6 6v299.88a6 6 0 0 1-6 6h-385.9a6 6 0 0 1-6-6z" stroke="#5e5e5e" stroke-width="2" fill="#ced4db"/><use xlink:href="#a" transform="matrix(1,0,0,1,1270.5942397619315,-771.7049654493294) translate(388 32.12738715277777)"/><use xlink:href="#b" transform="matrix(1,0,0,1,1270.5942397619315,-771.7049654493294) translate(388 60.58224826388887)"/><use xlink:href="#b" transform="matrix(1,0,0,1,1270.5942397619315,-771.7049654493294) translate(388 89.03710937499997)"/><use xlink:href="#b" transform="matrix(1,0,0,1,1270.5942397619315,-771.7049654493294) translate(388 117.49197048611107)"/><use xlink:href="#b" transform="matrix(1,0,0,1,1270.5942397619315,-771.7049654493294) translate(388 145.94683159722217)"/><use xlink:href="#b" transform="matrix(1,0,0,1,1270.5942397619315,-771.7049654493294) translate(388 174.4016927083333)"/><use xlink:href="#b" transform="matrix(1,0,0,1,1270.5942397619315,-771.7049654493294) translate(388 202.8565538194444)"/><use xlink:href="#b" transform="matrix(1,0,0,1,1270.5942397619315,-771.7049654493294) translate(388 231.31141493055551)"/><use xlink:href="#b" transform="matrix(1,0,0,1,1270.5942397619315,-771.7049654493294) translate(388 259.76627604166663)"/><use xlink:href="#k" transform="matrix(1,0,0,1,1270.5942397619315,-771.7049654493294) translate(314.6547309027778 288.2211371527777)"/><path d="M1418.5-745.25c17.35 0 31.4 15 31.4 33.53 0 18.52-14.05 33.53-31.4 33.53h-94.2c-17.33 0-31.4-15-31.4-33.52 0-18.52 14.07-33.53 31.4-33.53z" stroke="#6f7681" stroke-width="4" fill="#ced4db"/><g><use xlink:href="#l" transform="matrix(1,0,0,1,1297.9100660924637,-740.2506677104702) translate(19.624565972222236 35.33344184027777)"/></g><path d="M1607.96-745.25c17.34 0 31.4 15 31.4 33.53 0 18.52-14.06 33.53-31.4 33.53h-94.2c-17.34 0-31.4-15-31.4-33.52 0-18.52 14.06-33.53 31.4-33.53z" stroke="#6f7681" stroke-width="4" fill="#ced4db"/><g><use xlink:href="#m" transform="matrix(1,0,0,1,1487.3645478851363,-740.2506677104702) translate(19.624565972222236 35.33344184027777)"/></g><path d="M1607.96-589.92c17.34 0 31.4 15.02 31.4 33.53 0 18.53-14.06 33.54-31.4 33.54h-94.2c-17.34 0-31.4-15-31.4-33.53 0-18.5 14.06-33.52 31.4-33.52z" stroke="#6f7681" stroke-width="4" fill="#ced4db"/><g><use xlink:href="#n" transform="matrix(1,0,0,1,1487.3645478851363,-584.9161476211843) translate(19.624565972222236 35.33344184027777)"/></g><path d="M278.43-585.92c17.34 0 31.4 15.02 31.4 33.53 0 18.53-14.06 33.54-31.4 33.54h-94.2c-17.34 0-31.4-15-31.4-33.53 0-18.5 14.06-33.52 31.4-33.52z" stroke="#188fff" stroke-width="4" fill="#fff"/><g><use xlink:href="#o" transform="matrix(1,0,0,1,157.83373556038435,-580.9161476211843) translate(26.358995225694457 35.33344184027777)"/></g><path d="M1162.28-745.25c17.34 0 31.4 15 31.4 33.53 0 18.52-14.06 33.53-31.4 33.53h-94.2c-17.34 0-31.4-15-31.4-33.52 0-18.52 14.06-33.53 31.4-33.53z" stroke="#6f7681" stroke-width="4" fill="#ced4db"/><g><use xlink:href="#p" transform="matrix(1,0,0,1,1041.685276176542,-740.2506677104702) translate(26.358995225694457 35.33344184027777)"/></g><path d="M1418.5-589.92c17.35 0 31.4 15.02 31.4 33.53 0 18.53-14.05 33.54-31.4 33.54h-94.2c-17.33 0-31.4-15-31.4-33.53 0-18.5 14.07-33.52 31.4-33.52z" stroke="#6f7681" stroke-width="4" fill="#ced4db"/><g><use xlink:href="#q" transform="matrix(1,0,0,1,1297.910066092464,-584.9161476211848) translate(19.624565972222236 35.33344184027777)"/></g><path d="M139.82-865.63a6 6 0 0 1 6-6h611.02a6 6 0 0 1 6 6v192a6 6 0 0 1-6 6H145.82a6 6 0 0 1-6-6z" fill-opacity="0"/><path d="M141.32-865.63c0 .83-.67 1.5-1.5 1.5s-1.5-.67-1.5-1.5.67-1.5 1.5-1.5 1.5.67 1.5 1.5zm5.06-5.92c0 .83-.67 1.5-1.5 1.5s-1.5-.67-1.5-1.5.67-1.5 1.5-1.5 1.5.67 1.5 1.5zm6 0c0 .82-.67 1.5-1.5 1.5s-1.5-.68-1.5-1.5c0-.83.67-1.5 1.5-1.5s1.5.67 1.5 1.5zm6 0c0 .82-.67 1.5-1.5 1.5s-1.5-.68-1.5-1.5c0-.83.67-1.5 1.5-1.5s1.5.67 1.5 1.5zm6 0c0 .82-.67 1.5-1.5 1.5s-1.5-.68-1.5-1.5c0-.83.67-1.5 1.5-1.5s1.5.67 1.5 1.5zm6 0c0 .82-.67 1.5-1.5 1.5s-1.5-.68-1.5-1.5c0-.83.67-1.5 1.5-1.5s1.5.67 1.5 1.5zm6 0c0 .82-.67 1.5-1.5 1.5s-1.5-.68-1.5-1.5c0-.84.67-1.5 1.5-1.5s1.5.66 1.5 1.5zm6 0c0 .82-.68 1.5-1.5 1.5-.83 0-1.5-.68-1.5-1.5 0-.84.67-1.5 1.5-1.5.82 0 1.5.66 1.5 1.5zm6 0c0 .82-.68 1.5-1.5 1.5-.83 0-1.5-.68-1.5-1.5 0-.84.67-1.5 1.5-1.5.82 0 1.5.66 1.5 1.5zm6 0c0 .82-.68 1.5-1.5 1.5-.83 0-1.5-.68-1.5-1.5 0-.84.67-1.5 1.5-1.5.82 0 1.5.66 1.5 1.5zm6 0c0 .82-.68 1.5-1.5 1.5-.83 0-1.5-.68-1.5-1.5 0-.84.67-1.5 1.5-1.5.82 0 1.5.66 1.5 1.5zm6 0c0 .82-.68 1.5-1.5 1.5-.83 0-1.5-.68-1.5-1.5 0-.84.67-1.5 1.5-1.5.82 0 1.5.66 1.5 1.5zm6 0c0 .82-.68 1.5-1.5 1.5-.83 0-1.5-.68-1.5-1.5 0-.84.67-1.5 1.5-1.5.82 0 1.5.66 1.5 1.5zm6 0c0 .82-.68 1.5-1.5 1.5-.83 0-1.5-.68-1.5-1.5 0-.84.67-1.5 1.5-1.5.82 0 1.5.66 1.5 1.5zm6 0c0 .82-.68 1.5-1.5 1.5-.83 0-1.5-.68-1.5-1.5 0-.84.67-1.5 1.5-1.5.82 0 1.5.66 1.5 1.5zm6 0c0 .82-.68 1.5-1.5 1.5-.83 0-1.5-.68-1.5-1.5 0-.84.67-1.5 1.5-1.5.82 0 1.5.66 1.5 1.5zm6 0c0 .8-.68 1.5-1.5 1.5-.84 0-1.5-.7-1.5-1.5 0-.84.66-1.5 1.5-1.5.82 0 1.5.66 1.5 1.5zm6 0c0 .8-.68 1.5-1.5 1.5-.84 0-1.5-.7-1.5-1.5 0-.84.66-1.5 1.5-1.5.82 0 1.5.66 1.5 1.5zm6-.02c0 .83-.68 1.5-1.5 1.5-.84 0-1.5-.67-1.5-1.5 0-.82.66-1.5 1.5-1.5.82 0 1.5.68 1.5 1.5zm6 0c0 .83-.68 1.5-1.5 1.5-.84 0-1.5-.67-1.5-1.5 0-.82.66-1.5 1.5-1.5.82 0 1.5.68 1.5 1.5zm6 0c0 .83-.68 1.5-1.5 1.5-.84 0-1.5-.67-1.5-1.5s.66-1.5 1.5-1.5c.82 0 1.5.67 1.5 1.5zm6 0c0 .83-.68 1.5-1.5 1.5-.84 0-1.5-.67-1.5-1.5s.66-1.5 1.5-1.5c.82 0 1.5.67 1.5 1.5zm6 0c0 .83-.68 1.5-1.5 1.5-.84 0-1.5-.67-1.5-1.5s.66-1.5 1.5-1.5c.82 0 1.5.67 1.5 1.5zm6 0c0 .83-.68 1.5-1.5 1.5-.84 0-1.5-.67-1.5-1.5s.66-1.5 1.5-1.5c.82 0 1.5.67 1.5 1.5zm6 0c0 .83-.68 1.5-1.5 1.5-.84 0-1.5-.67-1.5-1.5s.66-1.5 1.5-1.5c.82 0 1.5.67 1.5 1.5zm6 0c0 .83-.68 1.5-1.5 1.5-.84 0-1.5-.67-1.5-1.5s.66-1.5 1.5-1.5c.82 0 1.5.67 1.5 1.5zm6 0c0 .83-.68 1.5-1.5 1.5-.84 0-1.5-.67-1.5-1.5s.66-1.5 1.5-1.5c.82 0 1.5.67 1.5 1.5zm6 0c0 .83-.68 1.5-1.5 1.5-.84 0-1.5-.67-1.5-1.5s.66-1.5 1.5-1.5c.82 0 1.5.67 1.5 1.5zm6 0c0 .83-.68 1.5-1.5 1.5-.84 0-1.5-.67-1.5-1.5s.66-1.5 1.5-1.5c.82 0 1.5.67 1.5 1.5zm6 0c0 .82-.68 1.5-1.5 1.5-.84 0-1.5-.68-1.5-1.5 0-.83.66-1.5 1.5-1.5.82 0 1.5.67 1.5 1.5zm6 0c0 .82-.68 1.5-1.5 1.5-.84 0-1.5-.68-1.5-1.5 0-.83.66-1.5 1.5-1.5.82 0 1.5.67 1.5 1.5zm6 0c0 .82-.68 1.5-1.5 1.5-.84 0-1.5-.68-1.5-1.5 0-.83.66-1.5 1.5-1.5.82 0 1.5.67 1.5 1.5zm6 0c0 .82-.68 1.5-1.5 1.5-.84 0-1.5-.68-1.5-1.5 0-.83.66-1.5 1.5-1.5.82 0 1.5.67 1.5 1.5zm6 0c0 .82-.68 1.5-1.5 1.5-.84 0-1.5-.68-1.5-1.5 0-.83.66-1.5 1.5-1.5.82 0 1.5.67 1.5 1.5zm6 0c0 .82-.68 1.5-1.5 1.5-.84 0-1.5-.68-1.5-1.5 0-.84.66-1.5 1.5-1.5.82 0 1.5.66 1.5 1.5zm6 0c0 .82-.68 1.5-1.5 1.5-.84 0-1.5-.68-1.5-1.5 0-.84.66-1.5 1.5-1.5.82 0 1.5.66 1.5 1.5zm6 0c0 .82-.68 1.5-1.5 1.5-.84 0-1.5-.68-1.5-1.5 0-.84.66-1.5 1.5-1.5.82 0 1.5.66 1.5 1.5zm6 0c0 .82-.7 1.5-1.5 1.5-.84 0-1.5-.68-1.5-1.5 0-.84.66-1.5 1.5-1.5.8 0 1.5.66 1.5 1.5zm6 0c0 .82-.7 1.5-1.5 1.5-.84 0-1.5-.68-1.5-1.5 0-.84.66-1.5 1.5-1.5.8 0 1.5.66 1.5 1.5zm6 0c0 .82-.7 1.5-1.5 1.5-.84 0-1.5-.68-1.5-1.5 0-.84.66-1.5 1.5-1.5.8 0 1.5.66 1.5 1.5zm6 0c0 .82-.7 1.5-1.5 1.5-.84 0-1.5-.68-1.5-1.5 0-.84.66-1.5 1.5-1.5.8 0 1.5.66 1.5 1.5zm6 0c0 .82-.7 1.5-1.5 1.5-.84 0-1.5-.68-1.5-1.5 0-.84.66-1.5 1.5-1.5.8 0 1.5.66 1.5 1.5zm5.98 0c0 .82-.67 1.5-1.5 1.5-.82 0-1.5-.68-1.5-1.5 0-.84.68-1.5 1.5-1.5.83 0 1.5.66 1.5 1.5zm6 0c0 .8-.67 1.5-1.5 1.5-.82 0-1.5-.7-1.5-1.5 0-.84.68-1.5 1.5-1.5.83 0 1.5.66 1.5 1.5zm6 0c0 .8-.67 1.5-1.5 1.5-.82 0-1.5-.7-1.5-1.5 0-.84.68-1.5 1.5-1.5.83 0 1.5.66 1.5 1.5zm6-.02c0 .84-.67 1.5-1.5 1.5-.82 0-1.5-.66-1.5-1.5 0-.8.68-1.5 1.5-1.5.83 0 1.5.7 1.5 1.5zm6 0c0 .84-.67 1.5-1.5 1.5-.82 0-1.5-.66-1.5-1.5 0-.8.68-1.5 1.5-1.5.83 0 1.5.7 1.5 1.5zm6 0c0 .84-.67 1.5-1.5 1.5s-1.5-.66-1.5-1.5c0-.8.67-1.5 1.5-1.5s1.5.7 1.5 1.5zm6 0c0 .84-.67 1.5-1.5 1.5s-1.5-.66-1.5-1.5c0-.82.67-1.5 1.5-1.5s1.5.68 1.5 1.5zm6 0c0 .84-.67 1.5-1.5 1.5s-1.5-.66-1.5-1.5c0-.82.67-1.5 1.5-1.5s1.5.68 1.5 1.5zm6 0c0 .84-.67 1.5-1.5 1.5s-1.5-.66-1.5-1.5c0-.82.67-1.5 1.5-1.5s1.5.68 1.5 1.5zm6 0c0 .84-.67 1.5-1.5 1.5s-1.5-.66-1.5-1.5c0-.82.67-1.5 1.5-1.5s1.5.68 1.5 1.5zm6 0c0 .84-.67 1.5-1.5 1.5s-1.5-.66-1.5-1.5c0-.82.67-1.5 1.5-1.5s1.5.68 1.5 1.5zm6 0c0 .84-.67 1.5-1.5 1.5s-1.5-.66-1.5-1.5c0-.82.67-1.5 1.5-1.5s1.5.68 1.5 1.5zm6 0c0 .84-.67 1.5-1.5 1.5s-1.5-.66-1.5-1.5c0-.82.67-1.5 1.5-1.5s1.5.68 1.5 1.5zm6 0c0 .84-.67 1.5-1.5 1.5s-1.5-.66-1.5-1.5c0-.82.67-1.5 1.5-1.5s1.5.68 1.5 1.5zm6 0c0 .84-.67 1.5-1.5 1.5s-1.5-.66-1.5-1.5c0-.82.67-1.5 1.5-1.5s1.5.68 1.5 1.5zm6 0c0 .83-.67 1.5-1.5 1.5s-1.5-.67-1.5-1.5c0-.82.67-1.5 1.5-1.5s1.5.68 1.5 1.5zm6 0c0 .83-.67 1.5-1.5 1.5s-1.5-.67-1.5-1.5c0-.82.67-1.5 1.5-1.5s1.5.68 1.5 1.5zm6 0c0 .83-.67 1.5-1.5 1.5s-1.5-.67-1.5-1.5c0-.82.67-1.5 1.5-1.5s1.5.68 1.5 1.5zm6 0c0 .83-.67 1.5-1.5 1.5s-1.5-.67-1.5-1.5c0-.82.67-1.5 1.5-1.5s1.5.68 1.5 1.5zm6 0c0 .83-.67 1.5-1.5 1.5s-1.5-.67-1.5-1.5.67-1.5 1.5-1.5 1.5.67 1.5 1.5zm6 0c0 .83-.67 1.5-1.5 1.5s-1.5-.67-1.5-1.5.67-1.5 1.5-1.5 1.5.67 1.5 1.5zm6 0c0 .83-.67 1.5-1.5 1.5s-1.5-.67-1.5-1.5.67-1.5 1.5-1.5 1.5.67 1.5 1.5zm6 0c0 .83-.67 1.5-1.5 1.5s-1.5-.67-1.5-1.5.67-1.5 1.5-1.5 1.5.67 1.5 1.5zm6 0c0 .83-.67 1.5-1.5 1.5s-1.5-.67-1.5-1.5.67-1.5 1.5-1.5 1.5.67 1.5 1.5zm6 0c0 .83-.67 1.5-1.5 1.5s-1.5-.67-1.5-1.5.67-1.5 1.5-1.5 1.5.67 1.5 1.5zm6 0c0 .83-.67 1.5-1.5 1.5s-1.5-.67-1.5-1.5.67-1.5 1.5-1.5 1.5.67 1.5 1.5zm6 0c0 .83-.68 1.5-1.5 1.5-.83 0-1.5-.67-1.5-1.5s.67-1.5 1.5-1.5c.82 0 1.5.67 1.5 1.5zm6 0c0 .83-.68 1.5-1.5 1.5-.83 0-1.5-.67-1.5-1.5s.67-1.5 1.5-1.5c.82 0 1.5.67 1.5 1.5zm6 0c0 .83-.68 1.5-1.5 1.5-.83 0-1.5-.67-1.5-1.5s.67-1.5 1.5-1.5c.82 0 1.5.67 1.5 1.5zm6 0c0 .82-.68 1.5-1.5 1.5-.83 0-1.5-.68-1.5-1.5 0-.83.67-1.5 1.5-1.5.82 0 1.5.67 1.5 1.5zm6 0c0 .82-.68 1.5-1.5 1.5-.83 0-1.5-.68-1.5-1.5 0-.83.67-1.5 1.5-1.5.82 0 1.5.67 1.5 1.5zm6 0c0 .82-.68 1.5-1.5 1.5-.83 0-1.5-.68-1.5-1.5 0-.83.67-1.5 1.5-1.5.82 0 1.5.67 1.5 1.5zm6 0c0 .82-.68 1.5-1.5 1.5-.83 0-1.5-.68-1.5-1.5 0-.83.67-1.5 1.5-1.5.82 0 1.5.67 1.5 1.5zm6 0c0 .82-.68 1.5-1.5 1.5-.83 0-1.5-.68-1.5-1.5 0-.84.67-1.5 1.5-1.5.82 0 1.5.66 1.5 1.5zm6 0c0 .82-.68 1.5-1.5 1.5-.83 0-1.5-.68-1.5-1.5 0-.84.67-1.5 1.5-1.5.82 0 1.5.66 1.5 1.5zm6 0c0 .82-.68 1.5-1.5 1.5-.84 0-1.5-.68-1.5-1.5 0-.84.66-1.5 1.5-1.5.82 0 1.5.66 1.5 1.5zm6 0c0 .82-.68 1.5-1.5 1.5-.84 0-1.5-.68-1.5-1.5 0-.84.66-1.5 1.5-1.5.82 0 1.5.66 1.5 1.5zm6 0c0 .82-.68 1.5-1.5 1.5-.84 0-1.5-.68-1.5-1.5 0-.84.66-1.5 1.5-1.5.82 0 1.5.66 1.5 1.5zm6 0c0 .82-.68 1.5-1.5 1.5-.84 0-1.5-.68-1.5-1.5 0-.84.66-1.5 1.5-1.5.82 0 1.5.66 1.5 1.5zm6 0c0 .82-.68 1.5-1.5 1.5-.84 0-1.5-.68-1.5-1.5 0-.84.66-1.5 1.5-1.5.82 0 1.5.66 1.5 1.5zm6 0c0 .82-.68 1.5-1.5 1.5-.84 0-1.5-.68-1.5-1.5 0-.84.66-1.5 1.5-1.5.82 0 1.5.66 1.5 1.5zm6 0c0 .82-.68 1.5-1.5 1.5-.84 0-1.5-.68-1.5-1.5 0-.84.66-1.5 1.5-1.5.82 0 1.5.66 1.5 1.5zm6 0c0 .82-.68 1.5-1.5 1.5-.84 0-1.5-.68-1.5-1.5 0-.84.66-1.5 1.5-1.5.82 0 1.5.66 1.5 1.5zm6 0c0 .8-.68 1.5-1.5 1.5-.84 0-1.5-.7-1.5-1.5 0-.84.66-1.5 1.5-1.5.82 0 1.5.66 1.5 1.5zm6 0c0 .8-.68 1.5-1.5 1.5-.84 0-1.5-.7-1.5-1.5 0-.84.66-1.5 1.5-1.5.82 0 1.5.66 1.5 1.5zm6-.02c0 .83-.68 1.5-1.5 1.5-.84 0-1.5-.67-1.5-1.5 0-.82.66-1.5 1.5-1.5.82 0 1.5.68 1.5 1.5zm6 0c0 .83-.68 1.5-1.5 1.5-.84 0-1.5-.67-1.5-1.5 0-.82.66-1.5 1.5-1.5.82 0 1.5.68 1.5 1.5zm6 0c0 .83-.68 1.5-1.5 1.5-.84 0-1.5-.67-1.5-1.5s.66-1.5 1.5-1.5c.82 0 1.5.67 1.5 1.5zm6 0c0 .83-.68 1.5-1.5 1.5-.84 0-1.5-.67-1.5-1.5s.66-1.5 1.5-1.5c.82 0 1.5.67 1.5 1.5zm6 0c0 .83-.68 1.5-1.5 1.5-.84 0-1.5-.67-1.5-1.5s.66-1.5 1.5-1.5c.82 0 1.5.67 1.5 1.5zm6 0c0 .83-.68 1.5-1.5 1.5-.84 0-1.5-.67-1.5-1.5s.66-1.5 1.5-1.5c.82 0 1.5.67 1.5 1.5zm6 0c0 .83-.68 1.5-1.5 1.5-.84 0-1.5-.67-1.5-1.5s.66-1.5 1.5-1.5c.82 0 1.5.67 1.5 1.5zm6 0c0 .83-.68 1.5-1.5 1.5-.84 0-1.5-.67-1.5-1.5s.66-1.5 1.5-1.5c.82 0 1.5.67 1.5 1.5zm6 0c0 .83-.68 1.5-1.5 1.5-.84 0-1.5-.67-1.5-1.5s.66-1.5 1.5-1.5c.82 0 1.5.67 1.5 1.5zm6 0c0 .83-.68 1.5-1.5 1.5-.84 0-1.5-.67-1.5-1.5s.66-1.5 1.5-1.5c.82 0 1.5.67 1.5 1.5zm6 0c0 .83-.68 1.5-1.5 1.5-.84 0-1.5-.67-1.5-1.5s.66-1.5 1.5-1.5c.82 0 1.5.67 1.5 1.5zm6 0c0 .82-.7 1.5-1.5 1.5-.84 0-1.5-.68-1.5-1.5 0-.83.66-1.5 1.5-1.5.8 0 1.5.67 1.5 1.5zm6 0c0 .82-.7 1.5-1.5 1.5-.84 0-1.5-.68-1.5-1.5 0-.83.66-1.5 1.5-1.5.8 0 1.5.67 1.5 1.5zm6 0c0 .82-.7 1.5-1.5 1.5-.84 0-1.5-.68-1.5-1.5 0-.83.66-1.5 1.5-1.5.8 0 1.5.67 1.5 1.5zm6 0c0 .82-.7 1.5-1.5 1.5-.84 0-1.5-.68-1.5-1.5 0-.83.66-1.5 1.5-1.5.8 0 1.5.67 1.5 1.5zm6 0c0 .82-.7 1.5-1.5 1.5-.84 0-1.5-.68-1.5-1.5 0-.83.66-1.5 1.5-1.5.8 0 1.5.67 1.5 1.5zm5.98 0c0 .82-.67 1.5-1.5 1.5-.82 0-1.5-.68-1.5-1.5 0-.84.68-1.5 1.5-1.5.83 0 1.5.66 1.5 1.5zm5.93 5.05c0 .83-.67 1.5-1.5 1.5s-1.5-.67-1.5-1.5c0-.82.67-1.5 1.5-1.5s1.5.68 1.5 1.5zm0 6.03c0 .83-.67 1.5-1.5 1.5s-1.5-.67-1.5-1.5c0-.82.67-1.5 1.5-1.5s1.5.68 1.5 1.5zm0 6.03c0 .82-.67 1.5-1.5 1.5-.82 0-1.5-.68-1.5-1.5 0-.83.68-1.5 1.5-1.5.83 0 1.5.67 1.5 1.5zm0 6.02c0 .83-.66 1.5-1.5 1.5-.82 0-1.5-.67-1.5-1.5s.68-1.5 1.5-1.5c.84 0 1.5.67 1.5 1.5zm0 6.03c0 .83-.66 1.5-1.5 1.5-.82 0-1.5-.67-1.5-1.5s.68-1.5 1.5-1.5c.84 0 1.5.67 1.5 1.5zm0 6.03c0 .83-.66 1.5-1.5 1.5-.82 0-1.5-.67-1.5-1.5s.68-1.5 1.5-1.5c.84 0 1.5.67 1.5 1.5zm0 6.03c0 .84-.66 1.5-1.5 1.5-.8 0-1.5-.66-1.5-1.5 0-.82.7-1.5 1.5-1.5.84 0 1.5.68 1.5 1.5zm.02 6.04c0 .83-.68 1.5-1.5 1.5-.84 0-1.5-.67-1.5-1.5s.66-1.5 1.5-1.5c.82 0 1.5.67 1.5 1.5zm0 6.03c0 .83-.68 1.5-1.5 1.5-.84 0-1.5-.67-1.5-1.5s.66-1.5 1.5-1.5c.82 0 1.5.67 1.5 1.5zm0 6.03c0 .83-.68 1.5-1.5 1.5-.84 0-1.5-.67-1.5-1.5s.66-1.5 1.5-1.5c.82 0 1.5.67 1.5 1.5zm0 6.03c0 .83-.68 1.5-1.5 1.5-.83 0-1.5-.67-1.5-1.5s.67-1.5 1.5-1.5c.82 0 1.5.67 1.5 1.5zm0 6.03c0 .83-.68 1.5-1.5 1.5-.83 0-1.5-.67-1.5-1.5s.67-1.5 1.5-1.5c.82 0 1.5.67 1.5 1.5zm0 6.03c0 .82-.67 1.5-1.5 1.5s-1.5-.68-1.5-1.5c0-.84.67-1.5 1.5-1.5s1.5.66 1.5 1.5zm0 6.02c0 .83-.67 1.5-1.5 1.5s-1.5-.67-1.5-1.5.67-1.5 1.5-1.5 1.5.67 1.5 1.5zm0 6.03c0 .83-.67 1.5-1.5 1.5s-1.5-.67-1.5-1.5.67-1.5 1.5-1.5 1.5.67 1.5 1.5zm0 6.03c0 .83-.67 1.5-1.5 1.5-.82 0-1.5-.67-1.5-1.5s.68-1.5 1.5-1.5c.83 0 1.5.67 1.5 1.5zm0 6.03c0 .84-.66 1.5-1.5 1.5-.82 0-1.5-.66-1.5-1.5 0-.82.68-1.5 1.5-1.5.84 0 1.5.68 1.5 1.5zm0 6.04c0 .83-.66 1.5-1.5 1.5-.82 0-1.5-.67-1.5-1.5s.68-1.5 1.5-1.5c.84 0 1.5.67 1.5 1.5zm0 6.03c0 .83-.66 1.5-1.5 1.5-.82 0-1.5-.67-1.5-1.5s.68-1.5 1.5-1.5c.84 0 1.5.67 1.5 1.5zm0 6.03c0 .83-.66 1.5-1.5 1.5-.8 0-1.5-.67-1.5-1.5s.7-1.5 1.5-1.5c.84 0 1.5.67 1.5 1.5zm.02 6.03c0 .83-.67 1.5-1.5 1.5s-1.5-.67-1.5-1.5.67-1.5 1.5-1.5 1.5.67 1.5 1.5zm0 6.03c0 .83-.67 1.5-1.5 1.5s-1.5-.67-1.5-1.5.67-1.5 1.5-1.5 1.5.67 1.5 1.5zm0 6.03c0 .82-.67 1.5-1.5 1.5s-1.5-.68-1.5-1.5c0-.84.67-1.5 1.5-1.5s1.5.66 1.5 1.5zm0 6.02c0 .82-.67 1.5-1.5 1.5-.82 0-1.5-.68-1.5-1.5 0-.83.68-1.5 1.5-1.5.83 0 1.5.67 1.5 1.5zm0 6.03c0 .82-.67 1.5-1.5 1.5-.82 0-1.5-.68-1.5-1.5 0-.83.68-1.5 1.5-1.5.83 0 1.5.67 1.5 1.5zm0 6.03c0 .82-.66 1.5-1.5 1.5-.82 0-1.5-.68-1.5-1.5 0-.83.68-1.5 1.5-1.5.84 0 1.5.67 1.5 1.5zm0 6.03c0 .83-.66 1.5-1.5 1.5-.82 0-1.5-.67-1.5-1.5 0-.82.68-1.5 1.5-1.5.84 0 1.5.68 1.5 1.5zm0 6.04c0 .82-.66 1.5-1.5 1.5-.82 0-1.5-.68-1.5-1.5 0-.83.68-1.5 1.5-1.5.84 0 1.5.67 1.5 1.5zm.02 6.02c0 .83-.68 1.5-1.5 1.5-.83 0-1.5-.67-1.5-1.5 0-.82.67-1.5 1.5-1.5.82 0 1.5.68 1.5 1.5zm0 6.03c0 .82-.67 1.5-1.5 1.5s-1.5-.68-1.5-1.5c0-.83.67-1.5 1.5-1.5s1.5.67 1.5 1.5zm0 6.02c0 .83-.67 1.5-1.5 1.5s-1.5-.67-1.5-1.5c0-.82.67-1.5 1.5-1.5s1.5.68 1.5 1.5zm0 6.03c0 .83-.67 1.5-1.5 1.5s-1.5-.67-1.5-1.5c0-.82.67-1.5 1.5-1.5s1.5.68 1.5 1.5zm0 6.03c0 .83-.67 1.5-1.5 1.5-.82 0-1.5-.67-1.5-1.5s.68-1.5 1.5-1.5c.83 0 1.5.67 1.5 1.5zm-5.06 5.93c0 .84-.67 1.5-1.5 1.5-.82 0-1.5-.66-1.5-1.5 0-.82.68-1.5 1.5-1.5.83 0 1.5.68 1.5 1.5zm-6 0c0 .84-.67 1.5-1.5 1.5-.82 0-1.5-.66-1.5-1.5 0-.82.68-1.5 1.5-1.5.83 0 1.5.68 1.5 1.5zm-6 0c0 .84-.67 1.5-1.5 1.5-.82 0-1.5-.66-1.5-1.5 0-.82.68-1.5 1.5-1.5.83 0 1.5.68 1.5 1.5zm-6 0c0 .84-.67 1.5-1.5 1.5-.82 0-1.5-.66-1.5-1.5 0-.82.68-1.5 1.5-1.5.83 0 1.5.68 1.5 1.5zm-6 0c0 .84-.67 1.5-1.5 1.5-.82 0-1.5-.66-1.5-1.5 0-.82.68-1.5 1.5-1.5.83 0 1.5.68 1.5 1.5zm-6 0c0 .84-.67 1.5-1.5 1.5-.82 0-1.5-.66-1.5-1.5 0-.82.68-1.5 1.5-1.5.83 0 1.5.68 1.5 1.5zm-6 0c0 .84-.67 1.5-1.5 1.5-.82 0-1.5-.66-1.5-1.5 0-.8.68-1.5 1.5-1.5.83 0 1.5.7 1.5 1.5zm-6 0c0 .84-.67 1.5-1.5 1.5-.82 0-1.5-.66-1.5-1.5 0-.8.68-1.5 1.5-1.5.83 0 1.5.7 1.5 1.5zm-6 .02c0 .82-.67 1.5-1.5 1.5-.82 0-1.5-.68-1.5-1.5 0-.83.68-1.5 1.5-1.5.83 0 1.5.67 1.5 1.5zm-6 0c0 .82-.67 1.5-1.5 1.5-.82 0-1.5-.68-1.5-1.5 0-.83.68-1.5 1.5-1.5.83 0 1.5.67 1.5 1.5zm-6 0c0 .83-.66 1.5-1.5 1.5-.82 0-1.5-.67-1.5-1.5s.68-1.5 1.5-1.5c.84 0 1.5.67 1.5 1.5zm-6 0c0 .83-.66 1.5-1.5 1.5-.82 0-1.5-.67-1.5-1.5s.68-1.5 1.5-1.5c.84 0 1.5.67 1.5 1.5zm-6 0c0 .83-.66 1.5-1.5 1.5-.82 0-1.5-.67-1.5-1.5s.68-1.5 1.5-1.5c.84 0 1.5.67 1.5 1.5zm-6 0c0 .83-.66 1.5-1.5 1.5-.82 0-1.5-.67-1.5-1.5s.68-1.5 1.5-1.5c.84 0 1.5.67 1.5 1.5zm-6 0c0 .83-.66 1.5-1.5 1.5-.82 0-1.5-.67-1.5-1.5s.68-1.5 1.5-1.5c.84 0 1.5.67 1.5 1.5zm-6 0c0 .83-.66 1.5-1.5 1.5-.82 0-1.5-.67-1.5-1.5s.68-1.5 1.5-1.5c.84 0 1.5.67 1.5 1.5zm-6 0c0 .83-.66 1.5-1.5 1.5-.82 0-1.5-.67-1.5-1.5s.68-1.5 1.5-1.5c.84 0 1.5.67 1.5 1.5zm-6 0c0 .83-.66 1.5-1.5 1.5-.82 0-1.5-.67-1.5-1.5s.68-1.5 1.5-1.5c.84 0 1.5.67 1.5 1.5zm-6 0c0 .83-.66 1.5-1.5 1.5-.82 0-1.5-.67-1.5-1.5s.68-1.5 1.5-1.5c.84 0 1.5.67 1.5 1.5zm-6 0c0 .83-.66 1.5-1.5 1.5-.82 0-1.5-.67-1.5-1.5s.68-1.5 1.5-1.5c.84 0 1.5.67 1.5 1.5zm-6 0c0 .83-.66 1.5-1.5 1.5-.82 0-1.5-.67-1.5-1.5 0-.82.68-1.5 1.5-1.5.84 0 1.5.68 1.5 1.5zm-6 0c0 .83-.66 1.5-1.5 1.5-.82 0-1.5-.67-1.5-1.5 0-.82.68-1.5 1.5-1.5.84 0 1.5.68 1.5 1.5zm-6 0c0 .83-.66 1.5-1.5 1.5-.82 0-1.5-.67-1.5-1.5 0-.82.68-1.5 1.5-1.5.84 0 1.5.68 1.5 1.5zm-6 0c0 .83-.66 1.5-1.5 1.5-.82 0-1.5-.67-1.5-1.5 0-.82.68-1.5 1.5-1.5.84 0 1.5.68 1.5 1.5zm-6 0c0 .84-.66 1.5-1.5 1.5-.82 0-1.5-.66-1.5-1.5 0-.82.68-1.5 1.5-1.5.84 0 1.5.68 1.5 1.5zm-6 0c0 .84-.66 1.5-1.5 1.5-.82 0-1.5-.66-1.5-1.5 0-.82.68-1.5 1.5-1.5.84 0 1.5.68 1.5 1.5zm-6 0c0 .84-.66 1.5-1.5 1.5-.82 0-1.5-.66-1.5-1.5 0-.82.68-1.5 1.5-1.5.84 0 1.5.68 1.5 1.5zm-6 0c0 .84-.66 1.5-1.5 1.5-.82 0-1.5-.66-1.5-1.5 0-.82.68-1.5 1.5-1.5.84 0 1.5.68 1.5 1.5zm-6 0c0 .84-.66 1.5-1.5 1.5-.82 0-1.5-.66-1.5-1.5 0-.82.68-1.5 1.5-1.5.84 0 1.5.68 1.5 1.5zm-6 0c0 .84-.66 1.5-1.5 1.5-.82 0-1.5-.66-1.5-1.5 0-.82.68-1.5 1.5-1.5.84 0 1.5.68 1.5 1.5zm-6 0c0 .84-.66 1.5-1.5 1.5-.82 0-1.5-.66-1.5-1.5 0-.82.68-1.5 1.5-1.5.84 0 1.5.68 1.5 1.5zm-6 0c0 .84-.66 1.5-1.5 1.5-.8 0-1.5-.66-1.5-1.5 0-.82.7-1.5 1.5-1.5.84 0 1.5.68 1.5 1.5zm-6 0c0 .84-.66 1.5-1.5 1.5-.8 0-1.5-.66-1.5-1.5 0-.82.7-1.5 1.5-1.5.84 0 1.5.68 1.5 1.5zm-6 0c0 .84-.66 1.5-1.5 1.5-.8 0-1.5-.66-1.5-1.5 0-.82.7-1.5 1.5-1.5.84 0 1.5.68 1.5 1.5zm-6 0c0 .84-.66 1.5-1.5 1.5-.8 0-1.5-.66-1.5-1.5 0-.8.7-1.5 1.5-1.5.84 0 1.5.7 1.5 1.5zm-6 0c0 .84-.66 1.5-1.5 1.5-.8 0-1.5-.66-1.5-1.5 0-.8.7-1.5 1.5-1.5.84 0 1.5.7 1.5 1.5zm-5.98.02c0 .82-.68 1.5-1.5 1.5-.83 0-1.5-.68-1.5-1.5 0-.83.67-1.5 1.5-1.5.82 0 1.5.67 1.5 1.5zm-6 0c0 .82-.68 1.5-1.5 1.5-.83 0-1.5-.68-1.5-1.5 0-.83.67-1.5 1.5-1.5.82 0 1.5.67 1.5 1.5zm-6 0c0 .83-.68 1.5-1.5 1.5-.83 0-1.5-.67-1.5-1.5s.67-1.5 1.5-1.5c.82 0 1.5.67 1.5 1.5zm-6 0c0 .83-.68 1.5-1.5 1.5-.83 0-1.5-.67-1.5-1.5s.67-1.5 1.5-1.5c.82 0 1.5.67 1.5 1.5zm-6 0c0 .83-.67 1.5-1.5 1.5s-1.5-.67-1.5-1.5.67-1.5 1.5-1.5 1.5.67 1.5 1.5zm-6 0c0 .83-.67 1.5-1.5 1.5s-1.5-.67-1.5-1.5.67-1.5 1.5-1.5 1.5.67 1.5 1.5zm-6 0c0 .83-.67 1.5-1.5 1.5s-1.5-.67-1.5-1.5.67-1.5 1.5-1.5 1.5.67 1.5 1.5zm-6 0c0 .83-.67 1.5-1.5 1.5s-1.5-.67-1.5-1.5.67-1.5 1.5-1.5 1.5.67 1.5 1.5zm-6 0c0 .83-.67 1.5-1.5 1.5s-1.5-.67-1.5-1.5.67-1.5 1.5-1.5 1.5.67 1.5 1.5zm-6 0c0 .83-.67 1.5-1.5 1.5s-1.5-.67-1.5-1.5.67-1.5 1.5-1.5 1.5.67 1.5 1.5zm-6 0c0 .83-.67 1.5-1.5 1.5s-1.5-.67-1.5-1.5.67-1.5 1.5-1.5 1.5.67 1.5 1.5zm-6 0c0 .83-.67 1.5-1.5 1.5s-1.5-.67-1.5-1.5c0-.82.67-1.5 1.5-1.5s1.5.68 1.5 1.5zm-6 0c0 .83-.67 1.5-1.5 1.5s-1.5-.67-1.5-1.5c0-.82.67-1.5 1.5-1.5s1.5.68 1.5 1.5zm-6 0c0 .83-.67 1.5-1.5 1.5s-1.5-.67-1.5-1.5c0-.82.67-1.5 1.5-1.5s1.5.68 1.5 1.5zm-6 0c0 .83-.67 1.5-1.5 1.5s-1.5-.67-1.5-1.5c0-.82.67-1.5 1.5-1.5s1.5.68 1.5 1.5zm-6 0c0 .83-.67 1.5-1.5 1.5s-1.5-.67-1.5-1.5c0-.82.67-1.5 1.5-1.5s1.5.68 1.5 1.5zm-6 0c0 .84-.67 1.5-1.5 1.5s-1.5-.66-1.5-1.5c0-.82.67-1.5 1.5-1.5s1.5.68 1.5 1.5zm-6 0c0 .84-.67 1.5-1.5 1.5s-1.5-.66-1.5-1.5c0-.82.67-1.5 1.5-1.5s1.5.68 1.5 1.5zm-6 0c0 .84-.67 1.5-1.5 1.5s-1.5-.66-1.5-1.5c0-.82.67-1.5 1.5-1.5s1.5.68 1.5 1.5zm-6 0c0 .84-.67 1.5-1.5 1.5s-1.5-.66-1.5-1.5c0-.82.67-1.5 1.5-1.5s1.5.68 1.5 1.5zm-6 0c0 .84-.67 1.5-1.5 1.5s-1.5-.66-1.5-1.5c0-.82.67-1.5 1.5-1.5s1.5.68 1.5 1.5zm-6 0c0 .84-.67 1.5-1.5 1.5s-1.5-.66-1.5-1.5c0-.82.67-1.5 1.5-1.5s1.5.68 1.5 1.5zm-6 0c0 .84-.67 1.5-1.5 1.5s-1.5-.66-1.5-1.5c0-.82.67-1.5 1.5-1.5s1.5.68 1.5 1.5zm-6 0c0 .84-.67 1.5-1.5 1.5s-1.5-.66-1.5-1.5c0-.82.67-1.5 1.5-1.5s1.5.68 1.5 1.5zm-6 0c0 .84-.67 1.5-1.5 1.5s-1.5-.66-1.5-1.5c0-.82.67-1.5 1.5-1.5s1.5.68 1.5 1.5zm-6 0c0 .84-.67 1.5-1.5 1.5-.82 0-1.5-.66-1.5-1.5 0-.8.68-1.5 1.5-1.5.83 0 1.5.7 1.5 1.5zm-6 0c0 .84-.67 1.5-1.5 1.5-.82 0-1.5-.66-1.5-1.5 0-.8.68-1.5 1.5-1.5.83 0 1.5.7 1.5 1.5zm-6 .02c0 .82-.67 1.5-1.5 1.5-.82 0-1.5-.68-1.5-1.5 0-.83.68-1.5 1.5-1.5.83 0 1.5.67 1.5 1.5zm-6 0c0 .82-.67 1.5-1.5 1.5-.82 0-1.5-.68-1.5-1.5 0-.83.68-1.5 1.5-1.5.83 0 1.5.67 1.5 1.5zm-6 0c0 .82-.67 1.5-1.5 1.5-.82 0-1.5-.68-1.5-1.5 0-.83.68-1.5 1.5-1.5.83 0 1.5.67 1.5 1.5zm-6 0c0 .83-.67 1.5-1.5 1.5-.82 0-1.5-.67-1.5-1.5s.68-1.5 1.5-1.5c.83 0 1.5.67 1.5 1.5zm-6 0c0 .83-.67 1.5-1.5 1.5-.82 0-1.5-.67-1.5-1.5s.68-1.5 1.5-1.5c.83 0 1.5.67 1.5 1.5zm-6 0c0 .83-.67 1.5-1.5 1.5-.82 0-1.5-.67-1.5-1.5s.68-1.5 1.5-1.5c.83 0 1.5.67 1.5 1.5zm-6 0c0 .83-.67 1.5-1.5 1.5-.82 0-1.5-.67-1.5-1.5s.68-1.5 1.5-1.5c.83 0 1.5.67 1.5 1.5zm-6 0c0 .83-.67 1.5-1.5 1.5-.82 0-1.5-.67-1.5-1.5s.68-1.5 1.5-1.5c.83 0 1.5.67 1.5 1.5zm-6 0c0 .83-.66 1.5-1.5 1.5-.82 0-1.5-.67-1.5-1.5s.68-1.5 1.5-1.5c.84 0 1.5.67 1.5 1.5zm-6 0c0 .83-.66 1.5-1.5 1.5-.82 0-1.5-.67-1.5-1.5s.68-1.5 1.5-1.5c.84 0 1.5.67 1.5 1.5zm-6 0c0 .83-.66 1.5-1.5 1.5-.82 0-1.5-.67-1.5-1.5s.68-1.5 1.5-1.5c.84 0 1.5.67 1.5 1.5zm-6 0c0 .83-.66 1.5-1.5 1.5-.82 0-1.5-.67-1.5-1.5s.68-1.5 1.5-1.5c.84 0 1.5.67 1.5 1.5zm-6 0c0 .83-.66 1.5-1.5 1.5-.82 0-1.5-.67-1.5-1.5 0-.82.68-1.5 1.5-1.5.84 0 1.5.68 1.5 1.5zm-6 0c0 .83-.66 1.5-1.5 1.5-.82 0-1.5-.67-1.5-1.5 0-.82.68-1.5 1.5-1.5.84 0 1.5.68 1.5 1.5zm-6 0c0 .83-.66 1.5-1.5 1.5-.82 0-1.5-.67-1.5-1.5 0-.82.68-1.5 1.5-1.5.84 0 1.5.68 1.5 1.5zm-6 0c0 .83-.66 1.5-1.5 1.5-.82 0-1.5-.67-1.5-1.5 0-.82.68-1.5 1.5-1.5.84 0 1.5.68 1.5 1.5zm-6 0c0 .84-.66 1.5-1.5 1.5-.82 0-1.5-.66-1.5-1.5 0-.82.68-1.5 1.5-1.5.84 0 1.5.68 1.5 1.5zm-6 0c0 .84-.66 1.5-1.5 1.5-.82 0-1.5-.66-1.5-1.5 0-.82.68-1.5 1.5-1.5.84 0 1.5.68 1.5 1.5zm-6 0c0 .84-.66 1.5-1.5 1.5-.82 0-1.5-.66-1.5-1.5 0-.82.68-1.5 1.5-1.5.84 0 1.5.68 1.5 1.5zm-6 0c0 .84-.66 1.5-1.5 1.5-.82 0-1.5-.66-1.5-1.5 0-.82.68-1.5 1.5-1.5.84 0 1.5.68 1.5 1.5zm-6 0c0 .84-.66 1.5-1.5 1.5-.82 0-1.5-.66-1.5-1.5 0-.82.68-1.5 1.5-1.5.84 0 1.5.68 1.5 1.5zm-6 0c0 .84-.66 1.5-1.5 1.5-.82 0-1.5-.66-1.5-1.5 0-.82.68-1.5 1.5-1.5.84 0 1.5.68 1.5 1.5zm-6 0c0 .84-.66 1.5-1.5 1.5-.82 0-1.5-.66-1.5-1.5 0-.82.68-1.5 1.5-1.5.84 0 1.5.68 1.5 1.5zm-6 0c0 .84-.66 1.5-1.5 1.5-.82 0-1.5-.66-1.5-1.5 0-.82.68-1.5 1.5-1.5.84 0 1.5.68 1.5 1.5zm-6 0c0 .84-.66 1.5-1.5 1.5-.82 0-1.5-.66-1.5-1.5 0-.82.68-1.5 1.5-1.5.84 0 1.5.68 1.5 1.5zm-6 0c0 .84-.66 1.5-1.5 1.5-.82 0-1.5-.66-1.5-1.5 0-.82.68-1.5 1.5-1.5.84 0 1.5.68 1.5 1.5zm-6 0c0 .84-.66 1.5-1.5 1.5-.82 0-1.5-.66-1.5-1.5 0-.8.68-1.5 1.5-1.5.84 0 1.5.7 1.5 1.5zm-6 0c0 .84-.66 1.5-1.5 1.5-.82 0-1.5-.66-1.5-1.5 0-.8.68-1.5 1.5-1.5.84 0 1.5.7 1.5 1.5zm-6 .02c0 .82-.66 1.5-1.5 1.5-.82 0-1.5-.68-1.5-1.5 0-.83.68-1.5 1.5-1.5.84 0 1.5.67 1.5 1.5zm-6 0c0 .82-.66 1.5-1.5 1.5-.8 0-1.5-.68-1.5-1.5 0-.83.7-1.5 1.5-1.5.84 0 1.5.67 1.5 1.5zm-6 0c0 .83-.66 1.5-1.5 1.5-.8 0-1.5-.67-1.5-1.5s.7-1.5 1.5-1.5c.84 0 1.5.67 1.5 1.5zm-6 0c0 .83-.66 1.5-1.5 1.5-.8 0-1.5-.67-1.5-1.5s.7-1.5 1.5-1.5c.84 0 1.5.67 1.5 1.5zm-6 0c0 .83-.66 1.5-1.5 1.5-.8 0-1.5-.67-1.5-1.5s.7-1.5 1.5-1.5c.84 0 1.5.67 1.5 1.5zm-6 0c0 .83-.66 1.5-1.5 1.5-.8 0-1.5-.67-1.5-1.5s.7-1.5 1.5-1.5c.84 0 1.5.67 1.5 1.5zm-5.98 0c0 .83-.68 1.5-1.5 1.5-.83 0-1.5-.67-1.5-1.5s.67-1.5 1.5-1.5c.82 0 1.5.67 1.5 1.5zm-6 0c0 .83-.68 1.5-1.5 1.5-.83 0-1.5-.67-1.5-1.5s.67-1.5 1.5-1.5c.82 0 1.5.67 1.5 1.5zm-6 0c0 .83-.68 1.5-1.5 1.5-.83 0-1.5-.67-1.5-1.5s.67-1.5 1.5-1.5c.82 0 1.5.67 1.5 1.5zm-6 0c0 .83-.68 1.5-1.5 1.5-.83 0-1.5-.67-1.5-1.5s.67-1.5 1.5-1.5c.82 0 1.5.67 1.5 1.5zm-6 0c0 .83-.67 1.5-1.5 1.5s-1.5-.67-1.5-1.5.67-1.5 1.5-1.5 1.5.67 1.5 1.5zm-6 0c0 .83-.67 1.5-1.5 1.5s-1.5-.67-1.5-1.5.67-1.5 1.5-1.5 1.5.67 1.5 1.5zm-5.93-5.06c0 .83-.68 1.5-1.5 1.5-.84 0-1.5-.67-1.5-1.5s.66-1.5 1.5-1.5c.82 0 1.5.67 1.5 1.5zm0-6.03c0 .82-.68 1.5-1.5 1.5-.84 0-1.5-.68-1.5-1.5 0-.84.66-1.5 1.5-1.5.82 0 1.5.66 1.5 1.5zm0-6.04c0 .83-.7 1.5-1.5 1.5-.84 0-1.5-.67-1.5-1.5s.66-1.5 1.5-1.5c.8 0 1.5.67 1.5 1.5zm-.02-6.03c0 .83-.67 1.5-1.5 1.5-.82 0-1.5-.67-1.5-1.5s.68-1.5 1.5-1.5c.83 0 1.5.67 1.5 1.5zm0-6.03c0 .83-.67 1.5-1.5 1.5s-1.5-.67-1.5-1.5.67-1.5 1.5-1.5 1.5.67 1.5 1.5zm0-6.03c0 .83-.67 1.5-1.5 1.5s-1.5-.67-1.5-1.5c0-.82.67-1.5 1.5-1.5s1.5.68 1.5 1.5zm0-6.03c0 .83-.67 1.5-1.5 1.5s-1.5-.67-1.5-1.5c0-.82.67-1.5 1.5-1.5s1.5.68 1.5 1.5zm0-6.03c0 .84-.68 1.5-1.5 1.5-.83 0-1.5-.66-1.5-1.5 0-.8.67-1.5 1.5-1.5.82 0 1.5.7 1.5 1.5zm0-6.02c0 .83-.68 1.5-1.5 1.5-.84 0-1.5-.67-1.5-1.5 0-.82.66-1.5 1.5-1.5.82 0 1.5.68 1.5 1.5zm0-6.02c0 .82-.68 1.5-1.5 1.5-.84 0-1.5-.68-1.5-1.5 0-.83.66-1.5 1.5-1.5.82 0 1.5.67 1.5 1.5zm0-6.03c0 .82-.68 1.5-1.5 1.5-.84 0-1.5-.68-1.5-1.5 0-.83.66-1.5 1.5-1.5.82 0 1.5.67 1.5 1.5zm0-6.03c0 .82-.7 1.5-1.5 1.5-.84 0-1.5-.68-1.5-1.5 0-.83.66-1.5 1.5-1.5.8 0 1.5.67 1.5 1.5zm-.02-6.03c0 .82-.67 1.5-1.5 1.5s-1.5-.68-1.5-1.5c0-.83.67-1.5 1.5-1.5s1.5.67 1.5 1.5zm0-6.03c0 .82-.67 1.5-1.5 1.5s-1.5-.68-1.5-1.5c0-.83.67-1.5 1.5-1.5s1.5.67 1.5 1.5zm0-6.03c0 .84-.67 1.5-1.5 1.5s-1.5-.66-1.5-1.5c0-.82.67-1.5 1.5-1.5s1.5.68 1.5 1.5zm0-6.02c0 .83-.68 1.5-1.5 1.5-.83 0-1.5-.67-1.5-1.5s.67-1.5 1.5-1.5c.82 0 1.5.67 1.5 1.5zm0-6.03c0 .83-.68 1.5-1.5 1.5-.83 0-1.5-.67-1.5-1.5s.67-1.5 1.5-1.5c.82 0 1.5.67 1.5 1.5zm0-6.03c0 .83-.68 1.5-1.5 1.5-.84 0-1.5-.67-1.5-1.5s.66-1.5 1.5-1.5c.82 0 1.5.67 1.5 1.5zm0-6.03c0 .82-.68 1.5-1.5 1.5-.84 0-1.5-.68-1.5-1.5 0-.84.66-1.5 1.5-1.5.82 0 1.5.66 1.5 1.5zm0-6.04c0 .83-.68 1.5-1.5 1.5-.84 0-1.5-.67-1.5-1.5s.66-1.5 1.5-1.5c.82 0 1.5.67 1.5 1.5zm-.02-6.03c0 .83-.67 1.5-1.5 1.5-.82 0-1.5-.67-1.5-1.5s.68-1.5 1.5-1.5c.83 0 1.5.67 1.5 1.5zm0-6.03c0 .83-.67 1.5-1.5 1.5s-1.5-.67-1.5-1.5.67-1.5 1.5-1.5 1.5.67 1.5 1.5zm0-6.03c0 .83-.67 1.5-1.5 1.5s-1.5-.67-1.5-1.5.67-1.5 1.5-1.5 1.5.67 1.5 1.5zm0-6.03c0 .83-.67 1.5-1.5 1.5s-1.5-.67-1.5-1.5.67-1.5 1.5-1.5 1.5.67 1.5 1.5zm0-6.03c0 .84-.68 1.5-1.5 1.5-.83 0-1.5-.66-1.5-1.5 0-.82.67-1.5 1.5-1.5.82 0 1.5.68 1.5 1.5zm0-6.02c0 .83-.68 1.5-1.5 1.5-.84 0-1.5-.67-1.5-1.5s.66-1.5 1.5-1.5c.82 0 1.5.67 1.5 1.5zm0-6.03c0 .83-.68 1.5-1.5 1.5-.84 0-1.5-.67-1.5-1.5s.66-1.5 1.5-1.5c.82 0 1.5.67 1.5 1.5zm0-6.03c0 .83-.68 1.5-1.5 1.5-.84 0-1.5-.67-1.5-1.5s.66-1.5 1.5-1.5c.82 0 1.5.67 1.5 1.5zm0-6.03c0 .82-.7 1.5-1.5 1.5-.84 0-1.5-.68-1.5-1.5 0-.84.66-1.5 1.5-1.5.8 0 1.5.66 1.5 1.5zm-.02-6.04c0 .83-.67 1.5-1.5 1.5-.82 0-1.5-.67-1.5-1.5s.68-1.5 1.5-1.5c.83 0 1.5.67 1.5 1.5zm0-6.03c0 .83-.67 1.5-1.5 1.5s-1.5-.67-1.5-1.5.67-1.5 1.5-1.5 1.5.67 1.5 1.5zm0-6.03c0 .83-.67 1.5-1.5 1.5s-1.5-.67-1.5-1.5.67-1.5 1.5-1.5 1.5.67 1.5 1.5zm0-6.03c0 .83-.67 1.5-1.5 1.5s-1.5-.67-1.5-1.5.67-1.5 1.5-1.5 1.5.67 1.5 1.5z" fill="#6db1ff"/><g><use xlink:href="#r" transform="matrix(1,0,0,1,144.8169492018236,-866.6270829614556) translate(206.98372395833337 20.627170138888886)"/><use xlink:href="#s" transform="matrix(1,0,0,1,144.8169492018236,-866.6270829614556) translate(300.3322482638889 20.627170138888886)"/><use xlink:href="#t" transform="matrix(1,0,0,1,144.8169492018236,-866.6270829614556) translate(307 46.495225694444436)"/><use xlink:href="#u" transform="matrix(1,0,0,1,144.8169492018236,-866.6270829614556) translate(307 72.36328124999999)"/><use xlink:href="#v" transform="matrix(1,0,0,1,144.8169492018236,-866.6270829614556) translate(307 96.16861979166666)"/><use xlink:href="#w" transform="matrix(1,0,0,1,144.8169492018236,-866.6270829614556) translate(307 119.44986979166666)"/><use xlink:href="#w" transform="matrix(1,0,0,1,144.8169492018236,-866.6270829614556) translate(307 142.73111979166666)"/><use xlink:href="#w" transform="matrix(1,0,0,1,144.8169492018236,-866.6270829614556) translate(307 166.01236979166666)"/><use xlink:href="#x" transform="matrix(1,0,0,1,144.8169492018236,-866.6270829614556) translate(307 189.29361979166666)"/></g><path d="M467.9-745.25c17.33 0 31.4 15 31.4 33.53 0 18.52-14.07 33.53-31.4 33.53h-94.2c-17.35 0-31.4-15-31.4-33.52 0-18.52 14.05-33.53 31.4-33.53z" stroke="#188fff" stroke-width="4" fill="#188fff"/><g><use xlink:href="#y" transform="matrix(1,0,0,1,347.28821735305695,-740.2506677104702) translate(26.358995225694457 35.33344184027777)"/></g><path d="M719.8-745.25c17.34 0 31.4 15 31.4 33.53 0 18.52-14.06 33.53-31.4 33.53h-94.2c-17.34 0-31.4-15-31.4-33.52 0-18.52 14.06-33.53 31.4-33.53z" stroke="#188fff" stroke-width="4" fill="#188fff"/><g><use xlink:href="#z" transform="matrix(1,0,0,1,599.1999820589392,-740.2506677104702) translate(26.358995225694457 35.33344184027777)"/></g><path d="M278.43-745.25c17.34 0 31.4 15 31.4 33.53 0 18.52-14.06 33.53-31.4 33.53h-94.2c-17.34 0-31.4-15-31.4-33.52 0-18.52 14.06-33.53 31.4-33.53z" stroke="#188fff" stroke-width="4" fill="#188fff"/><g><use xlink:href="#A" transform="matrix(1,0,0,1,157.83373556038435,-740.2506677104702) translate(26.358995225694457 35.33344184027777)"/></g><path d="M467.9-585.92c17.33 0 31.4 15.02 31.4 33.53 0 18.53-14.07 33.54-31.4 33.54h-94.2c-17.35 0-31.4-15-31.4-33.53 0-18.5 14.05-33.52 31.4-33.52z" stroke="#188fff" stroke-width="4" fill="#fff"/><g><use xlink:href="#B" transform="matrix(1,0,0,1,347.28821735305695,-580.9161476211843) translate(26.358995225694457 35.33344184027777)"/></g><g><path d="M380.83-795.24a6 6 0 0 1 8.14-2.4l522.5 285.5a6 6 0 0 1 2.38 8.14L852.8-392.25a6 6 0 0 1-8.15 2.4l-522.5-285.5a6 6 0 0 1-2.38-8.14z" fill-opacity="0"/><path d="M382.14-794.52c-.4.73-1.3 1-2.03.6-.72-.4-1-1.3-.6-2.04.4-.73 1.32-1 2.04-.6.73.4 1 1.3.6 2.04zm7.28-2.78c-.4.73-1.3 1-2.03.6-.74-.4-1-1.3-.6-2.03.4-.73 1.3-1 2.03-.6.72.4 1 1.3.6 2.03zm5.3 2.9c-.4.72-1.32 1-2.04.6-.73-.4-1-1.32-.6-2.05.4-.72 1.3-1 2.03-.6.74.4 1 1.32.6 2.04zm5.28 2.88c-.4.73-1.3 1-2.04.6-.73-.4-1-1.3-.6-2.04.4-.73 1.3-1 2.04-.6.73.4 1 1.3.6 2.04zm5.28 2.9c-.4.7-1.3.98-2.03.58-.73-.4-1-1.3-.6-2.03.4-.73 1.3-1 2.04-.6.7.4.98 1.3.58 2.04zm5.3 2.88c-.4.72-1.32 1-2.05.6-.72-.4-1-1.32-.6-2.04.4-.73 1.32-1 2.04-.6.73.4 1 1.3.6 2.04zm5.28 2.88c-.4.73-1.3 1-2.04.6-.73-.4-1-1.3-.6-2.04.4-.72 1.3-1 2.04-.6.73.4 1 1.32.6 2.04zm5.28 2.9c-.4.72-1.3.98-2.03.6-.72-.4-1-1.32-.6-2.05.4-.73 1.32-1 2.05-.6.72.4 1 1.3.6 2.03zm5.3 2.88c-.4.73-1.32 1-2.05.6-.73-.4-1-1.3-.6-2.04.4-.73 1.3-1 2.03-.6.73.4 1 1.3.6 2.04zm5.28 2.9c-.4.7-1.3.98-2.04.58-.73-.4-1-1.3-.6-2.03.4-.73 1.3-1 2.04-.6.73.4 1 1.3.6 2.04zm5.28 2.87c-.4.72-1.3 1-2.03.6-.73-.4-1-1.32-.6-2.05.4-.72 1.3-1 2.04-.6.73.4 1 1.32.6 2.04zm5.3 2.88c-.4.73-1.32 1-2.05.6-.72-.4-1-1.3-.6-2.04.4-.72 1.3-1 2.04-.6.72.4 1 1.3.6 2.04zm5.28 2.9c-.4.72-1.3.98-2.04.6-.73-.4-1-1.32-.6-2.05.4-.73 1.3-1 2.04-.6.72.4 1 1.3.6 2.04zm5.28 2.88c-.4.72-1.3 1-2.03.6-.73-.4-1-1.32-.6-2.04.4-.73 1.3-1 2.03-.6.73.4 1 1.3.6 2.04zm5.3 2.88c-.4.73-1.32 1-2.05.6-.7-.4-.98-1.3-.58-2.03.4-.72 1.3-1 2.03-.6.73.4 1 1.32.6 2.04zm5.27 2.9c-.4.72-1.3 1-2.03.6-.73-.4-1-1.32-.6-2.05.4-.73 1.3-1 2.04-.6.72.4 1 1.3.6 2.03zm5.3 2.88c-.4.73-1.32 1-2.04.6-.74-.4-1-1.3-.6-2.04.4-.73 1.3-1 2.02-.6.73.4 1 1.3.6 2.04zm5.28 2.9c-.4.7-1.3.98-2.03.58-.73-.4-1-1.3-.6-2.03.4-.73 1.3-1 2.04-.6s1 1.3.6 2.04zm5.3 2.87c-.4.72-1.32 1-2.04.6-.73-.4-1-1.32-.6-2.04.4-.73 1.3-1 2.04-.6.72.4 1 1.3.6 2.03zm5.28 2.88c-.4.73-1.3 1-2.04.6-.72-.4-1-1.3-.6-2.04.4-.72 1.32-1 2.04-.6.73.4 1 1.3.6 2.04zm5.3 2.9c-.4.72-1.32.98-2.05.6-.73-.4-1-1.32-.6-2.05.4-.73 1.3-1 2.04-.6.73.4 1 1.3.6 2.04zm5.27 2.88c-.4.72-1.3 1-2.03.6-.73-.4-1-1.3-.6-2.04.4-.73 1.3-1 2.04-.6.72.4 1 1.3.6 2.04zm5.3 2.88c-.4.73-1.32 1-2.05.6-.72-.4-1-1.3-.6-2.03.4-.72 1.3-1 2.04-.6.73.4 1 1.32.6 2.04zm5.28 2.9c-.4.72-1.3 1-2.04.6s-1-1.32-.6-2.05c.4-.73 1.3-1 2.03-.6.73.4 1 1.3.6 2.03zm5.28 2.88c-.4.73-1.3 1-2.02.6-.73-.4-1-1.3-.6-2.04.4-.73 1.3-1 2.03-.6.74.4 1 1.3.6 2.04zm5.3 2.9c-.4.7-1.3.98-2.04.58-.72-.4-1-1.3-.6-2.03.4-.73 1.3-1 2.04-.6.73.4 1 1.3.6 2.04zm5.28 2.88c-.4.72-1.3 1-2.03.6-.73-.4-1-1.32-.6-2.04.4-.73 1.3-1 2.04-.6.7.4.98 1.3.58 2.04zm5.3 2.88c-.4.73-1.32 1-2.04.6-.73-.4-1-1.3-.6-2.04.4-.72 1.3-1 2.03-.6.73.4 1 1.32.6 2.04zm5.28 2.9c-.4.72-1.3.98-2.04.6-.73-.4-1-1.32-.6-2.05.4-.73 1.3-1 2.04-.6.73.4 1 1.3.6 2.04zm5.28 2.88c-.4.72-1.3 1-2.03.6-.72-.4-1-1.3-.6-2.04.4-.73 1.32-1 2.05-.6.72.4 1 1.3.6 2.04zm5.3 2.9c-.4.7-1.32.98-2.05.58-.73-.4-1-1.3-.6-2.03.4-.72 1.3-1 2.03-.6.73.4 1 1.32.6 2.05zm5.28 2.87c-.4.73-1.3 1-2.04.6-.73-.4-1-1.3-.6-2.04.4-.73 1.3-1 2.04-.6.73.4 1 1.3.6 2.03zm5.28 2.9c-.4.72-1.3 1-2.03.6-.73-.4-1-1.32-.6-2.05.4-.72 1.3-1 2.04-.6.73.4 1 1.3.6 2.04zm5.3 2.88c-.4.74-1.32 1-2.05.6-.72-.4-1-1.3-.6-2.03.4-.73 1.32-1 2.04-.6s1 1.3.6 2.04zm5.28 2.9c-.4.72-1.3 1-2.04.6-.73-.4-1-1.32-.6-2.04.4-.73 1.3-1 2.04-.6.73.4 1 1.3.6 2.04zm5.28 2.88c-.4.73-1.3 1-2.03.6-.73-.4-1-1.3-.6-2.03.4-.73 1.3-1 2.03-.6.73.4 1 1.3.6 2.03zm5.3 2.9c-.4.72-1.32 1-2.05.6-.7-.4-.98-1.32-.58-2.05.4-.72 1.3-1 2.03-.6.73.4 1 1.3.6 2.04zm5.27 2.88c-.4.73-1.3 1-2.03.6-.73-.4-1-1.3-.6-2.04.4-.73 1.3-1 2.04-.6.72.4 1 1.3.6 2.04zm5.3 2.9c-.4.7-1.32.98-2.04.58-.74-.4-1-1.3-.6-2.03.4-.72 1.3-1 2.02-.6.73.4 1 1.32.6 2.05zm5.28 2.87c-.4.73-1.3 1-2.03.6-.72-.4-1-1.3-.6-2.03.4-.73 1.3-1 2.04-.6s1 1.3.6 2.03zm5.3 2.9c-.4.72-1.3 1-2.04.6-.73-.4-1-1.32-.6-2.05.4-.72 1.3-1 2.04-.6.72.4 1 1.3.6 2.04zm5.28 2.88c-.4.74-1.3 1-2.04.6-.72-.4-1-1.3-.6-2.03.4-.73 1.32-1 2.04-.6.73.4 1 1.3.6 2.04zm5.3 2.9c-.4.72-1.32 1-2.05.6-.73-.4-1-1.3-.6-2.04.4-.73 1.3-1 2.04-.6.73.4 1 1.3.6 2.04zm5.27 2.88c-.4.73-1.3 1-2.03.6-.73-.4-1-1.3-.6-2.03.4-.73 1.3-1 2.04-.6.72.4 1 1.3.6 2.03zm5.3 2.9c-.4.72-1.32 1-2.05.6-.72-.4-1-1.32-.6-2.05.4-.72 1.32-1 2.04-.6.73.4 1 1.32.6 2.04zm5.28 2.88c-.4.73-1.3 1-2.04.6s-1-1.3-.6-2.04c.4-.73 1.3-1 2.03-.6.73.4 1 1.3.6 2.04zm5.28 2.9c-.38.7-1.3.98-2.02.58-.73-.4-1-1.3-.6-2.03.4-.72 1.3-1 2.04-.6.72.4 1 1.32.6 2.05zm5.3 2.87c-.4.73-1.3 1-2.04.6-.72-.4-1-1.3-.6-2.03.4-.73 1.3-1 2.04-.6.73.4 1 1.3.6 2.03zm5.3 2.9c-.4.72-1.32 1-2.05.6-.73-.4-1-1.32-.6-2.05.4-.72 1.3-1 2.04-.6.72.4.98 1.32.6 2.04zm5.27 2.88c-.4.74-1.3 1-2.03.6-.73-.4-1-1.3-.6-2.03.4-.73 1.3-1 2.03-.6.73.4 1 1.3.6 2.04zm5.3 2.9c-.4.72-1.32 1-2.05.6-.72-.4-1-1.3-.6-2.04.4-.73 1.3-1 2.04-.6.73.4 1 1.3.6 2.04zm5.27 2.9c-.4.7-1.3.98-2.03.58-.72-.4-1-1.3-.6-2.03.4-.73 1.32-1 2.05-.6.72.4 1 1.3.6 2.04zm5.3 2.87c-.4.73-1.32 1-2.04.6-.73-.4-1-1.3-.6-2.04.4-.72 1.3-1 2.03-.6.73.4 1 1.32.6 2.04zm5.28 2.9c-.4.72-1.3.98-2.04.6-.73-.4-1-1.32-.6-2.05.4-.72 1.3-1 2.04-.6.73.4 1 1.3.6 2.04zm5.28 2.88c-.4.73-1.3 1-2.03.6-.73-.4-1-1.3-.6-2.04.4-.72 1.3-.98 2.04-.6.73.4 1 1.32.6 2.05zm5.3 2.9c-.4.7-1.32.98-2.05.58-.72-.4-1-1.3-.6-2.03.4-.73 1.32-1 2.04-.6s1 1.3.6 2.04zm5.28 2.87c-.4.73-1.3 1-2.04.6-.73-.4-1-1.3-.6-2.04.4-.72 1.3-1 2.04-.6.73.4 1 1.32.6 2.04zm5.28 2.9c-.4.72-1.3 1-2.03.6-.73-.4-1-1.32-.6-2.05.4-.72 1.3-1 2.04-.6.72.4 1 1.3.6 2.04zm5.3 2.88c-.4.73-1.32 1-2.05.6-.7-.4-.98-1.3-.58-2.04.4-.73 1.3-1 2.03-.6.73.4 1 1.3.6 2.04zm5.28 2.9c-.4.7-1.3.98-2.04.58-.73-.4-1-1.3-.6-2.03.4-.73 1.3-1 2.04-.6.73.4 1 1.3.6 2.04zm5.28 2.87c-.4.73-1.3 1-2.03.6-.74-.4-1-1.3-.6-2.03.4-.73 1.3-1 2.02-.6.73.4 1 1.3.6 2.03zm5.3 2.9c-.4.72-1.32 1-2.05.6-.72-.4-1-1.32-.6-2.05.4-.72 1.3-1 2.04-.6s1 1.3.6 2.04zm5.27 2.88c-.4.73-1.3 1-2.04.6-.73-.4-1-1.3-.6-2.04.4-.72 1.3-.98 2.04-.6.72.4 1 1.32.6 2.05zm5.28 2.9c-.4.7-1.3.98-2.03.58-.73-.4-1-1.3-.6-2.03.4-.73 1.3-1 2.03-.6.73.4 1 1.3.6 2.04zm5.3 2.87c-.4.73-1.32 1-2.05.6-.73-.4-1-1.3-.6-2.03.4-.74 1.3-1 2.04-.6.73.4 1 1.3.6 2.02zm5.27 2.9c-.4.72-1.3 1-2.03.6-.73-.4-1-1.32-.6-2.05.4-.72 1.3-1 2.04-.6.72.4 1 1.3.6 2.04zm5.3 2.88c-.4.73-1.32 1-2.05.6-.72-.4-1-1.3-.6-2.04.4-.73 1.32-1 2.04-.6.73.4 1 1.3.6 2.04zm5.28 2.9c-.4.7-1.3.98-2.04.58s-1-1.3-.6-2.03c.4-.73 1.3-1 2.03-.6.73.4 1 1.3.6 2.04zm5.28 2.87c-.38.73-1.3 1-2.02.6-.73-.4-1-1.3-.6-2.03.4-.73 1.3-1 2.04-.6.72.4 1 1.3.6 2.03zm5.3 2.9c-.4.72-1.3 1-2.04.6-.72-.4-1-1.32-.6-2.05.4-.72 1.32-1 2.04-.6.73.4 1 1.32.6 2.04zm5.3 2.88c-.4.73-1.32 1-2.05.6-.73-.4-1-1.3-.6-2.04.4-.72 1.3-.98 2.04-.6.72.4.98 1.32.6 2.05zm5.27 2.9c-.4.7-1.3.98-2.03.58-.73-.4-1-1.3-.6-2.03.4-.73 1.3-1 2.04-.6.72.4 1 1.3.6 2.04zm5.3 2.88c-.4.72-1.32 1-2.05.6-.72-.4-1-1.32-.6-2.04.4-.74 1.3-1 2.04-.6.73.4 1 1.3.6 2.03zm5.27 2.88c-.4.74-1.3 1-2.03.6-.72-.4-.98-1.3-.6-2.03.4-.72 1.32-1 2.05-.6.72.4 1 1.32.6 2.04zm5.3 2.9c-.4.73-1.32 1-2.04.6-.73-.4-1-1.3-.6-2.04.4-.73 1.3-1 2.03-.6.73.4 1 1.3.6 2.04zm5.28 2.9c-.4.7-1.3.98-2.04.58-.72-.4-1-1.3-.6-2.03.4-.73 1.3-1 2.04-.6.73.4 1 1.3.6 2.04zm5.28 2.88c-.4.72-1.3 1-2.03.6-.73-.4-1-1.32-.6-2.04.4-.73 1.3-1 2.04-.6.73.4 1 1.3.6 2.04zm5.3 2.88c-.4.73-1.32 1-2.05.6-.72-.4-1-1.3-.6-2.04.4-.72 1.32-1 2.04-.6s1 1.32.6 2.04zm5.28 2.9c-.4.72-1.3 1-2.04.6-.73-.4-1-1.32-.6-2.05.4-.7 1.3-.98 2.04-.58.73.4 1 1.3.6 2.03zm5.28 2.88c-.4.73-1.3 1-2.03.6-.73-.4-1-1.3-.6-2.04.4-.73 1.3-1 2.04-.6.72.4 1 1.3.6 2.04zm5.3 2.9c-.4.7-1.32.98-2.05.58-.7-.4-.98-1.3-.58-2.03.4-.74 1.3-1 2.03-.6.73.4 1 1.3.6 2.03zm5.28 2.87c-.4.74-1.3 1-2.04.6-.73-.4-1-1.3-.6-2.02.4-.73 1.3-1 2.04-.6.73.4 1 1.3.6 2.03zm5.28 2.9c-.4.73-1.3 1-2.03.6-.74-.4-1-1.3-.6-2.04.4-.72 1.3-1 2.03-.6.72.4 1 1.3.6 2.04zm5.3 2.9c-.4.72-1.32.98-2.05.6-.72-.4-1-1.32-.6-2.05.4-.73 1.3-1 2.04-.6s1 1.3.6 2.04zm5.28 2.88c-.4.72-1.3 1-2.04.6-.73-.4-1-1.32-.6-2.04.4-.73 1.3-1 2.04-.6.73.4 1 1.3.6 2.04zm5.28 2.88c-.4.73-1.3 1-2.03.6-.73-.4-1-1.3-.6-2.03.4-.73 1.3-1 2.03-.6.73.4 1 1.3.6 2.03zm5.3 2.9c-.4.72-1.32 1-2.05.6-.72-.4-1-1.32-.6-2.05.4-.7 1.3-.98 2.04-.58.73.4 1 1.3.6 2.03zm5.27 2.88c-.4.73-1.3 1-2.03.6-.73-.4-1-1.3-.6-2.04.4-.73 1.3-1 2.04-.6.72.4 1 1.3.6 2.04zm5.3 2.9c-.4.7-1.32.98-2.04.58s-1-1.3-.6-2.03c.4-.74 1.32-1 2.04-.6.73.4 1 1.3.6 2.03zm5.28 2.87c-.4.74-1.3 1-2.04.6s-1-1.3-.6-2.02c.4-.73 1.3-1 2.03-.6.73.4 1 1.3.6 2.03zm5.28 2.9c-.38.73-1.3 1-2.02.6-.73-.4-1-1.3-.6-2.04.4-.72 1.3-1 2.04-.6.72.4 1 1.32.6 2.04zm5.3 2.9c-.4.72-1.3.98-2.04.6-.72-.4-1-1.32-.6-2.05.4-.73 1.32-1 2.04-.6.73.4 1 1.3.6 2.04zm5.3 2.88c-.4.72-1.32 1-2.05.6-.73-.4-1-1.3-.6-2.04.4-.73 1.3-1 2.04-.6.72.4.98 1.3.6 2.04zm5.27 2.88c-.4.73-1.3 1-2.03.6-.73-.4-1-1.3-.6-2.03.4-.73 1.3-1 2.04-.6.72.4 1 1.3.6 2.03zm5.3 2.9c-.4.72-1.32 1-2.05.6-.72-.4-1-1.32-.6-2.05.4-.7 1.32-.98 2.04-.58.73.4 1 1.3.6 2.03zm5.28 2.88c-.4.73-1.3 1-2.04.6-.72-.4-.98-1.3-.6-2.04.4-.73 1.32-1 2.05-.6.73.4 1 1.3.6 2.04zm5.28 2.9c-.4.7-1.3.98-2.03.58-.73-.4-1-1.3-.6-2.03.4-.74 1.3-1 2.03-.6.73.4 1 1.3.6 2.03zm5.3 2.88c-.4.72-1.32 1-2.05.6-.72-.4-1-1.32-.6-2.04.4-.73 1.3-1 2.04-.6.73.4 1 1.3.6 2.04zm5.27 2.88c-.4.73-1.3 1-2.03.6-.73-.4-1-1.3-.6-2.04.4-.72 1.3-1 2.04-.6.73.4 1 1.32.6 2.04zm5.3 2.9c-.4.72-1.32.98-2.04.6-.73-.4-1-1.32-.6-2.05.4-.72 1.3-1 2.03-.6.72.4 1 1.3.6 2.04zm5.28 2.88c-.4.73-1.3 1-2.04.6-.72-.4-1-1.3-.6-2.04.4-.73 1.3-1 2.04-.6.73.4 1 1.3.6 2.04zm2.77 7.28c-.4.73-1.3 1-2.03.6-.73-.4-1-1.3-.6-2.04.4-.72 1.3-1 2.03-.6.73.4 1 1.3.6 2.04zm-2.92 5.36c-.4.73-1.3 1-2.04.6s-1-1.3-.6-2.04c.4-.72 1.3-1 2.03-.6.73.4 1 1.32.6 2.04zm-2.93 5.37c-.4.7-1.3.98-2.04.58-.72-.4-1-1.3-.6-2.03.4-.73 1.32-1 2.04-.6.73.4 1 1.3.6 2.04zm-2.93 5.35c-.4.72-1.3 1-2.03.6-.73-.4-1-1.3-.6-2.04.4-.72 1.3-.98 2.04-.6.72.4 1 1.32.6 2.05zm-2.92 5.36c-.4.74-1.3 1-2.04.6-.7-.4-.98-1.3-.6-2.03.4-.73 1.32-1 2.05-.6.73.4 1 1.3.6 2.04zm-2.93 5.37c-.4.73-1.3 1-2.03.6-.74-.4-1-1.3-.6-2.04.4-.72 1.3-1 2.02-.6.73.4 1 1.32.6 2.04zm-2.92 5.36c-.4.73-1.3 1-2.04.6-.73-.4-1-1.3-.6-2.03.4-.73 1.3-1 2.04-.6.73.4 1 1.3.6 2.03zm-2.93 5.37c-.4.72-1.3 1-2.04.6-.72-.4-1-1.3-.6-2.04.4-.73 1.32-1 2.04-.6.73.4 1 1.3.6 2.04zm-2.93 5.36c-.4.73-1.3 1-2.03.6-.72-.4-1-1.3-.6-2.04.4-.73 1.32-1 2.05-.6.72.4 1 1.3.6 2.04zm-2.92 5.36c-.4.73-1.3 1-2.04.6-.72-.4-1-1.3-.6-2.04.4-.72 1.3-1 2.04-.6.73.4 1 1.3.6 2.04zm-2.93 5.36c-.4.73-1.32 1-2.04.6-.73-.4-1-1.3-.6-2.04.4-.72 1.3-1 2.04-.6.72.4 1 1.32.6 2.04zm-2.93 5.37c-.4.72-1.3 1-2.04.6-.73-.4-1-1.32-.6-2.04s1.3-1 2.04-.6c.73.4 1 1.32.6 2.05zm-2.93 5.36c-.4.73-1.3 1-2.03.6-.72-.4-1-1.3-.6-2.03.4-.73 1.32-1 2.04-.6.73.4 1 1.3.6 2.04zm-2.93 5.37c-.38.73-1.3 1-2.02.6-.73-.4-1-1.3-.6-2.04.4-.73 1.3-1 2.04-.6.72.4 1 1.3.6 2.04zm-2.9 5.36c-.4.73-1.32 1-2.05.6-.72-.4-1-1.3-.6-2.04.4-.73 1.3-1 2.04-.6.72.4 1 1.3.6 2.03zm-2.94 5.36c-.4.72-1.3 1-2.03.6-.73-.4-1-1.32-.6-2.04.4-.73 1.3-1 2.04-.6.72.4 1 1.3.6 2.03zm-2.92 5.36c-.4.72-1.3 1-2.04.6-.73-.4-1-1.3-.6-2.04.4-.73 1.3-1 2.04-.6.73.4 1 1.3.6 2.04zm-2.93 5.36c-.4.73-1.3 1-2.02.6-.73-.4-1-1.3-.6-2.04.4-.73 1.3-1 2.03-.6.74.4 1 1.3.6 2.04zm-2.9 5.36c-.4.73-1.32 1-2.05.6-.73-.4-1-1.3-.6-2.04.4-.72 1.3-1 2.04-.6.72.4.98 1.3.6 2.04zm-2.94 5.36c-.4.73-1.3 1-2.04.6-.72-.4-1-1.3-.6-2.04.4-.72 1.32-1 2.04-.6.73.4 1 1.32.6 2.04zm-2.93 5.37c-.4.73-1.3 1-2.03.6-.73-.4-1-1.3-.6-2.03.4-.73 1.3-1 2.04-.6.72.4 1 1.3.6 2.04zm-2.92 5.37c-.4.72-1.3 1-2.03.6-.72-.4-1-1.3-.6-2.04.4-.73 1.3-1 2.04-.6s1 1.3.6 2.04zm-7.28 2.77c-.4.73-1.3 1-2.03.6-.74-.4-1-1.3-.6-2.04.4-.72 1.3-1 2.03-.6.72.4 1 1.3.6 2.04zm-5.28-2.9c-.4.74-1.3 1-2.04.6-.72-.4-1-1.3-.6-2.03.4-.7 1.3-.98 2.04-.58.73.4 1 1.3.6 2.03zm-5.3-2.87c-.4.72-1.3 1-2.02.6-.73-.4-1-1.32-.6-2.04.4-.73 1.3-1 2.03-.6.73.4 1 1.3.6 2.04zm-5.27-2.9c-.4.74-1.3 1-2.04.6-.73-.4-1-1.3-.6-2.03.4-.73 1.3-1 2.04-.6.73.4 1 1.3.6 2.04zm-5.3-2.88c-.4.72-1.3.98-2.03.6-.72-.4-1-1.32-.6-2.05.4-.72 1.32-1 2.04-.6.73.4 1 1.3.6 2.04zm-5.28-2.9c-.4.73-1.32 1-2.04.6-.73-.4-1-1.3-.6-2.04.4-.72 1.3-1 2.04-.6.72.4 1 1.32.6 2.04zm-5.3-2.88c-.4.72-1.3 1-2.03.6-.73-.4-1-1.32-.6-2.04.4-.73 1.3-1 2.04-.6s1 1.3.6 2.04zm-5.28-2.9c-.4.73-1.3 1-2.04.6-.72-.4-1-1.3-.6-2.03.4-.74 1.32-1 2.04-.6.73.4 1 1.3.6 2.03zm-5.3-2.88c-.38.73-1.3 1-2.02.6-.73-.4-1-1.3-.6-2.04.4-.73 1.3-1 2.04-.6.72.4 1 1.3.6 2.04zm-5.27-2.9c-.4.74-1.3 1-2.04.6-.72-.4-.98-1.3-.6-2.03.4-.7 1.32-.98 2.05-.58.73.4 1 1.3.6 2.03zm-5.3-2.88c-.4.73-1.3 1-2.02.6-.73-.4-1-1.3-.6-2.03.4-.73 1.3-1 2.03-.6.73.4 1 1.3.6 2.03zm-5.28-2.88c-.4.72-1.3 1-2.03.6-.73-.4-1-1.3-.6-2.04.4-.73 1.3-1 2.04-.6.72.4 1 1.3.6 2.04zm-5.28-2.9c-.4.74-1.32 1-2.05.6-.72-.4-1-1.3-.6-2.03.4-.73 1.3-1 2.04-.6.72.4 1 1.3.6 2.04zm-5.3-2.88c-.4.73-1.3 1-2.03.6-.73-.4-1-1.3-.6-2.04.4-.72 1.3-1 2.03-.6.73.4 1 1.32.6 2.04zm-5.28-2.9c-.4.74-1.3 1-2.04.6-.73-.4-1-1.3-.6-2.02.4-.73 1.3-1 2.04-.6.73.4 1 1.3.6 2.03zm-5.3-2.87c-.4.72-1.3 1-2.03.6-.73-.4-1-1.3-.6-2.04s1.3-1 2.03-.6c.73.4 1 1.3.6 2.03zm-5.28-2.9c-.4.74-1.3 1-2.03.6-.72-.4-1-1.3-.6-2.03.4-.73 1.32-1 2.05-.6.72.4 1 1.3.6 2.04zm-5.28-2.88c-.4.73-1.3 1-2.04.6-.73-.4-1-1.3-.6-2.04.4-.7 1.3-.98 2.04-.58.73.4 1 1.3.6 2.03zm-5.3-2.9c-.4.74-1.3 1-2.03.6-.72-.4-1-1.3-.6-2.02.4-.73 1.32-1 2.04-.6.73.4 1 1.3.6 2.03zm-5.28-2.87c-.4.72-1.3 1-2.03.6-.73-.4-1-1.3-.6-2.04.4-.73 1.3-1 2.04-.6.7.4.98 1.3.58 2.04zm-5.28-2.9c-.4.74-1.3 1-2.04.6-.73-.4-1-1.3-.6-2.03.4-.73 1.3-1 2.04-.6.73.4 1 1.3.6 2.04zm-5.3-2.88c-.4.73-1.3 1-2.03.6-.72-.4-1-1.3-.6-2.04.4-.72 1.32-1 2.04-.6.74.4 1 1.3.6 2.04zm-5.28-2.9c-.4.74-1.3 1-2.03.6-.74-.4-1-1.3-.6-2.02.4-.73 1.3-1 2.03-.6.72.4 1 1.3.6 2.03zm-5.28-2.87c-.4.72-1.3 1-2.04.6-.72-.4-1-1.32-.6-2.04.4-.74 1.3-1 2.04-.6.73.4 1 1.3.6 2.03zm-5.3-2.9c-.4.74-1.3 1-2.02.6-.73-.4-1-1.3-.6-2.03.4-.73 1.3-1 2.03-.6.73.4 1 1.3.6 2.04zm-5.28-2.88c-.4.73-1.3 1-2.03.6-.73-.4-1-1.3-.6-2.04.4-.7 1.3-.98 2.04-.58.72.4 1 1.3.6 2.03zm-5.28-2.9c-.4.74-1.3 1-2.04.6-.72-.4-1-1.3-.6-2.03.4-.72 1.3-1 2.04-.6.73.4 1 1.32.6 2.04zm-5.3-2.87c-.4.72-1.3 1-2.02.6-.73-.4-1-1.32-.6-2.04.4-.73 1.3-1 2.03-.6.72.4 1 1.3.6 2.04zm-5.27-2.9c-.4.74-1.3 1-2.03.6-.73-.4-1-1.3-.6-2.03.4-.73 1.3-1 2.04-.6s1 1.3.6 2.04zm-5.28-2.88c-.4.73-1.3 1-2.04.6-.72-.4-1-1.3-.6-2.04.4-.73 1.32-1 2.04-.6.73.4 1 1.3.6 2.04zm-5.3-2.9c-.38.74-1.3 1-2.02.6-.73-.4-1-1.3-.6-2.03.4-.72 1.3-1 2.04-.6.72.4 1 1.32.6 2.04zm-5.27-2.87c-.4.72-1.3 1-2.04.6-.72-.4-.98-1.32-.6-2.04.4-.74 1.32-1 2.05-.6.73.4 1 1.3.6 2.03zm-5.3-2.9c-.4.73-1.3 1-2.03.6-.72-.4-1-1.3-.6-2.03.4-.73 1.32-1 2.04-.6.73.4 1 1.3.6 2.04zm-5.28-2.88c-.4.73-1.3 1-2.03.6-.73-.4-1-1.3-.6-2.04.4-.72 1.3-.98 2.04-.6.72.4 1 1.32.6 2.05zm-5.28-2.9c-.4.74-1.32 1-2.05.6-.73-.4-1-1.3-.6-2.03.4-.72 1.3-1 2.04-.6.72.4.98 1.32.6 2.04zm-5.3-2.88c-.4.73-1.3 1-2.03.6-.73-.4-1-1.3-.6-2.03.4-.73 1.3-1 2.03-.6.73.4 1 1.3.6 2.03zm-5.3-2.88c-.38.7-1.3.98-2.02.58-.73-.4-1-1.3-.6-2.03.4-.73 1.3-1 2.04-.6.72.4 1 1.3.6 2.04zm-5.27-2.9c-.4.73-1.3 1-2.04.6-.73-.4-1-1.3-.6-2.04.4-.73 1.3-1 2.03-.6.73.4 1 1.3.6 2.04zm-5.3-2.9c-.4.74-1.3 1-2.02.6s-1-1.3-.6-2.03c.4-.72 1.32-1 2.04-.6.73.4 1 1.3.6 2.04zm-5.27-2.88c-.4.73-1.3 1-2.04.6-.73-.4-1-1.3-.6-2.03.4-.74 1.3-1 2.04-.6.73.4 1 1.3.6 2.02zm-5.3-2.88c-.4.72-1.3 1-2.03.6-.72-.4-1-1.3-.6-2.04.4-.73 1.3-1 2.04-.6.73.4 1 1.3.6 2.04zm-5.28-2.9c-.4.74-1.3 1-2.03.6-.73-.4-1-1.3-.6-2.03.4-.72 1.3-.98 2.04-.6.7.4.98 1.32.58 2.05zm-5.28-2.88c-.4.73-1.3 1-2.04.6-.73-.4-1-1.3-.6-2.04.4-.72 1.3-1 2.04-.6.73.4 1 1.3.6 2.04zm-5.3-2.9c-.4.74-1.3 1-2.03.6-.72-.4-1-1.3-.6-2.02.4-.73 1.32-1 2.04-.6.74.4 1 1.3.6 2.03zm-5.28-2.87c-.4.7-1.3.98-2.03.58-.74-.4-1-1.3-.6-2.03.4-.73 1.3-1 2.03-.6.72.4 1 1.3.6 2.04zm-5.28-2.9c-.4.73-1.3 1-2.04.6-.73-.4-1-1.3-.6-2.04.4-.73 1.3-1 2.04-.6.73.4 1 1.3.6 2.04zm-5.3-2.9c-.4.74-1.3 1-2.02.6-.73-.4-1-1.3-.6-2.03.4-.72 1.3-1 2.03-.6.73.4 1 1.3.6 2.04zm-5.28-2.88c-.4.73-1.3 1-2.03.6-.73-.4-1-1.3-.6-2.03.4-.74 1.3-1 2.04-.6.72.4 1 1.3.6 2.02zm-5.28-2.88c-.4.72-1.3 1-2.04.6-.72-.4-1-1.32-.6-2.04.4-.73 1.3-1 2.04-.6.73.4 1 1.3.6 2.04zm-5.3-2.9c-.4.74-1.3 1-2.02.6-.73-.4-1-1.3-.6-2.03.4-.72 1.3-.98 2.03-.6.72.4 1 1.32.6 2.05zm-5.27-2.88c-.4.73-1.3 1-2.03.6-.73-.4-1-1.3-.6-2.04.4-.72 1.3-1 2.04-.6.73.4 1 1.3.6 2.04zm-5.28-2.9c-.4.74-1.3 1-2.04.6-.72-.4-1-1.3-.6-2.03.4-.72 1.3-1 2.04-.6.73.4 1 1.32.6 2.04zm-5.3-2.87c-.38.7-1.3.98-2.02.58-.73-.4-1-1.3-.6-2.03.4-.73 1.3-1 2.04-.6.72.4 1 1.3.6 2.04zm-5.27-2.9c-.4.72-1.3 1-2.04.6-.72-.4-.98-1.3-.6-2.04.4-.73 1.32-1 2.05-.6.73.4 1 1.3.6 2.04zm-5.3-2.9c-.4.74-1.3 1-2.03.6-.72-.4-1-1.3-.6-2.03.4-.73 1.32-1 2.04-.6.73.4 1 1.3.6 2.04zm-5.28-2.88c-.4.73-1.3 1-2.03.6-.73-.4-1-1.3-.6-2.04.4-.72 1.3-1 2.04-.6.72.4 1 1.32.6 2.04zm-5.28-2.88c-.4.72-1.32 1-2.05.6-.73-.4-1-1.32-.6-2.04.4-.73 1.3-1 2.04-.6.72.4.98 1.3.6 2.04zm-5.3-2.9c-.4.73-1.3 1-2.04.6-.72-.4-1-1.3-.6-2.03.4-.72 1.32-1 2.04-.6.73.4 1 1.32.6 2.05zm-5.3-2.88c-.38.73-1.3 1-2.02.6-.73-.4-1-1.3-.6-2.04.4-.73 1.3-1 2.04-.6.72.4 1 1.3.6 2.04zm-5.27-2.9c-.4.74-1.3 1-2.04.6s-1-1.3-.6-2.03c.4-.72 1.3-1 2.03-.6.73.4 1 1.32.6 2.04zm-5.3-2.88c-.4.73-1.3 1-2.02.6s-1-1.3-.6-2.03c.4-.73 1.32-1 2.04-.6.73.4 1 1.3.6 2.03zm-5.28-2.88c-.4.72-1.3 1-2.03.6-.73-.4-1-1.3-.6-2.04.4-.73 1.3-1 2.04-.6.72.4 1 1.3.6 2.04zm-5.28-2.9c-.4.74-1.3 1-2.04.6-.72-.4-1-1.3-.6-2.03.4-.73 1.3-1 2.04-.6.73.4 1 1.3.6 2.04zm-5.3-2.88c-.4.73-1.3 1-2.02.6-.73-.4-1-1.3-.6-2.04.4-.72 1.3-1 2.03-.6.73.4 1 1.3.6 2.04zm-5.27-2.9c-.4.74-1.3 1-2.04.6-.73-.4-1-1.3-.6-2.02.4-.73 1.3-1 2.04-.6.73.4 1 1.3.6 2.03zm-5.3-2.87c-.4.72-1.3 1-2.03.6-.72-.4-1-1.3-.6-2.04.4-.72 1.32-1 2.04-.6.74.4 1 1.32.6 2.05zm-5.28-2.9c-.4.74-1.3 1-2.03.6-.74-.4-1-1.3-.6-2.03.4-.73 1.3-1 2.03-.6.72.4 1 1.3.6 2.04zm-5.28-2.88c-.4.73-1.3 1-2.04.6-.73-.4-1-1.3-.6-2.04.4-.72 1.3-1 2.04-.6.73.4 1 1.3.6 2.04zm-5.3-2.9c-.4.74-1.3 1-2.03.6-.7-.4-.98-1.3-.58-2.02.4-.73 1.3-1 2.03-.6.73.4 1 1.3.6 2.03zm-5.28-2.87c-.4.72-1.3 1-2.03.6-.73-.4-1-1.32-.6-2.04.4-.73 1.3-1 2.04-.6.72.4 1 1.3.6 2.04zm-5.28-2.9c-.4.74-1.3 1-2.04.6-.73-.4-1-1.3-.6-2.03.4-.73 1.3-1 2.04-.6.73.4 1 1.3.6 2.04zm-5.3-2.88c-.4.73-1.3 1-2.02.6-.73-.4-1-1.3-.6-2.04.4-.72 1.3-1 2.03-.6.72.4 1 1.3.6 2.04zm-5.28-2.9c-.4.74-1.3 1-2.03.6-.73-.4-1-1.3-.6-2.03.4-.73 1.3-1 2.04-.6.73.4 1 1.3.6 2.03zm-5.28-2.87c-.4.72-1.3 1-2.04.6-.72-.4-1-1.32-.6-2.04s1.3-1 2.04-.6c.73.4 1 1.32.6 2.05zm-5.3-2.9c-.4.74-1.3 1-2.02.6-.73-.4-1-1.3-.6-2.03.4-.73 1.3-1 2.03-.6.73.4 1 1.3.6 2.04zm-5.27-2.88c-.4.73-1.3 1-2.04.6-.72-.4-.98-1.3-.6-2.04.4-.72 1.32-1 2.05-.6.73.4 1 1.3.6 2.04zm-5.3-2.9c-.4.74-1.3 1-2.03.6-.72-.4-1-1.3-.6-2.03.4-.72 1.3-1 2.04-.6.73.4 1 1.32.6 2.04zm-5.28-2.87c-.4.72-1.3 1-2.03.6-.73-.4-1-1.32-.6-2.04.4-.73 1.3-1 2.04-.6.72.4 1 1.3.6 2.04zm-5.28-2.9c-.4.73-1.32 1-2.05.6-.73-.4-1-1.3-.6-2.03.4-.73 1.3-1 2.04-.6.72.4.98 1.3.6 2.04zm-5.3-2.88c-.4.73-1.3 1-2.04.6-.72-.4-1-1.3-.6-2.04.4-.73 1.32-1 2.04-.6.73.4 1 1.3.6 2.04zm-5.3-2.9c-.38.74-1.3 1-2.02.6-.73-.4-1-1.3-.6-2.03.4-.73 1.3-1 2.04-.6.72.4 1 1.3.6 2.03zm-5.27-2.88c-.4.73-1.3 1-2.04.6s-1-1.3-.6-2.03c.4-.72 1.3-1 2.03-.6.73.4 1 1.32.6 2.04zm-5.3-2.88c-.4.72-1.3 1-2.03.6-.72-.4-1-1.3-.6-2.04.4-.73 1.32-1 2.04-.6.73.4 1 1.3.6 2.04zm-5.28-2.9c-.4.74-1.3 1-2.03.6-.73-.4-1-1.3-.6-2.03.4-.73 1.3-1 2.04-.6.72.4 1 1.3.6 2.04zm-5.28-2.88c-.4.73-1.3 1-2.04.6-.72-.4-1-1.3-.6-2.04.4-.72 1.3-1 2.04-.6.73.4 1 1.3.6 2.04zm-5.3-2.9c-.4.74-1.3 1-2.02.6-.73-.4-1-1.3-.6-2.02.4-.73 1.3-1 2.03-.6.73.4 1 1.3.6 2.03zm-5.28-2.87c-.4.73-1.3 1-2.04.6-.73-.4-1-1.3-.6-2.03.4-.73 1.3-1 2.04-.6.72.4 1 1.3.6 2.04zm-5.3-2.88c-.4.73-1.3 1-2.03.6-.72-.4-1-1.3-.6-2.04.4-.73 1.3-1 2.04-.6s1 1.3.6 2.04zm-5.28-2.9c-.4.74-1.3 1-2.03.6-.74-.4-1-1.3-.6-2.03.4-.73 1.3-1 2.03-.6.72.4 1 1.3.6 2.03zm-5.28-2.88c-.4.73-1.3 1-2.04.6-.73-.4-1-1.3-.6-2.03.4-.72 1.3-1 2.04-.6.73.4 1 1.32.6 2.04zm-5.3-2.88c-.4.72-1.3 1-2.03.6-.7-.4-.98-1.32-.58-2.04.4-.73 1.3-1 2.03-.6.73.4 1 1.3.6 2.04zm-5.28-2.9c-.4.74-1.3 1-2.03.6-.73-.4-1-1.3-.6-2.03.4-.73 1.3-1 2.04-.6.72.4 1 1.3.6 2.04zm-5.28-2.88c-.4.73-1.3 1-2.04.6-.73-.4-1-1.3-.6-2.04.4-.72 1.3-1 2.04-.6.73.4 1 1.3.6 2.04zm-5.3-2.9c-.4.74-1.3 1-2.03.6-.72-.4-1-1.3-.6-2.02.4-.73 1.32-1 2.04-.6s1 1.3.6 2.03zm-5.28-2.87c-.4.73-1.3 1-2.03.6-.73-.4-1-1.3-.6-2.03.4-.73 1.3-1 2.04-.6.73.4 1 1.3.6 2.04zm-5.28-2.88c-.4.73-1.3 1-2.04.6-.73-.4-1-1.3-.6-2.04.4-.73 1.3-1 2.04-.6.73.4 1 1.3.6 2.04zm-5.3-2.9c-.4.74-1.3 1-2.02.6-.73-.4-1-1.3-.6-2.03.4-.73 1.3-1 2.03-.6.73.4 1 1.3.6 2.03zm-5.28-2.88c-.4.73-1.3 1-2.03.6-.72-.4-1-1.3-.6-2.04.4-.72 1.32-1 2.05-.6.72.4 1 1.32.6 2.04zm-5.28-2.88c-.4.72-1.3 1-2.04.6-.72-.4-1-1.32-.6-2.04.4-.73 1.3-1 2.04-.6.73.4 1 1.3.6 2.04zm-5.3-2.9c-.4.73-1.3 1-2.02.6-.73-.4-1-1.3-.6-2.03.4-.73 1.3-1 2.03-.6.73.4 1 1.3.6 2.04zm-2.76-7.28c-.4.73-1.3 1-2.04.6-.72-.4-1-1.3-.6-2.03.4-.73 1.3-1 2.04-.6.73.4 1 1.3.6 2.03zm2.92-5.36c-.4.73-1.3 1-2.03.6-.74-.4-1-1.3-.6-2.04.4-.72 1.3-1 2.03-.6.72.4 1 1.32.6 2.04zm2.93-5.36c-.4.73-1.3 1-2.04.6-.7-.4-.98-1.3-.58-2.04.4-.73 1.3-1 2.03-.6.73.4 1 1.3.6 2.04zm2.93-5.36c-.4.73-1.3 1-2.04.6-.73-.4-1-1.3-.6-2.04.4-.73 1.3-1 2.04-.6.73.4 1 1.3.6 2.04zm2.92-5.36c-.4.72-1.3 1-2.03.6-.73-.4-1-1.32-.6-2.04.4-.73 1.3-1 2.03-.6.73.4 1 1.3.6 2.04zm2.93-5.37c-.4.73-1.3 1-2.04.6-.73-.4-1-1.3-.6-2.03.4-.73 1.3-1 2.03-.6.73.4 1 1.3.6 2.03zm2.92-5.36c-.4.74-1.3 1-2.03.6-.73-.4-1-1.3-.6-2.03.4-.72 1.3-1 2.04-.6.72.4 1 1.3.6 2.04zm2.93-5.35c-.4.73-1.3 1-2.04.6-.72-.4-1-1.3-.6-2.04.4-.72 1.32-.98 2.04-.6.73.4 1 1.32.6 2.05zm2.93-5.36c-.4.7-1.3.98-2.03.58-.73-.4-1-1.3-.6-2.03.4-.73 1.3-1 2.04-.6s1 1.3.6 2.04zm2.93-5.38c-.4.73-1.3 1-2.03.6-.73-.4-1-1.3-.6-2.03.4-.74 1.3-1 2.03-.6.73.4 1 1.3.6 2.02zm2.93-5.36c-.4.73-1.3 1-2.04.6-.73-.4-1-1.3-.6-2.04.4-.72 1.3-1 2.04-.6.73.4 1 1.32.6 2.04zm2.92-5.36c-.4.73-1.3 1-2.03.6-.73-.4-1-1.3-.6-2.04.4-.72 1.3-1 2.04-.6.7.4.98 1.3.58 2.04zm2.93-5.36c-.4.73-1.3 1-2.03.6-.72-.4-1-1.3-.6-2.04.4-.73 1.3-1 2.04-.6s1 1.3.6 2.04zm2.93-5.36c-.4.72-1.3 1-2.03.6-.73-.4-1-1.32-.6-2.04.4-.73 1.3-1 2.04-.6.72.4 1 1.3.6 2.04zm2.93-5.37c-.4.74-1.3 1-2.04.6-.72-.4-1-1.3-.6-2.02.4-.73 1.32-1 2.04-.6.73.4 1 1.3.6 2.03zm2.93-5.35c-.4.73-1.32 1-2.05.6-.73-.4-1-1.3-.6-2.04.4-.7 1.3-.98 2.04-.58.72.4.98 1.3.6 2.03zm2.9-5.36c-.38.72-1.3.98-2.02.6-.73-.4-1-1.32-.6-2.05.4-.73 1.3-1 2.04-.6.72.4 1 1.3.6 2.04zm2.94-5.37c-.4.72-1.3 1-2.04.6-.72-.4-1-1.3-.6-2.04s1.3-1 2.04-.6c.73.4 1 1.3.6 2.03zm2.92-5.36c-.4.72-1.3 1-2.03.6-.73-.4-1-1.32-.6-2.04.4-.73 1.3-1 2.04-.6.72.4 1 1.3.6 2.04zm2.93-5.37c-.4.73-1.32 1-2.05.6-.72-.4-1-1.3-.6-2.04.4-.72 1.32-1 2.04-.6s1 1.32.6 2.04zm2.92-5.36c-.4.73-1.3 1-2.04.6-.73-.4-1-1.3-.6-2.04.4-.72 1.3-1 2.04-.6.73.4 1 1.3.6 2.04zm2.92-5.36c-.4.73-1.3 1-2.03.6-.72-.4-1-1.3-.6-2.04.4-.73 1.32-1 2.04-.6.73.4 1 1.3.6 2.04z" fill="#188fff"/></g><g><use xlink:href="#C" transform="matrix(0.8775483363614779,0.47948818270026483,-0.47948818270026483,0.8775483363614779,385.692517660152,-793.7209536482775) translate(0 20.627170138888886)"/><use xlink:href="#D" transform="matrix(0.8775483363614779,0.47948818270026483,-0.47948818270026483,0.8775483363614779,385.692517660152,-793.7209536482775) translate(0 46.495225694444436)"/><use xlink:href="#D" transform="matrix(0.8775483363614779,0.47948818270026483,-0.47948818270026483,0.8775483363614779,385.692517660152,-793.7209536482775) translate(0 72.36328124999999)"/><use xlink:href="#E" transform="matrix(0.8775483363614779,0.47948818270026483,-0.47948818270026483,0.8775483363614779,385.692517660152,-793.7209536482775) translate(0 98.23133680555554)"/><use xlink:href="#F" transform="matrix(0.8775483363614779,0.47948818270026483,-0.47948818270026483,0.8775483363614779,385.692517660152,-793.7209536482775) translate(0 124.09939236111109)"/><use xlink:href="#G" transform="matrix(0.8775483363614779,0.47948818270026483,-0.47948818270026483,0.8775483363614779,385.692517660152,-793.7209536482775) translate(386.7296006944445 124.09939236111109)"/><use xlink:href="#H" transform="matrix(0.8775483363614779,0.47948818270026483,-0.47948818270026483,0.8775483363614779,385.692517660152,-793.7209536482775) translate(480.07812500000006 124.09939236111109)"/></g><path d="M599.15-660.3c17.34 0 31.4 15.02 31.4 33.53 0 18.52-14.06 33.53-31.4 33.53h-94.2c-17.34 0-31.4-15-31.4-33.53 0-18.5 14.06-33.53 31.4-33.53z" fill-opacity="0"/><path d="M601.15-660.3c0 1.1-.9 2-2 2s-2-.9-2-2 .9-2 2-2 2 .9 2 2zm8.38 1.23c0 1.1-.9 2-2 2s-2-.9-2-2 .9-2 2-2 2 .9 2 2zm7.68 3.55c0 1.1-.88 2-2 2-1.1 0-2-.9-2-2s.9-2 2-2c1.12 0 2 .9 2 2zm6.45 5.5c0 1.1-.9 2-2 2s-2-.9-2-2 .9-2 2-2 2 .9 2 2zm4.84 6.93c0 1.1-.9 2-2 2s-2-.9-2-2 .9-2 2-2 2 .9 2 2zm3.03 7.92c0 1.1-.9 2-2 2s-2-.9-2-2 .9-2 2-2 2 .9 2 2zm1.02 8.4c0 1.12-.9 2-2 2s-2-.88-2-2c0-1.1.9-2 2-2s2 .9 2 2zm-1.1 8.42c0 1.1-.9 2-2 2s-2-.9-2-2 .9-2 2-2 2 .9 2 2zm-2.95 7.92c0 1.1-.9 2-2 2s-2-.9-2-2 .9-2 2-2 2 .9 2 2zm-4.8 6.98c0 1.1-.9 2-2 2s-2-.9-2-2 .9-2 2-2 2 .9 2 2zm-6.5 5.43c0 1.1-.9 2-2 2s-2-.9-2-2 .9-2 2-2 2 .9 2 2zm-7.7 3.5c0 1.1-.9 2-2 2s-2-.9-2-2 .9-2 2-2 2 .9 2 2zm-8.35 1.3c0 1.1-.9 2-2 2s-2-.9-2-2 .9-2 2-2 2 .9 2 2zm-7.85 0c0 1.1-.9 2-2 2s-2-.9-2-2 .9-2 2-2 2 .9 2 2zm-7.85 0c0 1.1-.9 2-2 2s-2-.9-2-2 .9-2 2-2 2 .9 2 2zm-7.85 0c0 1.1-.9 2-2 2s-2-.9-2-2 .9-2 2-2 2 .9 2 2zm-7.85 0c0 1.1-.9 2-2 2s-2-.9-2-2 .9-2 2-2 2 .9 2 2zm-7.85 0c0 1.1-.9 2-2 2s-2-.9-2-2 .9-2 2-2 2 .9 2 2zm-7.85 0c0 1.1-.9 2-2 2s-2-.9-2-2 .9-2 2-2 2 .9 2 2zm-7.85 0c0 1.1-.9 2-2 2s-2-.9-2-2 .9-2 2-2 2 .9 2 2zm-7.85 0c0 1.1-.9 2-2 2s-2-.9-2-2 .9-2 2-2 2 .9 2 2zm-7.85 0c0 1.1-.9 2-2 2s-2-.9-2-2 .9-2 2-2 2 .9 2 2zm-7.85 0c0 1.1-.9 2-2 2s-2-.9-2-2 .9-2 2-2 2 .9 2 2zm-7.85 0c0 1.1-.9 2-2 2s-2-.9-2-2 .9-2 2-2 2 .9 2 2zm-7.85 0c0 1.1-.9 2-2 2s-2-.9-2-2 .9-2 2-2 2 .9 2 2zm-8.38-1.24c0 1.1-.9 2-2 2s-2-.9-2-2 .9-2 2-2 2 .9 2 2zm-7.7-3.54c0 1.1-.88 2-2 2-1.1 0-2-.9-2-2 0-1.12.9-2 2-2 1.12 0 2 .88 2 2zm-6.42-5.5c0 1.1-.9 2-2 2s-2-.9-2-2 .9-2 2-2 2 .9 2 2zm-4.85-6.94c0 1.1-.9 2-2 2s-2-.9-2-2 .9-2 2-2 2 .9 2 2zm-3.03-7.9c0 1.1-.9 2-2 2s-2-.9-2-2 .9-2 2-2 2 .9 2 2zm-1.02-8.43c0 1.1-.9 2-2 2s-2-.9-2-2 .9-2 2-2 2 .9 2 2zm1.1-8.4c0 1.1-.9 2-2 2s-2-.9-2-2 .9-2 2-2 2 .9 2 2zm2.95-7.93c0 1.1-.9 2-2 2s-2-.9-2-2 .9-2 2-2 2 .9 2 2zm4.8-6.97c0 1.1-.9 2-2 2s-2-.9-2-2 .9-2 2-2 2 .9 2 2zm6.5-5.44c0 1.1-.9 2-2 2s-2-.9-2-2 .9-2 2-2 2 .9 2 2zm7.7-3.5c0 1.1-.9 2-2 2-1.12 0-2-.9-2-2 0-1.12.88-2 2-2 1.1 0 2 .88 2 2zm8.35-1.3c0 1.1-.9 2-2 2s-2-.9-2-2 .9-2 2-2 2 .9 2 2zm7.85 0c0 1.1-.9 2-2 2s-2-.9-2-2 .9-2 2-2 2 .9 2 2zm7.85 0c0 1.1-.9 2-2 2s-2-.9-2-2 .9-2 2-2 2 .9 2 2zm7.85 0c0 1.1-.9 2-2 2s-2-.9-2-2 .9-2 2-2 2 .9 2 2zm7.85 0c0 1.1-.9 2-2 2s-2-.9-2-2 .9-2 2-2 2 .9 2 2zm7.85 0c0 1.1-.9 2-2 2s-2-.9-2-2 .9-2 2-2 2 .9 2 2zm7.85 0c0 1.1-.9 2-2 2s-2-.9-2-2 .9-2 2-2 2 .9 2 2zm7.85 0c0 1.1-.9 2-2 2s-2-.9-2-2 .9-2 2-2 2 .9 2 2zm7.85 0c0 1.1-.9 2-2 2s-2-.9-2-2 .9-2 2-2 2 .9 2 2zm7.85 0c0 1.1-.9 2-2 2s-2-.9-2-2 .9-2 2-2 2 .9 2 2zm7.85 0c0 1.1-.9 2-2 2s-2-.9-2-2 .9-2 2-2 2 .9 2 2zm7.85 0c0 1.1-.9 2-2 2s-2-.9-2-2 .9-2 2-2 2 .9 2 2z" fill="#188fff"/><g><use xlink:href="#I" transform="matrix(1,0,0,1,478.5490196078434,-655.2968691428606) translate(33.09342447916668 35.33344184027777)"/></g><defs><path fill="#333" d="M373-604V0H186v-1462h357c347 0 520 138 520 415 0 191-96 322-289 392L1171 0H952L602-604H373zm497-434c0-207-118-263-338-265H373v541h164c215-1 333-70 333-276" id="J"/><path fill="#333" d="M596-1118c288 2 430 92 430 366V0H895l-37-152h-8C752-34 680 17 483 20 272 23 135-98 135-307c0-221 170-337 510-348l203-7c15-197-55-305-244-305-98 0-207 27-328 82l-63-137c131-64 258-96 383-96zm-72 991c194 0 325-116 322-311v-99c-251 15-522-6-522 232 0 119 67 178 200 178" id="K"/><path fill="#333" d="M172-543c0-365 197-575 553-575 119 0 231 20 336 59l-62 158c-100-38-189-57-268-57-247 0-371 138-371 413 0 271 120 406 361 406 105 0 212-21 321-62v160C953 0 843 20 713 20c-347 1-541-210-541-563" id="L"/><path fill="#333" d="M383-553l135-152 395-393h222L641-623 1163 0H950L524-504l-129 82V0H215v-1556h180c-3 337 9 689-16 1003h4" id="M"/><path fill="#333" d="M758 0H582c3-449-8-824 8-1274-61 68-188 168-268 234l-97-123 383-299h150V0" id="N"/><g id="d"><use transform="matrix(0.011935763888888886,0,0,0.011935763888888886,0,0)" xlink:href="#J"/><use transform="matrix(0.011935763888888886,0,0,0.011935763888888886,14.669053819444441,0)" xlink:href="#K"/><use transform="matrix(0.011935763888888886,0,0,0.011935763888888886,29.338107638888882,0)" xlink:href="#L"/><use transform="matrix(0.011935763888888886,0,0,0.011935763888888886,44.00716145833332,0)" xlink:href="#M"/><use transform="matrix(0.011935763888888886,0,0,0.011935763888888886,58.676215277777764,0)" xlink:href="#N"/></g><path fill="#333" d="M594-1483c248 0 420 149 418 391 0 79-21 160-59 244-73 161-414 504-572 674v8h688V0H158v-156c172-193 489-508 607-698 43-69 62-147 62-231 0-146-91-244-235-244-107 0-213 46-318 137l-102-119c128-115 269-172 422-172" id="O"/><g id="e"><use transform="matrix(0.011935763888888886,0,0,0.011935763888888886,0,0)" xlink:href="#J"/><use transform="matrix(0.011935763888888886,0,0,0.011935763888888886,14.669053819444441,0)" xlink:href="#K"/><use transform="matrix(0.011935763888888886,0,0,0.011935763888888886,29.338107638888882,0)" xlink:href="#L"/><use transform="matrix(0.011935763888888886,0,0,0.011935763888888886,44.00716145833332,0)" xlink:href="#M"/><use transform="matrix(0.011935763888888886,0,0,0.011935763888888886,58.676215277777764,0)" xlink:href="#O"/></g><path fill="#188fff" d="M1137-424C1137-153 941 0 662 0H135v-1462c284 7 685-30 837 88 80 62 124 152 124 282 0 179-125 297-291 316v10c221 36 332 150 332 342zm-232-655c0-182-120-224-319-224H322v461h284c195-2 299-53 299-237zM322-686v528h307c207 0 311-91 311-274 0-169-108-254-324-254H322" id="P"/><path fill="#188fff" d="M1112-551c0 331-186 571-502 571-301 0-495-251-495-571 0-330 184-567 501-567 302 0 496 249 496 567zM614-131c207 0 310-140 310-420 0-277-104-416-312-416-206 0-309 139-309 416 0 280 104 420 311 420" id="Q"/><path fill="#188fff" d="M383-553l135-152 395-393h222L641-623 1163 0H950L524-504l-129 82V0H215v-1556h180c-3 337 9 689-16 1003h4" id="R"/><path fill="#188fff" d="M739-1436c0 71-43 115-106 115-71 0-107-38-107-115 0-76 36-114 107-114s106 38 106 114zM541-954l-269-21v-123h451v955l352 20V0H197v-123l344-20v-811" id="S"/><path fill="#188fff" d="M631-1118c283 0 470 204 465 491v113H322c5 250 120 375 344 375 130 0 253-25 370-76v160C925-5 804 20 672 20c-329 0-539-224-539-561 0-331 182-577 498-577zM326-662h573c0-203-91-305-272-305-183 0-284 102-301 305" id="T"/><path fill="#188fff" d="M1075-471c0 288-166 493-444 491-145 0-261-56-347-168S154-420 154-625c0-572 213-858 639-858 69 0 127 6 172 19v155c-47-16-103-24-166-24-149 0-262 47-337 141S347-949 340-745h12c63-113 166-170 307-170 262 0 416 178 416 444zM629-133c183-3 270-141 270-338 0-183-88-297-264-301-154-4-299 123-299 266 0 185 113 376 293 373" id="U"/><g id="f"><use transform="matrix(0.010959201388888886,0,0,0.010959201388888886,0,0)" xlink:href="#P"/><use transform="matrix(0.010959201388888886,0,0,0.010959201388888886,13.468858506944441,0)" xlink:href="#Q"/><use transform="matrix(0.010959201388888886,0,0,0.010959201388888886,26.937717013888882,0)" xlink:href="#Q"/><use transform="matrix(0.010959201388888886,0,0,0.010959201388888886,40.40657552083332,0)" xlink:href="#R"/><use transform="matrix(0.010959201388888886,0,0,0.010959201388888886,53.875434027777764,0)" xlink:href="#S"/><use transform="matrix(0.010959201388888886,0,0,0.010959201388888886,67.3442925347222,0)" xlink:href="#T"/><use transform="matrix(0.010959201388888886,0,0,0.010959201388888886,80.81315104166664,0)" xlink:href="#U"/></g><path fill="#fff" d="M1137-424C1137-153 941 0 662 0H135v-1462c284 7 685-30 837 88 80 62 124 152 124 282 0 179-125 297-291 316v10c221 36 332 150 332 342zm-232-655c0-182-120-224-319-224H322v461h284c195-2 299-53 299-237zM322-686v528h307c207 0 311-91 311-274 0-169-108-254-324-254H322" id="V"/><path fill="#fff" d="M1112-551c0 331-186 571-502 571-301 0-495-251-495-571 0-330 184-567 501-567 302 0 496 249 496 567zM614-131c207 0 310-140 310-420 0-277-104-416-312-416-206 0-309 139-309 416 0 280 104 420 311 420" id="W"/><path fill="#fff" d="M383-553l135-152 395-393h222L641-623 1163 0H950L524-504l-129 82V0H215v-1556h180c-3 337 9 689-16 1003h4" id="X"/><path fill="#fff" d="M739-1436c0 71-43 115-106 115-71 0-107-38-107-115 0-76 36-114 107-114s106 38 106 114zM541-954l-269-21v-123h451v955l352 20V0H197v-123l344-20v-811" id="Y"/><path fill="#fff" d="M631-1118c283 0 470 204 465 491v113H322c5 250 120 375 344 375 130 0 253-25 370-76v160C925-5 804 20 672 20c-329 0-539-224-539-561 0-331 182-577 498-577zM326-662h573c0-203-91-305-272-305-183 0-284 102-301 305" id="Z"/><path fill="#fff" d="M334 0l563-1296H143v-166h940v145L528 0H334" id="aa"/><g id="g"><use transform="matrix(0.010959201388888886,0,0,0.010959201388888886,0,0)" xlink:href="#V"/><use transform="matrix(0.010959201388888886,0,0,0.010959201388888886,13.468858506944441,0)" xlink:href="#W"/><use transform="matrix(0.010959201388888886,0,0,0.010959201388888886,26.937717013888882,0)" xlink:href="#W"/><use transform="matrix(0.010959201388888886,0,0,0.010959201388888886,40.40657552083332,0)" xlink:href="#X"/><use transform="matrix(0.010959201388888886,0,0,0.010959201388888886,53.875434027777764,0)" xlink:href="#Y"/><use transform="matrix(0.010959201388888886,0,0,0.010959201388888886,67.3442925347222,0)" xlink:href="#Z"/><use transform="matrix(0.010959201388888886,0,0,0.010959201388888886,80.81315104166664,0)" xlink:href="#aa"/></g><path fill="#333" d="M1010-1120c0 200-132 322-316 350v6c241 31 361 147 361 348 0 294-219 436-537 436-161 0-290-26-387-79v-170c123 64 250 96 383 96 236 0 354-96 354-289 0-172-127-258-381-258H354v-151h133c195 4 334-97 336-277 1-140-106-221-250-221-119 0-233 40-344 121l-92-125c125-100 270-150 436-150 252 0 437 128 437 363" id="ab"/><g id="i"><use transform="matrix(0.011935763888888886,0,0,0.011935763888888886,0,0)" xlink:href="#J"/><use transform="matrix(0.011935763888888886,0,0,0.011935763888888886,14.669053819444441,0)" xlink:href="#K"/><use transform="matrix(0.011935763888888886,0,0,0.011935763888888886,29.338107638888882,0)" xlink:href="#L"/><use transform="matrix(0.011935763888888886,0,0,0.011935763888888886,44.00716145833332,0)" xlink:href="#M"/><use transform="matrix(0.011935763888888886,0,0,0.011935763888888886,58.676215277777764,0)" xlink:href="#ab"/></g><path fill="#6f7681" d="M1137-424C1137-153 941 0 662 0H135v-1462c284 7 685-30 837 88 80 62 124 152 124 282 0 179-125 297-291 316v10c221 36 332 150 332 342zm-232-655c0-182-120-224-319-224H322v461h284c195-2 299-53 299-237zM322-686v528h307c207 0 311-91 311-274 0-169-108-254-324-254H322" id="ac"/><path fill="#6f7681" d="M1112-551c0 331-186 571-502 571-301 0-495-251-495-571 0-330 184-567 501-567 302 0 496 249 496 567zM614-131c207 0 310-140 310-420 0-277-104-416-312-416-206 0-309 139-309 416 0 280 104 420 311 420" id="ad"/><path fill="#6f7681" d="M383-553l135-152 395-393h222L641-623 1163 0H950L524-504l-129 82V0H215v-1556h180c-3 337 9 689-16 1003h4" id="ae"/><path fill="#6f7681" d="M739-1436c0 71-43 115-106 115-71 0-107-38-107-115 0-76 36-114 107-114s106 38 106 114zM541-954l-269-21v-123h451v955l352 20V0H197v-123l344-20v-811" id="af"/><path fill="#6f7681" d="M631-1118c283 0 470 204 465 491v113H322c5 250 120 375 344 375 130 0 253-25 370-76v160C925-5 804 20 672 20c-329 0-539-224-539-561 0-331 182-577 498-577zM326-662h573c0-203-91-305-272-305-183 0-284 102-301 305" id="ag"/><path fill="#6f7681" d="M154-991c0-288 166-494 444-492 147 0 262 57 348 171s129 272 129 474c0 572-213 858-639 858-70 0-127-6-172-18v-156c45 17 100 25 166 25 149 0 261-47 336-141s116-243 123-447h-12c-64 113-167 170-308 170-262 0-415-176-415-444zm446-338c-185 4-270 138-270 338 0 183 88 296 264 301 153 4 299-124 299-266 0-185-111-377-293-373" id="ah"/><g id="j"><use transform="matrix(0.010959201388888886,0,0,0.010959201388888886,0,0)" xlink:href="#ac"/><use transform="matrix(0.010959201388888886,0,0,0.010959201388888886,13.468858506944441,0)" xlink:href="#ad"/><use transform="matrix(0.010959201388888886,0,0,0.010959201388888886,26.937717013888882,0)" xlink:href="#ad"/><use transform="matrix(0.010959201388888886,0,0,0.010959201388888886,40.40657552083332,0)" xlink:href="#ae"/><use transform="matrix(0.010959201388888886,0,0,0.010959201388888886,53.875434027777764,0)" xlink:href="#af"/><use transform="matrix(0.010959201388888886,0,0,0.010959201388888886,67.3442925347222,0)" xlink:href="#ag"/><use transform="matrix(0.010959201388888886,0,0,0.010959201388888886,80.81315104166664,0)" xlink:href="#ah"/></g><path fill="#333" d="M1126-328H913V0H737v-328H61v-159l664-983h188v976h213v166zM737-494c1-292-4-481 13-788h-9c-24 68-55 128-90 180L240-494h497" id="ai"/><g id="k"><use transform="matrix(0.011935763888888886,0,0,0.011935763888888886,0,0)" xlink:href="#J"/><use transform="matrix(0.011935763888888886,0,0,0.011935763888888886,14.669053819444441,0)" xlink:href="#K"/><use transform="matrix(0.011935763888888886,0,0,0.011935763888888886,29.338107638888882,0)" xlink:href="#L"/><use transform="matrix(0.011935763888888886,0,0,0.011935763888888886,44.00716145833332,0)" xlink:href="#M"/><use transform="matrix(0.011935763888888886,0,0,0.011935763888888886,58.676215277777764,0)" xlink:href="#ai"/></g><path fill="#6f7681" d="M758 0H582c3-449-8-824 8-1274-61 68-188 168-268 234l-97-123 383-299h150V0" id="aj"/><path fill="#6f7681" d="M612 20c-153 0-268-65-347-194S147-489 147-733c0-501 155-752 465-752 155 0 271 64 350 193s119 316 119 559c0 502-156 753-469 753zm0-155c98 0 165-50 216-141 86-153 87-759 0-912-51-91-118-141-216-141-97 0-162 49-212 139-85 152-84 764 0 915 50 90 115 140 212 140" id="ak"/><g id="l"><use transform="matrix(0.010959201388888886,0,0,0.010959201388888886,0,0)" xlink:href="#ac"/><use transform="matrix(0.010959201388888886,0,0,0.010959201388888886,13.468858506944441,0)" xlink:href="#ad"/><use transform="matrix(0.010959201388888886,0,0,0.010959201388888886,26.937717013888882,0)" xlink:href="#ad"/><use transform="matrix(0.010959201388888886,0,0,0.010959201388888886,40.40657552083332,0)" xlink:href="#ae"/><use transform="matrix(0.010959201388888886,0,0,0.010959201388888886,53.875434027777764,0)" xlink:href="#af"/><use transform="matrix(0.010959201388888886,0,0,0.010959201388888886,67.3442925347222,0)" xlink:href="#ag"/><use transform="matrix(0.010959201388888886,0,0,0.010959201388888886,80.81315104166664,0)" xlink:href="#aj"/><use transform="matrix(0.010959201388888886,0,0,0.010959201388888886,94.28200954861109,0)" xlink:href="#ak"/></g><g id="m"><use transform="matrix(0.010959201388888886,0,0,0.010959201388888886,0,0)" xlink:href="#ac"/><use transform="matrix(0.010959201388888886,0,0,0.010959201388888886,13.468858506944441,0)" xlink:href="#ad"/><use transform="matrix(0.010959201388888886,0,0,0.010959201388888886,26.937717013888882,0)" xlink:href="#ad"/><use transform="matrix(0.010959201388888886,0,0,0.010959201388888886,40.40657552083332,0)" xlink:href="#ae"/><use transform="matrix(0.010959201388888886,0,0,0.010959201388888886,53.875434027777764,0)" xlink:href="#af"/><use transform="matrix(0.010959201388888886,0,0,0.010959201388888886,67.3442925347222,0)" xlink:href="#ag"/><use transform="matrix(0.010959201388888886,0,0,0.010959201388888886,80.81315104166664,0)" xlink:href="#aj"/><use transform="matrix(0.010959201388888886,0,0,0.010959201388888886,94.28200954861109,0)" xlink:href="#aj"/></g><path fill="#6f7681" d="M1010-1120c0 200-132 322-316 350v6c241 31 361 147 361 348 0 294-219 436-537 436-161 0-290-26-387-79v-170c123 64 250 96 383 96 236 0 354-96 354-289 0-172-127-258-381-258H354v-151h133c195 4 334-97 336-277 1-140-106-221-250-221-119 0-233 40-344 121l-92-125c125-100 270-150 436-150 252 0 437 128 437 363" id="al"/><g id="n"><use transform="matrix(0.010959201388888886,0,0,0.010959201388888886,0,0)" xlink:href="#ac"/><use transform="matrix(0.010959201388888886,0,0,0.010959201388888886,13.468858506944441,0)" xlink:href="#ad"/><use transform="matrix(0.010959201388888886,0,0,0.010959201388888886,26.937717013888882,0)" xlink:href="#ad"/><use transform="matrix(0.010959201388888886,0,0,0.010959201388888886,40.40657552083332,0)" xlink:href="#ae"/><use transform="matrix(0.010959201388888886,0,0,0.010959201388888886,53.875434027777764,0)" xlink:href="#af"/><use transform="matrix(0.010959201388888886,0,0,0.010959201388888886,67.3442925347222,0)" xlink:href="#ag"/><use transform="matrix(0.010959201388888886,0,0,0.010959201388888886,80.81315104166664,0)" xlink:href="#aj"/><use transform="matrix(0.010959201388888886,0,0,0.010959201388888886,94.28200954861109,0)" xlink:href="#al"/></g><path fill="#188fff" d="M1010-1120c0 200-132 322-316 350v6c241 31 361 147 361 348 0 294-219 436-537 436-161 0-290-26-387-79v-170c123 64 250 96 383 96 236 0 354-96 354-289 0-172-127-258-381-258H354v-151h133c195 4 334-97 336-277 1-140-106-221-250-221-119 0-233 40-344 121l-92-125c125-100 270-150 436-150 252 0 437 128 437 363" id="am"/><g id="o"><use transform="matrix(0.010959201388888886,0,0,0.010959201388888886,0,0)" xlink:href="#P"/><use transform="matrix(0.010959201388888886,0,0,0.010959201388888886,13.468858506944441,0)" xlink:href="#Q"/><use transform="matrix(0.010959201388888886,0,0,0.010959201388888886,26.937717013888882,0)" xlink:href="#Q"/><use transform="matrix(0.010959201388888886,0,0,0.010959201388888886,40.40657552083332,0)" xlink:href="#R"/><use transform="matrix(0.010959201388888886,0,0,0.010959201388888886,53.875434027777764,0)" xlink:href="#S"/><use transform="matrix(0.010959201388888886,0,0,0.010959201388888886,67.3442925347222,0)" xlink:href="#T"/><use transform="matrix(0.010959201388888886,0,0,0.010959201388888886,80.81315104166664,0)" xlink:href="#am"/></g><path fill="#6f7681" d="M614-1485c230 0 412 129 412 352 0 153-87 273-262 359 206 107 309 238 309 393 0 249-200 401-459 401-271 0-458-134-458-393 0-171 94-302 282-393-157-97-235-220-235-369 0-219 188-350 411-350zm-2 152c-137 0-233 71-231 207 0 60 16 110 49 152s95 84 186 126c155-69 232-161 232-278 1-138-96-207-236-207zm-2 1202c171 0 285-85 285-248 0-60-22-112-63-159-43-49-141-111-244-158-169 81-254 189-254 325 0 160 92 240 276 240" id="an"/><g id="p"><use transform="matrix(0.010959201388888886,0,0,0.010959201388888886,0,0)" xlink:href="#ac"/><use transform="matrix(0.010959201388888886,0,0,0.010959201388888886,13.468858506944441,0)" xlink:href="#ad"/><use transform="matrix(0.010959201388888886,0,0,0.010959201388888886,26.937717013888882,0)" xlink:href="#ad"/><use transform="matrix(0.010959201388888886,0,0,0.010959201388888886,40.40657552083332,0)" xlink:href="#ae"/><use transform="matrix(0.010959201388888886,0,0,0.010959201388888886,53.875434027777764,0)" xlink:href="#af"/><use transform="matrix(0.010959201388888886,0,0,0.010959201388888886,67.3442925347222,0)" xlink:href="#ag"/><use transform="matrix(0.010959201388888886,0,0,0.010959201388888886,80.81315104166664,0)" xlink:href="#an"/></g><path fill="#6f7681" d="M594-1483c248 0 420 149 418 391 0 79-21 160-59 244-73 161-414 504-572 674v8h688V0H158v-156c172-193 489-508 607-698 43-69 62-147 62-231 0-146-91-244-235-244-107 0-213 46-318 137l-102-119c128-115 269-172 422-172" id="ao"/><g id="q"><use transform="matrix(0.010959201388888886,0,0,0.010959201388888886,0,0)" xlink:href="#ac"/><use transform="matrix(0.010959201388888886,0,0,0.010959201388888886,13.468858506944441,0)" xlink:href="#ad"/><use transform="matrix(0.010959201388888886,0,0,0.010959201388888886,26.937717013888882,0)" xlink:href="#ad"/><use transform="matrix(0.010959201388888886,0,0,0.010959201388888886,40.40657552083332,0)" xlink:href="#ae"/><use transform="matrix(0.010959201388888886,0,0,0.010959201388888886,53.875434027777764,0)" xlink:href="#af"/><use transform="matrix(0.010959201388888886,0,0,0.010959201388888886,67.3442925347222,0)" xlink:href="#ag"/><use transform="matrix(0.010959201388888886,0,0,0.010959201388888886,80.81315104166664,0)" xlink:href="#aj"/><use transform="matrix(0.010959201388888886,0,0,0.010959201388888886,94.28200954861109,0)" xlink:href="#ao"/></g><path fill="#188fff" d="M233 0v-1462h187v1296h635V0H233" id="ap"/><path fill="#188fff" d="M137-547c0-322 136-571 430-571 137 0 245 53 322 160h12c-24-215-7-376-12-598h182V0H924l-27-147h-8C814-36 706 20 567 20c-294 0-430-246-430-567zm463 416c241 0 288-157 289-416 0-151-23-259-69-323s-121-97-222-97c-181 0-272 141-272 422 0 276 91 414 274 414" id="aq"/><path fill="#188fff" d="M188-739c-1-248 156-381 410-379 57 0 107 7 150 20h378v113l-196 27c43 57 65 128 65 213 2 253-212 385-489 346-67 37-100 82-100 133 0 56 54 84 161 84h187c216-2 358 93 358 297 0 251-188 377-565 377-145 0-255-26-331-80S102 283 102 186c0-141 80-231 240-270-64-31-96-83-96-154 0-75 44-139 133-192-109-41-191-166-191-309zm406 221c149 0 223-77 223-230 0-159-75-239-225-239s-225 81-225 242c0 151 76 227 227 227zm346 649c0-146-78-149-248-149H504c-153 0-230 66-230 198 0 116 90 174 271 174 263 0 395-74 395-223" id="ar"/><path fill="#188fff" d="M442-897c93-139 173-221 377-221 79 0 159 15 240 45l-49 166c-82-30-157-45-224-45-221 0-340 134-340 360V0H264v-1098h148l22 201h8" id="as"/><g id="r"><use transform="matrix(0.010850694444444442,0,0,0.010850694444444442,0,0)" xlink:href="#ap"/><use transform="matrix(0.010850694444444442,0,0,0.010850694444444442,13.33550347222222,0)" xlink:href="#T"/><use transform="matrix(0.010850694444444442,0,0,0.010850694444444442,26.67100694444444,0)" xlink:href="#aq"/><use transform="matrix(0.010850694444444442,0,0,0.010850694444444442,40.00651041666666,0)" xlink:href="#ar"/><use transform="matrix(0.010850694444444442,0,0,0.010850694444444442,53.34201388888888,0)" xlink:href="#T"/><use transform="matrix(0.010850694444444442,0,0,0.010850694444444442,66.6775173611111,0)" xlink:href="#as"/></g><path fill="#188fff" d="M172-543c0-365 197-575 553-575 119 0 231 20 336 59l-62 158c-100-38-189-57-268-57-247 0-371 138-371 413 0 271 120 406 361 406 105 0 212-21 321-62v160C953 0 843 20 713 20c-347 1-541-210-541-563" id="at"/><path fill="#188fff" d="M498 0L82-1098h188l240 652c57 154 90 262 100 325h6c67-256 244-708 340-977h189L729 0H498" id="au"/><path fill="#188fff" d="M82-1098h188l262 654c55 137 84 233 89 290h6c15-75 45-172 90-292l239-652h189L670 143c-45 116-99 201-156 261-87 92-259 104-414 71V330c92 17 226 18 286-29 67-53 115-195 153-291" id="av"/><g id="s"><use transform="matrix(0.010850694444444442,0,0,0.010850694444444442,0,0)" xlink:href="#as"/><use transform="matrix(0.010850694444444442,0,0,0.010850694444444442,13.33550347222222,0)" xlink:href="#T"/><use transform="matrix(0.010850694444444442,0,0,0.010850694444444442,26.67100694444444,0)" xlink:href="#at"/><use transform="matrix(0.010850694444444442,0,0,0.010850694444444442,40.00651041666666,0)" xlink:href="#Q"/><use transform="matrix(0.010850694444444442,0,0,0.010850694444444442,53.34201388888888,0)" xlink:href="#au"/><use transform="matrix(0.010850694444444442,0,0,0.010850694444444442,66.6775173611111,0)" xlink:href="#T"/><use transform="matrix(0.010850694444444442,0,0,0.010850694444444442,80.01302083333331,0)" xlink:href="#as"/><use transform="matrix(0.010850694444444442,0,0,0.010850694444444442,93.34852430555554,0)" xlink:href="#av"/></g><path fill="#fff" d="M594-1483c248 0 420 149 418 391 0 79-21 160-59 244-73 161-414 504-572 674v8h688V0H158v-156c172-193 489-508 607-698 43-69 62-147 62-231 0-146-91-244-235-244-107 0-213 46-318 137l-102-119c128-115 269-172 422-172" id="aw"/><g id="y"><use transform="matrix(0.010959201388888886,0,0,0.010959201388888886,0,0)" xlink:href="#V"/><use transform="matrix(0.010959201388888886,0,0,0.010959201388888886,13.468858506944441,0)" xlink:href="#W"/><use transform="matrix(0.010959201388888886,0,0,0.010959201388888886,26.937717013888882,0)" xlink:href="#W"/><use transform="matrix(0.010959201388888886,0,0,0.010959201388888886,40.40657552083332,0)" xlink:href="#X"/><use transform="matrix(0.010959201388888886,0,0,0.010959201388888886,53.875434027777764,0)" xlink:href="#Y"/><use transform="matrix(0.010959201388888886,0,0,0.010959201388888886,67.3442925347222,0)" xlink:href="#Z"/><use transform="matrix(0.010959201388888886,0,0,0.010959201388888886,80.81315104166664,0)" xlink:href="#aw"/></g><path fill="#fff" d="M1055-469c0 318-203 489-527 489-149 0-268-26-356-79v-172c96 64 216 96 360 96 224 0 336-105 336-314 0-196-115-294-344-294-59 0-136 9-231 26l-90-57 55-688h690v166H416l-39 419c71-13 141-20 209-20 270-4 469 161 469 428" id="ax"/><g id="z"><use transform="matrix(0.010959201388888886,0,0,0.010959201388888886,0,0)" xlink:href="#V"/><use transform="matrix(0.010959201388888886,0,0,0.010959201388888886,13.468858506944441,0)" xlink:href="#W"/><use transform="matrix(0.010959201388888886,0,0,0.010959201388888886,26.937717013888882,0)" xlink:href="#W"/><use transform="matrix(0.010959201388888886,0,0,0.010959201388888886,40.40657552083332,0)" xlink:href="#X"/><use transform="matrix(0.010959201388888886,0,0,0.010959201388888886,53.875434027777764,0)" xlink:href="#Y"/><use transform="matrix(0.010959201388888886,0,0,0.010959201388888886,67.3442925347222,0)" xlink:href="#Z"/><use transform="matrix(0.010959201388888886,0,0,0.010959201388888886,80.81315104166664,0)" xlink:href="#ax"/></g><path fill="#fff" d="M758 0H582c3-449-8-824 8-1274-61 68-188 168-268 234l-97-123 383-299h150V0" id="ay"/><g id="A"><use transform="matrix(0.010959201388888886,0,0,0.010959201388888886,0,0)" xlink:href="#V"/><use transform="matrix(0.010959201388888886,0,0,0.010959201388888886,13.468858506944441,0)" xlink:href="#W"/><use transform="matrix(0.010959201388888886,0,0,0.010959201388888886,26.937717013888882,0)" xlink:href="#W"/><use transform="matrix(0.010959201388888886,0,0,0.010959201388888886,40.40657552083332,0)" xlink:href="#X"/><use transform="matrix(0.010959201388888886,0,0,0.010959201388888886,53.875434027777764,0)" xlink:href="#Y"/><use transform="matrix(0.010959201388888886,0,0,0.010959201388888886,67.3442925347222,0)" xlink:href="#Z"/><use transform="matrix(0.010959201388888886,0,0,0.010959201388888886,80.81315104166664,0)" xlink:href="#ay"/></g><path fill="#188fff" d="M1126-328H913V0H737v-328H61v-159l664-983h188v976h213v166zM737-494c1-292-4-481 13-788h-9c-24 68-55 128-90 180L240-494h497" id="az"/><g id="B"><use transform="matrix(0.010959201388888886,0,0,0.010959201388888886,0,0)" xlink:href="#P"/><use transform="matrix(0.010959201388888886,0,0,0.010959201388888886,13.468858506944441,0)" xlink:href="#Q"/><use transform="matrix(0.010959201388888886,0,0,0.010959201388888886,26.937717013888882,0)" xlink:href="#Q"/><use transform="matrix(0.010959201388888886,0,0,0.010959201388888886,40.40657552083332,0)" xlink:href="#R"/><use transform="matrix(0.010959201388888886,0,0,0.010959201388888886,53.875434027777764,0)" xlink:href="#S"/><use transform="matrix(0.010959201388888886,0,0,0.010959201388888886,67.3442925347222,0)" xlink:href="#T"/><use transform="matrix(0.010959201388888886,0,0,0.010959201388888886,80.81315104166664,0)" xlink:href="#az"/></g><g id="G"><use transform="matrix(0.010850694444444442,0,0,0.010850694444444442,0,0)" xlink:href="#ap"/><use transform="matrix(0.010850694444444442,0,0,0.010850694444444442,13.33550347222222,0)" xlink:href="#T"/><use transform="matrix(0.010850694444444442,0,0,0.010850694444444442,26.67100694444444,0)" xlink:href="#aq"/><use transform="matrix(0.010850694444444442,0,0,0.010850694444444442,40.00651041666666,0)" xlink:href="#ar"/><use transform="matrix(0.010850694444444442,0,0,0.010850694444444442,53.34201388888888,0)" xlink:href="#T"/><use transform="matrix(0.010850694444444442,0,0,0.010850694444444442,66.6775173611111,0)" xlink:href="#as"/></g><path fill="#188fff" d="M596-1118c288 2 430 92 430 366V0H895l-37-152h-8C752-34 680 17 483 20 272 23 135-98 135-307c0-221 170-337 510-348l203-7c15-197-55-305-244-305-98 0-207 27-328 82l-63-137c131-64 258-96 383-96zm-72 991c194 0 325-116 322-311v-99c-251 15-522-6-522 232 0 119 67 178 200 178" id="aA"/><path fill="#188fff" d="M1020-150v138C933 9 849 20 768 20 527 20 406-95 406-324v-637H139v-94l267-49 77-287h105v293h438v137H588v637c0 130 64 195 192 195 62 0 142-7 240-21" id="aB"/><path fill="#188fff" d="M887 0v-707c0-173-79-260-238-260-205 0-307 133-307 398V0H160v-1098h147l27 148h10c69-112 181-168 336-168 259 0 389 134 389 401V0H887" id="aC"/><g id="H"><use transform="matrix(0.010850694444444442,0,0,0.010850694444444442,0,0)" xlink:href="#at"/><use transform="matrix(0.010850694444444442,0,0,0.010850694444444442,13.33550347222222,0)" xlink:href="#as"/><use transform="matrix(0.010850694444444442,0,0,0.010850694444444442,26.67100694444444,0)" xlink:href="#T"/><use transform="matrix(0.010850694444444442,0,0,0.010850694444444442,40.00651041666666,0)" xlink:href="#aA"/><use transform="matrix(0.010850694444444442,0,0,0.010850694444444442,53.34201388888888,0)" xlink:href="#aB"/><use transform="matrix(0.010850694444444442,0,0,0.010850694444444442,66.6775173611111,0)" xlink:href="#S"/><use transform="matrix(0.010850694444444442,0,0,0.010850694444444442,80.01302083333331,0)" xlink:href="#Q"/><use transform="matrix(0.010850694444444442,0,0,0.010850694444444442,93.34852430555554,0)" xlink:href="#aC"/></g><path fill="#188fff" d="M373-604V0H186v-1462h357c347 0 520 138 520 415 0 191-96 322-289 392L1171 0H952L602-604H373zm497-434c0-207-118-263-338-265H373v541h164c215-1 333-70 333-276" id="aD"/><path fill="#188fff" d="M977 0v-707c0-97-9-165-27-203s-47-57-88-57c-58 0-100 28-126 83s-40 148-40 278V0H535v-707c0-173-42-260-125-260-56 0-96 26-120 79s-36 160-36 319V0H92v-1098h127l27 148h10c45-112 112-168 201-168 109 0 180 61 213 182h6c51-121 124-182 219-182 85 0 147 30 186 92s58 165 58 309V0H977" id="aE"/><g id="I"><use transform="matrix(0.010959201388888886,0,0,0.010959201388888886,0,0)" xlink:href="#aD"/><use transform="matrix(0.010959201388888886,0,0,0.010959201388888886,13.468858506944441,0)" xlink:href="#aA"/><use transform="matrix(0.010959201388888886,0,0,0.010959201388888886,26.937717013888882,0)" xlink:href="#aC"/><use transform="matrix(0.010959201388888886,0,0,0.010959201388888886,40.40657552083332,0)" xlink:href="#aq"/><use transform="matrix(0.010959201388888886,0,0,0.010959201388888886,53.875434027777764,0)" xlink:href="#Q"/><use transform="matrix(0.010959201388888886,0,0,0.010959201388888886,67.3442925347222,0)" xlink:href="#aE"/></g></defs></g></svg>