<svg xmlns="http://www.w3.org/2000/svg" xmlns:xlink="http://www.w3.org/1999/xlink" xmlns:lucid="lucid" width="1577.97" height="277.64"><g transform="translate(-105.51790922985217 1212.829976518687)" lucid:page-tab-id="0_0"><path d="M0-1258.83h1870.87V64H0z" fill="#fff"/><path d="M125.52-1186.83a6 6 0 0 1 6-6h385.9a6 6 0 0 1 6 6v225.64a6 6 0 0 1-6 6H131.5a6 6 0 0 1-6-6z" stroke="#5e5e5e" stroke-width="2" fill="#fff"/><use xlink:href="#a" transform="matrix(1,0,0,1,130.51790922985217,-1187.829976518687) translate(194 22.68988715277777)"/><use xlink:href="#b" transform="matrix(1,0,0,1,130.51790922985217,-1187.829976518687) translate(194 51.14474826388887)"/><use xlink:href="#b" transform="matrix(1,0,0,1,130.51790922985217,-1187.829976518687) translate(194 79.59960937499997)"/><use xlink:href="#b" transform="matrix(1,0,0,1,130.51790922985217,-1187.829976518687) translate(194 108.05447048611109)"/><use xlink:href="#b" transform="matrix(1,0,0,1,130.51790922985217,-1187.829976518687) translate(194 136.50933159722217)"/><use xlink:href="#b" transform="matrix(1,0,0,1,130.51790922985217,-1187.829976518687) translate(194 164.9641927083333)"/><use xlink:href="#b" transform="matrix(1,0,0,1,130.51790922985217,-1187.829976518687) translate(194 193.4190538194444)"/><use xlink:href="#c" transform="matrix(1,0,0,1,130.51790922985217,-1187.829976518687) translate(157.3273654513889 221.87391493055551)"/><path d="M278.43-1074c17.34 0 31.4 15.03 31.4 33.54 0 18.52-14.06 33.53-31.4 33.53h-94.2c-17.34 0-31.4-15-31.4-33.53 0-18.5 14.06-33.53 31.4-33.53z" stroke="#188fff" stroke-width="4" fill-opacity="0"/><use xlink:href="#d" transform="matrix(1,0,0,1,157.8337355603843,-1068.9869417325963) translate(26.358995225694457 35.33344184027777)"/><path d="M467.9-1074c17.33 0 31.4 15.03 31.4 33.54 0 18.52-14.07 33.53-31.4 33.53h-94.2c-17.35 0-31.4-15-31.4-33.53 0-18.5 14.05-33.53 31.4-33.53z" stroke="#188fff" stroke-width="4" fill-opacity="0"/><use xlink:href="#e" transform="matrix(1,0,0,1,347.28821735305695,-1068.9869417325963) translate(26.358995225694457 35.33344184027777)"/><path d="M566.88-1186.83a6 6 0 0 1 6-6h385.9a6 6 0 0 1 6 6v225.64a6 6 0 0 1-6 6h-385.9a6 6 0 0 1-6-6z" stroke="#5e5e5e" stroke-width="2" fill="#fff"/><use xlink:href="#a" transform="matrix(1,0,0,1,571.8841557284071,-1187.829976518687) translate(194 22.68988715277777)"/><use xlink:href="#b" transform="matrix(1,0,0,1,571.8841557284071,-1187.829976518687) translate(194 51.14474826388887)"/><use xlink:href="#b" transform="matrix(1,0,0,1,571.8841557284071,-1187.829976518687) translate(194 79.59960937499997)"/><use xlink:href="#b" transform="matrix(1,0,0,1,571.8841557284071,-1187.829976518687) translate(194 108.05447048611109)"/><use xlink:href="#b" transform="matrix(1,0,0,1,571.8841557284071,-1187.829976518687) translate(194 136.50933159722217)"/><use xlink:href="#b" transform="matrix(1,0,0,1,571.8841557284071,-1187.829976518687) translate(194 164.9641927083333)"/><use xlink:href="#b" transform="matrix(1,0,0,1,571.8841557284071,-1187.829976518687) translate(194 193.4190538194444)"/><use xlink:href="#f" transform="matrix(1,0,0,1,571.8841557284071,-1187.829976518687) translate(157.3273654513889 221.87391493055551)"/><path d="M719.8-1169.32c17.34 0 31.4 15 31.4 33.53s-14.06 33.54-31.4 33.54h-94.2c-17.34 0-31.4-15-31.4-33.53 0-18.5 14.06-33.52 31.4-33.52z" stroke="#188fff" stroke-width="4" fill-opacity="0"/><use xlink:href="#g" transform="matrix(1,0,0,1,599.1999820589392,-1164.3214618218822) translate(26.358995225694457 35.33344184027777)"/><path d="M909.25-1169.32c17.34 0 31.4 15 31.4 33.53s-14.06 33.54-31.4 33.54h-94.2c-17.34 0-31.4-15-31.4-33.53 0-18.5 14.06-33.52 31.4-33.52z" stroke="#188fff" stroke-width="4" fill-opacity="0"/><use xlink:href="#h" transform="matrix(1,0,0,1,788.654463851612,-1164.3214618218822) translate(26.358995225694457 35.33344184027777)"/><path d="M812.93-1074c17.34 0 31.4 15.03 31.4 33.54 0 18.52-14.06 33.53-31.4 33.53h-94.2c-17.34 0-31.4-15-31.4-33.53 0-18.5 14.06-33.53 31.4-33.53z" stroke="#188fff" stroke-width="4" fill-opacity="0"/><use xlink:href="#i" transform="matrix(1,0,0,1,692.3302341597796,-1068.9869417325967) translate(26.358995225694457 35.33344184027777)"/><path d="M1008.25-1186.83a6 6 0 0 1 6-6h201.87a6 6 0 0 1 6 6v225.64a6 6 0 0 1-6 6h-201.87a6 6 0 0 1-6-6z" stroke="#5e5e5e" stroke-width="2" fill="#fff"/><use xlink:href="#a" transform="matrix(1,0,0,1,1013.250402226962,-1187.829976518687) translate(102 22.68988715277777)"/><use xlink:href="#b" transform="matrix(1,0,0,1,1013.250402226962,-1187.829976518687) translate(102 51.14474826388887)"/><use xlink:href="#b" transform="matrix(1,0,0,1,1013.250402226962,-1187.829976518687) translate(102 79.59960937499997)"/><use xlink:href="#b" transform="matrix(1,0,0,1,1013.250402226962,-1187.829976518687) translate(102 108.05447048611109)"/><use xlink:href="#b" transform="matrix(1,0,0,1,1013.250402226962,-1187.829976518687) translate(102 136.50933159722217)"/><use xlink:href="#b" transform="matrix(1,0,0,1,1013.250402226962,-1187.829976518687) translate(102 164.9641927083333)"/><use xlink:href="#b" transform="matrix(1,0,0,1,1013.250402226962,-1187.829976518687) translate(102 193.4190538194444)"/><use xlink:href="#j" transform="matrix(1,0,0,1,1013.250402226962,-1187.829976518687) translate(65.3273654513889 221.87391493055551)"/><path d="M1161.16-1074c17.35 0 31.4 15.03 31.4 33.54 0 18.52-14.05 33.53-31.4 33.53h-94.2c-17.34 0-31.4-15-31.4-33.53 0-18.5 14.06-33.53 31.4-33.53z" stroke="#188fff" stroke-width="4" fill-opacity="0"/><g><use xlink:href="#k" transform="matrix(1,0,0,1,1040.5662285574938,-1068.9869417325967) translate(26.358995225694457 35.33344184027777)"/></g><path d="M1265.6-1186.83a6 6 0 0 1 6-6h385.88a6 6 0 0 1 6 6v225.64a6 6 0 0 1-6 6h-385.9a6 6 0 0 1-6-6z" stroke="#5e5e5e" stroke-width="2" fill="#fff"/><g><use xlink:href="#a" transform="matrix(1,0,0,1,1270.5942397619317,-1187.829976518687) translate(194 22.68988715277777)"/><use xlink:href="#b" transform="matrix(1,0,0,1,1270.5942397619317,-1187.829976518687) translate(194 51.14474826388887)"/><use xlink:href="#b" transform="matrix(1,0,0,1,1270.5942397619317,-1187.829976518687) translate(194 79.59960937499997)"/><use xlink:href="#b" transform="matrix(1,0,0,1,1270.5942397619317,-1187.829976518687) translate(194 108.05447048611109)"/><use xlink:href="#b" transform="matrix(1,0,0,1,1270.5942397619317,-1187.829976518687) translate(194 136.50933159722217)"/><use xlink:href="#b" transform="matrix(1,0,0,1,1270.5942397619317,-1187.829976518687) translate(194 164.9641927083333)"/><use xlink:href="#b" transform="matrix(1,0,0,1,1270.5942397619317,-1187.829976518687) translate(194 193.4190538194444)"/><use xlink:href="#l" transform="matrix(1,0,0,1,1270.5942397619317,-1187.829976518687) translate(157.3273654513889 221.87391493055551)"/></g><path d="M1418.5-1169.32c17.35 0 31.4 15 31.4 33.53s-14.05 33.54-31.4 33.54h-94.2c-17.33 0-31.4-15-31.4-33.53 0-18.5 14.07-33.52 31.4-33.52z" stroke="#188fff" stroke-width="4" fill-opacity="0"/><g><use xlink:href="#m" transform="matrix(1,0,0,1,1297.9100660924637,-1164.3214618218822) translate(19.624565972222236 35.33344184027777)"/></g><path d="M1607.96-1169.32c17.34 0 31.4 15 31.4 33.53s-14.06 33.54-31.4 33.54h-94.2c-17.34 0-31.4-15-31.4-33.53 0-18.5 14.06-33.52 31.4-33.52z" stroke="#188fff" stroke-width="4" fill-opacity="0"/><g><use xlink:href="#n" transform="matrix(1,0,0,1,1487.3645478851363,-1164.3214618218822) translate(19.624565972222236 35.33344184027777)"/></g><path d="M1607.96-1074c17.34 0 31.4 15.03 31.4 33.54 0 18.52-14.06 33.53-31.4 33.53h-94.2c-17.34 0-31.4-15-31.4-33.53 0-18.5 14.06-33.53 31.4-33.53z" stroke="#188fff" stroke-width="4" fill-opacity="0"/><g><use xlink:href="#o" transform="matrix(1,0,0,1,1487.3645478851363,-1068.9869417325963) translate(19.624565972222236 35.33344184027777)"/></g><path d="M278.43-1169.32c17.34 0 31.4 15 31.4 33.53s-14.06 33.54-31.4 33.54h-94.2c-17.34 0-31.4-15-31.4-33.53 0-18.5 14.06-33.52 31.4-33.52z" stroke="#188fff" stroke-width="4" fill="#fff"/><g><use xlink:href="#p" transform="matrix(1,0,0,1,157.8337355603843,-1164.3214618218822) translate(26.358995225694457 35.33344184027777)"/></g><path d="M1162.28-1169.32c17.34 0 31.4 15 31.4 33.53s-14.06 33.54-31.4 33.54h-94.2c-17.34 0-31.4-15-31.4-33.53 0-18.5 14.06-33.52 31.4-33.52z" stroke="#188fff" stroke-width="4" fill="#188fff"/><g><use xlink:href="#q" transform="matrix(1,0,0,1,1041.6852761765417,-1164.3214618218822) translate(26.358995225694457 35.33344184027777)"/></g><path d="M1418.5-1074c17.35 0 31.4 15.03 31.4 33.54 0 18.52-14.05 33.53-31.4 33.53h-94.2c-17.33 0-31.4-15-31.4-33.53 0-18.5 14.07-33.53 31.4-33.53z" stroke="#188fff" stroke-width="4" fill="#188fff"/><g><use xlink:href="#r" transform="matrix(1,0,0,1,1297.910066092464,-1068.9869417325967) translate(19.624565972222236 35.33344184027777)"/></g><path d="M467.9-1169.32c17.33 0 31.4 15 31.4 33.53s-14.07 33.54-31.4 33.54h-94.2c-17.35 0-31.4-15-31.4-33.53 0-18.5 14.05-33.52 31.4-33.52z" stroke="#188fff" stroke-width="4" fill="#188fff"/><g><use xlink:href="#s" transform="matrix(1,0,0,1,347.28821735305695,-1164.3214618218822) translate(26.358995225694457 35.33344184027777)"/></g><defs><path fill="#333" d="M373-604V0H186v-1462h357c347 0 520 138 520 415 0 191-96 322-289 392L1171 0H952L602-604H373zm497-434c0-207-118-263-338-265H373v541h164c215-1 333-70 333-276" id="t"/><path fill="#333" d="M596-1118c288 2 430 92 430 366V0H895l-37-152h-8C752-34 680 17 483 20 272 23 135-98 135-307c0-221 170-337 510-348l203-7c15-197-55-305-244-305-98 0-207 27-328 82l-63-137c131-64 258-96 383-96zm-72 991c194 0 325-116 322-311v-99c-251 15-522-6-522 232 0 119 67 178 200 178" id="u"/><path fill="#333" d="M172-543c0-365 197-575 553-575 119 0 231 20 336 59l-62 158c-100-38-189-57-268-57-247 0-371 138-371 413 0 271 120 406 361 406 105 0 212-21 321-62v160C953 0 843 20 713 20c-347 1-541-210-541-563" id="v"/><path fill="#333" d="M383-553l135-152 395-393h222L641-623 1163 0H950L524-504l-129 82V0H215v-1556h180c-3 337 9 689-16 1003h4" id="w"/><path fill="#333" d="M758 0H582c3-449-8-824 8-1274-61 68-188 168-268 234l-97-123 383-299h150V0" id="x"/><g id="c"><use transform="matrix(0.011935763888888886,0,0,0.011935763888888886,0,0)" xlink:href="#t"/><use transform="matrix(0.011935763888888886,0,0,0.011935763888888886,14.669053819444441,0)" xlink:href="#u"/><use transform="matrix(0.011935763888888886,0,0,0.011935763888888886,29.338107638888882,0)" xlink:href="#v"/><use transform="matrix(0.011935763888888886,0,0,0.011935763888888886,44.00716145833332,0)" xlink:href="#w"/><use transform="matrix(0.011935763888888886,0,0,0.011935763888888886,58.676215277777764,0)" xlink:href="#x"/></g><path fill="#188fff" d="M1137-424C1137-153 941 0 662 0H135v-1462c284 7 685-30 837 88 80 62 124 152 124 282 0 179-125 297-291 316v10c221 36 332 150 332 342zm-232-655c0-182-120-224-319-224H322v461h284c195-2 299-53 299-237zM322-686v528h307c207 0 311-91 311-274 0-169-108-254-324-254H322" id="y"/><path fill="#188fff" d="M1112-551c0 331-186 571-502 571-301 0-495-251-495-571 0-330 184-567 501-567 302 0 496 249 496 567zM614-131c207 0 310-140 310-420 0-277-104-416-312-416-206 0-309 139-309 416 0 280 104 420 311 420" id="z"/><path fill="#188fff" d="M383-553l135-152 395-393h222L641-623 1163 0H950L524-504l-129 82V0H215v-1556h180c-3 337 9 689-16 1003h4" id="A"/><path fill="#188fff" d="M739-1436c0 71-43 115-106 115-71 0-107-38-107-115 0-76 36-114 107-114s106 38 106 114zM541-954l-269-21v-123h451v955l352 20V0H197v-123l344-20v-811" id="B"/><path fill="#188fff" d="M631-1118c283 0 470 204 465 491v113H322c5 250 120 375 344 375 130 0 253-25 370-76v160C925-5 804 20 672 20c-329 0-539-224-539-561 0-331 182-577 498-577zM326-662h573c0-203-91-305-272-305-183 0-284 102-301 305" id="C"/><path fill="#188fff" d="M1010-1120c0 200-132 322-316 350v6c241 31 361 147 361 348 0 294-219 436-537 436-161 0-290-26-387-79v-170c123 64 250 96 383 96 236 0 354-96 354-289 0-172-127-258-381-258H354v-151h133c195 4 334-97 336-277 1-140-106-221-250-221-119 0-233 40-344 121l-92-125c125-100 270-150 436-150 252 0 437 128 437 363" id="D"/><g id="d"><use transform="matrix(0.010959201388888886,0,0,0.010959201388888886,0,0)" xlink:href="#y"/><use transform="matrix(0.010959201388888886,0,0,0.010959201388888886,13.468858506944441,0)" xlink:href="#z"/><use transform="matrix(0.010959201388888886,0,0,0.010959201388888886,26.937717013888882,0)" xlink:href="#z"/><use transform="matrix(0.010959201388888886,0,0,0.010959201388888886,40.40657552083332,0)" xlink:href="#A"/><use transform="matrix(0.010959201388888886,0,0,0.010959201388888886,53.875434027777764,0)" xlink:href="#B"/><use transform="matrix(0.010959201388888886,0,0,0.010959201388888886,67.3442925347222,0)" xlink:href="#C"/><use transform="matrix(0.010959201388888886,0,0,0.010959201388888886,80.81315104166664,0)" xlink:href="#D"/></g><path fill="#188fff" d="M1126-328H913V0H737v-328H61v-159l664-983h188v976h213v166zM737-494c1-292-4-481 13-788h-9c-24 68-55 128-90 180L240-494h497" id="E"/><g id="e"><use transform="matrix(0.010959201388888886,0,0,0.010959201388888886,0,0)" xlink:href="#y"/><use transform="matrix(0.010959201388888886,0,0,0.010959201388888886,13.468858506944441,0)" xlink:href="#z"/><use transform="matrix(0.010959201388888886,0,0,0.010959201388888886,26.937717013888882,0)" xlink:href="#z"/><use transform="matrix(0.010959201388888886,0,0,0.010959201388888886,40.40657552083332,0)" xlink:href="#A"/><use transform="matrix(0.010959201388888886,0,0,0.010959201388888886,53.875434027777764,0)" xlink:href="#B"/><use transform="matrix(0.010959201388888886,0,0,0.010959201388888886,67.3442925347222,0)" xlink:href="#C"/><use transform="matrix(0.010959201388888886,0,0,0.010959201388888886,80.81315104166664,0)" xlink:href="#E"/></g><path fill="#333" d="M594-1483c248 0 420 149 418 391 0 79-21 160-59 244-73 161-414 504-572 674v8h688V0H158v-156c172-193 489-508 607-698 43-69 62-147 62-231 0-146-91-244-235-244-107 0-213 46-318 137l-102-119c128-115 269-172 422-172" id="F"/><g id="f"><use transform="matrix(0.011935763888888886,0,0,0.011935763888888886,0,0)" xlink:href="#t"/><use transform="matrix(0.011935763888888886,0,0,0.011935763888888886,14.669053819444441,0)" xlink:href="#u"/><use transform="matrix(0.011935763888888886,0,0,0.011935763888888886,29.338107638888882,0)" xlink:href="#v"/><use transform="matrix(0.011935763888888886,0,0,0.011935763888888886,44.00716145833332,0)" xlink:href="#w"/><use transform="matrix(0.011935763888888886,0,0,0.011935763888888886,58.676215277777764,0)" xlink:href="#F"/></g><path fill="#188fff" d="M1055-469c0 318-203 489-527 489-149 0-268-26-356-79v-172c96 64 216 96 360 96 224 0 336-105 336-314 0-196-115-294-344-294-59 0-136 9-231 26l-90-57 55-688h690v166H416l-39 419c71-13 141-20 209-20 270-4 469 161 469 428" id="G"/><g id="g"><use transform="matrix(0.010959201388888886,0,0,0.010959201388888886,0,0)" xlink:href="#y"/><use transform="matrix(0.010959201388888886,0,0,0.010959201388888886,13.468858506944441,0)" xlink:href="#z"/><use transform="matrix(0.010959201388888886,0,0,0.010959201388888886,26.937717013888882,0)" xlink:href="#z"/><use transform="matrix(0.010959201388888886,0,0,0.010959201388888886,40.40657552083332,0)" xlink:href="#A"/><use transform="matrix(0.010959201388888886,0,0,0.010959201388888886,53.875434027777764,0)" xlink:href="#B"/><use transform="matrix(0.010959201388888886,0,0,0.010959201388888886,67.3442925347222,0)" xlink:href="#C"/><use transform="matrix(0.010959201388888886,0,0,0.010959201388888886,80.81315104166664,0)" xlink:href="#G"/></g><path fill="#188fff" d="M1075-471c0 288-166 493-444 491-145 0-261-56-347-168S154-420 154-625c0-572 213-858 639-858 69 0 127 6 172 19v155c-47-16-103-24-166-24-149 0-262 47-337 141S347-949 340-745h12c63-113 166-170 307-170 262 0 416 178 416 444zM629-133c183-3 270-141 270-338 0-183-88-297-264-301-154-4-299 123-299 266 0 185 113 376 293 373" id="H"/><g id="h"><use transform="matrix(0.010959201388888886,0,0,0.010959201388888886,0,0)" xlink:href="#y"/><use transform="matrix(0.010959201388888886,0,0,0.010959201388888886,13.468858506944441,0)" xlink:href="#z"/><use transform="matrix(0.010959201388888886,0,0,0.010959201388888886,26.937717013888882,0)" xlink:href="#z"/><use transform="matrix(0.010959201388888886,0,0,0.010959201388888886,40.40657552083332,0)" xlink:href="#A"/><use transform="matrix(0.010959201388888886,0,0,0.010959201388888886,53.875434027777764,0)" xlink:href="#B"/><use transform="matrix(0.010959201388888886,0,0,0.010959201388888886,67.3442925347222,0)" xlink:href="#C"/><use transform="matrix(0.010959201388888886,0,0,0.010959201388888886,80.81315104166664,0)" xlink:href="#H"/></g><path fill="#188fff" d="M334 0l563-1296H143v-166h940v145L528 0H334" id="I"/><g id="i"><use transform="matrix(0.010959201388888886,0,0,0.010959201388888886,0,0)" xlink:href="#y"/><use transform="matrix(0.010959201388888886,0,0,0.010959201388888886,13.468858506944441,0)" xlink:href="#z"/><use transform="matrix(0.010959201388888886,0,0,0.010959201388888886,26.937717013888882,0)" xlink:href="#z"/><use transform="matrix(0.010959201388888886,0,0,0.010959201388888886,40.40657552083332,0)" xlink:href="#A"/><use transform="matrix(0.010959201388888886,0,0,0.010959201388888886,53.875434027777764,0)" xlink:href="#B"/><use transform="matrix(0.010959201388888886,0,0,0.010959201388888886,67.3442925347222,0)" xlink:href="#C"/><use transform="matrix(0.010959201388888886,0,0,0.010959201388888886,80.81315104166664,0)" xlink:href="#I"/></g><path fill="#333" d="M1010-1120c0 200-132 322-316 350v6c241 31 361 147 361 348 0 294-219 436-537 436-161 0-290-26-387-79v-170c123 64 250 96 383 96 236 0 354-96 354-289 0-172-127-258-381-258H354v-151h133c195 4 334-97 336-277 1-140-106-221-250-221-119 0-233 40-344 121l-92-125c125-100 270-150 436-150 252 0 437 128 437 363" id="J"/><g id="j"><use transform="matrix(0.011935763888888886,0,0,0.011935763888888886,0,0)" xlink:href="#t"/><use transform="matrix(0.011935763888888886,0,0,0.011935763888888886,14.669053819444441,0)" xlink:href="#u"/><use transform="matrix(0.011935763888888886,0,0,0.011935763888888886,29.338107638888882,0)" xlink:href="#v"/><use transform="matrix(0.011935763888888886,0,0,0.011935763888888886,44.00716145833332,0)" xlink:href="#w"/><use transform="matrix(0.011935763888888886,0,0,0.011935763888888886,58.676215277777764,0)" xlink:href="#J"/></g><path fill="#188fff" d="M154-991c0-288 166-494 444-492 147 0 262 57 348 171s129 272 129 474c0 572-213 858-639 858-70 0-127-6-172-18v-156c45 17 100 25 166 25 149 0 261-47 336-141s116-243 123-447h-12c-64 113-167 170-308 170-262 0-415-176-415-444zm446-338c-185 4-270 138-270 338 0 183 88 296 264 301 153 4 299-124 299-266 0-185-111-377-293-373" id="K"/><g id="k"><use transform="matrix(0.010959201388888886,0,0,0.010959201388888886,0,0)" xlink:href="#y"/><use transform="matrix(0.010959201388888886,0,0,0.010959201388888886,13.468858506944441,0)" xlink:href="#z"/><use transform="matrix(0.010959201388888886,0,0,0.010959201388888886,26.937717013888882,0)" xlink:href="#z"/><use transform="matrix(0.010959201388888886,0,0,0.010959201388888886,40.40657552083332,0)" xlink:href="#A"/><use transform="matrix(0.010959201388888886,0,0,0.010959201388888886,53.875434027777764,0)" xlink:href="#B"/><use transform="matrix(0.010959201388888886,0,0,0.010959201388888886,67.3442925347222,0)" xlink:href="#C"/><use transform="matrix(0.010959201388888886,0,0,0.010959201388888886,80.81315104166664,0)" xlink:href="#K"/></g><path fill="#333" d="M1126-328H913V0H737v-328H61v-159l664-983h188v976h213v166zM737-494c1-292-4-481 13-788h-9c-24 68-55 128-90 180L240-494h497" id="L"/><g id="l"><use transform="matrix(0.011935763888888886,0,0,0.011935763888888886,0,0)" xlink:href="#t"/><use transform="matrix(0.011935763888888886,0,0,0.011935763888888886,14.669053819444441,0)" xlink:href="#u"/><use transform="matrix(0.011935763888888886,0,0,0.011935763888888886,29.338107638888882,0)" xlink:href="#v"/><use transform="matrix(0.011935763888888886,0,0,0.011935763888888886,44.00716145833332,0)" xlink:href="#w"/><use transform="matrix(0.011935763888888886,0,0,0.011935763888888886,58.676215277777764,0)" xlink:href="#L"/></g><path fill="#188fff" d="M758 0H582c3-449-8-824 8-1274-61 68-188 168-268 234l-97-123 383-299h150V0" id="M"/><path fill="#188fff" d="M612 20c-153 0-268-65-347-194S147-489 147-733c0-501 155-752 465-752 155 0 271 64 350 193s119 316 119 559c0 502-156 753-469 753zm0-155c98 0 165-50 216-141 86-153 87-759 0-912-51-91-118-141-216-141-97 0-162 49-212 139-85 152-84 764 0 915 50 90 115 140 212 140" id="N"/><g id="m"><use transform="matrix(0.010959201388888886,0,0,0.010959201388888886,0,0)" xlink:href="#y"/><use transform="matrix(0.010959201388888886,0,0,0.010959201388888886,13.468858506944441,0)" xlink:href="#z"/><use transform="matrix(0.010959201388888886,0,0,0.010959201388888886,26.937717013888882,0)" xlink:href="#z"/><use transform="matrix(0.010959201388888886,0,0,0.010959201388888886,40.40657552083332,0)" xlink:href="#A"/><use transform="matrix(0.010959201388888886,0,0,0.010959201388888886,53.875434027777764,0)" xlink:href="#B"/><use transform="matrix(0.010959201388888886,0,0,0.010959201388888886,67.3442925347222,0)" xlink:href="#C"/><use transform="matrix(0.010959201388888886,0,0,0.010959201388888886,80.81315104166664,0)" xlink:href="#M"/><use transform="matrix(0.010959201388888886,0,0,0.010959201388888886,94.28200954861109,0)" xlink:href="#N"/></g><g id="n"><use transform="matrix(0.010959201388888886,0,0,0.010959201388888886,0,0)" xlink:href="#y"/><use transform="matrix(0.010959201388888886,0,0,0.010959201388888886,13.468858506944441,0)" xlink:href="#z"/><use transform="matrix(0.010959201388888886,0,0,0.010959201388888886,26.937717013888882,0)" xlink:href="#z"/><use transform="matrix(0.010959201388888886,0,0,0.010959201388888886,40.40657552083332,0)" xlink:href="#A"/><use transform="matrix(0.010959201388888886,0,0,0.010959201388888886,53.875434027777764,0)" xlink:href="#B"/><use transform="matrix(0.010959201388888886,0,0,0.010959201388888886,67.3442925347222,0)" xlink:href="#C"/><use transform="matrix(0.010959201388888886,0,0,0.010959201388888886,80.81315104166664,0)" xlink:href="#M"/><use transform="matrix(0.010959201388888886,0,0,0.010959201388888886,94.28200954861109,0)" xlink:href="#M"/></g><g id="o"><use transform="matrix(0.010959201388888886,0,0,0.010959201388888886,0,0)" xlink:href="#y"/><use transform="matrix(0.010959201388888886,0,0,0.010959201388888886,13.468858506944441,0)" xlink:href="#z"/><use transform="matrix(0.010959201388888886,0,0,0.010959201388888886,26.937717013888882,0)" xlink:href="#z"/><use transform="matrix(0.010959201388888886,0,0,0.010959201388888886,40.40657552083332,0)" xlink:href="#A"/><use transform="matrix(0.010959201388888886,0,0,0.010959201388888886,53.875434027777764,0)" xlink:href="#B"/><use transform="matrix(0.010959201388888886,0,0,0.010959201388888886,67.3442925347222,0)" xlink:href="#C"/><use transform="matrix(0.010959201388888886,0,0,0.010959201388888886,80.81315104166664,0)" xlink:href="#M"/><use transform="matrix(0.010959201388888886,0,0,0.010959201388888886,94.28200954861109,0)" xlink:href="#D"/></g><g id="p"><use transform="matrix(0.010959201388888886,0,0,0.010959201388888886,0,0)" xlink:href="#y"/><use transform="matrix(0.010959201388888886,0,0,0.010959201388888886,13.468858506944441,0)" xlink:href="#z"/><use transform="matrix(0.010959201388888886,0,0,0.010959201388888886,26.937717013888882,0)" xlink:href="#z"/><use transform="matrix(0.010959201388888886,0,0,0.010959201388888886,40.40657552083332,0)" xlink:href="#A"/><use transform="matrix(0.010959201388888886,0,0,0.010959201388888886,53.875434027777764,0)" xlink:href="#B"/><use transform="matrix(0.010959201388888886,0,0,0.010959201388888886,67.3442925347222,0)" xlink:href="#C"/><use transform="matrix(0.010959201388888886,0,0,0.010959201388888886,80.81315104166664,0)" xlink:href="#M"/></g><path fill="#fff" d="M1137-424C1137-153 941 0 662 0H135v-1462c284 7 685-30 837 88 80 62 124 152 124 282 0 179-125 297-291 316v10c221 36 332 150 332 342zm-232-655c0-182-120-224-319-224H322v461h284c195-2 299-53 299-237zM322-686v528h307c207 0 311-91 311-274 0-169-108-254-324-254H322" id="O"/><path fill="#fff" d="M1112-551c0 331-186 571-502 571-301 0-495-251-495-571 0-330 184-567 501-567 302 0 496 249 496 567zM614-131c207 0 310-140 310-420 0-277-104-416-312-416-206 0-309 139-309 416 0 280 104 420 311 420" id="P"/><path fill="#fff" d="M383-553l135-152 395-393h222L641-623 1163 0H950L524-504l-129 82V0H215v-1556h180c-3 337 9 689-16 1003h4" id="Q"/><path fill="#fff" d="M739-1436c0 71-43 115-106 115-71 0-107-38-107-115 0-76 36-114 107-114s106 38 106 114zM541-954l-269-21v-123h451v955l352 20V0H197v-123l344-20v-811" id="R"/><path fill="#fff" d="M631-1118c283 0 470 204 465 491v113H322c5 250 120 375 344 375 130 0 253-25 370-76v160C925-5 804 20 672 20c-329 0-539-224-539-561 0-331 182-577 498-577zM326-662h573c0-203-91-305-272-305-183 0-284 102-301 305" id="S"/><path fill="#fff" d="M614-1485c230 0 412 129 412 352 0 153-87 273-262 359 206 107 309 238 309 393 0 249-200 401-459 401-271 0-458-134-458-393 0-171 94-302 282-393-157-97-235-220-235-369 0-219 188-350 411-350zm-2 152c-137 0-233 71-231 207 0 60 16 110 49 152s95 84 186 126c155-69 232-161 232-278 1-138-96-207-236-207zm-2 1202c171 0 285-85 285-248 0-60-22-112-63-159-43-49-141-111-244-158-169 81-254 189-254 325 0 160 92 240 276 240" id="T"/><g id="q"><use transform="matrix(0.010959201388888886,0,0,0.010959201388888886,0,0)" xlink:href="#O"/><use transform="matrix(0.010959201388888886,0,0,0.010959201388888886,13.468858506944441,0)" xlink:href="#P"/><use transform="matrix(0.010959201388888886,0,0,0.010959201388888886,26.937717013888882,0)" xlink:href="#P"/><use transform="matrix(0.010959201388888886,0,0,0.010959201388888886,40.40657552083332,0)" xlink:href="#Q"/><use transform="matrix(0.010959201388888886,0,0,0.010959201388888886,53.875434027777764,0)" xlink:href="#R"/><use transform="matrix(0.010959201388888886,0,0,0.010959201388888886,67.3442925347222,0)" xlink:href="#S"/><use transform="matrix(0.010959201388888886,0,0,0.010959201388888886,80.81315104166664,0)" xlink:href="#T"/></g><path fill="#fff" d="M758 0H582c3-449-8-824 8-1274-61 68-188 168-268 234l-97-123 383-299h150V0" id="U"/><path fill="#fff" d="M594-1483c248 0 420 149 418 391 0 79-21 160-59 244-73 161-414 504-572 674v8h688V0H158v-156c172-193 489-508 607-698 43-69 62-147 62-231 0-146-91-244-235-244-107 0-213 46-318 137l-102-119c128-115 269-172 422-172" id="V"/><g id="r"><use transform="matrix(0.010959201388888886,0,0,0.010959201388888886,0,0)" xlink:href="#O"/><use transform="matrix(0.010959201388888886,0,0,0.010959201388888886,13.468858506944441,0)" xlink:href="#P"/><use transform="matrix(0.010959201388888886,0,0,0.010959201388888886,26.937717013888882,0)" xlink:href="#P"/><use transform="matrix(0.010959201388888886,0,0,0.010959201388888886,40.40657552083332,0)" xlink:href="#Q"/><use transform="matrix(0.010959201388888886,0,0,0.010959201388888886,53.875434027777764,0)" xlink:href="#R"/><use transform="matrix(0.010959201388888886,0,0,0.010959201388888886,67.3442925347222,0)" xlink:href="#S"/><use transform="matrix(0.010959201388888886,0,0,0.010959201388888886,80.81315104166664,0)" xlink:href="#U"/><use transform="matrix(0.010959201388888886,0,0,0.010959201388888886,94.28200954861109,0)" xlink:href="#V"/></g><g id="s"><use transform="matrix(0.010959201388888886,0,0,0.010959201388888886,0,0)" xlink:href="#O"/><use transform="matrix(0.010959201388888886,0,0,0.010959201388888886,13.468858506944441,0)" xlink:href="#P"/><use transform="matrix(0.010959201388888886,0,0,0.010959201388888886,26.937717013888882,0)" xlink:href="#P"/><use transform="matrix(0.010959201388888886,0,0,0.010959201388888886,40.40657552083332,0)" xlink:href="#Q"/><use transform="matrix(0.010959201388888886,0,0,0.010959201388888886,53.875434027777764,0)" xlink:href="#R"/><use transform="matrix(0.010959201388888886,0,0,0.010959201388888886,67.3442925347222,0)" xlink:href="#S"/><use transform="matrix(0.010959201388888886,0,0,0.010959201388888886,80.81315104166664,0)" xlink:href="#V"/></g></defs></g></svg>