<svg xmlns="http://www.w3.org/2000/svg" xmlns:xlink="http://www.w3.org/1999/xlink" xmlns:lucid="lucid" width="1656.08" height="808.89"><g transform="translate(-82.25622034275307 1216.8823844406527)" lucid:page-tab-id="0_0"><path d="M0-1258.83h1870.87V64H0z" fill="#fff"/><path d="M1003.38-1190.88a6 6 0 0 1 6-6h702.96a6 6 0 0 1 6 6v345.66a6 6 0 0 1-6 6h-702.96a6 6 0 0 1-6-6z" fill="#fff"/><path d="M1037.77-1196.8l58.66-.02m14.66 0h29.32m14.67 0h58.65m14.66 0h29.34m14.66-.02h58.66m14.67 0h29.32m14.67 0h58.66m14.66-.02h29.33m14.67 0h58.65m14.66 0h29.33m14.65 0l58.66-.02m14.67 0h14.67l.94.07.9.2.88.37.8.5.72.6.6.72.5.8.37.86.22.92v14.44m0 14.44v57.77m.02 14.44v28.88m0 14.45v57.76m0 14.44l.02 28.9m0 14.43v57.77m.02 14.44v14.44l-.07.94-.22.9-.36.88-.5.8-.62.72-.7.6-.82.5-.87.37-.92.2h-14.67m-14.65 0h-58.66m-14.67.02h-29.33m-14.67 0h-58.66m-14.66 0H1464m-14.66 0l-58.66.02m-14.67 0h-29.34m-14.66 0h-58.66m-14.66 0l-29.33.02m-14.67 0h-58.65m-14.67 0h-29.33m-14.66 0l-58.66.02m-14.66 0h-14.66l-.94-.07-.9-.2-.88-.37-.8-.5-.72-.6-.6-.72-.5-.8-.37-.87-.22-.9v-14.45m0-14.45v-57.76m-.02-14.44v-28.9m0-14.43l-.02-57.77m0-14.44v-28.9m0-14.43V-1162m-.02-14.44v-14.44l.07-.94.22-.92.36-.87.5-.8.6-.72.72-.62.8-.5.88-.35.9-.2h14.68" stroke="#cfe4ff" stroke-width="3" fill="none"/><use xlink:href="#a" transform="matrix(1,0,0,1,1008.3804395716033,-1191.8823844406527) translate(293.82378472222223 39.00238715277777)"/><use xlink:href="#b" transform="matrix(1,0,0,1,1008.3804395716033,-1191.8823844406527) translate(396.5071614583333 39.00238715277777)"/><use xlink:href="#c" transform="matrix(1,0,0,1,1008.3804395716033,-1191.8823844406527) translate(352.5 67.45724826388887)"/><use xlink:href="#d" transform="matrix(1,0,0,1,1008.3804395716033,-1191.8823844406527) translate(352.5 95.91210937499997)"/><use xlink:href="#d" transform="matrix(1,0,0,1,1008.3804395716033,-1191.8823844406527) translate(352.5 124.36697048611107)"/><use xlink:href="#d" transform="matrix(1,0,0,1,1008.3804395716033,-1191.8823844406527) translate(352.5 152.82183159722217)"/><use xlink:href="#d" transform="matrix(1,0,0,1,1008.3804395716033,-1191.8823844406527) translate(352.5 181.2766927083333)"/><use xlink:href="#d" transform="matrix(1,0,0,1,1008.3804395716033,-1191.8823844406527) translate(352.5 209.7315538194444)"/><use xlink:href="#d" transform="matrix(1,0,0,1,1008.3804395716033,-1191.8823844406527) translate(352.5 238.18641493055551)"/><use xlink:href="#d" transform="matrix(1,0,0,1,1008.3804395716033,-1191.8823844406527) translate(352.5 266.64127604166663)"/><use xlink:href="#d" transform="matrix(1,0,0,1,1008.3804395716033,-1191.8823844406527) translate(352.5 295.0961371527777)"/><use xlink:href="#e" transform="matrix(1,0,0,1,1008.3804395716033,-1191.8823844406527) translate(352.5 323.5509982638888)"/><path d="M103.8-1190.88a6 6 0 0 1 6-6h867a6 6 0 0 1 6 6v345.66a6 6 0 0 1-6 6h-867a6 6 0 0 1-6-6z" fill="#fff"/><path d="M139.86-1196.8l62-.02m15.5 0h31m15.5 0h62m15.48 0h31m15.5 0l62-.02m15.5 0h31m15.5 0h62m15.48 0h31m15.5 0l62-.02m15.5 0h31m15.5 0h61.98m15.5 0h31m15.5 0l62-.02m15.5 0h15.5l.93.07.92.2.87.37.8.5.7.6.63.72.5.8.35.86.22.92v14.44m0 14.44l.02 57.77m0 14.44v28.88m0 14.45l.02 57.76m0 14.44v28.9m0 14.43l.03 57.77m0 14.44v14.44l-.08.94-.22.9-.36.88-.5.8-.6.72-.72.6-.8.5-.87.37-.92.2h-15.5m-15.5 0h-62m-15.5 0l-31 .02m-15.5 0h-61.98m-15.5 0h-31m-15.5 0h-62m-15.5.02h-31m-15.5 0h-61.98m-15.5 0h-31m-15.5 0l-62 .02m-15.5 0h-31m-15.5 0H264.8m-15.5 0h-31m-15.5 0l-62 .02m-15.5 0h-15.5l-.94-.07-.9-.2-.88-.37-.8-.5-.72-.6-.6-.72-.5-.8-.36-.87-.22-.9v-14.45m0-14.45l-.02-57.76m0-14.44v-28.9m0-14.43l-.03-57.77m0-14.44v-28.9m0-14.43l-.02-57.77m0-14.44v-14.44l.08-.94.22-.92.36-.87.5-.8.6-.72.72-.62.8-.5.87-.35.9-.2h15.5" stroke="#cfe4ff" stroke-width="3" fill="none"/><use xlink:href="#a" transform="matrix(1,0,0,1,108.80216564119866,-1191.8823844406527) translate(375.82378472222223 39.00238715277777)"/><use xlink:href="#f" transform="matrix(1,0,0,1,108.80216564119866,-1191.8823844406527) translate(478.5071614583333 39.00238715277777)"/><use xlink:href="#c" transform="matrix(1,0,0,1,108.80216564119866,-1191.8823844406527) translate(434.5 67.45724826388887)"/><use xlink:href="#d" transform="matrix(1,0,0,1,108.80216564119866,-1191.8823844406527) translate(434.5 95.91210937499997)"/><use xlink:href="#d" transform="matrix(1,0,0,1,108.80216564119866,-1191.8823844406527) translate(434.5 124.36697048611107)"/><use xlink:href="#d" transform="matrix(1,0,0,1,108.80216564119866,-1191.8823844406527) translate(434.5 152.82183159722217)"/><use xlink:href="#d" transform="matrix(1,0,0,1,108.80216564119866,-1191.8823844406527) translate(434.5 181.2766927083333)"/><use xlink:href="#d" transform="matrix(1,0,0,1,108.80216564119866,-1191.8823844406527) translate(434.5 209.7315538194444)"/><use xlink:href="#d" transform="matrix(1,0,0,1,108.80216564119866,-1191.8823844406527) translate(434.5 238.18641493055551)"/><use xlink:href="#d" transform="matrix(1,0,0,1,108.80216564119866,-1191.8823844406527) translate(434.5 266.64127604166663)"/><use xlink:href="#d" transform="matrix(1,0,0,1,108.80216564119866,-1191.8823844406527) translate(434.5 295.0961371527777)"/><use xlink:href="#e" transform="matrix(1,0,0,1,108.80216564119866,-1191.8823844406527) translate(434.5 323.5509982638888)"/><path d="M125.1-1104.14a6 6 0 0 1 6-6H517a6 6 0 0 1 6 6v225.64a6 6 0 0 1-6 6H131.1a6 6 0 0 1-6-6z" stroke="#5e5e5e" stroke-width="2" fill="#fff"/><use xlink:href="#g" transform="matrix(1,0,0,1,130.10574229692,-1105.1438491205492) translate(194 22.68988715277777)"/><use xlink:href="#d" transform="matrix(1,0,0,1,130.10574229692,-1105.1438491205492) translate(194 51.14474826388887)"/><use xlink:href="#d" transform="matrix(1,0,0,1,130.10574229692,-1105.1438491205492) translate(194 79.59960937499997)"/><use xlink:href="#d" transform="matrix(1,0,0,1,130.10574229692,-1105.1438491205492) translate(194 108.05447048611109)"/><use xlink:href="#d" transform="matrix(1,0,0,1,130.10574229692,-1105.1438491205492) translate(194 136.50933159722217)"/><use xlink:href="#d" transform="matrix(1,0,0,1,130.10574229692,-1105.1438491205492) translate(194 164.9641927083333)"/><use xlink:href="#d" transform="matrix(1,0,0,1,130.10574229692,-1105.1438491205492) translate(194 193.4190538194444)"/><use xlink:href="#h" transform="matrix(1,0,0,1,130.10574229692,-1105.1438491205492) translate(157.3273654513889 221.87391493055551)"/><path d="M278.02-991.3c17.34 0 31.4 15 31.4 33.53 0 18.52-14.06 33.53-31.4 33.53h-94.2c-17.34 0-31.4-15-31.4-33.53 0-18.52 14.06-33.53 31.4-33.53z" stroke="#188fff" stroke-width="4" fill-opacity="0"/><use xlink:href="#i" transform="matrix(1,0,0,1,157.42156862745213,-986.3008143344583) translate(26.358995225694457 35.33344184027777)"/><path d="M467.47-991.3c17.35 0 31.4 15 31.4 33.53 0 18.52-14.05 33.53-31.4 33.53h-94.2c-17.34 0-31.4-15-31.4-33.53 0-18.52 14.06-33.53 31.4-33.53z" stroke="#188fff" stroke-width="4" fill-opacity="0"/><use xlink:href="#j" transform="matrix(1,0,0,1,346.8760504201248,-986.3008143344583) translate(26.358995225694457 35.33344184027777)"/><path d="M566.47-1104.14a6 6 0 0 1 6-6h385.9a6 6 0 0 1 6 6v225.64a6 6 0 0 1-6 6h-385.9a6 6 0 0 1-6-6z" stroke="#5e5e5e" stroke-width="2" fill="#fff"/><use xlink:href="#g" transform="matrix(1,0,0,1,571.4719887954749,-1105.1438491205492) translate(194 22.68988715277777)"/><use xlink:href="#d" transform="matrix(1,0,0,1,571.4719887954749,-1105.1438491205492) translate(194 51.14474826388887)"/><use xlink:href="#d" transform="matrix(1,0,0,1,571.4719887954749,-1105.1438491205492) translate(194 79.59960937499997)"/><use xlink:href="#d" transform="matrix(1,0,0,1,571.4719887954749,-1105.1438491205492) translate(194 108.05447048611109)"/><use xlink:href="#d" transform="matrix(1,0,0,1,571.4719887954749,-1105.1438491205492) translate(194 136.50933159722217)"/><use xlink:href="#d" transform="matrix(1,0,0,1,571.4719887954749,-1105.1438491205492) translate(194 164.9641927083333)"/><use xlink:href="#d" transform="matrix(1,0,0,1,571.4719887954749,-1105.1438491205492) translate(194 193.4190538194444)"/><use xlink:href="#k" transform="matrix(1,0,0,1,571.4719887954749,-1105.1438491205492) translate(157.3273654513889 221.87391493055551)"/><path d="M467.47-1086.64c17.35 0 31.4 15.02 31.4 33.54 0 18.5-14.05 33.53-31.4 33.53h-94.2c-17.34 0-31.4-15.02-31.4-33.53 0-18.52 14.06-33.54 31.4-33.54z" stroke="#188fff" stroke-width="4" fill-opacity="0"/><use xlink:href="#l" transform="matrix(1,0,0,1,346.8760504201248,-1081.635334423744) translate(26.358995225694457 35.33344184027777)"/><path d="M908.84-1086.64c17.34 0 31.4 15.02 31.4 33.54 0 18.5-14.06 33.53-31.4 33.53h-94.2c-17.34 0-31.4-15.02-31.4-33.53 0-18.52 14.06-33.54 31.4-33.54z" stroke="#188fff" stroke-width="4" fill-opacity="0"/><use xlink:href="#m" transform="matrix(1,0,0,1,788.2422969186798,-1081.635334423744) translate(26.358995225694457 35.33344184027777)"/><path d="M720.47-991.3c17.34 0 31.4 15 31.4 33.53 0 18.52-14.06 33.53-31.4 33.53h-94.2c-17.34 0-31.4-15-31.4-33.53 0-18.52 14.06-33.53 31.4-33.53z" stroke="#188fff" stroke-width="4" fill-opacity="0"/><use xlink:href="#n" transform="matrix(1,0,0,1,599.8738535216498,-986.3008143344588) translate(26.358995225694457 35.33344184027777)"/><path d="M1029.5-1104.14a6 6 0 0 1 6-6h201.87a6 6 0 0 1 6 6v225.64a6 6 0 0 1-6 6H1035.5a6 6 0 0 1-6-6z" stroke="#5e5e5e" stroke-width="2" fill="#fff"/><use xlink:href="#g" transform="matrix(1,0,0,1,1034.50370339544,-1105.1438491205492) translate(102 22.68988715277777)"/><use xlink:href="#d" transform="matrix(1,0,0,1,1034.50370339544,-1105.1438491205492) translate(102 51.14474826388887)"/><use xlink:href="#d" transform="matrix(1,0,0,1,1034.50370339544,-1105.1438491205492) translate(102 79.59960937499997)"/><use xlink:href="#d" transform="matrix(1,0,0,1,1034.50370339544,-1105.1438491205492) translate(102 108.05447048611109)"/><use xlink:href="#d" transform="matrix(1,0,0,1,1034.50370339544,-1105.1438491205492) translate(102 136.50933159722217)"/><use xlink:href="#d" transform="matrix(1,0,0,1,1034.50370339544,-1105.1438491205492) translate(102 164.9641927083333)"/><use xlink:href="#d" transform="matrix(1,0,0,1,1034.50370339544,-1105.1438491205492) translate(102 193.4190538194444)"/><use xlink:href="#o" transform="matrix(1,0,0,1,1034.50370339544,-1105.1438491205492) translate(65.3273654513889 221.87391493055551)"/><path d="M1182.42-991.3c17.34 0 31.4 15 31.4 33.53 0 18.52-14.06 33.53-31.4 33.53h-94.2c-17.34 0-31.4-15-31.4-33.53 0-18.52 14.06-33.53 31.4-33.53z" stroke="#188fff" stroke-width="4" fill-opacity="0"/><use xlink:href="#p" transform="matrix(1,0,0,1,1061.8195297259715,-986.3008143344588) translate(26.358995225694457 35.33344184027777)"/><path d="M1286.85-1104.14a6 6 0 0 1 6-6h385.9a6 6 0 0 1 6 6v225.64a6 6 0 0 1-6 6h-385.9a6 6 0 0 1-6-6z" stroke="#5e5e5e" stroke-width="2" fill="#fff"/><use xlink:href="#g" transform="matrix(1,0,0,1,1291.8475409304097,-1105.1438491205492) translate(194 22.68988715277777)"/><use xlink:href="#d" transform="matrix(1,0,0,1,1291.8475409304097,-1105.1438491205492) translate(194 51.14474826388887)"/><use xlink:href="#d" transform="matrix(1,0,0,1,1291.8475409304097,-1105.1438491205492) translate(194 79.59960937499997)"/><use xlink:href="#d" transform="matrix(1,0,0,1,1291.8475409304097,-1105.1438491205492) translate(194 108.05447048611109)"/><use xlink:href="#d" transform="matrix(1,0,0,1,1291.8475409304097,-1105.1438491205492) translate(194 136.50933159722217)"/><use xlink:href="#d" transform="matrix(1,0,0,1,1291.8475409304097,-1105.1438491205492) translate(194 164.9641927083333)"/><use xlink:href="#d" transform="matrix(1,0,0,1,1291.8475409304097,-1105.1438491205492) translate(194 193.4190538194444)"/><use xlink:href="#q" transform="matrix(1,0,0,1,1291.8475409304097,-1105.1438491205492) translate(157.3273654513889 221.87391493055551)"/><path d="M1439.76-1086.64c17.34 0 31.4 15.02 31.4 33.54 0 18.5-14.06 33.53-31.4 33.53h-94.2c-17.34 0-31.4-15.02-31.4-33.53 0-18.52 14.06-33.54 31.4-33.54z" stroke="#188fff" stroke-width="4" fill-opacity="0"/><g><use xlink:href="#r" transform="matrix(1,0,0,1,1319.1633672609416,-1081.635334423744) translate(19.624565972222236 35.33344184027777)"/></g><path d="M1629.22-1086.64c17.34 0 31.4 15.02 31.4 33.54 0 18.5-14.06 33.53-31.4 33.53h-94.2c-17.34 0-31.4-15.02-31.4-33.53 0-18.52 14.06-33.54 31.4-33.54z" stroke="#188fff" stroke-width="4" fill-opacity="0"/><g><use xlink:href="#s" transform="matrix(1,0,0,1,1508.6178490536142,-1081.635334423744) translate(19.624565972222236 35.33344184027777)"/></g><path d="M1629.22-991.3c17.34 0 31.4 15 31.4 33.53 0 18.52-14.06 33.53-31.4 33.53h-94.2c-17.34 0-31.4-15-31.4-33.53 0-18.52 14.06-33.53 31.4-33.53z" stroke="#188fff" stroke-width="4" fill-opacity="0"/><g><use xlink:href="#t" transform="matrix(1,0,0,1,1508.6178490536142,-986.3008143344583) translate(19.624565972222236 35.33344184027777)"/></g><path d="M278.02-1086.64c17.34 0 31.4 15.02 31.4 33.54 0 18.5-14.06 33.53-31.4 33.53h-94.2c-17.34 0-31.4-15.02-31.4-33.53 0-18.52 14.06-33.54 31.4-33.54z" stroke="#188fff" stroke-width="4" fill="#fff"/><g><use xlink:href="#u" transform="matrix(1,0,0,1,157.42156862745213,-1081.635334423744) translate(26.358995225694457 35.33344184027777)"/></g><path d="M102.26-792.45a6 6 0 0 1 6-6h442.3a6 6 0 0 1 6 6v345.66a6 6 0 0 1-6 6h-442.3a6 6 0 0 1-6-6z" fill="#fff"/><path d="M135.02-798.38h55.4m13.86 0l27.7-.02m13.85 0h55.4m13.86 0h27.7m13.84-.02h55.4m13.86 0h27.7m13.86-.02h55.4m13.85 0h13.87l.93.06.92.22.87.36.8.5.7.6.62.72.5.8.35.88.22.9v14.45m0 14.45v57.76m0 14.44l.02 28.9m0 14.43v57.77m.02 14.44v28.88m0 14.44l.02 57.77m0 14.44v14.44l-.07.95-.23.92-.36.87-.48.8-.6.7-.73.63-.8.5-.88.35-.92.22h-13.85m-13.85 0h-55.4m-13.86 0l-27.7.02m-13.85 0h-55.42m-13.85 0l-27.7.02m-13.85 0h-55.4m-13.86 0l-27.7.02m-13.85 0h-55.4m-13.86 0h-13.84l-.94-.06-.92-.22-.87-.36-.8-.5-.72-.6-.6-.72-.5-.8-.35-.87-.22-.92v-14.44m0-14.43l-.02-57.77m0-14.44v-28.88m0-14.45v-57.76m-.02-14.44v-28.9m0-14.43l-.02-57.77m0-14.44v-14.45l.07-.94.22-.9.36-.87.5-.8.6-.72.73-.6.8-.5.87-.36.92-.22h13.85" stroke="#cfe4ff" stroke-width="3" fill="none"/><g><use xlink:href="#v" transform="matrix(1,0,0,1,107.25622034275307,-793.4494592497863) translate(222.5 28.12738715277777)"/><use xlink:href="#w" transform="matrix(1,0,0,1,107.25622034275307,-793.4494592497863) translate(222.5 56.58224826388887)"/><use xlink:href="#w" transform="matrix(1,0,0,1,107.25622034275307,-793.4494592497863) translate(222.5 85.03710937499997)"/><use xlink:href="#w" transform="matrix(1,0,0,1,107.25622034275307,-793.4494592497863) translate(222.5 113.49197048611107)"/><use xlink:href="#w" transform="matrix(1,0,0,1,107.25622034275307,-793.4494592497863) translate(222.5 141.94683159722217)"/><use xlink:href="#w" transform="matrix(1,0,0,1,107.25622034275307,-793.4494592497863) translate(222.5 170.4016927083333)"/><use xlink:href="#w" transform="matrix(1,0,0,1,107.25622034275307,-793.4494592497863) translate(222.5 198.8565538194444)"/><use xlink:href="#w" transform="matrix(1,0,0,1,107.25622034275307,-793.4494592497863) translate(222.5 227.31141493055551)"/><use xlink:href="#w" transform="matrix(1,0,0,1,107.25622034275307,-793.4494592497863) translate(222.5 255.76627604166663)"/><use xlink:href="#w" transform="matrix(1,0,0,1,107.25622034275307,-793.4494592497863) translate(222.5 284.2211371527777)"/><use xlink:href="#w" transform="matrix(1,0,0,1,107.25622034275307,-793.4494592497863) translate(222.5 312.6759982638888)"/><use xlink:href="#x" transform="matrix(1,0,0,1,107.25622034275307,-793.4494592497863) translate(163.82378472222223 341.1308593749999)"/><use xlink:href="#y" transform="matrix(1,0,0,1,107.25622034275307,-793.4494592497863) translate(266.5071614583333 341.1308593749999)"/></g><path d="M600.43-792.45a6 6 0 0 1 6-6h1105.9a6 6 0 0 1 6 6v352.3a6 6 0 0 1-6 6H606.44a6 6 0 0 1-6-6z" fill="#fff"/><path d="M636.23-798.38h61.5m15.37 0h30.74m15.38 0h61.5m15.36 0h30.75m15.37 0l61.5-.02m15.37 0h30.74m15.38 0h61.5m15.37 0h30.74m15.37 0h61.5m15.36-.02h30.75m15.37 0h61.5m15.37 0h30.74m15.37 0h61.5m15.37 0h30.75m15.37-.02h61.5m15.36 0h30.75m15.37 0h61.5m15.37 0h15.37l.94.06.9.22.88.36.8.5.72.6.6.72.5.8.37.88.22.9v14.73m0 14.72v58.87m.02 14.72v29.43m0 14.72v58.86m0 14.72l.02 29.43m0 14.73v58.87m.02 14.72v14.72l-.07.94-.22.9-.36.88-.5.8-.62.72-.7.6-.82.5-.87.36-.92.22h-15.38m-15.37 0h-61.5m-15.36 0h-30.75m-15.37 0l-61.5.02m-15.37 0h-30.74m-15.38 0h-61.5m-15.36 0h-30.75m-15.37 0h-61.5m-15.36 0l-30.75.02m-15.37 0h-61.5m-15.37 0H1083m-15.4 0h-61.48m-15.37 0H960m-15.37 0l-61.5.02m-15.36 0h-30.75m-15.37 0h-61.5m-15.37 0h-30.74m-15.38 0h-61.5m-15.36.02h-15.37l-.94-.08-.93-.22-.87-.36-.8-.5-.72-.6-.6-.72-.5-.8-.36-.87-.22-.92v-14.72m0-14.72l-.02-58.87m0-14.72v-29.43m0-14.72l-.02-58.87m0-14.72v-29.43m-.02-14.7v-58.88m0-14.73v-14.72l.06-.94.22-.9.36-.87.5-.8.6-.72.72-.6.8-.5.87-.36.92-.22h15.36" stroke="#cfe4ff" stroke-width="3" fill="none"/><g><use xlink:href="#v" transform="matrix(1,0,0,1,605.4264684670243,-793.4494592497863) translate(554 22.68988715277777)"/><use xlink:href="#w" transform="matrix(1,0,0,1,605.4264684670243,-793.4494592497863) translate(554 51.14474826388887)"/><use xlink:href="#w" transform="matrix(1,0,0,1,605.4264684670243,-793.4494592497863) translate(554 79.59960937499997)"/><use xlink:href="#w" transform="matrix(1,0,0,1,605.4264684670243,-793.4494592497863) translate(554 108.05447048611109)"/><use xlink:href="#w" transform="matrix(1,0,0,1,605.4264684670243,-793.4494592497863) translate(554 136.50933159722217)"/><use xlink:href="#w" transform="matrix(1,0,0,1,605.4264684670243,-793.4494592497863) translate(554 164.9641927083333)"/><use xlink:href="#w" transform="matrix(1,0,0,1,605.4264684670243,-793.4494592497863) translate(554 193.4190538194444)"/><use xlink:href="#w" transform="matrix(1,0,0,1,605.4264684670243,-793.4494592497863) translate(554 221.87391493055551)"/><use xlink:href="#w" transform="matrix(1,0,0,1,605.4264684670243,-793.4494592497863) translate(554 250.32877604166663)"/><use xlink:href="#w" transform="matrix(1,0,0,1,605.4264684670243,-793.4494592497863) translate(554 278.7836371527777)"/><use xlink:href="#w" transform="matrix(1,0,0,1,605.4264684670243,-793.4494592497863) translate(554 307.2384982638888)"/><use xlink:href="#x" transform="matrix(1,0,0,1,605.4264684670243,-793.4494592497863) translate(495.32378472222223 335.6933593749999)"/><use xlink:href="#z" transform="matrix(1,0,0,1,605.4264684670243,-793.4494592497863) translate(598.0071614583333 335.6933593749999)"/><use xlink:href="#A" transform="matrix(1,0,0,1,605.4264684670243,-793.4494592497863) translate(554 364.148220486111)"/></g><path d="M1285.3-744.5a6 6 0 0 1 6-6h385.9a6 6 0 0 1 6 6v225.65a6 6 0 0 1-6 6h-385.9a6 6 0 0 1-6-6z" stroke="#5e5e5e" stroke-width="2" fill="#fff"/><g><use xlink:href="#g" transform="matrix(1,0,0,1,1290.3015956319637,-745.4880664582976) translate(194 22.68988715277777)"/><use xlink:href="#d" transform="matrix(1,0,0,1,1290.3015956319637,-745.4880664582976) translate(194 51.14474826388887)"/><use xlink:href="#d" transform="matrix(1,0,0,1,1290.3015956319637,-745.4880664582976) translate(194 79.59960937499997)"/><use xlink:href="#d" transform="matrix(1,0,0,1,1290.3015956319637,-745.4880664582976) translate(194 108.05447048611109)"/><use xlink:href="#d" transform="matrix(1,0,0,1,1290.3015956319637,-745.4880664582976) translate(194 136.50933159722217)"/><use xlink:href="#d" transform="matrix(1,0,0,1,1290.3015956319637,-745.4880664582976) translate(194 164.9641927083333)"/><use xlink:href="#d" transform="matrix(1,0,0,1,1290.3015956319637,-745.4880664582976) translate(194 193.4190538194444)"/><use xlink:href="#B" transform="matrix(1,0,0,1,1290.3015956319637,-745.4880664582976) translate(157.3273654513889 221.87391493055551)"/></g><path d="M1438.22-631.65c17.34 0 31.4 15.02 31.4 33.54 0 18.5-14.06 33.52-31.4 33.52h-94.2c-17.34 0-31.4-15.02-31.4-33.53 0-18.53 14.06-33.55 31.4-33.55z" stroke="#188fff" stroke-width="4" fill-opacity="0"/><g><use xlink:href="#C" transform="matrix(1,0,0,1,1317.6174219624957,-626.6450316722065) translate(19.624565972222236 35.33344184027777)"/></g><path d="M953.18-744.5a6 6 0 0 1 6-6h276.64a6 6 0 0 1 6 6v225.65a6 6 0 0 1-6 6H959.18a6 6 0 0 1-6-6z" stroke="#5e5e5e" stroke-width="2" fill="#fff"/><g><use xlink:href="#g" transform="matrix(1,0,0,1,958.1756412700679,-745.4880664582976) translate(139.5 22.68988715277777)"/><use xlink:href="#d" transform="matrix(1,0,0,1,958.1756412700679,-745.4880664582976) translate(139.5 51.14474826388887)"/><use xlink:href="#d" transform="matrix(1,0,0,1,958.1756412700679,-745.4880664582976) translate(139.5 79.59960937499997)"/><use xlink:href="#d" transform="matrix(1,0,0,1,958.1756412700679,-745.4880664582976) translate(139.5 108.05447048611109)"/><use xlink:href="#d" transform="matrix(1,0,0,1,958.1756412700679,-745.4880664582976) translate(139.5 136.50933159722217)"/><use xlink:href="#d" transform="matrix(1,0,0,1,958.1756412700679,-745.4880664582976) translate(139.5 164.9641927083333)"/><use xlink:href="#d" transform="matrix(1,0,0,1,958.1756412700679,-745.4880664582976) translate(139.5 193.4190538194444)"/><use xlink:href="#D" transform="matrix(1,0,0,1,958.1756412700679,-745.4880664582976) translate(102.8273654513889 221.87391493055551)"/></g><path d="M1629.22-726.98c17.34 0 31.4 15 31.4 33.53 0 18.52-14.06 33.53-31.4 33.53h-94.2c-17.34 0-31.4-15-31.4-33.53 0-18.52 14.06-33.53 31.4-33.53z" stroke="#188fff" stroke-width="4" fill-opacity="0"/><g><use xlink:href="#E" transform="matrix(1,0,0,1,1508.6178490536142,-721.9795517614924) translate(19.624565972222236 35.33344184027777)"/></g><path d="M1129.83-631.65c17.34 0 31.4 15.02 31.4 33.54 0 18.5-14.06 33.52-31.4 33.52h-94.2c-17.34 0-31.4-15.02-31.4-33.53 0-18.53 14.06-33.55 31.4-33.55z" stroke="#188fff" stroke-width="4" fill-opacity="0"/><g><use xlink:href="#F" transform="matrix(1,0,0,1,1009.2285616980528,-626.645031672207) translate(19.624565972222236 35.33344184027777)"/></g><path d="M626.57-744.5a6 6 0 0 1 6-6H903.7a6 6 0 0 1 6 6v225.65a6 6 0 0 1-6 6H632.57a6 6 0 0 1-6-6z" stroke="#5e5e5e" stroke-width="2" fill="#fff"/><g><use xlink:href="#g" transform="matrix(1,0,0,1,631.5675961378903,-745.4880664582976) translate(137 22.68988715277777)"/><use xlink:href="#d" transform="matrix(1,0,0,1,631.5675961378903,-745.4880664582976) translate(137 51.14474826388887)"/><use xlink:href="#d" transform="matrix(1,0,0,1,631.5675961378903,-745.4880664582976) translate(137 79.59960937499997)"/><use xlink:href="#d" transform="matrix(1,0,0,1,631.5675961378903,-745.4880664582976) translate(137 108.05447048611109)"/><use xlink:href="#d" transform="matrix(1,0,0,1,631.5675961378903,-745.4880664582976) translate(137 136.50933159722217)"/><use xlink:href="#d" transform="matrix(1,0,0,1,631.5675961378903,-745.4880664582976) translate(137 164.9641927083333)"/><use xlink:href="#d" transform="matrix(1,0,0,1,631.5675961378903,-745.4880664582976) translate(137 193.4190538194444)"/><use xlink:href="#G" transform="matrix(1,0,0,1,631.5675961378903,-745.4880664582976) translate(100.3273654513889 221.87391493055551)"/></g><path d="M822.18-631.65c17.34 0 31.4 15.02 31.4 33.54 0 18.5-14.06 33.52-31.4 33.52h-94.2c-17.34 0-31.4-15.02-31.4-33.53 0-18.53 14.06-33.55 31.4-33.55z" stroke="#188fff" stroke-width="4" fill-opacity="0"/><g><use xlink:href="#H" transform="matrix(1,0,0,1,701.5779082231154,-626.645031672207) translate(19.624565972222236 35.33344184027777)"/></g><path d="M118.17-744.5a6 6 0 0 1 6-6h385.9a6 6 0 0 1 6 6v225.65a6 6 0 0 1-6 6h-385.9a6 6 0 0 1-6-6z" stroke="#5e5e5e" stroke-width="2" fill="#fff"/><g><use xlink:href="#g" transform="matrix(1,0,0,1,123.1674765612888,-745.4880664582976) translate(194 22.68988715277777)"/><use xlink:href="#d" transform="matrix(1,0,0,1,123.1674765612888,-745.4880664582976) translate(194 51.14474826388887)"/><use xlink:href="#d" transform="matrix(1,0,0,1,123.1674765612888,-745.4880664582976) translate(194 79.59960937499997)"/><use xlink:href="#d" transform="matrix(1,0,0,1,123.1674765612888,-745.4880664582976) translate(194 108.05447048611109)"/><use xlink:href="#d" transform="matrix(1,0,0,1,123.1674765612888,-745.4880664582976) translate(194 136.50933159722217)"/><use xlink:href="#d" transform="matrix(1,0,0,1,123.1674765612888,-745.4880664582976) translate(194 164.9641927083333)"/><use xlink:href="#d" transform="matrix(1,0,0,1,123.1674765612888,-745.4880664582976) translate(194 193.4190538194444)"/><use xlink:href="#I" transform="matrix(1,0,0,1,123.1674765612888,-745.4880664582976) translate(157.3273654513889 221.87391493055551)"/></g><path d="M822.18-726.98c17.34 0 31.4 15 31.4 33.53 0 18.52-14.06 33.53-31.4 33.53h-94.2c-17.34 0-31.4-15-31.4-33.53 0-18.52 14.06-33.53 31.4-33.53z" stroke="#188fff" stroke-width="4" fill-opacity="0"/><g><use xlink:href="#J" transform="matrix(1,0,0,1,701.5779082231154,-721.9795517614924) translate(19.624565972222236 35.33344184027777)"/></g><path d="M460.54-726.98c17.34 0 31.4 15 31.4 33.53 0 18.52-14.06 33.53-31.4 33.53h-94.2c-17.34 0-31.4-15-31.4-33.53 0-18.52 14.06-33.53 31.4-33.53z" stroke="#188fff" stroke-width="4" fill-opacity="0"/><g><use xlink:href="#K" transform="matrix(1,0,0,1,339.93778468449335,-721.9795517614924) translate(19.624565972222236 35.33344184027777)"/></g><path d="M460.54-631.65c17.34 0 31.4 15.02 31.4 33.54 0 18.5-14.06 33.52-31.4 33.52h-94.2c-17.34 0-31.4-15.02-31.4-33.53 0-18.53 14.06-33.55 31.4-33.55z" stroke="#188fff" stroke-width="4" fill-opacity="0"/><g><use xlink:href="#L" transform="matrix(1,0,0,1,339.93778468449335,-626.6450316722065) translate(19.624565972222236 35.33344184027777)"/></g><path d="M1438.22-726.98c17.34 0 31.4 15 31.4 33.53 0 18.52-14.06 33.53-31.4 33.53h-94.2c-17.34 0-31.4-15-31.4-33.53 0-18.52 14.06-33.53 31.4-33.53z" stroke="#188fff" stroke-width="4" fill="#fff"/><g><use xlink:href="#M" transform="matrix(1,0,0,1,1317.6174219624957,-721.9795517614924) translate(19.624565972222236 35.33344184027777)"/></g><path d="M1127.43-726.98c17.34 0 31.4 15 31.4 33.53 0 18.52-14.06 33.53-31.4 33.53h-94.2c-17.34 0-31.4-15-31.4-33.53 0-18.52 14.06-33.53 31.4-33.53z" stroke="#188fff" stroke-width="4" fill="#188fff"/><g><use xlink:href="#N" transform="matrix(1,0,0,1,1006.8344942731578,-721.9795517614924) translate(19.624565972222236 35.33344184027777)"/></g><path d="M720.47-1086.64c17.34 0 31.4 15.02 31.4 33.54 0 18.5-14.06 33.53-31.4 33.53h-94.2c-17.34 0-31.4-15.02-31.4-33.53 0-18.52 14.06-33.54 31.4-33.54z" stroke="#188fff" stroke-width="4" fill="#188fff"/><g><use xlink:href="#O" transform="matrix(1,0,0,1,599.8738535216498,-1081.635334423744) translate(26.358995225694457 35.33344184027777)"/></g><path d="M278.02-726.98c17.34 0 31.4 15 31.4 33.53 0 18.52-14.06 33.53-31.4 33.53h-94.2c-17.34 0-31.4-15-31.4-33.53 0-18.52 14.06-33.53 31.4-33.53z" stroke="#188fff" stroke-width="4" fill="#188fff"/><g><use xlink:href="#P" transform="matrix(1,0,0,1,157.42156862745213,-721.9795517614924) translate(19.624565972222236 35.33344184027777)"/></g><path d="M1182.42-1086.64c17.34 0 31.4 15.02 31.4 33.54 0 18.5-14.06 33.53-31.4 33.53h-94.2c-17.34 0-31.4-15.02-31.4-33.53 0-18.52 14.06-33.54 31.4-33.54z" stroke="#188fff" stroke-width="4" fill-opacity="0"/><g><use xlink:href="#Q" transform="matrix(1,0,0,1,1061.819529725972,-1081.635334423744) translate(26.358995225694457 35.33344184027777)"/></g><path d="M1439.76-991.3c17.34 0 31.4 15 31.4 33.53 0 18.52-14.06 33.53-31.4 33.53h-94.2c-17.34 0-31.4-15-31.4-33.53 0-18.52 14.06-33.53 31.4-33.53z" stroke="#188fff" stroke-width="4" fill-opacity="0"/><g><use xlink:href="#R" transform="matrix(1,0,0,1,1319.1633672609416,-986.3008143344588) translate(19.624565972222236 35.33344184027777)"/></g><defs><path fill="#1071e5" d="M373-604V0H186v-1462h357c347 0 520 138 520 415 0 191-96 322-289 392L1171 0H952L602-604H373zm497-434c0-207-118-263-338-265H373v541h164c215-1 333-70 333-276" id="S"/><path fill="#1071e5" d="M631-1118c283 0 470 204 465 491v113H322c5 250 120 375 344 375 130 0 253-25 370-76v160C925-5 804 20 672 20c-329 0-539-224-539-561 0-331 182-577 498-577zM326-662h573c0-203-91-305-272-305-183 0-284 102-301 305" id="T"/><path fill="#1071e5" d="M188-739c-1-248 156-381 410-379 57 0 107 7 150 20h378v113l-196 27c43 57 65 128 65 213 2 253-212 385-489 346-67 37-100 82-100 133 0 56 54 84 161 84h187c216-2 358 93 358 297 0 251-188 377-565 377-145 0-255-26-331-80S102 283 102 186c0-141 80-231 240-270-64-31-96-83-96-154 0-75 44-139 133-192-109-41-191-166-191-309zm406 221c149 0 223-77 223-230 0-159-75-239-225-239s-225 81-225 242c0 151 76 227 227 227zm346 649c0-146-78-149-248-149H504c-153 0-230 66-230 198 0 116 90 174 271 174 263 0 395-74 395-223" id="U"/><path fill="#1071e5" d="M739-1436c0 71-43 115-106 115-71 0-107-38-107-115 0-76 36-114 107-114s106 38 106 114zM541-954l-269-21v-123h451v955l352 20V0H197v-123l344-20v-811" id="V"/><path fill="#1071e5" d="M1112-551c0 331-186 571-502 571-301 0-495-251-495-571 0-330 184-567 501-567 302 0 496 249 496 567zM614-131c207 0 310-140 310-420 0-277-104-416-312-416-206 0-309 139-309 416 0 280 104 420 311 420" id="W"/><path fill="#1071e5" d="M887 0v-707c0-173-79-260-238-260-205 0-307 133-307 398V0H160v-1098h147l27 148h10c69-112 181-168 336-168 259 0 389 134 389 401V0H887" id="X"/><g id="a"><use transform="matrix(0.011935763888888886,0,0,0.011935763888888886,0,0)" xlink:href="#S"/><use transform="matrix(0.011935763888888886,0,0,0.011935763888888886,14.669053819444441,0)" xlink:href="#T"/><use transform="matrix(0.011935763888888886,0,0,0.011935763888888886,29.338107638888882,0)" xlink:href="#U"/><use transform="matrix(0.011935763888888886,0,0,0.011935763888888886,44.00716145833332,0)" xlink:href="#V"/><use transform="matrix(0.011935763888888886,0,0,0.011935763888888886,58.676215277777764,0)" xlink:href="#W"/><use transform="matrix(0.011935763888888886,0,0,0.011935763888888886,73.3452690972222,0)" xlink:href="#X"/></g><path fill="#1071e5" d="M1137-424C1137-153 941 0 662 0H135v-1462c284 7 685-30 837 88 80 62 124 152 124 282 0 179-125 297-291 316v10c221 36 332 150 332 342zm-232-655c0-182-120-224-319-224H322v461h284c195-2 299-53 299-237zM322-686v528h307c207 0 311-91 311-274 0-169-108-254-324-254H322" id="Y"/><use transform="matrix(0.011935763888888886,0,0,0.011935763888888886,0,0)" xlink:href="#Y" id="b"/><path fill="#1071e5" d="M1004 0L860-453H369L223 0H33l483-1468h195L1196 0h-192zM807-618c-63-210-144-435-195-650-51 232-127 431-190 650h385" id="Z"/><use transform="matrix(0.011935763888888886,0,0,0.011935763888888886,0,0)" xlink:href="#Z" id="f"/><path fill="#333" d="M373-604V0H186v-1462h357c347 0 520 138 520 415 0 191-96 322-289 392L1171 0H952L602-604H373zm497-434c0-207-118-263-338-265H373v541h164c215-1 333-70 333-276" id="aa"/><path fill="#333" d="M596-1118c288 2 430 92 430 366V0H895l-37-152h-8C752-34 680 17 483 20 272 23 135-98 135-307c0-221 170-337 510-348l203-7c15-197-55-305-244-305-98 0-207 27-328 82l-63-137c131-64 258-96 383-96zm-72 991c194 0 325-116 322-311v-99c-251 15-522-6-522 232 0 119 67 178 200 178" id="ab"/><path fill="#333" d="M172-543c0-365 197-575 553-575 119 0 231 20 336 59l-62 158c-100-38-189-57-268-57-247 0-371 138-371 413 0 271 120 406 361 406 105 0 212-21 321-62v160C953 0 843 20 713 20c-347 1-541-210-541-563" id="ac"/><path fill="#333" d="M383-553l135-152 395-393h222L641-623 1163 0H950L524-504l-129 82V0H215v-1556h180c-3 337 9 689-16 1003h4" id="ad"/><path fill="#333" d="M758 0H582c3-449-8-824 8-1274-61 68-188 168-268 234l-97-123 383-299h150V0" id="ae"/><g id="h"><use transform="matrix(0.011935763888888886,0,0,0.011935763888888886,0,0)" xlink:href="#aa"/><use transform="matrix(0.011935763888888886,0,0,0.011935763888888886,14.669053819444441,0)" xlink:href="#ab"/><use transform="matrix(0.011935763888888886,0,0,0.011935763888888886,29.338107638888882,0)" xlink:href="#ac"/><use transform="matrix(0.011935763888888886,0,0,0.011935763888888886,44.00716145833332,0)" xlink:href="#ad"/><use transform="matrix(0.011935763888888886,0,0,0.011935763888888886,58.676215277777764,0)" xlink:href="#ae"/></g><path fill="#188fff" d="M1137-424C1137-153 941 0 662 0H135v-1462c284 7 685-30 837 88 80 62 124 152 124 282 0 179-125 297-291 316v10c221 36 332 150 332 342zm-232-655c0-182-120-224-319-224H322v461h284c195-2 299-53 299-237zM322-686v528h307c207 0 311-91 311-274 0-169-108-254-324-254H322" id="af"/><path fill="#188fff" d="M1112-551c0 331-186 571-502 571-301 0-495-251-495-571 0-330 184-567 501-567 302 0 496 249 496 567zM614-131c207 0 310-140 310-420 0-277-104-416-312-416-206 0-309 139-309 416 0 280 104 420 311 420" id="ag"/><path fill="#188fff" d="M383-553l135-152 395-393h222L641-623 1163 0H950L524-504l-129 82V0H215v-1556h180c-3 337 9 689-16 1003h4" id="ah"/><path fill="#188fff" d="M739-1436c0 71-43 115-106 115-71 0-107-38-107-115 0-76 36-114 107-114s106 38 106 114zM541-954l-269-21v-123h451v955l352 20V0H197v-123l344-20v-811" id="ai"/><path fill="#188fff" d="M631-1118c283 0 470 204 465 491v113H322c5 250 120 375 344 375 130 0 253-25 370-76v160C925-5 804 20 672 20c-329 0-539-224-539-561 0-331 182-577 498-577zM326-662h573c0-203-91-305-272-305-183 0-284 102-301 305" id="aj"/><path fill="#188fff" d="M1010-1120c0 200-132 322-316 350v6c241 31 361 147 361 348 0 294-219 436-537 436-161 0-290-26-387-79v-170c123 64 250 96 383 96 236 0 354-96 354-289 0-172-127-258-381-258H354v-151h133c195 4 334-97 336-277 1-140-106-221-250-221-119 0-233 40-344 121l-92-125c125-100 270-150 436-150 252 0 437 128 437 363" id="ak"/><g id="i"><use transform="matrix(0.010959201388888886,0,0,0.010959201388888886,0,0)" xlink:href="#af"/><use transform="matrix(0.010959201388888886,0,0,0.010959201388888886,13.468858506944441,0)" xlink:href="#ag"/><use transform="matrix(0.010959201388888886,0,0,0.010959201388888886,26.937717013888882,0)" xlink:href="#ag"/><use transform="matrix(0.010959201388888886,0,0,0.010959201388888886,40.40657552083332,0)" xlink:href="#ah"/><use transform="matrix(0.010959201388888886,0,0,0.010959201388888886,53.875434027777764,0)" xlink:href="#ai"/><use transform="matrix(0.010959201388888886,0,0,0.010959201388888886,67.3442925347222,0)" xlink:href="#aj"/><use transform="matrix(0.010959201388888886,0,0,0.010959201388888886,80.81315104166664,0)" xlink:href="#ak"/></g><path fill="#188fff" d="M1126-328H913V0H737v-328H61v-159l664-983h188v976h213v166zM737-494c1-292-4-481 13-788h-9c-24 68-55 128-90 180L240-494h497" id="al"/><g id="j"><use transform="matrix(0.010959201388888886,0,0,0.010959201388888886,0,0)" xlink:href="#af"/><use transform="matrix(0.010959201388888886,0,0,0.010959201388888886,13.468858506944441,0)" xlink:href="#ag"/><use transform="matrix(0.010959201388888886,0,0,0.010959201388888886,26.937717013888882,0)" xlink:href="#ag"/><use transform="matrix(0.010959201388888886,0,0,0.010959201388888886,40.40657552083332,0)" xlink:href="#ah"/><use transform="matrix(0.010959201388888886,0,0,0.010959201388888886,53.875434027777764,0)" xlink:href="#ai"/><use transform="matrix(0.010959201388888886,0,0,0.010959201388888886,67.3442925347222,0)" xlink:href="#aj"/><use transform="matrix(0.010959201388888886,0,0,0.010959201388888886,80.81315104166664,0)" xlink:href="#al"/></g><path fill="#333" d="M594-1483c248 0 420 149 418 391 0 79-21 160-59 244-73 161-414 504-572 674v8h688V0H158v-156c172-193 489-508 607-698 43-69 62-147 62-231 0-146-91-244-235-244-107 0-213 46-318 137l-102-119c128-115 269-172 422-172" id="am"/><g id="k"><use transform="matrix(0.011935763888888886,0,0,0.011935763888888886,0,0)" xlink:href="#aa"/><use transform="matrix(0.011935763888888886,0,0,0.011935763888888886,14.669053819444441,0)" xlink:href="#ab"/><use transform="matrix(0.011935763888888886,0,0,0.011935763888888886,29.338107638888882,0)" xlink:href="#ac"/><use transform="matrix(0.011935763888888886,0,0,0.011935763888888886,44.00716145833332,0)" xlink:href="#ad"/><use transform="matrix(0.011935763888888886,0,0,0.011935763888888886,58.676215277777764,0)" xlink:href="#am"/></g><path fill="#188fff" d="M594-1483c248 0 420 149 418 391 0 79-21 160-59 244-73 161-414 504-572 674v8h688V0H158v-156c172-193 489-508 607-698 43-69 62-147 62-231 0-146-91-244-235-244-107 0-213 46-318 137l-102-119c128-115 269-172 422-172" id="an"/><g id="l"><use transform="matrix(0.010959201388888886,0,0,0.010959201388888886,0,0)" xlink:href="#af"/><use transform="matrix(0.010959201388888886,0,0,0.010959201388888886,13.468858506944441,0)" xlink:href="#ag"/><use transform="matrix(0.010959201388888886,0,0,0.010959201388888886,26.937717013888882,0)" xlink:href="#ag"/><use transform="matrix(0.010959201388888886,0,0,0.010959201388888886,40.40657552083332,0)" xlink:href="#ah"/><use transform="matrix(0.010959201388888886,0,0,0.010959201388888886,53.875434027777764,0)" xlink:href="#ai"/><use transform="matrix(0.010959201388888886,0,0,0.010959201388888886,67.3442925347222,0)" xlink:href="#aj"/><use transform="matrix(0.010959201388888886,0,0,0.010959201388888886,80.81315104166664,0)" xlink:href="#an"/></g><path fill="#188fff" d="M1075-471c0 288-166 493-444 491-145 0-261-56-347-168S154-420 154-625c0-572 213-858 639-858 69 0 127 6 172 19v155c-47-16-103-24-166-24-149 0-262 47-337 141S347-949 340-745h12c63-113 166-170 307-170 262 0 416 178 416 444zM629-133c183-3 270-141 270-338 0-183-88-297-264-301-154-4-299 123-299 266 0 185 113 376 293 373" id="ao"/><g id="m"><use transform="matrix(0.010959201388888886,0,0,0.010959201388888886,0,0)" xlink:href="#af"/><use transform="matrix(0.010959201388888886,0,0,0.010959201388888886,13.468858506944441,0)" xlink:href="#ag"/><use transform="matrix(0.010959201388888886,0,0,0.010959201388888886,26.937717013888882,0)" xlink:href="#ag"/><use transform="matrix(0.010959201388888886,0,0,0.010959201388888886,40.40657552083332,0)" xlink:href="#ah"/><use transform="matrix(0.010959201388888886,0,0,0.010959201388888886,53.875434027777764,0)" xlink:href="#ai"/><use transform="matrix(0.010959201388888886,0,0,0.010959201388888886,67.3442925347222,0)" xlink:href="#aj"/><use transform="matrix(0.010959201388888886,0,0,0.010959201388888886,80.81315104166664,0)" xlink:href="#ao"/></g><path fill="#188fff" d="M334 0l563-1296H143v-166h940v145L528 0H334" id="ap"/><g id="n"><use transform="matrix(0.010959201388888886,0,0,0.010959201388888886,0,0)" xlink:href="#af"/><use transform="matrix(0.010959201388888886,0,0,0.010959201388888886,13.468858506944441,0)" xlink:href="#ag"/><use transform="matrix(0.010959201388888886,0,0,0.010959201388888886,26.937717013888882,0)" xlink:href="#ag"/><use transform="matrix(0.010959201388888886,0,0,0.010959201388888886,40.40657552083332,0)" xlink:href="#ah"/><use transform="matrix(0.010959201388888886,0,0,0.010959201388888886,53.875434027777764,0)" xlink:href="#ai"/><use transform="matrix(0.010959201388888886,0,0,0.010959201388888886,67.3442925347222,0)" xlink:href="#aj"/><use transform="matrix(0.010959201388888886,0,0,0.010959201388888886,80.81315104166664,0)" xlink:href="#ap"/></g><path fill="#333" d="M1010-1120c0 200-132 322-316 350v6c241 31 361 147 361 348 0 294-219 436-537 436-161 0-290-26-387-79v-170c123 64 250 96 383 96 236 0 354-96 354-289 0-172-127-258-381-258H354v-151h133c195 4 334-97 336-277 1-140-106-221-250-221-119 0-233 40-344 121l-92-125c125-100 270-150 436-150 252 0 437 128 437 363" id="aq"/><g id="o"><use transform="matrix(0.011935763888888886,0,0,0.011935763888888886,0,0)" xlink:href="#aa"/><use transform="matrix(0.011935763888888886,0,0,0.011935763888888886,14.669053819444441,0)" xlink:href="#ab"/><use transform="matrix(0.011935763888888886,0,0,0.011935763888888886,29.338107638888882,0)" xlink:href="#ac"/><use transform="matrix(0.011935763888888886,0,0,0.011935763888888886,44.00716145833332,0)" xlink:href="#ad"/><use transform="matrix(0.011935763888888886,0,0,0.011935763888888886,58.676215277777764,0)" xlink:href="#aq"/></g><path fill="#188fff" d="M154-991c0-288 166-494 444-492 147 0 262 57 348 171s129 272 129 474c0 572-213 858-639 858-70 0-127-6-172-18v-156c45 17 100 25 166 25 149 0 261-47 336-141s116-243 123-447h-12c-64 113-167 170-308 170-262 0-415-176-415-444zm446-338c-185 4-270 138-270 338 0 183 88 296 264 301 153 4 299-124 299-266 0-185-111-377-293-373" id="ar"/><g id="p"><use transform="matrix(0.010959201388888886,0,0,0.010959201388888886,0,0)" xlink:href="#af"/><use transform="matrix(0.010959201388888886,0,0,0.010959201388888886,13.468858506944441,0)" xlink:href="#ag"/><use transform="matrix(0.010959201388888886,0,0,0.010959201388888886,26.937717013888882,0)" xlink:href="#ag"/><use transform="matrix(0.010959201388888886,0,0,0.010959201388888886,40.40657552083332,0)" xlink:href="#ah"/><use transform="matrix(0.010959201388888886,0,0,0.010959201388888886,53.875434027777764,0)" xlink:href="#ai"/><use transform="matrix(0.010959201388888886,0,0,0.010959201388888886,67.3442925347222,0)" xlink:href="#aj"/><use transform="matrix(0.010959201388888886,0,0,0.010959201388888886,80.81315104166664,0)" xlink:href="#ar"/></g><path fill="#333" d="M1126-328H913V0H737v-328H61v-159l664-983h188v976h213v166zM737-494c1-292-4-481 13-788h-9c-24 68-55 128-90 180L240-494h497" id="as"/><g id="q"><use transform="matrix(0.011935763888888886,0,0,0.011935763888888886,0,0)" xlink:href="#aa"/><use transform="matrix(0.011935763888888886,0,0,0.011935763888888886,14.669053819444441,0)" xlink:href="#ab"/><use transform="matrix(0.011935763888888886,0,0,0.011935763888888886,29.338107638888882,0)" xlink:href="#ac"/><use transform="matrix(0.011935763888888886,0,0,0.011935763888888886,44.00716145833332,0)" xlink:href="#ad"/><use transform="matrix(0.011935763888888886,0,0,0.011935763888888886,58.676215277777764,0)" xlink:href="#as"/></g><path fill="#188fff" d="M758 0H582c3-449-8-824 8-1274-61 68-188 168-268 234l-97-123 383-299h150V0" id="at"/><path fill="#188fff" d="M612 20c-153 0-268-65-347-194S147-489 147-733c0-501 155-752 465-752 155 0 271 64 350 193s119 316 119 559c0 502-156 753-469 753zm0-155c98 0 165-50 216-141 86-153 87-759 0-912-51-91-118-141-216-141-97 0-162 49-212 139-85 152-84 764 0 915 50 90 115 140 212 140" id="au"/><g id="r"><use transform="matrix(0.010959201388888886,0,0,0.010959201388888886,0,0)" xlink:href="#af"/><use transform="matrix(0.010959201388888886,0,0,0.010959201388888886,13.468858506944441,0)" xlink:href="#ag"/><use transform="matrix(0.010959201388888886,0,0,0.010959201388888886,26.937717013888882,0)" xlink:href="#ag"/><use transform="matrix(0.010959201388888886,0,0,0.010959201388888886,40.40657552083332,0)" xlink:href="#ah"/><use transform="matrix(0.010959201388888886,0,0,0.010959201388888886,53.875434027777764,0)" xlink:href="#ai"/><use transform="matrix(0.010959201388888886,0,0,0.010959201388888886,67.3442925347222,0)" xlink:href="#aj"/><use transform="matrix(0.010959201388888886,0,0,0.010959201388888886,80.81315104166664,0)" xlink:href="#at"/><use transform="matrix(0.010959201388888886,0,0,0.010959201388888886,94.28200954861109,0)" xlink:href="#au"/></g><g id="s"><use transform="matrix(0.010959201388888886,0,0,0.010959201388888886,0,0)" xlink:href="#af"/><use transform="matrix(0.010959201388888886,0,0,0.010959201388888886,13.468858506944441,0)" xlink:href="#ag"/><use transform="matrix(0.010959201388888886,0,0,0.010959201388888886,26.937717013888882,0)" xlink:href="#ag"/><use transform="matrix(0.010959201388888886,0,0,0.010959201388888886,40.40657552083332,0)" xlink:href="#ah"/><use transform="matrix(0.010959201388888886,0,0,0.010959201388888886,53.875434027777764,0)" xlink:href="#ai"/><use transform="matrix(0.010959201388888886,0,0,0.010959201388888886,67.3442925347222,0)" xlink:href="#aj"/><use transform="matrix(0.010959201388888886,0,0,0.010959201388888886,80.81315104166664,0)" xlink:href="#at"/><use transform="matrix(0.010959201388888886,0,0,0.010959201388888886,94.28200954861109,0)" xlink:href="#at"/></g><g id="t"><use transform="matrix(0.010959201388888886,0,0,0.010959201388888886,0,0)" xlink:href="#af"/><use transform="matrix(0.010959201388888886,0,0,0.010959201388888886,13.468858506944441,0)" xlink:href="#ag"/><use transform="matrix(0.010959201388888886,0,0,0.010959201388888886,26.937717013888882,0)" xlink:href="#ag"/><use transform="matrix(0.010959201388888886,0,0,0.010959201388888886,40.40657552083332,0)" xlink:href="#ah"/><use transform="matrix(0.010959201388888886,0,0,0.010959201388888886,53.875434027777764,0)" xlink:href="#ai"/><use transform="matrix(0.010959201388888886,0,0,0.010959201388888886,67.3442925347222,0)" xlink:href="#aj"/><use transform="matrix(0.010959201388888886,0,0,0.010959201388888886,80.81315104166664,0)" xlink:href="#at"/><use transform="matrix(0.010959201388888886,0,0,0.010959201388888886,94.28200954861109,0)" xlink:href="#ak"/></g><g id="u"><use transform="matrix(0.010959201388888886,0,0,0.010959201388888886,0,0)" xlink:href="#af"/><use transform="matrix(0.010959201388888886,0,0,0.010959201388888886,13.468858506944441,0)" xlink:href="#ag"/><use transform="matrix(0.010959201388888886,0,0,0.010959201388888886,26.937717013888882,0)" xlink:href="#ag"/><use transform="matrix(0.010959201388888886,0,0,0.010959201388888886,40.40657552083332,0)" xlink:href="#ah"/><use transform="matrix(0.010959201388888886,0,0,0.010959201388888886,53.875434027777764,0)" xlink:href="#ai"/><use transform="matrix(0.010959201388888886,0,0,0.010959201388888886,67.3442925347222,0)" xlink:href="#aj"/><use transform="matrix(0.010959201388888886,0,0,0.010959201388888886,80.81315104166664,0)" xlink:href="#at"/></g><g id="x"><use transform="matrix(0.011935763888888886,0,0,0.011935763888888886,0,0)" xlink:href="#S"/><use transform="matrix(0.011935763888888886,0,0,0.011935763888888886,14.669053819444441,0)" xlink:href="#T"/><use transform="matrix(0.011935763888888886,0,0,0.011935763888888886,29.338107638888882,0)" xlink:href="#U"/><use transform="matrix(0.011935763888888886,0,0,0.011935763888888886,44.00716145833332,0)" xlink:href="#V"/><use transform="matrix(0.011935763888888886,0,0,0.011935763888888886,58.676215277777764,0)" xlink:href="#W"/><use transform="matrix(0.011935763888888886,0,0,0.011935763888888886,73.3452690972222,0)" xlink:href="#X"/></g><path fill="#1071e5" d="M1147-745C1147-274 901 1 436 0H135v-1462h342c429-3 670 280 670 717zm-825-558v1143h96c355 0 532-193 532-579 0-376-164-564-493-564H322" id="av"/><use transform="matrix(0.011935763888888886,0,0,0.011935763888888886,0,0)" xlink:href="#av" id="y"/><path fill="#1071e5" d="M326-731c0 353 139 584 471 588 87 0 196-19 327-58v162c-97 39-217 59-358 59-433-1-637-301-637-753 0-438 243-750 668-750 147 0 274 29 383 86l-78 156c-103-52-204-78-305-78-307 1-471 259-471 588" id="aw"/><use transform="matrix(0.011935763888888886,0,0,0.011935763888888886,0,0)" xlink:href="#aw" id="z"/><path fill="#333" d="M1055-469c0 318-203 489-527 489-149 0-268-26-356-79v-172c96 64 216 96 360 96 224 0 336-105 336-314 0-196-115-294-344-294-59 0-136 9-231 26l-90-57 55-688h690v166H416l-39 419c71-13 141-20 209-20 270-4 469 161 469 428" id="ax"/><g id="B"><use transform="matrix(0.011935763888888886,0,0,0.011935763888888886,0,0)" xlink:href="#aa"/><use transform="matrix(0.011935763888888886,0,0,0.011935763888888886,14.669053819444441,0)" xlink:href="#ab"/><use transform="matrix(0.011935763888888886,0,0,0.011935763888888886,29.338107638888882,0)" xlink:href="#ac"/><use transform="matrix(0.011935763888888886,0,0,0.011935763888888886,44.00716145833332,0)" xlink:href="#ad"/><use transform="matrix(0.011935763888888886,0,0,0.011935763888888886,58.676215277777764,0)" xlink:href="#ax"/></g><g id="C"><use transform="matrix(0.010959201388888886,0,0,0.010959201388888886,0,0)" xlink:href="#af"/><use transform="matrix(0.010959201388888886,0,0,0.010959201388888886,13.468858506944441,0)" xlink:href="#ag"/><use transform="matrix(0.010959201388888886,0,0,0.010959201388888886,26.937717013888882,0)" xlink:href="#ag"/><use transform="matrix(0.010959201388888886,0,0,0.010959201388888886,40.40657552083332,0)" xlink:href="#ah"/><use transform="matrix(0.010959201388888886,0,0,0.010959201388888886,53.875434027777764,0)" xlink:href="#ai"/><use transform="matrix(0.010959201388888886,0,0,0.010959201388888886,67.3442925347222,0)" xlink:href="#aj"/><use transform="matrix(0.010959201388888886,0,0,0.010959201388888886,80.81315104166664,0)" xlink:href="#at"/><use transform="matrix(0.010959201388888886,0,0,0.010959201388888886,94.28200954861109,0)" xlink:href="#ao"/></g><path fill="#333" d="M1075-471c0 288-166 493-444 491-145 0-261-56-347-168S154-420 154-625c0-572 213-858 639-858 69 0 127 6 172 19v155c-47-16-103-24-166-24-149 0-262 47-337 141S347-949 340-745h12c63-113 166-170 307-170 262 0 416 178 416 444zM629-133c183-3 270-141 270-338 0-183-88-297-264-301-154-4-299 123-299 266 0 185 113 376 293 373" id="ay"/><g id="D"><use transform="matrix(0.011935763888888886,0,0,0.011935763888888886,0,0)" xlink:href="#aa"/><use transform="matrix(0.011935763888888886,0,0,0.011935763888888886,14.669053819444441,0)" xlink:href="#ab"/><use transform="matrix(0.011935763888888886,0,0,0.011935763888888886,29.338107638888882,0)" xlink:href="#ac"/><use transform="matrix(0.011935763888888886,0,0,0.011935763888888886,44.00716145833332,0)" xlink:href="#ad"/><use transform="matrix(0.011935763888888886,0,0,0.011935763888888886,58.676215277777764,0)" xlink:href="#ay"/></g><path fill="#188fff" d="M1055-469c0 318-203 489-527 489-149 0-268-26-356-79v-172c96 64 216 96 360 96 224 0 336-105 336-314 0-196-115-294-344-294-59 0-136 9-231 26l-90-57 55-688h690v166H416l-39 419c71-13 141-20 209-20 270-4 469 161 469 428" id="az"/><g id="E"><use transform="matrix(0.010959201388888886,0,0,0.010959201388888886,0,0)" xlink:href="#af"/><use transform="matrix(0.010959201388888886,0,0,0.010959201388888886,13.468858506944441,0)" xlink:href="#ag"/><use transform="matrix(0.010959201388888886,0,0,0.010959201388888886,26.937717013888882,0)" xlink:href="#ag"/><use transform="matrix(0.010959201388888886,0,0,0.010959201388888886,40.40657552083332,0)" xlink:href="#ah"/><use transform="matrix(0.010959201388888886,0,0,0.010959201388888886,53.875434027777764,0)" xlink:href="#ai"/><use transform="matrix(0.010959201388888886,0,0,0.010959201388888886,67.3442925347222,0)" xlink:href="#aj"/><use transform="matrix(0.010959201388888886,0,0,0.010959201388888886,80.81315104166664,0)" xlink:href="#at"/><use transform="matrix(0.010959201388888886,0,0,0.010959201388888886,94.28200954861109,0)" xlink:href="#az"/></g><path fill="#188fff" d="M614-1485c230 0 412 129 412 352 0 153-87 273-262 359 206 107 309 238 309 393 0 249-200 401-459 401-271 0-458-134-458-393 0-171 94-302 282-393-157-97-235-220-235-369 0-219 188-350 411-350zm-2 152c-137 0-233 71-231 207 0 60 16 110 49 152s95 84 186 126c155-69 232-161 232-278 1-138-96-207-236-207zm-2 1202c171 0 285-85 285-248 0-60-22-112-63-159-43-49-141-111-244-158-169 81-254 189-254 325 0 160 92 240 276 240" id="aA"/><g id="F"><use transform="matrix(0.010959201388888886,0,0,0.010959201388888886,0,0)" xlink:href="#af"/><use transform="matrix(0.010959201388888886,0,0,0.010959201388888886,13.468858506944441,0)" xlink:href="#ag"/><use transform="matrix(0.010959201388888886,0,0,0.010959201388888886,26.937717013888882,0)" xlink:href="#ag"/><use transform="matrix(0.010959201388888886,0,0,0.010959201388888886,40.40657552083332,0)" xlink:href="#ah"/><use transform="matrix(0.010959201388888886,0,0,0.010959201388888886,53.875434027777764,0)" xlink:href="#ai"/><use transform="matrix(0.010959201388888886,0,0,0.010959201388888886,67.3442925347222,0)" xlink:href="#aj"/><use transform="matrix(0.010959201388888886,0,0,0.010959201388888886,80.81315104166664,0)" xlink:href="#at"/><use transform="matrix(0.010959201388888886,0,0,0.010959201388888886,94.28200954861109,0)" xlink:href="#aA"/></g><path fill="#333" d="M334 0l563-1296H143v-166h940v145L528 0H334" id="aB"/><g id="G"><use transform="matrix(0.011935763888888886,0,0,0.011935763888888886,0,0)" xlink:href="#aa"/><use transform="matrix(0.011935763888888886,0,0,0.011935763888888886,14.669053819444441,0)" xlink:href="#ab"/><use transform="matrix(0.011935763888888886,0,0,0.011935763888888886,29.338107638888882,0)" xlink:href="#ac"/><use transform="matrix(0.011935763888888886,0,0,0.011935763888888886,44.00716145833332,0)" xlink:href="#ad"/><use transform="matrix(0.011935763888888886,0,0,0.011935763888888886,58.676215277777764,0)" xlink:href="#aB"/></g><g id="H"><use transform="matrix(0.010959201388888886,0,0,0.010959201388888886,0,0)" xlink:href="#af"/><use transform="matrix(0.010959201388888886,0,0,0.010959201388888886,13.468858506944441,0)" xlink:href="#ag"/><use transform="matrix(0.010959201388888886,0,0,0.010959201388888886,26.937717013888882,0)" xlink:href="#ag"/><use transform="matrix(0.010959201388888886,0,0,0.010959201388888886,40.40657552083332,0)" xlink:href="#ah"/><use transform="matrix(0.010959201388888886,0,0,0.010959201388888886,53.875434027777764,0)" xlink:href="#ai"/><use transform="matrix(0.010959201388888886,0,0,0.010959201388888886,67.3442925347222,0)" xlink:href="#aj"/><use transform="matrix(0.010959201388888886,0,0,0.010959201388888886,80.81315104166664,0)" xlink:href="#an"/><use transform="matrix(0.010959201388888886,0,0,0.010959201388888886,94.28200954861109,0)" xlink:href="#au"/></g><path fill="#333" d="M614-1485c230 0 412 129 412 352 0 153-87 273-262 359 206 107 309 238 309 393 0 249-200 401-459 401-271 0-458-134-458-393 0-171 94-302 282-393-157-97-235-220-235-369 0-219 188-350 411-350zm-2 152c-137 0-233 71-231 207 0 60 16 110 49 152s95 84 186 126c155-69 232-161 232-278 1-138-96-207-236-207zm-2 1202c171 0 285-85 285-248 0-60-22-112-63-159-43-49-141-111-244-158-169 81-254 189-254 325 0 160 92 240 276 240" id="aC"/><g id="I"><use transform="matrix(0.011935763888888886,0,0,0.011935763888888886,0,0)" xlink:href="#aa"/><use transform="matrix(0.011935763888888886,0,0,0.011935763888888886,14.669053819444441,0)" xlink:href="#ab"/><use transform="matrix(0.011935763888888886,0,0,0.011935763888888886,29.338107638888882,0)" xlink:href="#ac"/><use transform="matrix(0.011935763888888886,0,0,0.011935763888888886,44.00716145833332,0)" xlink:href="#ad"/><use transform="matrix(0.011935763888888886,0,0,0.011935763888888886,58.676215277777764,0)" xlink:href="#aC"/></g><g id="J"><use transform="matrix(0.010959201388888886,0,0,0.010959201388888886,0,0)" xlink:href="#af"/><use transform="matrix(0.010959201388888886,0,0,0.010959201388888886,13.468858506944441,0)" xlink:href="#ag"/><use transform="matrix(0.010959201388888886,0,0,0.010959201388888886,26.937717013888882,0)" xlink:href="#ag"/><use transform="matrix(0.010959201388888886,0,0,0.010959201388888886,40.40657552083332,0)" xlink:href="#ah"/><use transform="matrix(0.010959201388888886,0,0,0.010959201388888886,53.875434027777764,0)" xlink:href="#ai"/><use transform="matrix(0.010959201388888886,0,0,0.010959201388888886,67.3442925347222,0)" xlink:href="#aj"/><use transform="matrix(0.010959201388888886,0,0,0.010959201388888886,80.81315104166664,0)" xlink:href="#at"/><use transform="matrix(0.010959201388888886,0,0,0.010959201388888886,94.28200954861109,0)" xlink:href="#ar"/></g><g id="K"><use transform="matrix(0.010959201388888886,0,0,0.010959201388888886,0,0)" xlink:href="#af"/><use transform="matrix(0.010959201388888886,0,0,0.010959201388888886,13.468858506944441,0)" xlink:href="#ag"/><use transform="matrix(0.010959201388888886,0,0,0.010959201388888886,26.937717013888882,0)" xlink:href="#ag"/><use transform="matrix(0.010959201388888886,0,0,0.010959201388888886,40.40657552083332,0)" xlink:href="#ah"/><use transform="matrix(0.010959201388888886,0,0,0.010959201388888886,53.875434027777764,0)" xlink:href="#ai"/><use transform="matrix(0.010959201388888886,0,0,0.010959201388888886,67.3442925347222,0)" xlink:href="#aj"/><use transform="matrix(0.010959201388888886,0,0,0.010959201388888886,80.81315104166664,0)" xlink:href="#an"/><use transform="matrix(0.010959201388888886,0,0,0.010959201388888886,94.28200954861109,0)" xlink:href="#an"/></g><g id="L"><use transform="matrix(0.010959201388888886,0,0,0.010959201388888886,0,0)" xlink:href="#af"/><use transform="matrix(0.010959201388888886,0,0,0.010959201388888886,13.468858506944441,0)" xlink:href="#ag"/><use transform="matrix(0.010959201388888886,0,0,0.010959201388888886,26.937717013888882,0)" xlink:href="#ag"/><use transform="matrix(0.010959201388888886,0,0,0.010959201388888886,40.40657552083332,0)" xlink:href="#ah"/><use transform="matrix(0.010959201388888886,0,0,0.010959201388888886,53.875434027777764,0)" xlink:href="#ai"/><use transform="matrix(0.010959201388888886,0,0,0.010959201388888886,67.3442925347222,0)" xlink:href="#aj"/><use transform="matrix(0.010959201388888886,0,0,0.010959201388888886,80.81315104166664,0)" xlink:href="#an"/><use transform="matrix(0.010959201388888886,0,0,0.010959201388888886,94.28200954861109,0)" xlink:href="#ak"/></g><g id="M"><use transform="matrix(0.010959201388888886,0,0,0.010959201388888886,0,0)" xlink:href="#af"/><use transform="matrix(0.010959201388888886,0,0,0.010959201388888886,13.468858506944441,0)" xlink:href="#ag"/><use transform="matrix(0.010959201388888886,0,0,0.010959201388888886,26.937717013888882,0)" xlink:href="#ag"/><use transform="matrix(0.010959201388888886,0,0,0.010959201388888886,40.40657552083332,0)" xlink:href="#ah"/><use transform="matrix(0.010959201388888886,0,0,0.010959201388888886,53.875434027777764,0)" xlink:href="#ai"/><use transform="matrix(0.010959201388888886,0,0,0.010959201388888886,67.3442925347222,0)" xlink:href="#aj"/><use transform="matrix(0.010959201388888886,0,0,0.010959201388888886,80.81315104166664,0)" xlink:href="#at"/><use transform="matrix(0.010959201388888886,0,0,0.010959201388888886,94.28200954861109,0)" xlink:href="#al"/></g><path fill="#fff" d="M1137-424C1137-153 941 0 662 0H135v-1462c284 7 685-30 837 88 80 62 124 152 124 282 0 179-125 297-291 316v10c221 36 332 150 332 342zm-232-655c0-182-120-224-319-224H322v461h284c195-2 299-53 299-237zM322-686v528h307c207 0 311-91 311-274 0-169-108-254-324-254H322" id="aD"/><path fill="#fff" d="M1112-551c0 331-186 571-502 571-301 0-495-251-495-571 0-330 184-567 501-567 302 0 496 249 496 567zM614-131c207 0 310-140 310-420 0-277-104-416-312-416-206 0-309 139-309 416 0 280 104 420 311 420" id="aE"/><path fill="#fff" d="M383-553l135-152 395-393h222L641-623 1163 0H950L524-504l-129 82V0H215v-1556h180c-3 337 9 689-16 1003h4" id="aF"/><path fill="#fff" d="M739-1436c0 71-43 115-106 115-71 0-107-38-107-115 0-76 36-114 107-114s106 38 106 114zM541-954l-269-21v-123h451v955l352 20V0H197v-123l344-20v-811" id="aG"/><path fill="#fff" d="M631-1118c283 0 470 204 465 491v113H322c5 250 120 375 344 375 130 0 253-25 370-76v160C925-5 804 20 672 20c-329 0-539-224-539-561 0-331 182-577 498-577zM326-662h573c0-203-91-305-272-305-183 0-284 102-301 305" id="aH"/><path fill="#fff" d="M758 0H582c3-449-8-824 8-1274-61 68-188 168-268 234l-97-123 383-299h150V0" id="aI"/><path fill="#fff" d="M334 0l563-1296H143v-166h940v145L528 0H334" id="aJ"/><g id="N"><use transform="matrix(0.010959201388888886,0,0,0.010959201388888886,0,0)" xlink:href="#aD"/><use transform="matrix(0.010959201388888886,0,0,0.010959201388888886,13.468858506944441,0)" xlink:href="#aE"/><use transform="matrix(0.010959201388888886,0,0,0.010959201388888886,26.937717013888882,0)" xlink:href="#aE"/><use transform="matrix(0.010959201388888886,0,0,0.010959201388888886,40.40657552083332,0)" xlink:href="#aF"/><use transform="matrix(0.010959201388888886,0,0,0.010959201388888886,53.875434027777764,0)" xlink:href="#aG"/><use transform="matrix(0.010959201388888886,0,0,0.010959201388888886,67.3442925347222,0)" xlink:href="#aH"/><use transform="matrix(0.010959201388888886,0,0,0.010959201388888886,80.81315104166664,0)" xlink:href="#aI"/><use transform="matrix(0.010959201388888886,0,0,0.010959201388888886,94.28200954861109,0)" xlink:href="#aJ"/></g><path fill="#fff" d="M1055-469c0 318-203 489-527 489-149 0-268-26-356-79v-172c96 64 216 96 360 96 224 0 336-105 336-314 0-196-115-294-344-294-59 0-136 9-231 26l-90-57 55-688h690v166H416l-39 419c71-13 141-20 209-20 270-4 469 161 469 428" id="aK"/><g id="O"><use transform="matrix(0.010959201388888886,0,0,0.010959201388888886,0,0)" xlink:href="#aD"/><use transform="matrix(0.010959201388888886,0,0,0.010959201388888886,13.468858506944441,0)" xlink:href="#aE"/><use transform="matrix(0.010959201388888886,0,0,0.010959201388888886,26.937717013888882,0)" xlink:href="#aE"/><use transform="matrix(0.010959201388888886,0,0,0.010959201388888886,40.40657552083332,0)" xlink:href="#aF"/><use transform="matrix(0.010959201388888886,0,0,0.010959201388888886,53.875434027777764,0)" xlink:href="#aG"/><use transform="matrix(0.010959201388888886,0,0,0.010959201388888886,67.3442925347222,0)" xlink:href="#aH"/><use transform="matrix(0.010959201388888886,0,0,0.010959201388888886,80.81315104166664,0)" xlink:href="#aK"/></g><path fill="#fff" d="M594-1483c248 0 420 149 418 391 0 79-21 160-59 244-73 161-414 504-572 674v8h688V0H158v-156c172-193 489-508 607-698 43-69 62-147 62-231 0-146-91-244-235-244-107 0-213 46-318 137l-102-119c128-115 269-172 422-172" id="aL"/><g id="P"><use transform="matrix(0.010959201388888886,0,0,0.010959201388888886,0,0)" xlink:href="#aD"/><use transform="matrix(0.010959201388888886,0,0,0.010959201388888886,13.468858506944441,0)" xlink:href="#aE"/><use transform="matrix(0.010959201388888886,0,0,0.010959201388888886,26.937717013888882,0)" xlink:href="#aE"/><use transform="matrix(0.010959201388888886,0,0,0.010959201388888886,40.40657552083332,0)" xlink:href="#aF"/><use transform="matrix(0.010959201388888886,0,0,0.010959201388888886,53.875434027777764,0)" xlink:href="#aG"/><use transform="matrix(0.010959201388888886,0,0,0.010959201388888886,67.3442925347222,0)" xlink:href="#aH"/><use transform="matrix(0.010959201388888886,0,0,0.010959201388888886,80.81315104166664,0)" xlink:href="#aL"/><use transform="matrix(0.010959201388888886,0,0,0.010959201388888886,94.28200954861109,0)" xlink:href="#aI"/></g><g id="Q"><use transform="matrix(0.010959201388888886,0,0,0.010959201388888886,0,0)" xlink:href="#af"/><use transform="matrix(0.010959201388888886,0,0,0.010959201388888886,13.468858506944441,0)" xlink:href="#ag"/><use transform="matrix(0.010959201388888886,0,0,0.010959201388888886,26.937717013888882,0)" xlink:href="#ag"/><use transform="matrix(0.010959201388888886,0,0,0.010959201388888886,40.40657552083332,0)" xlink:href="#ah"/><use transform="matrix(0.010959201388888886,0,0,0.010959201388888886,53.875434027777764,0)" xlink:href="#ai"/><use transform="matrix(0.010959201388888886,0,0,0.010959201388888886,67.3442925347222,0)" xlink:href="#aj"/><use transform="matrix(0.010959201388888886,0,0,0.010959201388888886,80.81315104166664,0)" xlink:href="#aA"/></g><g id="R"><use transform="matrix(0.010959201388888886,0,0,0.010959201388888886,0,0)" xlink:href="#af"/><use transform="matrix(0.010959201388888886,0,0,0.010959201388888886,13.468858506944441,0)" xlink:href="#ag"/><use transform="matrix(0.010959201388888886,0,0,0.010959201388888886,26.937717013888882,0)" xlink:href="#ag"/><use transform="matrix(0.010959201388888886,0,0,0.010959201388888886,40.40657552083332,0)" xlink:href="#ah"/><use transform="matrix(0.010959201388888886,0,0,0.010959201388888886,53.875434027777764,0)" xlink:href="#ai"/><use transform="matrix(0.010959201388888886,0,0,0.010959201388888886,67.3442925347222,0)" xlink:href="#aj"/><use transform="matrix(0.010959201388888886,0,0,0.010959201388888886,80.81315104166664,0)" xlink:href="#at"/><use transform="matrix(0.010959201388888886,0,0,0.010959201388888886,94.28200954861109,0)" xlink:href="#an"/></g></defs></g></svg>