<svg xmlns="http://www.w3.org/2000/svg" xmlns:xlink="http://www.w3.org/1999/xlink" xmlns:lucid="lucid" width="1796.5" height="866.59"><g transform="translate(16.5 -220)" lucid:page-tab-id="0_0"><path d="M3.5 246c0-3.3 2.7-6 6-6H1754c3.3 0 6 2.7 6 6v814.6c0 3.3-2.7 6-6 6H9.5c-3.3 0-6-2.7-6-6z" stroke="#ced4db" stroke-width="2" fill="#fff" filter="url(#a)"/><path d="M84 379.4c0-3.3 2.7-6 6-6h248c3.3 0 6 2.7 6 6v84.44c0 3.3-2.7 6-6 6H90c-3.3 0-6-2.7-6-6z" stroke="#3a414a" stroke-width="2" fill="#fff"/><use xlink:href="#b" transform="matrix(1,0,0,1,96.00000000000003,385.4097222222223) translate(5.981770833333329 28.878038194444436)"/><use xlink:href="#c" transform="matrix(1,0,0,1,96.00000000000003,385.4097222222223) translate(52.656032986111114 65.0933159722222)"/><path d="M344 379.4c0-3.3 2.7-6 6-6h248c3.3 0 6 2.7 6 6v84.44c0 3.3-2.7 6-6 6H350c-3.3 0-6-2.7-6-6z" stroke="#3a414a" stroke-width="2" fill="#fff"/><use xlink:href="#b" transform="matrix(1,0,0,1,356,385.4097222222223) translate(5.981770833333329 28.878038194444436)"/><use xlink:href="#c" transform="matrix(1,0,0,1,356,385.4097222222223) translate(52.656032986111114 65.0933159722222)"/><path d="M604 379.4c0-3.3 2.7-6 6-6h248c3.3 0 6 2.7 6 6v84.44c0 3.3-2.7 6-6 6H610c-3.3 0-6-2.7-6-6z" stroke="#3a414a" stroke-width="2" fill="#dfe3e8"/><use xlink:href="#b" transform="matrix(1,0,0,1,616,385.4097222222223) translate(5.981770833333329 28.878038194444436)"/><use xlink:href="#c" transform="matrix(1,0,0,1,616,385.4097222222223) translate(52.656032986111114 65.0933159722222)"/><path d="M864 379.4c0-3.3 2.7-6 6-6h248c3.3 0 6 2.7 6 6v84.44c0 3.3-2.7 6-6 6H870c-3.3 0-6-2.7-6-6z" stroke="#3a414a" stroke-width="2" fill="#dfe3e8"/><use xlink:href="#b" transform="matrix(1,0,0,1,876,385.4097222222223) translate(5.981770833333329 28.878038194444436)"/><use xlink:href="#c" transform="matrix(1,0,0,1,876,385.4097222222223) translate(52.656032986111114 65.0933159722222)"/><path d="M1124 379.4c0-3.3 2.7-6 6-6h268c3.3 0 6 2.7 6 6v84.44c0 3.3-2.7 6-6 6h-268c-3.3 0-6-2.7-6-6z" stroke="#3a414a" stroke-width="2" fill="#d3e3fc"/><use xlink:href="#d" transform="matrix(1,0,0,1,1136,385.4097222222223) translate(-2.6879340277777715 29.16276041666667)"/><use xlink:href="#c" transform="matrix(1,0,0,1,1136,385.4097222222223) translate(62.656032986111114 65.37803819444443)"/><path d="M1404 379.4c0-3.3 2.7-6 6-6h268c3.3 0 6 2.7 6 6v84.44c0 3.3-2.7 6-6 6h-268c-3.3 0-6-2.7-6-6z" stroke="#3a414a" stroke-width="2" fill="#d3e3fc"/><use xlink:href="#d" transform="matrix(1,0,0,1,1416,385.4097222222223) translate(-2.6879340277777715 29.16276041666667)"/><use xlink:href="#c" transform="matrix(1,0,0,1,1416,385.4097222222223) translate(62.656032986111114 65.37803819444443)"/><path d="M204 560.9c0-3.3 2.7-6 6-6h228c3.3 0 6 2.7 6 6v48c0 3.32-2.7 6-6 6H210c-3.3 0-6-2.68-6-6z" stroke="#000" stroke-opacity="0" fill="#fff" fill-opacity="0"/><use xlink:href="#e" transform="matrix(1,0,0,1,209,559.9097222222223) translate(49.656032986111114 35.128038194444436)"/><path d="M84.5 554.4c0-.27.22-.5.5-.5h518c.28 0 .5.23.5.5 0 .3-.22.5-.5.5H85c-.28 0-.5-.2-.5-.5zM83.5 534.4c.28 0 .5.23.5.5v38c0 .3-.22.5-.5.5s-.5-.2-.5-.5v-38c0-.27.22-.5.5-.5zM604.5 534.9c.28 0 .5.23.5.5v38c0 .3-.22.5-.5.5s-.5-.2-.5-.5v-38c0-.27.22-.5.5-.5z" stroke="#3a414a" fill="none"/><path d="M603.5 554.9c0-.27.22-.5.5-.5h518c.28 0 .5.23.5.5 0 .3-.22.5-.5.5H604c-.28 0-.5-.2-.5-.5zM602.5 534.9c.28 0 .5.23.5.5v38c0 .3-.22.5-.5.5s-.5-.2-.5-.5v-38c0-.27.22-.5.5-.5zM1123.5 535.4c.28 0 .5.23.5.5v38c0 .3-.22.5-.5.5s-.5-.2-.5-.5v-38c0-.27.22-.5.5-.5z" stroke="#3a414a" fill="none"/><path d="M744 570.4c0-3.3 2.7-6 6-6h228c3.3 0 6 2.7 6 6v70.44c0 3.3-2.7 6-6 6H750c-3.3 0-6-2.7-6-6z" stroke="#000" stroke-opacity="0" fill="#fff" fill-opacity="0"/><use xlink:href="#f" transform="matrix(1,0,0,1,749,569.4097222222224) translate(30.986328125 28.878038194444436)"/><use xlink:href="#g" transform="matrix(1,0,0,1,749,569.4097222222224) translate(58.99088541666667 65.0933159722222)"/><path d="M1125.65 555.4c0-.27.22-.5.5-.5H1683c.28 0 .5.23.5.5 0 .3-.22.5-.5.5h-556.85c-.28 0-.5-.2-.5-.5zM1124.08 535.4c.28 0 .5.23.5.5v38c0 .3-.22.5-.5.5s-.5-.2-.5-.5v-38c0-.27.22-.5.5-.5zM1684.5 535.9c.28 0 .5.23.5.5v38c0 .3-.22.5-.5.5s-.5-.2-.5-.5v-38c0-.27.22-.5.5-.5z" stroke="#3a414a" fill="none"/><path d="M1303.5 551.4c0-3.3 2.7-6 6-6h228c3.32 0 6 2.7 6 6v70.44c0 3.3-2.68 6-6 6h-228c-3.3 0-6-2.7-6-6z" stroke="#000" stroke-opacity="0" fill="#fff" fill-opacity="0"/><use xlink:href="#h" transform="matrix(1,0,0,1,1308.5061728395062,550.4097222222224) translate(12.316623263888886 47.128038194444436)"/><path d="M24 699.4c0-3.3 2.7-6 6-6h248c3.3 0 6 2.7 6 6v84.44c0 3.3-2.7 6-6 6H30c-3.3 0-6-2.7-6-6z" stroke="#3a414a" stroke-width="2" fill="#fff"/><use xlink:href="#b" transform="matrix(1,0,0,1,36.00000000000003,705.4097222222223) translate(5.981770833333329 28.878038194444436)"/><use xlink:href="#c" transform="matrix(1,0,0,1,36.00000000000003,705.4097222222223) translate(52.656032986111114 65.0933159722222)"/><path d="M285 699.4c0-3.3 2.7-6 6-6h248c3.3 0 6 2.7 6 6v84.44c0 3.3-2.7 6-6 6H291c-3.3 0-6-2.7-6-6z" stroke="#3a414a" stroke-width="2" fill="#fff"/><use xlink:href="#b" transform="matrix(1,0,0,1,296.9999999999999,705.4097222222223) translate(5.981770833333329 28.878038194444436)"/><use xlink:href="#c" transform="matrix(1,0,0,1,296.9999999999999,705.4097222222223) translate(52.656032986111114 65.0933159722222)"/><path d="M545 699.4c0-3.3 2.7-6 6-6h288c3.3 0 6 2.7 6 6v84.44c0 3.3-2.7 6-6 6H551c-3.3 0-6-2.7-6-6z" stroke="#3a414a" stroke-width="2" fill="#d3e3fc"/><use xlink:href="#d" transform="matrix(1,0,0,1,556.9999999999999,705.4097222222223) translate(7.3120659722222285 28.878038194444436)"/><use xlink:href="#c" transform="matrix(1,0,0,1,556.9999999999999,705.4097222222223) translate(72.65603298611111 65.0933159722222)"/><path d="M845 699.4c0-3.3 2.7-6 6-6h288c3.3 0 6 2.7 6 6v84.44c0 3.3-2.7 6-6 6H851c-3.3 0-6-2.7-6-6z" stroke="#3a414a" stroke-width="2" fill="#d3e3fc"/><use xlink:href="#d" transform="matrix(1,0,0,1,857,705.4097222222223) translate(7.3120659722222285 28.878038194444436)"/><use xlink:href="#c" transform="matrix(1,0,0,1,857,705.4097222222223) translate(72.65603298611111 65.0933159722222)"/><path d="M1145 699.4c0-3.3 2.7-6 6-6h288c3.3 0 6 2.7 6 6v84.44c0 3.3-2.7 6-6 6h-288c-3.3 0-6-2.7-6-6z" stroke="#3a414a" stroke-width="2" fill="#d3e3fc"/><use xlink:href="#d" transform="matrix(1,0,0,1,1157,705.4097222222223) translate(7.3120659722222285 28.878038194444436)"/><use xlink:href="#c" transform="matrix(1,0,0,1,1157,705.4097222222223) translate(72.65603298611111 65.0933159722222)"/><path d="M1444 699.4c0-3.3 2.7-6 6-6h288c3.3 0 6 2.7 6 6v84.44c0 3.3-2.7 6-6 6h-288c-3.3 0-6-2.7-6-6z" stroke="#3a414a" stroke-width="2" fill="#d3e3fc"/><use xlink:href="#d" transform="matrix(1,0,0,1,1456,705.4097222222223) translate(7.3120659722222285 28.878038194444436)"/><use xlink:href="#c" transform="matrix(1,0,0,1,1456,705.4097222222223) translate(72.65603298611111 65.0933159722222)"/><path d="M165 880.16c0-3.3 2.7-6 6-6h228c3.3 0 6 2.7 6 6v48c0 3.3-2.7 6-6 6H171c-3.3 0-6-2.7-6-6z" stroke="#000" stroke-opacity="0" fill="#fff" fill-opacity="0"/><use xlink:href="#e" transform="matrix(1,0,0,1,170,879.1597222222223) translate(49.656032986111114 35.128038194444436)"/><path d="M25.5 873.66c0-.28.22-.5.5-.5h518c.28 0 .5.22.5.5s-.22.5-.5.5H26c-.28 0-.5-.22-.5-.5z" stroke="#3a414a" fill="none"/><g><path d="M24.5 853.66c.28 0 .5.22.5.5v38c0 .28-.22.5-.5.5s-.5-.22-.5-.5v-38c0-.28.22-.5.5-.5z" stroke="#3a414a" fill="none"/></g><g><path d="M545.5 854.16c.28 0 .5.22.5.5v38c0 .28-.22.5-.5.5s-.5-.22-.5-.5v-38c0-.28.22-.5.5-.5z" stroke="#3a414a" fill="none"/></g><path d="M545.5 873.66c0-.28.22-.5.5-.5h597c.28 0 .5.22.5.5s-.22.5-.5.5H546c-.28 0-.5-.22-.5-.5z" stroke="#3a414a" fill="none"/><g><path d="M544.5 853.66c.28 0 .5.22.5.5v38c0 .28-.22.5-.5.5s-.5-.22-.5-.5v-38c0-.28.22-.5.5-.5z" stroke="#3a414a" fill="none"/></g><g><path d="M1144 854.16c.28 0 .5.22.5.5v38c0 .28-.22.5-.5.5s-.5-.22-.5-.5v-38c0-.28.22-.5.5-.5z" stroke="#3a414a" fill="none"/></g><path d="M624 873.94c0-3.3 2.7-6 6-6h348c3.3 0 6 2.7 6 6v60.44c0 3.3-2.7 6-6 6H630c-3.3 0-6-2.7-6-6z" stroke="#000" stroke-opacity="0" fill="#fff" fill-opacity="0"/><g><use xlink:href="#i" transform="matrix(1,0,0,1,629,872.9444444444445) translate(7.472656250000028 40.690538194444436)"/><use xlink:href="#j" transform="matrix(1,0,0,1,629,872.9444444444445) translate(138.1605902777778 40.690538194444436)"/><use xlink:href="#k" transform="matrix(1,0,0,1,629,872.9444444444445) translate(287.51822916666663 40.690538194444436)"/></g><path d="M1146 873.66c0-.28.22-.5.5-.5h597c.28 0 .5.22.5.5s-.22.5-.5.5h-597c-.28 0-.5-.22-.5-.5z" stroke="#3a414a" fill="none"/><g><path d="M1145 853.66c.28 0 .5.22.5.5v38c0 .28-.22.5-.5.5s-.5-.22-.5-.5v-38c0-.28.22-.5.5-.5z" stroke="#3a414a" fill="none"/></g><g><path d="M1744.5 854.16c.28 0 .5.22.5.5v38c0 .28-.22.5-.5.5s-.5-.22-.5-.5v-38c0-.28.22-.5.5-.5z" stroke="#3a414a" fill="none"/></g><path d="M1148 873.94c0-3.3 2.7-6 6-6h585.5c3.3 0 6 2.7 6 6V980.6c0 3.3-2.7 6-6 6H1154c-3.3 0-6-2.7-6-6z" stroke="#000" stroke-opacity="0" fill="#fff" fill-opacity="0"/><g><use xlink:href="#l" transform="matrix(1,0,0,1,1153,872.9444444444445) translate(41.958984375 45.909288194444436)"/><use xlink:href="#m" transform="matrix(1,0,0,1,1153,872.9444444444445) translate(116.63780381944443 45.909288194444436)"/><use xlink:href="#n" transform="matrix(1,0,0,1,1153,872.9444444444445) translate(247.3257378472222 45.909288194444436)"/><use xlink:href="#o" transform="matrix(1,0,0,1,1153,872.9444444444445) translate(396.6833767361111 45.909288194444436)"/><use xlink:href="#p" transform="matrix(1,0,0,1,1153,872.9444444444445) translate(471.36219618055554 45.909288194444436)"/><use xlink:href="#q" transform="matrix(1,0,0,1,1153,872.9444444444445) translate(116.63780381944446 82.1245659722222)"/><use xlink:href="#r" transform="matrix(1,0,0,1,1153,872.9444444444445) translate(228.65603298611111 82.1245659722222)"/><use xlink:href="#s" transform="matrix(1,0,0,1,1153,872.9444444444445) translate(284.66514756944446 82.1245659722222)"/></g><defs><filter id="a" filterUnits="objectBoundingBox" x="0" y="-.01" width="1.01" height="1.02"><feOffset result="offOut" in="SourceAlpha" dx="4.24" dy="4.24"/><feGaussianBlur result="blurOut" in="offOut" stdDeviation="5"/><feColorMatrix result="colorOut" in="blurOut" values="0 0 0 0 0 0 0 0 0 0 0 0 0 0 0 0 0 0 0.5019607843137255 0"/><feBlend in="SourceGraphic" in2="colorOut"/></filter><path fill="#3a414a" d="M1004 0L860-453H369L223 0H33l483-1468h195L1196 0h-192zM807-618c-63-210-144-435-195-650-51 232-127 431-190 650h385" id="t"/><path fill="#3a414a" d="M172-543c0-365 197-575 553-575 119 0 231 20 336 59l-62 158c-100-38-189-57-268-57-247 0-371 138-371 413 0 271 120 406 361 406 105 0 212-21 321-62v160C953 0 843 20 713 20c-347 1-541-210-541-563" id="u"/><path fill="#3a414a" d="M383-553l135-152 395-393h222L641-623 1163 0H950L524-504l-129 82V0H215v-1556h180c-3 337 9 689-16 1003h4" id="v"/><path fill="#3a414a" d="M887 0v-707c0-173-79-260-238-260-205 0-307 133-307 398V0H160v-1098h147l27 148h10c69-112 181-168 336-168 259 0 389 134 389 401V0H887" id="w"/><path fill="#3a414a" d="M1112-551c0 331-186 571-502 571-301 0-495-251-495-571 0-330 184-567 501-567 302 0 496 249 496 567zM614-131c207 0 310-140 310-420 0-277-104-416-312-416-206 0-309 139-309 416 0 280 104 420 311 420" id="x"/><path fill="#3a414a" d="M813 0c-67-308-137-613-199-926h-6C551-608 477-306 408 0H219L-4-1098h162c53 313 118 604 155 936h6c53-329 132-625 201-936h193c63 300 147 629 194 936h6c45-366 103-603 162-936h158L1008 0H813" id="y"/><path fill="#3a414a" d="M532-1413l-268-21v-122h451v1413l352 20V0H188v-123l344-20v-1270" id="z"/><path fill="#3a414a" d="M631-1118c283 0 470 204 465 491v113H322c5 250 120 375 344 375 130 0 253-25 370-76v160C925-5 804 20 672 20c-329 0-539-224-539-561 0-331 182-577 498-577zM326-662h573c0-203-91-305-272-305-183 0-284 102-301 305" id="A"/><path fill="#3a414a" d="M137-547c0-322 136-571 430-571 137 0 245 53 322 160h12c-24-215-7-376-12-598h182V0H924l-27-147h-8C814-36 706 20 567 20c-294 0-430-246-430-567zm463 416c241 0 288-157 289-416 0-151-23-259-69-323s-121-97-222-97c-181 0-272 141-272 422 0 276 91 414 274 414" id="B"/><path fill="#3a414a" d="M188-739c-1-248 156-381 410-379 57 0 107 7 150 20h378v113l-196 27c43 57 65 128 65 213 2 253-212 385-489 346-67 37-100 82-100 133 0 56 54 84 161 84h187c216-2 358 93 358 297 0 251-188 377-565 377-145 0-255-26-331-80S102 283 102 186c0-141 80-231 240-270-64-31-96-83-96-154 0-75 44-139 133-192-109-41-191-166-191-309zm406 221c149 0 223-77 223-230 0-159-75-239-225-239s-225 81-225 242c0 151 76 227 227 227zm346 649c0-146-78-149-248-149H504c-153 0-230 66-230 198 0 116 90 174 271 174 263 0 395-74 395-223" id="C"/><g id="b"><use transform="matrix(0.015190972222222219,0,0,0.015190972222222219,0,0)" xlink:href="#t"/><use transform="matrix(0.015190972222222219,0,0,0.015190972222222219,18.669704861111107,0)" xlink:href="#u"/><use transform="matrix(0.015190972222222219,0,0,0.015190972222222219,37.339409722222214,0)" xlink:href="#v"/><use transform="matrix(0.015190972222222219,0,0,0.015190972222222219,56.00911458333332,0)" xlink:href="#w"/><use transform="matrix(0.015190972222222219,0,0,0.015190972222222219,74.67881944444443,0)" xlink:href="#x"/><use transform="matrix(0.015190972222222219,0,0,0.015190972222222219,93.34852430555554,0)" xlink:href="#y"/><use transform="matrix(0.015190972222222219,0,0,0.015190972222222219,112.01822916666666,0)" xlink:href="#z"/><use transform="matrix(0.015190972222222219,0,0,0.015190972222222219,130.68793402777777,0)" xlink:href="#A"/><use transform="matrix(0.015190972222222219,0,0,0.015190972222222219,149.35763888888889,0)" xlink:href="#B"/><use transform="matrix(0.015190972222222219,0,0,0.015190972222222219,168.02734375,0)" xlink:href="#C"/><use transform="matrix(0.015190972222222219,0,0,0.015190972222222219,186.69704861111111,0)" xlink:href="#A"/><use transform="matrix(0.015190972222222219,0,0,0.015190972222222219,205.36675347222223,0)" xlink:href="#B"/></g><path fill="#3a414a" d="M532 0L254-1280h-8c34 456 12 817 18 1280H113v-1462h247L608-270h6l250-1192h252V0H963c5-467-12-807 14-1278h-8L686 0H532" id="D"/><path fill="#3a414a" d="M1026-301c0 225-197 321-448 321-165 0-290-23-375-69v-166c129 57 252 86 370 86 183 0 275-54 275-162 0-38-16-71-49-99s-108-63-226-106c-156-57-253-112-293-160s-61-105-61-171c2-338 524-340 789-217l-60 149c-121-48-228-72-319-72-157 0-236 44-236 133 0 41 17 74 51 98s111 57 232 101c141 51 234 101 280 151s70 111 70 183" id="E"/><path fill="#3a414a" d="M596-1118c288 2 430 92 430 366V0H895l-37-152h-8C752-34 680 17 483 20 272 23 135-98 135-307c0-221 170-337 510-348l203-7c15-197-55-305-244-305-98 0-207 27-328 82l-63-137c131-64 258-96 383-96zm-72 991c194 0 325-116 322-311v-99c-251 15-522-6-522 232 0 119 67 178 200 178" id="F"/><g id="c"><use transform="matrix(0.015190972222222219,0,0,0.015190972222222219,0,0)" xlink:href="#D"/><use transform="matrix(0.015190972222222219,0,0,0.015190972222222219,18.669704861111107,0)" xlink:href="#A"/><use transform="matrix(0.015190972222222219,0,0,0.015190972222222219,37.339409722222214,0)" xlink:href="#E"/><use transform="matrix(0.015190972222222219,0,0,0.015190972222222219,56.00911458333332,0)" xlink:href="#E"/><use transform="matrix(0.015190972222222219,0,0,0.015190972222222219,74.67881944444443,0)" xlink:href="#F"/><use transform="matrix(0.015190972222222219,0,0,0.015190972222222219,93.34852430555554,0)" xlink:href="#C"/><use transform="matrix(0.015190972222222219,0,0,0.015190972222222219,112.01822916666666,0)" xlink:href="#A"/></g><path fill="#3a414a" d="M1104-516c1 337-164 537-496 536-322 0-483-180-483-540v-942h186v932c0 258 102 387 307 387 197 0 300-130 300-389v-932h186v948" id="G"/><g id="d"><use transform="matrix(0.015190972222222219,0,0,0.015190972222222219,0,0)" xlink:href="#G"/><use transform="matrix(0.015190972222222219,0,0,0.015190972222222219,18.669704861111107,0)" xlink:href="#w"/><use transform="matrix(0.015190972222222219,0,0,0.015190972222222219,37.339409722222214,0)" xlink:href="#F"/><use transform="matrix(0.015190972222222219,0,0,0.015190972222222219,56.00911458333332,0)" xlink:href="#u"/><use transform="matrix(0.015190972222222219,0,0,0.015190972222222219,74.67881944444443,0)" xlink:href="#v"/><use transform="matrix(0.015190972222222219,0,0,0.015190972222222219,93.34852430555554,0)" xlink:href="#w"/><use transform="matrix(0.015190972222222219,0,0,0.015190972222222219,112.01822916666666,0)" xlink:href="#x"/><use transform="matrix(0.015190972222222219,0,0,0.015190972222222219,130.68793402777777,0)" xlink:href="#y"/><use transform="matrix(0.015190972222222219,0,0,0.015190972222222219,149.35763888888889,0)" xlink:href="#z"/><use transform="matrix(0.015190972222222219,0,0,0.015190972222222219,168.02734375,0)" xlink:href="#A"/><use transform="matrix(0.015190972222222219,0,0,0.015190972222222219,186.69704861111111,0)" xlink:href="#B"/><use transform="matrix(0.015190972222222219,0,0,0.015190972222222219,205.36675347222223,0)" xlink:href="#C"/><use transform="matrix(0.015190972222222219,0,0,0.015190972222222219,224.03645833333334,0)" xlink:href="#A"/><use transform="matrix(0.015190972222222219,0,0,0.015190972222222219,242.70616319444446,0)" xlink:href="#B"/></g><path fill="#3a414a" d="M1147-745C1147-274 901 1 436 0H135v-1462h342c429-3 670 280 670 717zm-825-558v1143h96c355 0 532-193 532-579 0-376-164-564-493-564H322" id="H"/><path fill="#3a414a" d="M1020-150v138C933 9 849 20 768 20 527 20 406-95 406-324v-637H139v-94l267-49 77-287h105v293h438v137H588v637c0 130 64 195 192 195 62 0 142-7 240-21" id="I"/><g id="e"><use transform="matrix(0.015190972222222219,0,0,0.015190972222222219,0,0)" xlink:href="#H"/><use transform="matrix(0.015190972222222219,0,0,0.015190972222222219,18.669704861111107,0)" xlink:href="#A"/><use transform="matrix(0.015190972222222219,0,0,0.015190972222222219,37.339409722222214,0)" xlink:href="#z"/><use transform="matrix(0.015190972222222219,0,0,0.015190972222222219,56.00911458333332,0)" xlink:href="#A"/><use transform="matrix(0.015190972222222219,0,0,0.015190972222222219,74.67881944444443,0)" xlink:href="#I"/><use transform="matrix(0.015190972222222219,0,0,0.015190972222222219,93.34852430555554,0)" xlink:href="#A"/><use transform="matrix(0.015190972222222219,0,0,0.015190972222222219,112.01822916666666,0)" xlink:href="#B"/></g><path fill="#3a414a" d="M373-604V0H186v-1462h357c347 0 520 138 520 415 0 191-96 322-289 392L1171 0H952L602-604H373zm497-434c0-207-118-263-338-265H373v541h164c215-1 333-70 333-276" id="J"/><path fill="#3a414a" d="M739-1436c0 71-43 115-106 115-71 0-107-38-107-115 0-76 36-114 107-114s106 38 106 114zM541-954l-269-21v-123h451v955l352 20V0H197v-123l344-20v-811" id="K"/><g id="f"><use transform="matrix(0.015190972222222219,0,0,0.015190972222222219,0,0)" xlink:href="#J"/><use transform="matrix(0.015190972222222219,0,0,0.015190972222222219,18.669704861111107,0)" xlink:href="#A"/><use transform="matrix(0.015190972222222219,0,0,0.015190972222222219,37.339409722222214,0)" xlink:href="#I"/><use transform="matrix(0.015190972222222219,0,0,0.015190972222222219,56.00911458333332,0)" xlink:href="#A"/><use transform="matrix(0.015190972222222219,0,0,0.015190972222222219,74.67881944444443,0)" xlink:href="#w"/><use transform="matrix(0.015190972222222219,0,0,0.015190972222222219,93.34852430555554,0)" xlink:href="#I"/><use transform="matrix(0.015190972222222219,0,0,0.015190972222222219,112.01822916666666,0)" xlink:href="#K"/><use transform="matrix(0.015190972222222219,0,0,0.015190972222222219,130.68793402777777,0)" xlink:href="#x"/><use transform="matrix(0.015190972222222219,0,0,0.015190972222222219,149.35763888888889,0)" xlink:href="#w"/></g><path fill="#3a414a" d="M1094-1034c0 310-213 470-541 465H362V0H176v-1462h404c343 0 514 143 514 428zM532-727c244-1 369-71 369-297 0-186-113-279-338-279H362v576h170" id="L"/><path fill="#3a414a" d="M82-1098h188l262 654c55 137 84 233 89 290h6c15-75 45-172 90-292l239-652h189L670 143c-45 116-99 201-156 261-87 92-259 104-414 71V330c92 17 226 18 286-29 67-53 115-195 153-291" id="M"/><g id="g"><use transform="matrix(0.015190972222222219,0,0,0.015190972222222219,0,0)" xlink:href="#L"/><use transform="matrix(0.015190972222222219,0,0,0.015190972222222219,18.669704861111107,0)" xlink:href="#x"/><use transform="matrix(0.015190972222222219,0,0,0.015190972222222219,37.339409722222214,0)" xlink:href="#z"/><use transform="matrix(0.015190972222222219,0,0,0.015190972222222219,56.00911458333332,0)" xlink:href="#K"/><use transform="matrix(0.015190972222222219,0,0,0.015190972222222219,74.67881944444443,0)" xlink:href="#u"/><use transform="matrix(0.015190972222222219,0,0,0.015190972222222219,93.34852430555554,0)" xlink:href="#M"/></g><path fill="#3a414a" d="M1092-551c0 322-136 571-430 571-138 0-245-53-322-159h-12c24 220 7 402 12 631H158v-1590h147l27 148h8c73-112 181-168 322-168 294 0 430 246 430 567zM629-967c-241 0-288 156-289 416 0 151 24 259 70 323s120 97 221 97c181 0 272-141 272-422 0-276-91-414-274-414" id="N"/><path fill="#3a414a" d="M442-897c93-139 173-221 377-221 79 0 159 15 240 45l-49 166c-82-30-157-45-224-45-221 0-340 134-340 360V0H264v-1098h148l22 201h8" id="O"/><g id="h"><use transform="matrix(0.015190972222222219,0,0,0.015190972222222219,0,0)" xlink:href="#G"/><use transform="matrix(0.015190972222222219,0,0,0.015190972222222219,18.669704861111107,0)" xlink:href="#w"/><use transform="matrix(0.015190972222222219,0,0,0.015190972222222219,37.339409722222214,0)" xlink:href="#N"/><use transform="matrix(0.015190972222222219,0,0,0.015190972222222219,56.00911458333332,0)" xlink:href="#O"/><use transform="matrix(0.015190972222222219,0,0,0.015190972222222219,74.67881944444443,0)" xlink:href="#x"/><use transform="matrix(0.015190972222222219,0,0,0.015190972222222219,93.34852430555554,0)" xlink:href="#u"/><use transform="matrix(0.015190972222222219,0,0,0.015190972222222219,112.01822916666666,0)" xlink:href="#A"/><use transform="matrix(0.015190972222222219,0,0,0.015190972222222219,130.68793402777777,0)" xlink:href="#E"/><use transform="matrix(0.015190972222222219,0,0,0.015190972222222219,149.35763888888889,0)" xlink:href="#E"/><use transform="matrix(0.015190972222222219,0,0,0.015190972222222219,168.02734375,0)" xlink:href="#A"/><use transform="matrix(0.015190972222222219,0,0,0.015190972222222219,186.69704861111111,0)" xlink:href="#B"/></g><path fill="#3a414a" d="M528-1008h177c63 241 176 595 217 828 10-131 108-1012 135-1282h170L1040 0H850c-78-286-175-558-234-862C553-542 470-299 395 0H205L2-1462h170c52 408 123 848 145 1282 49-284 143-558 211-828" id="P"/><path fill="#3a414a" d="M887 0v-707c0-173-79-260-238-260-205 0-307 133-307 398V0H160v-1556h182c-2 202 6 416-8 606h10c69-112 181-168 336-168 259 0 389 134 389 401V0H887" id="Q"/><g id="i"><use transform="matrix(0.015190972222222219,0,0,0.015190972222222219,0,0)" xlink:href="#P"/><use transform="matrix(0.015190972222222219,0,0,0.015190972222222219,18.669704861111107,0)" xlink:href="#K"/><use transform="matrix(0.015190972222222219,0,0,0.015190972222222219,37.339409722222214,0)" xlink:href="#I"/><use transform="matrix(0.015190972222222219,0,0,0.015190972222222219,56.00911458333332,0)" xlink:href="#Q"/><use transform="matrix(0.015190972222222219,0,0,0.015190972222222219,74.67881944444443,0)" xlink:href="#K"/><use transform="matrix(0.015190972222222219,0,0,0.015190972222222219,93.34852430555554,0)" xlink:href="#w"/></g><g id="j"><use transform="matrix(0.015190972222222219,0,0,0.015190972222222219,0,0)" xlink:href="#t"/><use transform="matrix(0.015190972222222219,0,0,0.015190972222222219,18.669704861111107,0)" xlink:href="#N"/><use transform="matrix(0.015190972222222219,0,0,0.015190972222222219,37.339409722222214,0)" xlink:href="#N"/><use transform="matrix(0.015190972222222219,0,0,0.015190972222222219,56.00911458333332,0)" xlink:href="#z"/><use transform="matrix(0.015190972222222219,0,0,0.015190972222222219,74.67881944444443,0)" xlink:href="#K"/><use transform="matrix(0.015190972222222219,0,0,0.015190972222222219,93.34852430555554,0)" xlink:href="#A"/><use transform="matrix(0.015190972222222219,0,0,0.015190972222222219,112.01822916666666,0)" xlink:href="#B"/></g><path fill="#3a414a" d="M707 0H520v-1298H102v-164h1022v164H707V0" id="R"/><path fill="#3a414a" d="M233 0v-1462h187v1296h635V0H233" id="S"/><g id="k"><use transform="matrix(0.015190972222222219,0,0,0.015190972222222219,0,0)" xlink:href="#R"/><use transform="matrix(0.015190972222222219,0,0,0.015190972222222219,18.669704861111107,0)" xlink:href="#R"/><use transform="matrix(0.015190972222222219,0,0,0.015190972222222219,37.339409722222214,0)" xlink:href="#S"/></g><path fill="#3a414a" d="M1092 0H877L297-1210h-8c32 442 13 766 18 1210H135v-1462h213L926-258h6c-25-469-9-747-14-1204h174V0" id="T"/><g id="l"><use transform="matrix(0.015190972222222219,0,0,0.015190972222222219,0,0)" xlink:href="#T"/><use transform="matrix(0.015190972222222219,0,0,0.015190972222222219,18.669704861111107,0)" xlink:href="#x"/><use transform="matrix(0.015190972222222219,0,0,0.015190972222222219,37.339409722222214,0)" xlink:href="#I"/></g><g id="m"><use transform="matrix(0.015190972222222219,0,0,0.015190972222222219,0,0)" xlink:href="#y"/><use transform="matrix(0.015190972222222219,0,0,0.015190972222222219,18.669704861111107,0)" xlink:href="#K"/><use transform="matrix(0.015190972222222219,0,0,0.015190972222222219,37.339409722222214,0)" xlink:href="#I"/><use transform="matrix(0.015190972222222219,0,0,0.015190972222222219,56.00911458333332,0)" xlink:href="#Q"/><use transform="matrix(0.015190972222222219,0,0,0.015190972222222219,74.67881944444443,0)" xlink:href="#K"/><use transform="matrix(0.015190972222222219,0,0,0.015190972222222219,93.34852430555554,0)" xlink:href="#w"/></g><g id="n"><use transform="matrix(0.015190972222222219,0,0,0.015190972222222219,0,0)" xlink:href="#F"/><use transform="matrix(0.015190972222222219,0,0,0.015190972222222219,18.669704861111107,0)" xlink:href="#N"/><use transform="matrix(0.015190972222222219,0,0,0.015190972222222219,37.339409722222214,0)" xlink:href="#N"/><use transform="matrix(0.015190972222222219,0,0,0.015190972222222219,56.00911458333332,0)" xlink:href="#z"/><use transform="matrix(0.015190972222222219,0,0,0.015190972222222219,74.67881944444443,0)" xlink:href="#K"/><use transform="matrix(0.015190972222222219,0,0,0.015190972222222219,93.34852430555554,0)" xlink:href="#A"/><use transform="matrix(0.015190972222222219,0,0,0.015190972222222219,112.01822916666666,0)" xlink:href="#B"/></g><g id="o"><use transform="matrix(0.015190972222222219,0,0,0.015190972222222219,0,0)" xlink:href="#R"/><use transform="matrix(0.015190972222222219,0,0,0.015190972222222219,18.669704861111107,0)" xlink:href="#R"/><use transform="matrix(0.015190972222222219,0,0,0.015190972222222219,37.339409722222214,0)" xlink:href="#S"/></g><path fill="#3a414a" d="M739-1462h193c-299 251-449 548-449 893 0 347 149 645 447 893H739C443 89 295-208 295-567c0-355 148-653 444-895" id="U"/><path fill="#3a414a" d="M977 0v-707c0-97-9-165-27-203s-47-57-88-57c-58 0-100 28-126 83s-40 148-40 278V0H535v-707c0-173-42-260-125-260-56 0-96 26-120 79s-36 160-36 319V0H92v-1098h127l27 148h10c45-112 112-168 201-168 109 0 180 61 213 182h6c51-121 124-182 219-182 85 0 147 30 186 92s58 165 58 309V0H977" id="V"/><g id="p"><use transform="matrix(0.015190972222222219,0,0,0.015190972222222219,0,0)" xlink:href="#U"/><use transform="matrix(0.015190972222222219,0,0,0.015190972222222219,18.669704861111107,0)" xlink:href="#V"/><use transform="matrix(0.015190972222222219,0,0,0.015190972222222219,37.339409722222214,0)" xlink:href="#F"/><use transform="matrix(0.015190972222222219,0,0,0.015190972222222219,56.00911458333332,0)" xlink:href="#M"/></g><g id="q"><use transform="matrix(0.015190972222222219,0,0,0.015190972222222219,0,0)" xlink:href="#E"/><use transform="matrix(0.015190972222222219,0,0,0.015190972222222219,18.669704861111107,0)" xlink:href="#I"/><use transform="matrix(0.015190972222222219,0,0,0.015190972222222219,37.339409722222214,0)" xlink:href="#K"/><use transform="matrix(0.015190972222222219,0,0,0.015190972222222219,56.00911458333332,0)" xlink:href="#z"/><use transform="matrix(0.015190972222222219,0,0,0.015190972222222219,74.67881944444443,0)" xlink:href="#z"/></g><path fill="#3a414a" d="M1092-551c0 322-136 571-430 571-138 0-245-53-322-159h-12L291 0H158v-1556h182c-2 221 6 379-8 602h8c71-109 179-164 322-164 294 0 430 246 430 567zM629-967c-241 0-289 146-289 416 0 151 24 259 70 323s120 97 221 97c181 0 272-141 272-422 0-276-91-414-274-414" id="W"/><g id="r"><use transform="matrix(0.015190972222222219,0,0,0.015190972222222219,0,0)" xlink:href="#W"/><use transform="matrix(0.015190972222222219,0,0,0.015190972222222219,18.669704861111107,0)" xlink:href="#A"/></g><path fill="#3a414a" d="M489 324H299C596 77 745-221 745-569c0-345-149-643-448-893h192c297 241 445 539 445 895 0 360-148 657-445 891" id="X"/><g id="s"><use transform="matrix(0.015190972222222219,0,0,0.015190972222222219,0,0)" xlink:href="#N"/><use transform="matrix(0.015190972222222219,0,0,0.015190972222222219,18.669704861111107,0)" xlink:href="#O"/><use transform="matrix(0.015190972222222219,0,0,0.015190972222222219,37.339409722222214,0)" xlink:href="#x"/><use transform="matrix(0.015190972222222219,0,0,0.015190972222222219,56.00911458333332,0)" xlink:href="#u"/><use transform="matrix(0.015190972222222219,0,0,0.015190972222222219,74.67881944444443,0)" xlink:href="#A"/><use transform="matrix(0.015190972222222219,0,0,0.015190972222222219,93.34852430555554,0)" xlink:href="#E"/><use transform="matrix(0.015190972222222219,0,0,0.015190972222222219,112.01822916666666,0)" xlink:href="#E"/><use transform="matrix(0.015190972222222219,0,0,0.015190972222222219,130.68793402777777,0)" xlink:href="#A"/><use transform="matrix(0.015190972222222219,0,0,0.015190972222222219,149.35763888888889,0)" xlink:href="#B"/><use transform="matrix(0.015190972222222219,0,0,0.015190972222222219,168.02734375,0)" xlink:href="#X"/></g></defs></g></svg>