<svg xmlns="http://www.w3.org/2000/svg" xmlns:xlink="http://www.w3.org/1999/xlink" xmlns:lucid="lucid" width="959" height="420"><g transform="translate(-620 -340.00000000000006)" lucid:page-tab-id="0_0"><path d="M0 0h1870.87v1322.83H0z" fill="#fff"/><path d="M640 540c0-3.3 2.7-6 6-6h128c3.3 0 6 2.7 6 6v48c0 3.3-2.7 6-6 6H646c-3.3 0-6-2.7-6-6z" stroke="#474e55" stroke-width="3" fill="#fff"/><use xlink:href="#a" transform="matrix(1,0,0,1,645,539) translate(16.458767361111114 31.27072482638889)"/><path d="M1419 540c0-3.3 2.7-6 6-6h128c3.3 0 6 2.7 6 6v48c0 3.3-2.7 6-6 6h-128c-3.3 0-6-2.7-6-6z" stroke="#474e55" stroke-width="3" fill="#fff"/><use xlink:href="#b" transform="matrix(1,0,0,1,1424,539) translate(16.458767361111114 31.27072482638889)"/><path d="M840 366c0-3.3 2.7-6 6-6h508c3.3 0 6 2.7 6 6v368c0 3.3-2.7 6-6 6H846c-3.3 0-6-2.7-6-6z" stroke="#5e5e5e" stroke-width="3" fill="#fff"/><path d="M1007.5 534c17.67 0 32 13.43 32 30s-14.33 30-32 30h-96c-17.67 0-32-13.43-32-30s14.33-30 32-30z" stroke="#474e55" stroke-width="4" fill="#474e55"/><use xlink:href="#c" transform="matrix(1,0,0,1,884.5,539) translate(44.66172960069446 31.270724826388882)"/><path d="M1267 534c17.67 0 32 13.43 32 30s-14.33 30-32 30h-96c-17.67 0-32-13.43-32-30s14.33-30 32-30z" stroke="#474e55" stroke-width="4" fill="#474e55"/><use xlink:href="#d" transform="matrix(1,0,0,1,1144,539) translate(2.1881510416667 31.270724826388882)"/><path d="M782.5 560h76.8" stroke="#5e5e5e" stroke-width="2" fill="none"/><path d="M782.53 561h-1.03v-2h1.03z" stroke="#5e5e5e" stroke-width=".05" fill="#5e5e5e"/><path d="M874.57 560l-14.27 4.64v-9.28z" stroke="#5e5e5e" stroke-width="2" fill="#5e5e5e"/><path d="M1302 564h97" stroke="#5e5e5e" stroke-width="2" fill="none"/><path d="M1302.03 565h-1.1l.07-.93v-.4l-.06-.67h1.1z" stroke="#5e5e5e" stroke-width=".05" fill="#5e5e5e"/><path d="M1414.26 564l-14.26 4.64v-9.28z" stroke="#5e5e5e" stroke-width="2" fill="#5e5e5e"/><path d="M1042.18 560h76.62" stroke="#5e5e5e" stroke-width="2" fill="none"/><path d="M1042.2 561h-.93l-.17-1.98V559h1.1z" stroke="#5e5e5e" stroke-width=".05" fill="#5e5e5e"/><path d="M1134.07 560l-14.27 4.64v-9.28z" stroke="#5e5e5e" stroke-width="2" fill="#5e5e5e"/><path d="M1292 380c26.5 0 48 13.43 48 30s-21.5 30-48 30h-144c-26.5 0-48-13.43-48-30s21.5-30 48-30z" stroke="#188fff" stroke-width="4" fill="#188fff"/><use xlink:href="#e" transform="matrix(1,0,0,1,1105,385) translate(17.78417968750003 32.33300781249999)"/><use xlink:href="#f" transform="matrix(1,0,0,1,1105,385) translate(82.59472656250001 32.33300781249999)"/><use xlink:href="#g" transform="matrix(1,0,0,1,1105,385) translate(158.20703125 32.33300781249999)"/><path d="M1171.52 531v-70.5" stroke="#1071e5" stroke-width="2" fill="none"/><path d="M1172.52 532h-2v-1.03h2z" stroke="#1071e5" stroke-width=".05" fill="#1071e5"/><path d="M1171.52 445.24l4.63 14.26h-9.27z" stroke="#1071e5" stroke-width="2" fill="#1071e5"/><use xlink:href="#h" transform="matrix(1,0,0,1,1051.500352892281,479.2395833333333) translate(0 12.376302083333334)"/><path d="M1272.8 443v70.97" stroke="#1071e5" stroke-width="2" fill="none"/><path d="M1273.8 443.03h-2V442h2z" stroke="#1071e5" stroke-width=".05" fill="#1071e5"/><path d="M1272.8 529.23l-4.63-14.26h9.27z" stroke="#1071e5" stroke-width="2" fill="#1071e5"/><use xlink:href="#i" transform="matrix(1,0,0,1,1280.803445180744,471.7142225903719) translate(0 12.376302083333334)"/><use xlink:href="#j" transform="matrix(1,0,0,1,1280.803445180744,471.7142225903719) translate(0 27.897135416666668)"/><path d="M1292 660c26.5 0 48 13.43 48 30s-21.5 30-48 30h-144c-26.5 0-48-13.43-48-30s21.5-30 48-30z" stroke="#cfe4ff" stroke-width="4" fill="#cfe4ff"/><use xlink:href="#k" transform="matrix(1,0,0,1,1105,665) translate(23.18505859375003 32.33300781249999)"/><use xlink:href="#l" transform="matrix(1,0,0,1,1105,665) translate(77.19384765625001 32.33300781249999)"/><use xlink:href="#m" transform="matrix(1,0,0,1,1105,665) translate(152.80615234375 32.33300781249999)"/><path d="M1278.07 595.25v44.25" stroke="#1071e5" stroke-width="2" fill="none"/><path d="M1279.07 595.28h-2v-.78l1.25-.3.75-.33z" stroke="#1071e5" stroke-width=".05" fill="#1071e5"/><path d="M1278.07 654.76l-4.63-14.26h9.27z" stroke="#1071e5" stroke-width="2" fill="#1071e5"/><g><use xlink:href="#n" transform="matrix(1,0,0,1,1134.0507329438044,618.3648778252871) translate(0 12.376302083333334)"/></g><defs><path fill="#282c33" d="M1094-1034c0 310-213 470-541 465H362V0H176v-1462h404c343 0 514 143 514 428zM532-727c244-1 369-71 369-297 0-186-113-279-338-279H362v576h170" id="o"/><path fill="#282c33" d="M442-897c93-139 173-221 377-221 79 0 159 15 240 45l-49 166c-82-30-157-45-224-45-221 0-340 134-340 360V0H264v-1098h148l22 201h8" id="p"/><path fill="#282c33" d="M1112-551c0 331-186 571-502 571-301 0-495-251-495-571 0-330 184-567 501-567 302 0 496 249 496 567zM614-131c207 0 310-140 310-420 0-277-104-416-312-416-206 0-309 139-309 416 0 280 104 420 311 420" id="q"/><path fill="#282c33" d="M137-547c0-322 136-571 430-571 137 0 245 53 322 160h12c-24-215-7-376-12-598h182V0H924l-27-147h-8C814-36 706 20 567 20c-294 0-430-246-430-567zm463 416c241 0 288-157 289-416 0-151-23-259-69-323s-121-97-222-97c-181 0-272 141-272 422 0 276 91 414 274 414" id="r"/><path fill="#282c33" d="M578-131c239 0 309-137 309-397v-570h182V0H922l-27-147h-10C815-36 704 20 551 20c-261 0-391-134-391-401v-717h182v707c0 173 79 260 236 260" id="s"/><path fill="#282c33" d="M172-543c0-365 197-575 553-575 119 0 231 20 336 59l-62 158c-100-38-189-57-268-57-247 0-371 138-371 413 0 271 120 406 361 406 105 0 212-21 321-62v160C953 0 843 20 713 20c-347 1-541-210-541-563" id="t"/><path fill="#282c33" d="M631-1118c283 0 470 204 465 491v113H322c5 250 120 375 344 375 130 0 253-25 370-76v160C925-5 804 20 672 20c-329 0-539-224-539-561 0-331 182-577 498-577zM326-662h573c0-203-91-305-272-305-183 0-284 102-301 305" id="u"/><g id="a"><use transform="matrix(0.009874131944444444,0,0,0.009874131944444444,0,0)" xlink:href="#o"/><use transform="matrix(0.009874131944444444,0,0,0.009874131944444444,12.135308159722221,0)" xlink:href="#p"/><use transform="matrix(0.009874131944444444,0,0,0.009874131944444444,24.270616319444443,0)" xlink:href="#q"/><use transform="matrix(0.009874131944444444,0,0,0.009874131944444444,36.405924479166664,0)" xlink:href="#r"/><use transform="matrix(0.009874131944444444,0,0,0.009874131944444444,48.541232638888886,0)" xlink:href="#s"/><use transform="matrix(0.009874131944444444,0,0,0.009874131944444444,60.67654079861111,0)" xlink:href="#t"/><use transform="matrix(0.009874131944444444,0,0,0.009874131944444444,72.81184895833333,0)" xlink:href="#u"/><use transform="matrix(0.009874131944444444,0,0,0.009874131944444444,84.94715711805553,0)" xlink:href="#p"/></g><path fill="#282c33" d="M326-731c0 353 139 584 471 588 87 0 196-19 327-58v162c-97 39-217 59-358 59-433-1-637-301-637-753 0-438 243-750 668-750 147 0 274 29 383 86l-78 156c-103-52-204-78-305-78-307 1-471 259-471 588" id="v"/><path fill="#282c33" d="M887 0v-707c0-173-79-260-238-260-205 0-307 133-307 398V0H160v-1098h147l27 148h10c69-112 181-168 336-168 259 0 389 134 389 401V0H887" id="w"/><path fill="#282c33" d="M1026-301c0 225-197 321-448 321-165 0-290-23-375-69v-166c129 57 252 86 370 86 183 0 275-54 275-162 0-38-16-71-49-99s-108-63-226-106c-156-57-253-112-293-160s-61-105-61-171c2-338 524-340 789-217l-60 149c-121-48-228-72-319-72-157 0-236 44-236 133 0 41 17 74 51 98s111 57 232 101c141 51 234 101 280 151s70 111 70 183" id="x"/><path fill="#282c33" d="M977 0v-707c0-97-9-165-27-203s-47-57-88-57c-58 0-100 28-126 83s-40 148-40 278V0H535v-707c0-173-42-260-125-260-56 0-96 26-120 79s-36 160-36 319V0H92v-1098h127l27 148h10c45-112 112-168 201-168 109 0 180 61 213 182h6c51-121 124-182 219-182 85 0 147 30 186 92s58 165 58 309V0H977" id="y"/><g id="b"><use transform="matrix(0.009874131944444444,0,0,0.009874131944444444,0,0)" xlink:href="#v"/><use transform="matrix(0.009874131944444444,0,0,0.009874131944444444,12.135308159722221,0)" xlink:href="#q"/><use transform="matrix(0.009874131944444444,0,0,0.009874131944444444,24.270616319444443,0)" xlink:href="#w"/><use transform="matrix(0.009874131944444444,0,0,0.009874131944444444,36.405924479166664,0)" xlink:href="#x"/><use transform="matrix(0.009874131944444444,0,0,0.009874131944444444,48.541232638888886,0)" xlink:href="#s"/><use transform="matrix(0.009874131944444444,0,0,0.009874131944444444,60.67654079861111,0)" xlink:href="#y"/><use transform="matrix(0.009874131944444444,0,0,0.009874131944444444,72.81184895833333,0)" xlink:href="#u"/><use transform="matrix(0.009874131944444444,0,0,0.009874131944444444,84.94715711805553,0)" xlink:href="#p"/></g><path fill="#fff" d="M707 0H520v-1298H102v-164h1022v164H707V0" id="z"/><path fill="#fff" d="M1112-551c0 331-186 571-502 571-301 0-495-251-495-571 0-330 184-567 501-567 302 0 496 249 496 567zM614-131c207 0 310-140 310-420 0-277-104-416-312-416-206 0-309 139-309 416 0 280 104 420 311 420" id="A"/><path fill="#fff" d="M1092-551c0 322-136 571-430 571-138 0-245-53-322-159h-12c24 220 7 402 12 631H158v-1590h147l27 148h8c73-112 181-168 322-168 294 0 430 246 430 567zM629-967c-241 0-288 156-289 416 0 151 24 259 70 323s120 97 221 97c181 0 272-141 272-422 0-276-91-414-274-414" id="B"/><path fill="#fff" d="M739-1436c0 71-43 115-106 115-71 0-107-38-107-115 0-76 36-114 107-114s106 38 106 114zM541-954l-269-21v-123h451v955l352 20V0H197v-123l344-20v-811" id="C"/><path fill="#fff" d="M172-543c0-365 197-575 553-575 119 0 231 20 336 59l-62 158c-100-38-189-57-268-57-247 0-371 138-371 413 0 271 120 406 361 406 105 0 212-21 321-62v160C953 0 843 20 713 20c-347 1-541-210-541-563" id="D"/><g id="c"><use transform="matrix(0.00987413194444444,0,0,0.00987413194444444,0,0)" xlink:href="#z"/><use transform="matrix(0.00987413194444444,0,0,0.00987413194444444,12.135308159722218,0)" xlink:href="#A"/><use transform="matrix(0.00987413194444444,0,0,0.00987413194444444,24.270616319444436,0)" xlink:href="#B"/><use transform="matrix(0.00987413194444444,0,0,0.00987413194444444,36.40592447916666,0)" xlink:href="#C"/><use transform="matrix(0.00987413194444444,0,0,0.00987413194444444,48.54123263888887,0)" xlink:href="#D"/></g><path fill="#fff" d="M1087-391c0 281-226 411-532 411-177 0-315-23-414-69v-178c141 57 279 86 414 86 233 0 350-80 350-240 0-69-24-123-71-160s-142-82-285-133c-139-49-239-106-299-174s-90-156-90-264c2-252 211-371 481-371 153 0 291 26 416 78l-64 164c-129-52-249-78-360-78-195 0-293 70-293 209 0 68 22 123 66 164s134 85 270 133c164 58 273 119 328 181s83 143 83 241" id="E"/><path fill="#fff" d="M578-131c239 0 309-137 309-397v-570h182V0H922l-27-147h-10C815-36 704 20 551 20c-261 0-391-134-391-401v-717h182v707c0 173 79 260 236 260" id="F"/><path fill="#fff" d="M1092-551c0 322-136 571-430 571-138 0-245-53-322-159h-12L291 0H158v-1556h182c-2 221 6 379-8 602h8c71-109 179-164 322-164 294 0 430 246 430 567zM629-967c-241 0-289 146-289 416 0 151 24 259 70 323s120 97 221 97c181 0 272-141 272-422 0-276-91-414-274-414" id="G"/><path fill="#fff" d="M1026-301c0 225-197 321-448 321-165 0-290-23-375-69v-166c129 57 252 86 370 86 183 0 275-54 275-162 0-38-16-71-49-99s-108-63-226-106c-156-57-253-112-293-160s-61-105-61-171c2-338 524-340 789-217l-60 149c-121-48-228-72-319-72-157 0-236 44-236 133 0 41 17 74 51 98s111 57 232 101c141 51 234 101 280 151s70 111 70 183" id="H"/><path fill="#fff" d="M442-897c93-139 173-221 377-221 79 0 159 15 240 45l-49 166c-82-30-157-45-224-45-221 0-340 134-340 360V0H264v-1098h148l22 201h8" id="I"/><path fill="#fff" d="M1020-150v138C933 9 849 20 768 20 527 20 406-95 406-324v-637H139v-94l267-49 77-287h105v293h438v137H588v637c0 130 64 195 192 195 62 0 142-7 240-21" id="J"/><path fill="#fff" d="M887 0v-707c0-173-79-260-238-260-205 0-307 133-307 398V0H160v-1098h147l27 148h10c69-112 181-168 336-168 259 0 389 134 389 401V0H887" id="K"/><g id="d"><use transform="matrix(0.00987413194444444,0,0,0.00987413194444444,0,0)" xlink:href="#E"/><use transform="matrix(0.00987413194444444,0,0,0.00987413194444444,12.135308159722218,0)" xlink:href="#F"/><use transform="matrix(0.00987413194444444,0,0,0.00987413194444444,24.270616319444436,0)" xlink:href="#G"/><use transform="matrix(0.00987413194444444,0,0,0.00987413194444444,36.40592447916666,0)" xlink:href="#H"/><use transform="matrix(0.00987413194444444,0,0,0.00987413194444444,48.54123263888887,0)" xlink:href="#D"/><use transform="matrix(0.00987413194444444,0,0,0.00987413194444444,60.676540798611086,0)" xlink:href="#I"/><use transform="matrix(0.00987413194444444,0,0,0.00987413194444444,72.8118489583333,0)" xlink:href="#C"/><use transform="matrix(0.00987413194444444,0,0,0.00987413194444444,84.94715711805553,0)" xlink:href="#B"/><use transform="matrix(0.00987413194444444,0,0,0.00987413194444444,97.08246527777773,0)" xlink:href="#J"/><use transform="matrix(0.00987413194444444,0,0,0.00987413194444444,109.21777343749994,0)" xlink:href="#C"/><use transform="matrix(0.00987413194444444,0,0,0.00987413194444444,121.35308159722216,0)" xlink:href="#A"/><use transform="matrix(0.00987413194444444,0,0,0.00987413194444444,133.48838975694437,0)" xlink:href="#K"/></g><path fill="#fff" d="M373-604V0H186v-1462h357c347 0 520 138 520 415 0 191-96 322-289 392L1171 0H952L602-604H373zm497-434c0-207-118-263-338-265H373v541h164c215-1 333-70 333-276" id="L"/><path fill="#fff" d="M631-1118c283 0 470 204 465 491v113H322c5 250 120 375 344 375 130 0 253-25 370-76v160C925-5 804 20 672 20c-329 0-539-224-539-561 0-331 182-577 498-577zM326-662h573c0-203-91-305-272-305-183 0-284 102-301 305" id="M"/><path fill="#fff" d="M82-1098h188l262 654c55 137 84 233 89 290h6c15-75 45-172 90-292l239-652h189L670 143c-45 116-99 201-156 261-87 92-259 104-414 71V330c92 17 226 18 286-29 67-53 115-195 153-291" id="N"/><g id="e"><use transform="matrix(0.008789062499999997,0,0,0.008789062499999997,0,0)" xlink:href="#L"/><use transform="matrix(0.008789062499999997,0,0,0.008789062499999997,10.801757812499996,0)" xlink:href="#M"/><use transform="matrix(0.008789062499999997,0,0,0.008789062499999997,21.603515624999993,0)" xlink:href="#J"/><use transform="matrix(0.008789062499999997,0,0,0.008789062499999997,32.405273437499986,0)" xlink:href="#I"/><use transform="matrix(0.008789062499999997,0,0,0.008789062499999997,43.207031249999986,0)" xlink:href="#N"/></g><path fill="#fff" d="M233 0v-1462h187v1296h635V0H233" id="O"/><g id="f"><use transform="matrix(0.008789062499999997,0,0,0.008789062499999997,0,0)" xlink:href="#O"/><use transform="matrix(0.008789062499999997,0,0,0.008789062499999997,10.801757812499996,0)" xlink:href="#M"/><use transform="matrix(0.008789062499999997,0,0,0.008789062499999997,21.603515624999993,0)" xlink:href="#J"/><use transform="matrix(0.008789062499999997,0,0,0.008789062499999997,32.405273437499986,0)" xlink:href="#J"/><use transform="matrix(0.008789062499999997,0,0,0.008789062499999997,43.207031249999986,0)" xlink:href="#M"/><use transform="matrix(0.008789062499999997,0,0,0.008789062499999997,54.008789062499986,0)" xlink:href="#I"/></g><g id="g"><use transform="matrix(0.008789062499999997,0,0,0.008789062499999997,0,0)" xlink:href="#z"/><use transform="matrix(0.008789062499999997,0,0,0.008789062499999997,10.801757812499996,0)" xlink:href="#A"/><use transform="matrix(0.008789062499999997,0,0,0.008789062499999997,21.603515624999993,0)" xlink:href="#B"/><use transform="matrix(0.008789062499999997,0,0,0.008789062499999997,32.405273437499986,0)" xlink:href="#C"/><use transform="matrix(0.008789062499999997,0,0,0.008789062499999997,43.207031249999986,0)" xlink:href="#D"/></g><path fill="#188fff" d="M442-897c93-139 173-221 377-221 79 0 159 15 240 45l-49 166c-82-30-157-45-224-45-221 0-340 134-340 360V0H264v-1098h148l22 201h8" id="P"/><path fill="#188fff" d="M631-1118c283 0 470 204 465 491v113H322c5 250 120 375 344 375 130 0 253-25 370-76v160C925-5 804 20 672 20c-329 0-539-224-539-561 0-331 182-577 498-577zM326-662h573c0-203-91-305-272-305-183 0-284 102-301 305" id="Q"/><path fill="#188fff" d="M172-543c0-365 197-575 553-575 119 0 231 20 336 59l-62 158c-100-38-189-57-268-57-247 0-371 138-371 413 0 271 120 406 361 406 105 0 212-21 321-62v160C953 0 843 20 713 20c-347 1-541-210-541-563" id="R"/><path fill="#188fff" d="M1112-551c0 331-186 571-502 571-301 0-495-251-495-571 0-330 184-567 501-567 302 0 496 249 496 567zM614-131c207 0 310-140 310-420 0-277-104-416-312-416-206 0-309 139-309 416 0 280 104 420 311 420" id="S"/><path fill="#188fff" d="M887 0v-707c0-173-79-260-238-260-205 0-307 133-307 398V0H160v-1098h147l27 148h10c69-112 181-168 336-168 259 0 389 134 389 401V0H887" id="T"/><path fill="#188fff" d="M1026-301c0 225-197 321-448 321-165 0-290-23-375-69v-166c129 57 252 86 370 86 183 0 275-54 275-162 0-38-16-71-49-99s-108-63-226-106c-156-57-253-112-293-160s-61-105-61-171c2-338 524-340 789-217l-60 149c-121-48-228-72-319-72-157 0-236 44-236 133 0 41 17 74 51 98s111 57 232 101c141 51 234 101 280 151s70 111 70 183" id="U"/><path fill="#188fff" d="M578-131c239 0 309-137 309-397v-570h182V0H922l-27-147h-10C815-36 704 20 551 20c-261 0-391-134-391-401v-717h182v707c0 173 79 260 236 260" id="V"/><path fill="#188fff" d="M977 0v-707c0-97-9-165-27-203s-47-57-88-57c-58 0-100 28-126 83s-40 148-40 278V0H535v-707c0-173-42-260-125-260-56 0-96 26-120 79s-36 160-36 319V0H92v-1098h127l27 148h10c45-112 112-168 201-168 109 0 180 61 213 182h6c51-121 124-182 219-182 85 0 147 30 186 92s58 165 58 309V0H977" id="W"/><path fill="#188fff" d="M233 0v-1462h187v1296h635V0H233" id="X"/><path fill="#188fff" d="M596-1118c288 2 430 92 430 366V0H895l-37-152h-8C752-34 680 17 483 20 272 23 135-98 135-307c0-221 170-337 510-348l203-7c15-197-55-305-244-305-98 0-207 27-328 82l-63-137c131-64 258-96 383-96zm-72 991c194 0 325-116 322-311v-99c-251 15-522-6-522 232 0 119 67 178 200 178" id="Y"/><path fill="#188fff" d="M1020-150v138C933 9 849 20 768 20 527 20 406-95 406-324v-637H139v-94l267-49 77-287h105v293h438v137H588v637c0 130 64 195 192 195 62 0 142-7 240-21" id="Z"/><g id="h"><use transform="matrix(0.006510416666666667,0,0,0.006510416666666667,0,0)" xlink:href="#P"/><use transform="matrix(0.006510416666666667,0,0,0.006510416666666667,8.001302083333334,0)" xlink:href="#Q"/><use transform="matrix(0.006510416666666667,0,0,0.006510416666666667,16.002604166666668,0)" xlink:href="#R"/><use transform="matrix(0.006510416666666667,0,0,0.006510416666666667,24.00390625,0)" xlink:href="#S"/><use transform="matrix(0.006510416666666667,0,0,0.006510416666666667,32.005208333333336,0)" xlink:href="#T"/><use transform="matrix(0.006510416666666667,0,0,0.006510416666666667,40.00651041666667,0)" xlink:href="#U"/><use transform="matrix(0.006510416666666667,0,0,0.006510416666666667,48.00781250000001,0)" xlink:href="#V"/><use transform="matrix(0.006510416666666667,0,0,0.006510416666666667,56.00911458333335,0)" xlink:href="#W"/><use transform="matrix(0.006510416666666667,0,0,0.006510416666666667,64.01041666666667,0)" xlink:href="#Q"/><use transform="matrix(0.006510416666666667,0,0,0.006510416666666667,72.01171875,0)" xlink:href="#X"/><use transform="matrix(0.006510416666666667,0,0,0.006510416666666667,80.01302083333333,0)" xlink:href="#Y"/><use transform="matrix(0.006510416666666667,0,0,0.006510416666666667,88.01432291666666,0)" xlink:href="#Z"/><use transform="matrix(0.006510416666666667,0,0,0.006510416666666667,96.01562499999999,0)" xlink:href="#Q"/><use transform="matrix(0.006510416666666667,0,0,0.006510416666666667,104.01692708333331,0)" xlink:href="#P"/></g><path fill="#188fff" d="M82-1098h188l262 654c55 137 84 233 89 290h6c15-75 45-172 90-292l239-652h189L670 143c-45 116-99 201-156 261-87 92-259 104-414 71V330c92 17 226 18 286-29 67-53 115-195 153-291" id="aa"/><g id="i"><use transform="matrix(0.006510416666666667,0,0,0.006510416666666667,0,0)" xlink:href="#P"/><use transform="matrix(0.006510416666666667,0,0,0.006510416666666667,8.001302083333334,0)" xlink:href="#Q"/><use transform="matrix(0.006510416666666667,0,0,0.006510416666666667,16.002604166666668,0)" xlink:href="#Z"/><use transform="matrix(0.006510416666666667,0,0,0.006510416666666667,24.00390625,0)" xlink:href="#P"/><use transform="matrix(0.006510416666666667,0,0,0.006510416666666667,32.005208333333336,0)" xlink:href="#aa"/></g><path fill="#188fff" d="M739-1436c0 71-43 115-106 115-71 0-107-38-107-115 0-76 36-114 107-114s106 38 106 114zM541-954l-269-21v-123h451v955l352 20V0H197v-123l344-20v-811" id="ab"/><path fill="#188fff" d="M498 0L82-1098h188l240 652c57 154 90 262 100 325h6c67-256 244-708 340-977h189L729 0H498" id="ac"/><path fill="#188fff" d="M532-1413l-268-21v-122h451v1413l352 20V0H188v-123l344-20v-1270" id="ad"/><g id="j"><use transform="matrix(0.006510416666666667,0,0,0.006510416666666667,0,0)" xlink:href="#ab"/><use transform="matrix(0.006510416666666667,0,0,0.006510416666666667,8.001302083333334,0)" xlink:href="#T"/><use transform="matrix(0.006510416666666667,0,0,0.006510416666666667,16.002604166666668,0)" xlink:href="#Z"/><use transform="matrix(0.006510416666666667,0,0,0.006510416666666667,24.00390625,0)" xlink:href="#Q"/><use transform="matrix(0.006510416666666667,0,0,0.006510416666666667,32.005208333333336,0)" xlink:href="#P"/><use transform="matrix(0.006510416666666667,0,0,0.006510416666666667,40.00651041666667,0)" xlink:href="#ac"/><use transform="matrix(0.006510416666666667,0,0,0.006510416666666667,48.00781250000001,0)" xlink:href="#Y"/><use transform="matrix(0.006510416666666667,0,0,0.006510416666666667,56.00911458333335,0)" xlink:href="#ad"/></g><path fill="#282c33" d="M1147-745C1147-274 901 1 436 0H135v-1462h342c429-3 670 280 670 717zm-825-558v1143h96c355 0 532-193 532-579 0-376-164-564-493-564H322" id="ae"/><path fill="#282c33" d="M596-1118c288 2 430 92 430 366V0H895l-37-152h-8C752-34 680 17 483 20 272 23 135-98 135-307c0-221 170-337 510-348l203-7c15-197-55-305-244-305-98 0-207 27-328 82l-63-137c131-64 258-96 383-96zm-72 991c194 0 325-116 322-311v-99c-251 15-522-6-522 232 0 119 67 178 200 178" id="af"/><g id="k"><use transform="matrix(0.008789062499999997,0,0,0.008789062499999997,0,0)" xlink:href="#ae"/><use transform="matrix(0.008789062499999997,0,0,0.008789062499999997,10.801757812499996,0)" xlink:href="#u"/><use transform="matrix(0.008789062499999997,0,0,0.008789062499999997,21.603515624999993,0)" xlink:href="#af"/><use transform="matrix(0.008789062499999997,0,0,0.008789062499999997,32.405273437499986,0)" xlink:href="#r"/></g><path fill="#282c33" d="M233 0v-1462h187v1296h635V0H233" id="ag"/><path fill="#282c33" d="M1020-150v138C933 9 849 20 768 20 527 20 406-95 406-324v-637H139v-94l267-49 77-287h105v293h438v137H588v637c0 130 64 195 192 195 62 0 142-7 240-21" id="ah"/><g id="l"><use transform="matrix(0.008789062499999997,0,0,0.008789062499999997,0,0)" xlink:href="#ag"/><use transform="matrix(0.008789062499999997,0,0,0.008789062499999997,10.801757812499996,0)" xlink:href="#u"/><use transform="matrix(0.008789062499999997,0,0,0.008789062499999997,21.603515624999993,0)" xlink:href="#ah"/><use transform="matrix(0.008789062499999997,0,0,0.008789062499999997,32.405273437499986,0)" xlink:href="#ah"/><use transform="matrix(0.008789062499999997,0,0,0.008789062499999997,43.207031249999986,0)" xlink:href="#u"/><use transform="matrix(0.008789062499999997,0,0,0.008789062499999997,54.008789062499986,0)" xlink:href="#p"/></g><path fill="#282c33" d="M707 0H520v-1298H102v-164h1022v164H707V0" id="ai"/><path fill="#282c33" d="M1092-551c0 322-136 571-430 571-138 0-245-53-322-159h-12c24 220 7 402 12 631H158v-1590h147l27 148h8c73-112 181-168 322-168 294 0 430 246 430 567zM629-967c-241 0-288 156-289 416 0 151 24 259 70 323s120 97 221 97c181 0 272-141 272-422 0-276-91-414-274-414" id="aj"/><path fill="#282c33" d="M739-1436c0 71-43 115-106 115-71 0-107-38-107-115 0-76 36-114 107-114s106 38 106 114zM541-954l-269-21v-123h451v955l352 20V0H197v-123l344-20v-811" id="ak"/><g id="m"><use transform="matrix(0.008789062499999997,0,0,0.008789062499999997,0,0)" xlink:href="#ai"/><use transform="matrix(0.008789062499999997,0,0,0.008789062499999997,10.801757812499996,0)" xlink:href="#q"/><use transform="matrix(0.008789062499999997,0,0,0.008789062499999997,21.603515624999993,0)" xlink:href="#aj"/><use transform="matrix(0.008789062499999997,0,0,0.008789062499999997,32.405273437499986,0)" xlink:href="#ak"/><use transform="matrix(0.008789062499999997,0,0,0.008789062499999997,43.207031249999986,0)" xlink:href="#t"/></g><path fill="#188fff" d="M510-563l-393-535h207l290 410 291-410h207L717-563 1130 0H924L614-436 303 0H96" id="al"/><path fill="#188fff" d="M373-604V0H186v-1462h357c347 0 520 138 520 415 0 191-96 322-289 392L1171 0H952L602-604H373zm497-434c0-207-118-263-338-265H373v541h164c215-1 333-70 333-276" id="am"/><path fill="#188fff" d="M137-547c0-322 136-571 430-571 137 0 245 53 322 160h12c-24-215-7-376-12-598h182V0H924l-27-147h-8C814-36 706 20 567 20c-294 0-430-246-430-567zm463 416c241 0 288-157 289-416 0-151-23-259-69-323s-121-97-222-97c-181 0-272 141-272 422 0 276 91 414 274 414" id="an"/><path fill="#188fff" d="M326-731c0 353 139 584 471 588 87 0 196-19 327-58v162c-97 39-217 59-358 59-433-1-637-301-637-753 0-438 243-750 668-750 147 0 274 29 383 86l-78 156c-103-52-204-78-305-78-307 1-471 259-471 588" id="ao"/><g id="n"><use transform="matrix(0.006510416666666667,0,0,0.006510416666666667,0,0)" xlink:href="#W"/><use transform="matrix(0.006510416666666667,0,0,0.006510416666666667,8.001302083333334,0)" xlink:href="#Y"/><use transform="matrix(0.006510416666666667,0,0,0.006510416666666667,16.002604166666668,0)" xlink:href="#al"/><use transform="matrix(0.006510416666666667,0,0,0.006510416666666667,24.00390625,0)" xlink:href="#am"/><use transform="matrix(0.006510416666666667,0,0,0.006510416666666667,32.005208333333336,0)" xlink:href="#Q"/><use transform="matrix(0.006510416666666667,0,0,0.006510416666666667,40.00651041666667,0)" xlink:href="#an"/><use transform="matrix(0.006510416666666667,0,0,0.006510416666666667,48.00781250000001,0)" xlink:href="#Q"/><use transform="matrix(0.006510416666666667,0,0,0.006510416666666667,56.00911458333335,0)" xlink:href="#ad"/><use transform="matrix(0.006510416666666667,0,0,0.006510416666666667,64.01041666666667,0)" xlink:href="#ab"/><use transform="matrix(0.006510416666666667,0,0,0.006510416666666667,72.01171875,0)" xlink:href="#ac"/><use transform="matrix(0.006510416666666667,0,0,0.006510416666666667,80.01302083333333,0)" xlink:href="#Q"/><use transform="matrix(0.006510416666666667,0,0,0.006510416666666667,88.01432291666666,0)" xlink:href="#P"/><use transform="matrix(0.006510416666666667,0,0,0.006510416666666667,96.01562499999999,0)" xlink:href="#ao"/><use transform="matrix(0.006510416666666667,0,0,0.006510416666666667,104.01692708333331,0)" xlink:href="#S"/><use transform="matrix(0.006510416666666667,0,0,0.006510416666666667,112.01822916666664,0)" xlink:href="#V"/><use transform="matrix(0.006510416666666667,0,0,0.006510416666666667,120.01953124999999,0)" xlink:href="#T"/><use transform="matrix(0.006510416666666667,0,0,0.006510416666666667,128.02083333333331,0)" xlink:href="#Z"/></g></defs></g></svg>