<svg xmlns="http://www.w3.org/2000/svg" xmlns:xlink="http://www.w3.org/1999/xlink" xmlns:lucid="lucid" width="1775.69" height="683.22"><g transform="translate(-62.3120659722222 -230.00000000000006)" lucid:page-tab-id="0_0"><path d="M0 0h1870.87v1322.83H0z" fill="#fff"/><path d="M910 745.05h548.33V829H910z" fill="#fff"/><use xlink:href="#a" transform="matrix(1,0,0,1,914.9999999999999,750.0485185185184) translate(0 28.878038194444446)"/><use xlink:href="#b" transform="matrix(1,0,0,1,914.9999999999999,750.0485185185184) translate(56.00911458333334 28.878038194444446)"/><use xlink:href="#c" transform="matrix(1,0,0,1,914.9999999999999,750.0485185185184) translate(149.3576388888889 28.878038194444446)"/><use xlink:href="#d" transform="matrix(1,0,0,1,914.9999999999999,750.0485185185184) translate(205.36675347222226 28.878038194444446)"/><use xlink:href="#e" transform="matrix(1,0,0,1,914.9999999999999,750.0485185185184) translate(298.7152777777778 28.878038194444446)"/><path d="M745.67 522a6 6 0 0 1 6-6h332.66a6 6 0 0 1 6 6v178a6 6 0 0 1-6 6H751.67a6 6 0 0 1-6-6z" fill="#fff"/><path d="M771.96 516.07h18.2m12.13 0h18.18m12.13 0l18.2-.02m12.14 0h18.2m12.13 0h18.2m12.13 0l18.2-.02m12.12 0h18.2m12.13 0h18.2m12.13 0l18.2-.02m12.13 0h18.2m12.14 0h9.1l.93.07.92.22.86.35.8.5.72.6.6.72.5.8.36.88.22.9v8.96m0 11.94l.02 17.9m0 11.92v17.9m0 11.92l.02 17.9m0 11.93v17.9m.02 11.93v17.9m0 11.92V700l-.06.94-.22.9-.36.88-.5.8-.6.72-.72.6-.8.5-.87.37-.93.23h-9.1m-12.13 0h-18.2m-12.13 0h-18.18m-12.13 0l-18.2.02m-12.14 0h-18.2m-12.13 0h-18.2m-12.13 0l-18.2.02m-12.12 0h-18.2m-12.13 0h-18.2m-12.13 0l-18.2.02m-12.13 0h-18.2m-12.14 0h-9.1l-.93-.07-.92-.22-.86-.35-.8-.5-.72-.6-.6-.72-.5-.8-.36-.88-.22-.9v-8.96m0-11.94l-.02-17.9m0-11.92v-17.9m0-11.92l-.02-17.9m0-11.93v-17.9m-.02-11.93v-17.9m0-11.92V522l.06-.94.22-.9.36-.88.5-.8.6-.72.72-.6.8-.5.87-.37.93-.23h9.1" stroke="#5e5e5e" stroke-width="6" fill="none"/><use xlink:href="#f" transform="matrix(1,0,0,1,750.6666666666666,521) translate(140.82899305555554 99.37717013888889)"/><path d="M303.33 432a6 6 0 0 1 6-6H642a6 6 0 0 1 6 6v268a6 6 0 0 1-6 6H309.33a6 6 0 0 1-6-6z" fill="#fff"/><path d="M329.62 426.07h18.2m12.13 0h18.2m12.13 0l18.2-.02m12.13 0h18.2m12.14 0h18.2m12.12 0l18.2-.02m12.13 0h18.2m12.12 0h18.2m12.13 0l18.2-.02m12.12 0h18.2m12.13 0h9.1l.94.07.9.22.88.35.8.5.72.6.6.72.5.8.37.88.23.9v8.98m0 11.95v17.93m0 11.96v17.93m.02 11.94v17.93m0 11.96v17.92m0 11.96l.02 17.94m0 11.95v17.92m0 11.95l.02 17.93m0 11.95v17.93m0 11.96V700l-.07.94-.22.9-.35.88-.5.8-.6.72-.72.6-.8.5-.88.37-.9.23h-9.1m-12.14 0h-18.2m-12.12 0h-18.2m-12.13 0l-18.2.02m-12.12 0h-18.2m-12.13 0h-18.2m-12.13 0l-18.2.02m-12.13 0h-18.2m-12.13 0h-18.18m-12.13 0l-18.2.02m-12.14 0h-18.2m-12.13 0h-9.1l-.94-.07-.92-.22-.87-.35-.8-.5-.7-.6-.62-.72-.5-.8-.35-.88-.22-.9v-8.98m0-11.95V662.1m0-11.96V632.2m0-11.94l-.02-17.93m0-11.96v-17.92m0-11.96l-.02-17.94m0-11.95V512.7m0-11.95V482.8m-.02-11.95v-17.93m0-11.96V432l.07-.94.23-.9.36-.88.48-.8.6-.72.73-.6.8-.5.88-.37.9-.23h9.1" stroke="#5e5e5e" stroke-width="6" fill="none"/><use xlink:href="#f" transform="matrix(1,0,0,1,308.33333333333326,431) translate(140.82899305555554 142.97092013888889)"/><path d="M1188 612a6 6 0 0 1 6-6h328a6 6 0 0 1 6 6v88a6 6 0 0 1-6 6h-328a6 6 0 0 1-6-6z" fill="#fff"/><path d="M1214 606.07h17.94m11.96 0h17.94m11.96 0l17.94-.02m11.96 0h17.95m11.96 0h17.95m11.96 0l17.95-.02m11.96 0h17.96m11.96 0h17.94m11.96 0l17.94-.02m11.97 0h17.94m11.96 0h8.97l.94.07.9.22.88.35.8.5.72.6.6.72.5.8.37.88.23.9v8.9m0 11.86l.03 17.8m0 11.86l.02 17.8m0 11.85l.02 8.9-.07.94-.22.9-.35.88-.5.8-.6.72-.72.6-.8.5-.88.37-.9.23h-8.98m-11.96 0h-17.94m-11.96 0h-17.94m-11.96 0l-17.94.02m-11.96 0h-17.95m-11.96 0h-17.95m-11.96 0l-17.95.02m-11.96 0h-17.96m-11.96 0h-17.94m-11.96 0l-17.94.02m-11.97 0h-17.94m-11.96 0H1194l-.94-.07-.9-.22-.88-.35-.8-.5-.72-.6-.6-.72-.5-.8-.37-.88-.23-.9v-8.9m0-11.86l-.03-17.8m0-11.86l-.02-17.8m0-11.85l-.02-8.9.07-.94.22-.9.35-.88.5-.8.6-.72.72-.6.8-.5.88-.37.9-.23h8.98" stroke="#5e5e5e" stroke-width="6" fill="none"/><use xlink:href="#f" transform="matrix(1,0,0,1,1193,611) translate(138.32899305555554 51.564670138888886)"/><g stroke="#0c7cba" stroke-width="9"><path d="M368 363c0-20.43 49.25-37 110-37s110 16.57 110 37v296c0 20.43-49.25 37-110 37s-110-16.57-110-37z" fill="#fff"/><path d="M588 363c0 20.43-49.25 37-110 37s-110-16.57-110-37" fill="none"/></g><path d="M756 848h300v45.22H756z" fill="url(#g)"/><use xlink:href="#h" transform="matrix(1,0,0,1,761,853) translate(0 28.878038194444446)"/><g stroke="#0c7cba" stroke-width="9"><path d="M808 363c0-20.43 49.25-37 110-37s110 16.57 110 37v296c0 20.43-49.25 37-110 37s-110-16.57-110-37z" fill="#fff"/><path d="M1028 363c0 20.43-49.25 37-110 37s-110-16.57-110-37" fill="none"/></g><g stroke="#0c7cba" stroke-width="9"><path d="M1248 363c0-20.43 49.25-37 110-37s110 16.57 110 37v296c0 20.43-49.25 37-110 37s-110-16.57-110-37z" fill="#fff"/><path d="M1468 363c0 20.43-49.25 37-110 37s-110-16.57-110-37" fill="none"/></g><path d="M270 466h1316M270.05 466H268M1585.95 466h2.05" stroke="#de5f85" stroke-width="4" fill="none"/><path d="M108 437a6 6 0 0 1 6-6h128a6 6 0 0 1 6 6v263a6 6 0 0 1-6 6H114a6 6 0 0 1-6-6z" fill="none"/><path d="M248 706c-5.52 0-10-4.48-10-10V578.5c0-5.52-4.48-10-10-10 5.52 0 10-4.48 10-10V441c0-5.52 4.48-10 10-10" stroke="#5e5e5e" stroke-width="6" fill="none"/><use xlink:href="#i" transform="matrix(1,0,0,1,113,436) translate(-12.018229166666686 105.54615162037037)"/><use xlink:href="#j" transform="matrix(1,0,0,1,113,436) translate(-30.6879340277778 143.27039930555557)"/><use xlink:href="#k" transform="matrix(1,0,0,1,113,436) translate(6.651475694444429 180.99464699074076)"/><path d="M389.34 464.5l33.32-37M389.37 464.48L388 466M422.63 427.52L424 426" stroke="#de5f85" stroke-width="4" fill="none"/><path d="M270 586h1316M270.05 586H268M1585.95 586h2.05" stroke="#a3d977" stroke-width="4" fill="none"/><path d="M429.34 464.5l33.32-37M429.37 464.48L428 466M462.63 427.52L464 426M469.34 464.5l33.32-37M469.37 464.48L468 466M502.63 427.52L504 426M509.34 464.5l33.32-37M509.37 464.48L508 466M542.63 427.52L544 426M549.32 464.5l16.7-19M549.35 464.46L548 466M565.98 445.54l1.35-1.54" stroke="#de5f85" stroke-width="4" fill="none"/><path d="M558.54 421.38l81.7-71.07" stroke="#de5f85" stroke-width="5" fill="none"/><path d="M560.05 423.02h-7.2l4.1-3.57z" stroke="#de5f85" stroke-width=".05" fill="#de5f85"/><path d="M652.9 339.3l-7.73 12.87-6.08-7z" stroke="#de5f85" stroke-width="5" fill="#de5f85"/><path d="M614 250h220v41.9H614z" fill="#fff"/><use xlink:href="#l" transform="matrix(1,0,0,1,619,255.00000000000006) translate(0 28.878038194444446)"/><use xlink:href="#e" transform="matrix(1,0,0,1,619,255.00000000000006) translate(0 66.60228587962963)"/><path d="M1602 590.67a6 6 0 0 1 6-6h68a6 6 0 0 1 6 6V700a6 6 0 0 1-6 6h-68a6 6 0 0 1-6-6z" fill="none"/><path d="M1602 706c4.2 0 7.58-3.4 7.58-7.58v-45.5c0-4.2 3.4-7.6 7.6-7.6-4.2 0-7.6-3.38-7.6-7.57v-45.5c0-4.2-3.4-7.58-7.58-7.58" stroke="#a3d977" stroke-width="6" fill="none"/><g><use xlink:href="#m" transform="matrix(1,0,0,1,1629.75,589.6666666666665) translate(0 29.04615162037037)"/><use xlink:href="#n" transform="matrix(1,0,0,1,1629.75,589.6666666666665) translate(0 66.77039930555556)"/><use xlink:href="#o" transform="matrix(1,0,0,1,1629.75,589.6666666666665) translate(0 104.49464699074075)"/></g><path d="M1602 468a6 6 0 0 1 6-6h68a6 6 0 0 1 6 6v105.33a6 6 0 0 1-6 6h-68a6 6 0 0 1-6-6z" fill="none"/><path d="M1602 579.33c4.05 0 7.33-3.28 7.33-7.33v-44c0-4.05 3.3-7.33 7.34-7.33-4.05 0-7.34-3.3-7.34-7.34v-44c0-4.05-3.28-7.33-7.33-7.33" stroke="#de5f85" stroke-width="6" fill="none"/><g><use xlink:href="#p" transform="matrix(1,0,0,1,1629,467) translate(0 28.878038194444446)"/><use xlink:href="#q" transform="matrix(1,0,0,1,1629,467) translate(0 66.60228587962963)"/><use xlink:href="#r" transform="matrix(1,0,0,1,1629,467) translate(0 104.32653356481482)"/></g><defs><path fill="#de5f85" d="M1092 0H877L297-1210h-8c32 442 13 766 18 1210H135v-1462h213L926-258h6c-25-469-9-747-14-1204h174V0" id="s"/><path fill="#de5f85" d="M1112-551c0 331-186 571-502 571-301 0-495-251-495-571 0-330 184-567 501-567 302 0 496 249 496 567zM614-131c207 0 310-140 310-420 0-277-104-416-312-416-206 0-309 139-309 416 0 280 104 420 311 420" id="t"/><g id="a"><use transform="matrix(0.015190972222222224,0,0,0.015190972222222224,0,0)" xlink:href="#s"/><use transform="matrix(0.015190972222222224,0,0,0.015190972222222224,18.669704861111114,0)" xlink:href="#t"/></g><path fill="#de5f85" d="M887 0v-707c0-173-79-260-238-260-205 0-307 133-307 398V0H160v-1098h147l27 148h10c69-112 181-168 336-168 259 0 389 134 389 401V0H887" id="u"/><path fill="#de5f85" d="M631-1118c283 0 470 204 465 491v113H322c5 250 120 375 344 375 130 0 253-25 370-76v160C925-5 804 20 672 20c-329 0-539-224-539-561 0-331 182-577 498-577zM326-662h573c0-203-91-305-272-305-183 0-284 102-301 305" id="v"/><path fill="#de5f85" d="M137-547c0-322 136-571 430-571 137 0 245 53 322 160h12c-24-215-7-376-12-598h182V0H924l-27-147h-8C814-36 706 20 567 20c-294 0-430-246-430-567zm463 416c241 0 288-157 289-416 0-151-23-259-69-323s-121-97-222-97c-181 0-272 141-272 422 0 276 91 414 274 414" id="w"/><g id="b"><use transform="matrix(0.015190972222222224,0,0,0.015190972222222224,0,0)" xlink:href="#u"/><use transform="matrix(0.015190972222222224,0,0,0.015190972222222224,18.669704861111114,0)" xlink:href="#v"/><use transform="matrix(0.015190972222222224,0,0,0.015190972222222224,37.33940972222223,0)" xlink:href="#v"/><use transform="matrix(0.015190972222222224,0,0,0.015190972222222224,56.00911458333334,0)" xlink:href="#w"/></g><path fill="#de5f85" d="M1020-150v138C933 9 849 20 768 20 527 20 406-95 406-324v-637H139v-94l267-49 77-287h105v293h438v137H588v637c0 130 64 195 192 195 62 0 142-7 240-21" id="x"/><g id="c"><use transform="matrix(0.015190972222222224,0,0,0.015190972222222224,0,0)" xlink:href="#x"/><use transform="matrix(0.015190972222222224,0,0,0.015190972222222224,18.669704861111114,0)" xlink:href="#t"/></g><path fill="#de5f85" d="M1026-301c0 225-197 321-448 321-165 0-290-23-375-69v-166c129 57 252 86 370 86 183 0 275-54 275-162 0-38-16-71-49-99s-108-63-226-106c-156-57-253-112-293-160s-61-105-61-171c2-338 524-340 789-217l-60 149c-121-48-228-72-319-72-157 0-236 44-236 133 0 41 17 74 51 98s111 57 232 101c141 51 234 101 280 151s70 111 70 183" id="y"/><path fill="#de5f85" d="M887 0v-707c0-173-79-260-238-260-205 0-307 133-307 398V0H160v-1556h182c-2 202 6 416-8 606h10c69-112 181-168 336-168 259 0 389 134 389 401V0H887" id="z"/><g id="d"><use transform="matrix(0.015190972222222224,0,0,0.015190972222222224,0,0)" xlink:href="#y"/><use transform="matrix(0.015190972222222224,0,0,0.015190972222222224,18.669704861111114,0)" xlink:href="#z"/><use transform="matrix(0.015190972222222224,0,0,0.015190972222222224,37.33940972222223,0)" xlink:href="#v"/><use transform="matrix(0.015190972222222224,0,0,0.015190972222222224,56.00911458333334,0)" xlink:href="#w"/></g><path fill="#de5f85" d="M1092-551c0 322-136 571-430 571-138 0-245-53-322-159h-12L291 0H158v-1556h182c-2 221 6 379-8 602h8c71-109 179-164 322-164 294 0 430 246 430 567zM629-967c-241 0-289 146-289 416 0 151 24 259 70 323s120 97 221 97c181 0 272-141 272-422 0-276-91-414-274-414" id="A"/><path fill="#de5f85" d="M578-131c239 0 309-137 309-397v-570h182V0H922l-27-147h-10C815-36 704 20 551 20c-261 0-391-134-391-401v-717h182v707c0 173 79 260 236 260" id="B"/><path fill="#de5f85" d="M532-1413l-268-21v-122h451v1413l352 20V0H188v-123l344-20v-1270" id="C"/><g id="e"><use transform="matrix(0.015190972222222224,0,0,0.015190972222222224,0,0)" xlink:href="#A"/><use transform="matrix(0.015190972222222224,0,0,0.015190972222222224,18.669704861111114,0)" xlink:href="#B"/><use transform="matrix(0.015190972222222224,0,0,0.015190972222222224,37.33940972222223,0)" xlink:href="#u"/><use transform="matrix(0.015190972222222224,0,0,0.015190972222222224,56.00911458333334,0)" xlink:href="#w"/><use transform="matrix(0.015190972222222224,0,0,0.015190972222222224,74.67881944444446,0)" xlink:href="#C"/><use transform="matrix(0.015190972222222224,0,0,0.015190972222222224,93.34852430555557,0)" xlink:href="#v"/><use transform="matrix(0.015190972222222224,0,0,0.015190972222222224,112.01822916666669,0)" xlink:href="#y"/></g><path fill="#333" d="M707 0H520v-1298H102v-164h1022v164H707V0" id="D"/><path fill="#333" d="M631-1118c283 0 470 204 465 491v113H322c5 250 120 375 344 375 130 0 253-25 370-76v160C925-5 804 20 672 20c-329 0-539-224-539-561 0-331 182-577 498-577zM326-662h573c0-203-91-305-272-305-183 0-284 102-301 305" id="E"/><path fill="#333" d="M510-563l-393-535h207l290 410 291-410h207L717-563 1130 0H924L614-436 303 0H96" id="F"/><path fill="#333" d="M1020-150v138C933 9 849 20 768 20 527 20 406-95 406-324v-637H139v-94l267-49 77-287h105v293h438v137H588v637c0 130 64 195 192 195 62 0 142-7 240-21" id="G"/><g id="f"><use transform="matrix(0.010850694444444444,0,0,0.010850694444444444,0,0)" xlink:href="#D"/><use transform="matrix(0.010850694444444444,0,0,0.010850694444444444,13.335503472222221,0)" xlink:href="#E"/><use transform="matrix(0.010850694444444444,0,0,0.010850694444444444,26.671006944444443,0)" xlink:href="#F"/><use transform="matrix(0.010850694444444444,0,0,0.010850694444444444,40.006510416666664,0)" xlink:href="#G"/></g><linearGradient gradientUnits="userSpaceOnUse" id="g" x1="1056" y1="848" x2="1056" y2="893.22"><stop offset="0%" stop-color="#fff"/><stop offset="56.69%" stop-color="#c1e4f7"/><stop offset="100%" stop-color="#82c9ef"/></linearGradient><path fill="#24292e" d="M707 0H520v-1298H102v-164h1022v164H707V0" id="H"/><path fill="#24292e" d="M887 0v-707c0-173-79-260-238-260-205 0-307 133-307 398V0H160v-1556h182c-2 202 6 416-8 606h10c69-112 181-168 336-168 259 0 389 134 389 401V0H887" id="I"/><path fill="#24292e" d="M442-897c93-139 173-221 377-221 79 0 159 15 240 45l-49 166c-82-30-157-45-224-45-221 0-340 134-340 360V0H264v-1098h148l22 201h8" id="J"/><path fill="#24292e" d="M631-1118c283 0 470 204 465 491v113H322c5 250 120 375 344 375 130 0 253-25 370-76v160C925-5 804 20 672 20c-329 0-539-224-539-561 0-331 182-577 498-577zM326-662h573c0-203-91-305-272-305-183 0-284 102-301 305" id="K"/><path fill="#24292e" d="M1026-301c0 225-197 321-448 321-165 0-290-23-375-69v-166c129 57 252 86 370 86 183 0 275-54 275-162 0-38-16-71-49-99s-108-63-226-106c-156-57-253-112-293-160s-61-105-61-171c2-338 524-340 789-217l-60 149c-121-48-228-72-319-72-157 0-236 44-236 133 0 41 17 74 51 98s111 57 232 101c141 51 234 101 280 151s70 111 70 183" id="L"/><path fill="#24292e" d="M1112-551c0 331-186 571-502 571-301 0-495-251-495-571 0-330 184-567 501-567 302 0 496 249 496 567zM614-131c207 0 310-140 310-420 0-277-104-416-312-416-206 0-309 139-309 416 0 280 104 420 311 420" id="M"/><path fill="#24292e" d="M532-1413l-268-21v-122h451v1413l352 20V0H188v-123l344-20v-1270" id="N"/><path fill="#24292e" d="M137-547c0-322 136-571 430-571 137 0 245 53 322 160h12c-24-215-7-376-12-598h182V0H924l-27-147h-8C814-36 706 20 567 20c-294 0-430-246-430-567zm463 416c241 0 288-157 289-416 0-151-23-259-69-323s-121-97-222-97c-181 0-272 141-272 422 0 276 91 414 274 414" id="O"/><path fill="#24292e" d="M1087-391c0 281-226 411-532 411-177 0-315-23-414-69v-178c141 57 279 86 414 86 233 0 350-80 350-240 0-69-24-123-71-160s-142-82-285-133c-139-49-239-106-299-174s-90-156-90-264c2-252 211-371 481-371 153 0 291 26 416 78l-64 164c-129-52-249-78-360-78-195 0-293 70-293 209 0 68 22 123 66 164s134 85 270 133c164 58 273 119 328 181s83 143 83 241" id="P"/><g id="h"><use transform="matrix(0.015190972222222224,0,0,0.015190972222222224,0,0)" xlink:href="#H"/><use transform="matrix(0.015190972222222224,0,0,0.015190972222222224,18.669704861111114,0)" xlink:href="#I"/><use transform="matrix(0.015190972222222224,0,0,0.015190972222222224,37.33940972222223,0)" xlink:href="#J"/><use transform="matrix(0.015190972222222224,0,0,0.015190972222222224,56.00911458333334,0)" xlink:href="#K"/><use transform="matrix(0.015190972222222224,0,0,0.015190972222222224,74.67881944444446,0)" xlink:href="#L"/><use transform="matrix(0.015190972222222224,0,0,0.015190972222222224,93.34852430555557,0)" xlink:href="#I"/><use transform="matrix(0.015190972222222224,0,0,0.015190972222222224,112.01822916666669,0)" xlink:href="#M"/><use transform="matrix(0.015190972222222224,0,0,0.015190972222222224,130.6879340277778,0)" xlink:href="#N"/><use transform="matrix(0.015190972222222224,0,0,0.015190972222222224,149.3576388888889,0)" xlink:href="#O"/><use transform="matrix(0.015190972222222224,0,0,0.015190972222222224,168.02734375000003,0)" xlink:href="#P"/><use transform="matrix(0.015190972222222224,0,0,0.015190972222222224,186.69704861111114,0)" xlink:href="#I"/><use transform="matrix(0.015190972222222224,0,0,0.015190972222222224,205.36675347222226,0)" xlink:href="#K"/><use transform="matrix(0.015190972222222224,0,0,0.015190972222222224,224.03645833333337,0)" xlink:href="#O"/><use transform="matrix(0.015190972222222224,0,0,0.015190972222222224,242.70616319444449,0)" xlink:href="#O"/><use transform="matrix(0.015190972222222224,0,0,0.015190972222222224,261.3758680555556,0)" xlink:href="#K"/><use transform="matrix(0.015190972222222224,0,0,0.015190972222222224,280.04557291666674,0)" xlink:href="#J"/></g><path fill="#5e5e5e" d="M1137-424C1137-153 941 0 662 0H135v-1462c284 7 685-30 837 88 80 62 124 152 124 282 0 179-125 297-291 316v10c221 36 332 150 332 342zm-232-655c0-182-120-224-319-224H322v461h284c195-2 299-53 299-237zM322-686v528h307c207 0 311-91 311-274 0-169-108-254-324-254H322" id="Q"/><path fill="#5e5e5e" d="M442-897c93-139 173-221 377-221 79 0 159 15 240 45l-49 166c-82-30-157-45-224-45-221 0-340 134-340 360V0H264v-1098h148l22 201h8" id="R"/><path fill="#5e5e5e" d="M1112-551c0 331-186 571-502 571-301 0-495-251-495-571 0-330 184-567 501-567 302 0 496 249 496 567zM614-131c207 0 310-140 310-420 0-277-104-416-312-416-206 0-309 139-309 416 0 280 104 420 311 420" id="S"/><path fill="#5e5e5e" d="M383-553l135-152 395-393h222L641-623 1163 0H950L524-504l-129 82V0H215v-1556h180c-3 337 9 689-16 1003h4" id="T"/><path fill="#5e5e5e" d="M631-1118c283 0 470 204 465 491v113H322c5 250 120 375 344 375 130 0 253-25 370-76v160C925-5 804 20 672 20c-329 0-539-224-539-561 0-331 182-577 498-577zM326-662h573c0-203-91-305-272-305-183 0-284 102-301 305" id="U"/><g id="i"><use transform="matrix(0.015190972222222224,0,0,0.015190972222222224,0,0)" xlink:href="#Q"/><use transform="matrix(0.015190972222222224,0,0,0.015190972222222224,18.669704861111114,0)" xlink:href="#R"/><use transform="matrix(0.015190972222222224,0,0,0.015190972222222224,37.33940972222223,0)" xlink:href="#S"/><use transform="matrix(0.015190972222222224,0,0,0.015190972222222224,56.00911458333334,0)" xlink:href="#T"/><use transform="matrix(0.015190972222222224,0,0,0.015190972222222224,74.67881944444446,0)" xlink:href="#U"/><use transform="matrix(0.015190972222222224,0,0,0.015190972222222224,93.34852430555557,0)" xlink:href="#R"/></g><path fill="#5e5e5e" d="M596-1118c288 2 430 92 430 366V0H895l-37-152h-8C752-34 680 17 483 20 272 23 135-98 135-307c0-221 170-337 510-348l203-7c15-197-55-305-244-305-98 0-207 27-328 82l-63-137c131-64 258-96 383-96zm-72 991c194 0 325-116 322-311v-99c-251 15-522-6-522 232 0 119 67 178 200 178" id="V"/><path fill="#5e5e5e" d="M498 0L82-1098h188l240 652c57 154 90 262 100 325h6c67-256 244-708 340-977h189L729 0H498" id="W"/><path fill="#5e5e5e" d="M188-739c-1-248 156-381 410-379 57 0 107 7 150 20h378v113l-196 27c43 57 65 128 65 213 2 253-212 385-489 346-67 37-100 82-100 133 0 56 54 84 161 84h187c216-2 358 93 358 297 0 251-188 377-565 377-145 0-255-26-331-80S102 283 102 186c0-141 80-231 240-270-64-31-96-83-96-154 0-75 44-139 133-192-109-41-191-166-191-309zm406 221c149 0 223-77 223-230 0-159-75-239-225-239s-225 81-225 242c0 151 76 227 227 227zm346 649c0-146-78-149-248-149H504c-153 0-230 66-230 198 0 116 90 174 271 174 263 0 395-74 395-223" id="X"/><g id="j"><use transform="matrix(0.015190972222222224,0,0,0.015190972222222224,0,0)" xlink:href="#V"/><use transform="matrix(0.015190972222222224,0,0,0.015190972222222224,18.669704861111114,0)" xlink:href="#W"/><use transform="matrix(0.015190972222222224,0,0,0.015190972222222224,37.33940972222223,0)" xlink:href="#U"/><use transform="matrix(0.015190972222222224,0,0,0.015190972222222224,56.00911458333334,0)" xlink:href="#R"/><use transform="matrix(0.015190972222222224,0,0,0.015190972222222224,74.67881944444446,0)" xlink:href="#V"/><use transform="matrix(0.015190972222222224,0,0,0.015190972222222224,93.34852430555557,0)" xlink:href="#X"/><use transform="matrix(0.015190972222222224,0,0,0.015190972222222224,112.01822916666669,0)" xlink:href="#U"/></g><path fill="#5e5e5e" d="M578-131c239 0 309-137 309-397v-570h182V0H922l-27-147h-10C815-36 704 20 551 20c-261 0-391-134-391-401v-717h182v707c0 173 79 260 236 260" id="Y"/><path fill="#5e5e5e" d="M1026-301c0 225-197 321-448 321-165 0-290-23-375-69v-166c129 57 252 86 370 86 183 0 275-54 275-162 0-38-16-71-49-99s-108-63-226-106c-156-57-253-112-293-160s-61-105-61-171c2-338 524-340 789-217l-60 149c-121-48-228-72-319-72-157 0-236 44-236 133 0 41 17 74 51 98s111 57 232 101c141 51 234 101 280 151s70 111 70 183" id="Z"/><g id="k"><use transform="matrix(0.015190972222222224,0,0,0.015190972222222224,0,0)" xlink:href="#Y"/><use transform="matrix(0.015190972222222224,0,0,0.015190972222222224,18.669704861111114,0)" xlink:href="#Z"/><use transform="matrix(0.015190972222222224,0,0,0.015190972222222224,37.33940972222223,0)" xlink:href="#V"/><use transform="matrix(0.015190972222222224,0,0,0.015190972222222224,56.00911458333334,0)" xlink:href="#X"/><use transform="matrix(0.015190972222222224,0,0,0.015190972222222224,74.67881944444446,0)" xlink:href="#U"/></g><path fill="#de5f85" d="M1087-391c0 281-226 411-532 411-177 0-315-23-414-69v-178c141 57 279 86 414 86 233 0 350-80 350-240 0-69-24-123-71-160s-142-82-285-133c-139-49-239-106-299-174s-90-156-90-264c2-252 211-371 481-371 153 0 291 26 416 78l-64 164c-129-52-249-78-360-78-195 0-293 70-293 209 0 68 22 123 66 164s134 85 270 133c164 58 273 119 328 181s83 143 83 241" id="aa"/><g id="l"><use transform="matrix(0.015190972222222224,0,0,0.015190972222222224,0,0)" xlink:href="#aa"/><use transform="matrix(0.015190972222222224,0,0,0.015190972222222224,18.669704861111114,0)" xlink:href="#z"/><use transform="matrix(0.015190972222222224,0,0,0.015190972222222224,37.33940972222223,0)" xlink:href="#v"/><use transform="matrix(0.015190972222222224,0,0,0.015190972222222224,56.00911458333334,0)" xlink:href="#w"/></g><path fill="#7ab648" d="M326-731c0 353 139 584 471 588 87 0 196-19 327-58v162c-97 39-217 59-358 59-433-1-637-301-637-753 0-438 243-750 668-750 147 0 274 29 383 86l-78 156c-103-52-204-78-305-78-307 1-471 259-471 588" id="ab"/><path fill="#7ab648" d="M532-1413l-268-21v-122h451v1413l352 20V0H188v-123l344-20v-1270" id="ac"/><path fill="#7ab648" d="M578-131c239 0 309-137 309-397v-570h182V0H922l-27-147h-10C815-36 704 20 551 20c-261 0-391-134-391-401v-717h182v707c0 173 79 260 236 260" id="ad"/><path fill="#7ab648" d="M1026-301c0 225-197 321-448 321-165 0-290-23-375-69v-166c129 57 252 86 370 86 183 0 275-54 275-162 0-38-16-71-49-99s-108-63-226-106c-156-57-253-112-293-160s-61-105-61-171c2-338 524-340 789-217l-60 149c-121-48-228-72-319-72-157 0-236 44-236 133 0 41 17 74 51 98s111 57 232 101c141 51 234 101 280 151s70 111 70 183" id="ae"/><path fill="#7ab648" d="M1020-150v138C933 9 849 20 768 20 527 20 406-95 406-324v-637H139v-94l267-49 77-287h105v293h438v137H588v637c0 130 64 195 192 195 62 0 142-7 240-21" id="af"/><path fill="#7ab648" d="M631-1118c283 0 470 204 465 491v113H322c5 250 120 375 344 375 130 0 253-25 370-76v160C925-5 804 20 672 20c-329 0-539-224-539-561 0-331 182-577 498-577zM326-662h573c0-203-91-305-272-305-183 0-284 102-301 305" id="ag"/><path fill="#7ab648" d="M442-897c93-139 173-221 377-221 79 0 159 15 240 45l-49 166c-82-30-157-45-224-45-221 0-340 134-340 360V0H264v-1098h148l22 201h8" id="ah"/><g id="m"><use transform="matrix(0.015190972222222224,0,0,0.015190972222222224,0,0)" xlink:href="#ab"/><use transform="matrix(0.015190972222222224,0,0,0.015190972222222224,18.669704861111114,0)" xlink:href="#ac"/><use transform="matrix(0.015190972222222224,0,0,0.015190972222222224,37.33940972222223,0)" xlink:href="#ad"/><use transform="matrix(0.015190972222222224,0,0,0.015190972222222224,56.00911458333334,0)" xlink:href="#ae"/><use transform="matrix(0.015190972222222224,0,0,0.015190972222222224,74.67881944444446,0)" xlink:href="#af"/><use transform="matrix(0.015190972222222224,0,0,0.015190972222222224,93.34852430555557,0)" xlink:href="#ag"/><use transform="matrix(0.015190972222222224,0,0,0.015190972222222224,112.01822916666669,0)" xlink:href="#ah"/></g><path fill="#7ab648" d="M596-1118c288 2 430 92 430 366V0H895l-37-152h-8C752-34 680 17 483 20 272 23 135-98 135-307c0-221 170-337 510-348l203-7c15-197-55-305-244-305-98 0-207 27-328 82l-63-137c131-64 258-96 383-96zm-72 991c194 0 325-116 322-311v-99c-251 15-522-6-522 232 0 119 67 178 200 178" id="ai"/><path fill="#7ab648" d="M498 0L82-1098h188l240 652c57 154 90 262 100 325h6c67-256 244-708 340-977h189L729 0H498" id="aj"/><path fill="#7ab648" d="M188-739c-1-248 156-381 410-379 57 0 107 7 150 20h378v113l-196 27c43 57 65 128 65 213 2 253-212 385-489 346-67 37-100 82-100 133 0 56 54 84 161 84h187c216-2 358 93 358 297 0 251-188 377-565 377-145 0-255-26-331-80S102 283 102 186c0-141 80-231 240-270-64-31-96-83-96-154 0-75 44-139 133-192-109-41-191-166-191-309zm406 221c149 0 223-77 223-230 0-159-75-239-225-239s-225 81-225 242c0 151 76 227 227 227zm346 649c0-146-78-149-248-149H504c-153 0-230 66-230 198 0 116 90 174 271 174 263 0 395-74 395-223" id="ak"/><g id="n"><use transform="matrix(0.015190972222222224,0,0,0.015190972222222224,0,0)" xlink:href="#ai"/><use transform="matrix(0.015190972222222224,0,0,0.015190972222222224,18.669704861111114,0)" xlink:href="#aj"/><use transform="matrix(0.015190972222222224,0,0,0.015190972222222224,37.33940972222223,0)" xlink:href="#ag"/><use transform="matrix(0.015190972222222224,0,0,0.015190972222222224,56.00911458333334,0)" xlink:href="#ah"/><use transform="matrix(0.015190972222222224,0,0,0.015190972222222224,74.67881944444446,0)" xlink:href="#ai"/><use transform="matrix(0.015190972222222224,0,0,0.015190972222222224,93.34852430555557,0)" xlink:href="#ak"/><use transform="matrix(0.015190972222222224,0,0,0.015190972222222224,112.01822916666669,0)" xlink:href="#ag"/></g><g id="o"><use transform="matrix(0.015190972222222224,0,0,0.015190972222222224,0,0)" xlink:href="#ad"/><use transform="matrix(0.015190972222222224,0,0,0.015190972222222224,18.669704861111114,0)" xlink:href="#ae"/><use transform="matrix(0.015190972222222224,0,0,0.015190972222222224,37.33940972222223,0)" xlink:href="#ai"/><use transform="matrix(0.015190972222222224,0,0,0.015190972222222224,56.00911458333334,0)" xlink:href="#ak"/><use transform="matrix(0.015190972222222224,0,0,0.015190972222222224,74.67881944444446,0)" xlink:href="#ag"/></g><path fill="#de5f85" d="M707 0H520v-1298H102v-164h1022v164H707V0" id="al"/><path fill="#de5f85" d="M442-897c93-139 173-221 377-221 79 0 159 15 240 45l-49 166c-82-30-157-45-224-45-221 0-340 134-340 360V0H264v-1098h148l22 201h8" id="am"/><g id="p"><use transform="matrix(0.015190972222222224,0,0,0.015190972222222224,0,0)" xlink:href="#al"/><use transform="matrix(0.015190972222222224,0,0,0.015190972222222224,18.669704861111114,0)" xlink:href="#z"/><use transform="matrix(0.015190972222222224,0,0,0.015190972222222224,37.33940972222223,0)" xlink:href="#am"/><use transform="matrix(0.015190972222222224,0,0,0.015190972222222224,56.00911458333334,0)" xlink:href="#v"/><use transform="matrix(0.015190972222222224,0,0,0.015190972222222224,74.67881944444446,0)" xlink:href="#y"/><use transform="matrix(0.015190972222222224,0,0,0.015190972222222224,93.34852430555557,0)" xlink:href="#z"/><use transform="matrix(0.015190972222222224,0,0,0.015190972222222224,112.01822916666669,0)" xlink:href="#t"/><use transform="matrix(0.015190972222222224,0,0,0.015190972222222224,130.6879340277778,0)" xlink:href="#C"/><use transform="matrix(0.015190972222222224,0,0,0.015190972222222224,149.3576388888889,0)" xlink:href="#w"/></g><g id="q"><use transform="matrix(0.015190972222222224,0,0,0.015190972222222224,0,0)" xlink:href="#y"/><use transform="matrix(0.015190972222222224,0,0,0.015190972222222224,18.669704861111114,0)" xlink:href="#z"/><use transform="matrix(0.015190972222222224,0,0,0.015190972222222224,37.33940972222223,0)" xlink:href="#v"/><use transform="matrix(0.015190972222222224,0,0,0.015190972222222224,56.00911458333334,0)" xlink:href="#w"/><use transform="matrix(0.015190972222222224,0,0,0.015190972222222224,74.67881944444446,0)" xlink:href="#w"/><use transform="matrix(0.015190972222222224,0,0,0.015190972222222224,93.34852430555557,0)" xlink:href="#v"/><use transform="matrix(0.015190972222222224,0,0,0.015190972222222224,112.01822916666669,0)" xlink:href="#am"/></g><path fill="#de5f85" d="M1092-551c0 322-136 571-430 571-138 0-245-53-322-159h-12c24 220 7 402 12 631H158v-1590h147l27 148h8c73-112 181-168 322-168 294 0 430 246 430 567zM629-967c-241 0-288 156-289 416 0 151 24 259 70 323s120 97 221 97c181 0 272-141 272-422 0-276-91-414-274-414" id="an"/><path fill="#de5f85" d="M172-543c0-365 197-575 553-575 119 0 231 20 336 59l-62 158c-100-38-189-57-268-57-247 0-371 138-371 413 0 271 120 406 361 406 105 0 212-21 321-62v160C953 0 843 20 713 20c-347 1-541-210-541-563" id="ao"/><path fill="#de5f85" d="M596-1118c288 2 430 92 430 366V0H895l-37-152h-8C752-34 680 17 483 20 272 23 135-98 135-307c0-221 170-337 510-348l203-7c15-197-55-305-244-305-98 0-207 27-328 82l-63-137c131-64 258-96 383-96zm-72 991c194 0 325-116 322-311v-99c-251 15-522-6-522 232 0 119 67 178 200 178" id="ap"/><path fill="#de5f85" d="M188-739c-1-248 156-381 410-379 57 0 107 7 150 20h378v113l-196 27c43 57 65 128 65 213 2 253-212 385-489 346-67 37-100 82-100 133 0 56 54 84 161 84h187c216-2 358 93 358 297 0 251-188 377-565 377-145 0-255-26-331-80S102 283 102 186c0-141 80-231 240-270-64-31-96-83-96-154 0-75 44-139 133-192-109-41-191-166-191-309zm406 221c149 0 223-77 223-230 0-159-75-239-225-239s-225 81-225 242c0 151 76 227 227 227zm346 649c0-146-78-149-248-149H504c-153 0-230 66-230 198 0 116 90 174 271 174 263 0 395-74 395-223" id="aq"/><g id="r"><use transform="matrix(0.015190972222222224,0,0,0.015190972222222224,0,0)" xlink:href="#an"/><use transform="matrix(0.015190972222222224,0,0,0.015190972222222224,18.669704861111114,0)" xlink:href="#v"/><use transform="matrix(0.015190972222222224,0,0,0.015190972222222224,37.33940972222223,0)" xlink:href="#am"/><use transform="matrix(0.015190972222222224,0,0,0.015190972222222224,56.00911458333334,0)" xlink:href="#ao"/><use transform="matrix(0.015190972222222224,0,0,0.015190972222222224,74.67881944444446,0)" xlink:href="#v"/><use transform="matrix(0.015190972222222224,0,0,0.015190972222222224,93.34852430555557,0)" xlink:href="#u"/><use transform="matrix(0.015190972222222224,0,0,0.015190972222222224,112.01822916666669,0)" xlink:href="#x"/><use transform="matrix(0.015190972222222224,0,0,0.015190972222222224,130.6879340277778,0)" xlink:href="#ap"/><use transform="matrix(0.015190972222222224,0,0,0.015190972222222224,149.3576388888889,0)" xlink:href="#aq"/><use transform="matrix(0.015190972222222224,0,0,0.015190972222222224,168.02734375000003,0)" xlink:href="#v"/></g></defs></g></svg>