<svg xmlns="http://www.w3.org/2000/svg" xmlns:xlink="http://www.w3.org/1999/xlink" xmlns:lucid="lucid" width="1790.36" height="625.22"><g transform="translate(-47.53466670145326 -296.97158356613596)" lucid:page-tab-id="0_0"><path d="M0 0h1870.87v1322.83H0z" fill="#fff"/><path d="M949.9 796.02h561v83.94h-561z" fill="#fff"/><use xlink:href="#a" transform="matrix(1,0,0,1,954.8923055903423,801.0201020846545) translate(0 28.878038194444446)"/><use xlink:href="#b" transform="matrix(1,0,0,1,954.8923055903423,801.0201020846545) translate(56.00911458333334 28.878038194444446)"/><use xlink:href="#c" transform="matrix(1,0,0,1,954.8923055903423,801.0201020846545) translate(149.3576388888889 28.878038194444446)"/><use xlink:href="#d" transform="matrix(1,0,0,1,954.8923055903423,801.0201020846545) translate(205.36675347222226 28.878038194444446)"/><use xlink:href="#e" transform="matrix(1,0,0,1,954.8923055903423,801.0201020846545) translate(298.7152777777778 28.878038194444446)"/><path d="M747.56 592.97a6 6 0 0 1 6-6h332.67a6 6 0 0 1 6 6v178a6 6 0 0 1-6 6H753.56a6 6 0 0 1-6-6z" fill="#fff"/><path d="M773.85 587.04h18.2m12.13 0h18.2m12.13 0l18.2-.02m12.13 0h18.2m12.13 0h18.2m12.13 0l18.2-.02m12.12 0h18.2m12.12 0h18.2m12.13 0l18.2-.02m12.13 0h18.2m12.13 0h9.1l.93.07.92.22.87.36.8.5.72.6.6.7.5.82.36.87.22.9V601m0 11.93l.02 17.9m0 11.93v17.9m0 11.93l.02 17.9m0 11.92v17.9m0 11.92l.02 17.9m0 11.92v8.95l-.07.94-.22.93-.36.87-.5.8-.6.7-.72.63-.8.5-.87.35-.92.22h-9.1m-12.13 0h-18.2m-12.12 0h-18.2m-12.12.02h-18.2m-12.13 0h-18.2m-12.13 0h-18.2m-12.12.02h-18.2m-12.13 0h-18.2m-12.13 0h-18.2m-12.13.02h-18.18m-12.13 0h-18.2m-12.14 0h-9.1l-.94-.06-.92-.22-.86-.36-.8-.5-.72-.6-.62-.72-.5-.8-.35-.87-.22-.92v-8.94m0-11.93v-17.9m-.02-11.92v-17.88m0-11.93v-17.9m0-11.94l-.02-17.9m0-11.92v-17.9m-.02-11.92v-8.95l.07-.94.22-.9.36-.88.5-.8.62-.72.7-.6.82-.5.86-.36.92-.22h9.1" stroke="#5e5e5e" stroke-width="6" fill="none"/><use xlink:href="#f" transform="matrix(1,0,0,1,752.5589722570088,591.9715835661359) translate(140.82899305555554 99.37717013888889)"/><path d="M305.23 502.97a6 6 0 0 1 6-6H643.9a6 6 0 0 1 6 6v268a6 6 0 0 1-6 6H311.22a6 6 0 0 1-6-6z" fill="#fff"/><path d="M331.52 497.04h18.2m12.12 0h18.2m12.13 0l18.2-.02m12.13 0h18.2m12.13 0h18.2m12.13 0l18.2-.02m12.12 0h18.2m12.13 0H562m12.14 0l18.2-.02m12.13 0h18.2m12.12 0h9.1l.93.07.92.22.87.36.8.5.7.6.63.7.5.82.35.87.22.9V511m0 11.95v17.93m0 11.95l.02 17.93m0 11.95v17.94m0 11.96v17.93m.02 11.95v17.93m0 11.96v17.93m0 11.94l.02 17.93m0 11.95v17.93m0 11.96v8.97l-.06.94-.22.93-.36.87-.5.8-.6.7-.72.63-.8.5-.87.35-.92.22h-9.1m-12.13 0h-18.2m-12.13 0h-18.2m-12.12.02h-18.2m-12.13 0h-18.2m-12.13 0h-18.2m-12.14.02h-18.2m-12.13 0h-18.2m-12.12 0h-18.2m-12.12.02h-18.2m-12.13 0h-18.2m-12.13 0h-9.1l-.93-.06-.93-.22-.87-.36-.8-.5-.72-.6-.6-.72-.5-.8-.36-.87-.22-.92v-8.95m0-11.96v-17.94m0-11.95l-.02-17.92m0-11.95V673.3m0-11.95l-.02-17.93m0-11.96v-17.92m0-11.96v-17.93m-.02-11.95v-17.93m0-11.95V523.9m0-11.96v-8.97l.06-.94.22-.9.36-.88.5-.8.6-.72.72-.6.8-.5.87-.36.92-.22h9.1" stroke="#5e5e5e" stroke-width="6" fill="none"/><use xlink:href="#f" transform="matrix(1,0,0,1,310.22563892367543,501.9715835661359) translate(140.82899305555554 142.97092013888889)"/><path d="M1189.9 682.97a6 6 0 0 1 6-6h328a6 6 0 0 1 6 6v88a6 6 0 0 1-6 6h-328a6 6 0 0 1-6-6z" fill="#fff"/><path d="M1215.9 677.04h17.93m11.96 0h17.93m11.96 0l17.94-.02m11.96 0h17.94m11.96 0h17.94m11.96 0l17.95-.02m11.96 0h17.95m11.96 0h17.95m11.96 0l17.96-.02m11.96 0h17.94m11.96 0h8.97l.93.07.92.22.87.36.8.5.7.6.63.7.5.82.35.87.22.9v8.9m.02 11.87v17.77m.02 11.86l.02 17.8m0 11.85v8.9l-.06.93-.22.93-.36.87-.5.8-.6.7-.72.63-.8.5-.87.35-.92.22h-8.97m-11.96 0h-17.94m-11.97 0h-17.95m-11.96.02h-17.95m-11.96 0h-17.95m-11.97 0h-17.94m-11.96.02h-17.94m-11.96 0h-17.94m-11.97 0h-17.94m-11.96.02h-17.94m-11.96 0h-17.95m-11.96 0h-8.97l-.95-.06-.9-.22-.88-.36-.8-.5-.72-.6-.6-.72-.5-.8-.36-.87-.23-.92v-8.88m-.02-11.86l-.02-17.8m0-11.85l-.02-17.78m0-11.85v-8.9l.07-.94.22-.9.35-.88.5-.8.6-.72.72-.6.8-.5.87-.36.9-.22h8.98" stroke="#5e5e5e" stroke-width="6" fill="none"/><use xlink:href="#f" transform="matrix(1,0,0,1,1194.8923055903422,681.9715835661359) translate(138.32899305555554 51.564670138888886)"/><g stroke="#0c7cba" stroke-width="9"><path d="M369.9 433.97c0-20.43 49.24-37 110-37 60.74 0 110 16.57 110 37v296c0 20.44-49.26 37-110 37-60.76 0-110-16.56-110-37z" fill="#fff"/><path d="M589.9 433.97c0 20.44-49.26 37-110 37-60.76 0-110-16.56-110-37" fill="none"/></g><path d="M769.9 856.97h300v45.22h-300z" fill="url(#g)"/><use xlink:href="#h" transform="matrix(1,0,0,1,774.8923055903422,861.9715835661359) translate(4.977213541666629 28.878038194444446)"/><g stroke="#0c7cba" stroke-width="9"><path d="M809.9 433.97c0-20.43 49.24-37 110-37 60.74 0 110 16.57 110 37v296c0 20.44-49.26 37-110 37-60.76 0-110-16.56-110-37z" fill="#fff"/><path d="M1029.9 433.97c0 20.44-49.26 37-110 37-60.76 0-110-16.56-110-37" fill="none"/></g><g stroke="#0c7cba" stroke-width="9"><path d="M1249.9 433.97c0-20.43 49.24-37 110-37 60.74 0 110 16.57 110 37v296c0 20.44-49.26 37-110 37-60.76 0-110-16.56-110-37z" fill="#fff"/><path d="M1469.9 433.97c0 20.44-49.26 37-110 37-60.76 0-110-16.56-110-37" fill="none"/></g><path d="M271.9 556.96l1336-4.98M271.94 556.96h-2.05M1607.84 551.98h2.05" stroke="#de5f85" stroke-width="4" fill="none"/><path d="M109.9 507.97a6 6 0 0 1 6-6h128a6 6 0 0 1 6 6v263a6 6 0 0 1-6 6h-128a6 6 0 0 1-6-6z" fill="none"/><path d="M249.9 776.97c-5.53 0-10-4.48-10-10v-117.5c0-5.52-4.48-10-10-10 5.52 0 10-4.48 10-10v-117.5c0-5.52 4.47-10 10-10" stroke="#5e5e5e" stroke-width="6" fill="none"/><use xlink:href="#i" transform="matrix(1,0,0,1,114.89230559034218,506.9715835661359) translate(-12.018229166666686 105.54615162037037)"/><use xlink:href="#j" transform="matrix(1,0,0,1,114.89230559034218,506.9715835661359) translate(-49.357638888888914 143.27039930555557)"/><use xlink:href="#k" transform="matrix(1,0,0,1,114.89230559034218,506.9715835661359) translate(6.651475694444429 180.99464699074076)"/><path d="M391.23 535.48l33.32-37.02M391.26 535.45l-1.37 1.52M424.52 498.5l1.37-1.53M431.23 535.48l33.32-37.02M431.26 535.45l-1.37 1.52M464.52 498.5l1.37-1.53M471.23 535.48l33.32-37.02M471.26 535.45l-1.37 1.52M504.52 498.5l1.37-1.53M511.23 535.48l33.32-37.02M511.26 535.45l-1.37 1.52M544.52 498.5l1.37-1.53M551.2 535.47l16.7-19M551.25 535.43l-1.36 1.54M567.87 516.5l1.36-1.53" stroke="#de5f85" stroke-width="4" fill="none"/><path d="M560.35 492.26l78.37-75.07" stroke="#de5f85" stroke-width="5" fill="none"/><path d="M562.1 494h-7.17l3.74-3.6z" stroke="#de5f85" stroke-width=".05" fill="#de5f85"/><path d="M650.82 405.6l-7.1 13.2-6.4-6.68z" stroke="#de5f85" stroke-width="5" fill="#de5f85"/><path d="M589.9 316.97h220v41.9h-220z" fill="#fff"/><g><use xlink:href="#l" transform="matrix(1,0,0,1,594.8923055903422,321.97158356613596) translate(0 28.878038194444446)"/><use xlink:href="#e" transform="matrix(1,0,0,1,594.8923055903422,321.97158356613596) translate(0 66.60228587962963)"/></g><path d="M1623.9 527.97h194v40h-194z" fill="#fff"/><g><use xlink:href="#m" transform="matrix(1,0,0,1,1628.8923055903422,532.9715835661358) translate(0 28.878038194444446)"/></g><defs><path fill="#de5f85" d="M1092 0H877L297-1210h-8c32 442 13 766 18 1210H135v-1462h213L926-258h6c-25-469-9-747-14-1204h174V0" id="n"/><path fill="#de5f85" d="M1112-551c0 331-186 571-502 571-301 0-495-251-495-571 0-330 184-567 501-567 302 0 496 249 496 567zM614-131c207 0 310-140 310-420 0-277-104-416-312-416-206 0-309 139-309 416 0 280 104 420 311 420" id="o"/><g id="a"><use transform="matrix(0.015190972222222224,0,0,0.015190972222222224,0,0)" xlink:href="#n"/><use transform="matrix(0.015190972222222224,0,0,0.015190972222222224,18.669704861111114,0)" xlink:href="#o"/></g><path fill="#de5f85" d="M887 0v-707c0-173-79-260-238-260-205 0-307 133-307 398V0H160v-1098h147l27 148h10c69-112 181-168 336-168 259 0 389 134 389 401V0H887" id="p"/><path fill="#de5f85" d="M631-1118c283 0 470 204 465 491v113H322c5 250 120 375 344 375 130 0 253-25 370-76v160C925-5 804 20 672 20c-329 0-539-224-539-561 0-331 182-577 498-577zM326-662h573c0-203-91-305-272-305-183 0-284 102-301 305" id="q"/><path fill="#de5f85" d="M137-547c0-322 136-571 430-571 137 0 245 53 322 160h12c-24-215-7-376-12-598h182V0H924l-27-147h-8C814-36 706 20 567 20c-294 0-430-246-430-567zm463 416c241 0 288-157 289-416 0-151-23-259-69-323s-121-97-222-97c-181 0-272 141-272 422 0 276 91 414 274 414" id="r"/><g id="b"><use transform="matrix(0.015190972222222224,0,0,0.015190972222222224,0,0)" xlink:href="#p"/><use transform="matrix(0.015190972222222224,0,0,0.015190972222222224,18.669704861111114,0)" xlink:href="#q"/><use transform="matrix(0.015190972222222224,0,0,0.015190972222222224,37.33940972222223,0)" xlink:href="#q"/><use transform="matrix(0.015190972222222224,0,0,0.015190972222222224,56.00911458333334,0)" xlink:href="#r"/></g><path fill="#de5f85" d="M1020-150v138C933 9 849 20 768 20 527 20 406-95 406-324v-637H139v-94l267-49 77-287h105v293h438v137H588v637c0 130 64 195 192 195 62 0 142-7 240-21" id="s"/><g id="c"><use transform="matrix(0.015190972222222224,0,0,0.015190972222222224,0,0)" xlink:href="#s"/><use transform="matrix(0.015190972222222224,0,0,0.015190972222222224,18.669704861111114,0)" xlink:href="#o"/></g><path fill="#de5f85" d="M1026-301c0 225-197 321-448 321-165 0-290-23-375-69v-166c129 57 252 86 370 86 183 0 275-54 275-162 0-38-16-71-49-99s-108-63-226-106c-156-57-253-112-293-160s-61-105-61-171c2-338 524-340 789-217l-60 149c-121-48-228-72-319-72-157 0-236 44-236 133 0 41 17 74 51 98s111 57 232 101c141 51 234 101 280 151s70 111 70 183" id="t"/><path fill="#de5f85" d="M887 0v-707c0-173-79-260-238-260-205 0-307 133-307 398V0H160v-1556h182c-2 202 6 416-8 606h10c69-112 181-168 336-168 259 0 389 134 389 401V0H887" id="u"/><g id="d"><use transform="matrix(0.015190972222222224,0,0,0.015190972222222224,0,0)" xlink:href="#t"/><use transform="matrix(0.015190972222222224,0,0,0.015190972222222224,18.669704861111114,0)" xlink:href="#u"/><use transform="matrix(0.015190972222222224,0,0,0.015190972222222224,37.33940972222223,0)" xlink:href="#q"/><use transform="matrix(0.015190972222222224,0,0,0.015190972222222224,56.00911458333334,0)" xlink:href="#r"/></g><path fill="#de5f85" d="M1092-551c0 322-136 571-430 571-138 0-245-53-322-159h-12L291 0H158v-1556h182c-2 221 6 379-8 602h8c71-109 179-164 322-164 294 0 430 246 430 567zM629-967c-241 0-289 146-289 416 0 151 24 259 70 323s120 97 221 97c181 0 272-141 272-422 0-276-91-414-274-414" id="v"/><path fill="#de5f85" d="M578-131c239 0 309-137 309-397v-570h182V0H922l-27-147h-10C815-36 704 20 551 20c-261 0-391-134-391-401v-717h182v707c0 173 79 260 236 260" id="w"/><path fill="#de5f85" d="M532-1413l-268-21v-122h451v1413l352 20V0H188v-123l344-20v-1270" id="x"/><g id="e"><use transform="matrix(0.015190972222222224,0,0,0.015190972222222224,0,0)" xlink:href="#v"/><use transform="matrix(0.015190972222222224,0,0,0.015190972222222224,18.669704861111114,0)" xlink:href="#w"/><use transform="matrix(0.015190972222222224,0,0,0.015190972222222224,37.33940972222223,0)" xlink:href="#p"/><use transform="matrix(0.015190972222222224,0,0,0.015190972222222224,56.00911458333334,0)" xlink:href="#r"/><use transform="matrix(0.015190972222222224,0,0,0.015190972222222224,74.67881944444446,0)" xlink:href="#x"/><use transform="matrix(0.015190972222222224,0,0,0.015190972222222224,93.34852430555557,0)" xlink:href="#q"/><use transform="matrix(0.015190972222222224,0,0,0.015190972222222224,112.01822916666669,0)" xlink:href="#t"/></g><path fill="#333" d="M707 0H520v-1298H102v-164h1022v164H707V0" id="y"/><path fill="#333" d="M631-1118c283 0 470 204 465 491v113H322c5 250 120 375 344 375 130 0 253-25 370-76v160C925-5 804 20 672 20c-329 0-539-224-539-561 0-331 182-577 498-577zM326-662h573c0-203-91-305-272-305-183 0-284 102-301 305" id="z"/><path fill="#333" d="M510-563l-393-535h207l290 410 291-410h207L717-563 1130 0H924L614-436 303 0H96" id="A"/><path fill="#333" d="M1020-150v138C933 9 849 20 768 20 527 20 406-95 406-324v-637H139v-94l267-49 77-287h105v293h438v137H588v637c0 130 64 195 192 195 62 0 142-7 240-21" id="B"/><g id="f"><use transform="matrix(0.010850694444444444,0,0,0.010850694444444444,0,0)" xlink:href="#y"/><use transform="matrix(0.010850694444444444,0,0,0.010850694444444444,13.335503472222221,0)" xlink:href="#z"/><use transform="matrix(0.010850694444444444,0,0,0.010850694444444444,26.671006944444443,0)" xlink:href="#A"/><use transform="matrix(0.010850694444444444,0,0,0.010850694444444444,40.006510416666664,0)" xlink:href="#B"/></g><linearGradient gradientUnits="userSpaceOnUse" id="g" x1="1069.89" y1="856.97" x2="1069.89" y2="902.19"><stop offset="0%" stop-color="#fff"/><stop offset="56.69%" stop-color="#c1e4f7"/><stop offset="100%" stop-color="#82c9ef"/></linearGradient><path fill="#24292e" d="M616 20C261 20 84-232 84-735c0-500 178-750 534-750 171 0 301 65 392 195s137 316 137 557-46 426-138 557S786 20 616 20zm0-163c115 0 195-51 254-145 102-163 102-730-2-890-59-92-137-143-250-143-225 0-337 196-337 588 0 393 112 590 335 590" id="C"/><path fill="#24292e" d="M498 0L82-1098h188l240 652c57 154 90 262 100 325h6c67-256 244-708 340-977h189L729 0H498" id="D"/><path fill="#24292e" d="M631-1118c283 0 470 204 465 491v113H322c5 250 120 375 344 375 130 0 253-25 370-76v160C925-5 804 20 672 20c-329 0-539-224-539-561 0-331 182-577 498-577zM326-662h573c0-203-91-305-272-305-183 0-284 102-301 305" id="E"/><path fill="#24292e" d="M442-897c93-139 173-221 377-221 79 0 159 15 240 45l-49 166c-82-30-157-45-224-45-221 0-340 134-340 360V0H264v-1098h148l22 201h8" id="F"/><path fill="#24292e" d="M532-1413l-268-21v-122h451v1413l352 20V0H188v-123l344-20v-1270" id="G"/><path fill="#24292e" d="M1112-551c0 331-186 571-502 571-301 0-495-251-495-571 0-330 184-567 501-567 302 0 496 249 496 567zM614-131c207 0 310-140 310-420 0-277-104-416-312-416-206 0-309 139-309 416 0 280 104 420 311 420" id="H"/><path fill="#24292e" d="M596-1118c288 2 430 92 430 366V0H895l-37-152h-8C752-34 680 17 483 20 272 23 135-98 135-307c0-221 170-337 510-348l203-7c15-197-55-305-244-305-98 0-207 27-328 82l-63-137c131-64 258-96 383-96zm-72 991c194 0 325-116 322-311v-99c-251 15-522-6-522 232 0 119 67 178 200 178" id="I"/><path fill="#24292e" d="M137-547c0-322 136-571 430-571 137 0 245 53 322 160h12c-24-215-7-376-12-598h182V0H924l-27-147h-8C814-36 706 20 567 20c-294 0-430-246-430-567zm463 416c241 0 288-157 289-416 0-151-23-259-69-323s-121-97-222-97c-181 0-272 141-272 422 0 276 91 414 274 414" id="J"/><path fill="#24292e" d="M1087-391c0 281-226 411-532 411-177 0-315-23-414-69v-178c141 57 279 86 414 86 233 0 350-80 350-240 0-69-24-123-71-160s-142-82-285-133c-139-49-239-106-299-174s-90-156-90-264c2-252 211-371 481-371 153 0 291 26 416 78l-64 164c-129-52-249-78-360-78-195 0-293 70-293 209 0 68 22 123 66 164s134 85 270 133c164 58 273 119 328 181s83 143 83 241" id="K"/><path fill="#24292e" d="M887 0v-707c0-173-79-260-238-260-205 0-307 133-307 398V0H160v-1556h182c-2 202 6 416-8 606h10c69-112 181-168 336-168 259 0 389 134 389 401V0H887" id="L"/><g id="h"><use transform="matrix(0.015190972222222224,0,0,0.015190972222222224,0,0)" xlink:href="#C"/><use transform="matrix(0.015190972222222224,0,0,0.015190972222222224,18.669704861111114,0)" xlink:href="#D"/><use transform="matrix(0.015190972222222224,0,0,0.015190972222222224,37.33940972222223,0)" xlink:href="#E"/><use transform="matrix(0.015190972222222224,0,0,0.015190972222222224,56.00911458333334,0)" xlink:href="#F"/><use transform="matrix(0.015190972222222224,0,0,0.015190972222222224,74.67881944444446,0)" xlink:href="#G"/><use transform="matrix(0.015190972222222224,0,0,0.015190972222222224,93.34852430555557,0)" xlink:href="#H"/><use transform="matrix(0.015190972222222224,0,0,0.015190972222222224,112.01822916666669,0)" xlink:href="#I"/><use transform="matrix(0.015190972222222224,0,0,0.015190972222222224,130.6879340277778,0)" xlink:href="#J"/><use transform="matrix(0.015190972222222224,0,0,0.015190972222222224,149.3576388888889,0)" xlink:href="#K"/><use transform="matrix(0.015190972222222224,0,0,0.015190972222222224,168.02734375000003,0)" xlink:href="#L"/><use transform="matrix(0.015190972222222224,0,0,0.015190972222222224,186.69704861111114,0)" xlink:href="#E"/><use transform="matrix(0.015190972222222224,0,0,0.015190972222222224,205.36675347222226,0)" xlink:href="#J"/><use transform="matrix(0.015190972222222224,0,0,0.015190972222222224,224.03645833333337,0)" xlink:href="#J"/><use transform="matrix(0.015190972222222224,0,0,0.015190972222222224,242.70616319444449,0)" xlink:href="#E"/><use transform="matrix(0.015190972222222224,0,0,0.015190972222222224,261.3758680555556,0)" xlink:href="#F"/></g><path fill="#5e5e5e" d="M1137-424C1137-153 941 0 662 0H135v-1462c284 7 685-30 837 88 80 62 124 152 124 282 0 179-125 297-291 316v10c221 36 332 150 332 342zm-232-655c0-182-120-224-319-224H322v461h284c195-2 299-53 299-237zM322-686v528h307c207 0 311-91 311-274 0-169-108-254-324-254H322" id="M"/><path fill="#5e5e5e" d="M442-897c93-139 173-221 377-221 79 0 159 15 240 45l-49 166c-82-30-157-45-224-45-221 0-340 134-340 360V0H264v-1098h148l22 201h8" id="N"/><path fill="#5e5e5e" d="M1112-551c0 331-186 571-502 571-301 0-495-251-495-571 0-330 184-567 501-567 302 0 496 249 496 567zM614-131c207 0 310-140 310-420 0-277-104-416-312-416-206 0-309 139-309 416 0 280 104 420 311 420" id="O"/><path fill="#5e5e5e" d="M383-553l135-152 395-393h222L641-623 1163 0H950L524-504l-129 82V0H215v-1556h180c-3 337 9 689-16 1003h4" id="P"/><path fill="#5e5e5e" d="M631-1118c283 0 470 204 465 491v113H322c5 250 120 375 344 375 130 0 253-25 370-76v160C925-5 804 20 672 20c-329 0-539-224-539-561 0-331 182-577 498-577zM326-662h573c0-203-91-305-272-305-183 0-284 102-301 305" id="Q"/><g id="i"><use transform="matrix(0.015190972222222224,0,0,0.015190972222222224,0,0)" xlink:href="#M"/><use transform="matrix(0.015190972222222224,0,0,0.015190972222222224,18.669704861111114,0)" xlink:href="#N"/><use transform="matrix(0.015190972222222224,0,0,0.015190972222222224,37.33940972222223,0)" xlink:href="#O"/><use transform="matrix(0.015190972222222224,0,0,0.015190972222222224,56.00911458333334,0)" xlink:href="#P"/><use transform="matrix(0.015190972222222224,0,0,0.015190972222222224,74.67881944444446,0)" xlink:href="#Q"/><use transform="matrix(0.015190972222222224,0,0,0.015190972222222224,93.34852430555557,0)" xlink:href="#N"/></g><path fill="#5e5e5e" d="M1026-301c0 225-197 321-448 321-165 0-290-23-375-69v-166c129 57 252 86 370 86 183 0 275-54 275-162 0-38-16-71-49-99s-108-63-226-106c-156-57-253-112-293-160s-61-105-61-171c2-338 524-340 789-217l-60 149c-121-48-228-72-319-72-157 0-236 44-236 133 0 41 17 74 51 98s111 57 232 101c141 51 234 101 280 151s70 111 70 183" id="R"/><path fill="#5e5e5e" d="M578-131c239 0 309-137 309-397v-570h182V0H922l-27-147h-10C815-36 704 20 551 20c-261 0-391-134-391-401v-717h182v707c0 173 79 260 236 260" id="S"/><path fill="#5e5e5e" d="M172-543c0-365 197-575 553-575 119 0 231 20 336 59l-62 158c-100-38-189-57-268-57-247 0-371 138-371 413 0 271 120 406 361 406 105 0 212-21 321-62v160C953 0 843 20 713 20c-347 1-541-210-541-563" id="T"/><g id="j"><use transform="matrix(0.015190972222222224,0,0,0.015190972222222224,0,0)" xlink:href="#N"/><use transform="matrix(0.015190972222222224,0,0,0.015190972222222224,18.669704861111114,0)" xlink:href="#Q"/><use transform="matrix(0.015190972222222224,0,0,0.015190972222222224,37.33940972222223,0)" xlink:href="#R"/><use transform="matrix(0.015190972222222224,0,0,0.015190972222222224,56.00911458333334,0)" xlink:href="#O"/><use transform="matrix(0.015190972222222224,0,0,0.015190972222222224,74.67881944444446,0)" xlink:href="#S"/><use transform="matrix(0.015190972222222224,0,0,0.015190972222222224,93.34852430555557,0)" xlink:href="#N"/><use transform="matrix(0.015190972222222224,0,0,0.015190972222222224,112.01822916666669,0)" xlink:href="#T"/><use transform="matrix(0.015190972222222224,0,0,0.015190972222222224,130.6879340277778,0)" xlink:href="#Q"/></g><path fill="#5e5e5e" d="M596-1118c288 2 430 92 430 366V0H895l-37-152h-8C752-34 680 17 483 20 272 23 135-98 135-307c0-221 170-337 510-348l203-7c15-197-55-305-244-305-98 0-207 27-328 82l-63-137c131-64 258-96 383-96zm-72 991c194 0 325-116 322-311v-99c-251 15-522-6-522 232 0 119 67 178 200 178" id="U"/><path fill="#5e5e5e" d="M188-739c-1-248 156-381 410-379 57 0 107 7 150 20h378v113l-196 27c43 57 65 128 65 213 2 253-212 385-489 346-67 37-100 82-100 133 0 56 54 84 161 84h187c216-2 358 93 358 297 0 251-188 377-565 377-145 0-255-26-331-80S102 283 102 186c0-141 80-231 240-270-64-31-96-83-96-154 0-75 44-139 133-192-109-41-191-166-191-309zm406 221c149 0 223-77 223-230 0-159-75-239-225-239s-225 81-225 242c0 151 76 227 227 227zm346 649c0-146-78-149-248-149H504c-153 0-230 66-230 198 0 116 90 174 271 174 263 0 395-74 395-223" id="V"/><g id="k"><use transform="matrix(0.015190972222222224,0,0,0.015190972222222224,0,0)" xlink:href="#S"/><use transform="matrix(0.015190972222222224,0,0,0.015190972222222224,18.669704861111114,0)" xlink:href="#R"/><use transform="matrix(0.015190972222222224,0,0,0.015190972222222224,37.33940972222223,0)" xlink:href="#U"/><use transform="matrix(0.015190972222222224,0,0,0.015190972222222224,56.00911458333334,0)" xlink:href="#V"/><use transform="matrix(0.015190972222222224,0,0,0.015190972222222224,74.67881944444446,0)" xlink:href="#Q"/></g><path fill="#de5f85" d="M1087-391c0 281-226 411-532 411-177 0-315-23-414-69v-178c141 57 279 86 414 86 233 0 350-80 350-240 0-69-24-123-71-160s-142-82-285-133c-139-49-239-106-299-174s-90-156-90-264c2-252 211-371 481-371 153 0 291 26 416 78l-64 164c-129-52-249-78-360-78-195 0-293 70-293 209 0 68 22 123 66 164s134 85 270 133c164 58 273 119 328 181s83 143 83 241" id="W"/><g id="l"><use transform="matrix(0.015190972222222224,0,0,0.015190972222222224,0,0)" xlink:href="#W"/><use transform="matrix(0.015190972222222224,0,0,0.015190972222222224,18.669704861111114,0)" xlink:href="#u"/><use transform="matrix(0.015190972222222224,0,0,0.015190972222222224,37.33940972222223,0)" xlink:href="#q"/><use transform="matrix(0.015190972222222224,0,0,0.015190972222222224,56.00911458333334,0)" xlink:href="#r"/></g><path fill="#de5f85" d="M707 0H520v-1298H102v-164h1022v164H707V0" id="X"/><path fill="#de5f85" d="M442-897c93-139 173-221 377-221 79 0 159 15 240 45l-49 166c-82-30-157-45-224-45-221 0-340 134-340 360V0H264v-1098h148l22 201h8" id="Y"/><g id="m"><use transform="matrix(0.015190972222222224,0,0,0.015190972222222224,0,0)" xlink:href="#X"/><use transform="matrix(0.015190972222222224,0,0,0.015190972222222224,18.669704861111114,0)" xlink:href="#u"/><use transform="matrix(0.015190972222222224,0,0,0.015190972222222224,37.33940972222223,0)" xlink:href="#Y"/><use transform="matrix(0.015190972222222224,0,0,0.015190972222222224,56.00911458333334,0)" xlink:href="#q"/><use transform="matrix(0.015190972222222224,0,0,0.015190972222222224,74.67881944444446,0)" xlink:href="#t"/><use transform="matrix(0.015190972222222224,0,0,0.015190972222222224,93.34852430555557,0)" xlink:href="#u"/><use transform="matrix(0.015190972222222224,0,0,0.015190972222222224,112.01822916666669,0)" xlink:href="#o"/><use transform="matrix(0.015190972222222224,0,0,0.015190972222222224,130.6879340277778,0)" xlink:href="#x"/><use transform="matrix(0.015190972222222224,0,0,0.015190972222222224,149.3576388888889,0)" xlink:href="#r"/></g></defs></g></svg>