<svg xmlns="http://www.w3.org/2000/svg" xmlns:xlink="http://www.w3.org/1999/xlink" xmlns:lucid="lucid" width="1786.02" height="635.22"><g transform="translate(-28.318142361111143 -1641.2177777777788)" lucid:page-tab-id="0_0"><path d="M0 1258.83h1870.87v1322.84H0z" fill="#fff"/><path d="M748.67 1947.22a6 6 0 0 1 6-6h332.66a6 6 0 0 1 6 6v178a6 6 0 0 1-6 6H754.67a6 6 0 0 1-6-6z" fill="#fff"/><path d="M774.96 1941.3l18.2-.02m12.13 0h18.18m12.13 0h18.2m12.14 0l18.2-.02m12.13 0h18.2m12.13 0h18.2m12.12 0l18.2-.02m12.13 0h18.2m12.13 0h18.2m12.13 0l18.2-.02m12.14 0h9.1l.93.07.92.2.86.37.8.5.72.6.6.72.5.8.36.86.22.92v8.95m0 11.93l.02 17.9m0 11.92v17.9m0 11.92l.02 17.9m0 11.92v17.9m.02 11.93v17.9m0 11.92v8.95l-.06.94-.22.9-.36.88-.5.8-.6.72-.72.6-.8.5-.87.36-.93.22h-9.1m-12.13 0h-18.2m-12.13.02h-18.18m-12.13 0h-18.2m-12.14 0h-18.2m-12.13.02h-18.2m-12.13 0h-18.2m-12.12 0h-18.2m-12.13.02h-18.2m-12.13 0h-18.2m-12.13 0h-18.2m-12.14.02h-9.1l-.93-.08-.92-.22-.86-.36-.8-.5-.72-.6-.6-.72-.5-.8-.36-.87-.22-.9v-8.96m0-11.92l-.02-17.9m0-11.92v-17.9m0-11.93l-.02-17.9m0-11.92v-17.88m-.02-11.93v-17.9m0-11.94v-8.94l.06-.94.22-.92.36-.87.5-.8.6-.72.72-.62.8-.5.87-.35.93-.2h9.1" stroke="#5e5e5e" stroke-width="6" fill="none"/><use xlink:href="#a" transform="matrix(1,0,0,1,753.6666666666666,1946.2177777777779) translate(140.82899305555554 99.37717013888889)"/><path d="M306.33 1857.22a6 6 0 0 1 6-6H645a6 6 0 0 1 6 6v268a6 6 0 0 1-6 6H312.33a6 6 0 0 1-6-6z" fill="#fff"/><path d="M332.62 1851.3l18.2-.02m12.13 0h18.2m12.13 0h18.2m12.13 0l18.2-.02m12.14 0h18.2m12.12 0h18.2m12.13 0l18.2-.02m12.12 0h18.2m12.13 0h18.2m12.12 0l18.2-.02m12.13 0h9.1l.94.07.9.2.88.37.8.5.72.6.6.72.5.8.37.86.23.92v8.96m0 11.96v17.93m0 11.95V1925m.02 11.96v17.93m0 11.94v17.93m0 11.95l.02 17.93m0 11.96v17.94m0 11.95l.02 17.92m0 11.95v17.93m0 11.95v8.97l-.07.94-.22.9-.35.88-.5.8-.6.72-.72.6-.8.5-.88.36-.9.22h-9.1m-12.14 0h-18.2m-12.12.02h-18.2m-12.13 0h-18.2m-12.12 0h-18.2m-12.13.02h-18.2m-12.13 0h-18.2m-12.13 0h-18.2m-12.13.02h-18.18m-12.13 0h-18.2m-12.14 0h-18.2m-12.13.02h-9.1l-.94-.08-.92-.22-.87-.36-.8-.5-.7-.6-.62-.72-.5-.8-.35-.87-.22-.9v-8.98m0-11.96v-17.93m0-11.94v-17.93m0-11.96l-.02-17.92m0-11.96v-17.94m0-11.95l-.02-17.92m0-11.95v-17.93m0-11.95v-17.93m-.02-11.96v-17.92m0-11.96v-8.96l.07-.94.23-.92.36-.87.48-.8.6-.72.73-.62.8-.5.88-.35.9-.2h9.1" stroke="#5e5e5e" stroke-width="6" fill="none"/><use xlink:href="#a" transform="matrix(1,0,0,1,311.33333333333314,1856.2177777777779) translate(140.82899305555554 142.97092013888889)"/><path d="M1191 2037.22a6 6 0 0 1 6-6h328a6 6 0 0 1 6 6v88a6 6 0 0 1-6 6h-328a6 6 0 0 1-6-6z" fill="#fff"/><path d="M1217 2031.3l17.94-.02m11.96 0h17.94m11.96 0h17.94m11.96 0l17.95-.02m11.96 0h17.95m11.96 0h17.95m11.96 0l17.96-.02m11.96 0h17.94m11.96 0h17.94m11.97 0l17.94-.02m11.96 0h8.97l.94.07.9.2.88.37.8.5.72.6.6.72.5.8.37.86.23.92v8.9m0 11.85l.03 17.8m0 11.85l.02 17.8m0 11.84l.02 8.9-.07.94-.22.9-.35.88-.5.8-.6.72-.72.6-.8.5-.88.36-.9.22h-8.98m-11.96 0h-17.94m-11.96.02h-17.94m-11.96 0h-17.94m-11.96 0h-17.95m-11.96.02h-17.95m-11.96 0h-17.95m-11.96 0h-17.96m-11.96.02h-17.94m-11.96 0h-17.94m-11.97 0h-17.94m-11.96.02H1197l-.94-.08-.9-.22-.88-.36-.8-.5-.72-.6-.6-.72-.5-.8-.37-.87-.23-.9v-8.9m0-11.87l-.03-17.78m0-11.86l-.02-17.8m0-11.85l-.02-8.88.07-.94.22-.92.35-.87.5-.8.6-.72.72-.62.8-.5.88-.35.9-.2h8.98" stroke="#5e5e5e" stroke-width="6" fill="none"/><use xlink:href="#a" transform="matrix(1,0,0,1,1196.0000000000002,2036.2177777777779) translate(138.32899305555554 51.564670138888886)"/><g stroke="#0c7cba" stroke-width="9"><path d="M371 1788.22c0-20.44 49.25-37 110-37s110 16.56 110 37v296c0 20.43-49.25 37-110 37s-110-16.57-110-37z" fill="#fff"/><path d="M591 1788.22c0 20.43-49.25 37-110 37s-110-16.57-110-37" fill="none"/></g><path d="M771 2211.22h350.67v45.22H771z" fill="url(#b)"/><use xlink:href="#c" transform="matrix(1,0,0,1,776.0000000000001,2216.217777777778) translate(2.47265625 28.878038194444446)"/><g stroke="#0c7cba" stroke-width="9"><path d="M811 1788.22c0-20.44 49.25-37 110-37s110 16.56 110 37v296c0 20.43-49.25 37-110 37s-110-16.57-110-37z" fill="#fff"/><path d="M1031 1788.22c0 20.43-49.25 37-110 37s-110-16.57-110-37" fill="none"/></g><g stroke="#0c7cba" stroke-width="9"><path d="M1251 1788.22c0-20.44 49.25-37 110-37s110 16.56 110 37v296c0 20.43-49.25 37-110 37s-110-16.57-110-37z" fill="#fff"/><path d="M1471 1788.22c0 20.43-49.25 37-110 37s-110-16.57-110-37" fill="none"/></g><path d="M61.67 1862.22a6 6 0 0 1 6-6H245a6 6 0 0 1 6 6v263a6 6 0 0 1-6 6H67.67a6 6 0 0 1-6-6z" fill="none"/><path d="M251 2131.22c-5.52 0-10-4.48-10-10v-117.5c0-5.53-4.48-10-10-10 5.52 0 10-4.48 10-10v-117.5c0-5.53 4.48-10 10-10" stroke="#5e5e5e" stroke-width="6" fill="none"/><use xlink:href="#d" transform="matrix(1,0,0,1,66.66666666666671,1861.2177777777779) translate(9.6560329861111 86.68402777777776)"/><use xlink:href="#e" transform="matrix(1,0,0,1,66.66666666666671,1861.2177777777779) translate(37.66059027777777 124.40827546296295)"/><use xlink:href="#f" transform="matrix(1,0,0,1,66.66666666666671,1861.2177777777779) translate(56.330295138888886 162.13252314814815)"/><use xlink:href="#g" transform="matrix(1,0,0,1,66.66666666666671,1861.2177777777779) translate(-18.34852430555557 199.85677083333334)"/><path d="M1600.33 1828h194v40h-194z" fill="#fff"/><use xlink:href="#h" transform="matrix(1,0,0,1,1605.3333333333333,1833.0000000000002) translate(0 28.878038194444446)"/><path d="M1576.33 2033.03h-41.36" stroke="#a3d977" stroke-width="4" fill="none"/><path d="M1578.33 2035.03h-2.05v-4h2.05zM1535.02 2035.03h-1.3l-.15-.6-.54-1.3-.74-1.2-.77-.9h3.5z" stroke="#a3d977" stroke-width=".05" fill="#a3d977"/><path d="M1578.33 2007.6h88v40h-88z" fill="#fff"/><use xlink:href="#i" transform="matrix(1,0,0,1,1583.3333333333335,2012.5996296296298) translate(18 28.878038194444446)"/><path d="M291 1662.6h609.33v83.95H291z" fill="#fff"/><use xlink:href="#j" transform="matrix(1,0,0,1,296,1667.6088888888899) translate(0 28.878038194444446)"/><use xlink:href="#k" transform="matrix(1,0,0,1,296,1667.6088888888899) translate(93.34852430555557 28.878038194444446)"/><use xlink:href="#l" transform="matrix(1,0,0,1,296,1667.6088888888899) translate(130.6879340277778 28.878038194444446)"/><use xlink:href="#m" transform="matrix(1,0,0,1,296,1667.6088888888899) translate(224.03645833333337 28.878038194444446)"/><use xlink:href="#n" transform="matrix(1,0,0,1,296,1667.6088888888899) translate(261.3758680555556 28.878038194444446)"/><use xlink:href="#o" transform="matrix(1,0,0,1,296,1667.6088888888899) translate(336.05468750000006 28.878038194444446)"/><use xlink:href="#p" transform="matrix(1,0,0,1,296,1667.6088888888899) translate(373.3940972222223 28.878038194444446)"/><path d="M848 1679.22a6 6 0 0 1 6-6h54.4a6 6 0 0 0 6-6 2.3 2.3 0 0 1 4-1.54l13.6 15.08a6.67 6.67 0 0 1 0 8.92l-13.6 15.08a2.3 2.3 0 0 1-4-1.54 6 6 0 0 0-6-6H854a6 6 0 0 1-6-6z" stroke="#fff" stroke-width="3" fill="#de5f85"/><path d="M943.67 1661.22h628v83.94h-628z" fill="#fff"/><use xlink:href="#q" transform="matrix(1,0,0,1,948.6666666666666,1666.2177777777788) translate(0 28.878038194444446)"/><use xlink:href="#r" transform="matrix(1,0,0,1,948.6666666666666,1666.2177777777788) translate(93.34852430555557 28.878038194444446)"/><use xlink:href="#s" transform="matrix(1,0,0,1,948.6666666666666,1666.2177777777788) translate(242.70616319444449 28.878038194444446)"/><use xlink:href="#t" transform="matrix(1,0,0,1,948.6666666666666,1666.2177777777788) translate(280.04557291666674 28.878038194444446)"/><use xlink:href="#k" transform="matrix(1,0,0,1,948.6666666666666,1666.2177777777788) translate(373.3940972222223 28.878038194444446)"/><use xlink:href="#l" transform="matrix(1,0,0,1,948.6666666666666,1666.2177777777788) translate(410.7335069444445 28.878038194444446)"/><use xlink:href="#u" transform="matrix(1,0,0,1,948.6666666666666,1666.2177777777788) translate(504.0820312500001 28.878038194444446)"/><use xlink:href="#v" transform="matrix(1,0,0,1,948.6666666666666,1666.2177777777788) translate(541.4214409722224 28.878038194444446)"/><path d="M1600.33 1888h194v40h-194z" fill="#fff"/><use xlink:href="#w" transform="matrix(1,0,0,1,1605.3333333333335,1893.0000000000005) translate(0 28.878038194444446)"/><path d="M263 1846h1316M263.05 1846H261M1578.95 1846h2.05" stroke="#ef8d22" stroke-width="4" fill="none"/><path d="M263 1906h1316M263.05 1906H261M1578.95 1906h2.05M382.32 1884.5l16.7-19M382.35 1884.46L381 1886M398.98 1865.54l1.35-1.54M462.32 1884.5l16.7-19M462.35 1884.46L461 1886M478.98 1865.54l1.35-1.54M502.32 1884.5l16.7-19M502.35 1884.46L501 1886M518.98 1865.54l1.35-1.54M542.32 1884.5l16.7-19M542.35 1884.46L541 1886M558.98 1865.54l1.35-1.54M422.32 1884.5l16.7-19M422.35 1884.46L421 1886M438.98 1865.54l1.35-1.54" stroke="#de5f85" stroke-width="4" fill="none"/><path d="M575.3 1881.44l99.6-116.03M575.34 1881.4l-1.67 1.93" stroke="#de5f85" stroke-width="5" fill="none"/><path d="M685.8 1752.7l-5.76 13.83-7.03-6.04z" stroke="#de5f85" stroke-width="5" fill="#de5f85"/><defs><path fill="#333" d="M707 0H520v-1298H102v-164h1022v164H707V0" id="x"/><path fill="#333" d="M631-1118c283 0 470 204 465 491v113H322c5 250 120 375 344 375 130 0 253-25 370-76v160C925-5 804 20 672 20c-329 0-539-224-539-561 0-331 182-577 498-577zM326-662h573c0-203-91-305-272-305-183 0-284 102-301 305" id="y"/><path fill="#333" d="M510-563l-393-535h207l290 410 291-410h207L717-563 1130 0H924L614-436 303 0H96" id="z"/><path fill="#333" d="M1020-150v138C933 9 849 20 768 20 527 20 406-95 406-324v-637H139v-94l267-49 77-287h105v293h438v137H588v637c0 130 64 195 192 195 62 0 142-7 240-21" id="A"/><g id="a"><use transform="matrix(0.010850694444444444,0,0,0.010850694444444444,0,0)" xlink:href="#x"/><use transform="matrix(0.010850694444444444,0,0,0.010850694444444444,13.335503472222221,0)" xlink:href="#y"/><use transform="matrix(0.010850694444444444,0,0,0.010850694444444444,26.671006944444443,0)" xlink:href="#z"/><use transform="matrix(0.010850694444444444,0,0,0.010850694444444444,40.006510416666664,0)" xlink:href="#A"/></g><linearGradient gradientUnits="userSpaceOnUse" id="b" x1="1121.67" y1="2211.22" x2="1121.67" y2="2256.44"><stop offset="0%" stop-color="#fff"/><stop offset="56.69%" stop-color="#c1e4f7"/><stop offset="100%" stop-color="#82c9ef"/></linearGradient><path fill="#24292e" d="M1104-516c1 337-164 537-496 536-322 0-483-180-483-540v-942h186v932c0 258 102 387 307 387 197 0 300-130 300-389v-932h186v948" id="B"/><path fill="#24292e" d="M887 0v-707c0-173-79-260-238-260-205 0-307 133-307 398V0H160v-1098h147l27 148h10c69-112 181-168 336-168 259 0 389 134 389 401V0H887" id="C"/><path fill="#24292e" d="M739-1436c0 71-43 115-106 115-71 0-107-38-107-115 0-76 36-114 107-114s106 38 106 114zM541-954l-269-21v-123h451v955l352 20V0H197v-123l344-20v-811" id="D"/><path fill="#24292e" d="M866-1417c-164 2-207 56-211 215v104h389v137H655V0H473v-961H156v-110l317-33c-17-319 78-463 389-463 86 0 170 12 252 35l-41 143c-69-19-138-28-207-28" id="E"/><path fill="#24292e" d="M1112-551c0 331-186 571-502 571-301 0-495-251-495-571 0-330 184-567 501-567 302 0 496 249 496 567zM614-131c207 0 310-140 310-420 0-277-104-416-312-416-206 0-309 139-309 416 0 280 104 420 311 420" id="F"/><path fill="#24292e" d="M442-897c93-139 173-221 377-221 79 0 159 15 240 45l-49 166c-82-30-157-45-224-45-221 0-340 134-340 360V0H264v-1098h148l22 201h8" id="G"/><path fill="#24292e" d="M977 0v-707c0-97-9-165-27-203s-47-57-88-57c-58 0-100 28-126 83s-40 148-40 278V0H535v-707c0-173-42-260-125-260-56 0-96 26-120 79s-36 160-36 319V0H92v-1098h127l27 148h10c45-112 112-168 201-168 109 0 180 61 213 182h6c51-121 124-182 219-182 85 0 147 30 186 92s58 165 58 309V0H977" id="H"/><path fill="#24292e" d="M233 0v-1462h187v1296h635V0H233" id="I"/><path fill="#24292e" d="M596-1118c288 2 430 92 430 366V0H895l-37-152h-8C752-34 680 17 483 20 272 23 135-98 135-307c0-221 170-337 510-348l203-7c15-197-55-305-244-305-98 0-207 27-328 82l-63-137c131-64 258-96 383-96zm-72 991c194 0 325-116 322-311v-99c-251 15-522-6-522 232 0 119 67 178 200 178" id="J"/><path fill="#24292e" d="M137-547c0-322 136-571 430-571 137 0 245 53 322 160h12c-24-215-7-376-12-598h182V0H924l-27-147h-8C814-36 706 20 567 20c-294 0-430-246-430-567zm463 416c241 0 288-157 289-416 0-151-23-259-69-323s-121-97-222-97c-181 0-272 141-272 422 0 276 91 414 274 414" id="K"/><path fill="#24292e" d="M1087-391c0 281-226 411-532 411-177 0-315-23-414-69v-178c141 57 279 86 414 86 233 0 350-80 350-240 0-69-24-123-71-160s-142-82-285-133c-139-49-239-106-299-174s-90-156-90-264c2-252 211-371 481-371 153 0 291 26 416 78l-64 164c-129-52-249-78-360-78-195 0-293 70-293 209 0 68 22 123 66 164s134 85 270 133c164 58 273 119 328 181s83 143 83 241" id="L"/><path fill="#24292e" d="M887 0v-707c0-173-79-260-238-260-205 0-307 133-307 398V0H160v-1556h182c-2 202 6 416-8 606h10c69-112 181-168 336-168 259 0 389 134 389 401V0H887" id="M"/><path fill="#24292e" d="M631-1118c283 0 470 204 465 491v113H322c5 250 120 375 344 375 130 0 253-25 370-76v160C925-5 804 20 672 20c-329 0-539-224-539-561 0-331 182-577 498-577zM326-662h573c0-203-91-305-272-305-183 0-284 102-301 305" id="N"/><g id="c"><use transform="matrix(0.015190972222222224,0,0,0.015190972222222224,0,0)" xlink:href="#B"/><use transform="matrix(0.015190972222222224,0,0,0.015190972222222224,18.669704861111114,0)" xlink:href="#C"/><use transform="matrix(0.015190972222222224,0,0,0.015190972222222224,37.33940972222223,0)" xlink:href="#D"/><use transform="matrix(0.015190972222222224,0,0,0.015190972222222224,56.00911458333334,0)" xlink:href="#E"/><use transform="matrix(0.015190972222222224,0,0,0.015190972222222224,74.67881944444446,0)" xlink:href="#F"/><use transform="matrix(0.015190972222222224,0,0,0.015190972222222224,93.34852430555557,0)" xlink:href="#G"/><use transform="matrix(0.015190972222222224,0,0,0.015190972222222224,112.01822916666669,0)" xlink:href="#H"/><use transform="matrix(0.015190972222222224,0,0,0.015190972222222224,130.6879340277778,0)" xlink:href="#I"/><use transform="matrix(0.015190972222222224,0,0,0.015190972222222224,149.3576388888889,0)" xlink:href="#F"/><use transform="matrix(0.015190972222222224,0,0,0.015190972222222224,168.02734375000003,0)" xlink:href="#J"/><use transform="matrix(0.015190972222222224,0,0,0.015190972222222224,186.69704861111114,0)" xlink:href="#K"/><use transform="matrix(0.015190972222222224,0,0,0.015190972222222224,205.36675347222226,0)" xlink:href="#L"/><use transform="matrix(0.015190972222222224,0,0,0.015190972222222224,224.03645833333337,0)" xlink:href="#M"/><use transform="matrix(0.015190972222222224,0,0,0.015190972222222224,242.70616319444449,0)" xlink:href="#N"/><use transform="matrix(0.015190972222222224,0,0,0.015190972222222224,261.3758680555556,0)" xlink:href="#K"/><use transform="matrix(0.015190972222222224,0,0,0.015190972222222224,280.04557291666674,0)" xlink:href="#K"/><use transform="matrix(0.015190972222222224,0,0,0.015190972222222224,298.7152777777778,0)" xlink:href="#N"/><use transform="matrix(0.015190972222222224,0,0,0.015190972222222224,317.3849826388889,0)" xlink:href="#G"/></g><path fill="#5e5e5e" d="M532 0L254-1280h-8c34 456 12 817 18 1280H113v-1462h247L608-270h6l250-1192h252V0H963c5-467-12-807 14-1278h-8L686 0H532" id="O"/><path fill="#5e5e5e" d="M631-1118c283 0 470 204 465 491v113H322c5 250 120 375 344 375 130 0 253-25 370-76v160C925-5 804 20 672 20c-329 0-539-224-539-561 0-331 182-577 498-577zM326-662h573c0-203-91-305-272-305-183 0-284 102-301 305" id="P"/><path fill="#5e5e5e" d="M1026-301c0 225-197 321-448 321-165 0-290-23-375-69v-166c129 57 252 86 370 86 183 0 275-54 275-162 0-38-16-71-49-99s-108-63-226-106c-156-57-253-112-293-160s-61-105-61-171c2-338 524-340 789-217l-60 149c-121-48-228-72-319-72-157 0-236 44-236 133 0 41 17 74 51 98s111 57 232 101c141 51 234 101 280 151s70 111 70 183" id="Q"/><path fill="#5e5e5e" d="M596-1118c288 2 430 92 430 366V0H895l-37-152h-8C752-34 680 17 483 20 272 23 135-98 135-307c0-221 170-337 510-348l203-7c15-197-55-305-244-305-98 0-207 27-328 82l-63-137c131-64 258-96 383-96zm-72 991c194 0 325-116 322-311v-99c-251 15-522-6-522 232 0 119 67 178 200 178" id="R"/><path fill="#5e5e5e" d="M188-739c-1-248 156-381 410-379 57 0 107 7 150 20h378v113l-196 27c43 57 65 128 65 213 2 253-212 385-489 346-67 37-100 82-100 133 0 56 54 84 161 84h187c216-2 358 93 358 297 0 251-188 377-565 377-145 0-255-26-331-80S102 283 102 186c0-141 80-231 240-270-64-31-96-83-96-154 0-75 44-139 133-192-109-41-191-166-191-309zm406 221c149 0 223-77 223-230 0-159-75-239-225-239s-225 81-225 242c0 151 76 227 227 227zm346 649c0-146-78-149-248-149H504c-153 0-230 66-230 198 0 116 90 174 271 174 263 0 395-74 395-223" id="S"/><g id="d"><use transform="matrix(0.015190972222222224,0,0,0.015190972222222224,0,0)" xlink:href="#O"/><use transform="matrix(0.015190972222222224,0,0,0.015190972222222224,18.669704861111114,0)" xlink:href="#P"/><use transform="matrix(0.015190972222222224,0,0,0.015190972222222224,37.33940972222223,0)" xlink:href="#Q"/><use transform="matrix(0.015190972222222224,0,0,0.015190972222222224,56.00911458333334,0)" xlink:href="#Q"/><use transform="matrix(0.015190972222222224,0,0,0.015190972222222224,74.67881944444446,0)" xlink:href="#R"/><use transform="matrix(0.015190972222222224,0,0,0.015190972222222224,93.34852430555557,0)" xlink:href="#S"/><use transform="matrix(0.015190972222222224,0,0,0.015190972222222224,112.01822916666669,0)" xlink:href="#P"/></g><path fill="#5e5e5e" d="M442-897c93-139 173-221 377-221 79 0 159 15 240 45l-49 166c-82-30-157-45-224-45-221 0-340 134-340 360V0H264v-1098h148l22 201h8" id="T"/><path fill="#5e5e5e" d="M1020-150v138C933 9 849 20 768 20 527 20 406-95 406-324v-637H139v-94l267-49 77-287h105v293h438v137H588v637c0 130 64 195 192 195 62 0 142-7 240-21" id="U"/><g id="e"><use transform="matrix(0.015190972222222224,0,0,0.015190972222222224,0,0)" xlink:href="#T"/><use transform="matrix(0.015190972222222224,0,0,0.015190972222222224,18.669704861111114,0)" xlink:href="#R"/><use transform="matrix(0.015190972222222224,0,0,0.015190972222222224,37.33940972222223,0)" xlink:href="#U"/><use transform="matrix(0.015190972222222224,0,0,0.015190972222222224,56.00911458333334,0)" xlink:href="#P"/></g><path fill="#5e5e5e" d="M1112-551c0 331-186 571-502 571-301 0-495-251-495-571 0-330 184-567 501-567 302 0 496 249 496 567zM614-131c207 0 310-140 310-420 0-277-104-416-312-416-206 0-309 139-309 416 0 280 104 420 311 420" id="V"/><g id="f"><use transform="matrix(0.015190972222222224,0,0,0.015190972222222224,0,0)" xlink:href="#V"/><use transform="matrix(0.015190972222222224,0,0,0.015190972222222224,18.669704861111114,0)" xlink:href="#T"/></g><path fill="#5e5e5e" d="M887 0v-707c0-173-79-260-238-260-205 0-307 133-307 398V0H160v-1556h182c-2 202 6 416-8 606h10c69-112 181-168 336-168 259 0 389 134 389 401V0H887" id="W"/><path fill="#5e5e5e" d="M578-131c239 0 309-137 309-397v-570h182V0H922l-27-147h-10C815-36 704 20 551 20c-261 0-391-134-391-401v-717h182v707c0 173 79 260 236 260" id="X"/><path fill="#5e5e5e" d="M1092-551c0 322-136 571-430 571-138 0-245-53-322-159h-12c24 220 7 402 12 631H158v-1590h147l27 148h8c73-112 181-168 322-168 294 0 430 246 430 567zM629-967c-241 0-288 156-289 416 0 151 24 259 70 323s120 97 221 97c181 0 272-141 272-422 0-276-91-414-274-414" id="Y"/><g id="g"><use transform="matrix(0.015190972222222224,0,0,0.015190972222222224,0,0)" xlink:href="#U"/><use transform="matrix(0.015190972222222224,0,0,0.015190972222222224,18.669704861111114,0)" xlink:href="#W"/><use transform="matrix(0.015190972222222224,0,0,0.015190972222222224,37.33940972222223,0)" xlink:href="#T"/><use transform="matrix(0.015190972222222224,0,0,0.015190972222222224,56.00911458333334,0)" xlink:href="#V"/><use transform="matrix(0.015190972222222224,0,0,0.015190972222222224,74.67881944444446,0)" xlink:href="#X"/><use transform="matrix(0.015190972222222224,0,0,0.015190972222222224,93.34852430555557,0)" xlink:href="#S"/><use transform="matrix(0.015190972222222224,0,0,0.015190972222222224,112.01822916666669,0)" xlink:href="#W"/><use transform="matrix(0.015190972222222224,0,0,0.015190972222222224,130.6879340277778,0)" xlink:href="#Y"/><use transform="matrix(0.015190972222222224,0,0,0.015190972222222224,149.3576388888889,0)" xlink:href="#X"/><use transform="matrix(0.015190972222222224,0,0,0.015190972222222224,168.02734375000003,0)" xlink:href="#U"/></g><path fill="#ef8d22" d="M532 0L254-1280h-8c34 456 12 817 18 1280H113v-1462h247L608-270h6l250-1192h252V0H963c5-467-12-807 14-1278h-8L686 0H532" id="Z"/><path fill="#ef8d22" d="M596-1118c288 2 430 92 430 366V0H895l-37-152h-8C752-34 680 17 483 20 272 23 135-98 135-307c0-221 170-337 510-348l203-7c15-197-55-305-244-305-98 0-207 27-328 82l-63-137c131-64 258-96 383-96zm-72 991c194 0 325-116 322-311v-99c-251 15-522-6-522 232 0 119 67 178 200 178" id="aa"/><path fill="#ef8d22" d="M510-563l-393-535h207l290 410 291-410h207L717-563 1130 0H924L614-436 303 0H96" id="ab"/><g id="h"><use transform="matrix(0.015190972222222224,0,0,0.015190972222222224,0,0)" xlink:href="#Z"/><use transform="matrix(0.015190972222222224,0,0,0.015190972222222224,18.669704861111114,0)" xlink:href="#aa"/><use transform="matrix(0.015190972222222224,0,0,0.015190972222222224,37.33940972222223,0)" xlink:href="#ab"/></g><path fill="#7ab648" d="M532 0L254-1280h-8c34 456 12 817 18 1280H113v-1462h247L608-270h6l250-1192h252V0H963c5-467-12-807 14-1278h-8L686 0H532" id="ac"/><path fill="#7ab648" d="M739-1436c0 71-43 115-106 115-71 0-107-38-107-115 0-76 36-114 107-114s106 38 106 114zM541-954l-269-21v-123h451v955l352 20V0H197v-123l344-20v-811" id="ad"/><path fill="#7ab648" d="M887 0v-707c0-173-79-260-238-260-205 0-307 133-307 398V0H160v-1098h147l27 148h10c69-112 181-168 336-168 259 0 389 134 389 401V0H887" id="ae"/><g id="i"><use transform="matrix(0.015190972222222224,0,0,0.015190972222222224,0,0)" xlink:href="#ac"/><use transform="matrix(0.015190972222222224,0,0,0.015190972222222224,18.669704861111114,0)" xlink:href="#ad"/><use transform="matrix(0.015190972222222224,0,0,0.015190972222222224,37.33940972222223,0)" xlink:href="#ae"/></g><path fill="#de5f85" d="M739-1462h193c-299 251-449 548-449 893 0 347 149 645 447 893H739C443 89 295-208 295-567c0-355 148-653 444-895" id="af"/><path fill="#de5f85" d="M532 0L254-1280h-8c34 456 12 817 18 1280H113v-1462h247L608-270h6l250-1192h252V0H963c5-467-12-807 14-1278h-8L686 0H532" id="ag"/><path fill="#de5f85" d="M596-1118c288 2 430 92 430 366V0H895l-37-152h-8C752-34 680 17 483 20 272 23 135-98 135-307c0-221 170-337 510-348l203-7c15-197-55-305-244-305-98 0-207 27-328 82l-63-137c131-64 258-96 383-96zm-72 991c194 0 325-116 322-311v-99c-251 15-522-6-522 232 0 119 67 178 200 178" id="ah"/><path fill="#de5f85" d="M510-563l-393-535h207l290 410 291-410h207L717-563 1130 0H924L614-436 303 0H96" id="ai"/><g id="j"><use transform="matrix(0.015190972222222224,0,0,0.015190972222222224,0,0)" xlink:href="#af"/><use transform="matrix(0.015190972222222224,0,0,0.015190972222222224,18.669704861111114,0)" xlink:href="#ag"/><use transform="matrix(0.015190972222222224,0,0,0.015190972222222224,37.33940972222223,0)" xlink:href="#ah"/><use transform="matrix(0.015190972222222224,0,0,0.015190972222222224,56.00911458333334,0)" xlink:href="#ai"/></g><path fill="#de5f85" d="M285-465v-168h659v168H285" id="aj"/><use transform="matrix(0.015190972222222224,0,0,0.015190972222222224,0,0)" xlink:href="#aj" id="k"/><path fill="#de5f85" d="M739-1436c0 71-43 115-106 115-71 0-107-38-107-115 0-76 36-114 107-114s106 38 106 114zM541-954l-269-21v-123h451v955l352 20V0H197v-123l344-20v-811" id="ak"/><path fill="#de5f85" d="M887 0v-707c0-173-79-260-238-260-205 0-307 133-307 398V0H160v-1098h147l27 148h10c69-112 181-168 336-168 259 0 389 134 389 401V0H887" id="al"/><path fill="#de5f85" d="M489 324H299C596 77 745-221 745-569c0-345-149-643-448-893h192c297 241 445 539 445 895 0 360-148 657-445 891" id="am"/><g id="l"><use transform="matrix(0.015190972222222224,0,0,0.015190972222222224,0,0)" xlink:href="#ag"/><use transform="matrix(0.015190972222222224,0,0,0.015190972222222224,18.669704861111114,0)" xlink:href="#ak"/><use transform="matrix(0.015190972222222224,0,0,0.015190972222222224,37.33940972222223,0)" xlink:href="#al"/><use transform="matrix(0.015190972222222224,0,0,0.015190972222222224,56.00911458333334,0)" xlink:href="#am"/></g><path fill="#de5f85" d="M1016-1462L389 0H211l627-1462h178" id="an"/><use transform="matrix(0.015190972222222224,0,0,0.015190972222222224,0,0)" xlink:href="#an" id="m"/><g id="n"><use transform="matrix(0.015190972222222224,0,0,0.015190972222222224,0,0)" xlink:href="#ag"/><use transform="matrix(0.015190972222222224,0,0,0.015190972222222224,18.669704861111114,0)" xlink:href="#ak"/><use transform="matrix(0.015190972222222224,0,0,0.015190972222222224,37.33940972222223,0)" xlink:href="#al"/></g><path fill="#de5f85" d="M152-381l714-342-714-342v-160l923 451v102L152-221v-160" id="ao"/><use transform="matrix(0.015190972222222224,0,0,0.015190972222222224,0,0)" xlink:href="#ao" id="o"/><path fill="#de5f85" d="M707 0H520v-1298H102v-164h1022v164H707V0" id="ap"/><path fill="#de5f85" d="M887 0v-707c0-173-79-260-238-260-205 0-307 133-307 398V0H160v-1556h182c-2 202 6 416-8 606h10c69-112 181-168 336-168 259 0 389 134 389 401V0H887" id="aq"/><path fill="#de5f85" d="M442-897c93-139 173-221 377-221 79 0 159 15 240 45l-49 166c-82-30-157-45-224-45-221 0-340 134-340 360V0H264v-1098h148l22 201h8" id="ar"/><path fill="#de5f85" d="M631-1118c283 0 470 204 465 491v113H322c5 250 120 375 344 375 130 0 253-25 370-76v160C925-5 804 20 672 20c-329 0-539-224-539-561 0-331 182-577 498-577zM326-662h573c0-203-91-305-272-305-183 0-284 102-301 305" id="as"/><path fill="#de5f85" d="M1026-301c0 225-197 321-448 321-165 0-290-23-375-69v-166c129 57 252 86 370 86 183 0 275-54 275-162 0-38-16-71-49-99s-108-63-226-106c-156-57-253-112-293-160s-61-105-61-171c2-338 524-340 789-217l-60 149c-121-48-228-72-319-72-157 0-236 44-236 133 0 41 17 74 51 98s111 57 232 101c141 51 234 101 280 151s70 111 70 183" id="at"/><path fill="#de5f85" d="M1112-551c0 331-186 571-502 571-301 0-495-251-495-571 0-330 184-567 501-567 302 0 496 249 496 567zM614-131c207 0 310-140 310-420 0-277-104-416-312-416-206 0-309 139-309 416 0 280 104 420 311 420" id="au"/><path fill="#de5f85" d="M532-1413l-268-21v-122h451v1413l352 20V0H188v-123l344-20v-1270" id="av"/><path fill="#de5f85" d="M137-547c0-322 136-571 430-571 137 0 245 53 322 160h12c-24-215-7-376-12-598h182V0H924l-27-147h-8C814-36 706 20 567 20c-294 0-430-246-430-567zm463 416c241 0 288-157 289-416 0-151-23-259-69-323s-121-97-222-97c-181 0-272 141-272 422 0 276 91 414 274 414" id="aw"/><g id="p"><use transform="matrix(0.015190972222222224,0,0,0.015190972222222224,0,0)" xlink:href="#ap"/><use transform="matrix(0.015190972222222224,0,0,0.015190972222222224,18.669704861111114,0)" xlink:href="#aq"/><use transform="matrix(0.015190972222222224,0,0,0.015190972222222224,37.33940972222223,0)" xlink:href="#ar"/><use transform="matrix(0.015190972222222224,0,0,0.015190972222222224,56.00911458333334,0)" xlink:href="#as"/><use transform="matrix(0.015190972222222224,0,0,0.015190972222222224,74.67881944444446,0)" xlink:href="#at"/><use transform="matrix(0.015190972222222224,0,0,0.015190972222222224,93.34852430555557,0)" xlink:href="#aq"/><use transform="matrix(0.015190972222222224,0,0,0.015190972222222224,112.01822916666669,0)" xlink:href="#au"/><use transform="matrix(0.015190972222222224,0,0,0.015190972222222224,130.6879340277778,0)" xlink:href="#av"/><use transform="matrix(0.015190972222222224,0,0,0.015190972222222224,149.3576388888889,0)" xlink:href="#aw"/></g><path fill="#de5f85" d="M1087-391c0 281-226 411-532 411-177 0-315-23-414-69v-178c141 57 279 86 414 86 233 0 350-80 350-240 0-69-24-123-71-160s-142-82-285-133c-139-49-239-106-299-174s-90-156-90-264c2-252 211-371 481-371 153 0 291 26 416 78l-64 164c-129-52-249-78-360-78-195 0-293 70-293 209 0 68 22 123 66 164s134 85 270 133c164 58 273 119 328 181s83 143 83 241" id="ax"/><g id="q"><use transform="matrix(0.015190972222222224,0,0,0.015190972222222224,0,0)" xlink:href="#ax"/><use transform="matrix(0.015190972222222224,0,0,0.015190972222222224,18.669704861111114,0)" xlink:href="#aq"/><use transform="matrix(0.015190972222222224,0,0,0.015190972222222224,37.33940972222223,0)" xlink:href="#as"/><use transform="matrix(0.015190972222222224,0,0,0.015190972222222224,56.00911458333334,0)" xlink:href="#aw"/></g><path fill="#de5f85" d="M1092-551c0 322-136 571-430 571-138 0-245-53-322-159h-12L291 0H158v-1556h182c-2 221 6 379-8 602h8c71-109 179-164 322-164 294 0 430 246 430 567zM629-967c-241 0-289 146-289 416 0 151 24 259 70 323s120 97 221 97c181 0 272-141 272-422 0-276-91-414-274-414" id="ay"/><path fill="#de5f85" d="M578-131c239 0 309-137 309-397v-570h182V0H922l-27-147h-10C815-36 704 20 551 20c-261 0-391-134-391-401v-717h182v707c0 173 79 260 236 260" id="az"/><g id="r"><use transform="matrix(0.015190972222222224,0,0,0.015190972222222224,0,0)" xlink:href="#ay"/><use transform="matrix(0.015190972222222224,0,0,0.015190972222222224,18.669704861111114,0)" xlink:href="#az"/><use transform="matrix(0.015190972222222224,0,0,0.015190972222222224,37.33940972222223,0)" xlink:href="#al"/><use transform="matrix(0.015190972222222224,0,0,0.015190972222222224,56.00911458333334,0)" xlink:href="#aw"/><use transform="matrix(0.015190972222222224,0,0,0.015190972222222224,74.67881944444446,0)" xlink:href="#av"/><use transform="matrix(0.015190972222222224,0,0,0.015190972222222224,93.34852430555557,0)" xlink:href="#as"/><use transform="matrix(0.015190972222222224,0,0,0.015190972222222224,112.01822916666669,0)" xlink:href="#at"/></g><path fill="#de5f85" d="M152-852v-149h923v149H152zm0 410v-150h923v150H152" id="aA"/><use transform="matrix(0.015190972222222224,0,0,0.015190972222222224,0,0)" xlink:href="#aA" id="s"/><g id="t"><use transform="matrix(0.015190972222222224,0,0,0.015190972222222224,0,0)" xlink:href="#af"/><use transform="matrix(0.015190972222222224,0,0,0.015190972222222224,18.669704861111114,0)" xlink:href="#ag"/><use transform="matrix(0.015190972222222224,0,0,0.015190972222222224,37.33940972222223,0)" xlink:href="#ah"/><use transform="matrix(0.015190972222222224,0,0,0.015190972222222224,56.00911458333334,0)" xlink:href="#ai"/></g><use transform="matrix(0.015190972222222224,0,0,0.015190972222222224,0,0)" xlink:href="#ai" id="u"/><path fill="#de5f85" d="M612 20c-153 0-268-65-347-194S147-489 147-733c0-501 155-752 465-752 155 0 271 64 350 193s119 316 119 559c0 502-156 753-469 753zm0-155c98 0 165-50 216-141 86-153 87-759 0-912-51-91-118-141-216-141-97 0-162 49-212 139-85 152-84 764 0 915 50 90 115 140 212 140" id="aB"/><path fill="#de5f85" d="M614-301c101 0 152 55 152 166S715 31 614 31 463-24 463-135s50-166 151-166" id="aC"/><path fill="#de5f85" d="M594-1483c248 0 420 149 418 391 0 79-21 160-59 244-73 161-414 504-572 674v8h688V0H158v-156c172-193 489-508 607-698 43-69 62-147 62-231 0-146-91-244-235-244-107 0-213 46-318 137l-102-119c128-115 269-172 422-172" id="aD"/><g id="v"><use transform="matrix(0.015190972222222224,0,0,0.015190972222222224,0,0)" xlink:href="#aB"/><use transform="matrix(0.015190972222222224,0,0,0.015190972222222224,18.669704861111114,0)" xlink:href="#aC"/><use transform="matrix(0.015190972222222224,0,0,0.015190972222222224,37.33940972222223,0)" xlink:href="#aD"/></g><g id="w"><use transform="matrix(0.015190972222222224,0,0,0.015190972222222224,0,0)" xlink:href="#ap"/><use transform="matrix(0.015190972222222224,0,0,0.015190972222222224,18.669704861111114,0)" xlink:href="#aq"/><use transform="matrix(0.015190972222222224,0,0,0.015190972222222224,37.33940972222223,0)" xlink:href="#ar"/><use transform="matrix(0.015190972222222224,0,0,0.015190972222222224,56.00911458333334,0)" xlink:href="#as"/><use transform="matrix(0.015190972222222224,0,0,0.015190972222222224,74.67881944444446,0)" xlink:href="#at"/><use transform="matrix(0.015190972222222224,0,0,0.015190972222222224,93.34852430555557,0)" xlink:href="#aq"/><use transform="matrix(0.015190972222222224,0,0,0.015190972222222224,112.01822916666669,0)" xlink:href="#au"/><use transform="matrix(0.015190972222222224,0,0,0.015190972222222224,130.6879340277778,0)" xlink:href="#av"/><use transform="matrix(0.015190972222222224,0,0,0.015190972222222224,149.3576388888889,0)" xlink:href="#aw"/></g></defs></g></svg>