<svg xmlns="http://www.w3.org/2000/svg" xmlns:xlink="http://www.w3.org/1999/xlink" xmlns:lucid="lucid" width="1510" height="536.25"><g transform="translate(-10 -80)" lucid:page-tab-id="0_0"><path d="M0 0h1870.87v1322.83H0z" fill="#fff"/><path d="M500 154.93c0-3.32 2.7-6 6-6h268c3.3 0 6 2.68 6 6v184.25c0 3.3-2.7 6-6 6H506c-3.3 0-6-2.7-6-6z" stroke="#5e5e5e" stroke-width="3" fill-opacity="0"/><use xlink:href="#a" transform="matrix(1,0,0,1,505,153.92578125000006) translate(135 18.564453124999996)"/><use xlink:href="#b" transform="matrix(1,0,0,1,505,153.92578125000006) translate(135 41.84570312499999)"/><use xlink:href="#b" transform="matrix(1,0,0,1,505,153.92578125000006) translate(135 65.12695312499999)"/><use xlink:href="#b" transform="matrix(1,0,0,1,505,153.92578125000006) translate(135 88.40820312499999)"/><use xlink:href="#b" transform="matrix(1,0,0,1,505,153.92578125000006) translate(135 111.68945312499999)"/><use xlink:href="#c" transform="matrix(1,0,0,1,505,153.92578125000006) translate(135 134.97070312499997)"/><use xlink:href="#d" transform="matrix(1,0,0,1,505,153.92578125000006) translate(135 158.25195312499997)"/><use xlink:href="#e" transform="matrix(1,0,0,1,505,153.92578125000006) translate(92.9931640625 181.53320312499997)"/><path d="M1428 165c39.76 0 72 22.4 72 50s-32.24 50-72 50h-216c-39.76 0-72-22.4-72-50s32.24-50 72-50z" stroke="#188fff" stroke-width="4" fill="#188fff"/><use xlink:href="#f" transform="matrix(1,0,0,1,1145,170) translate(102.1931510416667 41.270724826388886)"/><use xlink:href="#g" transform="matrix(1,0,0,1,1145,170) translate(187.14030815972222 41.270724826388886)"/><use xlink:href="#h" transform="matrix(1,0,0,1,1145,170) translate(17.245993923611117 64.81065538194443)"/><path d="M664 180c19.88 0 36 17.9 36 40s-16.12 40-36 40H556c-19.88 0-36-17.9-36-40s16.12-40 36-40z" stroke="#cfe4ff" stroke-width="4" fill="#cfe4ff"/><use xlink:href="#i" transform="matrix(1,0,0,1,525,185) translate(12.1881510416667 42.833224826388886)"/><use xlink:href="#j" transform="matrix(1,0,0,1,525,185) translate(97.13530815972221 42.833224826388886)"/><path d="M80 171c0-3.3 2.7-6 6-6h108c3.3 0 6 2.7 6 6v78c0 3.3-2.7 6-6 6H86c-3.3 0-6-2.7-6-6z" stroke="#000" stroke-opacity="0" stroke-width="3" fill="#188fff"/><path d="M110.83 239.4h58.34c4.6 0 8.33-3.68 8.33-8.32v-41.63c0-4.65-3.74-8.32-8.33-8.32h-58.34c-4.57 0-8.33 3.67-8.33 8.32v41.63c0 4.64 3.76 8.32 8.33 8.32m33.37-41.62h27.74v5.54H144.2v-5.54zm0 11.1h27.74v5.55H144.2v-5.56zm0 11.1h27.74v5.55H144.2v-5.56zm-21.74-25.28c4.04 0 7.27 3.22 7.27 7.27 0 4.05-3.23 7.28-7.27 7.28-4 0-7.3-3.23-7.3-7.28 0-4.05 3.3-7.27 7.3-7.27m.14 17.48c6.97 0 12.74 5.85 13.36 13.34.07.98-.3 1.88-1.13 2.4-3.53 2.18-7.73 3.46-12.23 3.46s-8.63-1.28-12.23-3.45c-.74-.53-1.2-1.43-1.1-2.4.66-7.5 6.36-13.35 13.33-13.35" fill="#69b6ff"/><path d="M229.32 201.55H201v-2h28.32zm250.68 0h-47.98v-2H480z" stroke="#5e5e5e" stroke-width=".05" fill="#5e5e5e"/><path d="M201.03 201.55H200v-2h1.03z" fill="#5e5e5e"/><path d="M201.05 201.57h-1.08v-2.05h1.08zm-1.03-2v1.95h.98v-1.95z" stroke="#5e5e5e" stroke-width=".05" fill="#5e5e5e"/><path d="M495.26 200.55L481 205.18v-9.27z" fill="#5e5e5e"/><path d="M498.5 200.55l-18.5 6v-12zM482 203.8l10.03-3.25L482 197.3z" stroke="#5e5e5e" stroke-width=".05" fill="#5e5e5e"/><use xlink:href="#k" transform="matrix(1,0,0,1,229.31684027777777,190.19968929995719) translate(0 16.50173611111111)"/><use xlink:href="#l" transform="matrix(1,0,0,1,229.31684027777777,190.19968929995719) translate(74.67881944444446 16.50173611111111)"/><use xlink:href="#m" transform="matrix(1,0,0,1,229.31684027777777,190.19968929995719) translate(128.02083333333334 16.50173611111111)"/><path d="M30 106c0-3.3 2.7-6 6-6h228c3.3 0 6 2.7 6 6v48c0 3.3-2.7 6-6 6H36c-3.3 0-6-2.7-6-6z" stroke="#000" stroke-opacity="0" stroke-width="3" fill="#fff" fill-opacity="0"/><use xlink:href="#n" transform="matrix(1,0,0,1,35,105) translate(42.988281250000014 31.064453124999996)"/><path d="M497.5 246.05v2l-46.9-.26v-2zm-249.6-1.4v2l-29.4-.15v-2z" stroke="#5e5e5e" stroke-width=".05" fill="#5e5e5e"/><path d="M498.5 246.05v2h-1.03v-2z" fill="#5e5e5e"/><path d="M498.52 246.03v2.05h-1.08l.02-2.06zm-1.03 2h.98v-1.95h-.98z" stroke="#5e5e5e" stroke-width=".05" fill="#5e5e5e"/><path d="M217.48 250.13l-14.24-4.7 14.3-4.57z" fill="#5e5e5e"/><path d="M218.47 251.5L200 245.4l18.53-5.9zm-12-6.06l10 3.3.05-6.5z" stroke="#5e5e5e" stroke-width=".05" fill="#5e5e5e"/><use xlink:href="#o" transform="matrix(1,0,0,1,247.9001736111111,235.8781684473837) translate(0 16.50173611111111)"/><use xlink:href="#l" transform="matrix(1,0,0,1,247.9001736111111,235.8781684473837) translate(74.67881944444446 16.50173611111111)"/><use xlink:href="#m" transform="matrix(1,0,0,1,247.9001736111111,235.8781684473837) translate(128.02083333333334 16.50173611111111)"/><path d="M839.9 198.46l-57.4.47v-2l57.4-.47zm285.28-2.3l-39.9.3v-2l39.88-.3z" stroke="#5e5e5e" stroke-width=".05" fill="#5e5e5e"/><path d="M782.53 198.93h-1.03v-2h1.02z" fill="#5e5e5e"/><path d="M782.56 198.95h-1.08v-2.04h1.06zm-1.03-2v1.96h.98v-1.95z" stroke="#5e5e5e" stroke-width=".05" fill="#5e5e5e"/><path d="M1140.44 195.03l-14.23 4.75-.07-9.27z" fill="#5e5e5e"/><path d="M1143.67 195l-18.45 6.16-.1-12.02zm-16.47 3.4l10-3.35-10.05-3.17z" stroke="#5e5e5e" stroke-width=".05" fill="#5e5e5e"/><use xlink:href="#p" transform="matrix(1,0,0,1,839.9001312266337,186.12143403751702) translate(0 16.50173611111111)"/><use xlink:href="#q" transform="matrix(1,0,0,1,839.9001312266337,186.12143403751702) translate(106.68402777777777 16.50173611111111)"/><use xlink:href="#r" transform="matrix(1,0,0,1,839.9001312266337,186.12143403751702) translate(181.36284722222223 16.50173611111111)"/><path d="M1124.74 233.23v2l-39.7-.07v-2zm-285.06-.45v2l-57.18-.08v-2z" stroke="#5e5e5e" stroke-width=".05" fill="#5e5e5e"/><path d="M1140 234.25l-14.27 4.6v-9.26z" fill="#5e5e5e"/><path d="M1143.24 234.25l-18.52 6 .02-12.04zm-16.5 3.24l10.02-3.26-10.02-3.27z" stroke="#5e5e5e" stroke-width=".05" fill="#5e5e5e"/><path d="M782.53 232.7v2h-1.03v-2z" fill="#5e5e5e"/><path d="M782.55 232.67v2.05h-1.07v-2.05zm-1.02 2h.97v-1.95h-.98z" stroke="#5e5e5e" stroke-width=".05" fill="#5e5e5e"/><use xlink:href="#s" transform="matrix(1,0,0,1,839.6811875983618,223.62686199002366) translate(0 16.50173611111111)"/><use xlink:href="#q" transform="matrix(1,0,0,1,839.6811875983618,223.62686199002366) translate(106.68402777777777 16.50173611111111)"/><use xlink:href="#r" transform="matrix(1,0,0,1,839.6811875983618,223.62686199002366) translate(181.36284722222223 16.50173611111111)"/><path d="M655.6 287.68l.02.05v1.32l-.02.05-.7.3-.7-.3-.3-.7.3-.72.7-.3zm-4.03-.06l.3.7-.3.7-.7.3-.7-.3-.3-.7.3-.7.7-.3zm-4.03-.14l.3.7-.3.72-.7.3-.7-.3-.3-.7.3-.72.7-.3zm-4.02-.27l.3.72-.3.7-.7.3-.7-.3-.3-.7.3-.7.7-.3zm-4-.45l.3.7-.3.7-.7.3-.72-.3-.3-.7.3-.7.7-.3zm-3.98-.65l.3.7-.3.7-.7.3-.7-.3-.3-.7.3-.7.7-.3zm-3.93-.9l.3.7-.3.7-.7.3-.7-.3-.3-.7.3-.7.7-.3zm-3.84-1.2l.3.72-.3.7-.7.3-.7-.3-.3-.7.3-.7.7-.3zm-3.7-1.55l.28.7-.3.72-.7.3-.7-.3-.3-.7.3-.72.7-.3zm-3.5-2l.28.7-.3.72-.7.3-.7-.3-.3-.7.3-.7.7-.3zm122.26-6.84l.3.72-.3.7-.7.3-.72-.3-.3-.7.3-.7.7-.3zm3.65-1.7l.3.7-.3.7-.7.3-.72-.3-.3-.7.3-.7.7-.3zm3.5-1.97l.3.7-.3.7-.7.3-.7-.3-.3-.7.3-.7.7-.3zm3.35-2.26l.3.7-.3.72-.7.28-.7-.3-.3-.7.3-.7.7-.3zm3.15-2.5l.3.7-.3.7-.7.3-.7-.3-.3-.7.3-.7.7-.3zm2.98-2.72l.3.7-.3.7-.7.3-.72-.3-.3-.7.3-.7.7-.3zm2.8-2.9l.3.72-.3.7-.7.3-.7-.3-.3-.7.3-.7.7-.3zm2.64-3.05l.28.7-.3.72-.7.3-.7-.3-.3-.7.3-.72.7-.3zm2.58-3.08l.3.7-.3.7-.7.3-.72-.3-.3-.7.3-.7.7-.3zm2.36-3.27l.3.7-.3.7-.7.3-.72-.3-.3-.7.3-.7.7-.3zm2.35-3.27l.3.7-.3.7-.7.3-.72-.3-.3-.7.3-.7.7-.3zm2.35-3.27l.3.7-.3.72-.7.3-.7-.3-.3-.7.3-.7.7-.3zm2.36-3.26l.3.7-.3.7-.7.3-.7-.3-.3-.7.3-.7.7-.3zm2.36-3.27l.3.7-.3.7-.7.3-.7-.3-.3-.7.3-.7.7-.3zm2.36-3.27l.3.7-.3.7-.7.3-.7-.3-.3-.7.3-.7.7-.3z" fill="#5e5e5e"/><path d="M782.3 234.28l-.6.83-1.6-1.16.6-.83z" stroke="#5e5e5e" stroke-width=".05" fill="#5e5e5e"/><path d="M620.8 276.52l-8.6 3.45-1-14.97z" fill="#5e5e5e"/><path d="M622.46 276.94l-11.16 4.47L610 262zm-9.35 1.6l6.06-2.43-6.75-8.1z" stroke="#5e5e5e" stroke-width=".05" fill="#5e5e5e"/><g><use xlink:href="#t" transform="matrix(1,0,0,1,655.620423877437,273.78440744036885) translate(0 16.50173611111111)"/><use xlink:href="#u" transform="matrix(1,0,0,1,655.620423877437,273.78440744036885) translate(10.668402777777779 16.50173611111111)"/></g><path d="M500 406c0-3.3 2.7-6 6-6h268c3.3 0 6 2.7 6 6v184.25c0 3.3-2.7 6-6 6H506c-3.3 0-6-2.7-6-6z" stroke="#5e5e5e" stroke-width="3" fill-opacity="0"/><g><use xlink:href="#a" transform="matrix(1,0,0,1,505,404.99999999999994) translate(135 18.564453124999996)"/><use xlink:href="#b" transform="matrix(1,0,0,1,505,404.99999999999994) translate(135 41.84570312499999)"/><use xlink:href="#b" transform="matrix(1,0,0,1,505,404.99999999999994) translate(135 65.12695312499999)"/><use xlink:href="#b" transform="matrix(1,0,0,1,505,404.99999999999994) translate(135 88.40820312499999)"/><use xlink:href="#b" transform="matrix(1,0,0,1,505,404.99999999999994) translate(135 111.68945312499999)"/><use xlink:href="#c" transform="matrix(1,0,0,1,505,404.99999999999994) translate(135 134.97070312499997)"/><use xlink:href="#d" transform="matrix(1,0,0,1,505,404.99999999999994) translate(135 158.25195312499997)"/><use xlink:href="#v" transform="matrix(1,0,0,1,505,404.99999999999994) translate(92.9931640625 181.53320312499997)"/></g><path d="M664 431.07c19.88 0 36 17.9 36 40s-16.12 40-36 40H556c-19.88 0-36-17.9-36-40s16.12-40 36-40z" stroke="#cfe4ff" stroke-width="4" fill="#cfe4ff"/><g><use xlink:href="#i" transform="matrix(1,0,0,1,525,436.07421874999994) translate(12.1881510416667 42.833224826388886)"/><use xlink:href="#j" transform="matrix(1,0,0,1,525,436.07421874999994) translate(97.13530815972221 42.833224826388886)"/></g><path d="M654.95 538.75l.3.7-.3.7-.7.3-.72-.3-.3-.7.3-.7.7-.3zm-3.97-.07l.3.7-.3.72-.7.3-.7-.3-.3-.7.3-.72.7-.3zm-3.96-.16l.3.7-.3.72-.7.3-.7-.3-.3-.7.3-.72.7-.3zm-3.95-.28l.3.7-.3.7-.7.3-.72-.3-.3-.7.3-.7.7-.3zm-3.94-.46l.3.7-.3.7-.7.3-.72-.3-.28-.7.3-.7.7-.3zm-3.9-.67l.28.72-.28.7-.7.3-.72-.3-.3-.7.3-.7.7-.3zm-3.87-.9l.3.7-.3.7-.7.3-.7-.3-.3-.7.3-.7.7-.3zm-3.78-1.2l.3.72-.3.7-.7.3-.72-.3-.3-.7.3-.7.7-.3zm-3.65-1.53l.3.7-.3.7-.7.3-.7-.3-.3-.7.3-.7.7-.3zm-3.44-1.97l.3.7-.3.7-.7.3-.72-.3-.3-.7.3-.7.7-.3zm124.22-6.95l.3.7-.3.7-.7.3-.72-.3-.3-.7.3-.7.7-.3zm3.62-1.6l.3.7-.3.7-.7.3-.7-.3-.3-.7.3-.7.7-.3zm3.52-1.84l.3.72-.3.7-.7.3-.72-.3-.3-.7.3-.7.7-.3zm3.37-2.07l.3.7-.3.72-.7.3-.72-.3-.28-.7.3-.72.7-.3zm3.2-2.34l.3.7-.3.7-.7.3-.72-.3-.28-.7.3-.7.7-.3zm3-2.6l.3.7-.3.7-.7.3-.72-.3-.28-.7.3-.7.7-.3zm2.8-2.8l.3.7-.3.7-.7.3-.72-.3-.28-.7.3-.7.7-.3zm2.63-2.97l.3.7-.3.7-.7.3-.72-.3-.3-.7.3-.7.7-.3zm2.42-3.14l.3.7-.3.7-.7.3-.7-.3-.3-.7.3-.7.7-.3zm2.3-3.24l.3.7-.3.7-.7.3-.72-.3-.3-.7.3-.7.7-.3zm2.2-3.3l.3.7-.3.7-.7.3-.72-.3-.3-.7.3-.7.7-.3zm2.05-3.4l.3.72-.3.7-.7.3-.7-.3-.3-.7.3-.7.7-.3zm1.96-3.44l.28.7-.3.72-.7.3-.7-.3-.3-.7.3-.72.7-.3zm1.95-3.44l.3.7-.3.7-.7.3-.7-.3-.3-.7.3-.7.7-.3zm1.96-3.45l.3.7-.3.72-.7.3-.7-.3-.3-.7.3-.72.7-.3z" fill="#5e5e5e"/><path d="M782.37 485.26l-.5.9-1.75-1 .5-.9z" stroke="#5e5e5e" stroke-width=".05" fill="#5e5e5e"/><path d="M620.8 527.6l-8.6 3.44-1-14.96z" fill="#5e5e5e"/><path d="M622.46 528l-11.16 4.48-1.3-19.4zm-9.35 1.6l6.06-2.42-6.75-8.1z" stroke="#5e5e5e" stroke-width=".05" fill="#5e5e5e"/><g><use xlink:href="#t" transform="matrix(1,0,0,1,656.0890366947139,524.7924435597982) translate(0 16.50173611111111)"/><use xlink:href="#u" transform="matrix(1,0,0,1,656.0890366947139,524.7924435597982) translate(10.668402777777779 16.50173611111111)"/></g><path d="M782.8 487.88l-.75-1.85 240.77-98.52h5.28zm520.45-212.95l-224.57 91.9h-5.28l229.1-93.75z" stroke="#5e5e5e" stroke-width=".05" fill="#5e5e5e"/><path d="M1305.56 277.92l-3.5-8.58 14.94-1.1z" fill="#5e5e5e"/><path d="M1305.15 279.57l-4.55-11.13L1320 267zm-1.66-9.34l2.46 6.04 8.05-6.82z" stroke="#5e5e5e" stroke-width=".05" fill="#5e5e5e"/><path d="M782.83 487.87l-1.33.54v-2.15l.57-.23z" fill="#5e5e5e"/><path d="M782.86 487.88l-1.38.57v-2.2l.6-.26zm-1.34-1.6v2.1l1.28-.52-.74-1.8z" stroke="#5e5e5e" stroke-width=".05" fill="#5e5e5e"/><g><use xlink:href="#s" transform="matrix(1,0,0,1,928.0633680555555,366.8194444444444) translate(0 16.50173611111111)"/><use xlink:href="#q" transform="matrix(1,0,0,1,928.0633680555555,366.8194444444444) translate(106.68402777777777 16.50173611111111)"/><use xlink:href="#r" transform="matrix(1,0,0,1,928.0633680555555,366.8194444444444) translate(181.36284722222223 16.50173611111111)"/></g><defs><path fill="#333" d="M1137-424C1137-153 941 0 662 0H135v-1462c284 7 685-30 837 88 80 62 124 152 124 282 0 179-125 297-291 316v10c221 36 332 150 332 342zm-232-655c0-182-120-224-319-224H322v461h284c195-2 299-53 299-237zM322-686v528h307c207 0 311-91 311-274 0-169-108-254-324-254H322" id="w"/><path fill="#333" d="M442-897c93-139 173-221 377-221 79 0 159 15 240 45l-49 166c-82-30-157-45-224-45-221 0-340 134-340 360V0H264v-1098h148l22 201h8" id="x"/><path fill="#333" d="M1112-551c0 331-186 571-502 571-301 0-495-251-495-571 0-330 184-567 501-567 302 0 496 249 496 567zM614-131c207 0 310-140 310-420 0-277-104-416-312-416-206 0-309 139-309 416 0 280 104 420 311 420" id="y"/><path fill="#333" d="M383-553l135-152 395-393h222L641-623 1163 0H950L524-504l-129 82V0H215v-1556h180c-3 337 9 689-16 1003h4" id="z"/><path fill="#333" d="M631-1118c283 0 470 204 465 491v113H322c5 250 120 375 344 375 130 0 253-25 370-76v160C925-5 804 20 672 20c-329 0-539-224-539-561 0-331 182-577 498-577zM326-662h573c0-203-91-305-272-305-183 0-284 102-301 305" id="A"/><path fill="#333" d="M612 20c-153 0-268-65-347-194S147-489 147-733c0-501 155-752 465-752 155 0 271 64 350 193s119 316 119 559c0 502-156 753-469 753zm0-155c98 0 165-50 216-141 86-153 87-759 0-912-51-91-118-141-216-141-97 0-162 49-212 139-85 152-84 764 0 915 50 90 115 140 212 140" id="B"/><g id="e"><use transform="matrix(0.009765624999999998,0,0,0.009765624999999998,0,0)" xlink:href="#w"/><use transform="matrix(0.009765624999999998,0,0,0.009765624999999998,12.001953124999998,0)" xlink:href="#x"/><use transform="matrix(0.009765624999999998,0,0,0.009765624999999998,24.003906249999996,0)" xlink:href="#y"/><use transform="matrix(0.009765624999999998,0,0,0.009765624999999998,36.00585937499999,0)" xlink:href="#z"/><use transform="matrix(0.009765624999999998,0,0,0.009765624999999998,48.00781249999999,0)" xlink:href="#A"/><use transform="matrix(0.009765624999999998,0,0,0.009765624999999998,60.009765624999986,0)" xlink:href="#x"/><use transform="matrix(0.009765624999999998,0,0,0.009765624999999998,72.01171874999999,0)" xlink:href="#B"/></g><path fill="#fff" d="M1087-391c0 281-226 411-532 411-177 0-315-23-414-69v-178c141 57 279 86 414 86 233 0 350-80 350-240 0-69-24-123-71-160s-142-82-285-133c-139-49-239-106-299-174s-90-156-90-264c2-252 211-371 481-371 153 0 291 26 416 78l-64 164c-129-52-249-78-360-78-195 0-293 70-293 209 0 68 22 123 66 164s134 85 270 133c164 58 273 119 328 181s83 143 83 241" id="C"/><path fill="#fff" d="M82-1098h188l262 654c55 137 84 233 89 290h6c15-75 45-172 90-292l239-652h189L670 143c-45 116-99 201-156 261-87 92-259 104-414 71V330c92 17 226 18 286-29 67-53 115-195 153-291" id="D"/><path fill="#fff" d="M1026-301c0 225-197 321-448 321-165 0-290-23-375-69v-166c129 57 252 86 370 86 183 0 275-54 275-162 0-38-16-71-49-99s-108-63-226-106c-156-57-253-112-293-160s-61-105-61-171c2-338 524-340 789-217l-60 149c-121-48-228-72-319-72-157 0-236 44-236 133 0 41 17 74 51 98s111 57 232 101c141 51 234 101 280 151s70 111 70 183" id="E"/><path fill="#fff" d="M1020-150v138C933 9 849 20 768 20 527 20 406-95 406-324v-637H139v-94l267-49 77-287h105v293h438v137H588v637c0 130 64 195 192 195 62 0 142-7 240-21" id="F"/><path fill="#fff" d="M631-1118c283 0 470 204 465 491v113H322c5 250 120 375 344 375 130 0 253-25 370-76v160C925-5 804 20 672 20c-329 0-539-224-539-561 0-331 182-577 498-577zM326-662h573c0-203-91-305-272-305-183 0-284 102-301 305" id="G"/><path fill="#fff" d="M977 0v-707c0-97-9-165-27-203s-47-57-88-57c-58 0-100 28-126 83s-40 148-40 278V0H535v-707c0-173-42-260-125-260-56 0-96 26-120 79s-36 160-36 319V0H92v-1098h127l27 148h10c45-112 112-168 201-168 109 0 180 61 213 182h6c51-121 124-182 219-182 85 0 147 30 186 92s58 165 58 309V0H977" id="H"/><g id="f"><use transform="matrix(0.00987413194444444,0,0,0.00987413194444444,0,0)" xlink:href="#C"/><use transform="matrix(0.00987413194444444,0,0,0.00987413194444444,12.135308159722218,0)" xlink:href="#D"/><use transform="matrix(0.00987413194444444,0,0,0.00987413194444444,24.270616319444436,0)" xlink:href="#E"/><use transform="matrix(0.00987413194444444,0,0,0.00987413194444444,36.40592447916666,0)" xlink:href="#F"/><use transform="matrix(0.00987413194444444,0,0,0.00987413194444444,48.54123263888887,0)" xlink:href="#G"/><use transform="matrix(0.00987413194444444,0,0,0.00987413194444444,60.676540798611086,0)" xlink:href="#H"/></g><path fill="#fff" d="M1112-551c0 331-186 571-502 571-301 0-495-251-495-571 0-330 184-567 501-567 302 0 496 249 496 567zM614-131c207 0 310-140 310-420 0-277-104-416-312-416-206 0-309 139-309 416 0 280 104 420 311 420" id="I"/><path fill="#fff" d="M1092-551c0 322-136 571-430 571-138 0-245-53-322-159h-12c24 220 7 402 12 631H158v-1590h147l27 148h8c73-112 181-168 322-168 294 0 430 246 430 567zM629-967c-241 0-288 156-289 416 0 151 24 259 70 323s120 97 221 97c181 0 272-141 272-422 0-276-91-414-274-414" id="J"/><path fill="#fff" d="M739-1436c0 71-43 115-106 115-71 0-107-38-107-115 0-76 36-114 107-114s106 38 106 114zM541-954l-269-21v-123h451v955l352 20V0H197v-123l344-20v-811" id="K"/><path fill="#fff" d="M172-543c0-365 197-575 553-575 119 0 231 20 336 59l-62 158c-100-38-189-57-268-57-247 0-371 138-371 413 0 271 120 406 361 406 105 0 212-21 321-62v160C953 0 843 20 713 20c-347 1-541-210-541-563" id="L"/><g id="g"><use transform="matrix(0.00987413194444444,0,0,0.00987413194444444,0,0)" xlink:href="#F"/><use transform="matrix(0.00987413194444444,0,0,0.00987413194444444,12.135308159722218,0)" xlink:href="#I"/><use transform="matrix(0.00987413194444444,0,0,0.00987413194444444,24.270616319444436,0)" xlink:href="#J"/><use transform="matrix(0.00987413194444444,0,0,0.00987413194444444,36.40592447916666,0)" xlink:href="#K"/><use transform="matrix(0.00987413194444444,0,0,0.00987413194444444,48.54123263888887,0)" xlink:href="#L"/></g><path fill="#fff" d="M739-1462h193c-299 251-449 548-449 893 0 347 149 645 447 893H739C443 89 295-208 295-567c0-355 148-653 444-895" id="M"/><path fill="#fff" d="M887 0v-707c0-173-79-260-238-260-205 0-307 133-307 398V0H160v-1098h147l27 148h10c69-112 181-168 336-168 259 0 389 134 389 401V0H887" id="N"/><path fill="#fff" d="M596-1118c288 2 430 92 430 366V0H895l-37-152h-8C752-34 680 17 483 20 272 23 135-98 135-307c0-221 170-337 510-348l203-7c15-197-55-305-244-305-98 0-207 27-328 82l-63-137c131-64 258-96 383-96zm-72 991c194 0 325-116 322-311v-99c-251 15-522-6-522 232 0 119 67 178 200 178" id="O"/><path fill="#fff" d="M1016-1462L389 0H211l627-1462h178" id="P"/><path fill="#fff" d="M1243 324H-16V184h1259v140" id="Q"/><path fill="#fff" d="M887 0v-707c0-173-79-260-238-260-205 0-307 133-307 398V0H160v-1556h182c-2 202 6 416-8 606h10c69-112 181-168 336-168 259 0 389 134 389 401V0H887" id="R"/><path fill="#fff" d="M188-739c-1-248 156-381 410-379 57 0 107 7 150 20h378v113l-196 27c43 57 65 128 65 213 2 253-212 385-489 346-67 37-100 82-100 133 0 56 54 84 161 84h187c216-2 358 93 358 297 0 251-188 377-565 377-145 0-255-26-331-80S102 283 102 186c0-141 80-231 240-270-64-31-96-83-96-154 0-75 44-139 133-192-109-41-191-166-191-309zm406 221c149 0 223-77 223-230 0-159-75-239-225-239s-225 81-225 242c0 151 76 227 227 227zm346 649c0-146-78-149-248-149H504c-153 0-230 66-230 198 0 116 90 174 271 174 263 0 395-74 395-223" id="S"/><path fill="#fff" d="M498 0L82-1098h188l240 652c57 154 90 262 100 325h6c67-256 244-708 340-977h189L729 0H498" id="T"/><path fill="#fff" d="M489 324H299C596 77 745-221 745-569c0-345-149-643-448-893h192c297 241 445 539 445 895 0 360-148 657-445 891" id="U"/><g id="h"><use transform="matrix(0.00987413194444444,0,0,0.00987413194444444,0,0)" xlink:href="#M"/><use transform="matrix(0.00987413194444444,0,0,0.00987413194444444,12.135308159722218,0)" xlink:href="#F"/><use transform="matrix(0.00987413194444444,0,0,0.00987413194444444,24.270616319444436,0)" xlink:href="#G"/><use transform="matrix(0.00987413194444444,0,0,0.00987413194444444,36.40592447916666,0)" xlink:href="#N"/><use transform="matrix(0.00987413194444444,0,0,0.00987413194444444,48.54123263888887,0)" xlink:href="#O"/><use transform="matrix(0.00987413194444444,0,0,0.00987413194444444,60.676540798611086,0)" xlink:href="#N"/><use transform="matrix(0.00987413194444444,0,0,0.00987413194444444,72.8118489583333,0)" xlink:href="#F"/><use transform="matrix(0.00987413194444444,0,0,0.00987413194444444,84.94715711805553,0)" xlink:href="#P"/><use transform="matrix(0.00987413194444444,0,0,0.00987413194444444,97.08246527777773,0)" xlink:href="#N"/><use transform="matrix(0.00987413194444444,0,0,0.00987413194444444,109.21777343749994,0)" xlink:href="#E"/><use transform="matrix(0.00987413194444444,0,0,0.00987413194444444,121.35308159722216,0)" xlink:href="#P"/><use transform="matrix(0.00987413194444444,0,0,0.00987413194444444,133.48838975694437,0)" xlink:href="#Q"/><use transform="matrix(0.00987413194444444,0,0,0.00987413194444444,145.6236979166666,0)" xlink:href="#L"/><use transform="matrix(0.00987413194444444,0,0,0.00987413194444444,157.75900607638883,0)" xlink:href="#R"/><use transform="matrix(0.00987413194444444,0,0,0.00987413194444444,169.89431423611106,0)" xlink:href="#O"/><use transform="matrix(0.00987413194444444,0,0,0.00987413194444444,182.0296223958333,0)" xlink:href="#N"/><use transform="matrix(0.00987413194444444,0,0,0.00987413194444444,194.16493055555551,0)" xlink:href="#S"/><use transform="matrix(0.00987413194444444,0,0,0.00987413194444444,206.30023871527774,0)" xlink:href="#G"/><use transform="matrix(0.00987413194444444,0,0,0.00987413194444444,218.435546875,0)" xlink:href="#Q"/><use transform="matrix(0.00987413194444444,0,0,0.00987413194444444,230.5708550347222,0)" xlink:href="#G"/><use transform="matrix(0.00987413194444444,0,0,0.00987413194444444,242.70616319444443,0)" xlink:href="#T"/><use transform="matrix(0.00987413194444444,0,0,0.00987413194444444,254.84147135416669,0)" xlink:href="#G"/><use transform="matrix(0.00987413194444444,0,0,0.00987413194444444,266.97677951388886,0)" xlink:href="#N"/><use transform="matrix(0.00987413194444444,0,0,0.00987413194444444,279.1120876736111,0)" xlink:href="#F"/><use transform="matrix(0.00987413194444444,0,0,0.00987413194444444,291.2473958333333,0)" xlink:href="#E"/><use transform="matrix(0.00987413194444444,0,0,0.00987413194444444,303.38270399305554,0)" xlink:href="#U"/></g><path fill="#5e5e5e" d="M1094-1034c0 310-213 470-541 465H362V0H176v-1462h404c343 0 514 143 514 428zM532-727c244-1 369-71 369-297 0-186-113-279-338-279H362v576h170" id="V"/><path fill="#5e5e5e" d="M1112-551c0 331-186 571-502 571-301 0-495-251-495-571 0-330 184-567 501-567 302 0 496 249 496 567zM614-131c207 0 310-140 310-420 0-277-104-416-312-416-206 0-309 139-309 416 0 280 104 420 311 420" id="W"/><path fill="#5e5e5e" d="M532-1413l-268-21v-122h451v1413l352 20V0H188v-123l344-20v-1270" id="X"/><path fill="#5e5e5e" d="M739-1436c0 71-43 115-106 115-71 0-107-38-107-115 0-76 36-114 107-114s106 38 106 114zM541-954l-269-21v-123h451v955l352 20V0H197v-123l344-20v-811" id="Y"/><path fill="#5e5e5e" d="M172-543c0-365 197-575 553-575 119 0 231 20 336 59l-62 158c-100-38-189-57-268-57-247 0-371 138-371 413 0 271 120 406 361 406 105 0 212-21 321-62v160C953 0 843 20 713 20c-347 1-541-210-541-563" id="Z"/><path fill="#5e5e5e" d="M82-1098h188l262 654c55 137 84 233 89 290h6c15-75 45-172 90-292l239-652h189L670 143c-45 116-99 201-156 261-87 92-259 104-414 71V330c92 17 226 18 286-29 67-53 115-195 153-291" id="aa"/><g id="i"><use transform="matrix(0.00987413194444444,0,0,0.00987413194444444,0,0)" xlink:href="#V"/><use transform="matrix(0.00987413194444444,0,0,0.00987413194444444,12.135308159722218,0)" xlink:href="#W"/><use transform="matrix(0.00987413194444444,0,0,0.00987413194444444,24.270616319444436,0)" xlink:href="#X"/><use transform="matrix(0.00987413194444444,0,0,0.00987413194444444,36.40592447916666,0)" xlink:href="#Y"/><use transform="matrix(0.00987413194444444,0,0,0.00987413194444444,48.54123263888887,0)" xlink:href="#Z"/><use transform="matrix(0.00987413194444444,0,0,0.00987413194444444,60.676540798611086,0)" xlink:href="#aa"/></g><path fill="#5e5e5e" d="M596-1118c288 2 430 92 430 366V0H895l-37-152h-8C752-34 680 17 483 20 272 23 135-98 135-307c0-221 170-337 510-348l203-7c15-197-55-305-244-305-98 0-207 27-328 82l-63-137c131-64 258-96 383-96zm-72 991c194 0 325-116 322-311v-99c-251 15-522-6-522 232 0 119 67 178 200 178" id="ab"/><path fill="#5e5e5e" d="M887 0v-707c0-173-79-260-238-260-205 0-307 133-307 398V0H160v-1556h182c-2 202 6 416-8 606h10c69-112 181-168 336-168 259 0 389 134 389 401V0H887" id="ac"/><path fill="#5e5e5e" d="M631-1118c283 0 470 204 465 491v113H322c5 250 120 375 344 375 130 0 253-25 370-76v160C925-5 804 20 672 20c-329 0-539-224-539-561 0-331 182-577 498-577zM326-662h573c0-203-91-305-272-305-183 0-284 102-301 305" id="ad"/><g id="j"><use transform="matrix(0.00987413194444444,0,0,0.00987413194444444,0,0)" xlink:href="#Z"/><use transform="matrix(0.00987413194444444,0,0,0.00987413194444444,12.135308159722218,0)" xlink:href="#ab"/><use transform="matrix(0.00987413194444444,0,0,0.00987413194444444,24.270616319444436,0)" xlink:href="#Z"/><use transform="matrix(0.00987413194444444,0,0,0.00987413194444444,36.40592447916666,0)" xlink:href="#ac"/><use transform="matrix(0.00987413194444444,0,0,0.00987413194444444,48.54123263888887,0)" xlink:href="#ad"/></g><path fill="#333" d="M758 0H582c3-449-8-824 8-1274-61 68-188 168-268 234l-97-123 383-299h150V0" id="ae"/><path fill="#333" d="M614-301c101 0 152 55 152 166S715 31 614 31 463-24 463-135s50-166 151-166" id="af"/><path fill="#333" d="M1087-391c0 281-226 411-532 411-177 0-315-23-414-69v-178c141 57 279 86 414 86 233 0 350-80 350-240 0-69-24-123-71-160s-142-82-285-133c-139-49-239-106-299-174s-90-156-90-264c2-252 211-371 481-371 153 0 291 26 416 78l-64 164c-129-52-249-78-360-78-195 0-293 70-293 209 0 68 22 123 66 164s134 85 270 133c164 58 273 119 328 181s83 143 83 241" id="ag"/><path fill="#333" d="M887 0v-707c0-173-79-260-238-260-205 0-307 133-307 398V0H160v-1098h147l27 148h10c69-112 181-168 336-168 259 0 389 134 389 401V0H887" id="ah"/><path fill="#333" d="M137-547c0-322 136-571 430-571 137 0 245 53 322 160h12c-24-215-7-376-12-598h182V0H924l-27-147h-8C814-36 706 20 567 20c-294 0-430-246-430-567zm463 416c241 0 288-157 289-416 0-151-23-259-69-323s-121-97-222-97c-181 0-272 141-272 422 0 276 91 414 274 414" id="ai"/><g id="k"><use transform="matrix(0.008680555555555556,0,0,0.008680555555555556,0,0)" xlink:href="#ae"/><use transform="matrix(0.008680555555555556,0,0,0.008680555555555556,10.668402777777779,0)" xlink:href="#af"/><use transform="matrix(0.008680555555555556,0,0,0.008680555555555556,21.336805555555557,0)" xlink:href="#ag"/><use transform="matrix(0.008680555555555556,0,0,0.008680555555555556,32.005208333333336,0)" xlink:href="#A"/><use transform="matrix(0.008680555555555556,0,0,0.008680555555555556,42.673611111111114,0)" xlink:href="#ah"/><use transform="matrix(0.008680555555555556,0,0,0.008680555555555556,53.34201388888889,0)" xlink:href="#ai"/></g><path fill="#333" d="M1094 0H907v-682H322V0H135v-1462h187v616h585v-616h187V0" id="aj"/><path fill="#333" d="M707 0H520v-1298H102v-164h1022v164H707V0" id="ak"/><path fill="#333" d="M1094-1034c0 310-213 470-541 465H362V0H176v-1462h404c343 0 514 143 514 428zM532-727c244-1 369-71 369-297 0-186-113-279-338-279H362v576h170" id="al"/><g id="l"><use transform="matrix(0.008680555555555556,0,0,0.008680555555555556,0,0)" xlink:href="#aj"/><use transform="matrix(0.008680555555555556,0,0,0.008680555555555556,10.668402777777779,0)" xlink:href="#ak"/><use transform="matrix(0.008680555555555556,0,0,0.008680555555555556,21.336805555555557,0)" xlink:href="#ak"/><use transform="matrix(0.008680555555555556,0,0,0.008680555555555556,32.005208333333336,0)" xlink:href="#al"/></g><path fill="#333" d="M137-547c0-322 136-571 430-571 138 0 245 56 322 168h8l27-148h147V492H889c5-232-12-415 12-639h-12C814-36 706 20 567 20c-294 0-430-246-430-567zm463 416c241 0 288-157 289-416 0-151-23-259-69-323s-121-97-222-97c-181 0-272 141-272 422 0 276 91 414 274 414" id="am"/><path fill="#333" d="M578-131c239 0 309-137 309-397v-570h182V0H922l-27-147h-10C815-36 704 20 551 20c-261 0-391-134-391-401v-717h182v707c0 173 79 260 236 260" id="an"/><path fill="#333" d="M1026-301c0 225-197 321-448 321-165 0-290-23-375-69v-166c129 57 252 86 370 86 183 0 275-54 275-162 0-38-16-71-49-99s-108-63-226-106c-156-57-253-112-293-160s-61-105-61-171c2-338 524-340 789-217l-60 149c-121-48-228-72-319-72-157 0-236 44-236 133 0 41 17 74 51 98s111 57 232 101c141 51 234 101 280 151s70 111 70 183" id="ao"/><path fill="#333" d="M1020-150v138C933 9 849 20 768 20 527 20 406-95 406-324v-637H139v-94l267-49 77-287h105v293h438v137H588v637c0 130 64 195 192 195 62 0 142-7 240-21" id="ap"/><g id="m"><use transform="matrix(0.008680555555555556,0,0,0.008680555555555556,0,0)" xlink:href="#x"/><use transform="matrix(0.008680555555555556,0,0,0.008680555555555556,10.668402777777779,0)" xlink:href="#A"/><use transform="matrix(0.008680555555555556,0,0,0.008680555555555556,21.336805555555557,0)" xlink:href="#am"/><use transform="matrix(0.008680555555555556,0,0,0.008680555555555556,32.005208333333336,0)" xlink:href="#an"/><use transform="matrix(0.008680555555555556,0,0,0.008680555555555556,42.673611111111114,0)" xlink:href="#A"/><use transform="matrix(0.008680555555555556,0,0,0.008680555555555556,53.34201388888889,0)" xlink:href="#ao"/><use transform="matrix(0.008680555555555556,0,0,0.008680555555555556,64.01041666666667,0)" xlink:href="#ap"/></g><path fill="#333" d="M532-1413l-268-21v-122h451v1413l352 20V0H188v-123l344-20v-1270" id="aq"/><path fill="#333" d="M596-1118c288 2 430 92 430 366V0H895l-37-152h-8C752-34 680 17 483 20 272 23 135-98 135-307c0-221 170-337 510-348l203-7c15-197-55-305-244-305-98 0-207 27-328 82l-63-137c131-64 258-96 383-96zm-72 991c194 0 325-116 322-311v-99c-251 15-522-6-522 232 0 119 67 178 200 178" id="ar"/><path fill="#333" d="M285-465v-168h659v168H285" id="as"/><path fill="#333" d="M977 0v-707c0-97-9-165-27-203s-47-57-88-57c-58 0-100 28-126 83s-40 148-40 278V0H535v-707c0-173-42-260-125-260-56 0-96 26-120 79s-36 160-36 319V0H92v-1098h127l27 148h10c45-112 112-168 201-168 109 0 180 61 213 182h6c51-121 124-182 219-182 85 0 147 30 186 92s58 165 58 309V0H977" id="at"/><path fill="#333" d="M739-1436c0 71-43 115-106 115-71 0-107-38-107-115 0-76 36-114 107-114s106 38 106 114zM541-954l-269-21v-123h451v955l352 20V0H197v-123l344-20v-811" id="au"/><g id="n"><use transform="matrix(0.009765624999999998,0,0,0.009765624999999998,0,0)" xlink:href="#al"/><use transform="matrix(0.009765624999999998,0,0,0.009765624999999998,12.001953124999998,0)" xlink:href="#an"/><use transform="matrix(0.009765624999999998,0,0,0.009765624999999998,24.003906249999996,0)" xlink:href="#aq"/><use transform="matrix(0.009765624999999998,0,0,0.009765624999999998,36.00585937499999,0)" xlink:href="#ao"/><use transform="matrix(0.009765624999999998,0,0,0.009765624999999998,48.00781249999999,0)" xlink:href="#ar"/><use transform="matrix(0.009765624999999998,0,0,0.009765624999999998,60.009765624999986,0)" xlink:href="#x"/><use transform="matrix(0.009765624999999998,0,0,0.009765624999999998,72.01171874999999,0)" xlink:href="#as"/><use transform="matrix(0.009765624999999998,0,0,0.009765624999999998,84.01367187499999,0)" xlink:href="#ar"/><use transform="matrix(0.009765624999999998,0,0,0.009765624999999998,96.01562499999999,0)" xlink:href="#ai"/><use transform="matrix(0.009765624999999998,0,0,0.009765624999999998,108.01757812499999,0)" xlink:href="#at"/><use transform="matrix(0.009765624999999998,0,0,0.009765624999999998,120.01953124999997,0)" xlink:href="#au"/><use transform="matrix(0.009765624999999998,0,0,0.009765624999999998,132.02148437499997,0)" xlink:href="#ah"/></g><path fill="#333" d="M1055-469c0 318-203 489-527 489-149 0-268-26-356-79v-172c96 64 216 96 360 96 224 0 336-105 336-314 0-196-115-294-344-294-59 0-136 9-231 26l-90-57 55-688h690v166H416l-39 419c71-13 141-20 209-20 270-4 469 161 469 428" id="av"/><g id="o"><use transform="matrix(0.008680555555555556,0,0,0.008680555555555556,0,0)" xlink:href="#av"/><use transform="matrix(0.008680555555555556,0,0,0.008680555555555556,10.668402777777779,0)" xlink:href="#af"/><use transform="matrix(0.008680555555555556,0,0,0.008680555555555556,21.336805555555557,0)" xlink:href="#ag"/><use transform="matrix(0.008680555555555556,0,0,0.008680555555555556,32.005208333333336,0)" xlink:href="#A"/><use transform="matrix(0.008680555555555556,0,0,0.008680555555555556,42.673611111111114,0)" xlink:href="#ah"/><use transform="matrix(0.008680555555555556,0,0,0.008680555555555556,53.34201388888889,0)" xlink:href="#ai"/></g><path fill="#333" d="M594-1483c248 0 420 149 418 391 0 79-21 160-59 244-73 161-414 504-572 674v8h688V0H158v-156c172-193 489-508 607-698 43-69 62-147 62-231 0-146-91-244-235-244-107 0-213 46-318 137l-102-119c128-115 269-172 422-172" id="aw"/><path fill="#333" d="M1092-551c0 322-136 571-430 571-138 0-245-53-322-159h-12L291 0H158v-1556h182c-2 221 6 379-8 602h8c71-109 179-164 322-164 294 0 430 246 430 567zM629-967c-241 0-289 146-289 416 0 151 24 259 70 323s120 97 221 97c181 0 272-141 272-422 0-276-91-414-274-414" id="ax"/><path fill="#333" d="M887 0v-707c0-173-79-260-238-260-205 0-307 133-307 398V0H160v-1556h182c-2 202 6 416-8 606h10c69-112 181-168 336-168 259 0 389 134 389 401V0H887" id="ay"/><g id="p"><use transform="matrix(0.008680555555555556,0,0,0.008680555555555556,0,0)" xlink:href="#aw"/><use transform="matrix(0.008680555555555556,0,0,0.008680555555555556,10.668402777777779,0)" xlink:href="#af"/><use transform="matrix(0.008680555555555556,0,0,0.008680555555555556,21.336805555555557,0)" xlink:href="#al"/><use transform="matrix(0.008680555555555556,0,0,0.008680555555555556,32.005208333333336,0)" xlink:href="#an"/><use transform="matrix(0.008680555555555556,0,0,0.008680555555555556,42.673611111111114,0)" xlink:href="#ax"/><use transform="matrix(0.008680555555555556,0,0,0.008680555555555556,53.34201388888889,0)" xlink:href="#aq"/><use transform="matrix(0.008680555555555556,0,0,0.008680555555555556,64.01041666666667,0)" xlink:href="#au"/><use transform="matrix(0.008680555555555556,0,0,0.008680555555555556,74.67881944444446,0)" xlink:href="#ao"/><use transform="matrix(0.008680555555555556,0,0,0.008680555555555556,85.34722222222223,0)" xlink:href="#ay"/></g><path fill="#333" d="M172-543c0-365 197-575 553-575 119 0 231 20 336 59l-62 158c-100-38-189-57-268-57-247 0-371 138-371 413 0 271 120 406 361 406 105 0 212-21 321-62v160C953 0 843 20 713 20c-347 1-541-210-541-563" id="az"/><path fill="#333" d="M188-739c-1-248 156-381 410-379 57 0 107 7 150 20h378v113l-196 27c43 57 65 128 65 213 2 253-212 385-489 346-67 37-100 82-100 133 0 56 54 84 161 84h187c216-2 358 93 358 297 0 251-188 377-565 377-145 0-255-26-331-80S102 283 102 186c0-141 80-231 240-270-64-31-96-83-96-154 0-75 44-139 133-192-109-41-191-166-191-309zm406 221c149 0 223-77 223-230 0-159-75-239-225-239s-225 81-225 242c0 151 76 227 227 227zm346 649c0-146-78-149-248-149H504c-153 0-230 66-230 198 0 116 90 174 271 174 263 0 395-74 395-223" id="aA"/><g id="q"><use transform="matrix(0.008680555555555556,0,0,0.008680555555555556,0,0)" xlink:href="#az"/><use transform="matrix(0.008680555555555556,0,0,0.008680555555555556,10.668402777777779,0)" xlink:href="#ay"/><use transform="matrix(0.008680555555555556,0,0,0.008680555555555556,21.336805555555557,0)" xlink:href="#ar"/><use transform="matrix(0.008680555555555556,0,0,0.008680555555555556,32.005208333333336,0)" xlink:href="#ah"/><use transform="matrix(0.008680555555555556,0,0,0.008680555555555556,42.673611111111114,0)" xlink:href="#aA"/><use transform="matrix(0.008680555555555556,0,0,0.008680555555555556,53.34201388888889,0)" xlink:href="#A"/></g><path fill="#333" d="M498 0L82-1098h188l240 652c57 154 90 262 100 325h6c67-256 244-708 340-977h189L729 0H498" id="aB"/><g id="r"><use transform="matrix(0.008680555555555556,0,0,0.008680555555555556,0,0)" xlink:href="#A"/><use transform="matrix(0.008680555555555556,0,0,0.008680555555555556,10.668402777777779,0)" xlink:href="#aB"/><use transform="matrix(0.008680555555555556,0,0,0.008680555555555556,21.336805555555557,0)" xlink:href="#A"/><use transform="matrix(0.008680555555555556,0,0,0.008680555555555556,32.005208333333336,0)" xlink:href="#ah"/><use transform="matrix(0.008680555555555556,0,0,0.008680555555555556,42.673611111111114,0)" xlink:href="#ap"/><use transform="matrix(0.008680555555555556,0,0,0.008680555555555556,53.34201388888889,0)" xlink:href="#ao"/></g><path fill="#333" d="M1010-1120c0 200-132 322-316 350v6c241 31 361 147 361 348 0 294-219 436-537 436-161 0-290-26-387-79v-170c123 64 250 96 383 96 236 0 354-96 354-289 0-172-127-258-381-258H354v-151h133c195 4 334-97 336-277 1-140-106-221-250-221-119 0-233 40-344 121l-92-125c125-100 270-150 436-150 252 0 437 128 437 363" id="aC"/><path fill="#333" d="M373-604V0H186v-1462h357c347 0 520 138 520 415 0 191-96 322-289 392L1171 0H952L602-604H373zm497-434c0-207-118-263-338-265H373v541h164c215-1 333-70 333-276" id="aD"/><g id="s"><use transform="matrix(0.008680555555555556,0,0,0.008680555555555556,0,0)" xlink:href="#aC"/><use transform="matrix(0.008680555555555556,0,0,0.008680555555555556,10.668402777777779,0)" xlink:href="#af"/><use transform="matrix(0.008680555555555556,0,0,0.008680555555555556,21.336805555555557,0)" xlink:href="#aD"/><use transform="matrix(0.008680555555555556,0,0,0.008680555555555556,32.005208333333336,0)" xlink:href="#A"/><use transform="matrix(0.008680555555555556,0,0,0.008680555555555556,42.673611111111114,0)" xlink:href="#az"/><use transform="matrix(0.008680555555555556,0,0,0.008680555555555556,53.34201388888889,0)" xlink:href="#A"/><use transform="matrix(0.008680555555555556,0,0,0.008680555555555556,64.01041666666667,0)" xlink:href="#au"/><use transform="matrix(0.008680555555555556,0,0,0.008680555555555556,74.67881944444446,0)" xlink:href="#aB"/><use transform="matrix(0.008680555555555556,0,0,0.008680555555555556,85.34722222222223,0)" xlink:href="#A"/></g><path fill="#333" d="M1126-328H913V0H737v-328H61v-159l664-983h188v976h213v166zM737-494c1-292-4-481 13-788h-9c-24 68-55 128-90 180L240-494h497" id="aE"/><path fill="#333" d="M1004 0L860-453H369L223 0H33l483-1468h195L1196 0h-192zM807-618c-63-210-144-435-195-650-51 232-127 431-190 650h385" id="aF"/><path fill="#333" d="M1092-551c0 322-136 571-430 571-138 0-245-53-322-159h-12c24 220 7 402 12 631H158v-1590h147l27 148h8c73-112 181-168 322-168 294 0 430 246 430 567zM629-967c-241 0-288 156-289 416 0 151 24 259 70 323s120 97 221 97c181 0 272-141 272-422 0-276-91-414-274-414" id="aG"/><path fill="#333" d="M82-1098h188l262 654c55 137 84 233 89 290h6c15-75 45-172 90-292l239-652h189L670 143c-45 116-99 201-156 261-87 92-259 104-414 71V330c92 17 226 18 286-29 67-53 115-195 153-291" id="aH"/><g id="u"><use transform="matrix(0.008680555555555556,0,0,0.008680555555555556,0,0)" xlink:href="#aE"/><use transform="matrix(0.008680555555555556,0,0,0.008680555555555556,10.668402777777779,0)" xlink:href="#af"/><use transform="matrix(0.008680555555555556,0,0,0.008680555555555556,21.336805555555557,0)" xlink:href="#aF"/><use transform="matrix(0.008680555555555556,0,0,0.008680555555555556,32.005208333333336,0)" xlink:href="#aG"/><use transform="matrix(0.008680555555555556,0,0,0.008680555555555556,42.673611111111114,0)" xlink:href="#aG"/><use transform="matrix(0.008680555555555556,0,0,0.008680555555555556,53.34201388888889,0)" xlink:href="#aq"/><use transform="matrix(0.008680555555555556,0,0,0.008680555555555556,64.01041666666667,0)" xlink:href="#aH"/></g><g id="v"><use transform="matrix(0.009765624999999998,0,0,0.009765624999999998,0,0)" xlink:href="#w"/><use transform="matrix(0.009765624999999998,0,0,0.009765624999999998,12.001953124999998,0)" xlink:href="#x"/><use transform="matrix(0.009765624999999998,0,0,0.009765624999999998,24.003906249999996,0)" xlink:href="#y"/><use transform="matrix(0.009765624999999998,0,0,0.009765624999999998,36.00585937499999,0)" xlink:href="#z"/><use transform="matrix(0.009765624999999998,0,0,0.009765624999999998,48.00781249999999,0)" xlink:href="#A"/><use transform="matrix(0.009765624999999998,0,0,0.009765624999999998,60.009765624999986,0)" xlink:href="#x"/><use transform="matrix(0.009765624999999998,0,0,0.009765624999999998,72.01171874999999,0)" xlink:href="#ae"/></g></defs></g></svg>