<svg xmlns="http://www.w3.org/2000/svg" xmlns:xlink="http://www.w3.org/1999/xlink" xmlns:lucid="lucid" width="1100" height="580.67"><g transform="translate(-313.33333333333337 -180)" lucid:page-tab-id="0_0"><path d="M0 0h1870.87v1322.83H0z" fill="#fff"/><path d="M461.33 297.14c17.68 0 32 13.43 32 30s-14.32 30-32 30h-96c-17.67 0-32-13.43-32-30s14.33-30 32-30z" stroke="#666" stroke-width="4" fill="#fff"/><use xlink:href="#a" transform="matrix(1,0,0,1,338.33333333333337,302.13918332567994) translate(21.124565972222236 33.33344184027777)"/><path d="M523.33 317.14h42v-10l18 20-18 20v-10h-42z" stroke="#474e55" stroke-width="2" fill="#666"/><path d="M733.33 297.14h40v60h-40z" stroke="#474e55" stroke-width="2" fill="#188fff"/><use xlink:href="#b" transform="matrix(1,0,0,1,738.3333333333334,302.13918332567994) translate(5.675000000000001 30.025)"/><path d="M773.33 297.14h40v60h-40z" stroke="#474e55" stroke-width="2" fill="#188fff"/><use xlink:href="#c" transform="matrix(1,0,0,1,778.3333333333334,302.13918332567994) translate(5 30.025)"/><path d="M813.33 297.14h40v60h-40z" stroke="#474e55" stroke-width="2" fill="#188fff"/><use xlink:href="#d" transform="matrix(1,0,0,1,818.3333333333334,302.13918332567994) translate(10 30.025)"/><path d="M853.33 297.14h40v60h-40z" stroke="#474e55" stroke-width="2" fill="#d3e3fc"/><use xlink:href="#e" transform="matrix(1,0,0,1,858.3333333333334,302.13918332567994) translate(10 30.025)"/><path d="M893.33 297.14h40v60h-40z" stroke="#474e55" stroke-width="2" fill="#d3e3fc"/><use xlink:href="#f" transform="matrix(1,0,0,1,898.3333333333334,302.13918332567994) translate(10 30.025)"/><path d="M933.33 297.14h40v60h-40z" stroke="#474e55" stroke-width="2" fill="#d3e3fc"/><use xlink:href="#g" transform="matrix(1,0,0,1,938.3333333333334,302.13918332567994) translate(10 30.025)"/><path d="M973.33 297.14h40v60h-40z" stroke="#474e55" stroke-width="2" fill="#d3e3fc"/><use xlink:href="#h" transform="matrix(1,0,0,1,978.3333333333334,302.13918332567994) translate(10 30.025)"/><path d="M1013.33 297.14h40v60h-40z" stroke="#474e55" stroke-width="2" fill="#d3e3fc"/><use xlink:href="#i" transform="matrix(1,0,0,1,1018.3333333333334,302.13918332567994) translate(10 30.025)"/><path d="M1053.33 297.14h40v60h-40z" stroke="#474e55" stroke-width="2" fill="#d3e3fc"/><use xlink:href="#j" transform="matrix(1,0,0,1,1058.3333333333335,302.13918332567994) translate(10 30.025)"/><path d="M1093.33 297.14h40v60h-40z" stroke="#474e55" stroke-width="2" fill="#d3e3fc"/><use xlink:href="#k" transform="matrix(1,0,0,1,1098.3333333333335,302.13918332567994) translate(10 30.025)"/><path d="M1133.33 297.14h40v60h-40z" stroke="#474e55" stroke-width="2" fill="#d3e3fc"/><use xlink:href="#l" transform="matrix(1,0,0,1,1138.3333333333335,302.13918332567994) translate(10 30.025)"/><path d="M1173.33 297.14h40v60h-40z" stroke="#474e55" stroke-width="2" fill="#d3e3fc"/><use xlink:href="#m" transform="matrix(1,0,0,1,1178.3333333333335,302.13918332567994) translate(10 30.025)"/><path d="M613.33 638.93h60v22.14h-60z" stroke="#666" stroke-width="2" fill="#188fff"/><path d="M693.33 620h700v60h-700z" stroke="#000" stroke-opacity="0" stroke-width="2" fill="#fff" fill-opacity="0"/><use xlink:href="#n" transform="matrix(1,0,0,1,698.3333333333335,625) translate(0 32.3330078125)"/><use xlink:href="#o" transform="matrix(1,0,0,1,698.3333333333335,625) translate(86.4140625 32.3330078125)"/><use xlink:href="#p" transform="matrix(1,0,0,1,698.3333333333335,625) translate(183.6298828125 32.3330078125)"/><use xlink:href="#q" transform="matrix(1,0,0,1,698.3333333333335,625) translate(216.03515625 32.3330078125)"/><use xlink:href="#r" transform="matrix(1,0,0,1,698.3333333333335,625) translate(259.2421875 32.3330078125)"/><use xlink:href="#s" transform="matrix(1,0,0,1,698.3333333333335,625) translate(388.86328125 32.3330078125)"/><use xlink:href="#t" transform="matrix(1,0,0,1,698.3333333333335,625) translate(432.0703125 32.3330078125)"/><use xlink:href="#u" transform="matrix(1,0,0,1,698.3333333333335,625) translate(496.880859375 32.3330078125)"/><use xlink:href="#v" transform="matrix(1,0,0,1,698.3333333333335,625) translate(540.087890625 32.3330078125)"/><path d="M613.33 699.6h60v22.14h-60z" stroke="#666" stroke-width="2" fill="#d3e3fc"/><path d="M693.33 680.67h700v60h-700z" stroke="#000" stroke-opacity="0" stroke-width="2" fill="#fff" fill-opacity="0"/><use xlink:href="#w" transform="matrix(1,0,0,1,698.3333333333335,685.6666666666667) translate(0 32.3330078125)"/><use xlink:href="#o" transform="matrix(1,0,0,1,698.3333333333335,685.6666666666667) translate(64.810546875 32.3330078125)"/><use xlink:href="#x" transform="matrix(1,0,0,1,698.3333333333335,685.6666666666667) translate(162.0263671875 32.3330078125)"/><use xlink:href="#u" transform="matrix(1,0,0,1,698.3333333333335,685.6666666666667) translate(237.638671875 32.3330078125)"/><use xlink:href="#v" transform="matrix(1,0,0,1,698.3333333333335,685.6666666666667) translate(280.845703125 32.3330078125)"/><path d="M853.33 513V376.64" stroke="#474e55" stroke-width="2" fill="none"/><path d="M854.33 514h-2v-1.03h2z" stroke="#474e55" stroke-width=".05" fill="#474e55"/><path d="M853.33 361.38l4.64 14.26h-9.27z" stroke="#474e55" stroke-width="2" fill="#474e55"/><use xlink:href="#y" transform="matrix(1,0,0,1,861.3333333333335,445.5234375) translate(0 16.7080078125)"/><path d="M925.33 516c26.5 0 48 13.94 48 31.13 0 17.2-21.5 31.12-48 31.12h-144c-26.5 0-48-13.93-48-31.12 0-17.2 21.5-31.13 48-31.13z" stroke="#474e55" stroke-width="4" fill="#fff"/><use xlink:href="#z" transform="matrix(1,0,0,1,738.3333333333334,521) translate(34.18684895833337 34.08344184027777)"/><path d="M613.33 297.14h40v60h-40z" stroke="#474e55" stroke-width="2" fill="#fff"/><g><use xlink:href="#A" transform="matrix(1,0,0,1,618.3333333333334,302.13918332567994) translate(5 30.025)"/></g><path d="M653.33 297.14h40v60h-40z" stroke="#474e55" stroke-width="2" fill="#fff"/><g><use xlink:href="#B" transform="matrix(1,0,0,1,658.3333333333334,302.13918332567994) translate(5 30.025)"/></g><path d="M693.33 297.14h40v60h-40z" stroke="#474e55" stroke-width="2" fill="#188fff"/><g><use xlink:href="#C" transform="matrix(1,0,0,1,698.3333333333334,302.13918332567994) translate(5 30.025)"/></g><g fill="none"><path d="M1210.67 200v86.67h-356V200z"/><path d="M854.67 286.67c0-12.3 9.96-22.25 22.25-22.25h133.5c12.3 0 22.25-9.96 22.25-22.25 0 12.3 9.96 22.25 22.25 22.25h133.5c12.3 0 22.25 9.96 22.25 22.25" stroke="#474e55" stroke-width="2"/></g><g><use xlink:href="#D" transform="matrix(1,-2.4492935982947064e-16,2.4492935982947064e-16,1,859.6666666666671,204.9583333333335) translate(97.3876953125 16.7080078125)"/><use xlink:href="#E" transform="matrix(1,-2.4492935982947064e-16,2.4492935982947064e-16,1,859.6666666666671,204.9583333333335) translate(162.1982421875 16.7080078125)"/></g><g fill="none"><path d="M854.67 200v86.67H613.33V200z"/><path d="M613.33 286.67c0-8.33 6.76-15.1 15.1-15.1h90.5c8.32 0 15.07-6.74 15.07-15.07 0 8.33 6.75 15.08 15.08 15.08h90.5c8.33 0 15.1 6.76 15.1 15.1" stroke="#666" stroke-width="2"/></g><g><use xlink:href="#F" transform="matrix(1,-2.4492935982947064e-16,2.4492935982947064e-16,1,618.3333333333334,204.99999999999997) translate(78.19384765625 16.7080078125)"/><use xlink:href="#G" transform="matrix(1,-2.4492935982947064e-16,2.4492935982947064e-16,1,618.3333333333334,204.99999999999997) translate(18.7841796875 37.6611328125)"/><use xlink:href="#H" transform="matrix(1,-2.4492935982947064e-16,2.4492935982947064e-16,1,618.3333333333334,204.99999999999997) translate(116 37.6611328125)"/></g><g fill="none"><path d="M693.33 422.25V360h160v62.25z"/><path d="M853.33 360c0 5.52-4.47 10-10 10h-60c-5.52 0-10 4.48-10 10 0-5.52-4.47-10-10-10h-60c-5.52 0-10-4.48-10-10" stroke="#188fff" stroke-width="2"/></g><g><use xlink:href="#I" transform="matrix(1,0,0,1,698.3333333333334,394.9999999999999) translate(20.9912109375 16.7080078125)"/><use xlink:href="#J" transform="matrix(1,0,0,1,698.3333333333334,394.9999999999999) translate(96.603515625 16.7080078125)"/><use xlink:href="#K" transform="matrix(1,0,0,1,698.3333333333334,394.9999999999999) translate(15.59033203125 37.6611328125)"/><use xlink:href="#L" transform="matrix(1,0,0,1,698.3333333333334,394.9999999999999) translate(102.00439453125 37.6611328125)"/></g><defs><path fill="#474e55" d="M1094-1034c0 310-213 470-541 465H362V0H176v-1462h404c343 0 514 143 514 428zM532-727c244-1 369-71 369-297 0-186-113-279-338-279H362v576h170" id="M"/><path fill="#474e55" d="M442-897c93-139 173-221 377-221 79 0 159 15 240 45l-49 166c-82-30-157-45-224-45-221 0-340 134-340 360V0H264v-1098h148l22 201h8" id="N"/><path fill="#474e55" d="M1112-551c0 331-186 571-502 571-301 0-495-251-495-571 0-330 184-567 501-567 302 0 496 249 496 567zM614-131c207 0 310-140 310-420 0-277-104-416-312-416-206 0-309 139-309 416 0 280 104 420 311 420" id="O"/><path fill="#474e55" d="M137-547c0-322 136-571 430-571 137 0 245 53 322 160h12c-24-215-7-376-12-598h182V0H924l-27-147h-8C814-36 706 20 567 20c-294 0-430-246-430-567zm463 416c241 0 288-157 289-416 0-151-23-259-69-323s-121-97-222-97c-181 0-272 141-272 422 0 276 91 414 274 414" id="P"/><path fill="#474e55" d="M578-131c239 0 309-137 309-397v-570h182V0H922l-27-147h-10C815-36 704 20 551 20c-261 0-391-134-391-401v-717h182v707c0 173 79 260 236 260" id="Q"/><path fill="#474e55" d="M172-543c0-365 197-575 553-575 119 0 231 20 336 59l-62 158c-100-38-189-57-268-57-247 0-371 138-371 413 0 271 120 406 361 406 105 0 212-21 321-62v160C953 0 843 20 713 20c-347 1-541-210-541-563" id="R"/><path fill="#474e55" d="M631-1118c283 0 470 204 465 491v113H322c5 250 120 375 344 375 130 0 253-25 370-76v160C925-5 804 20 672 20c-329 0-539-224-539-561 0-331 182-577 498-577zM326-662h573c0-203-91-305-272-305-183 0-284 102-301 305" id="S"/><g id="a"><use transform="matrix(0.010959201388888886,0,0,0.010959201388888886,0,0)" xlink:href="#M"/><use transform="matrix(0.010959201388888886,0,0,0.010959201388888886,13.468858506944441,0)" xlink:href="#N"/><use transform="matrix(0.010959201388888886,0,0,0.010959201388888886,26.937717013888882,0)" xlink:href="#O"/><use transform="matrix(0.010959201388888886,0,0,0.010959201388888886,40.40657552083332,0)" xlink:href="#P"/><use transform="matrix(0.010959201388888886,0,0,0.010959201388888886,53.875434027777764,0)" xlink:href="#Q"/><use transform="matrix(0.010959201388888886,0,0,0.010959201388888886,67.3442925347222,0)" xlink:href="#R"/><use transform="matrix(0.010959201388888886,0,0,0.010959201388888886,80.81315104166664,0)" xlink:href="#S"/><use transform="matrix(0.010959201388888886,0,0,0.010959201388888886,94.28200954861109,0)" xlink:href="#N"/></g><path fill="#474e55" d="M27 0v-27h64v-190l-56 39v-29l58-41h29v221h61V0H27" id="T"/><g id="b"><use transform="matrix(0.05,0,0,0.05,0,0)" xlink:href="#T"/><use transform="matrix(0.05,0,0,0.05,8.65,0)" xlink:href="#T"/></g><path fill="#474e55" d="M101-251c68 0 85 55 85 127S166 4 100 4C33 4 14-52 14-124c0-73 17-127 87-127zm-1 229c47 0 54-49 54-102s-4-102-53-102c-51 0-55 48-55 102 0 53 5 102 54 102" id="U"/><g id="c"><use transform="matrix(0.05,0,0,0.05,0,0)" xlink:href="#T"/><use transform="matrix(0.05,0,0,0.05,10,0)" xlink:href="#U"/></g><path fill="#474e55" d="M99-251c64 0 84 50 84 122C183-37 130 33 47-8c-14-7-20-23-25-40l30-5c6 39 69 39 84 7 9-19 16-44 16-74-10 22-31 35-62 35-49 0-73-33-73-83 0-54 28-83 82-83zm-1 141c31-1 51-18 51-49 0-36-14-67-51-67-34 0-49 23-49 58 0 34 15 58 49 58" id="V"/><use transform="matrix(0.05,0,0,0.05,0,0)" xlink:href="#V" id="d"/><path fill="#474e55" d="M134-131c28 9 52 24 51 62-1 50-34 73-85 73S17-19 16-69c0-36 21-54 49-61-75-25-45-126 34-121 46 3 78 18 79 63 0 33-17 51-44 57zm-34-11c31 1 46-15 46-44 0-28-17-43-47-42-29 0-46 13-45 42 1 28 16 44 46 44zm1 122c35 0 51-18 51-52 0-30-18-46-53-46-33 0-51 17-51 47 0 34 19 51 53 51" id="W"/><use transform="matrix(0.05,0,0,0.05,0,0)" xlink:href="#W" id="e"/><path fill="#474e55" d="M64 0c3-98 48-159 88-221H18v-27h164v26C143-157 98-101 97 0H64" id="X"/><use transform="matrix(0.05,0,0,0.05,0,0)" xlink:href="#X" id="f"/><path fill="#474e55" d="M110-160c48 1 74 30 74 79 0 53-28 85-80 85-65 0-83-55-86-122-5-90 50-162 133-122 14 7 22 21 27 39l-31 6c-5-40-67-38-82-6-9 19-15 44-15 74 11-20 30-34 60-33zm-7 138c34 0 49-23 49-58s-16-56-50-56c-29 0-50 16-49 49 1 36 15 65 50 65" id="Y"/><use transform="matrix(0.05,0,0,0.05,0,0)" xlink:href="#Y" id="g"/><path fill="#474e55" d="M54-142c48-35 137-8 131 61C196 18 31 33 14-55l32-4c7 23 22 37 52 37 35-1 51-22 54-58 4-55-73-65-99-34H22l8-134h141v27H59" id="Z"/><use transform="matrix(0.05,0,0,0.05,0,0)" xlink:href="#Z" id="h"/><path fill="#474e55" d="M155-56V0h-30v-56H8v-25l114-167h33v167h35v25h-35zm-30-156c-27 46-58 90-88 131h88v-131" id="aa"/><use transform="matrix(0.05,0,0,0.05,0,0)" xlink:href="#aa" id="i"/><path fill="#474e55" d="M126-127c33 6 58 20 58 59 0 88-139 92-164 29-3-8-5-16-6-25l32-3c6 27 21 44 54 44 32 0 52-15 52-46 0-38-36-46-79-43v-28c39 1 72-4 72-42 0-27-17-43-46-43-28 0-47 15-49 41l-32-3c6-42 35-63 81-64 48-1 79 21 79 65 0 36-21 52-52 59" id="ab"/><use transform="matrix(0.05,0,0,0.05,0,0)" xlink:href="#ab" id="j"/><path fill="#474e55" d="M101-251c82-7 93 87 43 132L82-64C71-53 59-42 53-27h129V0H18c2-99 128-94 128-182 0-28-16-43-45-43s-46 15-49 41l-32-3c6-41 34-60 81-64" id="ac"/><use transform="matrix(0.05,0,0,0.05,0,0)" xlink:href="#ac" id="k"/><use transform="matrix(0.05,0,0,0.05,0,0)" xlink:href="#T" id="l"/><use transform="matrix(0.05,0,0,0.05,0,0)" xlink:href="#U" id="m"/><path fill="#474e55" d="M1059 0H217v-1462h842v164H403v452h617v162H403v520h656V0" id="ad"/><path fill="#474e55" d="M510-563l-393-535h207l290 410 291-410h207L717-563 1130 0H924L614-436 303 0H96" id="ae"/><path fill="#474e55" d="M1092-551c0 322-136 571-430 571-138 0-245-53-322-159h-12c24 220 7 402 12 631H158v-1590h147l27 148h8c73-112 181-168 322-168 294 0 430 246 430 567zM629-967c-241 0-288 156-289 416 0 151 24 259 70 323s120 97 221 97c181 0 272-141 272-422 0-276-91-414-274-414" id="af"/><path fill="#474e55" d="M739-1436c0 71-43 115-106 115-71 0-107-38-107-115 0-76 36-114 107-114s106 38 106 114zM541-954l-269-21v-123h451v955l352 20V0H197v-123l344-20v-811" id="ag"/><g id="n"><use transform="matrix(0.0087890625,0,0,0.0087890625,0,0)" xlink:href="#ad"/><use transform="matrix(0.0087890625,0,0,0.0087890625,10.8017578125,0)" xlink:href="#ae"/><use transform="matrix(0.0087890625,0,0,0.0087890625,21.603515625,0)" xlink:href="#af"/><use transform="matrix(0.0087890625,0,0,0.0087890625,32.4052734375,0)" xlink:href="#ag"/><use transform="matrix(0.0087890625,0,0,0.0087890625,43.20703125,0)" xlink:href="#N"/><use transform="matrix(0.0087890625,0,0,0.0087890625,54.0087890625,0)" xlink:href="#S"/><use transform="matrix(0.0087890625,0,0,0.0087890625,64.810546875,0)" xlink:href="#P"/></g><path fill="#474e55" d="M977 0v-707c0-97-9-165-27-203s-47-57-88-57c-58 0-100 28-126 83s-40 148-40 278V0H535v-707c0-173-42-260-125-260-56 0-96 26-120 79s-36 160-36 319V0H92v-1098h127l27 148h10c45-112 112-168 201-168 109 0 180 61 213 182h6c51-121 124-182 219-182 85 0 147 30 186 92s58 165 58 309V0H977" id="ah"/><path fill="#474e55" d="M1026-301c0 225-197 321-448 321-165 0-290-23-375-69v-166c129 57 252 86 370 86 183 0 275-54 275-162 0-38-16-71-49-99s-108-63-226-106c-156-57-253-112-293-160s-61-105-61-171c2-338 524-340 789-217l-60 149c-121-48-228-72-319-72-157 0-236 44-236 133 0 41 17 74 51 98s111 57 232 101c141 51 234 101 280 151s70 111 70 183" id="ai"/><path fill="#474e55" d="M596-1118c288 2 430 92 430 366V0H895l-37-152h-8C752-34 680 17 483 20 272 23 135-98 135-307c0-221 170-337 510-348l203-7c15-197-55-305-244-305-98 0-207 27-328 82l-63-137c131-64 258-96 383-96zm-72 991c194 0 325-116 322-311v-99c-251 15-522-6-522 232 0 119 67 178 200 178" id="aj"/><path fill="#474e55" d="M188-739c-1-248 156-381 410-379 57 0 107 7 150 20h378v113l-196 27c43 57 65 128 65 213 2 253-212 385-489 346-67 37-100 82-100 133 0 56 54 84 161 84h187c216-2 358 93 358 297 0 251-188 377-565 377-145 0-255-26-331-80S102 283 102 186c0-141 80-231 240-270-64-31-96-83-96-154 0-75 44-139 133-192-109-41-191-166-191-309zm406 221c149 0 223-77 223-230 0-159-75-239-225-239s-225 81-225 242c0 151 76 227 227 227zm346 649c0-146-78-149-248-149H504c-153 0-230 66-230 198 0 116 90 174 271 174 263 0 395-74 395-223" id="ak"/><g id="o"><use transform="matrix(0.0087890625,0,0,0.0087890625,0,0)" xlink:href="#ah"/><use transform="matrix(0.0087890625,0,0,0.0087890625,10.8017578125,0)" xlink:href="#S"/><use transform="matrix(0.0087890625,0,0,0.0087890625,21.603515625,0)" xlink:href="#ai"/><use transform="matrix(0.0087890625,0,0,0.0087890625,32.4052734375,0)" xlink:href="#ai"/><use transform="matrix(0.0087890625,0,0,0.0087890625,43.20703125,0)" xlink:href="#aj"/><use transform="matrix(0.0087890625,0,0,0.0087890625,54.0087890625,0)" xlink:href="#ak"/><use transform="matrix(0.0087890625,0,0,0.0087890625,64.810546875,0)" xlink:href="#S"/><use transform="matrix(0.0087890625,0,0,0.0087890625,75.6123046875,0)" xlink:href="#ai"/></g><path fill="#474e55" d="M1092-551c0 322-136 571-430 571-138 0-245-53-322-159h-12L291 0H158v-1556h182c-2 221 6 379-8 602h8c71-109 179-164 322-164 294 0 430 246 430 567zM629-967c-241 0-289 146-289 416 0 151 24 259 70 323s120 97 221 97c181 0 272-141 272-422 0-276-91-414-274-414" id="al"/><path fill="#474e55" d="M82-1098h188l262 654c55 137 84 233 89 290h6c15-75 45-172 90-292l239-652h189L670 143c-45 116-99 201-156 261-87 92-259 104-414 71V330c92 17 226 18 286-29 67-53 115-195 153-291" id="am"/><g id="p"><use transform="matrix(0.0087890625,0,0,0.0087890625,0,0)" xlink:href="#al"/><use transform="matrix(0.0087890625,0,0,0.0087890625,10.8017578125,0)" xlink:href="#am"/></g><path fill="#474e55" d="M707 0H520v-1298H102v-164h1022v164H707V0" id="an"/><path fill="#474e55" d="M233 0v-1462h187v1296h635V0H233" id="ao"/><g id="q"><use transform="matrix(0.0087890625,0,0,0.0087890625,0,0)" xlink:href="#an"/><use transform="matrix(0.0087890625,0,0,0.0087890625,10.8017578125,0)" xlink:href="#an"/><use transform="matrix(0.0087890625,0,0,0.0087890625,21.603515625,0)" xlink:href="#ao"/></g><path fill="#474e55" d="M739-1462h193c-299 251-449 548-449 893 0 347 149 645 447 893H739C443 89 295-208 295-567c0-355 148-653 444-895" id="ap"/><path fill="#474e55" d="M1020-150v138C933 9 849 20 768 20 527 20 406-95 406-324v-637H139v-94l267-49 77-287h105v293h438v137H588v637c0 130 64 195 192 195 62 0 142-7 240-21" id="aq"/><path fill="#474e55" d="M285-465v-168h659v168H285" id="ar"/><path fill="#474e55" d="M383-553l135-152 395-393h222L641-623 1163 0H950L524-504l-129 82V0H215v-1556h180c-3 337 9 689-16 1003h4" id="as"/><g id="r"><use transform="matrix(0.0087890625,0,0,0.0087890625,0,0)" xlink:href="#ap"/><use transform="matrix(0.0087890625,0,0,0.0087890625,10.8017578125,0)" xlink:href="#aj"/><use transform="matrix(0.0087890625,0,0,0.0087890625,21.603515625,0)" xlink:href="#Q"/><use transform="matrix(0.0087890625,0,0,0.0087890625,32.4052734375,0)" xlink:href="#aq"/><use transform="matrix(0.0087890625,0,0,0.0087890625,43.20703125,0)" xlink:href="#O"/><use transform="matrix(0.0087890625,0,0,0.0087890625,54.0087890625,0)" xlink:href="#ar"/><use transform="matrix(0.0087890625,0,0,0.0087890625,64.810546875,0)" xlink:href="#aj"/><use transform="matrix(0.0087890625,0,0,0.0087890625,75.6123046875,0)" xlink:href="#R"/><use transform="matrix(0.0087890625,0,0,0.0087890625,86.4140625,0)" xlink:href="#as"/><use transform="matrix(0.0087890625,0,0,0.0087890625,97.2158203125,0)" xlink:href="#S"/><use transform="matrix(0.0087890625,0,0,0.0087890625,108.017578125,0)" xlink:href="#P"/></g><path fill="#474e55" d="M887 0v-707c0-173-79-260-238-260-205 0-307 133-307 398V0H160v-1098h147l27 148h10c69-112 181-168 336-168 259 0 389 134 389 401V0H887" id="at"/><g id="s"><use transform="matrix(0.0087890625,0,0,0.0087890625,0,0)" xlink:href="#aj"/><use transform="matrix(0.0087890625,0,0,0.0087890625,10.8017578125,0)" xlink:href="#at"/><use transform="matrix(0.0087890625,0,0,0.0087890625,21.603515625,0)" xlink:href="#P"/></g><g id="t"><use transform="matrix(0.0087890625,0,0,0.0087890625,0,0)" xlink:href="#N"/><use transform="matrix(0.0087890625,0,0,0.0087890625,10.8017578125,0)" xlink:href="#S"/><use transform="matrix(0.0087890625,0,0,0.0087890625,21.603515625,0)" xlink:href="#aj"/><use transform="matrix(0.0087890625,0,0,0.0087890625,32.4052734375,0)" xlink:href="#P"/><use transform="matrix(0.0087890625,0,0,0.0087890625,43.20703125,0)" xlink:href="#am"/></g><path fill="#474e55" d="M866-1417c-164 2-207 56-211 215v104h389v137H655V0H473v-961H156v-110l317-33c-17-319 78-463 389-463 86 0 170 12 252 35l-41 143c-69-19-138-28-207-28" id="au"/><g id="u"><use transform="matrix(0.0087890625,0,0,0.0087890625,0,0)" xlink:href="#au"/><use transform="matrix(0.0087890625,0,0,0.0087890625,10.8017578125,0)" xlink:href="#O"/><use transform="matrix(0.0087890625,0,0,0.0087890625,21.603515625,0)" xlink:href="#N"/></g><path fill="#474e55" d="M532-1413l-268-21v-122h451v1413l352 20V0H188v-123l344-20v-1270" id="av"/><path fill="#474e55" d="M489 324H299C596 77 745-221 745-569c0-345-149-643-448-893h192c297 241 445 539 445 895 0 360-148 657-445 891" id="aw"/><g id="v"><use transform="matrix(0.0087890625,0,0,0.0087890625,0,0)" xlink:href="#P"/><use transform="matrix(0.0087890625,0,0,0.0087890625,10.8017578125,0)" xlink:href="#S"/><use transform="matrix(0.0087890625,0,0,0.0087890625,21.603515625,0)" xlink:href="#av"/><use transform="matrix(0.0087890625,0,0,0.0087890625,32.4052734375,0)" xlink:href="#S"/><use transform="matrix(0.0087890625,0,0,0.0087890625,43.20703125,0)" xlink:href="#aq"/><use transform="matrix(0.0087890625,0,0,0.0087890625,54.0087890625,0)" xlink:href="#ag"/><use transform="matrix(0.0087890625,0,0,0.0087890625,64.810546875,0)" xlink:href="#O"/><use transform="matrix(0.0087890625,0,0,0.0087890625,75.6123046875,0)" xlink:href="#at"/><use transform="matrix(0.0087890625,0,0,0.0087890625,86.4140625,0)" xlink:href="#aw"/></g><path fill="#474e55" d="M1004 0L860-453H369L223 0H33l483-1468h195L1196 0h-192zM807-618c-63-210-144-435-195-650-51 232-127 431-190 650h385" id="ax"/><g id="w"><use transform="matrix(0.0087890625,0,0,0.0087890625,0,0)" xlink:href="#ax"/><use transform="matrix(0.0087890625,0,0,0.0087890625,10.8017578125,0)" xlink:href="#R"/><use transform="matrix(0.0087890625,0,0,0.0087890625,21.603515625,0)" xlink:href="#as"/><use transform="matrix(0.0087890625,0,0,0.0087890625,32.4052734375,0)" xlink:href="#S"/><use transform="matrix(0.0087890625,0,0,0.0087890625,43.20703125,0)" xlink:href="#P"/></g><g id="x"><use transform="matrix(0.0087890625,0,0,0.0087890625,0,0)" xlink:href="#ap"/><use transform="matrix(0.0087890625,0,0,0.0087890625,10.8017578125,0)" xlink:href="#N"/><use transform="matrix(0.0087890625,0,0,0.0087890625,21.603515625,0)" xlink:href="#S"/><use transform="matrix(0.0087890625,0,0,0.0087890625,32.4052734375,0)" xlink:href="#aj"/><use transform="matrix(0.0087890625,0,0,0.0087890625,43.20703125,0)" xlink:href="#P"/><use transform="matrix(0.0087890625,0,0,0.0087890625,54.0087890625,0)" xlink:href="#am"/></g><path fill="#474e55" d="M326-731c0 353 139 584 471 588 87 0 196-19 327-58v162c-97 39-217 59-358 59-433-1-637-301-637-753 0-438 243-750 668-750 147 0 274 29 383 86l-78 156c-103-52-204-78-305-78-307 1-471 259-471 588" id="ay"/><g id="y"><use transform="matrix(0.0087890625,0,0,0.0087890625,0,0)" xlink:href="#ay"/><use transform="matrix(0.0087890625,0,0,0.0087890625,10.8017578125,0)" xlink:href="#Q"/><use transform="matrix(0.0087890625,0,0,0.0087890625,21.603515625,0)" xlink:href="#N"/><use transform="matrix(0.0087890625,0,0,0.0087890625,32.4052734375,0)" xlink:href="#ai"/><use transform="matrix(0.0087890625,0,0,0.0087890625,43.20703125,0)" xlink:href="#O"/><use transform="matrix(0.0087890625,0,0,0.0087890625,54.0087890625,0)" xlink:href="#N"/></g><path fill="#474e55" d="M1087-391c0 281-226 411-532 411-177 0-315-23-414-69v-178c141 57 279 86 414 86 233 0 350-80 350-240 0-69-24-123-71-160s-142-82-285-133c-139-49-239-106-299-174s-90-156-90-264c2-252 211-371 481-371 153 0 291 26 416 78l-64 164c-129-52-249-78-360-78-195 0-293 70-293 209 0 68 22 123 66 164s134 85 270 133c164 58 273 119 328 181s83 143 83 241" id="az"/><g id="z"><use transform="matrix(0.010959201388888886,0,0,0.010959201388888886,0,0)" xlink:href="#az"/><use transform="matrix(0.010959201388888886,0,0,0.010959201388888886,13.468858506944441,0)" xlink:href="#Q"/><use transform="matrix(0.010959201388888886,0,0,0.010959201388888886,26.937717013888882,0)" xlink:href="#al"/><use transform="matrix(0.010959201388888886,0,0,0.010959201388888886,40.40657552083332,0)" xlink:href="#ai"/><use transform="matrix(0.010959201388888886,0,0,0.010959201388888886,53.875434027777764,0)" xlink:href="#R"/><use transform="matrix(0.010959201388888886,0,0,0.010959201388888886,67.3442925347222,0)" xlink:href="#N"/><use transform="matrix(0.010959201388888886,0,0,0.010959201388888886,80.81315104166664,0)" xlink:href="#ag"/><use transform="matrix(0.010959201388888886,0,0,0.010959201388888886,94.28200954861109,0)" xlink:href="#af"/><use transform="matrix(0.010959201388888886,0,0,0.010959201388888886,107.75086805555553,0)" xlink:href="#aq"/><use transform="matrix(0.010959201388888886,0,0,0.010959201388888886,121.21972656249997,0)" xlink:href="#ag"/><use transform="matrix(0.010959201388888886,0,0,0.010959201388888886,134.6885850694444,0)" xlink:href="#O"/><use transform="matrix(0.010959201388888886,0,0,0.010959201388888886,148.15744357638883,0)" xlink:href="#at"/></g><g id="A"><use transform="matrix(0.05,0,0,0.05,0,0)" xlink:href="#T"/><use transform="matrix(0.05,0,0,0.05,10,0)" xlink:href="#aa"/></g><g id="B"><use transform="matrix(0.05,0,0,0.05,0,0)" xlink:href="#T"/><use transform="matrix(0.05,0,0,0.05,10,0)" xlink:href="#ab"/></g><g id="C"><use transform="matrix(0.05,0,0,0.05,0,0)" xlink:href="#T"/><use transform="matrix(0.05,0,0,0.05,10,0)" xlink:href="#ac"/></g><g id="D"><use transform="matrix(0.0087890625,0,0,0.0087890625,0,0)" xlink:href="#ax"/><use transform="matrix(0.0087890625,0,0,0.0087890625,10.8017578125,0)" xlink:href="#R"/><use transform="matrix(0.0087890625,0,0,0.0087890625,21.603515625,0)" xlink:href="#as"/><use transform="matrix(0.0087890625,0,0,0.0087890625,32.4052734375,0)" xlink:href="#S"/><use transform="matrix(0.0087890625,0,0,0.0087890625,43.20703125,0)" xlink:href="#P"/></g><g id="E"><use transform="matrix(0.0087890625,0,0,0.0087890625,0,0)" xlink:href="#ah"/><use transform="matrix(0.0087890625,0,0,0.0087890625,10.8017578125,0)" xlink:href="#S"/><use transform="matrix(0.0087890625,0,0,0.0087890625,21.603515625,0)" xlink:href="#ai"/><use transform="matrix(0.0087890625,0,0,0.0087890625,32.4052734375,0)" xlink:href="#ai"/><use transform="matrix(0.0087890625,0,0,0.0087890625,43.20703125,0)" xlink:href="#aj"/><use transform="matrix(0.0087890625,0,0,0.0087890625,54.0087890625,0)" xlink:href="#ak"/><use transform="matrix(0.0087890625,0,0,0.0087890625,64.810546875,0)" xlink:href="#S"/><use transform="matrix(0.0087890625,0,0,0.0087890625,75.6123046875,0)" xlink:href="#ai"/></g><path fill="#474e55" d="M1137-424C1137-153 941 0 662 0H135v-1462c284 7 685-30 837 88 80 62 124 152 124 282 0 179-125 297-291 316v10c221 36 332 150 332 342zm-232-655c0-182-120-224-319-224H322v461h284c195-2 299-53 299-237zM322-686v528h307c207 0 311-91 311-274 0-169-108-254-324-254H322" id="aA"/><g id="F"><use transform="matrix(0.0087890625,0,0,0.0087890625,0,0)" xlink:href="#aA"/><use transform="matrix(0.0087890625,0,0,0.0087890625,10.8017578125,0)" xlink:href="#aj"/><use transform="matrix(0.0087890625,0,0,0.0087890625,21.603515625,0)" xlink:href="#R"/><use transform="matrix(0.0087890625,0,0,0.0087890625,32.4052734375,0)" xlink:href="#as"/><use transform="matrix(0.0087890625,0,0,0.0087890625,43.20703125,0)" xlink:href="#av"/><use transform="matrix(0.0087890625,0,0,0.0087890625,54.0087890625,0)" xlink:href="#O"/><use transform="matrix(0.0087890625,0,0,0.0087890625,64.810546875,0)" xlink:href="#ak"/></g><path fill="#474e55" d="M1104-516c1 337-164 537-496 536-322 0-483-180-483-540v-942h186v932c0 258 102 387 307 387 197 0 300-130 300-389v-932h186v948" id="aB"/><g id="G"><use transform="matrix(0.0087890625,0,0,0.0087890625,0,0)" xlink:href="#ap"/><use transform="matrix(0.0087890625,0,0,0.0087890625,10.8017578125,0)" xlink:href="#aB"/><use transform="matrix(0.0087890625,0,0,0.0087890625,21.603515625,0)" xlink:href="#at"/><use transform="matrix(0.0087890625,0,0,0.0087890625,32.4052734375,0)" xlink:href="#aj"/><use transform="matrix(0.0087890625,0,0,0.0087890625,43.20703125,0)" xlink:href="#R"/><use transform="matrix(0.0087890625,0,0,0.0087890625,54.0087890625,0)" xlink:href="#as"/><use transform="matrix(0.0087890625,0,0,0.0087890625,64.810546875,0)" xlink:href="#S"/><use transform="matrix(0.0087890625,0,0,0.0087890625,75.6123046875,0)" xlink:href="#P"/></g><g id="H"><use transform="matrix(0.0087890625,0,0,0.0087890625,0,0)" xlink:href="#ah"/><use transform="matrix(0.0087890625,0,0,0.0087890625,10.8017578125,0)" xlink:href="#S"/><use transform="matrix(0.0087890625,0,0,0.0087890625,21.603515625,0)" xlink:href="#ai"/><use transform="matrix(0.0087890625,0,0,0.0087890625,32.4052734375,0)" xlink:href="#ai"/><use transform="matrix(0.0087890625,0,0,0.0087890625,43.20703125,0)" xlink:href="#aj"/><use transform="matrix(0.0087890625,0,0,0.0087890625,54.0087890625,0)" xlink:href="#ak"/><use transform="matrix(0.0087890625,0,0,0.0087890625,64.810546875,0)" xlink:href="#S"/><use transform="matrix(0.0087890625,0,0,0.0087890625,75.6123046875,0)" xlink:href="#ai"/><use transform="matrix(0.0087890625,0,0,0.0087890625,86.4140625,0)" xlink:href="#aw"/></g><path fill="#188fff" d="M528-1008h177c63 241 176 595 217 828 10-131 108-1012 135-1282h170L1040 0H850c-78-286-175-558-234-862C553-542 470-299 395 0H205L2-1462h170c52 408 123 848 145 1282 49-284 143-558 211-828" id="aC"/><path fill="#188fff" d="M739-1436c0 71-43 115-106 115-71 0-107-38-107-115 0-76 36-114 107-114s106 38 106 114zM541-954l-269-21v-123h451v955l352 20V0H197v-123l344-20v-811" id="aD"/><path fill="#188fff" d="M1020-150v138C933 9 849 20 768 20 527 20 406-95 406-324v-637H139v-94l267-49 77-287h105v293h438v137H588v637c0 130 64 195 192 195 62 0 142-7 240-21" id="aE"/><path fill="#188fff" d="M887 0v-707c0-173-79-260-238-260-205 0-307 133-307 398V0H160v-1556h182c-2 202 6 416-8 606h10c69-112 181-168 336-168 259 0 389 134 389 401V0H887" id="aF"/><path fill="#188fff" d="M887 0v-707c0-173-79-260-238-260-205 0-307 133-307 398V0H160v-1098h147l27 148h10c69-112 181-168 336-168 259 0 389 134 389 401V0H887" id="aG"/><g id="I"><use transform="matrix(0.0087890625,0,0,0.0087890625,0,0)" xlink:href="#aC"/><use transform="matrix(0.0087890625,0,0,0.0087890625,10.8017578125,0)" xlink:href="#aD"/><use transform="matrix(0.0087890625,0,0,0.0087890625,21.603515625,0)" xlink:href="#aE"/><use transform="matrix(0.0087890625,0,0,0.0087890625,32.4052734375,0)" xlink:href="#aF"/><use transform="matrix(0.0087890625,0,0,0.0087890625,43.20703125,0)" xlink:href="#aD"/><use transform="matrix(0.0087890625,0,0,0.0087890625,54.0087890625,0)" xlink:href="#aG"/></g><path fill="#188fff" d="M631-1118c283 0 470 204 465 491v113H322c5 250 120 375 344 375 130 0 253-25 370-76v160C925-5 804 20 672 20c-329 0-539-224-539-561 0-331 182-577 498-577zM326-662h573c0-203-91-305-272-305-183 0-284 102-301 305" id="aH"/><g id="J"><use transform="matrix(0.0087890625,0,0,0.0087890625,0,0)" xlink:href="#aE"/><use transform="matrix(0.0087890625,0,0,0.0087890625,10.8017578125,0)" xlink:href="#aF"/><use transform="matrix(0.0087890625,0,0,0.0087890625,21.603515625,0)" xlink:href="#aH"/></g><path fill="#188fff" d="M596-1118c288 2 430 92 430 366V0H895l-37-152h-8C752-34 680 17 483 20 272 23 135-98 135-307c0-221 170-337 510-348l203-7c15-197-55-305-244-305-98 0-207 27-328 82l-63-137c131-64 258-96 383-96zm-72 991c194 0 325-116 322-311v-99c-251 15-522-6-522 232 0 119 67 178 200 178" id="aI"/><path fill="#188fff" d="M1092-551c0 322-136 571-430 571-138 0-245-53-322-159h-12c24 220 7 402 12 631H158v-1590h147l27 148h8c73-112 181-168 322-168 294 0 430 246 430 567zM629-967c-241 0-288 156-289 416 0 151 24 259 70 323s120 97 221 97c181 0 272-141 272-422 0-276-91-414-274-414" id="aJ"/><path fill="#188fff" d="M532-1413l-268-21v-122h451v1413l352 20V0H188v-123l344-20v-1270" id="aK"/><path fill="#188fff" d="M137-547c0-322 136-571 430-571 137 0 245 53 322 160h12c-24-215-7-376-12-598h182V0H924l-27-147h-8C814-36 706 20 567 20c-294 0-430-246-430-567zm463 416c241 0 288-157 289-416 0-151-23-259-69-323s-121-97-222-97c-181 0-272 141-272 422 0 276 91 414 274 414" id="aL"/><g id="K"><use transform="matrix(0.0087890625,0,0,0.0087890625,0,0)" xlink:href="#aI"/><use transform="matrix(0.0087890625,0,0,0.0087890625,10.8017578125,0)" xlink:href="#aJ"/><use transform="matrix(0.0087890625,0,0,0.0087890625,21.603515625,0)" xlink:href="#aJ"/><use transform="matrix(0.0087890625,0,0,0.0087890625,32.4052734375,0)" xlink:href="#aK"/><use transform="matrix(0.0087890625,0,0,0.0087890625,43.20703125,0)" xlink:href="#aD"/><use transform="matrix(0.0087890625,0,0,0.0087890625,54.0087890625,0)" xlink:href="#aH"/><use transform="matrix(0.0087890625,0,0,0.0087890625,64.810546875,0)" xlink:href="#aL"/></g><path fill="#188fff" d="M707 0H520v-1298H102v-164h1022v164H707V0" id="aM"/><path fill="#188fff" d="M233 0v-1462h187v1296h635V0H233" id="aN"/><g id="L"><use transform="matrix(0.0087890625,0,0,0.0087890625,0,0)" xlink:href="#aM"/><use transform="matrix(0.0087890625,0,0,0.0087890625,10.8017578125,0)" xlink:href="#aM"/><use transform="matrix(0.0087890625,0,0,0.0087890625,21.603515625,0)" xlink:href="#aN"/></g></defs></g></svg>