<svg xmlns="http://www.w3.org/2000/svg" viewBox="0 0 2621.5 541.05"><defs><style>.cls-1{fill:none;stroke:#007994;stroke-linecap:round;stroke-miterlimit:10;}</style></defs><g id="Layer_2" data-name="Layer 2"><g id="Layer_1-2" data-name="Layer 1"><path class="cls-1" d="M.5,137.94c33-54.73,85.75-121.13,162.05-135,103.7-18.86,161.17,75.59,306.32,149,240,121.37,489.56,68.81,550.38,56,216.59-45.62,258.38-210.1,371.54-178,136.72,38.77,157.74,278.3,270.74,276,61.89-1.26,83.16-73.65,147.23-65,80.1,10.81,106,131.92,150.2,123,42.38-8.57,25.92-121.51,106.72-171,25.14-15.41,30.73-6.91,73.12-29,71.4-37.22,71.11-69.43,104.74-74,64.78-8.81,100.09,106.08,170.94,103,43.94-1.92,57-66.18,83-60,35.2,8.34,24.36,120,57.32,128,11.92,2.88,31.71-7.29,66.2-65"/><path class="cls-1" d="M.52,157.1C39.86,104.92,101.87,42.64,188.41,28.37c101.53-16.76,158.54,72,299.13,141.89C720.61,285.84,962.39,236,1023.71,223.59,1234,181,1276.63,23.89,1386.54,54.08,1522.74,91.5,1547.18,319.16,1658.86,317c60.92-1.19,83.12-70.12,146.19-61.87,78.49,10.3,105.52,125.66,150.32,117.17,40.41-7.73,30.49-105.14,97.71-155.29a131.18,131.18,0,0,1,11.42-7.54c24.91-14.67,31.18-6.57,72.49-27.61,69.6-35.44,70.88-66.11,104.43-70.47,64.29-8.38,100.41,101.05,170.27,98.11,43.17-1.82,56.86-63,82.91-57.14,35.35,7.94,26.74,114.47,59.86,121.9,12.54,2.81,32.57-6.94,66.54-61.91"/><path class="cls-1" d="M.55,176.27C46.27,126.63,117.44,68.43,214.26,53.79c99.3-15,155.91,68.38,292,134.79,226.13,109.8,460.13,62.71,521.94,50.66,204-39.75,247.49-189.34,354.12-161,135.71,36,163.56,251.86,273.91,249.82,60-1.12,83.07-66.59,145.15-58.74,76.87,9.8,105,119.4,150.43,111.35,40.58-7.34,33.39-100.13,100.18-147.5a129.38,129.38,0,0,1,11.38-7.16c24.67-13.93,31.63-6.24,71.85-26.23,67.79-33.66,70.65-62.8,104.13-66.93,63.79-8,100.72,96,169.59,93.21,42.39-1.73,56.75-59.87,82.81-54.28,35.51,7.55,29.15,108.9,62.4,115.8,13.17,2.74,33.44-6.59,66.89-58.81"/><path class="cls-1" d="M.57,195.44C52.69,148.34,133,94.15,240.12,79.22,337.12,65.7,393.4,144,524.89,206.9c219.2,104,445.4,59.64,507.72,48,197.68-37,242.07-179,345.42-152.53C1513.24,137,1544.49,341,1653.52,339.1c59-1.05,83-63.07,144.11-55.62,75.26,9.3,104.53,113.26,150.55,105.53,40.76-6.85,36.39-95,102.64-139.71a129.23,129.23,0,0,1,11.34-6.79c24.43-13.19,32.07-5.9,71.22-24.83,66-31.89,70.41-59.49,103.81-63.4,63.29-7.54,101,90.95,168.92,88.31,41.62-1.64,56.64-56.71,82.71-51.42,35.66,7.15,31.57,103.3,64.95,109.71,13.8,2.64,34.29-6.25,67.23-55.73"/><path class="cls-1" d="M.6,214.6C59.1,170.05,148.5,119.82,266,104.65c94.67-12.22,150.53,61.43,277.6,120.57,212,98.69,430.66,56.57,493.49,45.33,191.33-34.23,236.66-168.72,336.72-144,134.74,33.23,169.36,225.42,277.07,223.64,58-1,83-59.54,143.07-52.49,73.64,8.79,104,107,150.67,99.7,40.92-6.42,39.39-89.82,105.11-131.92,3.56-2.28,7.34-4.38,11.29-6.4,24.23-12.4,32.51-5.57,70.58-23.45,64.17-30.11,70.18-56.17,103.51-59.86,62.79-7.11,101.35,85.91,168.24,83.41,40.84-1.54,56.53-53.56,82.62-48.56,35.81,6.75,34,97.67,67.49,103.61,14.43,2.56,35.15-5.91,67.57-52.63"/><path class="cls-1" d="M.62,233.77c64.89-42,163.37-88.35,291.21-103.69C384.14,119,439.71,188,562.24,243.54c205.07,93,415.93,53.49,479.27,42.66,185-31.6,231.27-158.46,328-135.55,134.28,31.8,172.27,212.2,278.65,210.55,57.08-.91,82.93-56,142-49.36,72,8.29,103.54,100.79,150.78,93.88,41.09-6,42.43-84.65,107.58-124.13,3.55-2.15,7.32-4.12,11.25-6,24-11.65,33-5.24,69.94-22.05,62.37-28.34,69.95-52.87,103.2-56.34,62.3-6.68,101.66,80.87,167.57,78.52,40.07-1.45,56.42-50.41,82.52-45.7,36,6.35,36.41,92,70,97.51,15.06,2.46,36-5.56,67.91-49.54"/><path class="cls-1" d="M.64,252.94c71.28-39.47,178.82-82,317-97.43,89.95-10,145.23,54.33,263.24,106.36,198.09,87.33,401.18,50.38,465,40,178.56-29.06,225.89-148.24,319.32-127.07,133.83,30.34,175.17,199,280.23,197.47,56.12-.84,82.88-52.48,141-46.24,70.42,7.79,103,94.55,150.9,88.06,41.25-5.6,45.46-79.48,110-116.34,3.55-2,7.31-3.86,11.2-5.65,23.77-10.9,33.41-4.91,69.31-20.67,60.57-26.56,69.72-49.55,102.89-52.8,61.81-6.26,102,75.82,166.9,73.63,39.29-1.37,56.31-47.26,82.42-42.85,36.13,6,38.84,86.36,72.59,91.41,15.7,2.36,36.87-5.21,68.25-46.44"/><path class="cls-1" d="M.67,272.1c77.66-36.92,194.26-75.72,342.86-91.16,87.57-9.1,142.6,50.78,256.06,99.25,191.13,81.64,386.43,47.27,450.82,37.32,172.15-26.59,220.53-138,310.62-118.57,133.4,28.84,178.07,185.76,281.81,184.37,55.15-.77,82.84-48.95,140-43.11,68.8,7.28,102.54,88.31,151,82.23,41.42-5.19,48.51-74.28,112.5-108.55,3.54-1.89,7.29-3.6,11.16-5.27,23.53-10.15,33.86-4.57,68.68-19.28,58.75-24.78,69.48-46.23,102.58-49.26C2290,234.23,2331,310.85,2395,308.8c38.51-1.27,56.19-44.06,82.33-40,36.27,5.63,41.27,80.67,75.13,85.32,16.33,2.24,37.72-4.87,68.59-43.36"/><path class="cls-1" d="M.69,291.27c84.06-34.38,209.69-69.54,368.7-84.9,85.17-8.24,140,47.22,248.88,92.14,184.16,75.95,371.67,44.14,436.59,34.65C1220.58,309,1270,205.26,1356.77,223.08c133,27.32,181,172.54,283.4,171.28,54.19-.7,82.8-45.54,138.91-40,67.2,6.64,102,82.06,151.13,76.41,41.59-4.79,51.58-69.09,115-100.76,3.54-1.77,7.27-3.34,11.12-4.89,23.29-9.41,34.3-4.24,68-17.89,56.95-23,69.25-42.93,102.27-45.73,60.82-5.42,102.61,65.73,165.54,63.83,37.75-1.18,56.09-40.9,82.24-37.13,36.42,5.24,43.71,75,77.68,79.22,17,2.12,38.58-4.53,68.93-40.27"/><path class="cls-1" d="M.71,310.44C91.16,278.6,225.81,247,395.24,231.79c82.77-7.42,137.32,43.66,241.7,85,177.22,70.24,356.91,41,422.37,32,159.27-21.9,209.83-117.8,293.21-101.6,132.59,25.76,183.89,159.32,285,158.2,53.23-.63,82.76-42,137.87-36.86,65.59,6.13,101.53,75.81,151.25,70.59,41.74-4.39,54.65-63.88,117.43-93,3.54-1.64,7.26-3.08,11.08-4.52,23-8.66,34.74-3.9,67.4-16.5,55.14-21.23,69-39.54,102-42.2,60.33-4.86,102.91,60.69,164.86,58.94,37-1.09,56-37.74,82.14-34.27,36.58,4.85,46.15,69.26,80.23,73.12,17.61,2,39.44-4.18,69.27-37.17"/><path class="cls-1" d="M.74,329.6c96.83-29.28,240.5-57.46,420.36-72.38,80.36-6.66,134.68,40.09,234.51,77.93,170.27,64.53,342.15,37.82,408.16,29.32,152.79-19.67,204.49-107.73,284.5-93.1,132.2,24.15,186.8,146.1,286.56,145.1,52.27-.56,82.71-38.5,136.83-33.73,64,5.62,101,69.55,151.37,64.76,41.9-4,57.74-58.64,119.89-85.18,3.54-1.51,7.24-2.81,11-4.13,22.81-7.92,35.19-3.57,66.77-15.12,53.33-19.45,68.78-36.22,101.65-38.66,59.84-4.44,103.23,55.64,164.19,54,36.2-1,55.87-34.59,82-31.41,36.73,4.45,48.58,63.53,82.77,67,18.24,1.86,40.29-3.84,69.61-34.09"/><path class="cls-1" d="M.76,348.77C104,322,256.67,297.17,447,282.65c78-5.95,132.06,36.52,227.34,70.82,163.33,58.81,327.37,34.62,393.93,26.65,146.32-17.52,199.17-97.69,275.8-84.61,131.83,22.5,189.7,132.88,288.13,132,51.32-.49,82.67-35,135.8-30.6,62.36,5.12,100.52,63.29,151.48,58.94,42.07-3.59,60.85-53.39,122.36-77.39,3.54-1.38,7.23-2.56,11-3.76,22.58-7.18,35.64-3.23,66.14-13.72,51.52-17.68,68.55-32.91,101.35-35.13,59.34-4,103.54,50.6,163.51,49.14,35.42-.9,55.77-31.43,81.95-28.55,36.89,4.05,51,57.8,85.32,60.93,18.88,1.73,41.15-3.49,69.95-31"/><path class="cls-1" d="M.79,367.94c109.6-24.2,271.29-45.87,472-59.86C548.36,302.81,602.24,341,693,371.79c156.4,53.08,312.6,31.4,379.71,24,139.83-15.45,193.86-87.71,267.1-76.13,131.47,20.8,192.6,119.66,289.71,118.92,50.35-.41,82.62-31.44,134.76-27.47,60.74,4.61,100,57,151.6,53.12,42.23-3.21,64-48.13,124.82-69.6,3.54-1.25,7.21-2.3,11-3.38,22.34-6.45,36.08-2.9,65.5-12.34,49.72-15.9,68.32-29.6,101-31.59C2277,343.71,2322,392.86,2381,391.55c34.65-.81,55.66-28.28,81.85-25.69,37,3.66,53.47,52.05,87.87,54.83,19.52,1.58,42-3.14,70.29-27.9"/><path class="cls-1" d="M.81,387.1c116-21.65,286.68-40.26,497.85-53.59,73.14-4.62,126.82,29.33,213,56.61,149.48,47.32,297.82,28.13,365.48,21.31,133.33-13.45,188.56-77.76,258.39-67.64,131.13,19,195.52,106.44,291.3,105.84,49.39-.35,82.58-27.92,133.72-24.36,59.13,4.12,99.52,50.77,151.72,47.3,42.39-2.81,67.07-42.83,127.28-61.81,3.54-1.11,7.19-2,10.91-3,22.09-5.72,36.53-2.57,64.86-10.95,47.92-14.13,68.09-26.29,100.74-28.07,58.34-3.17,104.17,40.51,162.16,39.36,33.87-.72,55.55-25.14,81.76-22.84,37.2,3.26,55.91,46.29,90.41,48.74,20.16,1.42,42.86-2.81,70.63-24.81"/><path class="cls-1" d="M.83,406.27c122.39-19.11,302.06-34.83,523.69-47.33,70.73-4,124.21,25.72,205.79,49.5,142.57,41.54,283,24.84,351.26,18.64,126.83-11.52,183.26-67.86,249.69-59.14,130.8,17.16,198.42,93.22,292.88,92.74,48.43-.28,82.53-24.38,132.68-21.23,57.51,3.62,99,44.5,151.84,41.48,42.55-2.43,70.18-37.52,129.74-54,3.54-1,7.18-1.78,10.87-2.62,21.85-5,37-2.23,64.23-9.56,46.1-12.35,67.85-23,100.42-24.53,57.85-2.76,104.48,35.47,161.49,34.46,33.1-.63,55.44-22,81.66-20,37.36,2.85,58.35,40.53,93,42.64,20.8,1.27,43.72-2.46,71-21.72"/><path class="cls-1" d="M.86,425.44c128.77-16.57,317.43-29.56,549.51-41.07C618.7,381,672,406.47,749,426.76c135.67,35.75,268.25,21.5,337,16,120.32-9.67,178-58,241-50.66,130.48,15.21,201.32,80,294.46,79.65,47.47-.2,82.48-20.84,131.64-18.1,55.89,3.13,98.51,38.22,152,35.66,42.72-2.06,73.32-32.19,132.21-46.23,3.54-.85,7.16-1.52,10.83-2.24,21.6-4.26,37.41-1.9,63.59-8.18,44.3-10.57,67.62-19.73,100.12-21,57.34-2.45,104.79,30.42,160.81,29.56,32.32-.54,55.33-18.89,81.56-17.12,37.52,2.38,60.79,34.75,95.51,36.54,21.44,1.11,44.58-2.11,71.31-18.62"/><path class="cls-1" d="M.88,444.6c135.16-14,332.81-24.48,575.35-34.81,65.92-2.8,119,18.46,191.43,35.29,128.78,29.92,253.46,18.11,322.81,13.31,113.81-7.88,172.68-48.19,232.29-42.17,130.16,13.15,204.23,66.78,296,66.57,46.51-.14,82.43-17.31,130.6-15,54.28,2.64,98,31.94,152.07,29.83,42.88-1.67,76.44-26.83,134.68-38.44,3.53-.7,7.13-1.26,10.77-1.86,21.37-3.53,37.87-1.56,63-6.78,42.49-8.8,67.39-16.42,99.81-17.47,56.85-2,105.11,25.38,160.14,24.67,31.55-.44,55.23-15.73,81.47-14.26,37.67,2,63.23,29,98,30.44,22.08.94,45.44-1.76,71.65-15.53"/><path class="cls-1" d="M.9,463.77c141.55-11.48,348.2-19.62,601.18-28.55C665.61,433,718.5,450,786.33,463.4,908.24,487.45,1025,478.06,1094.92,474c107.3-6.15,167.39-38.42,223.59-33.67,129.85,11,207.13,53.56,297.62,53.47,45.55-.07,82.39-13.77,129.56-11.85,52.66,2.15,97.5,25.66,152.19,24,43-1.3,79.56-21.44,137.14-30.65,3.53-.56,7.12-1,10.73-1.48,21.12-2.81,38.31-1.23,62.33-5.4,40.68-7,67.15-13.1,99.49-13.93,56.36-1.6,105.43,20.33,159.47,19.77,30.77-.35,55.12-12.58,81.37-11.4,37.83,1.59,65.67,23.19,100.6,24.35,22.71.75,46.29-1.42,72-12.44"/><path class="cls-1" d="M.93,482.94c147.94-8.94,363.57-15,627-22.29C689.07,459,741.76,471.76,805,481.72c115,18.13,223.88,11.13,294.37,8,100.79-4.51,162.09-28.7,214.88-25.19,129.54,8.62,210,40.34,299.2,40.38,44.58,0,82.34-10.14,128.52-8.72,51,1.75,97,19.26,152.3,18.19,43.2-1,82.69-16,139.61-22.86,3.53-.43,7.1-.75,10.69-1.11,20.88-2.08,38.76-.89,61.69-4,38.88-5.24,66.92-9.79,99.19-10.39,55.86-1.18,105.73,15.29,158.78,14.87,30-.25,55-9.43,81.28-8.54,38,1.19,68.11,17.39,103.14,18.25,23.36.57,47.16-1.08,72.34-9.35"/><path class="cls-1" d="M1,502.1c154.33-6.39,379-10.63,652.84-16,58.75-1.16,111.23,7.38,169.89,14,108.16,12.14,209.1,7.51,280.15,5.31,94.3-2.92,156.79-19,206.17-16.7,129.24,6.09,213,27.12,300.79,27.3,43.62.07,82.29-6.62,127.48-5.6,49.43,1.25,96.5,13,152.42,12.36,43.36-.61,85.8-10.59,142.07-15.07,3.53-.28,7.08-.49,10.65-.72,20.64-1.37,39.2-.56,61-2.62,37.07-3.47,66.69-6.48,98.88-6.86,55.37-.76,106,10.24,158.11,10,29.23-.17,54.91-6.28,81.19-5.69,38.14.79,70.53,11.6,105.68,12.15,24,.38,48-.73,72.68-6.25"/><path class="cls-1" d="M1,521.27c160.71-3.85,394.35-6.57,678.67-9.76,56.36-.63,108.63,3.61,162.71,6.86,101.27,6.07,194.31,3.77,265.92,2.63,87.82-1.39,151.48-9.39,197.47-8.21,128.9,3.33,215.85,13.9,302.37,14.21,42.66.14,82.24-3.09,126.44-2.47,47.81.75,96,6.74,152.54,6.54,43.52-.22,88.89-5.14,144.53-7.28,3.53-.14,7.07-.24,10.61-.35,20.4-.68,39.64-.22,60.41-1.23,35.27-1.69,66.46-3.16,98.58-3.33,54.87-.32,106.36,5.2,157.43,5.09,28.46-.08,54.8-3.13,81.09-2.83,38.3.4,73,5.79,108.23,6.06,24.63.18,48.87-.39,73-3.17"/><path class="cls-1" d="M1,540.44c167.1-1.3,409.77-2.85,704.5-3.5,272.94-.6,495.76-.22,596,0,310.2.68,397.23,2,729,3,229.62.67,429.39.7,590.5.5"/></g></g></svg>