<svg xmlns="http://www.w3.org/2000/svg" viewBox="0 0 543.5 175.22"><defs><style>.cls-1,.cls-10,.cls-11,.cls-12,.cls-13,.cls-14,.cls-15,.cls-16,.cls-17,.cls-18,.cls-19,.cls-2,.cls-20,.cls-21,.cls-22,.cls-3,.cls-4,.cls-5,.cls-6,.cls-7,.cls-8,.cls-9{fill:none;stroke-linecap:round;stroke-miterlimit:10;stroke-width:2px;}.cls-1{stroke:#007794;opacity:0.19;}.cls-2{stroke:#007796;opacity:0.23;}.cls-3{stroke:#007698;opacity:0.27;}.cls-4{stroke:#007699;opacity:0.31;}.cls-5{stroke:#00769b;opacity:0.34;}.cls-6{stroke:#00769d;opacity:0.38;}.cls-7{stroke:#00759f;opacity:0.42;}.cls-8{stroke:#0075a0;opacity:0.46;}.cls-9{stroke:#0075a2;opacity:0.5;}.cls-10{stroke:#0074a4;opacity:0.54;}.cls-11{stroke:#0074a6;opacity:0.58;}.cls-12{stroke:#0074a7;opacity:0.61;}.cls-13{stroke:#0074a9;opacity:0.65;}.cls-14{stroke:#0073ab;opacity:0.69;}.cls-15{stroke:#0073ad;opacity:0.73;}.cls-16{stroke:#0073ae;opacity:0.77;}.cls-17{stroke:#0072b0;opacity:0.81;}.cls-18{stroke:#0072b2;opacity:0.85;}.cls-19{stroke:#0072b4;opacity:0.88;}.cls-20{stroke:#0072b5;opacity:0.92;}.cls-21{stroke:#0071b7;opacity:0.96;}.cls-22{stroke:#0071b9;}</style></defs><g id="Layer_2" data-name="Layer 2"><g id="Layer_1-2" data-name="Layer 1"><path class="cls-1" d="M1,45.08C7.81,27.53,18.72,6.23,34.49,1.78c21.42-6,33.3,24.25,63.29,47.79,49.6,38.93,101.17,22.07,113.74,18C256.27,52.9,264.91.15,288.29,10.44,316.54,22.88,320.88,99.71,344.24,99c12.78-.41,17.18-23.62,30.42-20.85,16.55,3.47,21.91,42.31,31,39.45,8.75-2.75,5.35-39,22.05-54.85,5.19-4.94,6.35-2.21,15.11-9.3,14.75-11.93,14.69-22.27,21.64-23.73,13.39-2.83,20.69,34,35.33,33C508.9,62.11,511.6,41.5,517,43.48c7.27,2.67,5,38.49,11.84,41.05,2.46.93,6.55-2.33,13.68-20.84"/><path class="cls-2" d="M1,51.23C9.13,34.49,22,14.5,39.83,9.94,60.89,4.55,72.64,33,101.71,55.45c48.1,37.07,98,21.08,110.65,17.11,43.53-13.72,52.3-64.07,75.05-54.37,28.15,12,33.25,85,56.36,84.32,12.54-.38,17.08-22.49,30.07-19.84,16.21,3.3,21.79,40.3,31,37.58,8-2.36,6.56-30.86,18.49-47.45A31,31,0,0,1,427.59,68c5.12-4.7,6.39-2.11,14.89-8.85C456.85,47.8,457.1,38,464,36.57,477.27,33.88,484.7,69,499.1,68c8.92-.58,11.74-20.21,17.11-18.33,7.36,2.55,5.63,36.71,12.52,39.1,2.6.9,6.75-2.22,13.77-19.85"/><path class="cls-3" d="M1,57.38c9.45-15.93,24.23-34.62,44.16-39.29C65.83,13.26,77.48,40,105.64,61.33c46.6,35.21,94.88,20.09,107.56,16.25,42.3-12.82,51.22-60.75,73.33-51.65,28.06,11.54,33.91,80.78,56.77,80.13,12.29-.36,17-21.36,29.71-18.85,15.88,3.15,21.68,38.3,31.05,35.72,8.07-2.24,7.23-29.31,19.17-45.07a30.57,30.57,0,0,1,4.2-4.53c5.05-4.46,6.42-2,14.68-8.42,14-10.79,14.54-20.14,21.43-21.47,13.11-2.55,20.67,30.8,34.84,29.9,8.75-.55,11.69-19.18,17.07-17.41,7.43,2.45,6.22,34.92,13.2,37.14,2.72.88,6.93-2.11,13.85-18.86"/><path class="cls-4" d="M1,63.53C11.78,48.42,28.48,31,50.51,26.25c20.23-4.36,31.82,20.77,59.05,41C154.68,100.57,201.3,86.3,214,82.6c41.05-11.94,50.14-57.44,71.61-48.93,28,11.09,34.57,76.55,57.18,75.94,12.05-.34,16.88-20.23,29.36-17.85,15.54,3,21.56,36.29,31.05,33.85,8.14-2.12,7.9-27.76,19.84-42.69a30.89,30.89,0,0,1,4.19-4.29c5-4.21,6.46-1.9,14.47-8,13.59-10.23,14.46-19.08,21.32-20.34,13-2.41,20.67,29.18,34.6,28.33,8.58-.53,11.65-18.16,17-16.49,7.52,2.33,6.82,33.11,13.88,35.18,2.86.85,7.12-2,13.94-17.87"/><path class="cls-5" d="M1,69.67C13.11,55.38,31.7,39.23,55.86,34.41,75.64,30.46,87.18,54,113.49,73.08c43.62,31.51,88.58,18.11,101.39,14.54,39.8-11.09,49.08-54.14,69.89-46.2,27.9,10.63,35.23,72.3,57.59,71.73,11.8-.31,16.78-19.1,29-16.84,15.2,2.82,21.45,34.28,31.06,32,8.21-2,8.56-26.21,20.52-40.31a31.31,31.31,0,0,1,4.17-4c4.91-4,6.48-1.81,14.26-7.53,13.17-9.68,14.38-18,21.21-19.2C475.41,55,483.24,84.76,496.94,84c8.41-.5,11.6-17.15,17-15.58,7.6,2.22,7.42,31.31,14.56,33.23,3,.81,7.3-1.89,14-16.88"/><path class="cls-6" d="M1,75.82C14.43,62.35,34.91,47.43,61.2,42.56,80.53,39,92,61,117.42,79c42.12,29.65,85.43,17.1,98.31,13.68,38.53-10.25,48-50.85,68.17-43.48,27.82,10.17,35.88,68.07,58,67.54,11.56-.3,16.69-18,28.65-15.84,14.86,2.66,21.34,32.27,31.06,30.11,8.29-1.88,9.21-24.69,21.19-37.92A30.17,30.17,0,0,1,427,89.23c4.84-3.72,6.52-1.71,14-7.08C453.78,73,455.3,65.21,462.1,64.08,474.8,62,482.76,90,496.22,89.27c8.24-.47,11.56-16.13,16.93-14.66,7.69,2.1,8,29.49,15.24,31.27,3.13.78,7.49-1.78,14.11-15.89"/><path class="cls-7" d="M1,82C15.76,69.31,38.11,55.61,66.54,50.72,85.4,47.47,96.88,68,121.34,84.83c40.64,27.8,82.28,16.11,95.23,12.83C253.83,88.22,263.52,50.09,283,56.9c27.75,9.7,36.54,63.83,58.4,63.34,11.31-.27,16.59-16.83,28.3-14.83,14.52,2.49,21.22,30.29,31.06,28.24,8.36-1.74,9.87-23.14,21.87-35.54a31.57,31.57,0,0,1,4.14-3.58c4.77-3.48,6.55-1.6,13.83-6.63C453,79.33,454.85,72,461.62,71c12.56-2,20.65,24.32,33.88,23.62,8.07-.44,11.52-15.11,16.89-13.75,7.77,2,8.64,27.68,15.91,29.32,3.27.75,7.69-1.67,14.2-14.89"/><path class="cls-8" d="M1,88.12A164,164,0,0,1,71.88,58.87C90.27,55.93,101.72,75,125.27,90.71c39.14,25.94,79.12,15.1,92.14,12,36-8.66,45.9-44.3,64.73-38,27.7,9.22,37.2,59.58,58.81,59.14,11.07-.25,16.49-15.71,27.94-13.84,14.19,2.34,21.11,28.29,31.07,26.38,8.44-1.62,10.54-21.6,22.54-33.16a32.76,32.76,0,0,1,4.13-3.34c4.69-3.24,6.59-1.5,13.62-6.19,12-8,14.15-14.81,20.89-15.8,12.42-1.83,20.64,22.7,33.64,22,7.9-.4,11.48-14.09,16.84-12.82,7.87,1.86,9.25,25.85,16.6,27.37,3.4.7,7.87-1.57,14.28-13.91"/><path class="cls-9" d="M1,94.26C18.41,83.24,44.5,71.89,77.23,67c17.91-2.66,29.34,15,52,29.55,37.64,24.09,76,14.1,89.05,11.12,34.69-7.89,44.85-41,63-35.31,27.64,8.74,37.86,55.35,59.22,55,10.82-.23,16.39-14.58,27.59-12.84,13.85,2.18,21,26.28,31.07,24.51,8.51-1.49,11.21-20.06,23.22-30.78a34.27,34.27,0,0,1,4.11-3.1c4.62-3,6.62-1.4,13.4-5.74C451.48,92,454,85.64,460.66,84.72c12.28-1.69,20.64,21.08,33.4,20.47,7.73-.37,11.44-13.08,16.8-11.91,7.95,1.74,9.86,24,17.27,25.42,3.54.66,8.06-1.46,14.37-12.92"/><path class="cls-10" d="M1,100.41C19.73,90.2,47.69,80,82.57,75.19,100,72.79,111.42,89,133.13,102.46c36.15,22.23,72.8,13.08,86,10.26,33.39-7.15,43.82-37.8,61.29-32.58,27.6,8.23,38.52,51.1,59.63,50.74,10.58-.2,16.29-13.44,27.23-11.83,13.52,2,20.89,24.27,31.08,22.64,8.58-1.37,11.87-18.51,23.89-28.4a34.41,34.41,0,0,1,4.1-2.86c4.54-2.75,6.66-1.29,13.19-5.3,11.22-6.87,14-12.68,20.67-13.53,12.15-1.56,20.64,19.46,33.17,18.9,7.56-.35,11.4-12.07,16.75-11,8,1.62,10.47,22.19,17.95,23.46,3.69.62,8.25-1.35,14.46-11.93"/><path class="cls-11" d="M1.05,106.56c20-9.4,49.82-18.51,86.86-23.22,17-2.15,28.36,12.67,49.14,25,34.66,20.38,69.64,12.06,82.89,9.4,32.08-6.43,42.77-34.57,59.56-29.86,27.56,7.72,39.18,46.86,60,46.55,10.33-.19,16.19-12.32,26.88-10.83,13.17,1.85,20.77,22.26,31.08,20.77,8.65-1.25,12.54-17,24.57-26a36,36,0,0,1,4.08-2.62c4.46-2.51,6.69-1.19,13-4.85C450,104.57,453,99.26,459.69,98.48c12-1.42,20.64,17.84,32.93,17.33,7.39-.32,11.36-11,16.71-10.07,8.12,1.49,11.08,20.35,18.63,21.5,3.82.57,8.43-1.24,14.54-10.94"/><path class="cls-12" d="M1.05,112.71c21.33-8.58,53-16.64,92.21-21.21,16.46-1.92,27.83,11.55,47.72,22.71,33.12,18.6,66.47,11,79.8,8.55,30.77-5.73,41.75-31.35,57.84-27.14,27.54,7.2,39.84,42.63,60.45,42.35,10.08-.16,16.09-11.18,26.53-9.83,12.83,1.69,20.65,20.26,31.08,18.91,8.73-1.13,13.21-15.42,25.24-23.64A40.55,40.55,0,0,1,426,121c4.39-2.27,6.73-1.08,12.76-4.4,10.44-5.75,13.84-10.56,20.46-11.27,11.87-1.29,20.63,16.22,32.69,15.76,7.22-.29,11.32-10.05,16.66-9.16,8.22,1.37,11.7,18.52,19.31,19.55,4,.53,8.62-1.12,14.63-9.94"/><path class="cls-13" d="M1.06,118.85c22.65-7.76,56.16-14.79,97.54-19.19,16-1.71,27.34,10.39,46.31,20.43,31.63,16.74,63.3,10,76.71,7.69,29.46-5.06,40.72-28.14,56.13-24.41,27.5,6.65,40.49,38.38,60.85,38.15,9.84-.14,16-10.05,26.17-8.83,12.5,1.53,20.54,18.25,31.09,17,8.8-1,13.89-13.88,25.92-21.26a44.29,44.29,0,0,1,4.05-2.14c4.31-2,6.77-1,12.55-4,10.05-5.18,13.76-9.49,20.35-10.13,11.73-1.15,20.62,14.61,32.45,14.19,7.05-.26,11.29-9,16.61-8.24,8.31,1.23,12.32,16.67,20,17.59,4.09.48,8.81-1,14.71-9"/><path class="cls-14" d="M1.06,125c24-6.94,59.34-13,102.88-17.19,15.5-1.49,26.85,9.24,44.89,18.16,30.14,14.88,60.14,8.95,73.63,6.83,28.14-4.4,39.7-25,54.41-21.69,27.49,6.09,41.15,34.15,61.26,34,9.59-.11,15.89-8.92,25.82-7.82,12.16,1.37,20.42,16.24,31.09,15.17,8.87-.89,14.56-12.33,26.6-18.88,1.28-.69,2.63-1.3,4-1.9,4.23-1.8,6.81-.87,12.34-3.51,9.66-4.62,13.68-8.43,20.24-9,11.59-1,20.62,13,32.21,12.63,6.88-.23,11.25-8,16.57-7.33,8.39,1.11,12.92,14.83,20.67,15.64,4.23.44,9-.9,14.8-8"/><path class="cls-15" d="M1.07,131.15C26.36,125,63.57,119.89,109.28,116c15-1.29,26.36,8.08,43.48,15.87,28.65,13,57,7.9,70.54,6,26.82-3.77,38.69-21.77,52.69-19,27.48,5.5,41.81,29.91,61.67,29.76,9.35-.09,15.8-7.79,25.46-6.82,11.83,1.2,20.31,14.23,31.1,13.3,8.94-.77,15.23-10.78,27.27-16.5,1.29-.61,2.63-1.13,4-1.66,4.14-1.56,6.84-.76,12.12-3.07,9.28-4,13.61-7.36,20.14-7.87,11.45-.88,20.61,11.38,32,11.06,6.72-.21,11.22-7,16.53-6.41,8.49,1,13.54,13,21.35,13.68,4.38.39,9.19-.79,14.89-7"/><path class="cls-16" d="M1.07,137.3c26.61-5.32,65.66-9.57,113.56-13.18,14.52-1.09,25.86,6.93,42.06,13.6,27.15,11.18,53.79,6.82,67.46,5.12,25.49-3.16,37.67-18.6,51-16.24,27.47,4.88,42.47,25.66,62.08,25.56,9.1-.08,15.7-6.66,25.11-5.83,11.48,1,20.19,12.2,31.1,11.44,9-.67,15.91-9.23,28-14.11,1.28-.53,2.63-1,4-1.42,4.06-1.34,6.88-.66,11.91-2.63,8.89-3.48,13.53-6.31,20-6.74,11.31-.74,20.61,9.76,31.72,9.48,6.55-.17,11.18-6,16.49-5.49,8.57.84,14.15,11.14,22,11.73,4.51.33,9.37-.68,15-6"/><path class="cls-17" d="M1.08,143.44C29,139,69.9,135.51,120,132.28c14-.91,25.37,5.77,40.64,11.32,25.67,9.32,50.62,5.74,64.38,4.27,24.16-2.59,36.65-15.46,49.24-13.53,27.47,4.22,43.13,21.43,62.49,21.36,8.86,0,15.6-5.53,24.76-4.82,11.14.89,20.07,10.19,31.1,9.57,9.09-.55,16.58-7.68,28.62-11.73,1.29-.44,2.63-.81,4-1.18,4-1.1,6.92-.55,11.7-2.19,8.51-2.9,13.44-5.24,19.92-5.6,11.17-.61,20.6,8.14,31.48,7.91,6.38-.14,11.14-5,16.44-4.57,8.67.7,14.77,9.28,22.71,9.77,4.65.28,9.56-.57,15.06-5"/><path class="cls-18" d="M1.08,149.59c29.25-3.68,72-6.36,124.23-9.15,13.57-.73,24.88,4.6,39.23,9,24.18,7.47,47.44,4.64,61.29,3.42,22.84-2,35.64-12.33,47.52-10.8,27.47,3.52,43.79,17.18,62.9,17.16,8.61,0,15.5-4.4,24.4-3.82,10.81.72,20,8.18,31.11,7.7,9.16-.43,17.25-6.12,29.3-9.35,1.29-.35,2.62-.64,4-.94,3.9-.88,7-.44,11.49-1.74,8.12-2.33,13.36-4.19,19.81-4.47,11-.48,20.59,6.52,31.24,6.34,6.21-.11,11.1-4,16.4-3.66,8.75.57,15.37,7.43,23.39,7.82a24,24,0,0,0,15.14-4"/><path class="cls-19" d="M1.09,155.74c30.57-2.87,75.15-4.87,129.56-7.15,13.09-.55,24.39,3.45,37.82,6.76,22.69,5.6,44.27,3.51,58.2,2.56,21.51-1.48,34.63-9.21,45.8-8.08,27.48,2.77,44.45,12.95,63.31,13,8.37,0,15.4-3.26,24.05-2.81,10.47.56,19.85,6.17,31.11,5.83,9.23-.3,17.93-4.56,30-7,1.3-.26,2.62-.48,4-.7,3.82-.65,7-.33,11.27-1.29,7.75-1.75,13.29-3.13,19.71-3.34,10.89-.35,20.59,4.9,31,4.77,6-.08,11.06-3,16.35-2.74,8.84.43,16,5.57,24.07,5.86a30.23,30.23,0,0,0,15.23-3"/><path class="cls-20" d="M1.09,161.89c31.89-2,78.32-3.46,134.91-5.14,12.61-.38,23.89,2.28,36.39,4.48,21.21,3.73,41.1,2.36,55.12,1.7,20.2-1,33.61-6.1,44.09-5.36,27.47,2,45.1,8.71,63.71,8.77,8.12,0,15.3-2.14,23.69-1.81,10.14.39,19.74,4.16,31.12,4,9.31-.18,18.6-3,30.65-4.59,1.3-.17,2.61-.31,3.94-.46,3.74-.42,7.05-.21,11.06-.85,7.36-1.16,13.21-2.08,19.6-2.2,10.75-.24,20.58,3.28,30.76,3.2,5.87-.05,11-2,16.31-1.82,8.93.29,16.59,3.71,24.74,3.9a43.39,43.39,0,0,0,15.32-2"/><path class="cls-21" d="M1.1,168c33.21-1.24,81.49-2.14,140.24-3.14,12.14-.2,23.4,1.1,35,2.2,19.72,1.83,37.93,1.19,52,.85,18.88-.46,32.58-3,42.36-2.63,27.46,1.07,45.76,4.46,64.12,4.57,7.88,0,15.2-1,23.34-.82,9.8.24,19.62,2.16,31.12,2.1,9.38-.06,19.27-1.43,31.32-2.21l3.93-.22c3.66-.2,7.09-.09,10.85-.4,7-.58,13.13-1,19.49-1.07,10.61-.11,20.58,1.66,30.52,1.63,5.7,0,11-1,16.26-.91,9,.13,17.21,1.86,25.43,1.95a84.18,84.18,0,0,0,15.4-1"/><path class="cls-22" d="M1.1,174.18c34.53-.41,84.68-.91,145.58-1.12,56.4-.19,102.45-.07,123.16,0,64.1.22,82.08.65,150.64,1,47.45.22,88.73.23,122,.16"/></g></g></svg>