<svg xmlns="http://www.w3.org/2000/svg" viewBox="0 0 1387.52 1300.22"><defs><style>.cls-1,.cls-10,.cls-11,.cls-12,.cls-13,.cls-14,.cls-15,.cls-16,.cls-17,.cls-18,.cls-19,.cls-2,.cls-20,.cls-21,.cls-22,.cls-23,.cls-24,.cls-25,.cls-26,.cls-27,.cls-28,.cls-29,.cls-3,.cls-30,.cls-31,.cls-32,.cls-33,.cls-34,.cls-35,.cls-36,.cls-37,.cls-38,.cls-39,.cls-4,.cls-40,.cls-41,.cls-42,.cls-43,.cls-5,.cls-6,.cls-7,.cls-8,.cls-9{fill:none;stroke:#6890a5;stroke-linecap:round;stroke-miterlimit:10;}.cls-1{opacity:0.13;}.cls-2{opacity:0.15;}.cls-3{opacity:0.17;}.cls-4{opacity:0.19;}.cls-5{opacity:0.21;}.cls-6{opacity:0.23;}.cls-7{opacity:0.26;}.cls-8{opacity:0.28;}.cls-9{opacity:0.3;}.cls-10{opacity:0.32;}.cls-11{opacity:0.34;}.cls-12{opacity:0.36;}.cls-13{opacity:0.38;}.cls-14{opacity:0.4;}.cls-15{opacity:0.42;}.cls-16{opacity:0.44;}.cls-17{opacity:0.47;}.cls-18{opacity:0.49;}.cls-19{opacity:0.51;}.cls-20{opacity:0.53;}.cls-21{opacity:0.55;}.cls-22{opacity:0.57;}.cls-23{opacity:0.59;}.cls-24{opacity:0.61;}.cls-25{opacity:0.63;}.cls-26{opacity:0.65;}.cls-27{opacity:0.67;}.cls-28{opacity:0.69;}.cls-29{opacity:0.71;}.cls-30{opacity:0.73;}.cls-31{opacity:0.75;}.cls-32{opacity:0.77;}.cls-33{opacity:0.8;}.cls-34{opacity:0.82;}.cls-35{opacity:0.84;}.cls-36{opacity:0.86;}.cls-37{opacity:0.88;}.cls-38{opacity:0.9;}.cls-39{opacity:0.92;}.cls-40{opacity:0.94;}.cls-41{opacity:0.96;}.cls-42{opacity:0.98;}</style></defs><g id="Layer_2" data-name="Layer 2"><g id="Layer_1-2" data-name="Layer 1"><path class="cls-1" d="M1387,.5s-198.5,221.72-174.5,312.72-279,188-260,308,86,21,82,113-296-66-426,33,58,263-144,265-329,141-334,187-130,80.5-130,80.5"/><path class="cls-2" d="M29,1299.72s121.76-33.52,130.06-78.5c4.42-24,41.71-71.7,101.3-114.39,55.73-39.93,129.78-74.42,225.1-76.8,193.83-4.84,17.58-159.68,144.16-254.54,127.85-95.12,410,54.56,414-35,4-89.33-61.07,3.27-79.64-112.79-7.79-48.09,35.79-92.64,90.69-134.82,79.35-61,176.13-117,163-171-10-41.14,22.9-107.42,62.39-168.37C1329.43,77.35,1387,12,1387,12"/><path class="cls-3" d="M57.51,1299.72s118.6-32.61,130.11-76.51c6.26-23.87,44.71-69.81,101.1-113,54.4-41.67,123.23-78.54,217.7-82.36,185.63-7.51,20.84-153.78,144.32-244.07,125.39-91.69,398,50.1,402.06-37,4-86.65-59.13-.44-77.28-112.58-7.85-47.36,33.74-91.44,88.38-133.45,78.27-60.16,171-116.08,158.93-170.17-9.15-41.34,22.32-106.48,60.36-166.57C1331.86,87.13,1387,23.4,1387,23.4"/><path class="cls-4" d="M86,1299.72s115.52-31.74,130.15-74.51c8.15-23.81,47.69-68,100.91-111.64s116.63-82.63,210.29-87.92c177.4-10,24.29-147.66,144.48-233.61,123.1-88,386.07,45.66,390.1-39,4-84-56.89-4.22-74.92-112.37-7.78-46.65,31.69-90.24,86.06-132.08C1150.29,449.25,1239,393.42,1228,339.27c-8.31-41.53,21.72-105.54,58.33-164.77C1334.27,96.9,1387,34.85,1387,34.85"/><path class="cls-5" d="M114.53,1299.72s112.55-30.88,130.19-72.51c10.08-23.78,50.63-66.37,100.72-110.27,51.8-45.39,110-86.7,202.89-93.48C717.45,1011.12,576.06,881.93,693,800.32c120.82-84.36,374.1,41.21,378.13-41,3.94-81.3-54.87-8-72.56-112.15-7.8-45.94,29.64-89.05,83.75-130.71C1158.4,457.91,1243,402.18,1233.13,348c-7.57-41.71,21.11-104.62,56.3-163A1248.93,1248.93,0,0,1,1387,46.29"/><path class="cls-6" d="M143,1299.72s109.69-30,130.25-70.52c12.05-23.74,53.51-64.81,100.52-108.89,50.51-47.37,103.32-90.75,195.48-99,160.83-14.48,31.2-135.39,144.79-212.68,118.56-80.68,362.12,36.77,366.16-42.94,3.93-78.64-52.85-11.69-70.2-111.94-7.82-45.22,27.6-87.85,81.44-129.35,75-57.8,155.59-113.44,146.82-167.73-6.77-41.89,20.47-103.71,54.26-161.16C1339.07,116.39,1387,57.74,1387,57.74"/><path class="cls-7" d="M171.54,1299.72s106.91-29.17,130.29-68.52c14.08-23.7,56.36-63.36,100.32-107.52,49.22-49.44,96.62-94.76,188.08-104.6,152.52-16.42,34.69-129.23,144.95-202.22,116.31-77,350.15,32.32,354.19-44.93,3.92-76-50.85-15.42-67.84-111.73-7.84-44.49,25.55-86.65,79.13-128,74-57,150.47-112.56,142.78-166.91-6-42.09,19.82-102.83,52.24-159.37C1341.45,126.12,1387,69.19,1387,69.19"/><path class="cls-8" d="M200.05,1299.72s104.2-28.28,130.33-66.52c16.16-23.66,59.15-62,100.13-106.15,47.91-51.59,89.87-98.72,180.67-110.16,144.19-18.17,38.19-123.06,145.11-191.75,114.08-73.3,338.18,27.87,342.23-46.92,3.89-73.29-48.86-19.16-65.48-111.52-7.88-43.77,23.5-85.45,76.81-126.61C1182.75,483.87,1255.2,428.4,1248.6,374c-5.13-42.28,19.15-101.95,50.2-157.56,45-80.61,88.22-135.8,88.22-135.8"/><path class="cls-9" d="M228.55,1299.72s101.57-27.35,130.38-64.53c18.27-23.58,61.88-60.77,99.94-104.77,46.56-53.83,83.09-102.64,173.27-115.72C768,995,673.85,897.83,777.4,833.41c111.87-69.59,326.2,23.43,330.26-48.9,3.88-70.62-46.88-22.9-63.12-111.31C1036.63,630.15,1066,588.94,1119,548c71.83-55.43,140.24-110.82,134.71-165.28-4.31-42.47,18.47-101.08,48.17-155.76,44.22-81.4,85.1-134.83,85.1-134.83"/><path class="cls-10" d="M257.06,1299.72s99-26.37,130.42-62.53c20.41-23.48,64.54-59.62,99.75-103.4,45.16-56.17,76.29-106.51,165.86-121.28,127.5-21,45.25-110.66,145.42-170.83,109.67-65.86,314.23,19,318.29-50.89,3.87-67.94-44.91-26.62-60.76-111.1-7.94-42.32,19.4-83.05,72.19-123.86,70.75-54.65,135.13-110,130.68-164.47-3.49-42.67,17.76-100.22,46.14-154,43.41-82.21,82-133.87,82-133.87"/><path class="cls-11" d="M285.56,1299.72S382,1274.36,416,1239.19c22.59-23.35,67.12-58.55,99.55-102,43.7-58.58,69.46-110.3,158.46-126.84C793.2,988.17,722.85,905.89,819.62,850c107.49-62.13,302.25,14.53,306.33-52.88,3.85-65.27-43-30.36-58.4-110.89-8-41.6,17.35-81.86,69.87-122.5,69.68-53.85,130-109.07,126.64-163.64-2.66-42.87,17-99.38,44.11-152.16C1350.75,164.87,1387,115,1387,115"/><path class="cls-12" d="M314.07,1299.72s93.92-24.29,130.52-58.54c24.77-23.18,69.61-57.54,99.35-100.65,42.14-61.09,62.62-114,151-132.4,110.83-23,52.39-98.18,145.74-149.9,105.33-58.36,290.28,10.09,294.36-54.87,3.84-62.59-41-34.08-56-110.67-8-40.88,15.3-80.66,67.56-121.13,68.6-53.07,124.93-108.21,122.61-162.83-1.84-43.06,16.29-98.54,42.07-150.35C1353,174.52,1387,126.43,1387,126.43"/><path class="cls-13" d="M342.58,1299.72s91.41-23.19,130.56-56.54c27-23,72-56.61,99.16-99.28,40.47-63.68,55.76-117.63,143.65-138,102.51-23.71,56-91.89,145.89-139.43,103.2-54.56,278.3,5.65,282.39-56.85,3.83-59.92-39.07-37.81-53.68-110.47-8.07-40.15,13.26-79.46,65.25-119.75,67.53-52.28,119.83-107.34,118.57-162-1-43.25,15.53-97.72,40-148.55,40.84-84.71,72.61-131,72.61-131"/><path class="cls-14" d="M371.08,1299.72s88.92-22,130.61-54.54c29.19-22.76,74.37-55.72,99-97.92,38.66-66.33,48.9-121.11,136.24-143.52,94.22-24.17,59.6-85.57,146.05-129C984,824,1149.28,876,1153.37,815.93c3.81-57.24-37.15-41.53-51.32-110.25-8.12-39.42,11.21-78.26,62.94-118.39,66.45-51.49,114.74-106.46,114.53-161.2-.16-43.45,14.76-96.9,38-146.75,39.92-85.57,69.48-130,69.48-130"/><path class="cls-15" d="M399.59,1299.72s86.42-20.86,130.65-52.55c31.41-22.5,76.62-54.86,98.77-96.54,36.72-69.07,42.08-124.45,128.84-149.08,86-24.4,63.25-79.22,146.21-118.5,99-46.87,254.35-3.25,258.46-60.83,3.79-54.58-35.25-45.25-49-110-8.19-38.7,9.16-77.07,60.62-117,65.38-50.7,109.65-105.59,110.5-160.38.67-43.65,14-96.1,36-144.95,39-86.45,66.36-129,66.36-129"/><path class="cls-16" d="M428.1,1299.72s83.92-19.65,130.69-50.55c33.64-22.22,78.79-54,98.58-95.17,34.58-71.86,35.29-127.6,121.43-154.64,77.79-24.41,66.92-72.82,146.37-108,96.93-43,242.38-7.7,246.49-62.82,3.78-51.91-33.36-49-46.6-109.83-8.26-38,7.11-75.88,58.32-115.66,64.3-49.91,104.56-104.72,106.45-159.56,1.52-43.84,13.14-95.29,34-143.15,38-87.34,63.24-128.08,63.24-128.08"/><path class="cls-17" d="M456.6,1299.72s81.42-18.4,130.74-48.55c35.86-21.92,80.87-53.21,98.39-93.8,32.25-74.71,28.59-130.49,114-160.2,69.66-24.22,70.59-66.38,146.52-97.57,94.9-39,230.4-12.15,234.52-64.81,3.77-49.23-31.48-52.68-44.24-109.62-8.34-37.23,5.06-74.67,56-114.28C1255.79,561.77,1292,507,1295,452.14c2.36-44,12.3-94.5,31.91-141.34,36.95-88.26,60.12-127.13,60.12-127.13"/><path class="cls-18" d="M485.11,1299.72s78.9-17.14,130.79-46.56c38.07-21.59,82.86-52.37,98.19-92.42,29.69-77.58,22-133.06,106.62-165.76,61.63-23.81,74.3-59.88,146.68-87.11,92.88-34.93,218.43-16.59,222.56-66.79,3.75-46.56-29.63-56.39-41.89-109.41-8.43-36.5,3-73.48,53.7-112.91,62.15-48.34,94.4-103,98.38-157.94,3.21-44.22,11.45-93.7,29.89-139.54,35.87-89.17,57-126.16,57-126.16"/><path class="cls-19" d="M513.62,1299.72s76.37-15.84,130.83-44.56c40.29-21.25,84.78-51.52,98-91.05,26.91-80.47,15.69-135.2,99.22-171.32,53.72-23.23,78-53.33,146.84-76.64,90.89-30.8,206.46-21,210.59-68.79,3.74-43.88-27.79-60.09-39.52-109.19-8.55-35.77,1-72.28,51.38-111.55,61.07-47.54,89.41-102.09,94.35-157.11,4.13-44.41,10.57-92.93,27.85-137.74,34.74-90.12,53.87-125.2,53.87-125.2"/><path class="cls-20" d="M542.12,1299.72S616,1285.19,673,1257.16c42.5-20.89,86.62-50.63,97.8-89.68,23.87-83.35,9.71-136.74,91.81-176.88,46-22.48,81.74-46.7,147-66.18,88.91-26.55,194.48-25.48,198.62-70.77,3.72-41.21-26-63.8-37.16-109-8.68-35-1.08-71.08,49.07-110.17,60-46.76,84.31-101.22,90.31-156.3,5-44.6,9.68-92.14,25.82-135.94C1369.83,251.19,1387,218,1387,218"/><path class="cls-21" d="M570.63,1299.72s71.29-13.21,130.92-40.57c44.7-20.51,88.4-49.68,97.61-88.3,20.56-86.2,4.34-137.45,84.41-182.44,38.46-21.62,85.45-40,147.15-55.72,86.94-22.16,182.51-29.93,186.65-72.76,3.71-38.53-24.16-67.48-34.8-108.77-8.83-34.27-3.13-69.88,46.76-108.81,58.92-46,79.21-100.34,86.27-155.48,5.8-44.79,8.78-91.35,23.8-134.13,32.31-92,47.62-123.27,47.62-123.27"/><path class="cls-22" d="M599.14,1299.72s211.38-36.5,228.38-125.5,0-137,77-188,315-52,322-120-93-134,12-216,73-194,104-287,44.5-122.3,44.5-122.3"/><path class="cls-23" d="M1387,282.24s-13.24,28.06-43.23,116.91-.36,196.14-100.66,274.93c-100.2,78.58-5.7,141.93-11.23,207.38-4.83,57.2-169.64,68.15-264,99.31-16.82,5.56-32.14,11.93-43.23,19.28-73.33,48.57-60.21,94.77-76.4,179.53s-221.43,120.14-221.43,120.14"/><path class="cls-24" d="M1387,323.57s-13,26.82-42,111.52c-29.22,84.84-1.72,187.26-97.31,262.85-95.41,75.16-6.36,135.89-10.47,198.76-3.71,56.71-161,69.14-250.65,98.74-16,5.28-31.27,11.45-41.81,18.43-69.67,46.14-60.41,90.54-75.79,171.06s-214.48,114.79-214.48,114.79"/><path class="cls-25" d="M1387,364.9s-12.71,25.57-40.69,106.12c-28.33,80.76-3.08,178.4-94,250.78-90.61,71.75-6.94,129.87-9.7,190.13-2.57,56.27-152.37,70.14-237.3,98.19-15.14,5-30.4,11-40.39,17.58-66,43.71-60.61,86.3-75.18,162.59s-207.54,109.43-207.54,109.43"/><path class="cls-26" d="M1387,406.23S1374.73,430.62,1347.6,507c-27.28,76.73-4.3,169.7-90.62,238.7-85.69,68.5-7.47,123.87-8.94,181.51-1.42,55.86-143.74,71.14-224,97.62-14.3,4.72-29.54,10.49-39,16.73-62.33,41.29-60.82,82.08-74.58,154.13S710,1299.72,710,1299.72"/><path class="cls-27" d="M1387,447.56s-12,23.15-38.15,95.33c-26.35,72.67-5.62,160.88-87.28,226.63-80.86,65.12-7.91,117.89-8.17,172.89-.25,55.47-135.1,72.13-210.6,97.05-13.45,4.45-28.67,10-37.55,15.89-58.66,38.86-61,77.84-74,145.65s-193.64,98.72-193.64,98.72"/><path class="cls-28" d="M1387,488.89s-11.68,21.92-36.88,89.93c-25.42,68.61-7,152-83.93,214.57-76,61.73-8.3,111.92-7.41,164.26.94,55.12-126.47,73.12-197.24,96.48-12.62,4.17-27.81,9.53-36.13,15-55,36.43-61.23,73.62-73.37,137.19s-186.69,93.36-186.69,93.36"/><path class="cls-29" d="M1387,530.22s-11.38,20.69-35.61,84.54c-24.49,64.54-8.27,143.22-80.59,202.49-71.2,58.35-8.59,106-6.64,155.64,2.16,54.8-117.84,74.11-183.89,95.92-11.78,3.88-27,9-34.71,14.19-51.34,34-61.44,69.38-72.77,128.72s-179.74,88-179.74,88"/><path class="cls-30" d="M1387,571.55s-11.09,19.46-34.34,79.14c-23.56,60.48-9.6,134.39-77.24,190.42-66.38,55-8.82,100.06-5.87,147,3.41,54.51-109.22,75.1-170.55,95.35-10.94,3.61-26.08,8.57-33.29,13.35-47.67,31.57-61.64,65.15-72.16,120.24s-172.79,82.65-172.79,82.65"/><path class="cls-31" d="M1387,612.87s-10.79,18.24-33.07,73.75C1331.31,743,1343,812.18,1280.05,865c-61.55,51.59-9,94.14-5.1,138.39,4.71,54.25-100.58,76.1-157.2,94.79-10.1,3.33-25.21,8.09-31.87,12.5-44,29.14-61.84,60.92-71.56,111.78s-165.84,77.29-165.84,77.29"/><path class="cls-32" d="M1387,654.2s-10.5,17-31.8,68.36c-21.72,52.35-12.25,116.72-70.55,166.27-56.73,48.2-9,88.24-4.34,129.77,6.06,54-91.95,77.09-143.85,94.22-9.25,3.06-24.35,7.62-30.45,11.66-40.33,26.71-62,56.69-71,103.31s-158.89,71.93-158.89,71.93"/><path class="cls-33" d="M1387,695.53s-10.21,15.79-30.53,63c-20.8,48.29-13.57,107.89-67.21,154.2-51.9,44.81-9,82.33-3.57,121.15,7.48,53.79-83.32,78.08-130.5,93.66-8.41,2.77-23.48,7.13-29,10.8-36.67,24.29-62.25,52.46-70.34,94.84s-151.95,66.58-151.95,66.58"/><path class="cls-34" d="M1387,736.86s-9.92,14.56-29.26,57.57c-19.88,44.22-14.9,99.05-63.86,142.12-47.08,41.42-8.86,76.43-2.81,112.53,9,53.57-74.69,79.07-117.15,93.09-7.57,2.5-22.61,6.65-27.61,10-33,21.86-62.45,48.23-69.74,86.37s-145,61.22-145,61.22"/><path class="cls-35" d="M1387,778.19s-9.64,13.33-28,52.17c-19,40.17-16.22,90.2-60.52,130-42.26,38-8.64,70.52-2,103.91,10.55,53.36-66,80.06-103.8,92.52-6.73,2.22-21.75,6.17-26.19,9.11-29.33,19.43-62.65,44-69.13,77.91s-138,55.86-138,55.86"/><path class="cls-36" d="M1387,819.52s-9.37,12.1-26.72,46.77c-18.07,36.11-17.55,81.36-57.17,118-37.44,34.62-8.35,64.61-1.28,95.28,12.25,53.15-57.42,81.06-90.45,92-5.89,2-20.88,5.7-24.77,8.27-25.66,17-62.86,39.76-68.52,69.43S987,1299.72,987,1299.72"/><path class="cls-37" d="M1387,860.85s-9.1,10.87-25.45,41.38c-17.17,32-18.89,72.5-53.82,105.9-32.64,31.2-8,58.67-.52,86.66,14.09,52.89-48.79,82-77.1,91.4-5,1.66-20,5.21-23.34,7.42-22,14.57-63.07,35.53-67.93,61s-124.15,45.15-124.15,45.15"/><path class="cls-38" d="M1387,902.18s-8.85,9.64-24.18,36c-16.28,28-20.22,63.63-50.48,93.83-27.82,27.78-7.51,52.71.25,78,16.11,52.58-40.16,83-63.75,90.83-4.2,1.39-19.15,4.73-21.92,6.57-18.34,12.14-63.27,31.3-67.32,52.49s-117.2,39.8-117.2,39.8"/><path class="cls-39" d="M1387,943.5s-8.61,8.42-22.9,30.59c-15.43,23.93-21.58,54.75-47.14,81.76-23,24.34-7,46.7,1,69.42,18.35,52.18-31.52,84-50.4,90.26-3.36,1.11-18.28,4.26-20.5,5.73-14.67,9.71-63.48,27.07-66.72,44s-110.25,34.44-110.25,34.44"/><path class="cls-40" d="M1387,984.83s-8.4,7.17-21.63,25.2c-14.58,19.85-22.94,45.84-43.8,69.68-18.25,20.87-6.36,40.65,1.78,60.8,20.88,51.62-22.89,85-37,89.69-2.53.84-17.43,3.78-19.09,4.88-11,7.29-63.68,22.84-66.11,35.56s-103.3,29.08-103.3,29.08"/><path class="cls-41" d="M1387,1026.16s-8.22,5.91-20.36,19.8c-13.77,15.75-24.33,36.89-40.45,57.61-13.51,17.37-5.7,34.53,2.55,52.17,23.76,50.84-14.27,86-23.7,89.14-1.69.55-16.56,3.29-17.67,4-7.33,4.86-63.88,18.61-65.5,27.08s-96.36,23.73-96.36,23.73"/><path class="cls-42" d="M1387,1067.49s-8.08,4.59-19.09,14.41c-13,11.59-25.81,27.88-37.11,45.54-8.83,13.8-5,28.3,3.32,43.54,27.1,49.69-5.63,87-10.35,88.57-.84.28-15.69,2.82-16.25,3.18-3.66,2.43-64.09,14.38-64.9,18.62s-89.4,18.37-89.4,18.37"/><path class="cls-43" d="M1387,1108.82s-77.58,30.83-47.5,77.4c31,48,3,88,3,88l-161.58,25.5"/></g></g></svg>