<?xml version="1.0" encoding="utf-8"?>
<!-- Generator: Adobe Illustrator 22.1.0, SVG Export Plug-In . SVG Version: 6.00 Build 0)  -->
<svg version="1.1" id="Layer_1" xmlns="http://www.w3.org/2000/svg" xmlns:xlink="http://www.w3.org/1999/xlink" x="0px" y="0px"
	 viewBox="0 0 324 76.8" style="enable-background:new 0 0 324 76.8;" xml:space="preserve">
<style type="text/css">
	.st0{fill:#706F6F;}
	.st1{fill:#95C11F;}
	.st2{fill:#0085CC;}
	.st3{fill:#1B83C6;}
</style>
<g>
	<g>
		<rect x="126.3" y="1.2" class="st0" width="2.9" height="75.7"/>
	</g>
</g>
<g>
	<g>
		<g>
			<path class="st1" d="M204.5,49.2c-4.6-6.1-11.5-12.3-13.4-13.9c-1.3-1.1-2.7-1.6-4-1.6s-2.6,0.6-3.7,1.5
				c-0.2,0.2-0.5,0.5-0.9,0.8c-2.7,2.3-11.2,10.1-11.4,10.3c-0.6,0.6-1.5,1-2.4,1c-0.8,0-1.7-0.4-2.6-1.2c-0.6-0.6-3.5-2.9-6.9-6.7
				c-2.1-2.3-3.8-4.4-3.8-4.4s-0.4,0.8-0.6,1.3c-0.2,0.5,0,0.7,0.1,0.9c1.1,1.6,6.3,7.8,13.4,13.9c1.3,1.1,2.7,1.6,4,1.6
				s2.6-0.6,3.7-1.5c0.2-0.2,0.6-0.5,0.9-0.8c2.7-2.3,7.9-7,10.3-9.3c0.5-0.5,0.9-0.8,1.1-1c0.6-0.6,1.5-1,2.4-1
				c0.8,0,1.7,0.4,2.6,1.2c1.5,1.3,4,3.6,6.9,6.6c2.1,2.3,3.8,4.4,3.8,4.4s0.4-0.8,0.6-1.4C204.8,49.6,204.6,49.3,204.5,49.2"/>
			<path class="st2" d="M177.1,26.8c-2.4,1.7-12.2,10.8-14.1,13c0,0,1.4,1.5,3.4,3.2c0.5,0.5,1.2,0.4,1.7-0.2
				c3.8-3.8,11.5-10.6,12.5-11.4c2.9-2.5,6.3-2.7,9.4-0.4c7.5,5.6,14.2,14.5,15.3,16.2c0,0,0.2-0.8,0.3-1.5c0,0,0.1-0.7-0.2-1.3
				c-7.1-10.2-14.6-16.5-17.5-18.1C184.8,24.6,180.9,24,177.1,26.8"/>
			<path class="st2" d="M169.1,21.4c-4.8,3.9-11.1,9.7-12.7,11.4c0,0,1.2,1.5,3,3.3c0.4,0.3,0.7,0.2,1.1-0.1c4.8-4.6,10-9.4,13-11.7
				c5.1-3.9,11-4.3,16.9,0.3c2.2,1.7,4.1,3.4,6.9,6.3c3.6,3.9,5.9,7.2,8.5,10.9c0,0,0-1-0.3-2.3c0-0.2-0.1-0.6-0.3-0.9
				c-0.5-1-2.8-4.9-6.1-8.7c-6.5-7.6-10.6-9.9-13.3-11.3C182.4,16.8,175.6,16.3,169.1,21.4"/>
			<path class="st2" d="M182.2,59.7c2.4-1.7,12.2-10.8,14.1-13c0,0-1.4-1.5-3.4-3.2c-0.5-0.5-1.2-0.4-1.7,0.2
				c-3.9,3.7-11.6,10.5-12.6,11.3c-2.9,2.5-6.3,2.7-9.4,0.4c-7.5-5.6-14.2-14.5-15.3-16.2c0,0-0.2,0.8-0.3,1.5c0,0-0.1,0.7,0.2,1.3
				c7.1,10.2,14.6,16.5,17.5,18.1C174.6,61.9,178.4,62.4,182.2,59.7"/>
			<path class="st2" d="M190.1,65c4.8-3.9,11.1-9.7,12.7-11.4c0,0-1.2-1.5-3-3.3c-0.4-0.3-0.7-0.2-1,0.1c-4.8,4.6-10,9.4-13,11.7
				c-5.1,3.9-11,4.3-16.9-0.3c-2.2-1.7-4.1-3.4-6.9-6.3c-3.6-3.9-5.9-7.2-8.5-10.9c0,0,0,0.9,0.3,2.3c0.1,0.2,0.1,0.6,0.3,0.9
				c0.5,1,2.8,4.9,6.1,8.8c6.5,7.6,10.6,9.9,13.3,11.3C176.9,69.6,183.8,70.2,190.1,65"/>
		</g>
		<g>
			<path class="st2" d="M229.2,20.2h-2.5v4.6h-9.3v12.8h9.3v6.9h2.5v-6.9h9.4V24.8h-9.4V20.2z M226.8,35.3h-6.9V27h6.9V35.3z
				 M236.2,35.3h-6.9V27h6.9V35.3z"/>
			<path class="st2" d="M258.6,32.7l-1.7,1.3l0.2,0.2c0.7,0.7,1.6,1.8,2.3,2.8l0.1,0.2l1.8-1.4l-0.1-0.2c-0.6-0.8-1.6-1.9-2.4-2.8
				L258.6,32.7z"/>
			<polygon class="st2" points="262.4,37.5 256.2,37.5 256.2,32.5 261.4,32.5 261.4,30.4 256.2,30.4 256.2,27.2 261.9,27.2 
				261.9,25.2 248.4,25.2 248.4,27.2 254,27.2 254,30.4 248.9,30.4 248.9,32.5 254,32.5 254,37.5 248,37.5 248,39.6 262.4,39.6 			
				"/>
			<path class="st2" d="M244.4,43.8h21.5V21.1h-21.5V43.8z M263.6,41.7h-16.9V23.2h16.9V41.7z"/>
			<path class="st2" d="M280.6,34.2c-1-0.9-3.9-3.2-3.9-3.2v-1.2h3.3v-2.2h-3.3v-3.5c2.4-0.4,3.4-0.7,3.4-0.7l-0.5-2.2
				c0,0-2.1,0.5-4.3,0.8c-2.8,0.4-4.4,0.5-4.4,0.5l0.2,2.2c0,0,1.8-0.2,3.3-0.5v3.3h-3.8v2.2h3.5c-0.9,2.9-2.4,5.7-3.9,7.9
				c0,0,1.6,1.8,1.6,1.7c1-1.4,1.9-3,2.6-4.7v9.7h2.2V33.8c0.8,0.8,1.6,1.5,2.3,2.1l0.2,0.2l1.6-1.8L280.6,34.2z"/>
			<path class="st2" d="M288.4,32.5c0.4-0.5,0.6-1.1,0.6-1.1l-2.2-0.4c0.4-0.2,0.8-0.5,1.2-0.7c2.7-1.7,4.5-3.7,5.7-6v-0.1v-2H286
				c0.2-0.4,0.5-0.8,0.7-1.2l0.1-0.2l-2.1-0.8l-0.1,0.2c-1.2,2.4-3,4.6-5.2,6.4c0,0,1.2,0.9,1.8,1.4c1.3-1.2,2.5-2.4,3.3-3.5h6.6
				c-1.2,1.5-2.3,2.7-3.6,3.6c-0.9-0.8-1.6-1.4-2.7-2.3l-0.2-0.1l-1.4,1.5l0.2,0.1c1,0.8,1.6,1.3,2.2,1.9c-1.7,0.9-3.6,1.7-5.8,2.3
				c0,0,1.4,1.9,1.5,1.9c1.3-0.4,3.9-1.6,5-2.1c-1.5,2.9-4.7,5.3-7,6.5c0,0,1,1,1.7,1.7c3.6-1.7,6.1-4.9,6.1-4.9h5
				c-0.3,1.7-1.8,3.8-3.9,5.1c-0.8-0.8-1.7-1.6-2.6-2.5l-1.6,1.4c0.9,0.8,1.6,1.6,2.3,2.3c-3.2,1.4-7.4,1.6-7.4,1.6l0.9,1.9
				c0,0,12.4-0.3,14.9-9.9v-2.1L288.4,32.5L288.4,32.5z"/>
			<rect x="298.9" y="22.5" class="st2" width="10.1" height="2.2"/>
			<path class="st2" d="M309.4,39.9c-0.7-1.8-1.8-4.3-2.7-6.1l-0.1-0.2l-2.1,0.9l0.1,0.2c0.5,1.2,1,2.3,1.5,3.6l-5.3,1.3
				c1.2-1.9,2.6-6.3,3.4-8.6h5.6v-2.2h-12.1V31h4c-0.2,1.3-1.6,5.5-3.5,8.9c-0.2,0.4-0.6,0.7-0.6,0.7l0.7,1.6c0,0,6.5-1.8,8.4-2
				l0.2,0.6L309.4,39.9z"/>
			<path class="st2" d="M314.9,25.2c0-1.6,0.1-3.1,0.1-4.7v-0.2h-2.4v0.2c0,1.6,0,3.2,0,4.7h-3.2v2.3h3.1v3c0,4.6-0.8,7-2.6,9.7
				c-1.1,1.7-3,2.8-3,2.8l1.8,1.8c0,0,6.2-3.2,6.2-13.3v-4h4.1c0,4.1-0.2,8.2-0.4,12.1c0,1.2-0.6,1.8-1.6,1.8c-0.9,0-2.7,0-2.7,0
				c0.1,0.7,0.4,2.4,0.4,2.4h2.9c2.1,0,3.2-1.3,3.4-3.7c0.2-3.7,0.4-8.6,0.5-14.7v-0.2C321.4,25.2,314.9,25.2,314.9,25.2z"/>
		</g>
		<g>
			<path class="st2" d="M239.3,54.1c-0.3-0.3-0.7-0.4-1-0.5c-0.7-0.2-1.5-0.2-2.1,0c-0.3,0.1-0.6,0.2-0.9,0.3
				c-0.3,0.1-0.5,0.3-0.7,0.5c-0.1,0.1-0.2,0.2-0.3,0.3v-5.9h-1.9v14.5h1.9v-6.7c0.3-0.5,0.7-0.8,1.2-1.1s0.9-0.4,1.4-0.4
				c0.6,0,1,0.2,1.2,0.5c0.3,0.3,0.4,0.9,0.4,1.6v6.1h1.9v-6.4c0-0.7-0.1-1.3-0.3-1.7C239.9,54.7,239.6,54.3,239.3,54.1"/>
			<rect x="242.4" y="49.8" class="st2" width="1.9" height="2.1"/>
			<rect x="242.4" y="53.6" class="st2" width="1.9" height="9.6"/>
			<path class="st2" d="M253.4,54.2c-0.3-0.3-0.6-0.5-1-0.6c-0.7-0.2-1.6-0.2-2.3-0.1c-0.3,0.1-0.6,0.2-0.9,0.3s-0.5,0.3-0.7,0.5
				c-0.1,0.1-0.3,0.2-0.4,0.4l-0.2-1.1h-1.5v9.6h1.9v-6.7c0.3-0.5,0.7-0.8,1.2-1.1s0.9-0.4,1.4-0.4s0.9,0.2,1.2,0.5
				c0.3,0.3,0.4,0.9,0.4,1.6v6.1h1.9v-6.4c0-0.6-0.1-1.2-0.2-1.6C253.9,54.8,253.6,54.5,253.4,54.2"/>
			<path class="st2" d="M263.2,55.3c-0.3-0.6-0.7-1-1.4-1.4c-0.6-0.3-1.4-0.5-2.4-0.5c-0.3,0-0.5,0-0.8,0s-0.5,0.1-0.8,0.1
				c-0.2,0.1-0.5,0.1-0.7,0.2c-0.2,0.1-0.4,0.1-0.6,0.2h-0.1v1.6l0.2-0.1c0.4-0.1,0.8-0.3,1.2-0.4c0.4-0.1,0.8-0.1,1.3-0.1
				c0.6,0,1.1,0.1,1.4,0.3s0.6,0.4,0.7,0.7c0.1,0.1,0.1,0.3,0.1,0.5s0.1,0.4,0.1,0.6v0.4c-0.3-0.1-0.6-0.2-0.9-0.2
				c-0.4-0.1-0.9-0.1-1.4-0.1s-1,0.1-1.5,0.2c-0.4,0.1-0.8,0.4-1.1,0.6c-0.3,0.3-0.6,0.6-0.7,1c-0.2,0.4-0.3,0.8-0.3,1.3
				s0.1,0.9,0.2,1.3c0.2,0.4,0.4,0.7,0.7,1c0.3,0.3,0.6,0.5,1,0.6s0.8,0.2,1.3,0.2c0.3,0,0.7,0,1-0.1s0.6-0.2,0.8-0.3
				c0.3-0.1,0.5-0.3,0.7-0.4c0.1-0.1,0.2-0.2,0.3-0.2l0.1,0.8h1.6v-6.4c0-0.3,0-0.6-0.1-0.8C263.4,55.8,263.4,55.5,263.2,55.3
				 M261.6,59.1v1.6c-0.1,0.1-0.2,0.1-0.3,0.2c-0.1,0.1-0.3,0.2-0.5,0.4c-0.2,0.1-0.5,0.2-0.7,0.3c-0.5,0.2-1,0.2-1.5,0
				c-0.2-0.1-0.4-0.2-0.5-0.3s-0.2-0.3-0.3-0.5c-0.1-0.2-0.1-0.4-0.1-0.7c0-0.5,0.2-0.9,0.5-1.1c0.3-0.2,0.8-0.4,1.4-0.4
				c0.4,0,0.9,0,1.2,0.1C261,59,261.4,59.1,261.6,59.1"/>
			<path class="st2" d="M228.8,59c-0.9,1.6-2.6,2.5-4.4,2.5c-2.8,0-5.1-2.3-5.1-5.1s2.3-5.1,5.1-5.1c1.8,0,3.5,1,4.4,2.5l0.1,0.1h2
				l-0.1-0.3c-1.1-2.5-3.6-4.2-6.4-4.2c-3.8,0-6.9,3.1-6.9,6.9s3.1,6.9,6.9,6.9c2.8,0,5.3-1.6,6.4-4.2l0.1-0.3L228.8,59L228.8,59z"
				/>
			<path class="st2" d="M276.9,57.3c-0.3,0.6-0.6,1.5-1,2.7c-0.4-1-0.7-1.9-1-2.7l-3.1-7.5h-2.6v13.4h2v-6.5c0-1.2,0-2.6-0.1-4.1
				c0.4,0.9,0.7,1.8,1,2.6l3.3,7.9h1l3.3-7.9c0.3-0.8,0.7-1.7,1.1-2.7c-0.1,1.5-0.1,2.8-0.1,4.1v6.5h2V49.8h-2.6L276.9,57.3z"/>
			<path class="st2" d="M303.2,55.3c-0.2-0.4-0.5-0.7-0.8-0.9s-0.6-0.4-0.9-0.6c-0.3-0.1-0.6-0.3-0.9-0.3c-0.3-0.1-0.6-0.1-0.9-0.1
				c-0.6,0-1.1,0.1-1.6,0.3c-0.3,0.2-0.7,0.4-0.9,0.6v-5.5h-1.9v14.5h1.5l0.3-0.9l0.1,0.1c0.1,0.2,0.3,0.3,0.5,0.5
				c0.2,0.1,0.5,0.3,0.8,0.4c0.3,0.1,0.7,0.2,1.1,0.2c0.5,0,1.1-0.1,1.6-0.3s1-0.5,1.4-1c0.4-0.4,0.7-1,1-1.6
				c0.2-0.6,0.4-1.4,0.4-2.3c0-0.6-0.1-1.2-0.2-1.7C303.6,56.1,303.5,55.7,303.2,55.3 M302,58.4c0,0.5-0.1,1-0.2,1.4
				s-0.3,0.8-0.5,1.1s-0.5,0.5-0.8,0.7s-0.7,0.2-1.1,0.2c-0.3,0-0.5,0-0.8-0.1c-0.2-0.1-0.5-0.2-0.6-0.3c-0.2-0.1-0.4-0.2-0.5-0.4
				c-0.1-0.1-0.2-0.2-0.3-0.3V56c0.3-0.3,0.6-0.5,1-0.7c0.6-0.3,1.4-0.4,2.1-0.1c0.3,0.1,0.5,0.2,0.8,0.5c0.2,0.2,0.5,0.6,0.6,1
				C301.9,57.1,302,57.7,302,58.4"/>
			<rect x="305.4" y="53.6" class="st2" width="1.9" height="9.6"/>
			<rect x="305.4" y="49.8" class="st2" width="1.9" height="2.1"/>
			<rect x="309.4" y="48.8" class="st2" width="1.9" height="14.5"/>
			<path class="st2" d="M320.9,56c-0.2-0.6-0.5-1.1-0.8-1.5c-0.4-0.4-0.8-0.7-1.2-0.9c-1-0.4-2.2-0.4-3.2,0.1c-0.5,0.2-1,0.5-1.4,1
				c-0.4,0.4-0.7,1-1,1.6c-0.2,0.6-0.4,1.4-0.4,2.3c0,0.9,0.1,1.6,0.4,2.3c0.2,0.6,0.6,1.1,1,1.5s1,0.7,1.6,0.9s1.2,0.3,1.9,0.3
				c0.6,0,1.1,0,1.6-0.1s0.9-0.2,1.3-0.4l0.1-0.1v-1.6l-0.2,0.1c-0.4,0.1-0.8,0.3-1.2,0.3c-0.4,0.1-0.8,0.1-1.3,0.1
				s-0.9-0.1-1.3-0.2c-0.4-0.1-0.7-0.3-1-0.5s-0.5-0.5-0.7-0.9c-0.1-0.4-0.2-0.8-0.2-1.3h6.4v-0.2c0-0.2,0-0.3,0-0.4v-0.2
				C321.1,57.3,321,56.6,320.9,56 M314.9,57.3c0-0.3,0.1-0.5,0.2-0.8s0.3-0.5,0.5-0.8c0.2-0.2,0.5-0.4,0.7-0.5
				c0.5-0.2,1.3-0.2,1.8,0c0.3,0.1,0.5,0.3,0.6,0.5c0.2,0.2,0.3,0.5,0.4,0.8c0.1,0.2,0.1,0.5,0.1,0.8H314.9z"/>
			<path class="st2" d="M289,53.4c-2.8,0-5,2.3-5,5c0,2.8,2.3,5,5,5c2.8,0,5-2.3,5-5C294.1,55.6,291.9,53.4,289,53.4 M289,61.8
				c-1.9,0-3.4-1.5-3.4-3.4s1.5-3.4,3.4-3.4s3.4,1.5,3.4,3.4S290.9,61.8,289,61.8"/>
		</g>
	</g>
</g>
<g>
	<polygon class="st3" points="104.5,9.4 105.9,1.2 99.3,1.2 97.9,9.4 89.6,9.4 88.5,16 96.7,16 95.3,24.3 101.9,24.3 103.3,16 
		111.6,16 112.7,9.4 	"/>
	<path class="st3" d="M78.9,34.6c-0.6,0-1.1,0.5-1.1,1.1c0,0.6,0.5,1.1,1.1,1.1c0.6,0,1.1-0.5,1.1-1.1
		C79.9,35.1,79.4,34.6,78.9,34.6"/>
	<path class="st3" d="M10.1,65.1c0-0.7-0.5-1.2-1.2-1.2c-0.7,0-1.2,0.5-1.2,1.2c0,0.7,0.5,1.2,1.2,1.2C9.5,66.2,10,65.7,10.1,65.1"
		/>
	<path class="st3" d="M49.4,48.5c2.4-3,4.6-5.7,6.3-7.6c3.8-4.2,10.2-4.7,14.9-1.6c0.2,0.1,0.4,0.1,0.5-0.1c0.1-0.1,0.1-0.3,0-0.4
		c-0.2-0.2-0.3-0.6-0.2-1c0.1-0.3,0.3-0.6,0.6-0.7c0.2-0.1,0.4-0.1,0.5-0.1c0.2,0,0.4-0.1,0.6-0.3c0.1-0.2,0.1-0.5-0.1-0.7
		c-0.2-0.3-0.4-0.6-0.2-1c0.1-0.3,0.4-0.6,0.7-0.7c0.2-0.1,0.4-0.1,0.6,0c0.2,0.1,0.5,0,0.6-0.2c0.1-0.2,0.1-0.4,0-0.6
		c-0.2-0.2-0.3-0.6-0.2-1c0.1-0.4,0.4-0.6,0.7-0.8c0.2-0.1,0.4-0.1,0.6,0c0.2,0,0.3,0,0.4-0.2c0.1-0.2,0.1-0.4-0.1-0.5
		c-8.4-5.2-19.7-4.5-26.6,3.1c-1.6,1.7-3.5,4.1-5.6,6.7c1.3,1.6,2.6,3.3,3.9,4.9C48,46.7,48.7,47.6,49.4,48.5 M65.5,36.8
		c-0.6,0-1.1-0.5-1.1-1.1c0-0.6,0.5-1.1,1.1-1.1c0.6,0,1.1,0.5,1.1,1.1C66.6,36.3,66.1,36.8,65.5,36.8 M69.2,37.7
		c-0.6,0-1.1-0.5-1.1-1.1c0-0.6,0.5-1.1,1.1-1.1s1.1,0.5,1.1,1.1C70.4,37.2,69.9,37.7,69.2,37.7 M72.3,29.9c0.6,0,1.1,0.5,1.1,1.1
		c0,0.6-0.5,1.1-1.1,1.1c-0.6,0-1.1-0.5-1.1-1.1C71.2,30.5,71.7,29.9,72.3,29.9 M71.9,33.8c0,0.6-0.5,1.1-1.1,1.1
		c-0.6,0-1.1-0.5-1.1-1.1c0-0.6,0.5-1.1,1.1-1.1C71.4,32.6,71.9,33.1,71.9,33.8 M68.9,28.9c0.6,0,1.1,0.5,1.1,1.1
		c0,0.6-0.5,1.1-1.1,1.1c-0.6,0-1.1-0.5-1.1-1.1C67.8,29.4,68.3,28.9,68.9,28.9 M68.3,32.9c0,0.6-0.5,1.1-1.1,1.1
		c-0.6,0-1.1-0.5-1.1-1.1c0-0.6,0.5-1.1,1.1-1.1C67.9,31.8,68.3,32.3,68.3,32.9 M65.7,28.4c0.6,0,1,0.5,1,1c0,0.6-0.5,1-1,1
		c-0.6,0-1-0.5-1-1C64.6,28.9,65.1,28.4,65.7,28.4 M63.7,31.6c0.6,0,1,0.5,1,1c0,0.6-0.5,1-1,1c-0.6,0-1-0.5-1-1
		C62.7,32.1,63.1,31.6,63.7,31.6 M62.3,28.5c0.5,0,1,0.4,1,1c0,0.5-0.4,1-1,1c-0.5,0-1-0.4-1-1C61.3,28.9,61.7,28.5,62.3,28.5"/>
	<path class="st3" d="M76.1,38.6c0,0.6,0.5,1,1,1c0.6,0,1-0.5,1-1c0-0.6-0.5-1-1-1C76.5,37.6,76.1,38,76.1,38.6"/>
	<path class="st3" d="M13.2,61.8c0.6,0,1.2-0.5,1.2-1.1c0-0.6-0.5-1.2-1.1-1.2c-0.6,0-1.2,0.5-1.2,1.1
		C12.1,61.2,12.6,61.7,13.2,61.8"/>
	<path class="st3" d="M35.9,50.2c-2.4,3-4.6,5.7-6.4,7.6c-3.5,3.8-9,4.5-13.5,2.4c-0.2-0.1-0.3,0-0.5,0.1l-0.1,0.1
		c-0.1,0.1-0.1,0.3,0,0.5c0.1,0.3,0.2,0.6,0.1,0.9c-0.1,0.4-0.4,0.6-0.8,0.8c-0.3,0.1-0.6,0-0.9-0.1c-0.2-0.1-0.4-0.1-0.5,0
		l-0.1,0.1c-0.1,0.1-0.2,0.3-0.1,0.5c0.1,0.3,0.2,0.6,0.1,0.9c-0.1,0.4-0.4,0.7-0.8,0.8c-0.3,0.1-0.7,0.1-0.9-0.1
		c-0.2-0.1-0.3-0.1-0.5,0.1l-0.1,0.1c-0.1,0.1-0.1,0.3-0.1,0.5c0.1,0.2,0.2,0.5,0.1,0.8c0,0.3-0.3,0.7-0.6,0.8
		c-0.5,0.3-0.8,0.2-1.2-0.1c-0.1-0.1-0.4-0.1-0.5,0c-0.1,0.2-0.1,0.4,0.1,0.5c8.5,5.7,20.3,4.9,27.3-2.8c1.6-1.8,3.6-4.1,5.7-6.8
		c-1-1.3-2.1-2.6-3.2-4C37.8,52.7,36.9,51.4,35.9,50.2 M19.9,62.3c0.6,0,1,0.5,1,1c0,0.6-0.5,1-1,1c-0.6,0-1-0.5-1-1
		C18.9,62.8,19.4,62.3,19.9,62.3 M17.1,61.7c0.6,0,1.1,0.5,1.1,1.1s-0.5,1.1-1.1,1.1S16,63.4,16,62.8S16.5,61.7,17.1,61.7
		 M13.1,68.8c-0.6,0-1.1-0.5-1.1-1.1c0-0.6,0.5-1.1,1.1-1.1c0.6,0,1.1,0.5,1.1,1.1C14.2,68.3,13.7,68.8,13.1,68.8 M13.8,65.2
		c0-0.6,0.5-1.1,1.1-1.1c0.6,0,1.1,0.5,1.1,1.1c0,0.6-0.5,1.1-1.1,1.1C14.3,66.4,13.8,65.9,13.8,65.2 M16.3,69.8
		c-0.6,0-1.1-0.5-1.1-1.1c0-0.6,0.5-1.1,1.1-1.1s1.1,0.5,1.1,1.1C17.3,69.3,16.8,69.8,16.3,69.8 M17,66.1c0-0.6,0.5-1.1,1.1-1.1
		c0.6,0,1.1,0.5,1.1,1.1c0,0.6-0.5,1.1-1.1,1.1C17.5,67.2,17,66.7,17,66.1 M19.5,70.4c-0.6,0-1-0.5-1-1s0.5-1,1-1c0.6,0,1,0.5,1,1
		S20,70.4,19.5,70.4 M21.2,67.5c-0.6,0-1-0.5-1-1c0-0.6,0.5-1,1-1c0.6,0,1,0.5,1,1C22.2,67,21.7,67.5,21.2,67.5 M23,70.4
		c-0.5,0-1-0.4-1-1c0-0.5,0.4-1,1-1c0.5,0,1,0.4,1,1C24,69.9,23.5,70.4,23,70.4"/>
	<path class="st3" d="M82.8,42.3c0.5,0,1-0.4,1-1s-0.4-1-1-1c-0.5,0-1,0.4-1,1S82.3,42.3,82.8,42.3"/>
	<path class="st3" d="M8.7,53.3c-0.5,0-0.9,0.4-0.9,0.9c0,0.5,0.4,0.9,0.9,0.9c0.5,0,0.9-0.4,0.9-0.9C9.6,53.7,9.2,53.3,8.7,53.3"/>
	<path class="st3" d="M10.4,56.8c-0.6,0-1,0.4-1,1c0,0.6,0.4,1,1,1c0.6,0,1-0.4,1-1C11.4,57.2,10.9,56.8,10.4,56.8"/>
	<path class="st3" d="M81,37.3c-0.6,0-1,0.5-1,1c0,0.6,0.5,1,1,1c0.6,0,1-0.5,1-1C82,37.8,81.6,37.3,81,37.3"/>
	<path class="st3" d="M76.2,32.4c-0.6,0-1.1,0.5-1.1,1.1c0,0.6,0.5,1.1,1.1,1.1c0.6,0,1.1-0.5,1.1-1.1
		C77.4,32.9,76.8,32.4,76.2,32.4"/>
	<path class="st3" d="M78.9,40.5c-0.5,0-0.9,0.4-0.9,0.9c0,0.5,0.4,0.9,0.9,0.9c0.5,0,0.9-0.4,0.9-0.9
		C79.8,40.9,79.4,40.5,78.9,40.5"/>
	<path class="st3" d="M6.5,58.5c0.6,0,1-0.4,1-1c0-0.6-0.4-1-1-1c-0.6,0-1,0.4-1,1C5.5,58,6,58.5,6.5,58.5"/>
	<path class="st3" d="M5.1,53.3c-0.5,0-1,0.4-1,0.9c0,0.5,0.4,1,0.9,1c0.5,0,1-0.4,1-0.9C6.1,53.7,5.7,53.3,5.1,53.3"/>
	<path class="st3" d="M6.3,61.6c-0.6,0-1.2,0.5-1.2,1.1c0,0.6,0.5,1.2,1.1,1.2c0.6,0,1.2-0.5,1.2-1.1C7.4,62.1,6.9,61.6,6.3,61.6"/>
	<path class="st3" d="M11.1,61.7c-0.6,0-1.1,0.5-1.2,1.1c0,0.6,0.5,1.2,1.1,1.2c0.6,0,1.2-0.5,1.2-1.1
		C12.3,62.2,11.8,61.7,11.1,61.7"/>
	<path class="st3" d="M8.4,61.4c0.6,0,1.1-0.5,1.1-1.1c0-0.6-0.5-1.1-1.1-1.1c-0.6,0-1.1,0.5-1.1,1.1C7.4,60.8,7.8,61.3,8.4,61.4"/>
	<path class="st3" d="M3.7,57.5c0-0.6-0.4-1-1-1c-0.6,0-1,0.4-1,1c0,0.6,0.4,1,1,1C3.2,58.5,3.7,58,3.7,57.5"/>
	<path class="st3" d="M4.2,59.1c-0.6,0-1.1,0.5-1.1,1.1c0,0.6,0.5,1.1,1.1,1.1c0.6,0,1.1-0.5,1.1-1.1C5.3,59.6,4.8,59.2,4.2,59.1"/>
	<path class="st3" d="M72.9,37.8c-0.6,0-1,0.5-1,1c0,0.6,0.5,1,1,1c0.6,0,1-0.5,1-1C73.9,38.3,73.5,37.8,72.9,37.8"/>
	<path class="st3" d="M75,42.3c0.5,0,0.9-0.4,0.9-0.9c0-0.5-0.4-0.9-0.9-0.9c-0.5,0-0.9,0.4-0.9,0.9C74.1,41.9,74.5,42.3,75,42.3"/>
	<path class="st3" d="M2.6,54.3c0-0.5-0.4-1-0.9-1c-0.5,0-1,0.4-1,0.9c0,0.5,0.4,1,0.9,1C2.1,55.2,2.5,54.8,2.6,54.3"/>
	<path class="st3" d="M75.6,36.2c0-0.6-0.5-1.1-1.1-1.1s-1.1,0.5-1.1,1.1c0,0.6,0.5,1.1,1.1,1.1S75.6,36.8,75.6,36.2"/>
	<path class="st3" d="M75.2,44.6h-9.3l-2.5,9.6h11.8c-0.6,1.3-1.4,2.6-2.5,3.7c-4.7,4.7-12.6,4.9-17,0c-5.1-5.7-14.3-18.1-19.4-23.7
		c-5.8-6.4-14.9-7.9-22.6-5.1l2.2-8.5h19.2l2.5-9.6H18.5H8.9l-2.5,9.6L0.4,43.2c-0.1,0.5-0.3,1-0.4,1.4h9.6h0.5
		c0.6-1.3,1.4-2.6,2.5-3.7c4.7-4.7,12.5-4.9,17,0c5.1,5.7,14.3,18,19.4,23.7c7.9,8.9,22.1,8.4,30.5,0c5.4-5.4,7.4-13.1,5.8-20.1
		H75.2z"/>
	<polygon class="st3" points="87.5,12.1 83,12.1 82,17.7 76.4,17.7 75.6,22.2 81.2,22.2 80.3,27.8 84.8,27.8 85.7,22.2 91.4,22.2 
		92.1,17.7 86.5,17.7 	"/>
</g>
</svg>
