<?xml version="1.0" encoding="UTF-8"?>
<svg width="155px" height="128px" viewBox="0 0 155 128" version="1.1" xmlns="http://www.w3.org/2000/svg" xmlns:xlink="http://www.w3.org/1999/xlink">
    <title>Abstract Electronics</title>
    <defs>
        <filter x="-9.6%" y="-11.0%" width="119.3%" height="123.0%" filterUnits="objectBoundingBox" id="filter-1">
            <feOffset dx="0" dy="2" in="SourceAlpha" result="shadowOffsetOuter1"></feOffset>
            <feGaussianBlur stdDeviation="2" in="shadowOffsetOuter1" result="shadowBlurOuter1"></feGaussianBlur>
            <feColorMatrix values="0 0 0 0 0.0941176471   0 0 0 0 0.560784314   0 0 0 0 1  0 0 0 0.5 0" type="matrix" in="shadowBlurOuter1" result="shadowMatrixOuter1"></feColorMatrix>
            <feMerge>
                <feMergeNode in="shadowMatrixOuter1"></feMergeNode>
                <feMergeNode in="SourceGraphic"></feMergeNode>
            </feMerge>
        </filter>
    </defs>
    <g id="Page-1" stroke="none" stroke-width="1" fill="none" fill-rule="evenodd">
        <g id="Home" transform="translate(-930.000000, -1254.000000)">
            <g id="Abstract-Electronics" filter="url(#filter-1)" transform="translate(940.000011, 1263.000000)">
                <path d="M99.2591496,12.740839 C116.246935,29.7286242 116.246935,57.2712842 99.2591496,74.259161 C82.2713643,91.2469463 54.7287044,91.2469463 37.7408275,74.259161 C20.7530422,57.2713758 20.7530422,29.7287158 37.7408275,12.740839 C54.7286128,-4.24694632 82.2712727,-4.24694632 99.2591496,12.740839" id="Path" fill="#FFFFFF" fill-rule="nonzero"></path>
                <g id="Group" transform="translate(0.000000, 3.148936)" stroke="#2A5082" stroke-width="2">
                    <line x1="59.491514" y1="65.4893617" x2="11.4406665" y2="65.4893617" id="Path"></line>
                    <path d="M98.3898191,40.212766 L71.3898191,40.212766 C68.8728699,40.212766 65.6694801,38.8340426 64.2965987,36.7659574 L49.6525309,13.5574468 C48.2796496,11.4893617 45.3050733,10.1106383 42.7881242,10.1106383 L9.15253093,10.1106383" id="Path"></path>
                    <path d="M36.6101581,95.3617021 L64.7542258,95.3617021 C67.271175,95.3617021 70.4745648,93.9829787 71.8474462,91.9148936 L86.491514,69.8553191 C87.8643953,67.787234 90.8389716,67.5574468 93.3559208,67.5574468 L125.847446,67.5574468" id="Path"></path>
                    <line x1="75.5084631" y1="14.9361702" x2="98.3898191" y2="14.9361702" id="Path"></line>
                    <line x1="102.96609" y1="14.9361702" x2="107.542361" y2="14.9361702" id="Path"></line>
                    <line x1="112.118633" y1="14.9361702" x2="116.694904" y2="14.9361702" id="Path"></line>
                    <line x1="52.6271072" y1="104.553191" x2="57.2033784" y2="104.553191" id="Path"></line>
                    <line x1="61.7796496" y1="104.553191" x2="66.3559208" y2="104.553191" id="Path"></line>
                    <line x1="70.9321919" y1="104.553191" x2="75.5084631" y2="104.553191" id="Path"></line>
                    <line x1="25.1694801" y1="56.2978723" x2="29.7457513" y2="56.2978723" id="Path"></line>
                    <line x1="34.3220225" y1="56.2978723" x2="38.8982936" y2="56.2978723" id="Path"></line>
                    <line x1="43.4745648" y1="56.2978723" x2="48.050836" y2="56.2978723" id="Path"></line>
                    <line x1="86.9491411" y1="58.5957447" x2="91.5254123" y2="58.5957447" id="Path"></line>
                    <line x1="96.1016835" y1="58.5957447" x2="100.677955" y2="58.5957447" id="Path"></line>
                    <line x1="105.254226" y1="58.5957447" x2="109.830497" y2="58.5957447" id="Path"></line>
                    <line x1="29.7457513" y1="1.14893617" x2="34.3220225" y2="1.14893617" id="Path"></line>
                    <line x1="38.8982936" y1="1.14893617" x2="43.4745648" y2="1.14893617" id="Path"></line>
                    <line x1="48.050836" y1="1.14893617" x2="52.6271072" y2="1.14893617" id="Path"></line>
                    <path d="M43.0819208,88.8624 C46.6562174,92.4519064 46.6562174,98.2716357 43.0819208,101.861119 C39.5076242,105.450626 33.7125547,105.450626 30.1382809,101.861119 C26.5639843,98.2716128 26.5639843,92.4518834 30.1382809,88.8624 C33.7125775,85.2728936 39.507647,85.2728936 43.0819208,88.8624" id="Path" fill="#188FFF" fill-rule="nonzero"></path>
                    <path d="M102.573446,88.8624 C106.147743,92.4519064 106.147743,98.2716357 102.573446,101.861119 C98.9991496,105.450626 93.2040801,105.450626 89.6298064,101.861119 C86.0555097,98.2716128 86.0555097,92.4518834 89.6298064,88.8624 C93.204103,85.2728936 98.9991725,85.2728936 102.573446,88.8624" id="Path" fill="#188FFF" fill-rule="nonzero"></path>
                    <path d="M132.319209,61.2879319 C135.893506,64.8774383 135.893506,70.6971677 132.319209,74.2866511 C128.744912,77.8761574 122.949843,77.8761574 119.375569,74.2866511 C115.801272,70.6971447 115.801272,64.8774153 119.375569,61.2879319 C122.949866,57.6984255 128.744935,57.6984255 132.319209,61.2879319" id="Path" fill="#188FFF" fill-rule="nonzero"></path>
                    <path d="M68.2514123,58.9900596 C71.8257089,62.579566 71.8257089,68.3992953 68.2514123,71.9887787 C64.6771157,75.5782851 58.8820462,75.5782851 55.3077725,71.9887787 C51.7334758,68.3992723 51.7334758,62.579543 55.3077725,58.9900596 C58.8820691,55.4005532 64.6771386,55.4005532 68.2514123,58.9900596" id="Path" fill="#188FFF" fill-rule="nonzero"></path>
                    <path d="M45.3700564,31.4155915 C48.944353,35.0050979 48.944353,40.8248272 45.3700564,44.4143106 C41.7957597,48.003817 36.0006903,48.003817 32.4264165,44.4143106 C28.8521199,40.8248043 28.8521199,35.0050749 32.4264165,31.4155915 C36.0007131,27.8260851 41.7957826,27.8260851 45.3700564,31.4155915" id="Path" fill="#188FFF" fill-rule="nonzero"></path>
                    <path d="M104.861582,33.7134638 C108.435878,37.3029702 108.435878,43.1226996 104.861582,46.712183 C101.287285,50.3016894 95.4922157,50.3016894 91.9179419,46.712183 C88.3436453,43.1226766 88.3436453,37.3029472 91.9179419,33.7134638 C95.4922386,30.1239574 101.287308,30.1239574 104.861582,33.7134638" id="Path" fill="#188FFF" fill-rule="nonzero"></path>
                    <path d="M79.6920903,8.43686809 C83.2663869,12.0263745 83.2663869,17.8461038 79.6920903,21.4355872 C76.1177936,25.0250936 70.3227242,25.0250936 66.7484504,21.4355872 C63.1741538,17.8460809 63.1741538,12.0263515 66.7484504,8.43686809 C70.322747,4.8473617 76.1178165,4.8473617 79.6920903,8.43686809" id="Path" fill="#188FFF" fill-rule="nonzero"></path>
                    <path d="M15.6243623,3.8411234 C19.1986589,7.43062979 19.1986589,13.2503591 15.6243623,16.8398426 C12.0500657,20.4293489 6.25499619,20.4293489 2.68072246,16.8398426 C-0.893574153,13.2503362 -0.893574153,7.43060681 2.68072246,3.8411234 C6.25501907,0.251617021 12.0500886,0.251617021 15.6243623,3.8411234" id="Path" fill="#188FFF" fill-rule="nonzero"></path>
                    <path d="M15.6243623,58.9900596 C19.1986589,62.579566 19.1986589,68.3992953 15.6243623,71.9887787 C12.0500657,75.5782851 6.25499619,75.5782851 2.68072246,71.9887787 C-0.893574153,68.3992723 -0.893574153,62.579543 2.68072246,58.9900596 C6.25501907,55.4005532 12.0500886,55.4005532 15.6243623,58.9900596" id="Path" fill="#188FFF" fill-rule="nonzero"></path>
                </g>
            </g>
        </g>
    </g>
</svg>