<svg xmlns="http://www.w3.org/2000/svg" xmlns:xlink="http://www.w3.org/1999/xlink" viewBox="0 0 2341.48 2059"><defs><style>.cls-1,.cls-10,.cls-11,.cls-12,.cls-13,.cls-14,.cls-15,.cls-16,.cls-17,.cls-18,.cls-19,.cls-20,.cls-21,.cls-22,.cls-23,.cls-24,.cls-25,.cls-26,.cls-27,.cls-28,.cls-29,.cls-3,.cls-30,.cls-31,.cls-32,.cls-33,.cls-34,.cls-35,.cls-36,.cls-37,.cls-38,.cls-39,.cls-4,.cls-40,.cls-41,.cls-42,.cls-43,.cls-44,.cls-45,.cls-46,.cls-47,.cls-48,.cls-49,.cls-5,.cls-50,.cls-51,.cls-52,.cls-53,.cls-54,.cls-6,.cls-7,.cls-8,.cls-9{fill:none;}.cls-2{clip-path:url(#clip-path);}.cls-10,.cls-11,.cls-12,.cls-13,.cls-14,.cls-15,.cls-16,.cls-17,.cls-18,.cls-19,.cls-20,.cls-21,.cls-22,.cls-23,.cls-24,.cls-25,.cls-26,.cls-27,.cls-28,.cls-29,.cls-3,.cls-30,.cls-31,.cls-32,.cls-33,.cls-34,.cls-35,.cls-36,.cls-37,.cls-38,.cls-39,.cls-4,.cls-40,.cls-41,.cls-42,.cls-43,.cls-44,.cls-45,.cls-46,.cls-47,.cls-48,.cls-49,.cls-5,.cls-50,.cls-51,.cls-52,.cls-53,.cls-54,.cls-6,.cls-7,.cls-8,.cls-9{stroke:#29abe2;stroke-linecap:round;}.cls-10,.cls-11,.cls-12,.cls-13,.cls-14,.cls-15,.cls-16,.cls-17,.cls-18,.cls-19,.cls-20,.cls-21,.cls-22,.cls-23,.cls-24,.cls-25,.cls-26,.cls-27,.cls-28,.cls-29,.cls-3,.cls-30,.cls-31,.cls-32,.cls-33,.cls-34,.cls-35,.cls-36,.cls-37,.cls-38,.cls-39,.cls-40,.cls-41,.cls-42,.cls-43,.cls-44,.cls-45,.cls-46,.cls-47,.cls-48,.cls-49,.cls-50,.cls-51,.cls-52,.cls-53,.cls-54,.cls-7,.cls-8{stroke-miterlimit:10;}.cls-4,.cls-5,.cls-6{stroke-miterlimit:10;}.cls-4{opacity:0.98;}.cls-5{opacity:0.96;}.cls-6{opacity:0.94;}.cls-7{opacity:0.92;}.cls-8{opacity:0.9;}.cls-9{stroke-miterlimit:10;opacity:0.88;}.cls-10{opacity:0.86;}.cls-11{opacity:0.84;}.cls-12{opacity:0.83;}.cls-13{opacity:0.81;}.cls-14{opacity:0.79;}.cls-15{opacity:0.77;}.cls-16{opacity:0.75;}.cls-17{opacity:0.73;}.cls-18{opacity:0.71;}.cls-19{opacity:0.69;}.cls-20{opacity:0.67;}.cls-21{opacity:0.65;}.cls-22{opacity:0.63;}.cls-23{opacity:0.61;}.cls-24{opacity:0.59;}.cls-25{opacity:0.57;}.cls-26{opacity:0.55;}.cls-27{opacity:0.53;}.cls-28{opacity:0.51;}.cls-29{opacity:0.5;}.cls-30{opacity:0.48;}.cls-31{opacity:0.46;}.cls-32{opacity:0.44;}.cls-33{opacity:0.42;}.cls-34{opacity:0.4;}.cls-35{opacity:0.38;}.cls-36{opacity:0.36;}.cls-37{opacity:0.34;}.cls-38{opacity:0.32;}.cls-39{opacity:0.3;}.cls-40{opacity:0.28;}.cls-41{opacity:0.26;}.cls-42{opacity:0.24;}.cls-43{opacity:0.22;}.cls-44{opacity:0.2;}.cls-45{opacity:0.18;}.cls-46{opacity:0.17;}.cls-47{opacity:0.15;}.cls-48{opacity:0.13;}.cls-49{opacity:0.11;}.cls-50{opacity:0.09;}.cls-51{opacity:0.07;}.cls-52{opacity:0.05;}.cls-53{opacity:0.03;}.cls-54{opacity:0.01;}</style><clipPath id="clip-path" transform="translate(-35.5 653.5)"><rect class="cls-1" width="2099" height="1428"/></clipPath></defs><g id="Layer_2" data-name="Layer 2"><g id="Layer_1-2" data-name="Layer 1"><g class="cls-2"><path class="cls-3" d="M2323.22,829.41c-73.73-170.86,153.09-410-2.72-414.87-105.89-3.32-141.54,102-216.38,109.24C2037.75,530.16,2137.3,386.41,2131,280c-6.26-105.8-32.27-278.28-164-321-138.48-44.91-287.83,205-420,58-139.61-155.28,61.39-244.94-193.18-276.73C1172.27-282.4,1105,54.75,1019.89-82.88c-49.68-80.33-5.17-267-65-363.77C911-517.58,865.16-423.53,786-538.3,696.1-668.5,648.42-567.68,391-653" transform="translate(-35.5 653.5)"/><path class="cls-4" d="M2318.82,840.69c-72.45-171.53,146.3-406.55-7.16-412.08-105.62-3.8-141.5,99.79-215.75,107.54-41.6,4.39-18.22-49.63,2.29-116.56,12-39,23.74-83.4,21.33-122.75-1.74-28.62-5-62-11.65-96.21-18-91.93-58.53-189.47-154.14-219.44-76.22-23.79-155.67,40.34-233.63,77.48-63.5,30.11-125.76,43-184-22.63-20.74-23.39-33.77-45.33-41.76-65.87-40.69-104.24,43.54-168.8-96.63-201.7-14.68-3.45-31.93-6.7-52.2-9.4-178.65-23.79-246.85,306.31-333.09,169.78-17.93-28.44-24-70.21-27.37-116.53C979-271.25,982.31-369.35,943.77-431c-44-70.34-89.6,21.15-167.86-92.11C707-622.79,662.79-586.46,529-605.45A788.41,788.41,0,0,1,384-640.18" transform="translate(-35.5 653.5)"/><path class="cls-5" d="M2314.43,852c-71.18-172.21,139.5-403.13-11.61-409.29-105.34-4.3-141.45,97.54-215.12,105.83-41.36,4.76-18.72-47.6.34-113.08,11.05-38,22.52-82.36,20-121.77-1.79-28.55-5.13-61.82-12.15-95.59-19-90.92-60.26-185.89-155.45-214.71-76-22.8-155.25,40.53-232.87,76.26-63.36,28.9-125.16,40.73-182.41-24.56-20.4-23.3-33.13-45.22-40.83-65.79C1445.13-115,1525.63-178,1388.59-212.13a500.33,500.33,0,0,0-51.41-10C1161.44-247,1092.27,76,1004.92-59.41c-18.11-28.18-24.52-69.46-28.49-115.19-7.19-82.8-5.15-179.66-43.76-240.76-44.11-69.75-89.49,19.19-166.81-92.57-68.38-98.69-112.52-63.49-244.75-84.17-39.74-6.22-87.24-15.64-144-35.25" transform="translate(-35.5 653.5)"/><path class="cls-6" d="M2310,863.26c-69.9-172.88,132.71-399.72-16.05-406.5-105.08-4.78-141.4,95.29-214.49,104.13-41.11,5.12-19.2-45.58-1.61-109.61,10.15-36.95,21.3-81.3,18.72-120.77-1.83-28.49-5.27-61.61-12.64-95-20-89.89-62-182.31-156.75-210-75.88-21.81-154.75,40.9-232.12,75-63.15,27.85-124.56,38.49-180.81-26.48-20-23.21-32.49-45.11-39.88-65.73-37.78-104.29,39-165.67-94.92-201.11a464.07,464.07,0,0,0-50.63-10.62c-172.81-26-242.95,290-331.41,155.67-18.3-27.92-25.05-68.7-29.63-113.85-8.31-82-7.55-177.63-46.23-238.19-44.23-69.15-89.39,17.23-165.77-93-67.84-97.72-111.93-63.66-242.54-86-39.74-6.8-87.18-16-143.15-35.78" transform="translate(-35.5 653.5)"/><path class="cls-7" d="M2305.63,874.55C2237,701,2431.54,478.21,2285.14,470.84c-104.81-5.28-141.37,92.86-213.86,102.42-40.87,5.4-19.68-43.56-3.56-106.13,9.26-35.93,20.08-80.26,17.42-119.79-1.89-28.43-5.41-61.39-13.15-94.38-21-88.87-63.62-179-158-205.21-75.65-21-154.3,41.14-231.37,73.8-63,26.69-124,36.25-179.2-28.41-19.68-23.12-31.8-45-38.94-65.65-36.11-104.39,36.69-164.12-94.06-200.82a430.69,430.69,0,0,0-49.84-11.23c-169.89-27-241,281.85-330.58,148.62-18.47-27.66-25.58-67.95-30.75-112.52-9.44-81.24-10-175.61-48.71-235.61-44.36-68.56-89.29,15.26-164.73-93.48-67.3-96.74-111.35-63.87-240.33-87.85-39.75-7.39-87.11-16.45-142.27-36.31" transform="translate(-35.5 653.5)"/><path class="cls-8" d="M2301.24,885.84c-67.34-174.23,119.11-393-24.93-400.93-104.56-5.78-141.34,90.57-213.25,100.72-40.62,5.74-20.13-41.56-5.49-102.66,8.36-34.91,18.85-79.21,16.1-118.79-1.93-28.37-5.55-61.18-13.64-93.78C2038,182.55,1994.7,95,1900.68,69.94c-75.48-20.09-153.87,41.38-230.62,72.57-62.82,25.53-123.35,34-177.59-30.33-19.34-23-31.15-44.91-38-65.59-34.61-104.43,34.37-162.56-93.21-200.52a397.41,397.41,0,0,0-49.06-11.83c-167-28.1-239,273.68-329.73,141.56-18.66-27.41-26.12-67.21-31.89-111.19C940-215.86,938.21-309,899.4-368.43c-44.48-68-89.19,13.3-163.69-93.93C669-558.13,624.93-526.48,497.6-552c-39.77-8-87.06-16.85-141.4-36.83" transform="translate(-35.5 653.5)"/><path class="cls-9" d="M2296.84,897.12c-66.06-174.9,112.31-389.6-29.37-398.13-104.3-6.29-141.3,88.28-212.62,99-40.37,6.07-20.59-39.57-7.44-99.2,7.48-33.9,17.63-78.16,14.79-117.8-2-28.3-5.69-61-14.14-93.16C2025,201,1981,115.93,1887.41,92.12,1812.12,73,1734,133.75,1657.55,163.47c-62.67,24.37-122.75,31.77-176-32.26-19-23-30.49-44.79-37.06-65.51-33.1-104.47,32-161-92.35-200.23-13.14-4.14-29-9-48.27-12.44-164-29.14-237.39,265.73-328.9,134.5-18.89-27.1-26.65-66.46-33-109.85-11.7-79.7-14.79-171.56-53.67-230.46-44.59-67.38-89.08,11.33-162.64-94.4C659.44-542,615.44-511.57,489.76-538.7c-39.78-8.59-87-17.26-140.52-37.36" transform="translate(-35.5 653.5)"/><path class="cls-10" d="M2292.44,908.41c-64.78-175.58,105.51-386.26-33.81-395.35-104-6.79-141.26,86-212,97.32-40.13,6.42-21-37.58-9.39-95.72,6.6-32.91,16.41-77.12,13.49-116.81-2-28.25-5.83-60.75-14.64-92.56-24.1-85.81-68.74-168.39-161.95-191-75.12-18.2-153,41.86-229.11,70.12-62.52,23.21-122.15,29.52-174.39-34.18-18.62-22.87-29.84-44.69-36.12-65.45-31.6-104.5,29.72-159.51-91.49-199.93-12.84-4.28-28.36-9.47-47.48-13.05C1134.48-158.33,1060.08,129.43,967.5-.73c-19.09-26.83-27.19-65.72-34.15-108.52-12.83-78.94-17.19-169.54-56.14-227.89-44.71-66.78-89,9.37-161.6-94.85C649.94-525.8,606-496.7,481.92-525.35c-39.8-9.2-86.93-17.66-139.65-37.89" transform="translate(-35.5 653.5)"/><path class="cls-11" d="M2288.05,919.7c-63.51-176.26,98.69-382.93-38.26-392.57-103.79-7.3-141.22,83.71-211.36,95.62-39.88,6.77-21.48-35.6-11.33-92.25,5.71-31.92,15.18-76.07,12.17-115.82-2.07-28.18-5.91-60.55-15.13-91.95-24.94-84.84-70.45-164.86-163.25-186.23-75-17.26-152.57,42.1-228.36,68.89-62.37,22.05-121.56,27.28-172.78-36.11-18.28-22.78-29.19-44.57-35.18-65.37-30.1-104.53,27.36-158-90.63-199.64-12.55-4.42-27.77-9.92-46.71-13.65C1129.1-140.53,1053.67,140.1,960,11c-19.27-26.56-27.73-65-35.27-107.18-14-78.19-19.61-167.52-58.62-225.31-44.83-66.19-88.88,7.39-160.56-95.31-65.13-92.84-109.11-65.06-231.48-95.2-39.83-9.82-86.86-18.06-138.77-38.41" transform="translate(-35.5 653.5)"/><path class="cls-12" d="M2283.65,931c-62.23-176.93,91.89-379.61-42.7-389.77-103.53-7.82-141.18,81.42-210.73,93.91-39.64,7.11-21.91-33.64-13.28-88.77,4.84-30.94,14-75,10.86-114.83-2.11-28.12-6-60.34-15.63-91.35-25.93-83.83-72.16-161.33-164.55-181.49-74.77-16.31-152.14,42.34-227.6,67.67-62.22,20.88-121.08,25.15-171.18-38-18-22.66-28.53-44.47-34.24-65.31-28.6-104.56,25-156.5-89.77-199.34-12.25-4.57-27.17-10.38-45.92-14.26-155.18-32.13-231.65,241.35-326.38,113.33C933.06-3.56,924.25-41.49,916.12-83.1,901-160.54,894.1-248.6,855-305.85c-44.95-65.6-88.78,5.43-159.52-95.76-64.59-91.86-108.57-65.45-229.27-97.05-39.86-10.43-86.8-18.46-137.89-38.93" transform="translate(-35.5 653.5)"/><path class="cls-13" d="M2279.26,942.27c-61-177.6,85.08-376.32-47.15-387C2128.82,547,2091,634.43,2022,647.49c-39.4,7.46-22.33-31.69-15.23-85.3,4-30,12.74-74,9.56-113.83-2.16-28.07-6.18-60.14-16.13-90.74-26.93-82.82-73.87-157.8-165.85-176.75-74.6-15.36-151.72,42.57-226.85,66.44-62.07,19.72-120.5,22.91-169.58-40-17.61-22.56-27.88-44.35-33.29-65.23-27.11-104.59,22.6-155-88.92-199-12-4.71-26.56-10.83-45.13-14.87C1118.37-104.89,1040.86,161.43,945,34.48,925.39,8.44,916.21-29,907.51-70c-16.28-76.7-24.43-163.48-63.58-220.18-45.07-65-88.68,3.47-158.47-96.21-64.05-90.89-108-65.87-227.06-98.89-39.89-11.06-86.73-18.86-137-39.45" transform="translate(-35.5 653.5)"/><path class="cls-14" d="M2274.86,953.55c-59.68-178.27,78.27-373-51.59-384.19-103-8.86-141.11,76.86-209.47,90.5-39.15,7.81-22.74-29.75-17.17-81.82,3.1-29,11.51-72.94,8.24-112.85-2.2-28-6.31-59.92-16.62-90.13-27.94-81.81-75.59-154.26-167.16-172-74.42-14.42-151.29,42.8-226.09,65.21-61.93,18.55-119.91,20.68-168-41.88-17.27-22.48-27.23-44.25-32.36-65.17-25.62-104.61,20.2-153.58-88.06-198.74-11.67-4.87-26-11.3-44.35-15.49-149.26-34-227.8,225.1-324.7,99.22C917.72,20.44,908.17-16.55,898.89-57c-17.44-75.95-26.84-161.46-66-217.6-45.19-64.41-88.58,1.5-157.42-96.68C611.9-461.15,567.93-437.56,450.56-472c-39.93-11.7-86.66-19.26-136.13-40" transform="translate(-35.5 653.5)"/><path class="cls-15" d="M2270.46,964.84c-58.4-179,71.46-369.77-56-381.41-102.81-9.39-141.08,74.59-208.85,88.8-38.91,8.16-23.14-27.84-19.12-78.35,2.23-28.09,10.28-71.89,6.94-111.85-2.25-27.94-6.45-59.71-17.13-89.53-28.94-80.8-77.3-150.72-168.45-167.25-74.26-13.47-150.88,43-225.34,64-61.79,17.38-119.32,18.45-166.37-43.81-16.92-22.38-26.58-44.13-31.41-65.09-24.13-104.64,17.78-152.15-87.21-198.45-11.38-5-25.36-11.75-43.56-16.09-146.29-34.94-225.88,217-323.87,92.16-20-25.51-29.94-62-39.79-101.84-18.61-75.21-29.25-159.43-68.53-215-45.31-63.81-88.48-.46-156.38-97.13-63-88.93-107-66.81-222.65-102.56-40-12.35-86.6-19.67-135.25-40.51" transform="translate(-35.5 653.5)"/><path class="cls-16" d="M2266.07,976.13c-57.13-179.63,64.64-366.52-60.47-378.62-102.57-9.93-141,72.3-208.22,87.09-38.67,8.51-23.54-26-21.07-74.88,1.37-27.17,9.06-70.84,5.63-110.86-2.3-27.88-6.58-59.5-17.62-88.92-29.94-79.78-79-147.18-169.75-162.51-74.09-12.51-150.47,43.26-224.59,62.76-61.65,16.21-118.74,16.22-164.77-45.73-16.57-22.3-25.93-44-30.47-65C1352.1,94.77,1390.1,48.69,1288.39,1.28c-11.09-5.17-24.75-12.2-42.77-16.7-143.33-35.83-224,208.84-323,85.11C902.38,44.45,892.08,8.4,881.66-30.82c-19.78-74.47-31.66-157.41-71-212.45-45.43-63.23-88.18-2.57-155.34-97.59-62.26-88.09-106.41-67.34-220.44-104.4-40-13-86.53-20.07-134.37-41" transform="translate(-35.5 653.5)"/><path class="cls-17" d="M2261.67,987.41c-55.85-180.3,57.83-363.28-64.91-375.83-102.33-10.46-141,70-207.59,85.39-38.42,8.87-23.94-24.09-23-71.4.52-26.28,7.84-69.8,4.32-109.87-2.34-27.82-6.71-59.29-18.11-88.31-30.95-78.78-80.75-143.64-171.06-157.77-73.92-11.56-150,43.48-223.83,61.53-61.51,15-118.15,14-163.16-47.66-16.22-22.21-25.28-43.91-29.53-65-21.16-104.69,12.91-149.37-85.5-197.86-10.81-5.33-24.14-12.64-42-17.31-140.35-36.69-222,200.71-322.19,78.05-20.39-25-31.08-60.56-42.05-99.17-21-73.74-34.07-155.39-73.48-209.88-45.55-62.63-88.07-4.53-154.3-98C583.57-412.79,539.4-393.57,427-431.91c-40.05-13.67-86.47-20.47-133.49-41.56" transform="translate(-35.5 653.5)"/><path class="cls-18" d="M2257.27,998.7c-54.57-181,51-360.07-69.35-373-102.1-11-141,67.75-207,83.68-38.17,9.22-24.32-22.25-25-67.93-.35-25.4,6.61-68.75,3-108.88-2.39-27.75-6.86-59.07-18.62-87.7-32-77.77-82.46-140.1-172.35-153-73.76-10.61-149.64,43.7-223.09,60.3-61.36,13.87-117.55,11.75-161.55-49.58-15.87-22.12-24.63-43.8-28.59-64.89-19.67-104.71,10.46-148-84.64-197.56-10.53-5.49-23.53-13.09-41.2-17.92-137.38-37.53-220.1,192.58-321.35,71C887,68.45,876,33.33,864.43-4.68,842.28-77.69,828-158,788.47-212c-45.66-62-88-6.51-153.25-98.51-61.15-86.15-105.33-68.49-216-108.07-40.1-14.34-86.41-20.88-132.62-42.09" transform="translate(-35.5 653.5)"/><path class="cls-19" d="M2252.88,1010c-53.3-181.64,44.2-356.86-73.8-370.25-101.87-11.56-140.93,65.49-206.34,82-37.93,9.56-24.73-20.46-26.9-64.46-1.21-24.55,5.39-67.71,1.7-107.89-2.43-27.69-7-58.87-19.11-87.1-33-76.75-84.19-136.54-173.66-148.27-73.59-9.65-149.23,43.91-222.33,59.07-61.23,12.69-117,9.51-160-51.5-15.52-22-24-43.7-27.65-64.82-18.19-104.73,8-146.72-83.78-197.27C1250.81,53.83,1238.13,46,1220.64,41,1086.24,2.6,1002.48,225.4,900.13,104.89,879.37,80.45,867.9,45.8,855.82,8.4c-23.36-72.29-38.9-151.35-78.44-204.74-45.78-61.44-87.84-8.48-152.21-99-60.6-85.18-104.78-69.12-213.8-109.91-40.14-15-86.35-21.28-131.74-42.61" transform="translate(-35.5 653.5)"/><path class="cls-20" d="M2248.48,1021.27c-52-182.32,37.39-353.68-78.24-367.47-101.64-12.11-140.89,63.22-205.71,80.29-37.69,9.92-25.14-18.69-28.85-61-2.08-23.73,4.09-66.65.4-106.9-2.54-27.62-7.13-58.65-19.62-86.49-34-75.74-85.91-133-175-143.53-73.43-8.69-148.82,44.13-221.58,57.85-61.1,11.51-116.38,7.28-158.34-53.43-15.17-22-23.33-43.58-26.71-64.75-16.71-104.74,5.52-145.44-82.93-197-10-5.81-22.32-14-39.63-19.13C1080.9,20.6,996.1,236.05,892.65,116.63,871.7,92.45,859.83,58.27,847.2,21.47c-24.56-71.56-41.3-149.33-80.91-202.17-45.91-60.85-87.74-10.45-151.17-99.41-60-84.21-104.23-69.78-211.59-111.75-40.19-15.71-86.28-21.68-130.86-43.14" transform="translate(-35.5 653.5)"/><path class="cls-21" d="M2244.08,1032.56c-50.74-183,30.57-350.52-82.68-364.68-101.41-12.68-140.85,61-205.08,78.58-37.44,10.28-25.57-17-30.79-57.52-3-22.93,2.86-65.6-.92-105.9-2.59-27.57-7.27-58.44-20.11-85.88-35-74.74-87.63-129.44-176.26-138.79-73.26-7.73-148.41,44.34-220.82,56.62-61,10.33-115.79,5-156.74-55.35-14.82-21.86-22.68-43.47-25.77-64.68-15.23-104.77,3-144.22-82.07-196.68-9.7-6-21.7-14.41-38.84-19.74-128.44-39.91-214.29,168.17-318.84,49.83-21.13-23.92-33.4-57.64-46.57-93.83C812.81-36.29,794.87-112.76,755.2-165c-46-60.26-87.63-12.43-150.13-99.87-59.5-83.25-103.68-70.48-209.38-113.6-40.23-16.4-86.22-22.08-130-43.66" transform="translate(-35.5 653.5)"/><path class="cls-22" d="M2239.69,1043.84c-49.47-183.67,23.75-347.36-87.13-361.89-101.19-13.25-140.81,58.69-204.45,76.88-37.2,10.63-26-15.25-32.74-54-3.84-22.17,1.63-64.56-2.23-104.91-2.63-27.51-7.4-58.24-20.6-85.28-36-73.72-89.36-125.88-177.56-134-73.1-6.77-148,44.55-220.07,55.39-60.84,9.15-115.2,2.8-155.14-57.28-14.47-21.77-22-43.35-24.82-64.61-13.77-104.78.56-143-81.22-196.38-9.43-6.15-21.09-14.85-38.06-20.34-125.46-40.66-212.34,160-318,42.76-21.32-23.65-34-56.9-47.71-92.49-27-70.11-46.12-145.28-85.87-197C698-209.07,656.59-163.8,595-249.74,536.07-332,491.91-320.93,387.85-365.17c-40.27-17.11-86.15-22.48-129.1-44.18" transform="translate(-35.5 653.5)"/><path class="cls-23" d="M2235.29,1055.13c-48.19-184.34,16.94-344.23-91.56-359.1-101-13.84-140.78,56.42-203.83,75.17-37,11-33.18-12.73-34.69-50.57-8.44-20.26.41-63.51-3.53-103.92-2.68-27.44-7.55-58-21.11-84.67-37-72.71-91.08-122.32-178.85-129.3-72.94-5.79-147.62,44.76-219.32,54.17-60.72,8-114.61.57-153.53-59.2-14.12-21.69-21.39-43.25-23.89-64.54-12.29-104.8-1.92-141.89-80.36-196.09-9.16-6.33-20.48-15.28-37.27-21C1064.87,74.77,977,268,870.19,151.84c-21.49-23.4-34.59-56.17-48.83-91.16C793.12-8.7,772.82-82.58,733-133.76c-46.26-59.07-87.4-16.37-148-100.79-58.39-81.3-102.54-71.95-205-117.27-40.31-17.83-86.09-22.88-128.23-44.71" transform="translate(-35.5 653.5)"/><path class="cls-24" d="M2230.89,1066.42c-46.91-185,10.13-341.12-96-356.32-100.75-14.42-140.75,54.16-203.2,73.47-36.72,11.35-34-10.78-36.64-47.09-9.51-19.28-.81-62.47-4.84-102.93-2.73-27.38-7.68-57.82-21.6-84.07-38-71.7-92.81-118.76-180.16-124.55-72.77-4.82-147.22,45-218.56,52.94-60.59,6.77-114-1.67-151.93-61.13-13.77-21.6-20.74-43.13-22.94-64.47-10.83-104.81-4.41-140.79-79.5-195.79-8.9-6.51-19.88-15.71-36.49-21.56-119.51-42-208.46,143.75-316.32,28.65-21.68-23.13-35.2-55.44-50-89.82C783.26,5.1,761.8-67.49,721.92-118.12c-46.38-58.48-87.3-18.34-147-101.24-57.85-80.33-102-72.74-202.75-119.11-40.35-18.56-86-23.29-127.35-45.24" transform="translate(-35.5 653.5)"/><path class="cls-25" d="M2226.5,1077.7c-45.64-185.69,3.31-338-100.45-353.52-100.53-15-140.71,51.89-202.57,71.76-36.47,11.71-34.73-8.83-38.58-43.62-10.58-18.29-2-61.42-6.16-101.94-2.77-27.32-7.82-57.6-22.09-83.45-39-70.69-94.55-115.2-181.46-119.81-72.62-3.86-146.82,45.15-217.81,51.71-60.47,5.58-113.42-3.91-150.33-63.05-13.42-21.51-20.09-43-22-64.4-9.36-104.83-6.88-139.75-78.64-195.5-8.63-6.7-19.26-16.14-35.71-22.17C1054.18,111,964.2,289.32,855.22,175.31c-21.86-22.87-35.81-54.71-51.09-88.49-30.74-67.92-53.36-139.21-93.3-189.29-46.5-57.89-87.19-20.31-146-101.7-57.3-79.37-101.38-73.55-200.54-121-40.38-19.3-86-23.69-126.47-45.76" transform="translate(-35.5 653.5)"/><path class="cls-26" d="M2222.1,1089c-44.36-186.37-3.5-334.94-104.89-350.74-100.31-15.63-140.67,49.64-201.94,70.06-36.23,12.07-35.5-6.89-40.53-40.14-11.64-17.3-3.27-60.38-7.46-100.95-2.82-27.26-8-57.39-22.6-82.85-40-69.68-96.27-111.63-182.76-115.06-72.45-2.88-146.42,45.34-217.05,50.48-60.35,4.38-112.83-6.15-148.72-65-13.07-21.42-19.45-42.9-21.06-64.33-7.9-104.84-9.35-138.76-77.79-195.2-8.36-6.89-18.65-16.57-34.92-22.77C1048.83,129.2,957.83,300,847.74,187.05c-22-22.61-36.43-54-52.23-87.15-32-67.21-55.77-137.2-95.78-186.73C653.11-144.12,612.65-109.11,554.82-189,498.07-267.38,454-263.38,356.49-311.77c-40.41-20.05-85.89-24.09-125.59-46.29" transform="translate(-35.5 653.5)"/><path class="cls-27" d="M2217.7,1100.27c-43.08-187-10.32-331.87-109.33-347.95-100.09-16.24-140.63,47.39-201.31,68.36-36,12.44-36.28-4.94-42.48-36.67-12.7-16.31-4.49-59.33-8.77-100-2.86-27.19-8.1-57.18-23.09-82.24-41.06-68.66-98-108-184.06-110.32-72.3-1.9-146,45.54-216.3,49.26-60.23,3.18-112.24-8.39-147.12-66.9a140.3,140.3,0,0,1-20.12-64.26c-6.44-104.86-11.8-137.82-76.93-194.91-8.09-7.09-18-17-34.14-23.38-110.57-43.9-202.59,119.31-313.8,7.48-22.22-22.34-37-53.24-53.35-85.81C753.62,46.5,728.72-22.21,688.64-71.18c-46.74-56.7-87-24.25-143.87-102.62-56.2-77.42-100.17-75.26-196.12-124.62-40.44-20.81-85.82-24.5-124.71-46.82" transform="translate(-35.5 653.5)"/><path class="cls-28" d="M2213.31,1111.56c-41.81-187.71-17.13-328.83-113.78-345.16-99.87-16.88-140.59,45.13-200.69,66.65-35.73,12.8-37-3-44.41-33.2-13.77-15.32-5.72-58.28-10.08-99-2.92-27.14-8.25-57-23.59-81.64-42.09-67.65-99.74-104.47-185.37-105.57-72.13-.92-145.63,45.72-215.54,48-60.11,2-111.65-10.63-145.52-68.83a138.78,138.78,0,0,1-19.18-64.19c-5-104.86-14.23-136.94-76.07-194.61-7.82-7.29-17.42-17.41-33.35-24-107.61-44.45-200.64,111.16-313,.43C810.37,188.43,795.1,158,778.28,126,743.72,60.3,717.69-7.11,677.55-55.54c-46.86-56.11-86.87-26.21-142.82-103.07-55.66-76.45-99.56-76.15-193.92-126.46C300.35-306.65,255.05-310,217-332.41" transform="translate(-35.5 653.5)"/><path class="cls-29" d="M2208.91,1122.85C2168.38,934.46,2185,797,2090.69,780.47,1991,763,1950.14,823.35,1890.63,845.42c-35.49,13.17-37.81-1-46.36-29.72-14.84-14.33-6.94-57.24-11.39-98-3-27.07-8.39-56.75-24.09-81-43.1-66.64-101.46-100.9-186.66-100.83-72,.06-145.24,45.9-214.8,46.8-60,.77-111-12.87-143.9-70.75a136.94,136.94,0,0,1-18.24-64.12c-3.53-104.88-16.65-136.12-75.22-194.32-7.55-7.5-16.81-17.82-32.56-24.6-104.65-45-198.69,103-312.13-6.62-22.58-21.83-38.3-51.77-55.61-83.15-35.86-65-63-131.13-103.21-179-47-55.51-86.77-28.18-141.78-103.52S425.75-220.49,333-271.72c-40.49-22.36-85.7-25.3-123-47.87" transform="translate(-35.5 653.5)"/><path class="cls-30" d="M2204.52,1134.13c-39.26-189.06-30.76-322.79-122.67-339.58-99.44-18.17-140.51,40.63-199.43,63.25-35.24,13.52-38.59.89-48.31-26.26-15.9-13.34-8.16-56.19-12.7-97-3-27-8.53-56.54-24.58-80.42-44.13-65.63-103.19-97.32-188-96.09-71.82,1.05-144.85,46.08-214,45.58-59.86-.44-110.45-15.12-142.3-72.68a135.62,135.62,0,0,1-17.3-64.05c-2.07-104.89-19-135.34-74.36-194-7.28-7.73-16.19-18.24-31.78-25.21C1027.39,202.2,932.36,342.53,817.8,234c-22.76-21.56-38.94-51-56.75-81.81C723.89,87.93,695.64,23.07,655.37-24.25c-47.1-54.92-86.67-30.15-140.74-104-54.57-74.5-98.28-78-189.49-130.13-40.5-23.15-85.64-25.71-122.08-48.39" transform="translate(-35.5 653.5)"/><path class="cls-31" d="M2200.12,1145.42c-38-189.74-37.56-319.8-127.1-336.8-99.23-18.83-140.47,38.39-198.81,61.55-35,13.89-39.36,2.84-50.25-22.78-17-12.36-9.39-55.15-14-96-3-27-8.68-56.33-25.09-79.82-45.14-64.61-104.92-93.73-189.26-91.34-71.66,2-144.45,46.25-213.29,44.34-59.74-1.65-109.85-17.35-140.7-74.59a134.24,134.24,0,0,1-16.35-64c-.63-104.91-21.38-134.62-73.51-193.72-7-8-15.58-18.65-31-25.82C1022,220.54,926,353.17,810.31,245.73c-22.94-21.31-39.58-50.28-57.87-80.48C714,101.75,684.62,38.17,644.27-8.61,597.06-62.93,557.71-40.72,504.58-113c-54-73.53-97.62-79-187.28-132-40.51-23.94-85.57-26.1-121.2-48.91" transform="translate(-35.5 653.5)"/><path class="cls-32" d="M2195.72,1156.7c-36.7-190.41-44.37-316.82-131.54-334-99-19.52-140.43,36.14-198.18,59.84-34.75,14.26-40.14,4.79-52.2-19.31-18-11.36-10.61-54.1-15.32-95-3.09-26.89-8.82-56.12-25.58-79.21-46.17-63.59-106.65-90.14-190.56-86.59-71.5,3-144.07,46.41-212.54,43.11-59.62-2.86-109.25-19.59-139.09-76.51a133,133,0,0,1-15.42-63.92c.82-104.92-23.69-133.95-72.65-193.42-6.72-8.17-15-19.06-30.2-26.43-95.82-46.36-192.8,78.54-309.61-27.8-23.12-21-40.23-49.53-59-79.14C704,115.57,673.59,53.26,633.18,7,585.84-46.7,546.72-27,494.53-97.86c-53.48-72.56-96.95-80-185.07-133.82C269-256.43,224-258.18,189.14-281.12" transform="translate(-35.5 653.5)"/><path class="cls-33" d="M2191.33,1168c-35.43-191.08-51.18-313.87-136-331.22-98.79-20.21-140.39,33.9-197.55,58.14-34.51,14.63-40.91,6.74-54.15-15.83-19.1-10.38-11.83-53.06-16.63-94-3.14-26.83-9-55.91-26.07-78.6-47.2-62.58-108.39-86.55-191.87-81.85-71.34,4-143.67,46.57-211.78,41.88-59.5-4.09-108.65-21.84-137.49-78.44a131.81,131.81,0,0,1-14.47-63.84c2.26-104.94-26-133.33-71.8-193.13-6.44-8.41-14.36-19.45-29.42-27-92.89-46.76-190.83,70.37-308.77-34.86-23.29-20.79-40.87-48.79-60.13-77.8-41.14-62-72.64-123-113.12-168.72-47.46-53.14-86.36-36-137.61-105.35-52.94-71.59-96.26-81-182.86-135.66-40.5-25.58-85.44-26.9-119.44-50" transform="translate(-35.5 653.5)"/><path class="cls-34" d="M2186.93,1179.28c-34.15-191.76-58-310.93-140.43-328.43-98.57-20.93-140.34,31.65-196.92,56.43-34.26,15-41.68,8.68-56.1-12.36-20.16-9.39-13-52-17.93-93-3.19-26.76-9.11-55.69-26.58-78-48.22-61.56-110.11-82.95-193.16-77.11-71.18,5-143.28,46.73-211,40.66-59.38-5.31-108.06-24.08-135.89-80.36a130.92,130.92,0,0,1-13.53-63.78c3.71-105-28.18-132.74-70.94-192.83-6.15-8.65-13.75-19.85-28.63-27.64-90-47.12-188.87,62.21-307.93-41.91-23.47-20.53-41.53-48-61.27-76.47C684.11,143.25,651.54,83.45,611,38.33,563.42-14.22,524.74.31,474.43-67.48,422-138.1,378.87-149.47,293.78-205c-40.48-26.41-85.38-27.31-118.56-50.49" transform="translate(-35.5 653.5)"/><path class="cls-35" d="M2182.53,1190.56c-32.87-192.43-64.77-308-144.87-325.64-98.34-21.66-140.3,29.42-196.29,54.73-34,15.38-42.46,10.63-58-8.89-21.23-8.39-14.28-51-19.25-92-3.23-26.71-9.25-55.48-27.07-77.39C1687.76,680.81,1625.17,662,1542.54,669c-71,6-142.87,46.88-210.27,39.43-59.25-6.54-107.46-26.33-134.28-82.29a130.08,130.08,0,0,1-12.6-63.7c5.15-105-30.35-132.2-70.08-192.54-5.85-8.89-13.14-20.24-27.84-28.25-87.09-47.45-186.9,54.05-307.1-49C756.72,272.4,738.18,245.4,718,217.54,674.14,157.1,640.51,98.54,599.9,54,552.21,2,513.75,14,464.38-52.3c-51.85-69.63-94.83-83-178.44-139.33-40.45-27.25-85.31-27.71-117.69-51" transform="translate(-35.5 653.5)"/><path class="cls-36" d="M2178.14,1201.85c-31.6-193.11-71.57-305.1-149.32-322.86-98.11-22.4-140.25,27.18-195.66,53-33.77,15.75-43.23,12.58-60-5.41-22.29-7.41-15.5-49.92-20.55-91-3.28-26.64-9.4-55.26-27.57-76.78-50.28-59.52-113.57-75.75-195.77-67.61-70.86,7-142.48,47-209.52,38.2-59.13-7.78-106.85-28.57-132.68-84.21a129.19,129.19,0,0,1-11.65-63.64c6.58-105-32.47-131.67-69.22-192.24-5.55-9.14-12.55-20.62-27.07-28.86-84.2-47.74-184.92,45.89-306.25-56-23.83-20-42.85-46.52-63.53-73.8-45.2-59.66-79.87-117-120.55-161C541,18.25,502.75,27.68,454.33-37.11,403-105.77,360.23-121.19,278.1-178.28c-40.42-28.1-85.25-28.11-116.81-51.54" transform="translate(-35.5 653.5)"/><path class="cls-37" d="M2173.74,1213.14c-30.32-193.79-78.36-302.22-153.76-320.07-97.88-23.18-140.2,24.94-195,51.32-33.52,16.13-44,14.53-61.94-1.94-23.35-6.42-16.72-48.87-21.86-90-3.32-26.58-9.54-55-28.07-76.17-51.31-58.5-115.29-72.15-197.06-62.87-70.71,8-142.09,47.17-208.77,37-59-9-106.25-30.82-131.07-86.14-9.2-20.49-12.39-41.67-10.72-63.56,8-105-34.53-131.19-68.36-191.95-5.23-9.39-11.95-21-26.28-29.46-81.33-48-182.95,37.71-305.42-63.09-24-19.75-43.51-45.75-64.65-72.46-46.57-58.86-82.29-115-123-158.42-47.93-50.77-86-43.9-133.44-107.18-50.77-67.68-93.34-85.15-174-143-40.37-29-85.18-28.52-115.93-52.07" transform="translate(-35.5 653.5)"/><path class="cls-38" d="M2169.34,1224.42c-29-194.45-85.14-299.34-158.19-317.28-97.65-24-140.16,22.71-194.41,49.62-33.27,16.5-44.78,16.47-63.88,1.54-24.43-5.43-17.87-47.84-23.18-89.06-3.31-26.52-9.68-54.83-28.56-75.56-52.34-57.48-117-68.54-198.37-58.13-70.54,9-141.68,47.32-208,35.75-58.88-10.26-105.65-33.06-129.47-88.06-8.84-20.41-11.74-41.56-9.77-63.5,9.44-105-36.54-130.71-67.51-191.65-4.91-9.65-11.35-21.37-25.5-30.07-78.48-48.25-181,29.54-304.57-70.14-24.18-19.5-44.19-45-65.79-71.13-48-58.05-84.69-112.93-125.5-155.85C518.57,50.73,480.76,55,434.23-6.73,384-73.44,341.66-93,262.42-151.58c-40.32-29.83-85.12-28.92-115-52.6" transform="translate(-35.5 653.5)"/><path class="cls-39" d="M2165,1235.71c-27.77-195.13-91.93-296.49-162.64-314.49-97.4-24.79-140.11,20.48-193.79,47.91-33,16.88-45.54,18.42-65.82,5-25.49-4.44-19.09-46.79-24.48-88.06-3.36-26.47-9.83-54.62-29.06-75-53.37-56.45-118.75-64.92-199.67-53.38-70.38,10-141.28,47.45-207.26,34.52-58.75-11.51-105-35.31-127.87-90-8.48-20.32-11.1-41.44-8.83-63.42,10.88-105-38.48-130.24-66.65-191.36-4.57-9.91-10.76-21.74-24.71-30.68-75.66-48.45-179,21.36-303.74-77.19-24.35-19.25-44.85-44.21-66.91-69.8-49.34-57.23-87.11-110.91-128-153.27C507.36,67,469.76,68.72,424.18,8.45c-49.7-65.72-91.78-87.32-169.59-146.68-40.26-30.71-85.06-29.32-114.18-53.12" transform="translate(-35.5 653.5)"/><path class="cls-40" d="M2160.55,1247c-26.49-195.8-98.7-293.65-167.08-311.7-97.15-25.63-140.06,18.25-193.16,46.21-32.76,17.26-46.32,20.37-67.77,8.49-26.55-3.46-20.31-45.74-25.79-87.08-3.4-26.4-10-54.4-29.56-74.35-54.4-55.42-120.47-61.3-201-48.63C1406,791,1335.35,827.51,1269.71,813.22c-58.61-12.76-104.43-37.56-126.25-91.91-8.13-20.24-10.47-41.33-7.89-63.36,12.3-105-40.37-129.77-65.8-191.06-4.22-10.17-10.17-22.1-23.92-31.28C973,387,868.82,448.79,743,351.35c-24.53-19-45.53-43.42-68.05-68.45C624.17,226.49,585.39,174,544.44,132.19c-48.29-49-85.68-49.78-130.31-108.55C365-41.1,323.16-64.79,246.75-124.89c-40.18-31.59-85-29.72-113.3-53.64" transform="translate(-35.5 653.5)"/><path class="cls-41" d="M2156.15,1258.28c-25.21-196.48-105.47-290.84-171.52-308.91-96.89-26.51-140,16-192.53,44.51-32.51,17.63-45.66,18.32-69.71,12-26.81-7.11-21.54-44.69-27.1-86.08-3.46-26.34-10.13-54.18-30.06-73.74-55.44-54.4-122.2-57.69-202.27-43.9-70,12.07-140.47,47.72-205.76,32.07-58.48-14-103.82-39.81-124.65-93.84-7.77-20.15-9.83-41.22-7-63.28,13.72-105.07-42.2-129.3-64.94-190.77-3.86-10.43-9.58-22.46-23.14-31.89-70.08-48.77-175,5-302-91.31-24.71-18.74-46.22-42.64-69.18-67.12C614.16,240.4,574.36,189.1,533.35,147.84c-48.41-48.4-85.59-51.75-129.26-109-48.64-63.77-90.15-89.55-165.18-150.37C198.82-144,154-141.66,126.49-165.71" transform="translate(-35.5 653.5)"/><path class="cls-42" d="M2151.76,1269.57c-23.94-197.16-112.24-288-176-306.13-96.61-27.42-140,13.79-191.9,42.81-32.25,18-46.8,20.55-71.66,15.42-28.13-5.8-22.76-43.64-28.41-85.08-3.5-26.29-10.27-54-30.56-73.14-56.46-53.37-123.91-54.07-203.56-39.15-69.89,13.09-140.06,47.84-205,30.84-58.35-15.27-103.21-42.06-123-95.76-7.41-20.07-9.19-41.11-6-63.22,15.14-105.09-44-128.81-64.09-190.47-3.49-10.69-9-22.81-22.35-32.5C961.87,424.3,856.14,470,728,374.83,703.1,356.34,681.09,333,657.67,309c-53.53-54.71-94.34-104.85-135.41-145.56C473.73,115.68,436.76,109.78,394,54c-48.11-62.79-89.31-90.67-163-152.21-40-33.4-84.86-30.52-111.54-54.69" transform="translate(-35.5 653.5)"/><path class="cls-43" d="M2147.36,1280.85C2124.7,1083,2028.36,995.59,1967,977.51c-96.33-28.35-139.9,11.57-191.27,41.11-32,18.39-47.89,22.8-73.61,18.9-29.42-4.46-24-42.6-29.72-84.1-3.54-26.22-10.42-53.75-31-72.53-57.5-52.34-125.63-50.44-204.87-34.4-69.71,14.11-139.65,48-204.25,29.61-58.21-16.53-102.6-44.3-121.44-97.69-7.06-20-8.56-41-5.07-63.14,16.56-105.11-45.69-128.3-63.23-190.18-3.1-10.94-8.43-23.15-21.56-33.11-64.61-49-171.09-11.37-300.38-105.42-25.06-18.23-47.57-41.06-71.44-64.45-54.95-53.85-96.75-102.82-137.89-143C462.52,131.92,425.76,123.47,384,69.2c-47.57-61.8-88.44-91.79-160.76-154-39.87-34.32-84.8-30.93-110.66-55.22" transform="translate(-35.5 653.5)"/><path class="cls-44" d="M2143,1292.14c-21.38-198.5-125.75-282.49-184.85-300.55-96-29.34-139.84,9.34-190.64,39.4-31.74,18.78-48.92,25.06-75.56,22.37-30.66-3.09-25.2-41.55-31-83.1-3.59-26.16-10.57-53.53-31.55-71.93C1570.8,847,1502,851.52,1423.17,868.68c-69.55,15.13-139.23,48.07-203.5,28.38-58.07-17.79-102-46.55-119.84-99.61-6.7-19.9-7.92-40.89-4.13-63.08,18-105.13-47.35-127.75-62.37-189.88-2.7-11.2-7.87-23.48-20.78-33.71C950.63,461.71,843.45,491.21,713,398.3c-25.23-18-48.25-40.27-72.57-63.12-56.36-53-99.16-100.8-140.37-140.41-48.76-46.62-85.32-57.61-126.13-110.38-47-60.81-87.56-92.93-158.55-155.88-39.74-35.24-84.73-31.33-109.78-55.75" transform="translate(-35.5 653.5)"/><path class="cls-45" d="M2138.57,1303.42c-20.11-199.17-132.49-279.74-189.3-297.76-95.71-30.36-139.78,7.13-190,37.7-31.49,19.16-49.9,27.33-77.5,25.85-31.87-1.72-26.43-40.51-32.34-82.12-3.63-26.1-10.71-53.31-32.05-71.31-59.57-50.28-129.06-43.19-207.47-24.92-69.37,16.17-138.81,48.2-202.74,27.16-57.92-19-101.37-48.8-118.24-101.54-6.34-19.82-7.28-40.77-3.18-63,19.4-105.16-49-127.17-61.52-189.58-2.3-11.46-7.31-23.82-20-34.33C945,480.45,837.11,501.81,705.53,410c-25.41-17.72-48.93-39.46-73.7-61.78C574.05,296.17,530.26,249.47,489,210.41c-48.89-46-85.23-59.56-125.09-110.83C317.37,39.75,277.24,5.51,207.55-58.14,168-94.31,122.88-89.87,98.65-114.41" transform="translate(-35.5 653.5)"/><path class="cls-46" d="M2134.17,1314.71c-18.83-199.85-139.22-277-193.73-295-95.38-31.44-139.73,4.9-189.39,36-31.23,19.55-50.83,29.61-79.45,29.32-33-.33-27.65-39.46-33.65-81.12-3.68-26-10.86-53.09-32.54-70.71-60.61-49.24-130.78-39.55-208.77-20.17-69.2,17.2-138.39,48.31-202,25.93-57.78-20.32-100.76-51.05-116.63-103.46-6-19.74-6.65-40.67-2.25-62.94,20.81-105.18-50.56-126.54-60.66-189.28-1.88-11.7-6.77-24.14-19.21-34.94-56.64-49.16-165.13-36-297.86-126.59-25.58-17.47-49.61-38.65-74.83-60.45-59.2-51.17-104-96.75-145.32-135.26-49-45.43-85.15-61.52-124-111.29-46-58.84-85.73-95.22-154.13-159.56-39.44-37.11-84.6-32.14-108-56.8" transform="translate(-35.5 653.5)"/><path class="cls-47" d="M2129.78,1326c-17.56-200.53-146-274.29-198.18-292.19-95-32.55-139.66,2.69-188.76,34.29-31,19.93-51.72,31.88-81.4,32.79-34.17,1-28.87-38.41-35-80.13-3.73-26-11-52.87-33-70.1-61.65-48.2-132.5-35.91-210.08-15.42-69,18.23-138,48.42-201.23,24.7-57.63-21.59-100.14-53.3-115-105.38-5.62-19.66-6-40.56-1.3-62.87,22.22-105.22-52.11-125.87-59.81-189a55.38,55.38,0,0,0-18.42-35.55C933.52,518,824.43,523,690.56,433.51c-25.76-17.22-50.3-37.84-76-59.11C554,324.14,508.21,279.66,466.8,241.7c-49.13-44.83-85.07-63.47-123-111.75C298.32,72.1,259,33.6,191.87-31.44,152.6-69.5,107.33-64,84.73-88.76" transform="translate(-35.5 653.5)"/><path class="cls-48" d="M2125.38,1337.28c-16.28-201.19-152.66-271.58-202.62-289.39-94.62-33.74-139.6.46-188.13,32.58-30.71,20.32-52.58,34.16-83.34,36.27-35.28,2.42-30.1-37.37-36.27-79.14-3.77-25.91-11.15-52.65-33.54-69.5-62.68-47.16-134.2-32.27-211.37-10.68-68.84,19.27-137.53,48.53-200.48,23.48-57.47-22.87-99.52-55.55-113.43-107.31-5.26-19.57-5.38-40.45-.36-62.79,23.64-105.25-53.63-125.15-58.94-188.7-1-12.17-5.72-24.77-17.64-36.15-51.52-49.21-161.16-52.36-296.19-140.71-25.93-17-51-37-77.09-57.77-62-49.33-108.8-92.72-150.28-130.12-49.24-44.25-85-65.43-122-112.21C288.79,88.28,249.91,47.64,184-18.09,144.94-57.1,99.56-51,77.76-75.94" transform="translate(-35.5 653.5)"/><path class="cls-49" d="M2121,1348.57c-15-201.87-159.36-268.9-207.06-286.61-94.2-35-139.53-1.75-187.51,30.88-30.44,20.71-53.39,36.42-85.28,39.74-36.35,3.79-31.33-36.32-37.57-78.15-3.82-25.85-11.34-52.38-34-68.88-63.8-46-135.91-28.64-212.67-5.94-68.67,20.31-137.1,48.64-199.73,22.25-57.32-24.14-98.9-57.8-111.82-109.23-4.9-19.49-4.75-40.34.58-62.73,25-105.28-55.12-124.36-58.09-188.4-.58-12.4-5.21-25.07-16.86-36.76-49-49.22-159.17-60.56-295.34-147.76-26.11-16.72-51.66-36.19-78.22-56.44C533.9,352.16,486.15,309.85,444.61,273c-49.36-43.65-84.9-67.37-120.92-112.66C279.26,104.46,240.84,61.68,176.2-4.74c-38.9-40-84.42-33.35-105.4-58.38" transform="translate(-35.5 653.5)"/><path class="cls-50" d="M2116.59,1359.86c-13.73-202.55-166.05-266.22-211.51-283.82-93.74-36.3-139.46-4-186.88,29.17-30.18,21.1-54.18,38.68-87.23,43.22-37.4,5.13-32.55-35.28-38.88-77.16-3.87-25.79-11.48-52.17-34.53-68.28-64.83-45-137.61-25-214-1.19-68.48,21.34-136.66,48.74-199,21-57.15-25.42-98.27-60-110.21-111.16-4.54-19.4-4.16-40.24,1.52-62.65,26.24-105.37-56.59-123.53-57.23-188.11-.13-12.61-4.72-25.36-16.07-37.37-46.56-49.23-157-69-294.51-154.82-26.25-16.51-52.33-35.36-79.35-55.1-64.89-47.43-113.62-88.67-155.23-125-49.48-43-84.82-69.31-119.88-113.11C269.73,120.65,231.79,75.73,168.36,8.6,129.68-32.32,84-25.14,63.84-50.29" transform="translate(-35.5 653.5)"/><path class="cls-51" d="M2112.19,1371.14c-12.45-203.22-172.71-263.55-216-281-93.23-37.69-139.39-6.18-186.25,27.47-29.91,21.49-55,40.93-89.17,46.69-38.45,6.48-33.78-34.23-40.2-76.16-3.91-25.73-11.61-52-35-67.68-65.84-44-139.31-21.34-215.27,3.56-68.3,22.38-136.22,48.84-198.23,19.79-57-26.7-97.55-62.31-108.61-113.08-4.14-19.33-3.51-40.13,2.47-62.59,27.69-105.38-58.06-122.63-56.38-187.81.33-12.82-4.23-25.65-15.28-38-44.16-49.25-155.1-77.16-293.67-161.88-26.44-16.25-53-34.53-80.48-53.77a1979.09,1979.09,0,0,1-157.71-122.4c-49.61-42.46-84.83-71.2-118.84-113.58C260.08,136.92,222.76,89.78,160.52,22,122.07-19.94,76.23-12.19,56.88-37.47" transform="translate(-35.5 653.5)"/><path class="cls-52" d="M2107.79,1382.43c-11.17-203.9-179.36-260.91-220.39-278.25-92.67-39.16-139.25-8.31-185.62,25.78-29.61,21.92-55.7,43.16-91.12,50.16-39.46,7.79-35-33.19-41.5-75.18-4-25.67-11.76-51.74-35.53-67.07-66.86-42.94-141-17.56-216.58,8.3-68.06,23.56-135.76,48.95-197.47,18.57-56.81-28-96.95-64.55-107-115-3.79-19.24-2.87-40,3.4-62.51,29.15-105.41-59.5-121.69-55.52-187.52.79-13-3.77-25.93-14.5-38.58-41.79-49.27-153.14-85.32-292.83-168.93-26.61-16-53.69-33.7-81.61-52.44-67.74-45.47-118.44-84.62-160.19-119.83-49.72-41.87-84.72-73.16-117.79-114-43-52.8-79.79-102.06-140.86-170.59C114.47-7.57,68.46.75,49.92-24.65" transform="translate(-35.5 653.5)"/><path class="cls-53" d="M2103.4,1393.71c-9.9-204.56-186-258.26-224.83-275.45-92-40.75-139.21-10.56-185,24.07-29.36,22.29-56.43,45.39-93.07,53.63-40.47,9.1-36.22-32.14-42.81-74.18-4-25.61-11.9-51.53-36-66.46-67.87-41.93-142.67-14-217.87,13-67.9,24.54-135.28,49-196.72,17.34-56.61-29.32-96.35-66.79-105.4-116.93-3.43-19.16-2.22-39.91,4.34-62.45,30.61-105.43-60.94-120.68-54.66-187.22,1.25-13.21-3.32-26.21-13.71-39.19-39.49-49.31-151.19-93.48-292-176-26.8-15.73-54.37-32.85-82.74-51.1-69.16-44.48-120.86-82.6-162.67-117.25-49.84-41.28-84.63-75.13-116.75-114.49-42.42-51.83-78.73-103.19-138.65-172.43C106.89,4.8,60.68,13.7,43-11.82" transform="translate(-35.5 653.5)"/><path class="cls-54" d="M2099,1405c-8.62-205.24-192.6-255.63-229.27-272.67-150.18-69.77-182.7,55.24-279.39,79.47-66.63,16.7-15.81-100.55-80.64-139-131.29-78-286.58,103.43-415.14,33.9-78.08-42.23-123.31-99.66-98.51-181.23C1028.11,820,933.66,805.8,942.24,738.5c9.26-72.55-166.57-136.22-388-272.6C286.39,300.85,276.21,227.66,137,62,99.33,17.17,52.91,26.65,36,1" transform="translate(-35.5 653.5)"/></g></g></g></svg>