<?xml version="1.0" encoding="UTF-8"?>
<svg width="56px" height="57px" viewBox="0 0 56 57" version="1.1" xmlns="http://www.w3.org/2000/svg" xmlns:xlink="http://www.w3.org/1999/xlink">
    <title>meeting</title>
    <g id="Page-1" stroke="none" stroke-width="1" fill="none" fill-rule="evenodd">
        <g id="meeting">
            <circle id="Oval" fill="#E6F1FF" fill-rule="nonzero" cx="28" cy="28" r="28"></circle>
            <path d="M55,46.7 L55,34.6 C55,32.6 53.4,31 51.4,31 L49,31 C48.5,31 47.9,31.2 47.6,31.6 L43.8,35.6 L40,30 L16,30 L12.3,35.6 L8.5,31.6 C8.1,31.2 7.6,31 7,31 L4.6,31 C2.6,31 1,32.6 1,34.6 L1,46.8 C1,48.2 1.7,49.5 2.7,50.4 L1,53 L1,56 L55,56 L55,53 L53.3,50.3 C54.3,49.4 55,48.1 55,46.7 Z" id="Path" fill="#FFFFFF" fill-rule="nonzero"></path>
            <path d="M36,30 L36,25.8 C36,22.6 30.4,21 27.5,21 C24.6,21 19,22.7 19,25.8 L19,30" id="Path" stroke="#2B5183" fill="#188FFF" fill-rule="nonzero"></path>
            <path d="M52.6,50.9 C54,50 55,48.5 55,46.7 L55,34.6 C55,32.6 53.4,31 51.4,31 L49,31 C48.5,31 47.9,31.2 47.6,31.6 L42.3,37 L36.5,37 C36.5,37 36,41 39.8,41 C42,41 45.6,41 45.6,41 L50.5,36" id="Path" stroke="#2B5183"></path>
            <path d="M49,28 C51.2,28 53,26.1 53,23.7 L53,22.3 C53,19.9 51.2,18 49,18 C46.8,18 45,19.9 45,22.3 L45,23.7 C45,26.1 46.8,28 49,28 Z" id="Path" stroke="#2B5183" fill="#FFFFFF" fill-rule="nonzero"></path>
            <path d="M3.4,50.9 C2,50 1,48.5 1,46.7 L1,34.6 C1,32.6 2.6,31 4.6,31 L7,31 C7.5,31 8.1,31.2 8.4,31.6 L13.6,37 L19.4,37 C19.4,37 19.9,41 16.1,41 C13.9,41 10.3,41 10.3,41 L5.4,36" id="Path" stroke="#2A5082"></path>
            <polyline id="Path" stroke="#2B5183" points="7.9 42 1 53 1 56 55 56 55 53 48.1 42"></polyline>
            <polyline id="Path" stroke="#2B5183" points="12 36 16 30 40 30 44 36"></polyline>
            <path d="M7,28 C4.8,28 3,26.1 3,23.7 L3,22.3 C3,19.9 4.8,18 7,18 C9.2,18 11,19.9 11,22.3 L11,23.7 C11,26.1 9.2,28 7,28 Z" id="Path" stroke="#2B5183" fill="#FFFFFF" fill-rule="nonzero"></path>
            <path d="M28,18 C30.2,18 32,16.1 32,13.7 L32,12.3 C32,9.9 30.2,8 28,8 C25.8,8 24,9.9 24,12.3 L24,13.7 C24,16.1 25.8,18 28,18 Z" id="Path" stroke="#2B5183" fill="#FFFFFF" fill-rule="nonzero"></path>
        </g>
    </g>
</svg>