<?xml version="1.0" encoding="UTF-8"?>
<svg width="131px" height="123px" viewBox="0 0 131 123" version="1.1" xmlns="http://www.w3.org/2000/svg" xmlns:xlink="http://www.w3.org/1999/xlink">
    <title>Rush</title>
    <defs>
        <filter x="-11.8%" y="-11.5%" width="123.6%" height="124.0%" filterUnits="objectBoundingBox" id="filter-1">
            <feOffset dx="0" dy="2" in="SourceAlpha" result="shadowOffsetOuter1"></feOffset>
            <feGaussianBlur stdDeviation="2" in="shadowOffsetOuter1" result="shadowBlurOuter1"></feGaussianBlur>
            <feColorMatrix values="0 0 0 0 0.0941176471   0 0 0 0 0.560784314   0 0 0 0 1  0 0 0 0.5 0" type="matrix" in="shadowBlurOuter1" result="shadowMatrixOuter1"></feColorMatrix>
            <feMerge>
                <feMergeNode in="shadowMatrixOuter1"></feMergeNode>
                <feMergeNode in="SourceGraphic"></feMergeNode>
            </feMerge>
        </filter>
    </defs>
    <g id="Page-1" stroke="none" stroke-width="1" fill="none" fill-rule="evenodd">
        <g id="Home" transform="translate(-538.000000, -863.000000)">
            <g id="Rush" filter="url(#filter-1)" transform="translate(548.206989, 872.000000)">
                <path d="M90.0521605,12.7408503 C107.039961,29.7286506 107.039961,57.2713701 90.0521605,74.2591497 C73.0643601,91.2469501 45.5216407,91.2469501 28.533861,74.2591497 C11.5460607,57.2713494 11.5460607,29.7286299 28.533861,12.7408503 C45.5216614,-4.24695009 73.0643808,-4.24695009 90.0521605,12.7408503" id="Path" fill="#FFFFFF" fill-rule="nonzero"></path>
                <g id="Group" transform="translate(85.937951, 20.241805)" fill="#FFFFFF" fill-rule="nonzero" stroke="#2A5082" stroke-width="1.99994085">
                    <path d="M20.200585,4.10215643 C24.6457384,8.49922199 24.6514785,15.6225358 20.2134059,20.0125206 C15.7753334,24.4025053 8.57405373,24.3967652 4.12890035,19.9996996 C-0.316253028,15.6026341 -0.32199316,8.47932024 4.11607941,4.08933549 C8.55415198,-0.300649252 15.7554316,-0.29490912 20.200585,4.10215643" id="Path" transform="translate(12.164743, 12.050928) rotate(-4.188232) translate(-12.164743, -12.050928) "></path>
                </g>
                <path d="M89.0614318,57.6556962 L77.9772213,34.0734177 C77.9772213,34.0734177 67.3035371,23 62.5824844,23 L31.7930108,23 C33.0245897,27.1012658 36.9245897,30.3822785 42.466695,31.2025316 L57.4509055,32.843038 L63.8140634,41.4556962 L50.4719581,55.1949367 L49.6509055,56.0151899 C42.8772213,64.4227848 47.1877476,71.6 53.9614318,78.9822785 L61.5561686,86.7746835 L41.0298529,98.6683544 L44.1088002,104 L74.6930108,94.156962 C78.1824844,92.9265823 79.4140634,88.8253165 77.3614318,85.7493671 L65.6614318,68.3189873 L75.1035371,59.2962025 C75.1035371,59.2962025 80.4403792,67.9088608 83.1088002,69.9594937 L97.8877476,69.9594937 C105.893011,69.9594937 109.793011,61.3468354 109.793011,61.3468354 L89.0614318,57.6556962 Z" id="Path" fill="#188FFF" fill-rule="nonzero"></path>
                <g id="Group" transform="translate(0.000000, 22.094759)" stroke="#2A5082" stroke-width="2">
                    <path d="M43.4677419,81.8715101 L74.3091398,71.9476907 C77.827957,70.7072133 79.0698925,66.5722885 77,63.471095 L65.2016129,45.8976648 L74.7231183,36.8008303 C74.7231183,36.8008303 80.1048387,45.4841723 82.7956989,47.5516347 L97.6989247,47.5516347 C105.771505,47.5516347 109.704301,38.8682927 109.704301,38.8682927 L88.7983871,35.3536066 L77.6209677,11.3710431 C77.6209677,11.3710431 66.8575269,0 62.0967742,0 L30.8413978,0 C32.0833333,4.13492475 36.016129,7.44286456 41.6048387,8.26984951 L56.7150538,9.92381941 L63.1317204,18.6071614 L49.6774194,32.4591593 L48.8494624,33.2861443 C42.0188172,41.76274 46.3655914,48.9988583 53.1962366,56.4417229 L60.8548387,64.2980799 L40.155914,76.2893617" id="Path"></path>
                    <line x1="41.1908602" y1="22.9488324" x2="22.561828" y2="22.9488324" id="Path"></line>
                    <line x1="18.422043" y1="22.9488324" x2="10.1424731" y2="22.9488324" id="Path"></line>
                    <line x1="6.00268817" y1="22.9488324" x2="1.86290323" y2="22.9488324" id="Path"></line>
                    <line x1="3.31182796" y1="78.9770628" x2="43.4677419" y2="59.7496627" id="Path"></line>
                    <line x1="39.7419355" y1="46.3111572" x2="0" y2="74.4286456" id="Path"></line>
                </g>
            </g>
        </g>
    </g>
</svg>