<svg xmlns="http://www.w3.org/2000/svg" viewBox="0 0 1035.54 910.84"><defs><style>.cls-1,.cls-10,.cls-11,.cls-12,.cls-2,.cls-3,.cls-4,.cls-5,.cls-6,.cls-7,.cls-8,.cls-9{fill:none;stroke:#678ea4;stroke-miterlimit:10;}.cls-2{stroke-width:1.09px;opacity:0.95;}.cls-3{stroke-width:1.18px;opacity:0.9;}.cls-4{stroke-width:1.27px;opacity:0.85;}.cls-5{stroke-width:1.36px;opacity:0.8;}.cls-6{stroke-width:1.45px;opacity:0.75;}.cls-7{stroke-width:1.55px;opacity:0.69;}.cls-8{stroke-width:1.64px;opacity:0.64;}.cls-9{stroke-width:1.73px;opacity:0.59;}.cls-10{stroke-width:1.82px;opacity:0.54;}.cls-11{stroke-width:1.91px;opacity:0.49;}.cls-12{stroke-width:2px;opacity:0.44;}</style></defs><g id="Layer_2" data-name="Layer 2"><g id="Layer_1-2" data-name="Layer 1"><path class="cls-1" d="M258.71,87.33c-76.82,5.83-130.41,77.25-173,134-48.09,64.1-96.19,128.21-83,199,18.17,97.43,134.83,113,131,187-3.39,65.63-97,88.91-92,155,2.86,38.14,36.55,64.25,53,77,122.73,95.14,465.32,118.86,693-83,47.7-42.28,186.08-165,164-294C931,340.94,783.94,306,775.71,167.33c-5.28-89.16,51.3-145.08,30-163-40.28-33.89-218.67,233-388,195C338.49,181.55,333,81.7,258.71,87.33Z"/><path class="cls-2" d="M98.81,211.88C50.45,272.48,4.54,336.74,16.08,407.7c11.23,69,69.91,97.09,101.42,135.77,14,17.21,22.77,34.87,19.92,57.72-8.18,64.58-102.79,88.49-98.07,154,2.7,37.34,35.78,63.68,54.21,77.49,33.69,25.23,82.65,45.69,139.92,56.89,88.17,17.25,183.91,9.85,292.16-14.43,99.66-22.13,189.23-53.11,271.62-121.31,50.76-42,183.18-162.13,161.82-286.45-17-98.82-123.58-131.37-167.33-224.64-9-19.07-14.18-40.24-15.64-64.87-5-84.62,46-140.11,23-163.86-21.51-22.19-68.69,25.6-132.35,74.46C596.83,142.18,511,205.28,421.17,189.15,344.71,175.43,337,83.52,266.85,88.51,193.45,93.62,141.9,158.08,98.81,211.88Z"/><path class="cls-3" d="M111.9,202.43C63.27,259.52,19.5,324,29.44,395.06c10,71.32,68.68,98.91,97.18,141.39,12.25,18.27,19,36.17,14.52,58.59C128.16,658.57,32.5,683.12,37,748.15c2.54,36.54,35,63.14,55.42,78,34.82,25.3,84.84,45.91,142.2,56.06,92.81,16.43,181.07.55,294.14-23.38,106.41-22.15,192.53-41.13,278.06-107.38,53.85-41.72,180.28-159.3,159.63-278.91C949.54,375,839.36,351.14,792,253.74c-9.3-19.16-14.07-40.33-15.54-65.23-4.74-80.09,40.7-135.2,15.94-164.72C768.86-4.32,725.73,37.87,665.53,80.1,597.75,127.64,516.62,191.37,424.62,179,351.07,169.05,341,85.34,275,89.69,205,94.09,155.5,151.59,111.9,202.43Z"/><path class="cls-4" d="M125,193C76,246.45,34.42,311.19,42.81,382.43c8.66,73.6,67.51,100.56,92.93,147,10.53,19.24,15.3,37.48,9.11,59.46C127.24,651.42,30.38,676.56,34.62,741.06c2.4,35.74,34.2,62.6,56.64,78.47,35.92,25.4,87,46.07,144.47,55.23,97.48,15.56,178.19-9,296.12-32.34C645,820,727.74,813.33,816.35,749c57-41.39,177.4-156.45,157.46-271.36C957,381.32,843.27,366.21,792.34,264.7c-9.66-19.26-14-40.43-15.44-65.6-4.47-75.55,35.45-130.31,8.91-165.58C760.17-.55,720.93,36,664.33,71.68c-65.81,41.45-142,105.61-236.25,97.11C357.52,162.43,345,87.3,283.14,90.86,216.59,94.7,169,145,125,193Z"/><path class="cls-5" d="M138.08,183.52C88.77,233.47,49.29,298.43,56.17,369.79c7.32,75.9,66.47,102.1,88.69,152.64,8.87,20.16,11.54,38.77,3.7,60.32C126.17,644.25,28.25,670,32.26,734c2.24,34.94,33.39,62.08,57.85,79,37,25.52,89.25,46.19,146.74,54.41C339,881.94,412.21,849,535,826c119.87-22.44,199.3-17,290.94-79.52,60.13-41,174.5-153.62,155.27-263.82-16.68-95-133.94-101.45-188.53-207-10-19.35-13.85-40.52-15.35-66-4.2-71,30.22-125.44,1.88-166.45-27.67-40-63.22-9.14-116,20-64,35.37-134.9,99.73-231.6,95.35C364,155.55,348.92,89.16,291.28,92,228.16,95.2,182.56,138.46,138.08,183.52Z"/><path class="cls-6" d="M151.17,174.06c-49.59,46.43-87.06,111.62-81.64,183.09,5.93,78.2,65.58,103.55,84.45,158.26,7.26,21.05,7.78,40.08-1.71,61.2C125.1,637.07,26.13,663.44,29.9,726.88,32,761,62.47,788.46,89,806.33,127,832,180.43,852.59,238,859.91c106.86,13.58,172.52-27.64,300.09-50.26,126.62-22.46,202.74-4.86,297.37-65.59,63.32-40.63,171.62-150.78,153.09-256.27C972,394,851.22,396.28,792.93,286.6,782.6,267.16,779.2,246,777.68,220.27c-3.92-66.46,25-120.57-5.15-167.3C742.85,7,710.75,32,661.93,54.85,599.41,84.07,534.15,148.42,435,148.43c-64.38,0-82.09-57.43-135.57-55.21C239.73,95.69,196.15,131.94,151.17,174.06Z"/><path class="cls-7" d="M164.26,164.61C114.41,207.53,78.9,272.93,82.9,344.52c4.49,80.5,64.84,105,80.21,163.88,5.71,21.92,4,41.38-7.13,62.06C124,629.89,24,656.88,27.53,719.79c1.93,33.35,31.75,61.09,60.28,79.94,39.12,25.84,93.69,46.3,151.29,52.75C350.67,865,408.84,815.82,541.18,793.26,674.6,771.07,747.4,800.59,845,741.61c66.52-40.21,168.72-148,150.91-248.73-16.47-92.5-140.64-81.6-202.67-195.32-10.67-19.55-13.63-40.71-15.15-66.7-3.65-61.92,19.8-115.71-12.18-168.16-31.69-52-60.58-33-105.18-16.27-61.26,22.95-120.62,87.11-222.28,91.81-61.24,2.83-81.58-45.4-130.88-43.84C251.29,96.17,209.75,125.44,164.26,164.61Z"/><path class="cls-8" d="M177.35,155.15c-50.1,39.43-83.71,105-81.09,176.73,3,82.81,64.26,106.34,76,169.51,4.22,22.78.23,42.67-12.54,62.93C122.9,622.7,21.87,650.32,25.17,712.7c1.77,32.55,30.91,60.61,61.49,80.43,40.17,26,95.92,46.3,153.56,51.92,116.28,11.34,166.91-46,304.06-68.17C684.46,754.67,754,796.45,854.53,739.15c69.75-39.75,165.83-145.1,148.73-241.18-16.35-91.23-143.93-71.71-209.73-189.46-11-19.66-13.52-40.79-15.06-67.06-3.38-57.39,14.61-110.85-19.21-169C725.57,14.48,699.66,27.1,659.52,38,599.22,54.4,546,118.3,441.9,128.06c-58.12,5.45-81.07-33.4-126.2-32.49C262.85,96.64,223.36,118.94,177.35,155.15Z"/><path class="cls-9" d="M190.44,145.7c-50.34,36-82.08,101.73-80.82,173.54,1.5,85.12,63.83,107.76,71.73,175.13,2.77,23.66-3.55,44-17.95,63.8C121.79,615.5,19.75,643.76,22.81,705.61c1.61,31.75,30.06,60.15,62.7,80.92,41.21,26.22,98.14,46.27,155.84,51.09,121,10.11,164.07-55.27,306-77.13,146.93-22.22,213.24,31.85,316.69-23.79,73-39.26,162.94-142.27,146.54-233.64-16.24-90-147.18-61.84-216.8-183.59-11.3-19.77-13.4-40.89-15-67.43C775.76,199.19,788.4,146,752.62,82.15c-35.56-64-58.8-58.1-94.3-52.56-59.58,9.29-106.45,73.06-213,88.29-55,7.87-80.55-21.41-121.51-21.13C274.42,97.09,237,112.46,190.44,145.7Z"/><path class="cls-10" d="M203.53,136.24C153,168.73,123,234.67,123,306.61c-.07,87.42,63.51,109.21,67.48,180.75,1.37,24.56-7.36,45.23-23.36,64.67C120.58,608.21,17.62,637.2,20.44,698.52c1.46,31,29.22,59.69,63.92,81.4,42.24,26.43,100.37,46.23,158.11,50.27,125.71,8.81,161.24-64.57,308-86.08,153.68-22.24,216.77,44.17,323.12-9.87,76.23-38.73,160.05-139.43,144.37-226.09-16.14-88.7-150.41-52-223.87-177.73-11.62-19.88-13.29-41-14.86-67.8-2.83-48.3,4.31-101.18-33.27-170.74-37.59-69.95-58-71.37-88.87-70.71-59,1.27-99.55,65.36-208.31,86.53-52.05,10.13-80-9.45-116.83-9.77C286,97.52,250.61,106,203.53,136.24Z"/><path class="cls-11" d="M216.62,126.79c-50.75,29.12-78.93,95.12-80.27,167.18-1.67,89.72,63.3,110.72,63.24,186.38,0,25.47-11.12,46.52-28.77,65.53C119.5,601,15.49,630.64,18.08,691.43c1.3,30.15,28.33,59.32,65.13,81.89C126.43,800,185.8,819.47,243.59,822.76c130.43,7.43,158.41-73.87,310-95,160.43-22.25,220.32,56.54,329.56,4.07,79.48-38.18,157.16-136.6,142.18-218.55-16-87.44-153.42-42.27-230.93-171.86-11.9-20-13.19-41.08-14.77-68.17-2.56-43.76-.9-96.3-40.3-171.6-39.61-75.91-57.07-85.16-83.43-88.86C598,4.64,563.05,69.91,452.26,97.52c-49.14,12.24-79.52,2.5-112.14,1.58C297.55,97.91,264.29,99.63,216.62,126.79Z"/><path class="cls-12" d="M455.71,87.33c-110.16,33.86-142.8-11.78-226,30-51,25.63-77.39,91.81-80,164-3.32,92,63.17,112.28,59,192-5.39,103.24-196.15,130-193,211,2.45,62.84,120.44,126.2,229,131,135.14,6,155.58-83.17,312-104,167.2-22.26,223.87,68.94,336,18,82.75-37.58,154.27-133.75,140-211-15.91-86.18-156.76-32.36-238-166-29.77-49,7.95-103.43-62-241-41.62-81.86-55.49-99.3-78-107C598.92-14.74,568.22,52.76,455.71,87.33Z"/></g></g></svg>