<svg xmlns="http://www.w3.org/2000/svg" viewBox="0 0 1599.79 1409.31"><defs><style>.cls-1{opacity:0.66;}.cls-10,.cls-11,.cls-12,.cls-13,.cls-14,.cls-15,.cls-16,.cls-17,.cls-18,.cls-2,.cls-3,.cls-4,.cls-5,.cls-6,.cls-7,.cls-8,.cls-9{fill:none;stroke:#6b92a6;stroke-miterlimit:10;stroke-width:5px;}.cls-3{opacity:0.96;}.cls-4{opacity:0.92;}.cls-5{opacity:0.88;}.cls-6{opacity:0.84;}.cls-7{opacity:0.8;}.cls-8{opacity:0.76;}.cls-9{opacity:0.72;}.cls-10{opacity:0.68;}.cls-11{opacity:0.64;}.cls-12{opacity:0.6;}.cls-13{opacity:0.56;}.cls-14{opacity:0.52;}.cls-15{opacity:0.48;}.cls-16{opacity:0.44;}.cls-17{opacity:0.4;}.cls-18{opacity:0.36;}</style></defs><g id="Layer_2" data-name="Layer 2"><g id="Layer_1-2" data-name="Layer 1"><g class="cls-1"><path class="cls-2" d="M719.75,41.64c-299-9.5-564.51,97.49-663,295C0,450.41,1.92,587.72,2.75,646.64c.32,23.33,5,237.25,89,373,203.61,329,973,359.8,1319-4,122.79-129.12,237.29-355.31,163-478-84-138.71-349.61-46.56-469-225-73.29-109.53-21.73-216.77-105-279C925.18-22.08,808.14,7.33,719.75,41.64Z"/><path class="cls-3" d="M64.5,341.89C8.09,453.62,8.47,588.2,7.32,649.17c-.58,30.68,4.21,240,88.3,370.16,43.89,67.95,111.19,116.82,195.51,159.66a950,950,0,0,0,306.92,95.25c278.84,37.28,615.87-40.31,804-245.35,69.41-75.68,123.08-179.64,158.81-282.44,27.32-79.33,37.18-148.87,7.62-205.69-72.53-139.43-327-62-445.31-234-72.76-105.69-28.6-204.23-113.32-262.38C935.63-6.53,821.74,20.82,732.62,53c-159.37-4.64-297,15.43-416.56,67.54C199.51,171.05,111,249.75,64.5,341.89Z"/><path class="cls-4" d="M72.25,347.14C16.15,456.82,14.51,588.7,11.9,651.69,10.31,689.76,15.44,894.33,99.5,1019,144.62,1086,211.63,1127.83,297,1171.63c92.85,47.67,187,85.61,298.13,104.7,271.12,46.57,616.45-29,798.15-234.19,70-79.09,111.5-184.1,150.83-291.81,29.8-81.64,45.46-146.52,19-206.44-61.5-139.49-304.39-77.38-421.62-243-72.24-101.87-35.36-191.7-121.64-245.76C946.2,9,835.34,34.31,745.5,64.26c-166.06-4.42-297.42,10.19-419.06,62C205.88,177.1,117.06,259.51,72.25,347.14Z"/><path class="cls-5" d="M80,352.39C24.21,460,20.3,589.19,16.47,654.22c-2.67,45.46,3,245.28,86.9,364.48,46.41,65.91,113.09,100.81,199.44,145.58,94,48.74,180.61,91.12,289.33,114.14,263.38,55.78,616.87-17.83,792.36-223,70.6-82.56,99.73-188.61,142.84-301.18,32.16-84,53.69-143.92,30.47-207.2-51-138.94-281.78-92.79-397.94-252-71.71-98-42-179.18-129.95-229.13-73-41.47-181-18.07-271.55,9.7-172.74-4.21-297.69,5.2-421.55,56.4C212.37,183.42,123.09,269.25,80,352.39Z"/><path class="cls-6" d="M87.75,357.64c-55.5,105.58-61.82,232.05-66.7,299.11-3.86,52.84,2.5,247.87,86.2,361.64,47.72,64.87,114,92.8,201.4,138.53,95.16,49.82,174.23,96.61,280.54,123.6,255.62,64.89,617.12-6.87,786.56-211.88,71.14-86.08,87.94-193.13,134.85-310.55,34.5-86.35,61.79-141.11,41.9-208-41-137.9-259.17-108.21-374.25-261-71.19-94.2-48.49-166.73-138.27-212.51C967.68,39.76,862.53,61.3,771.25,86.89c-179.43-4-298.07,0-424,50.83C218.76,189.52,129.09,279,87.75,357.64Z"/><path class="cls-7" d="M95.5,362.89c-55.23,103.52-64,227.28-69.88,296.39-5.1,60.21,2.13,250.41,85.5,358.8,49.09,63.82,115,84.79,203.37,131.48,96.32,50.9,167.85,102.06,271.75,133,247.84,73.92,617.21,3.94,780.76-200.72,71.63-89.65,76.13-197.66,126.86-319.92,36.82-88.71,69.73-138.11,53.32-208.71-31.7-136.45-236.56-123.62-350.56-270C1126,192.9,1141.76,128.92,1050,87.37,978.59,55,876.12,74.79,784.12,98.2,598,94.42,485.68,93,357.58,143.46,225.15,195.61,135.07,288.72,95.5,362.89Z"/><path class="cls-8" d="M103.25,368.14C48.27,469.59,37,590.65,30.2,661.8c-6.42,67.59,1.86,252.9,84.8,356,50.49,62.75,115.94,76.79,205.33,124.45,97.48,52,161.47,107.47,263,142.49,240.08,82.86,617.17,14.62,775-189.56,72.07-93.27,64.29-202.2,118.87-329.29,39.12-91.08,77.44-135,64.75-209.46-22.95-134.74-213.95-139-326.87-279-70.15-86.53-61.12-142.06-154.91-179.27-70.49-28-170.37-9.84-263.09,11.39-192.79-3.56-298.83-10.4-429,39.7C231.53,201.69,141,298.43,103.25,368.14Z"/><path class="cls-9" d="M111,373.39C56.25,472.76,42.39,591.13,34.77,664.33c-7.8,74.95,1.69,255.33,84.1,353.12,51.95,61.65,116.89,68.78,207.3,117.4,98.64,53.05,155.09,112.84,254.16,152,232.31,91.69,617,25.17,769.17-178.41,72.46-96.94,52.44-206.74,110.89-338.66,41.4-93.46,84.88-131.77,76.17-210.22-14.75-132.85-191.34-154.45-303.19-288-69.62-82.69-67.27-129.9-163.22-162.64-69.46-23.71-166.83-7.1-260.28,12C610.4,117.48,510.66,105.19,378.33,155,237.91,207.76,146.94,308.14,111,373.39Z"/><path class="cls-10" d="M118.75,378.64c-54.55,97.28-71,213-79.4,288.22-9.24,82.3,1.6,257.69,83.4,350.28,53.46,60.51,117.84,60.77,209.27,110.35,99.79,54.13,148.71,118.18,245.36,161.4C802,1389.32,1194,1324.51,1340.75,1121.64c72.79-100.65,40.57-211.3,102.9-348,43.68-95.84,92-128.51,87.6-211-7.06-130.9-168.73-169.87-279.5-297-69.1-78.86-73.35-117.91-171.55-146-68.35-19.57-163.29-4.35-257.45,12.53-206.15-3.13-299.61-20.88-434,28.55C244.28,213.81,152.84,317.82,118.75,378.64Z"/><path class="cls-11" d="M126.5,383.89c-54.38,95.18-73.33,208.16-82.58,285.5-10.72,89.64,1.61,260,82.7,347.44,55,59.33,118.8,52.76,211.24,103.31C438.8,1175.34,480.21,1243.6,574.42,1291c216.87,109.08,616.2,46,757.58-156.09,73-104.42,28.69-215.86,94.91-357.4,45.95-98.23,98.9-125.26,99-211.73.19-129-146.12-185.27-255.81-306-68.57-75-79.34-106.11-179.86-129.4-67.2-15.57-159.75-1.61-254.64,13.09-212.83-2.91-300-26.13-436.53,23C250.65,219.85,158.71,327.5,126.5,383.89Z"/><path class="cls-12" d="M134.25,389.14C80,482.19,58.53,592.51,48.5,671.91c-12.26,97,1.69,262.21,82,344.6,56.63,58.12,119.74,44.76,213.2,96.27,102.1,56.28,136,128.72,227.77,180.3,209.22,117.62,615.62,56.25,751.78-144.94,73.24-108.22,16.79-220.42,86.92-366.78,48.22-100.61,105.43-122.05,110.45-212.47,7.06-127.12-123.51-200.69-232.12-315-68-71.19-85.3-94.52-188.18-112.78-66-11.72-156.21,1.13-251.82,13.65-219.52-2.7-300.41-31.4-439,17.42C257,225.87,164.55,337.16,134.25,389.14Z"/><path class="cls-13" d="M142,394.39C87.82,485.29,63.88,593,53.07,674.44c-13.84,104.32,1.86,264.34,81.3,341.76,58.31,56.82,120.7,36.75,215.17,89.22,103.26,57.36,129.71,133.93,219,189.75,201.64,126.1,614.93,66.47,746-133.78,73.35-112.08,4.88-225,78.93-376.15,50.47-103,111.65-119,121.88-213.23,13.61-125.41-100.9-216.1-208.44-324-67.53-67.35-91.25-83.17-196.49-96.16-64.84-8-152.68,3.88-249,14.23-226.19-2.49-300.81-36.68-441.52,11.84C263.37,231.89,170.36,346.8,142,394.39Z"/><path class="cls-14" d="M149.75,399.64C95.58,488.35,69.22,593.4,57.65,677c-15.46,111.64,2.08,266.39,80.6,338.92,60,55.46,121.64,28.74,217.13,82.18,104.42,58.44,123.44,139.1,210.18,199.19,194.13,134.49,614.11,76.63,740.19-122.62,73.38-116-7-229.58,71-385.52,52.71-105.4,117.55-116,133.3-214,19.91-123.92-78.29-231.52-184.75-333-67-63.52-97.22-72.08-204.82-79.54-63.67-4.41-149.13,6.62-246.18,14.79-232.88-2.27-301.31-42.23-444,6.28C269.63,237.59,176.14,356.42,149.75,399.64Z"/><path class="cls-15" d="M157.5,404.89c-54.24,86.46-83,189-95.28,274.6-17.11,119,2.38,268.36,79.9,336.09,61.84,54,122.6,20.73,219.1,75.13C466.8,1150.23,478.43,1235,562.61,1299.36c186.69,142.82,613.18,86.73,734.39-111.47,73.32-119.91-19.22-234.3,63-394.89,54.78-107.89,123.18-113.2,144.72-214.74,26-122.64-55.68-246.93-161.06-342-66.48-59.68-103.25-61.25-213.13-62.91-62.56-.95-145.6,9.36-243.37,15.35-239.56-2-301.69-47.47-446.51.71C276,243.64,181.88,366,157.5,404.89Z"/><path class="cls-16" d="M165.25,410.14C110.83,494.28,79.86,594.28,66.8,682,48,808.28,69.5,952.24,146,1015.26c63.68,52.48,123.54,12.73,221.06,68.09,106.73,60.6,111,149.38,192.59,218.1,179.37,151.11,612.16,96.81,728.6-100.31,73.17-123.9-31.08-238.86,55-404.26,57.07-110.28,128.55-110.59,156.15-215.49,32-121.62-33.07-262.35-137.37-351-66-55.85-109.39-50.69-221.45-46.3C1079,186.51,998.49,196.2,900,200c-246.25-1.84-302.08-52.71-449-4.86C282.37,249.69,187.59,375.59,165.25,410.14Z"/><path class="cls-17" d="M173,415.39C118.25,497.1,85.17,594.71,71.37,684.55c-20.52,133.56,3.08,272,78.5,330.4,65.6,50.81,124.5,4.72,223,61,107.89,61.68,104.88,154.49,183.8,227.55,172.12,159.37,611,106.87,722.8-89.15,72.93-127.92-42.94-243.41,47-413.63,59.36-112.66,133.7-108.18,167.58-216.25,37.89-120.85-10.46-277.76-113.69-360-65.43-52-115.65-40.38-229.76-29.67-60.56,5.68-138.52,14.85-237.74,16.49-252.92-1.63-302.47-58-451.5-10.43C288.75,255.74,193.26,385.14,173,415.39Z"/><path class="cls-18" d="M471.75,206.64c-176.63,55.15-272.85,188-291,214-140,200.35-149.86,504.87-27,594,67.57,49,125.45-3.29,225,54,109,62.75,98.78,159.58,175,237,165,167.6,609.8,116.9,717-78,72.58-132-54.8-248,39-423,61.64-115,138.65-106,179-217,43.73-120.36,12.15-293.18-90-369-98.32-73-178.87,5.59-473,4C666.14,221.23,622.89,159.44,471.75,206.64Z"/></g></g></g></svg>