<svg xmlns="http://www.w3.org/2000/svg" viewBox="0 0 1596.79 1406.31"><defs><style>.cls-1{opacity:0.66;}.cls-2{fill:none;stroke:#678ea4;stroke-miterlimit:10;stroke-width:2px;}</style></defs><g id="Layer_2" data-name="Layer 2"><g id="Layer_1-2" data-name="Layer 1"><g class="cls-1"><path class="cls-2" d="M718.25,40.14c-299-9.5-564.51,97.49-663,295-56.74,113.77-54.83,251.08-54,310,.32,23.33,5,237.25,89,373,203.61,329,973,359.8,1319-4,122.79-129.12,237.29-355.31,163-478-84-138.71-349.61-46.56-469-225-73.29-109.53-21.73-216.77-105-279C923.68-23.58,806.64,5.83,718.25,40.14Z"/><path class="cls-2" d="M69,344.47C12.86,454.61,11.7,587.08,9.38,649.63c-1.35,36.43,3.68,242,87.75,368,44.85,67.16,111.93,110.6,197,154.19,92.59,47.42,188.39,84.37,300.08,102.59,272.84,44.51,616.34-31.47,799.44-236.67,69.89-78.33,114.11-183.09,152.6-289.72,29.29-81.12,43.63-147.07,16.51-206.28-63.91-139.52-309.41-74-426.89-241C1063.56,198,1102.05,106.22,1016.13,51.24c-73.79-47.2-185.32-21.42-275,9-164.57-4.47-297.32,11.35-418.5,63.21C203,174.26,114.22,255.84,69,344.47Z"/><path class="cls-2" d="M82.8,353.8C27.18,460.3,21.94,588,17.51,654.12,14.19,703.68,20.21,900.85,104,1017c47.14,65.33,113.62,96.36,200.53,141.66C399.2,1208,481.62,1252.87,589,1278.09c259.07,60.85,617-11.73,789.13-216.84,70.91-84.51,93.19-191.12,138.41-306.38,33.46-85.31,58.21-142.39,36.82-207.62-45.39-138.41-269.22-101.36-384.78-257C1097.16,194.35,1123,118,1034,70.35c-72.64-38.9-179-16.55-270,10-176.45-4.09-297.9,2.33-422.94,53.31C214.42,185.31,124.92,273.16,82.8,353.8Z"/><path class="cls-2" d="M96.58,363.14C41.44,466,31.81,588.84,25.65,658.62c-5.54,62.67,2,251.24,85.26,357.85,49.55,63.47,115.31,82.13,204,129.14,96.7,51.26,165.72,103.87,268.81,136.2,245.26,76.91,617.22,7.51,778.83-197,71.79-90.85,72.19-199.17,124.2-323,37.59-89.5,72.32-137.08,57.13-209-28.72-135.91-229-128.76-342.66-273-70.5-89.08-57-150.23-149.37-190.35-71.13-30.88-172.72-11.67-265,11-188.33-3.7-298.57-6.92-427.37,43.41C225.78,196.14,135.55,290.46,96.58,363.14Z"/><path class="cls-2" d="M110.36,372.47C55.63,471.61,41.49,589.68,33.78,663.11c-8,75.77,1.68,255.6,84,352.81,52.12,61.52,117,67.89,207.52,116.61,98.76,53.17,154.38,113.44,253.18,153,231.45,92.67,617,26.34,768.52-177.17,72.51-97.35,51.13-207.25,110-339.7,41.66-93.72,85.69-131.4,77.44-210.3-13.88-132.64-188.83-156.16-300.56-289-69.56-82.27-68-128.56-164.15-160.8-69.33-23.24-166.43-6.79-260,12C609.59,117.26,510.55,104.37,378,154.09,237.12,206.93,146.1,307.71,110.36,372.47Z"/><path class="cls-2" d="M124.13,381.8c-54.39,95.42-73,208.7-82.22,285.8-10.55,88.84,1.61,259.74,82.78,347.76,54.84,59.47,118.69,53.66,211,104.09,100.82,55.09,143.06,122.88,237.54,169.8,217.73,108.12,616.26,44.83,758.22-157.33,73-104,30-215.35,95.8-356.37,45.7-97.95,98.15-125.61,97.75-211.63-.59-129.18-148.63-183.57-258.44-305-68.63-75.45-78.68-107.41-178.94-131.25-67.33-16-160.14-1.92-255,13-212.09-2.93-300-25.55-436.25,23.61C248.44,217.68,156.56,324.93,124.13,381.8Z"/><path class="cls-2" d="M137.91,391.14c-54.19,91.62-77.31,200.17-87.86,281C36.74,774,51.84,935.74,131.58,1014.8c57.74,57.27,120.38,39.42,214.51,91.57C449,1163.38,477.91,1238.57,568,1293c204.16,123.28,615.17,63.07,747.91-137.5,73.33-110.78,8.86-223.47,81.6-373,49.72-102.21,109.61-120,118.07-213,11.45-126-108.44-211-216.33-321-67.71-68.63-89.27-86.93-193.73-101.7-65.23-9.22-153.85,3-249.94,14-224-2.55-300.67-34.91-440.69,13.71C259.75,228.38,166.93,342.09,137.91,391.14Z"/><path class="cls-2" d="M151.69,400.47C97.5,488.19,70.08,592.1,58.18,676.59,42,791.48,60.39,943.87,138.47,1014.25c60.83,54.83,122.07,25.18,218,79,104.93,58.92,120.67,141.4,206.27,203.39,190.81,138.21,613.71,81.13,737.61-117.66,73.37-117.72-12.63-231.77,67.4-389.68,53.5-106.58,120.09-114.73,138.37-214.32,22.65-123.32-68.24-238.37-174.22-337-66.77-61.82-99.89-67.24-208.51-72.15-63.17-2.86-147.56,7.83-244.93,15-235.85-2.18-301.48-44.56-445.13,3.8C271,238.78,177.19,359.19,151.69,400.47Z"/><path class="cls-2" d="M165.47,409.8C111,493.42,79.54,592.88,66.31,681.08,47.13,809,69.1,951.7,145.36,1013.69c64.11,52.12,123.76,11,221.5,66.53,107,60.83,109.65,150.51,190.64,220.2,177.74,152.94,611.91,99,727.3-97.84,73.13-124.78-33.71-239.86,53.2-406.34,57.58-110.8,129.71-110,158.69-215.66,33.31-121.42-28-265.77-132.11-353-65.84-55-110.76-48.37-223.3-42.6C1080,188.13,1000,197.7,901.36,201c-247.73-1.79-302.17-53.88-449.57-6.1C282.29,249.53,187.35,376.22,165.47,409.8Z"/><path class="cls-2" d="M470.25,205.14c-176.63,55.15-272.85,188-291,214-140,200.35-149.86,504.87-27,594,67.57,49,125.45-3.29,225,54,109,62.75,98.78,159.58,175,237,165,167.6,609.8,116.9,717-78,72.58-132-54.8-248,39-423,61.64-115,138.65-106,179-217,43.73-120.36,12.15-293.18-90-369-98.32-73-178.87,5.59-473,4C664.64,219.73,621.39,157.94,470.25,205.14Z"/></g></g></g></svg>