<svg xmlns="http://www.w3.org/2000/svg" viewBox="0 0 1019.86 910.44"><defs><style>.cls-1,.cls-10,.cls-11,.cls-12,.cls-2,.cls-3,.cls-4,.cls-5,.cls-6,.cls-7,.cls-8,.cls-9{fill:none;stroke:#bfd6e7;stroke-miterlimit:10;}.cls-2{opacity:1;}.cls-3{opacity:0.99;}.cls-4{opacity:0.99;}.cls-5{opacity:0.99;}.cls-6{opacity:0.98;}.cls-7{opacity:0.98;}.cls-8{opacity:0.97;}.cls-9{opacity:0.97;}.cls-10{opacity:0.97;}.cls-11{opacity:0.96;}.cls-12{opacity:0.96;}</style></defs><g id="Layer_2" data-name="Layer 2"><g id="Layer_1-2" data-name="Layer 1"><path class="cls-1" d="M267.54,86.94c-76.83,5.82-130.41,77.24-173,134-48.09,64.09-96.2,128.21-83,199,18.16,97.43,134.82,113,131,187-3.39,65.62-97,88.9-92,155,2.86,38.13,36.54,64.24,53,77,122.73,95.13,465.31,118.85,693-83,47.7-42.29,186.07-165,164-294-20.77-121.39-167.77-156.3-176-295-5.29-89.17,51.29-145.09,30-163-40.29-33.9-208.67,195-378,157C357.31,143.15,341.86,81.3,267.54,86.94Z"/><path class="cls-2" d="M105.45,213.66c-48.36,60.6-94.27,124.87-82.73,195.82,11.23,69,69.92,97.1,101.42,135.77,14,17.21,22.77,34.87,19.93,57.72C135.88,667.55,41.27,691.46,46,757c2.71,37.33,35.78,63.68,54.22,77.49,33.68,25.23,82.64,45.68,139.92,56.89C328.29,908.65,424,901.25,532.28,877c99.66-22.13,189.23-53.11,271.62-121.32,50.76-42,183.18-162.12,161.82-286.45C948.17,367.26,838.59,332,797.81,232.75a178.61,178.61,0,0,1-13-54.69C778.21,94.38,829,39.9,805.72,15.85,784.06-6.64,737.81,34.62,675.19,75.77,608,120,525.68,172.35,436.9,156.39c-76.27-13.71-93-71.09-163-66.08C200.29,95.44,148.69,159.79,105.45,213.66Z"/><path class="cls-3" d="M116.36,206.39C67.58,263.36,24,327.93,33.9,399c10,71.31,68.68,98.91,97.18,141.39,12.25,18.26,19,36.16,14.52,58.59C132.62,662.54,37,687.08,41.45,752.12c2.55,36.54,35,63.13,55.42,78,34.82,25.29,84.84,45.9,142.2,56.06,92.81,16.43,181.07.55,294.14-23.39,106.41-22.14,192.53-41.12,278.06-107.38C865.12,713.67,991.55,596.1,970.9,476.48c-17.38-100.37-127-130.22-171.62-233a177.35,177.35,0,0,1-14.18-54.27C777.31,111,822.23,58,796.9,27.75,773.24-.67,730.81,35.72,671.62,71c-65.49,39-143.31,93.19-234.35,80.86C364.08,141.93,346,89.3,280.19,93.69,209.86,98.12,160.12,155.28,116.36,206.39Z"/><path class="cls-4" d="M127.27,199.12C78.17,252.53,36.7,317.34,45.08,388.57c8.67,73.61,67.52,100.57,92.94,147,10.53,19.24,15.3,37.47,9.11,59.46C129.51,657.57,32.66,682.7,36.9,747.21c2.39,35.74,34.2,62.6,56.64,78.47,35.92,25.4,87,46.07,144.47,55.23,97.48,15.55,178.19-9,296.12-32.34,113.12-22.39,195.89-29.09,284.5-93.45,57-41.39,177.4-156.46,157.45-271.37C958.86,385,849.33,360.48,800.76,254.18a177.46,177.46,0,0,1-15.38-53.87c-8.83-72.68,30-124.3,2.7-160.65-25.65-34.36-64.43-2.92-120,26.54-63.91,33.87-137,89.63-230.43,81.1-70-6.39-89.55-53.83-151.11-50.23C219.45,101,171.64,150.84,127.27,199.12Z"/><path class="cls-5" d="M138.17,191.85c-49.39,49.87-88.79,114.91-81.9,186.27C63.59,454,122.74,480.22,145,530.76c8.86,20.16,11.54,38.77,3.69,60.32-22.38,61.5-120.3,87.25-116.29,151.22,2.23,34.94,33.39,62.08,57.85,79,37,25.52,89.25,46.19,146.74,54.4,102.17,14.61,175.35-18.32,298.11-41.3,119.87-22.43,199.3-17,290.93-79.51,60.14-41,174.51-153.62,155.28-263.82-17.06-97.22-126.51-116.34-179-226.13a179.48,179.48,0,0,1-16.57-53.46c-9.74-67.17,23-117.38-6.39-159.87-27.66-40.3-62.95-13.93-114.78,9.85C602,90.1,534,147.25,438,142.75c-66.71-3.12-87.84-45.24-145.15-42.31C229,103.71,183.18,146.41,138.17,191.85Z"/><path class="cls-6" d="M149.08,184.57C99.41,230.91,62,296.19,67.45,367.66,73.38,445.87,133,471.21,151.9,525.92c7.26,21.05,7.77,40.08-1.72,61.2C123,647.58,24,674,27.81,737.39c2.08,34.15,32.57,61.58,59.07,79.45,38.07,25.67,91.46,46.26,149,53.58C342.76,884,408.41,842.78,536,820.16c126.63-22.45,202.75-4.86,297.38-65.59C896.68,713.94,1005,603.79,986.45,498.3c-16.9-95.64-126.21-109.43-182.75-222.68-8.68-17.4-14.45-33.66-17.76-53.06-10.5-61.67,15.88-110.45-15.49-159.08C740.8,17.25,708.8,38.36,660.93,56.64c-61.33,23.42-124,81.76-222.57,81.57-63.4-.12-86.14-36.68-139.19-34.39C238.6,106.43,194.73,142,149.08,184.57Z"/><path class="cls-7" d="M160,177.3c-49.93,42.83-85.36,108.32-81.36,179.91,4.5,80.51,64.84,105,80.21,163.88,5.71,21.92,4,41.38-7.13,62.07-32,59.42-132,86.41-128.44,149.32,1.92,33.35,31.74,61.09,60.27,79.94,39.13,25.84,93.69,46.3,151.29,52.75C346.4,877.67,404.57,828.51,536.91,806c133.42-22.2,206.22,7.33,303.81-51.66,66.53-40.21,168.72-147.94,150.91-248.73C974.9,411.51,865.75,403,805.18,286.34c-9.13-17.58-15.15-33.45-18.95-52.65-11.12-56.18,8.79-103.53-24.6-158.3C730,23.22,701.08,38.83,657.36,51.85c-60.39,18-117.48,77.37-218.64,81.81-60.06,2.64-84.43-28.11-133.22-26.47C248.18,109.13,206.3,137.58,160,177.3Z"/><path class="cls-8" d="M170.9,170c-50.17,39.33-83.7,105-81.09,176.72,3,82.82,64.26,106.35,76,169.51,4.22,22.79.23,42.67-12.54,62.93-36.79,58.38-137.82,86-134.52,148.38,1.77,32.55,30.91,60.62,61.49,80.43,40.17,26,95.92,46.3,153.56,51.92,116.29,11.34,166.91-46,304.07-68.17C678,769.54,747.56,811.32,848.08,754c69.75-39.75,165.84-145.11,148.73-241.18-16.57-92.49-125.51-95.67-190.16-215.79-9.57-17.77-15.8-33.24-20.14-52.25-11.58-50.71,1.71-96.6-33.7-157.51-33.64-58.11-59.63-48.3-99-40.23-59.68,12.24-111,72.58-214.72,82.05-56.73,5.18-82.72-19.57-127.26-18.55C257.75,111.82,217.89,133.2,170.9,170Z"/><path class="cls-9" d="M181.81,162.75C131.41,198.62,99.73,264.48,101,336.3c1.5,85.12,63.83,107.76,71.73,175.13,2.77,23.66-3.55,44-17.95,63.8-41.61,57.32-143.65,85.59-140.6,147.43,1.62,31.76,30.07,60.15,62.71,80.92,41.21,26.22,98.14,46.28,155.84,51.1,121,10.1,164.07-55.27,306-77.13C685.69,755.33,752,809.4,855.45,753.75c73-39.25,162.94-142.26,146.54-233.63-16.4-90.91-125.11-88.81-193.87-212.34-10-18-16.4-33-21.33-51.84-11.89-45.29-5.38-89.67-42.8-156.73-35.64-64-58.83-60.44-93.76-56.92-59.12,6-104.51,67.35-210.78,82.28-53.46,7.51-81-11-121.3-10.62C267.33,114.48,229.49,128.83,181.81,162.75Z"/><path class="cls-10" d="M192.72,155.48c-50.61,32.42-80.49,98.43-80.55,170.37-.06,87.42,63.51,109.21,67.49,180.75,1.36,24.55-7.36,45.23-23.36,64.67C109.77,627.45,6.81,656.44,9.63,717.75c1.45,31,29.22,59.7,63.92,81.41,42.24,26.43,100.37,46.23,158.11,50.27,125.71,8.8,161.23-64.57,308-86.09,153.68-22.23,216.77,44.18,323.12-9.86,76.23-38.73,160.05-139.43,144.36-226.09-16.24-89.33-124.69-82-197.58-208.89-10.42-18.15-16.91-32.88-22.52-51.44-12.06-39.9-12.46-82.74-51.9-155.94-37.63-70-58-73-88.5-73.62C588.09,36.36,548.43,99.12,439.81,120c-50.25,9.67-79.32-2.55-115.34-2.71C276.9,117.12,241.11,124.49,192.72,155.48Z"/><path class="cls-11" d="M203.63,148.21c-50.82,29-78.93,95.12-80.27,167.18-1.67,89.72,63.29,110.72,63.24,186.38,0,25.47-11.13,46.52-28.77,65.54C106.5,622.44,2.5,652.06,5.08,712.85c1.3,30.15,28.33,59.32,65.14,81.89,43.22,26.72,102.59,46.15,160.38,49.44,130.42,7.43,158.4-73.87,310-95,160.44-22.25,220.32,56.54,329.56,4.07,79.49-38.18,157.16-136.6,142.19-218.55-16.08-87.75-124.08-75.25-201.29-205.44a264.63,264.63,0,0,1-23.72-51c-12.09-34.6-19.54-75.82-61-155.16-39.63-75.93-57-86-83.26-90.31-57.66-9.43-92.19,55.33-202.93,82.76-47.14,11.68-77.61,5.93-109.37,5.22C286.47,119.71,252.73,120.18,203.63,148.21Z"/><path class="cls-12" d="M440.54,110.94c-110.17,33.85-142.81-11.79-226,30-51,25.62-77.4,91.81-80,164-3.32,92,63.17,112.28,59,192-5.4,103.23-196.15,130-193,211,2.44,62.83,120.43,126.19,229,131,135.14,6,155.57-83.18,312-104,167.19-22.26,223.87,68.93,336,18,82.75-37.59,154.26-133.76,140-211-15.92-86.18-123.76-68.36-205-202-29.78-49-25-67.44-95-205-41.63-81.87-55.49-99.31-78-107C583.75,8.86,553.05,76.36,440.54,110.94Z"/></g></g></svg>