<?xml version="1.0" encoding="utf-8"?>
<!-- Generator: Adobe Illustrator 25.4.1, SVG Export Plug-In . SVG Version: 6.00 Build 0)  -->
<svg version="1.1" id="Layer_1" xmlns="http://www.w3.org/2000/svg" xmlns:xlink="http://www.w3.org/1999/xlink" x="0px" y="0px"
	 viewBox="0 0 1008.6 141.7" style="enable-background:new 0 0 1008.6 141.7;" xml:space="preserve">
<style type="text/css">
	.st0{fill:#00A6A4;}
	.st1{fill:#FFFFFF;}
	.st2{fill:#2CA01C;}
	.st3{fill:#D52B1E;}
	.st4{fill:#008600;}
	.st5{fill:#FFE01B;}
	.st6{fill:#0077C5;}
</style>
<g>
	<g>
		<path d="M505.8,118.2c-2.1,0-3.8,1.1-4.8,2.8c-0.8-1.2-2.3-2.8-4.8-2.8c-2.1,0-3.9,1.6-4.7,2.8h-0.1v-2.3h-4.1v15.5h4.3v-8.5
			c0-1.9,1-3.8,3.1-3.8c2.3,0,2.6,2.1,2.6,3v9.3h4.3v-8.4c0-1.9,1.1-3.8,3.2-3.8c2,0,2.6,1.8,2.6,3.7v8.5h4.3v-9.6
			C511.5,121.6,510,118.2,505.8,118.2z M515.5,134.1h4.3v-15.5h-4.3V134.1z M532.3,118.2c-2.2,0-3.9,1.6-4.7,2.8h-0.1v-2.3h-4.1
			v15.5h4.3v-8.5c0-1.8,1.1-3.8,3.3-3.8c2.1,0,2.6,1.9,2.6,3.7v8.5h4.3v-9.6C537.9,121.6,536.5,118.2,532.3,118.2z M550.7,122v-3.4
			H547v-4.3h-4.2v4.3h-2.6v3.4h2.6v6.8c0,2.4,0.6,5.6,5.2,5.6c0.9,0,2-0.2,2.7-0.4l-0.1-3.3c-0.4,0.1-1.1,0.3-1.9,0.3
			c-1.2,0-1.7-0.9-1.7-2.2V122H550.7L550.7,122z"/>
		<path class="st0" d="M462.2,139.1c9.9,0,18-8.1,18-18s-8.1-18-18-18s-18,8.1-18,18S452.3,139.1,462.2,139.1z"/>
		<path class="st1" d="M462.2,108.1c-1.2,1.2-9.3,9.6-9.3,16.1c0,4.6,3.7,6.2,9.3,10c5.6-3.8,9.3-5.4,9.3-10
			C471.5,117.6,463.4,109.3,462.2,108.1z M462,130.9c-0.3-0.2-0.6-0.4-0.9-0.6c-4.5-2.9-5.6-3.9-5.6-6.2c0-3.6,3.5-8.6,6.5-12V130.9
			z"/>
	</g>
	<g>
		<path d="M297.6,130.9c-2.6,0-3.9-2.3-3.9-4.6s1.4-4.5,3.8-4.5c1.1,0,2.5,0.6,3.1,1.3l2.8-2.7c-1.3-1.4-3.5-2.2-5.8-2.2
			c-4.8,0-8.3,3.4-8.3,8.2s3.4,8.2,8.4,8.2c2.3,0,4.5-0.7,5.8-2.1l-2.7-2.9C300,130.3,298.7,130.9,297.6,130.9z M256.4,120.6
			L256.4,120.6c-0.7-0.7-2.3-2.4-5-2.4c-4.4,0-7.7,3.4-7.7,8.1c0,4.8,3.1,8.2,7.5,8.2c2,0,3.9-1.1,5-2.3h0.1v9.5h4.3v-23.1h-4.1v2
			H256.4z M252.3,130.9c-2.6,0-4.1-2.3-4.1-4.6c0-2.2,1.4-4.5,4.1-4.5c2.5,0,4.1,2.4,4.1,4.6C256.4,128.6,254.8,130.9,252.3,130.9z
			 M282.2,134.1h4.3v-15.5h-4.3V134.1z M274.4,127.1c0,1.8-1.2,3.8-3.4,3.8c-1.7,0-2.6-1.2-2.6-3.7v-8.5h-4.3v9.6
			c0,3.2,1.6,6.3,5.9,6.3c2,0,3.7-1.6,4.5-2.8h0.1v2.3h4.1v-15.5h-4.3L274.4,127.1L274.4,127.1z M349.6,118.2
			c-4.9,0-8.4,3.4-8.4,8.1c0,4.9,3.6,8.3,8.4,8.3s8.4-3.4,8.4-8.3C358,121.6,354.5,118.2,349.6,118.2z M349.6,130.9
			c-2.8,0-4.1-2.4-4.1-4.6c0-2.2,1.3-4.5,4.1-4.5s4.1,2.3,4.1,4.5C353.6,128.5,352.4,130.9,349.6,130.9z M394.9,118.6h-5.5l-5.5,6.4
			h-0.1v-15h-4.3v24h4.3v-7.6h0.1l5.7,7.6h5.6l-6.6-8.5L394.9,118.6z M320.9,118.6h-5.5l-5.5,6.4h-0.1v-15h-4.3v24h4.3v-7.6h0.1
			l5.7,7.6h5.6l-6.6-8.5L320.9,118.6z M403,124.6c-2.2-0.5-3-0.8-3-1.7c0-1.2,1.6-1.5,2.3-1.5c1.3,0,2.8,0.8,3.4,1.5l2.5-2.4
			c-1.2-1.5-3.5-2.3-5.9-2.3c-3.1,0-6.3,1.6-6.3,5c0,3,2.3,3.9,4.6,4.4c2.4,0.6,3.3,1,3.3,1.9c0,1.4-1.6,1.7-2.2,1.7
			c-1.4,0-3-0.8-3.9-1.8l-2.6,2.6c1.4,1.6,3.8,2.5,6.3,2.5c4.2,0,6.7-2,6.7-5.3C408.2,126.1,405.2,125.1,403,124.6z M331.6,118.2
			c-2,0-3.4,0.8-4.8,2.1h-0.1v-10.2h-4.3v24h4.1v-2.2h0.1c1,1.6,2.9,2.6,4.9,2.6c4.4,0,7.8-3.5,7.8-8.2
			C339.2,121.6,335.9,118.2,331.6,118.2z M330.7,130.9c-2.6,0-4.1-2.3-4.1-4.5s1.6-4.6,4.1-4.6c2.8,0,4.1,2.3,4.1,4.5
			C334.9,128.6,333.4,130.9,330.7,130.9z M368.4,118.2c-4.9,0-8.4,3.4-8.4,8.1c0,4.9,3.6,8.3,8.4,8.3s8.4-3.4,8.4-8.3
			C376.8,121.6,373.2,118.2,368.4,118.2z M368.4,130.9c-2.8,0-4.1-2.4-4.1-4.6c0-2.2,1.3-4.5,4.1-4.5c2.8,0,4.1,2.3,4.1,4.5
			C372.4,128.5,371.2,130.9,368.4,130.9z"/>
		<path class="st2" d="M220.9,139.1c9.9,0,18-8.1,18-18s-8.1-18-18-18s-18,8.1-18,18S211,139.1,220.9,139.1z"/>
		<path class="st1" d="M207.9,121.1c0,3.9,3.1,7,7,7h1v-2.6h-1c-2.4,0-4.4-2-4.4-4.4s2-4.4,4.4-4.4h2.4c0,0,0,13.3,0,13.6
			c0,1.4,1.2,2.6,2.6,2.6v-18.8c0,0-2.7,0-5,0C211,114.1,207.9,117.2,207.9,121.1z M226.9,114.1h-1v2.6h1c2.4,0,4.4,2,4.4,4.4
			s-2,4.4-4.4,4.4h-2.4c0,0,0-13.3,0-13.6c0-1.4-1.2-2.6-2.6-2.6v18.8c0,0,2.7,0,5,0c3.9,0,7-3.1,7-7
			C233.9,117.2,230.8,114.1,226.9,114.1z"/>
	</g>
	<g>
		<path d="M127.8,114.3h-4.2v4.3H121v3.4h2.6v6.8c0,2.4,0.6,5.6,5.2,5.6c0.9,0,2-0.2,2.7-0.4l-0.1-3.3c-0.4,0.1-1.1,0.3-1.9,0.3
			c-1.2,0-1.7-0.9-1.7-2.2V122h3.7v-3.4h-3.7V114.3z M160.6,125.9l5.6-7.3h-5L158,123l-3.1-4.4h-5.2l5.6,7.3l-6.3,8.2h5.1l3.8-5.2
			l3.8,5.2h5.2L160.6,125.9z M64.3,127.1c0,1.8-1.2,3.8-3.4,3.8c-1.7,0-2.6-1.2-2.6-3.7v-8.5H54v9.6c0,3.2,1.6,6.3,5.9,6.3
			c2,0,3.7-1.6,4.5-2.8h0.1v2.3h4.1v-15.5h-4.3L64.3,127.1L64.3,127.1z M47.2,114.3H43v4.3h-2.6v3.4H43v6.8c0,2.4,0.6,5.6,5.2,5.6
			c0.9,0,2-0.2,2.7-0.4l-0.1-3.3c-0.4,0.1-1.1,0.3-1.9,0.3c-1.2,0-1.7-0.9-1.7-2.2V122H51v-3.4h-3.7L47.2,114.3L47.2,114.3z
			 M76.4,121L76.4,121l-0.1-2.4h-4.1v15.5h4.3v-8.3c0,0,0.2-3.8,3.9-3.8c0.3,0,0.8,0,1.3,0.2v-3.9c-0.3-0.1-1-0.1-1.2-0.1
			C78.8,118.2,77.4,119.5,76.4,121z M93.2,118.2c-1.9,0-3.4,0.8-4.8,2.1h-0.1v-10.2H84v24h4.1v-2.2h0.1c1,1.6,2.9,2.6,4.9,2.6
			c4.4,0,7.8-3.5,7.8-8.2C100.9,121.6,97.6,118.2,93.2,118.2z M92.4,130.9c-2.6,0-4.1-2.3-4.1-4.5s1.6-4.6,4.1-4.6
			c2.8,0,4.1,2.3,4.1,4.5C96.6,128.6,95.1,130.9,92.4,130.9z M111.3,118.2c-4.9,0-8.4,3.4-8.4,8.1c0,4.9,3.6,8.3,8.4,8.3
			s8.4-3.4,8.4-8.3C119.7,121.6,116.1,118.2,111.3,118.2z M111.3,130.9c-2.8,0-4.1-2.4-4.1-4.6c0-2.2,1.3-4.5,4.1-4.5
			c2.8,0,4.1,2.3,4.1,4.5C115.3,128.5,114.1,130.9,111.3,130.9z M141,118.2c-2.5,0-5,1-6.6,2.5l2.2,2.4c1-1,2.7-1.6,4.1-1.6
			c1.5,0,3.1,0.8,3.1,2.6v0.3c-4.5,0-10.2,0.6-10.2,5.2c0,3.4,3,4.9,5.9,4.9c1.8,0,3.4-1,4.4-2.2h0.1v1.8h4v-9.4
			C148,122.3,147.1,118.2,141,118.2z M143.9,127.5c0,2.3-1.3,3.7-3.6,3.7c-0.9,0-2.4-0.3-2.4-1.6c0-1.5,1.9-2.4,5.5-2.4h0.6v0.3
			C144,127.5,143.9,127.5,143.9,127.5z"/>
		<path class="st3" d="M18,139.1c9.9,0,18-8.1,18-18s-8.1-18-18-18s-18,8.1-18,18S8.1,139.1,18,139.1z"/>
		<path class="st1" d="M14,127.7c-2.1-1.5-4.1-3.1-6-4.8c-0.7,1.5-1.3,3.1-1.9,4.7c3,2.6,7.1,5.5,9.9,7.2
			c3.6-9.3,9.2-15.4,14.6-19.7c-0.7-1.5-1.6-2.8-2.8-3.9C22.1,115.6,17.4,121.2,14,127.7z"/>
	</g>
	<g>
		<path class="st4" d="M604.9,139.1c9.9,0,18-8.1,18-18s-8.1-18-18-18s-18,8.1-18,18S595,139.1,604.9,139.1z"/>
		<path class="st1" d="M595.8,122.9c0-3.1,1.5-4.7,3.9-4.7c1.8,0,2.9,0.7,3.3,0.9c0.3-0.3,0.5-0.8,0.5-1.3c0-0.9-1-1.8-3.9-1.8
			c-3.4,0-6.3,2.4-6.3,6.9c0,4.4,2.6,6.9,6,6.9c2.1,0,3.7-0.7,4.2-0.9v-2.5c-0.5,0.4-2.2,1.2-3.8,1.2
			C597.5,127.6,595.8,126,595.8,122.9z M612.4,122.8c1.5-1.8,2.9-3.9,3.9-6.6l-2.2-0.8c-1.4,3.8-3.5,6.4-6,8.5v-13.1h-2.4v18.7h2.4
			v-2.8c0.9-0.7,1.7-1.4,2.6-2.2l2.2,3.8c0.5,0.9,1.3,1.4,2.4,1.4c0.6,0,1-0.2,1.1-0.3L612.4,122.8z"/>
		<path d="M726.6,118.3c-3.7,0-5.1,1-5.1,2.1c0,0.9,0.5,1.4,0.6,1.5c0.5-0.3,1.9-1.1,4.1-1.1c2.8,0,3.8,1.3,3.8,2.8v0.4
			c-6.5,0.7-9.8,1.9-9.8,5.8c0,2.6,2,4.6,4.8,4.6s4.4-1.5,5.1-2.1v1.8h2.8v-10.6C732.9,120.1,730.4,118.3,726.6,118.3z M730,129.8
			c-1.3,1.3-2.6,2-4.3,2c-1.6,0-2.5-1.1-2.5-2.2c0-1.6,1.3-2.9,6.8-3.5V129.8L730,129.8z M777.3,118.3c-3.7,0-5.1,1-5.1,2.1
			c0,0.9,0.5,1.4,0.6,1.5c0.5-0.3,1.9-1.1,4.1-1.1c2.8,0,3.8,1.3,3.8,2.8v0.4c-6.5,0.7-9.8,1.9-9.8,5.8c0,2.6,2,4.6,4.8,4.6
			s4.4-1.5,5.1-2.1v1.8h2.8v-10.6C783.6,120.1,781.1,118.3,777.3,118.3z M780.7,129.8c-1.3,1.3-2.6,2-4.3,2c-1.6,0-2.5-1.1-2.5-2.2
			c0-1.6,1.3-2.9,6.8-3.5V129.8L780.7,129.8z M686.3,115.5c-1,0-1.8-0.8-1.8-1.8s0.8-1.8,1.8-1.8s1.8,0.8,1.8,1.8
			S687.3,115.5,686.3,115.5z M684.8,134.1v-15.5h2.9v15.5H684.8z M655.9,127.6c4.3,0,10-0.7,10-5.2c0-2.3-1.9-4.1-5.1-4.1
			c-5.4,0-7.9,3.8-7.9,8.3c0,4.4,2.8,7.8,7.8,7.8c2.8,0,4.9-0.8,4.9-2.3c0-0.7-0.5-1.3-0.6-1.4c-0.3,0.2-1.8,1.2-4.1,1.2
			C657.6,131.8,656.2,129.7,655.9,127.6z M655.9,125.3c0.1-2.3,1.6-4.6,4.8-4.6c1.4,0,2.3,0.8,2.3,1.8
			C663,124.8,658.9,125.3,655.9,125.3z M681.3,133.6c-0.6,0.1-2.5,0.8-5.2,0.8c-6,0-8.3-3.3-8.3-7.8c0-5.7,3.2-8.4,6.8-8.4
			c2,0,3.4,0.6,3.7,0.8v-6.9h2.9L681.3,133.6L681.3,133.6z M678.4,121.7c-0.4-0.2-1.6-0.9-3.2-0.9c-2.7,0-4.5,1.8-4.5,5.7
			c0,3.4,1.7,5.3,5.4,5.3c0.9,0,1.6-0.1,2.3-0.3V121.7z M632.7,126.3c0-3.6,1.9-5.5,4.7-5.5c2.2,0,3.6,0.8,4,1.1
			c0.4-0.3,0.6-0.9,0.6-1.5c0-1-1.2-2.1-4.8-2.1c-4.2,0-7.6,2.8-7.6,8.1c0,5.2,3.1,8,7.3,8c2.5,0,4.5-0.8,5.1-1.1v-2.9
			c-0.6,0.4-2.7,1.4-4.6,1.4C634.7,131.8,632.7,130,632.7,126.3z M714.4,126.2c1.9-2.1,3.5-4.6,4.7-7.7l-2.7-1
			c-1.7,4.5-4.2,7.5-7.3,10v-15.3h-2.9v21.9h2.9v-3.2c1.1-0.8,2.1-1.6,3.2-2.6l2.6,4.5c0.7,1.1,1.5,1.7,2.9,1.7
			c0.7,0,1.2-0.2,1.3-0.3L714.4,126.2z M647.4,120.6c0-1.5-0.9-2.3-2-2.3c-0.3,0-0.6,0-0.8,0.1v15.7h2.9V125
			c0.8-1.9,2.8-3.7,5.3-3.7v-2.9c-2.8,0-4.3,1.3-5.4,3.3V120.6L647.4,120.6z M739.3,120.6c0-1.5-0.9-2.3-2-2.3c-0.3,0-0.6,0-0.8,0.1
			v15.7h2.9V125c0.8-1.9,2.8-3.7,5.3-3.7v-2.9c-2.8,0-4.3,1.3-5.4,3.3V120.6L739.3,120.6z M749.4,120.6L749.4,120.6
			c0-1.6-0.8-2.3-2-2.3c-0.3,0-0.6,0-0.8,0.1v15.7h2.9v-10.7c0.9-1.2,2.6-2.5,4.1-2.5c1.7,0,2.5,1.1,2.5,2.7v10.5h2.9v-10.7
			c1-1.3,2.6-2.5,4.1-2.5c1.7,0,2.5,1.1,2.5,2.7v10.5h2.9v-10.7c0-2.9-1.3-5.1-4.9-5.1c-2.2,0-3.8,1.2-5.1,2.6
			c-0.4-1-1.4-2.6-4.5-2.6C752.1,118.3,750.6,119.4,749.4,120.6z M691.3,114.9v15c0,3,1.8,4.5,4.6,4.5c1.3,0,2.5-0.3,2.7-0.4v-2.5
			c-0.2,0.1-1,0.3-2.1,0.3c-1.6,0-2.3-1-2.3-2.3V121h4v-2.4h-4V117c0-1.5-0.9-2.3-2.1-2.3C691.8,114.7,691.5,114.8,691.3,114.9z"/>
	</g>
	<g>
		<path class="st5" d="M838.2,139.1c9.9,0,18-8.1,18-18s-8.1-18-18-18s-18,8.1-18,18C820.2,131.1,828.3,139.1,838.2,139.1z"/>
		<g>
			<g>
				<g>
					<path d="M843.6,120.4c0.2,0,0.4,0,0.5,0c0.1-0.2,0.1-0.6,0-1c-0.1-0.6-0.3-1-0.6-0.9c-0.4,0.1-0.4,0.5-0.2,1.1
						C843.3,120,843.4,120.2,843.6,120.4z"/>
					<path d="M840.5,120.9c0.3,0.1,0.4,0.2,0.5,0.1c0,0,0-0.1,0-0.2c-0.1-0.2-0.4-0.4-0.7-0.5c-0.6-0.2-1.2-0.2-1.7,0.2
						c-0.2,0.1-0.3,0.3-0.3,0.4c0,0,0,0.1,0.1,0.1s0.6-0.2,1.2-0.3C840,120.7,840.3,120.8,840.5,120.9z"/>
					<path d="M840,121.2c-0.3,0.1-0.5,0.2-0.6,0.3c-0.1,0.1-0.2,0.2-0.2,0.2v0.1c0,0,0,0,0.1,0s0.2-0.1,0.2-0.1
						c0.5-0.2,0.8-0.1,1.1-0.1c0.2,0,0.2,0,0.3,0v-0.1C840.8,121.3,840.5,121.1,840,121.2z"/>
					<path d="M842.5,122.2c0.2,0.1,0.5,0.1,0.5-0.1c0.1-0.2,0-0.4-0.3-0.5c-0.2-0.1-0.5-0.1-0.5,0.1
						C842.2,121.9,842.3,122.1,842.5,122.2z"/>
					<path d="M844,121c-0.2,0-0.3,0.2-0.3,0.4c0,0.2,0.1,0.5,0.3,0.5s0.3-0.2,0.3-0.4C844.3,121.2,844.1,121,844,121z"/>
					<path d="M831.8,125.5c0-0.1-0.1,0-0.2,0c0,0-0.1,0-0.2,0c-0.1,0-0.2-0.1-0.3-0.2s-0.1-0.3,0-0.5v-0.1c0.1-0.3,0.4-0.9,0.1-1.4
						c-0.2-0.4-0.5-0.6-0.9-0.7c-0.4,0-0.8,0.1-1,0.4c-0.4,0.4-0.5,1-0.4,1.3c0,0.1,0.1,0.1,0.1,0.1c0.1,0,0.2,0,0.2-0.2
						c0,0,0,0,0-0.1s0.1-0.3,0.2-0.4c0.1-0.2,0.3-0.3,0.5-0.3s0.4,0,0.6,0.1c0.3,0.2,0.4,0.5,0.3,0.9c-0.1,0.2-0.2,0.5-0.1,0.8
						c0,0.5,0.4,0.8,0.7,0.8s0.5-0.2,0.5-0.3C831.9,125.5,831.8,125.5,831.8,125.5z"/>
					<path d="M848.5,124.5c0,0-0.1-0.3-0.2-0.6s-0.2-0.5-0.2-0.5c0.4-0.6,0.4-1.1,0.4-1.4c-0.1-0.4-0.2-0.7-0.5-1s-1-0.7-1.8-0.9
						c-0.1,0-0.4-0.1-0.5-0.1c0,0,0-1.1,0-1.6c0-0.3,0-0.9-0.2-1.4c-0.2-0.7-0.5-1.3-1-1.7c1.2-1.2,1.9-2.6,1.9-3.7
						c0-2.2-2.7-2.9-6.1-1.5l-0.7,0.3l-1.3-1.3c-3.8-3.3-15.7,9.9-11.9,13.1l0.8,0.7c-0.2,0.6-0.3,1.2-0.2,1.9
						c0.1,0.9,0.5,1.7,1.3,2.4c0.7,0.6,1.6,1,2.5,1c1.5,3.4,4.9,5.5,8.8,5.6c4.3,0.1,7.8-1.9,9.3-5.5c0.1-0.3,0.5-1.4,0.5-2.4
						C849.5,124.9,848.9,124.5,848.5,124.5z M831.1,127.2c-0.1,0-0.3,0-0.4,0c-1.3,0-2.7-1.2-2.8-2.6c-0.2-1.5,0.6-2.7,2-3
						c0.2,0,0.4-0.1,0.6,0c0.8,0,1.9,0.6,2.2,2.3C832.9,125.4,832.5,126.9,831.1,127.2z M829.7,120.8c-0.9,0.2-1.6,0.7-2.1,1.3
						c-0.3-0.2-0.8-0.7-0.9-0.8c-0.7-1.4,0.8-4.1,1.9-5.6c2.7-3.8,6.8-6.7,8.7-6.1c0.3,0.1,1.3,1.3,1.3,1.3s-1.9,1.1-3.7,2.6
						C832.6,115.1,830.8,117.8,829.7,120.8z M843.2,126.6L843.2,126.6C843.2,126.5,843.2,126.5,843.2,126.6c0-0.1-2,0.2-3.9-0.5
						c0.2-0.7,0.8-0.4,1.6-0.4c1.5,0.1,2.8-0.1,3.8-0.4c0.9-0.2,2-0.7,2.9-1.4c0.3,0.7,0.4,1.4,0.4,1.4s0.2,0,0.4,0.1
						s0.3,0.3,0.2,0.9c-0.2,1.1-0.7,2-1.5,2.9c-0.5,0.5-1.1,1-1.8,1.3c-0.4,0.2-0.7,0.4-1.1,0.5c-3,1-6.1-0.1-7.1-2.4
						c-0.1-0.2-0.1-0.4-0.2-0.5c-0.4-1.5-0.1-3.4,1.1-4.5l0,0c0.1-0.1,0.1-0.2,0.1-0.3c0-0.1-0.1-0.2-0.1-0.3
						c-0.4-0.6-1.8-1.5-1.5-3.4c0.2-1.4,1.4-2.3,2.5-2.3c0.1,0,0.2,0,0.3,0c0.5,0,0.9,0.1,1.3,0.1c0.7,0,1.3-0.1,2-0.7
						c0.2-0.2,0.4-0.4,0.7-0.4c0,0,0.1,0,0.3,0s0.3,0.1,0.5,0.2c0.6,0.4,0.6,1.3,0.7,1.9c0,0.4,0.1,1.3,0.1,1.6
						c0,0.6,0.2,0.7,0.5,0.8c0.2,0.1,0.3,0.1,0.6,0.2c0.7,0.2,1.2,0.4,1.5,0.7c0.2,0.2,0.2,0.4,0.3,0.5c0.1,0.6-0.5,1.4-2,2.2
						c-1.7,0.8-3.7,1-5.2,0.8c-0.1,0-0.5-0.1-0.5-0.1c-1.1-0.2-1.8,1.3-1.1,2.3c0.4,0.6,1.6,1.1,2.8,1.1c2.7,0,4.9-1.2,5.6-2.2
						c0,0,0,0,0.1-0.1c0-0.1,0-0.1,0-0.1c-0.6,0.4-3.5,2.2-6.5,1.7c0,0-0.4-0.1-0.7-0.2s-0.8-0.4-0.9-0.9
						C841.6,127.3,843.2,126.6,843.2,126.6z M839.3,126.1L839.3,126.1L839.3,126.1L839.3,126.1z M834.6,115.6c0.9-1.1,2.1-2,3.1-2.6
						c0,0,0.1,0,0.1,0.1c-0.1,0.1-0.2,0.5-0.3,0.7c0,0,0,0.1,0.1,0c0.6-0.4,1.8-0.9,2.8-1c0,0,0.1,0.1,0,0.1
						c-0.2,0.1-0.3,0.3-0.4,0.4v0.1c0.7,0,1.7,0.2,2.3,0.6v0.1c-1-0.2-2.5-0.4-4.2,0C836.6,114.5,835.4,115,834.6,115.6
						C834.6,115.7,834.5,115.6,834.6,115.6z"/>
				</g>
			</g>
		</g>
		<g>
			<path d="M930.3,121.9c1.1,0,2.5,0.6,3.1,1.3l2.8-2.7c-1.3-1.4-3.5-2.2-5.8-2.2c-4.8,0-8.3,3.4-8.3,8.2s3.4,8.2,8.4,8.2
				c2.3,0,4.5-0.7,5.8-2.1l-2.7-2.9c-0.6,0.8-1.9,1.3-3.1,1.3c-2.6,0-3.9-2.3-3.9-4.6C926.5,124.1,927.9,121.9,930.3,121.9z"/>
			<path d="M947.7,118.2c-2.1,0-3.8,1.3-4.6,2.4H943v-10.5h-4.3v24h4.3v-8.4c0-1.8,1-3.7,3.2-3.7c1.7,0,2.7,1.2,2.7,3.7v8.5h4.5
				v-9.6C953.5,121.6,951.9,118.2,947.7,118.2z"/>
			<path d="M984.6,125.8v8.5h4.3v-9.6c0-2.9-1.4-6.3-5.7-6.3c-2.1,0-3.7,1.1-4.8,2.8c-0.7-1.3-2.3-2.8-4.8-2.8
				c-2.1,0-3.9,1.6-4.7,2.8h-0.1v-2.4h-4.1v15.5h4.3v-8.5c0-1.9,1-3.8,3.1-3.8c2.3,0,2.6,2.1,2.6,3v9.3h4.3v-8.4
				c0-1.9,1.1-3.8,3.2-3.8C984,122.1,984.6,123.8,984.6,125.8z"/>
			<path d="M882.2,125.6v8.5h4.3v-9.6c0-2.9-1.4-6.3-5.7-6.3c-2.1,0-3.7,1.1-4.8,2.8c-0.7-1.3-2.3-2.8-4.8-2.8
				c-2.1,0-3.9,1.6-4.7,2.8h-0.1v-2.4h-4.1v15.5h4.3v-8.5c0-1.9,1-3.8,3.1-3.8c2.3,0,2.6,2.1,2.6,3v9.3h4.3v-8.4
				c0-1.9,1.1-3.8,3.2-3.8C881.7,121.9,882.2,123.6,882.2,125.6z"/>
			<path d="M896.3,118.2c-2.5,0-5,1-6.6,2.5l2.2,2.5c1-1,2.7-1.6,4.1-1.6c1.5,0,3.1,0.8,3.1,2.6v0.3c-4.5,0-10.2,0.6-10.2,5.2
				c0,3.4,2.9,4.9,5.9,4.9c1.8,0,3.4-1,4.4-2.2h0.1v1.8h4v-9.4C903.3,122.3,902.4,118.2,896.3,118.2z M895.5,131.3
				c-0.9,0-2.4-0.3-2.4-1.7c0-1.5,1.9-2.4,5.5-2.4h0.6v0.3C899.2,129.9,897.9,131.3,895.5,131.3z"/>
			<g>
				<path d="M958.8,111.2c-1.4,0-2.6,1.1-2.6,2.5s1.2,2.5,2.6,2.5c1.5,0,2.7-1.1,2.7-2.5C961.5,112.3,960.3,111.2,958.8,111.2z"/>
				<g>
					<rect x="956.7" y="118.6" width="4.3" height="15.5"/>
				</g>
			</g>
			<g>
				<path d="M908.9,111.2c-1.4,0-2.6,1.1-2.6,2.5s1.2,2.5,2.6,2.5c1.5,0,2.7-1.1,2.7-2.5C911.6,112.3,910.4,111.2,908.9,111.2z"/>
				<g>
					<rect x="906.8" y="118.6" width="4.3" height="15.5"/>
				</g>
			</g>
			<rect x="914.9" y="110.1" width="4.3" height="24"/>
			<path d="M1000,121.8c2.8,0,4.1,2.3,4.1,4.5c0,2.3-1.5,4.6-4.1,4.6s-4.1-2.3-4.1-4.5C995.9,124.2,997.5,121.8,1000,121.8z
				 M1000.9,118.2c-2.7,0-4.3,1.7-4.9,2.4h-0.1v-2h-4.1v23.1h4.3v-9.5h0.1c1.1,1.2,3,2.3,5,2.3c4.4,0,7.5-3.5,7.5-8.2
				C1008.6,121.6,1005.2,118.2,1000.9,118.2z"/>
		</g>
	</g>
	<g>
		<path class="st6" d="M413.6,15.6h9v36h-9V15.6z M451.7,14.5c-5.3,0-9.6,3.2-11.2,6.8h-0.1v-5.8h-8.5v36h9V31.8
			c0-4.8,2.7-9.8,8.4-9.8c5.8,0,6.8,5.3,6.8,9.6v20h9V29.1C465,21.8,461.1,14.5,451.7,14.5z M529.2,35.4c0,4.8-2.7,9.8-8.4,9.8
			c-5.8,0-6.8-5.3-6.8-9.6v-20h-9v22.5c0,7.3,3.9,14.5,13.3,14.5c5.3,0,9.6-3.2,11.2-6.8h0.2v5.8h8.5v-36h-9V35.4z M547.4,51.6h9
			v-36h-9V51.6z M469.6,23.5h10.1v28.1h9V23.5h10.1v-8h-29.2V23.5z M484.2,10.9c3,0,5.4-2.4,5.4-5.4s-2.4-5.4-5.4-5.4
			s-5.4,2.4-5.4,5.4S481.2,10.9,484.2,10.9z M562.7,15.6v8h10.1v28.1h9V23.5h10.1v-8h-29.2L562.7,15.6L562.7,15.6z M577.3,10.9
			c3,0,5.4-2.4,5.4-5.4s-2.4-5.4-5.4-5.4s-5.4,2.4-5.4,5.4C571.9,8.4,574.3,10.9,577.3,10.9z"/>
		<path class="st6" d="M594.1,48.7c0-0.6-0.5-0.9-1.1-0.9h-1v3h0.5v-1.2h0.4l0.7,1.2h0.6l-0.8-1.3C593.8,49.4,594.1,49.1,594.1,48.7
			z M592.4,49.1v-0.8h0.5c0.3,0,0.6,0.1,0.6,0.4c0,0.4-0.4,0.4-0.7,0.4C592.8,49.1,592.4,49.1,592.4,49.1z M592.9,46.7
			c-1.5,0-2.7,1.2-2.7,2.7s1.2,2.6,2.7,2.6s2.7-1.2,2.7-2.6C595.6,47.9,594.4,46.7,592.9,46.7z M592.9,51.6c-1.2,0-2.2-1-2.2-2.2
			s1-2.2,2.2-2.2s2.2,1,2.2,2.2C595.2,50.6,594.2,51.6,592.9,51.6z"/>
	</g>
</g>
</svg>
