<?xml version="1.0" encoding="UTF-8"?>
<svg width="155px" height="36px" viewBox="0 0 155 36" version="1.1" xmlns="http://www.w3.org/2000/svg" xmlns:xlink="http://www.w3.org/1999/xlink">
    <!-- Generator: Sketch 63.1 (92452) - https://sketch.com -->
    <title>Logo/Dark/no-tagline</title>
    <desc>Created with Sketch.</desc>
    <g id="Symbols" stroke="none" stroke-width="1" fill="none" fill-rule="evenodd">
        <g id="Main-Navigation" transform="translate(-96.000000, -75.000000)" fill="#EF4126">
            <g id="Logo">
                <g transform="translate(0.000000, 48.000000)">
                    <g transform="translate(96.000000, 27.000000)">
                        <g id="Combined-Shape">
                            <path d="M17.9485714,20.7573 C19.7172857,20.7573 22.8814286,23.9377286 23.7227143,24.7790143 C24.6107143,25.6670143 25.0542857,26.9990143 24.6102857,28.3305857 C23.985,30.2077286 18.8365714,34.9931571 17.9485714,35.8811571 C17.0605714,34.9931571 11.9121429,30.2077286 11.2864286,28.3305857 C10.8428571,26.9990143 11.2864286,25.6670143 12.174,24.7790143 L12.3648416,24.5884581 C13.4178075,23.5405887 16.2939677,20.7573 17.9485714,20.7573 Z M79.5081,7.92385714 C84.2601,7.92385714 88.2458143,11.6412857 88.2458143,17.9648571 C88.2458143,24.0587143 84.1452429,28.0058571 79.0863857,28.0058571 C76.3653857,28.0058571 74.2958143,26.856 72.9162429,25.1318571 L72.9162429,35.2872857 L68.0875286,35.2872857 L68.0875286,8.46085714 L72.9162429,8.46085714 L72.9162429,11.1814286 C74.1813857,9.342 76.5955286,7.92385714 79.5081,7.92385714 Z M102.395057,7.92385714 C107.147486,7.92385714 111.132771,11.6412857 111.132771,17.9648571 C111.132771,24.0587143 107.0322,28.0058571 101.973771,28.0058571 C99.2523429,28.0058571 97.1827714,26.856 95.8032,25.1318571 L95.8032,35.2872857 L90.9744857,35.2872857 L90.9744857,8.46085714 L95.8032,8.46085714 L95.8032,11.1814286 C97.0683429,9.342 99.4824857,7.92385714 102.395057,7.92385714 Z M52.9714714,7.92385714 C55.9993286,7.92385714 57.8006143,8.92028571 58.9881857,10.6067143 L58.9881857,8.46085714 L63.8173286,8.46085714 L63.8173286,27.4692857 L58.9881857,27.4692857 L58.9881857,25.0165714 C57.8769,26.856 56.0370429,28.0058571 53.1249,28.0058571 C47.9126143,28.0058571 43.8887571,24.2884286 43.8887571,17.9648571 C43.8887571,11.6412857 48.4877571,7.92385714 52.9714714,7.92385714 Z M123.740143,7.69624286 C129.515571,7.69624286 133.197429,11.9613857 133.197429,17.3091 L133.197429,17.3091 L133.197429,19.0131 L118.287429,19.0131 C118.596429,21.9586714 120.652286,23.8182429 123.557571,23.8182429 C126.231429,23.8182429 127.782,22.4639571 128.868,20.2923857 L128.868,20.2923857 L132.622286,22.4502429 C130.915714,25.9388143 128.166429,28.0053857 123.350571,28.0053857 C118.120714,28.0053857 113.471571,23.8988143 113.471571,17.8495286 C113.471571,11.8053857 117.846429,7.69624286 123.740143,7.69624286 Z M147.587229,7.92394286 C151.6878,7.92394286 154.2558,10.5300857 154.2558,14.5153714 L154.2558,27.4693714 L149.426657,27.4693714 L149.426657,16.5086571 C149.426657,14.0173714 148.277229,12.4462286 145.5558,12.4462286 C142.988229,12.4462286 141.1488,14.5925143 141.1488,17.8115143 L141.1488,27.4693714 L136.319657,27.4693714 L136.319657,8.46051429 L141.1488,8.46051429 L141.1488,11.5265143 C142.566514,9.34208571 144.827657,7.92394286 147.587229,7.92394286 Z M28.3406571,11.2788857 C30.2178,11.9041714 35.0032286,17.0526 35.8912286,17.9406 C35.0032286,18.8286 30.2178,23.9770286 28.3406571,24.6023143 C27.0090857,25.0463143 25.6770857,24.6027429 24.7890857,23.7147429 C23.9478,22.8734571 20.7673714,19.7093143 20.7673714,17.9406 C20.7673714,16.1718857 23.9478,13.0077429 24.7890857,12.1664571 C25.6770857,11.2784571 27.0090857,10.8348857 28.3406571,11.2788857 Z M11.1021857,12.1664571 C11.9434714,13.0077429 15.1234714,16.1718857 15.1234714,17.9406 C15.1234714,19.7093143 11.9434714,22.8734571 11.1021857,23.7147429 C10.2141857,24.6027429 8.88218571,25.0463143 7.55061429,24.6023143 C5.67347143,23.9770286 0.888042857,18.8286 4.28571428e-05,17.9406 C0.888042857,17.0526 5.67347143,11.9041714 7.55061429,11.2788857 C8.88218571,10.8348857 10.2141857,11.2784571 11.1021857,12.1664571 Z M54.0450429,12.4465714 C50.9786143,12.4465714 48.7941857,14.7458571 48.7941857,17.9648571 C48.7941857,21.1842857 50.9786143,23.4835714 54.0450429,23.4835714 C57.1106143,23.4835714 59.2950429,21.1842857 59.2950429,17.9648571 C59.2950429,14.7458571 57.1106143,12.4465714 54.0450429,12.4465714 Z M77.9751,12.4465714 C74.8705286,12.4465714 72.6098143,14.8607143 72.6098143,17.9648571 C72.6098143,21.0694286 74.8705286,23.4835714 77.9751,23.4835714 C81.0796714,23.4835714 83.3403857,21.0694286 83.3403857,17.9648571 C83.3403857,14.8607143 81.0796714,12.4465714 77.9751,12.4465714 Z M100.862057,12.4465714 C97.7574857,12.4465714 95.4967714,14.8607143 95.4967714,17.9648571 C95.4967714,21.0694286 97.7574857,23.4835714 100.862057,23.4835714 C103.966629,23.4835714 106.227343,21.0694286 106.227343,17.9648571 C106.227343,14.8607143 103.966629,12.4465714 100.862057,12.4465714 Z M123.557571,11.4183857 C120.923571,11.4183857 119.023714,13.1626714 118.287429,15.4495286 L118.287429,15.4495286 L128.596286,15.4495286 C128.131286,12.9689571 126.349714,11.4183857 123.557571,11.4183857 Z M17.9485714,0 C18.8365714,0.888 23.985,5.67342857 24.6102857,7.55057143 C25.0542857,8.88214286 24.6107143,10.2141429 23.7227143,11.1021429 C22.8814286,11.9434286 19.7172857,15.1238571 17.9485714,15.1238571 C16.1798571,15.1238571 13.0152857,11.9434286 12.174,11.1021429 C11.2864286,10.2141429 10.8428571,8.88214286 11.2864286,7.55057143 C11.9121429,5.67342857 17.0605714,0.888 17.9485714,0 Z"></path>
                        </g>
                    </g>
                </g>
            </g>
        </g>
    </g>
</svg>