<?xml version="1.0" encoding="UTF-8"?>
<svg width="144px" height="125px" viewBox="0 0 144 125" version="1.1" xmlns="http://www.w3.org/2000/svg" xmlns:xlink="http://www.w3.org/1999/xlink">
    <title>Power</title>
    <defs>
        <filter x="-10.5%" y="-11.3%" width="121.0%" height="123.6%" filterUnits="objectBoundingBox" id="filter-1">
            <feOffset dx="0" dy="2" in="SourceAlpha" result="shadowOffsetOuter1"></feOffset>
            <feGaussianBlur stdDeviation="2" in="shadowOffsetOuter1" result="shadowBlurOuter1"></feGaussianBlur>
            <feColorMatrix values="0 0 0 0 0.0941176471   0 0 0 0 0.560784314   0 0 0 0 1  0 0 0 0.5 0" type="matrix" in="shadowBlurOuter1" result="shadowMatrixOuter1"></feColorMatrix>
            <feMerge>
                <feMergeNode in="shadowMatrixOuter1"></feMergeNode>
                <feMergeNode in="SourceGraphic"></feMergeNode>
            </feMerge>
        </filter>
    </defs>
    <g id="Page-1" stroke="none" stroke-width="1" fill="none" fill-rule="evenodd">
        <g id="Home" transform="translate(-530.000000, -1252.000000)">
            <g id="Power" filter="url(#filter-1)" transform="translate(540.000000, 1261.000000)">
                <path d="M121,46.5 C121,72.1266667 100.126667,93 74.5,93 C48.8733333,93 28,64.6866667 28,46.5 C28,20.8733333 48.8733333,0 74.5,0 C100.126667,0 121,20.8733333 121,46.5 Z" id="Path" fill="#FFFFFF" fill-rule="nonzero"></path>
                <path d="M117.82,22.7953488 L121.94,17 L111.228,17 L93.718,17 C81.152,17 68.38,21.9674419 60.14,30.8674419 C49.84,39.9744186 42.012,43.9069767 29.24,43.9069767 L21,43.9069767 L33.36,56.3255814 L25.12,56.3255814 L37.48,68.744186 L25.12,68.744186 L37.48,81.1627907 L39.54,81.1627907 C53.548,81.1627907 70.44,87.372093 70.44,106 L72.5,106 C84.86,106 93.924,93.5813953 90.422,81.5767442 L88.98,75.9883721 L88.98,67.7093023 L99.074,57.5674419 C99.692,58.1883721 100.516,58.8093023 101.34,59.4302326 L109.58,63.5697674 L109.58,69.7790698 L119.88,73.9186047 L124,69.7790698 L124,51.1511628 C124,51.1511628 124,35.0069767 124,32.5232558 C124,30.0395349 121.734,25.2790698 117.82,22.7953488 Z" id="Path" fill="#188FFF" fill-rule="nonzero"></path>
                <path d="M99.28,41.0072464 C96.602,43.1086957 95.16,46.4710145 95.16,49.2028986 C95.16,52.5652174 96.808,56.557971 101.34,59.5 L109.58,63.4927536 L109.58,69.7971014 L119.88,74 L124,69.7971014 L124,50.884058 C124,50.884058 124,34.4927536 124,31.9710145 C124,29.4492754 121.734,24.615942 117.82,21.884058 L121.94,16 L111.228,16 L93.718,16 C81.152,16.2101449 68.38,21.2536232 60.14,30.2898551 L60.14,30.2898551 C49.84,39.5362319 42.012,43.5289855 29.24,43.5289855 L21,43.5289855" id="Path" stroke="#2A5082" stroke-width="2"></path>
                <g id="Group" transform="translate(0.000000, 27.108034)" stroke="#2A5082" stroke-width="2">
                    <path d="M0,29.1962393 L28.7754386,29.1962393 C46.7859649,29.1962393 59.6210526,20.0853561 66.245614,14.2875214 C72.8701754,8.28262108 79.0807018,0 91.0877193,0" id="Path"></path>
                    <line x1="113.859649" y1="11.5956695" x2="118" y2="15.7369801" id="Path"></line>
                    <path d="M68.3157895,27.125584 C59.6210526,36.2364672 47.4070175,41.6201709 35.1929825,41.6201709 L10.3508772,41.6201709" id="Path"></path>
                    <path d="M99.3684211,30.8527635 L89.0175439,40.7919088 L89.0175439,49.0745299 L90.4666667,54.6652991 C93.9859649,66.4680342 84.877193,78.8919658 72.4561404,78.8919658 L72.4561404,78.8919658 L70.3859649,78.8919658 C70.3859649,60.2560684 53.4105263,54.0441026 39.3333333,54.0441026 L22.7719298,54.0441026" id="Path"></path>
                </g>
            </g>
        </g>
    </g>
</svg>