<?xml version="1.0" encoding="UTF-8"?>
<svg width="108px" height="106px" viewBox="0 0 108 106" version="1.1" xmlns="http://www.w3.org/2000/svg" xmlns:xlink="http://www.w3.org/1999/xlink">
    <title>Collaboration</title>
    <g id="Page-1" stroke="none" stroke-width="1" fill="none" fill-rule="evenodd">
        <g id="Home" transform="translate(-539.000000, -1645.000000)">
            <g id="Collaboration" transform="translate(540.000000, 1646.000000)">
                <path d="M77.6023038,75.6023038 C63.738709,89.4658987 41.2613658,89.4658987 27.3976962,75.6023038 C13.5341013,61.738709 13.5341013,39.2613658 27.3976962,25.3976962 C41.261291,11.5341013 63.7386342,11.5341013 77.6023038,25.3976962 C91.4658987,39.261291 91.4658987,61.7386342 77.6023038,75.6023038 Z" id="Path" fill="#FFFFFF" fill-rule="nonzero"></path>
                <path d="M27,94 C14.25,86.3523316 5.0625,73.2953368 3,58" id="Path" stroke="#188FFF" stroke-width="2"></path>
                <g id="Group" stroke-width="2">
                    <path d="M103.35,58.5355191 C101.078571,73.8797814 92.1821429,86.9508197 79.5,94.7176685" id="Path" stroke="#188FFF"></path>
                    <path d="M29.7178571,5.49362477 C36.5321429,2.08378871 44.4821429,0 52.6214286,0 C60.95,0 68.7107143,1.89435337 75.525,5.49362477" id="Path" stroke="#188FFF"></path>
                    <path d="M87.0714286,50.9581056 C93.8857143,50.9581056 98.4285714,49.8214936 106,47.1693989 L106,41.4863388 C106,38.4553734 95.5892857,33.9089253 87.0714286,33.9089253 C78.5535714,33.9089253 68.1428571,38.4553734 68.1428571,41.4863388 L68.1428571,47.1693989 C75.7142857,49.8214936 80.2571429,50.9581056 87.0714286,50.9581056 Z" id="Path" stroke="#2A5082" fill="#188FFF" fill-rule="nonzero"></path>
                    <path d="M87.0714286,11.1766849 C82.15,11.1766849 77.6071429,15.154827 77.6071429,20.0801457 L77.6071429,26.8998179 C77.6071429,31.8251366 82.15,35.8032787 87.0714286,35.8032787 C91.9928571,35.8032787 96.5357143,31.8251366 96.5357143,26.8998179 L96.5357143,20.0801457 C96.5357143,15.154827 91.9928571,11.1766849 87.0714286,11.1766849 Z" id="Path" stroke="#2A5082" fill="#FFFFFF" fill-rule="nonzero"></path>
                    <path d="M53,104 C59.8142857,104 64.3571429,102.863388 71.9285714,100.211293 L71.9285714,94.5282332 C71.9285714,91.4972678 61.5178571,86.9508197 53,86.9508197 C44.4821429,86.9508197 34.0714286,91.4972678 34.0714286,94.5282332 L34.0714286,100.211293 C41.6428571,102.863388 46.1857143,104 53,104 Z" id="Path" stroke="#2A5082" fill="#188FFF" fill-rule="nonzero"></path>
                    <path d="M53,64.2185792 C48.0785714,64.2185792 43.5357143,68.1967213 43.5357143,73.1220401 L43.5357143,79.9417122 C43.5357143,84.867031 48.0785714,88.845173 53,88.845173 C57.9214286,88.845173 62.4642857,84.867031 62.4642857,79.9417122 L62.4642857,73.1220401 C62.4642857,68.1967213 57.9214286,64.2185792 53,64.2185792 Z" id="Path" stroke="#2A5082" fill="#FFFFFF" fill-rule="nonzero"></path>
                    <path d="M18.9285714,50.9581056 C25.7428571,50.9581056 30.2857143,49.8214936 37.8571429,47.1693989 L37.8571429,41.4863388 C37.8571429,38.4553734 27.4464286,33.9089253 18.9285714,33.9089253 C10.4107143,33.9089253 0,38.4553734 0,41.4863388 L0,47.1693989 C7.57142857,49.8214936 12.1142857,50.9581056 18.9285714,50.9581056 Z" id="Path" stroke="#2A5082" fill="#188FFF" fill-rule="nonzero"></path>
                    <path d="M18.9285714,11.1766849 C14.0071429,11.1766849 9.46428571,15.154827 9.46428571,20.0801457 L9.46428571,26.8998179 C9.46428571,31.8251366 14.0071429,35.8032787 18.9285714,35.8032787 C23.85,35.8032787 28.3928571,31.8251366 28.3928571,26.8998179 L28.3928571,20.0801457 C28.3928571,15.154827 23.85,11.1766849 18.9285714,11.1766849 Z" id="Path" stroke="#2A5082" fill="#FFFFFF" fill-rule="nonzero"></path>
                </g>
            </g>
        </g>
    </g>
</svg>