<?xml version="1.0" encoding="UTF-8"?>
<svg width="123px" height="33px" viewBox="0 0 123 33" version="1.1" xmlns="http://www.w3.org/2000/svg" xmlns:xlink="http://www.w3.org/1999/xlink">
    <!-- Generator: sketchtool 55.2 (78181) - https://sketchapp.com -->
    <title>8CDC3CFF-9D82-4905-8F63-19B46EEC6B17</title>
    <desc>Created with sketchtool.</desc>
    <g id="Home" stroke="none" stroke-width="1" fill="none" fill-rule="evenodd">
        <g id="Home---Desktop" transform="translate(-83.000000, -19.000000)">
            <g id="Global-Nav-/-White" transform="translate(-1.000000, 1.000000)">
                <g id="Logo---Colored">
                    <g transform="translate(84.000000, 18.558824)">
                        <path d="M26.772447,15.9212128 C26.772447,19.4228395 23.9221965,22.3004139 20.376763,22.3004139 L16.6922929,22.3004139 C16.275183,22.3004139 15.9623507,21.9883878 15.9623507,21.5723529 L15.9623507,15.9212128 C15.9623507,13.7716993 14.2243931,12.0728903 12.1040848,12.0728903 C9.94901734,12.0728903 8.24581888,13.8063689 8.24581888,15.9212128 L8.24581888,21.5723529 C8.24581888,21.9883878 7.93298651,22.3004139 7.51587669,22.3004139 L6.47310212,22.3004139 C6.05599229,22.3004139 5.74315992,21.9883878 5.74315992,21.5723529 L5.74315992,15.9212128 C5.74315992,12.4195861 8.5934104,9.54201162 12.1388439,9.54201162 C15.6495183,9.54201162 18.5345279,12.3849165 18.5345279,15.9212128 L18.5345279,19.7695352 L20.4115222,19.7695352 C22.5665896,19.7695352 24.2697881,18.0360566 24.2697881,15.9212128 L24.2697881,10.2700726 C24.2697881,9.85403776 24.5826204,9.54201162 24.9997303,9.54201162 L26.0425048,9.54201162 C26.4596146,9.54201162 26.772447,9.85403776 26.772447,10.2700726 L26.772447,10.3047422 L26.772447,15.9212128 Z M15.9971098,0.354575163 C7.34208092,0.354575163 0.355491329,7.32315904 0.355491329,15.9558824 C0.355491329,24.5886057 7.34208092,31.5571895 15.9971098,31.5571895 C24.6521387,31.5571895 31.6387283,24.5886057 31.6387283,15.9558824 C31.6387283,7.32315904 24.6521387,0.354575163 15.9971098,0.354575163 L15.9971098,0.354575163 Z" id="Fill-1" fill="#0095D3"></path>
                        <path d="M45.1473988,9.57352941 C41.6349899,9.57352941 38.7485549,12.4178389 38.7485549,15.9558824 L38.7485549,21.9566816 C38.7485549,22.1648018 38.9224365,22.3382353 39.1310945,22.3382353 L39.6527394,22.3382353 C39.8613973,22.3382353 40.035279,22.1648018 40.035279,21.9566816 L40.035279,15.9558824 C40.035279,13.1462596 42.3305165,10.8569373 45.1473988,10.8569373 C47.9642812,10.8569373 50.2595187,13.1462596 50.2595187,15.9558824 L50.2595187,21.9566816 C50.2595187,22.1648018 50.4334004,22.3382353 50.6420583,22.3382353 L51.1637032,22.3382353 C51.3723611,22.3382353 51.5462428,22.1648018 51.5462428,21.9566816 L51.5462428,15.9558824 C51.5114664,12.4178389 48.6598077,9.57352941 45.1473988,9.57352941" id="Fill-3" fill="#666666"></path>
                        <path d="M60.112811,21.0548274 C57.2959286,21.0548274 55.0006911,18.7655051 55.0006911,15.9558824 C55.0006911,13.1462596 57.2959286,10.8569373 60.112811,10.8569373 C62.9296934,10.8569373 65.2249309,13.1462596 65.2249309,15.9558824 C65.1901546,18.7655051 62.9296934,21.0548274 60.112811,21.0548274 M66.4768786,21.9566816 L66.4768786,15.9558824 C66.4768786,12.4525256 63.6252199,9.57352941 60.0780347,9.57352941 C56.5308495,9.57352941 53.6791908,12.4178389 53.6791908,15.9558824 C53.6791908,19.4592391 56.5308495,22.3382353 60.0780347,22.3382353 C62.1646142,22.3382353 64.0077595,21.332321 65.1901546,19.8061061 L65.1901546,21.9566816 C65.1901546,22.1648018 65.3640362,22.3382353 65.5726941,22.3382353 L66.094339,22.3382353 C66.3377733,22.3382353 66.4768786,22.1648018 66.4768786,21.9566816" id="Fill-5" fill="#666666"></path>
                        <path d="M101.315029,21.0548274 C98.4981465,21.0548274 96.202909,18.7655051 96.202909,15.9558824 C96.202909,13.1462596 98.4981465,10.8569373 101.315029,10.8569373 C104.131911,10.8569373 106.427149,13.1462596 106.427149,15.9558824 C106.427149,18.7655051 104.131911,21.0548274 101.315029,21.0548274 L101.315029,21.0548274 Z M107.713873,15.9558824 L107.713873,15.9558824 C107.713873,12.4525256 104.862214,9.57352941 101.315029,9.57352941 C97.80262,9.57352941 94.916185,12.4178389 94.916185,15.9558824 C94.916185,19.4592391 97.7678437,22.3382353 101.315029,22.3382353 C103.401608,22.3382353 105.244754,21.332321 106.427149,19.8061061 L106.427149,21.9566816 C106.427149,22.1648018 106.60103,22.3382353 106.809688,22.3382353 L107.331333,22.3382353 C107.539991,22.3382353 107.713873,22.1648018 107.713873,21.9566816 L107.713873,15.9558824 Z" id="Fill-7" fill="#666666"></path>
                        <path d="M94.2052023,9.95508312 C94.2052023,9.74696292 94.0291075,9.57352941 93.8177938,9.57352941 L93.2895095,9.57352941 C93.0781957,9.57352941 92.902101,9.74696292 92.902101,9.95508312 L92.902101,15.9558824 C92.902101,18.7655051 90.5776499,21.0548274 87.7249145,21.0548274 L84.1325811,21.0548274 L84.1325811,15.9558824 L84.1325811,9.95508312 C84.1325811,9.74696292 83.9564863,9.57352941 83.7451726,9.57352941 L83.2168883,9.57352941 C83.0055745,9.57352941 82.8294798,9.74696292 82.8294798,9.95508312 L82.8294798,15.9558824 L82.8294798,21.0548274 L82.8294798,22.3382353 L88.0066662,22.3382353 C91.4581238,22.1994885 94.2052023,19.3898657 94.2052023,15.9558824 L94.2052023,9.95508312 Z" id="Fill-9" fill="#666666"></path>
                        <path d="M74.3151234,9.57352941 C70.7931439,9.57352941 67.8988439,12.4178389 67.8988439,15.9558824 L67.8988439,21.9566816 C67.8988439,22.1648018 68.0731994,22.3382353 68.2824259,22.3382353 L68.8054921,22.3382353 C69.0147186,22.3382353 69.189074,22.1648018 69.189074,21.9566816 L69.189074,15.9558824 C69.189074,13.1462596 71.4905656,10.8569373 74.3151234,10.8569373 C77.0001969,10.8569373 79.2319463,12.9381394 79.4063017,15.5743286 C79.4063017,15.7824488 79.5806571,15.9558824 79.7898836,15.9558824 L80.3129499,15.9558824 C80.5221764,15.9558824 80.6965318,15.7824488 80.6965318,15.5743286 C80.5221764,12.2097187 77.7324896,9.57352941 74.3151234,9.57352941" id="Fill-11" fill="#666666"></path>
                        <path d="M116.271782,9.60802862 C112.754595,9.60802862 109.864233,12.4369634 109.864233,15.9558824 L109.864233,21.9242448 C109.864233,22.1312401 110.038351,22.3037361 110.247293,22.3037361 L110.769647,22.3037361 C110.978589,22.3037361 111.152707,22.1312401 111.152707,21.9242448 L111.152707,15.9558824 C111.152707,13.1614467 113.451068,10.8844992 116.271782,10.8844992 C118.953203,10.8844992 121.181916,12.9544515 121.356034,15.5763911 C121.356034,15.7833863 121.530152,15.9558824 121.739094,15.9558824 L122.261449,15.9558824 C122.47039,15.9558824 122.644509,15.7833863 122.644509,15.5763911 C122.47039,12.2299682 119.684499,9.60802862 116.271782,9.60802862" id="Fill-13" fill="#666666"></path>
                    </g>
                </g>
            </g>
        </g>
    </g>
</svg>