<?xml version="1.0" encoding="UTF-8"?>
<svg width="121px" height="107px" viewBox="0 0 121 107" version="1.1" xmlns="http://www.w3.org/2000/svg" xmlns:xlink="http://www.w3.org/1999/xlink">
    <title>Settings</title>
    <g id="Page-1" stroke="none" stroke-width="1" fill="none" fill-rule="evenodd">
        <g id="Home" transform="translate(-939.000000, -1644.000000)" fill-rule="nonzero">
            <g id="Settings" transform="translate(940.000000, 1645.000000)">
                <path d="M109.455857,12.5441425 C123.514714,26.6029992 123.514714,49.3970008 109.455857,63.4558575 C95.3970008,77.5147142 72.6029992,77.5147142 58.5441425,63.4558575 C44.4852858,49.3970008 44.4852858,26.6029992 58.5441425,12.5441425 C72.6029992,-1.51471417 95.3970008,-1.51471417 109.455857,12.5441425" id="Path" fill="#FFFFFF"></path>
                <path d="M74,26.4986737 L70.4668435,18.0583554 C69.4854111,17.6657825 68.8965517,17.469496 67.9151194,17.0769231 L61.8302387,19.6286472 C61.0450928,19.4323607 60.4562334,19.2360743 59.4748011,19.0397878 C58.1007958,17.2732095 56.530504,15.8992042 54.9602122,14.5251989 C54.7639257,13.7400531 54.5676393,13.1511936 54.3713528,12.1697613 L56.9230769,6.08488064 C56.530504,5.10344828 56.3342175,4.51458886 55.9416446,3.5331565 L47.5013263,0 C46.5198939,0.392572944 45.9310345,0.588859416 44.9496021,0.981432361 L42.397878,7.066313 C41.6127321,7.45888594 41.0238727,7.85145889 40.2387268,8.24403183 C38.0795756,8.04774536 35.9204244,8.04774536 33.7612732,8.24403183 C32.9761273,7.85145889 32.3872679,7.45888594 31.602122,7.066313 L29.0503979,0.981432361 C28.0689655,0.588859416 27.4801061,0.392572944 26.4986737,0 L18.0583554,3.5331565 C17.6657825,4.51458886 17.469496,5.10344828 17.0769231,6.08488064 L19.6286472,12.1697613 C19.4323607,12.9549072 19.2360743,13.5437666 19.0397878,14.5251989 C17.2732095,15.8992042 15.8992042,17.469496 14.5251989,19.0397878 C13.7400531,19.2360743 13.1511936,19.4323607 12.1697613,19.6286472 L6.08488064,17.0769231 C5.10344828,17.469496 4.51458886,17.6657825 3.5331565,18.0583554 L0,26.4986737 C0.392572944,27.4801061 0.588859416,28.0689655 0.981432361,29.0503979 L7.26259947,31.602122 C7.65517241,32.3872679 8.04774536,32.9761273 8.4403183,33.7612732 C8.24403183,35.9204244 8.24403183,38.0795756 8.4403183,40.2387268 C8.04774536,41.0238727 7.65517241,41.6127321 7.26259947,42.397878 L1.17771883,44.9496021 C0.785145889,45.9310345 0.588859416,46.5198939 0.196286472,47.5013263 L3.72944297,55.9416446 C4.71087533,56.137931 5.29973475,56.3342175 6.28116711,56.7267905 L12.3660477,54.1750663 C13.1511936,54.3713528 13.7400531,54.5676393 14.7214854,54.7639257 C16.0954907,56.530504 17.6657825,57.9045093 19.2360743,59.2785146 C19.4323607,60.0636605 19.6286472,60.6525199 19.8249337,61.6339523 L17.2732095,67.9151194 C17.6657825,68.8965517 17.862069,69.4854111 18.2546419,70.4668435 L26.6949602,74 C27.6763926,73.6074271 28.265252,73.4111406 29.2466844,73.0185676 L31.7984085,66.933687 C32.5835544,66.5411141 33.1724138,66.1485411 33.9575597,65.7559682 C36.1167109,65.9522546 38.2758621,65.9522546 40.4350133,65.7559682 C41.2201592,66.1485411 41.8090186,66.5411141 42.5941645,66.933687 L45.1458886,73.0185676 C46.127321,73.4111406 46.7161804,73.6074271 47.6976127,74 L56.137931,70.4668435 C56.530504,69.4854111 56.7267905,68.8965517 57.1193634,67.9151194 L54.3713528,61.6339523 C54.5676393,60.8488064 54.7639257,60.2599469 54.9602122,59.2785146 C56.7267905,57.9045093 58.1007958,56.3342175 59.4748011,54.7639257 C60.2599469,54.5676393 60.8488064,54.3713528 61.8302387,54.1750663 L67.9151194,56.7267905 C68.8965517,56.3342175 69.4854111,56.137931 70.4668435,55.7453581 L74,47.3050398 C73.6074271,46.3236074 73.4111406,45.734748 73.0185676,44.7533156 L66.933687,42.2015915 C66.5411141,41.4164456 66.1485411,40.8275862 65.7559682,40.0424403 C65.9522546,37.8832891 65.9522546,35.7241379 65.7559682,33.5649867 C66.1485411,32.7798408 66.5411141,32.1909814 66.933687,31.4058355 L73.0185676,28.8541114 C73.4111406,28.0689655 73.6074271,27.4801061 74,26.4986737 Z" id="Path" stroke="#2A5082" stroke-width="2" fill="#188FFF" stroke-linejoin="round"></path>
                <path d="M116,72.3228346 L114.039216,67.7952756 C113.058824,67.4015748 112.470588,67.2047244 111.490196,66.8110236 L108.352941,68.1889764 C107.568627,67.992126 106.980392,67.7952756 106,67.5984252 C105.215686,66.6141732 104.431373,65.8267717 103.45098,65.0393701 C103.254902,64.2519685 103.058824,63.6614173 102.862745,62.6771654 L104.235294,59.5275591 C103.843137,58.5433071 103.647059,57.9527559 103.254902,56.9685039 L98.745098,55 C97.7647059,55.3937008 97.1764706,55.5905512 96.1960784,55.984252 L94.8235294,59.1338583 C94.0392157,59.5275591 93.4509804,59.9212598 92.8627451,60.3149606 C91.6862745,60.1181102 90.5098039,60.1181102 89.3333333,60.3149606 C88.5490196,59.9212598 87.9607843,59.5275591 87.372549,59.1338583 L85.8039216,55.984252 C84.8235294,55.5905512 84.2352941,55.3937008 83.254902,55 L78.745098,56.9685039 C78.3529412,57.9527559 78.1568627,58.5433071 77.7647059,59.5275591 L79.1372549,62.6771654 C78.9411765,63.4645669 78.745098,64.0551181 78.5490196,65.0393701 C77.5686275,65.8267717 76.7843137,66.6141732 76,67.5984252 C75.2156863,67.7952756 74.627451,67.992126 73.6470588,68.1889764 L70.5098039,66.8110236 C69.5294118,67.2047244 68.9411765,67.4015748 67.9607843,67.7952756 L66,72.3228346 C66.3921569,73.3070866 66.5882353,73.8976378 66.9803922,74.8818898 L70.1176471,76.2598425 C70.5098039,77.0472441 70.9019608,77.6377953 71.2941176,78.2283465 C71.0980392,79.4094488 71.0980392,80.5905512 71.2941176,81.7716535 C70.9019608,82.5590551 70.5098039,83.1496063 70.1176471,83.7401575 L66.9803922,85.1181102 C66.5882353,86.1023622 66.3921569,86.6929134 66,87.6771654 L67.9607843,92.2047244 C68.9411765,92.5984252 69.5294118,92.7952756 70.5098039,93.1889764 L73.6470588,91.8110236 C74.4313725,92.007874 75.0196078,92.2047244 76,92.4015748 C76.7843137,93.3858268 77.5686275,94.1732283 78.5490196,94.9606299 C78.745098,95.7480315 78.9411765,96.3385827 79.1372549,97.3228346 L77.7647059,100.472441 C78.1568627,101.456693 78.3529412,102.047244 78.745098,103.031496 L83.254902,105 C84.2352941,104.606299 84.8235294,104.409449 85.8039216,104.015748 L87.1764706,100.866142 C87.9607843,100.472441 88.5490196,100.07874 89.1372549,99.6850394 C90.3137255,99.8818898 91.4901961,99.8818898 92.6666667,99.6850394 C93.4509804,100.07874 94.0392157,100.472441 94.627451,100.866142 L96,104.015748 C96.9803922,104.409449 97.5686275,104.606299 98.5490196,105 L103.058824,103.031496 C103.45098,102.047244 103.647059,101.456693 104.039216,100.472441 L102.666667,97.3228346 C102.862745,96.5354331 103.058824,95.9448819 103.254902,94.9606299 C104.235294,94.1732283 105.019608,93.3858268 105.803922,92.4015748 C106.588235,92.2047244 107.176471,92.007874 108.156863,91.8110236 L111.294118,93.1889764 C112.27451,92.7952756 112.862745,92.5984252 113.843137,92.2047244 L115.803922,87.6771654 C115.411765,86.6929134 115.215686,86.1023622 114.823529,85.1181102 L111.686275,83.7401575 C111.294118,82.9527559 110.901961,82.3622047 110.509804,81.7716535 C110.705882,80.5905512 110.705882,79.4094488 110.509804,78.2283465 C110.901961,77.4409449 111.294118,76.8503937 111.686275,76.2598425 L114.823529,74.8818898 C115.411765,73.8976378 115.607843,73.503937 116,72.3228346 L116,72.3228346 Z" id="Path" stroke="#2A5082" stroke-width="2" fill="#FFFFFF" stroke-linejoin="round"></path>
                <path d="M97.3666163,74.9603669 C100.730905,78.3246561 100.730905,83.7792251 97.3666163,87.1435143 C94.0023271,90.5078035 88.5477581,90.5078035 85.1834689,87.1435143 C81.8191798,83.7792251 81.8191798,78.3246561 85.1834689,74.9603669 C88.5477581,71.5960778 94.0023271,71.5960778 97.3666163,74.9603669" id="Path" stroke="#2A5082" stroke-width="2.0000505" fill="#FFFFFF" transform="translate(91.275043, 81.051941) rotate(-22.500428) translate(-91.275043, -81.051941) "></path>
                <path d="M47.0459402,46.0459402 C41.7738605,51.3180199 33.2261395,51.3180199 27.9540598,46.0459402 C22.6819801,40.7738605 22.6819801,32.2261395 27.9540598,26.9540598 C33.2261395,21.6819801 41.7738605,21.6819801 47.0459402,26.9540598 C52.3180199,32.2261395 52.3180199,40.7738605 47.0459402,46.0459402 Z" id="Path" stroke="#2A5082" stroke-width="2" fill="#FFFFFF"></path>
            </g>
        </g>
    </g>
</svg>