<?xml version="1.0" encoding="UTF-8"?>
<svg width="108px" height="130px" viewBox="0 0 108 130" version="1.1" xmlns="http://www.w3.org/2000/svg" xmlns:xlink="http://www.w3.org/1999/xlink">
    <title>Branch Offices</title>
    <defs>
        <filter x="-14.8%" y="-11.8%" width="129.5%" height="123.6%" filterUnits="objectBoundingBox" id="filter-1">
            <feOffset dx="0" dy="2" in="SourceAlpha" result="shadowOffsetOuter1"></feOffset>
            <feGaussianBlur stdDeviation="2" in="shadowOffsetOuter1" result="shadowBlurOuter1"></feGaussianBlur>
            <feColorMatrix values="0 0 0 0 0.0941176471   0 0 0 0 0.560784314   0 0 0 0 1  0 0 0 0.5 0" type="matrix" in="shadowBlurOuter1" result="shadowMatrixOuter1"></feColorMatrix>
            <feMerge>
                <feMergeNode in="shadowMatrixOuter1"></feMergeNode>
                <feMergeNode in="SourceGraphic"></feMergeNode>
            </feMerge>
        </filter>
    </defs>
    <g id="Page-1" stroke="none" stroke-width="1" fill="none" fill-rule="evenodd">
        <g id="Home" transform="translate(-130.000000, -1254.000000)">
            <g id="Branch-Offices" filter="url(#filter-1)" transform="translate(140.000000, 1264.000005)">
                <path d="M75.1126944,34.887301 C92.2957685,52.070375 92.2957685,79.9295791 75.1126944,97.1126899 C57.9296204,114.295764 30.0704163,114.295764 12.8873056,97.1126899 C-4.29576852,79.9296158 -4.29576852,52.0704117 12.8873056,34.887301 C30.0703796,17.7042269 57.9295837,17.7042269 75.1126944,34.887301" id="Path" fill="#FFFFFF" fill-rule="nonzero"></path>
                <g id="Group" transform="translate(0.000000, -0.000000)" stroke="#2A5082" stroke-width="2">
                    <path d="M22,71.4999954 L18.3333333,71.4999954 C15.2166667,71.4999954 12.8333333,73.8833288 12.8333333,76.9999954 L12.8333333,84.3333288 L22,93.4999954 L25.6666667,89.8333288 L25.6666667,86.8999954 L29.3333333,82.4999954 L29.3333333,65.9999954" id="Path"></path>
                    <polyline id="Path" points="18.3333333 40.3333288 14.6666667 40.3333288 11 36.6666621"></polyline>
                    <path d="M0,60.4999954 L3.66666667,60.4999954 L9.16666667,65.9999954 L14.6666667,65.9999954 L14.6666667,58.6666621 L22,51.3333287 L27.5,51.3333287 L27.5,45.8333287 C27.5,42.7166621 25.1166667,40.3333287 22,40.3333287" id="Path"></path>
                    <polyline id="Path" points="62.3333333 42.1666621 64.1666667 42.1666621 67.8333333 38.4999954 77 38.4999954"></polyline>
                    <path d="M88,62.3333288 L84.3333333,62.3333288 L80.6666667,65.9999954 L73.3333333,65.9999954 L73.3333333,62.3333288 L63.9833333,53.1666621 L49.5,53.1666621 L49.5,49.4999954 C49.5,45.4666621 52.8,42.1666621 56.8333333,42.1666621 L56.8333333,42.1666621" id="Path"></path>
                    <polyline id="Path" points="42.1666667 60.4999954 42.1666667 73.3333288 48.5833333 73.3333288 53.1666667 78.0999954 53.1666667 91.6666621 59.7666667 91.6666621 66 84.8833288 66 67.8333288 58.6666667 60.4999954 47.6666667 60.4999954"></polyline>
                    <path d="M82.5,44.7333288 C85.9833333,50.9666621 88,58.2999954 88,65.9999954 C88,90.3833288 68.3833333,109.999995 44,109.999995 C19.6166667,109.999995 0,90.3833288 0,65.9999954 C0,52.0666621 6.41666667,39.7833288 16.5,31.7166621" id="Path"></path>
                    <path d="M62.3333333,26.0333288 C65.6333333,27.4999954 68.75,29.5166621 71.5,31.7166621" id="Path"></path>
                    <path d="M27.5,25.1166621 C32.6333333,23.0999954 38.1333333,21.9999954 44,21.9999954 C46.5666667,21.9999954 48.95,22.1833288 51.3333333,22.5499954" id="Path"></path>
                    <line x1="22" y1="42.1666621" x2="22" y2="16.4999954" id="Path"></line>
                    <line x1="42.1666667" y1="60.4999954" x2="42.1666667" y2="40.3333287" id="Path"></line>
                    <line x1="56.8333333" y1="43.9999954" x2="56.8333333" y2="10.9999954" id="Path"></line>
                    <path d="M33.2223833,60.2776121 C35.3702617,62.4254904 35.3702617,65.9079071 33.2223833,68.0557854 C31.074505,70.2036638 27.5920883,70.2036638 25.44421,68.0557854 C23.2963317,65.9079071 23.2963317,62.4254904 25.44421,60.2776121 C27.5920883,58.1297337 31.074505,58.1297337 33.2223833,60.2776121" id="Path" fill="#188FFF" fill-rule="nonzero"></path>
                    <path d="M46.0557167,30.9442788 C48.203595,33.0921571 48.203595,36.5745738 46.0557167,38.7224521 C43.9078383,40.8703304 40.4254217,40.8703304 38.2775433,38.7224521 C36.129665,36.5745738 36.129665,33.0921571 38.2775433,30.9442788 C40.4254217,28.7964004 43.9078383,28.7964004 46.0557167,30.9442788" id="Path" fill="#188FFF" fill-rule="nonzero"></path>
                    <line x1="77" y1="40.3333288" x2="77" y2="20.1666621" id="Path"></line>
                    <path d="M80.88905,10.7775754 C83.0369283,12.9254538 83.0369283,16.4078704 80.88905,18.5557488 C78.7411717,20.7036271 75.258755,20.7036271 73.1108767,18.5557488 C70.9629983,16.4078704 70.9629983,12.9254538 73.1108767,10.7775754 C75.258755,8.62969708 78.7411717,8.62969708 80.88905,10.7775754" id="Path" fill="#188FFF" fill-rule="nonzero"></path>
                    <path d="M60.7223833,1.61090875 C62.8702617,3.75878708 62.8702617,7.24120375 60.7223833,9.38908208 C58.574505,11.5369604 55.0920883,11.5369604 52.94421,9.38908208 C50.7963317,7.24120375 50.7963317,3.75878708 52.94421,1.61090875 C55.0920883,-0.536969583 58.574505,-0.536969583 60.7223833,1.61090875" id="Path" fill="#188FFF" fill-rule="nonzero"></path>
                    <path d="M25.88905,7.11090875 C28.0369283,9.25878708 28.0369283,12.7412037 25.88905,14.8890821 C23.7411717,17.0369604 20.258755,17.0369604 18.1108767,14.8890821 C15.9629983,12.7412038 15.9629983,9.25878708 18.1108767,7.11090875 C20.258755,4.96303042 23.7411717,4.96303042 25.88905,7.11090875" id="Path" fill="#188FFF" fill-rule="nonzero"></path>
                </g>
            </g>
        </g>
    </g>
</svg>