<svg xmlns="http://www.w3.org/2000/svg" width="153" height="30" viewBox="0 0 153 30">
    <title>
        Proxyclick
    </title>
    <path fill="#090947" d="M104.325.39h4.046v23.292h-4.044V.39zM114.367 0c-1.393 0-2.527 1.148-2.527 2.56 0 1.352 1.158 2.495 2.527 2.495 1.394 0 2.528-1.12 2.528-2.495 0-1.436-1.11-2.56-2.528-2.56zm-20.39 7.457c-4.653 0-8.16 3.592-8.16 8.356s3.562 8.356 8.29 8.356c4.3 0 6.613-2.757 7.315-5.17l-3.543-1.183c-.436 1.314-1.637 2.664-3.775 2.664-2.5 0-4.245-1.92-4.245-4.67 0-3.2 2.117-4.634 4.214-4.634 2.384 0 3.3 1.607 3.643 2.664l3.61-1.212c-.666-2.415-2.968-5.17-7.35-5.17zm18.383.488h4.047V23.68h-4.046V7.945zm-31.154 0l-4.03 9.59-4.362-9.59H68.28l6.737 13.858-.027.062L71.303 30h4.28l9.932-22.055m58.335 9.675l4.192 6.06H153l-6.454-9.15 6.266-6.585h-5.27l-5.74 6.18V.39h-4.047v23.29h4.046v-4.146l1.95-2.057m-16.158-10.02c-4.652 0-8.16 3.592-8.16 8.356s3.563 8.356 8.29 8.356c4.3 0 6.614-2.757 7.316-5.17l-3.543-1.183c-.434 1.314-1.635 2.664-3.773 2.664-2.5 0-4.245-1.92-4.245-4.67 0-3.2 2.116-4.634 4.213-4.634 2.384 0 3.3 1.607 3.643 2.664l3.61-1.212c-.666-2.415-2.968-5.17-7.35-5.17zM8.258 24.17c4.71 0 8.26-3.592 8.26-8.356 0-4.842-3.474-8.356-8.26-8.356C3.473 7.458 0 10.97 0 15.813v.04l.004.037c-.004.222-.004.4-.004.545V30h4.13v-6.863l.21.107c1.192.615 2.51.926 3.918.926zm0-13.058c2.894 0 4.213 2.437 4.213 4.702s-1.317 4.702-4.21 4.702c-2.034 0-4.085-1.454-4.085-4.702s2.052-4.702 4.084-4.702h-.002zm19.882.512v-4.13c-2.867.023-5.078.796-6.574 2.297-2.033 2.04-2.023 4.645-2.02 5.756v8.145h4.132v-8.247c-.002-.668-.006-1.912.815-2.735.86-.86 2.43-1.068 3.647-1.084zm10.332-4.167c-4.785 0-8.258 3.514-8.258 8.356 0 4.764 3.55 8.356 8.258 8.356 4.71 0 8.26-3.594 8.26-8.358 0-4.842-3.475-8.356-8.26-8.356zm0 13.058c-2.03 0-4.213-1.47-4.213-4.702 0-2.264 1.316-4.702 4.21-4.702 2.896 0 4.214 2.44 4.214 4.704s-1.32 4.702-4.212 4.7zM53.89 10.26c-.62-.91-1.258-1.846-1.558-2.315h-4.79l3.998 5.42a4.145 4.145 0 0 1-.01 4.93l-3.987 5.36h4.563l2.632-3.79a7.316 7.316 0 0 0 .063-8.25c-.402-.603-.74-1.104-.91-1.355z"/>
    <path fill="#26DB8E" d="M60.317 10.26c.62-.91 1.257-1.846 1.557-2.315h4.79l-3.998 5.42a4.145 4.145 0 0 0 .01 4.93l3.987 5.36H62.1l-2.632-3.79a7.316 7.316 0 0 1-.063-8.25l.912-1.355z"/>
</svg>
