<?xml version="1.0" encoding="UTF-8"?>
<svg width="243px" height="47px" viewBox="0 0 243 47" version="1.1" xmlns="http://www.w3.org/2000/svg" xmlns:xlink="http://www.w3.org/1999/xlink">
    <title>pulsar</title>
    <g id="Page-1" stroke="none" stroke-width="1" fill="none" fill-rule="evenodd">
        <g id="Home" transform="translate(-100.000000, -2654.000000)" fill="#FFFFFF" fill-rule="nonzero">
            <g id="pulsar" transform="translate(100.000000, 2654.000000)">
                <path d="M66,14.9758645 L49.8678689,14.9758645 C45.507541,6.54444187 40.8983607,0 34.6229508,0 C26.4540984,0 22.6131148,7.18797865 18.9019672,14.179624 L18.577377,14.7904386 L0,14.7904386 L0,18.9461592 L10.8196721,18.9461592 C14.6390164,18.9461592 15.4180328,20.2441402 15.4180328,20.2441402 C12.4209836,24.9343235 8.81803279,29.5699698 2.81311475,29.5699698 L0,29.5699698 L0,33.9329311 L2.8347541,33.9329311 C14.4767213,33.9329311 19.5619672,24.4107682 23.6409836,16.7646786 C27.3845902,9.71849617 29.9921311,5.45370155 34.6229508,5.45370155 C39.4268852,5.45370155 44.4796721,15.990253 48.9265574,25.2942678 C49.5757377,26.6467858 50.2357377,28.032026 50.9065574,29.4063588 C33.8547541,29.9517289 25.7291803,33.9765607 19.1183607,37.259689 C14.2819672,39.6593177 10.462623,42.6370388 4.17639344,42.6370388 L0,42.6370388 L0,47 L4.14393443,47 C11.7177049,47 16.435082,44.6440009 21.4554098,42.1462056 C28.412459,38.6994662 36.3,34.7946159 54.8881967,34.7946159 L65.6321311,34.7946159 L65.6321311,30.4316547 L59.5622951,30.4316547 C58.5517377,30.5090972 57.5628197,30.1044326 56.8898361,29.3409144 C55.8295082,27.2685078 54.7908197,25.0870272 53.7737705,22.9055465 L52.3672131,20.0041773 C52.3672131,20.0041773 53.3734426,18.913437 56.164918,18.913437 L66,18.913437 L66,14.9758645 Z" id="Path"></path>
                <path d="M87.2648835,14.4020984 L76,14.4020984 L76,18.5081677 L87.0155165,18.5081677 C91.5691748,18.5081677 94.1821074,20.6051176 94.1821074,24.3598654 C94.1821074,27.916995 91.2981237,30.2115632 86.8420438,30.2115632 L76,30.2115632 L76,44.4839966 L80.3368175,44.4839966 L80.3368175,34.2737173 L86.7661495,34.2737173 C92.6425372,34.2737173 98.5622931,31.1667183 98.5622931,24.1512683 C98.5297669,18.2227191 94.1062131,14.4020984 87.2648835,14.4020984 Z M123.564046,31.825446 C123.564046,37.6551862 120.680062,40.8719731 115.454197,40.8719731 C110.228332,40.8719731 107.214244,37.501483 107.214244,31.6168489 L107.214244,14.4020984 L102.877426,14.4020984 L102.877426,31.825446 C102.877426,39.9387755 107.647926,45 115.334935,45 C123.021944,45 127.868337,39.9826907 127.868337,31.5729337 L127.868337,14.4020984 L123.53152,14.4020984 L123.564046,31.825446 Z M138.764591,14.4020984 L134.4603,14.4020984 L134.4603,44.5279118 L154.908394,44.5279118 L154.908394,40.4108637 L138.764591,40.4108637 L138.764591,14.4020984 Z M170.596832,27.3570765 C164.373499,26.0066847 163.235084,24.5794413 163.235084,22.1531277 C163.235084,19.726814 165.511913,18.0251007 168.764526,18.0251007 C171.684289,18.0283944 174.505389,19.1054142 176.700902,21.0552482 L177.134584,21.4065696 L179.693306,18.0251007 L179.292151,17.6957369 C176.388652,15.2068441 172.675252,13.8926823 168.872947,14.0068618 C163.10498,14.0068618 158.919951,17.5639914 158.919951,22.5593431 C158.919951,28.1146133 162.942349,30.1456904 168.970525,31.4741246 C174.998702,32.8025588 176.007012,34.1529506 176.007012,36.5463279 C176.007012,39.1373235 173.600078,40.9378459 170.141466,40.9378459 C166.487697,40.9378459 163.74466,39.8399664 160.66552,36.9635221 L160.253522,36.590243 L157.553853,39.8289876 L157.944167,40.180309 C161.201117,43.3048741 165.535766,45.0230555 170.022203,44.9670636 C176.10459,44.9670636 180.343859,41.3660189 180.343859,36.1840276 C180.354671,31.4851034 177.438161,28.8611714 170.596832,27.3570765 Z M196.075635,14.1935013 L182.52308,44.5279118 L187.011686,44.5279118 L190.416088,36.8427553 L205.33474,36.8427553 L208.695774,44.5279118 L213.34701,44.5279118 L199.794456,14.1935013 L196.075635,14.1935013 Z M192.161657,32.8574528 L197.897098,19.9024747 L203.600013,32.8574528 L192.161657,32.8574528 Z M234.011946,32.4622161 C238.663182,31.3643366 241.40622,28.0706981 241.40622,23.5584134 C241.45284,21.2869007 240.60174,19.0878481 239.042654,17.4542034 C236.707278,15.3374917 233.640064,14.2374165 230.509966,14.3911196 L217.64046,14.3911196 L217.64046,44.5279118 L221.977277,44.5279118 L221.977277,33.2307318 L229.371551,33.2307318 L237.687399,44.516933 L243,44.516933 L234.011946,32.4622161 Z M221.933909,29.1685776 L221.933909,18.5081677 L230.249757,18.5081677 C234.586574,18.5081677 237.05856,20.3965205 237.05856,23.7779893 C237.05856,27.1594582 234.369733,29.2673868 230.21723,29.2673868 L221.933909,29.1685776 Z" id="Shape"></path>
            </g>
        </g>
    </g>
</svg>