<?xml version="1.0" encoding="UTF-8"?>
<svg width="125px" height="114px" viewBox="0 0 125 114" version="1.1" xmlns="http://www.w3.org/2000/svg" xmlns:xlink="http://www.w3.org/1999/xlink">
    <title>settings</title>
    <defs>
        <filter x="-11.8%" y="-13.3%" width="123.1%" height="126.6%" filterUnits="objectBoundingBox" id="filter-1">
            <feOffset dx="0" dy="2" in="SourceAlpha" result="shadowOffsetOuter1"></feOffset>
            <feGaussianBlur stdDeviation="2" in="shadowOffsetOuter1" result="shadowBlurOuter1"></feGaussianBlur>
            <feColorMatrix values="0 0 0 0 0.0941176471   0 0 0 0 0.560784314   0 0 0 0 1  0 0 0 0.5 0" type="matrix" in="shadowBlurOuter1" result="shadowMatrixOuter1"></feColorMatrix>
            <feMerge>
                <feMergeNode in="shadowMatrixOuter1"></feMergeNode>
                <feMergeNode in="SourceGraphic"></feMergeNode>
            </feMerge>
        </filter>
    </defs>
    <g id="Page-1" stroke="none" stroke-width="1" fill="none" fill-rule="evenodd">
        <g id="settings" filter="url(#filter-1)" transform="translate(10.000000, 10.000000)" fill-rule="nonzero">
            <circle id="Oval" fill="#FFFFFF" cx="74" cy="34" r="32"></circle>
            <path d="M66,23.6339523 L62.8488064,16.1061008 C61.9734748,15.7559682 61.4482759,15.5809019 60.5729443,15.2307692 L55.1458886,17.5066313 C54.4456233,17.331565 53.9204244,17.1564987 53.0450928,16.9814324 C51.8196286,15.4058355 50.4190981,14.1803714 49.0185676,12.9549072 C48.8435013,12.2546419 48.668435,11.729443 48.4933687,10.8541114 L50.7692308,5.4270557 C50.4190981,4.55172414 50.2440318,4.0265252 49.8938992,3.15119363 L42.3660477,0 C41.4907162,0.350132626 40.9655172,0.525198939 40.0901857,0.875331565 L37.8143236,6.30238727 C37.1140584,6.65251989 36.5888594,7.00265252 35.8885942,7.35278515 C33.9628647,7.17771883 32.0371353,7.17771883 30.1114058,7.35278515 C29.4111406,7.00265252 28.8859416,6.65251989 28.1856764,6.30238727 L25.9098143,0.875331565 C25.0344828,0.525198939 24.5092838,0.350132626 23.6339523,0 L16.1061008,3.15119363 C15.7559682,4.0265252 15.5809019,4.55172414 15.2307692,5.4270557 L17.5066313,10.8541114 C17.331565,11.5543767 17.1564987,12.0795756 16.9814324,12.9549072 C15.4058355,14.1803714 14.1803714,15.5809019 12.9549072,16.9814324 C12.2546419,17.1564987 11.729443,17.331565 10.8541114,17.5066313 L5.4270557,15.2307692 C4.55172414,15.5809019 4.0265252,15.7559682 3.15119363,16.1061008 L0,23.6339523 C0.350132626,24.5092838 0.525198939,25.0344828 0.875331565,25.9098143 L6.47745358,28.1856764 C6.82758621,28.8859416 7.17771883,29.4111406 7.52785146,30.1114058 C7.35278515,32.0371353 7.35278515,33.9628647 7.52785146,35.8885942 C7.17771883,36.5888594 6.82758621,37.1140584 6.47745358,37.8143236 L1.05039788,40.0901857 C0.700265252,40.9655172 0.525198939,41.4907162 0.175066313,42.3660477 L3.32625995,49.8938992 C4.20159151,50.0689655 4.72679045,50.2440318 5.60212202,50.5941645 L11.0291777,48.3183024 C11.729443,48.4933687 12.2546419,48.668435 13.1299735,48.8435013 C14.3554377,50.4190981 15.7559682,51.6445623 17.1564987,52.8700265 C17.331565,53.5702918 17.5066313,54.0954907 17.6816976,54.9708223 L15.4058355,60.5729443 C15.7559682,61.4482759 15.9310345,61.9734748 16.2811671,62.8488064 L23.8090186,66 C24.6843501,65.6498674 25.2095491,65.4748011 26.0848806,65.1246684 L28.3607427,59.6976127 C29.061008,59.3474801 29.5862069,58.9973475 30.2864721,58.6472149 C32.2122016,58.8222812 34.137931,58.8222812 36.0636605,58.6472149 C36.7639257,58.9973475 37.2891247,59.3474801 37.9893899,59.6976127 L40.265252,65.1246684 C41.1405836,65.4748011 41.6657825,65.6498674 42.5411141,66 L50.0689655,62.8488064 C50.4190981,61.9734748 50.5941645,61.4482759 50.9442971,60.5729443 L48.4933687,54.9708223 C48.668435,54.270557 48.8435013,53.7453581 49.0185676,52.8700265 C50.5941645,51.6445623 51.8196286,50.2440318 53.0450928,48.8435013 C53.7453581,48.668435 54.270557,48.4933687 55.1458886,48.3183024 L60.5729443,50.5941645 C61.4482759,50.2440318 61.9734748,50.0689655 62.8488064,49.7188329 L66,42.1909814 C65.6498674,41.3156499 65.4748011,40.7904509 65.1246684,39.9151194 L59.6976127,37.6392573 C59.3474801,36.938992 58.9973475,36.4137931 58.6472149,35.7135279 C58.8222812,33.7877984 58.8222812,31.862069 58.6472149,29.9363395 C58.9973475,29.2360743 59.3474801,28.7108753 59.6976127,28.0106101 L65.1246684,25.734748 C65.4748011,25.0344828 65.6498674,24.5092838 66,23.6339523 Z" id="Path" stroke="#2A5082" fill="#188FFF" stroke-linejoin="round"></path>
            <path d="M102,65.2440945 L100.27451,61.2598425 C99.4117647,60.9133858 98.8941176,60.7401575 98.0313725,60.3937008 L95.2705882,61.6062992 C94.5803922,61.4330709 94.0627451,61.2598425 93.2,61.0866142 C92.5098039,60.2204724 91.8196078,59.5275591 90.9568627,58.8346457 C90.7843137,58.1417323 90.6117647,57.6220472 90.4392157,56.7559055 L91.6470588,53.984252 C91.3019608,53.1181102 91.1294118,52.5984252 90.7843137,51.7322835 L86.8156863,50 C85.9529412,50.3464567 85.4352941,50.519685 84.572549,50.8661417 L83.3647059,53.6377953 C82.6745098,53.984252 82.1568627,54.3307087 81.6392157,54.6771654 C80.6039216,54.503937 79.5686275,54.503937 78.5333333,54.6771654 C77.8431373,54.3307087 77.3254902,53.984252 76.8078431,53.6377953 L75.427451,50.8661417 C74.5647059,50.519685 74.0470588,50.3464567 73.1843137,50 L69.2156863,51.7322835 C68.8705882,52.5984252 68.6980392,53.1181102 68.3529412,53.984252 L69.5607843,56.7559055 C69.3882353,57.4488189 69.2156863,57.9685039 69.0431373,58.8346457 C68.1803922,59.5275591 67.4901961,60.2204724 66.8,61.0866142 C66.1098039,61.2598425 65.5921569,61.4330709 64.7294118,61.6062992 L61.9686275,60.3937008 C61.1058824,60.7401575 60.5882353,60.9133858 59.7254902,61.2598425 L58,65.2440945 C58.345098,66.1102362 58.5176471,66.6299213 58.8627451,67.496063 L61.6235294,68.7086614 C61.9686275,69.4015748 62.3137255,69.9212598 62.6588235,70.4409449 C62.4862745,71.480315 62.4862745,72.519685 62.6588235,73.5590551 C62.3137255,74.2519685 61.9686275,74.7716535 61.6235294,75.2913386 L58.8627451,76.503937 C58.5176471,77.3700787 58.345098,77.8897638 58,78.7559055 L59.7254902,82.7401575 C60.5882353,83.0866142 61.1058824,83.2598425 61.9686275,83.6062992 L64.7294118,82.3937008 C65.4196078,82.5669291 65.9372549,82.7401575 66.8,82.9133858 C67.4901961,83.7795276 68.1803922,84.4724409 69.0431373,85.1653543 C69.2156863,85.8582677 69.3882353,86.3779528 69.5607843,87.2440945 L68.3529412,90.015748 C68.6980392,90.8818898 68.8705882,91.4015748 69.2156863,92.2677165 L73.1843137,94 C74.0470588,93.6535433 74.5647059,93.480315 75.427451,93.1338583 L76.6352941,90.3622047 C77.3254902,90.015748 77.8431373,89.6692913 78.3607843,89.3228346 C79.3960784,89.496063 80.4313725,89.496063 81.4666667,89.3228346 C82.1568627,89.6692913 82.6745098,90.015748 83.1921569,90.3622047 L84.4,93.1338583 C85.2627451,93.480315 85.7803922,93.6535433 86.6431373,94 L90.6117647,92.2677165 C90.9568627,91.4015748 91.1294118,90.8818898 91.4745098,90.015748 L90.2666667,87.2440945 C90.4392157,86.5511811 90.6117647,86.0314961 90.7843137,85.1653543 C91.6470588,84.4724409 92.3372549,83.7795276 93.027451,82.9133858 C93.7176471,82.7401575 94.2352941,82.5669291 95.0980392,82.3937008 L97.8588235,83.6062992 C98.7215686,83.2598425 99.2392157,83.0866142 100.101961,82.7401575 L101.827451,78.7559055 C101.482353,77.8897638 101.309804,77.3700787 100.964706,76.503937 L98.2039216,75.2913386 C97.8588235,74.5984252 97.5137255,74.0787402 97.1686275,73.5590551 C97.3411765,72.519685 97.3411765,71.480315 97.1686275,70.4409449 C97.5137255,69.7480315 97.8588235,69.2283465 98.2039216,68.7086614 L100.964706,67.496063 C101.482353,66.6299213 101.654902,66.2834646 102,65.2440945 Z" id="Path" stroke="#2A5082" fill="#E6F1FF" stroke-linejoin="round"></path>
            <circle id="Oval" stroke="#2A5082" stroke-width="1.00005" fill="#FFFFFF" transform="translate(80.345430, 72.115879) rotate(-22.500428) translate(-80.345430, -72.115879) " cx="80.3454303" cy="72.1158791" r="7.6452947"></circle>
            <circle id="Oval" stroke="#2A5082" fill="#FFFFFF" cx="32" cy="32" r="12"></circle>
        </g>
    </g>
</svg>