<?xml version="1.0" encoding="UTF-8"?>
<svg width="159px" height="129px" viewBox="0 0 159 129" version="1.1" xmlns="http://www.w3.org/2000/svg" xmlns:xlink="http://www.w3.org/1999/xlink">
    <title>“</title>
    <g id="Homepage" stroke="none" stroke-width="1" fill="none" fill-rule="evenodd">
        <path d="M144.700348,9.25 C133.996462,13.7500225 124.797948,20.7916187 117.10453,30.375 C109.411111,39.9583813 105.56446,49.6666175 105.56446,59.5 C105.56446,63.6666875 106.066197,67.249985 107.069686,70.25 C112.923374,65.7499775 119.278711,63.5 126.135889,63.5 C135.501789,63.5 143.320526,66.4583038 149.592334,72.375 C155.864143,78.2916962 159,86.24995 159,96.25 C159,105.58338 155.822331,113.374969 149.466899,119.625 C143.111466,125.875031 135.334541,129 126.135889,129 C112.923279,129 102.804913,123.583388 95.7804878,112.75 C89.9268,103.749955 87,92.5000675 87,79 C87,61.8332475 91.3902,46.4584013 100.170732,32.875 C108.951263,19.2915987 122.205486,8.333375 139.933798,0 L144.700348,9.25 Z M57.7003484,9.25 C46.9964622,13.7500225 37.7979479,20.7916187 30.1045296,30.375 C22.4111114,39.9583813 18.5644599,49.6666175 18.5644599,59.5 C18.5644599,63.6666875 19.0661971,67.249985 20.0696864,70.25 C25.756126,65.7499775 32.1114631,63.5 39.1358885,63.5 C48.3345408,63.5 56.1114665,66.4583038 62.466899,72.375 C68.8223314,78.2916962 72,86.24995 72,96.25 C72,102.416697 70.4947886,107.999975 67.4843206,113 C64.4738525,118.000025 60.4599554,121.916653 55.4425087,124.75 C50.425062,127.583347 44.9895763,129 39.1358885,129 C25.9232789,129 15.8049132,123.583388 8.7804878,112.75 C2.9268,103.749955 5.45696821e-12,92.5000675 5.45696821e-12,79 C5.45696821e-12,61.8332475 4.3902,46.4584013 13.1707317,32.875 C21.9512634,19.2915987 35.2054863,8.333375 52.9337979,0 L57.7003484,9.25 Z" id="“" fill="#6C93A7" fill-rule="nonzero" transform="translate(79.500000, 64.500000) rotate(-180.000000) translate(-79.500000, -64.500000) "></path>
    </g>
</svg>