<svg xmlns="http://www.w3.org/2000/svg" viewBox="0 0 2621.5 264.34"><defs><style>.cls-1,.cls-10,.cls-11,.cls-12,.cls-13,.cls-14,.cls-15,.cls-16,.cls-17,.cls-18,.cls-19,.cls-2,.cls-20,.cls-21,.cls-22,.cls-23,.cls-24,.cls-25,.cls-26,.cls-27,.cls-3,.cls-4,.cls-5,.cls-6,.cls-7,.cls-8,.cls-9{fill:none;stroke:#6b92a6;stroke-linecap:round;stroke-miterlimit:10;}.cls-2{opacity:0.96;}.cls-3{opacity:0.92;}.cls-4{opacity:0.89;}.cls-5{opacity:0.85;}.cls-6{opacity:0.81;}.cls-7{opacity:0.77;}.cls-8{opacity:0.73;}.cls-9{opacity:0.7;}.cls-10{opacity:0.66;}.cls-11{opacity:0.62;}.cls-12{opacity:0.58;}.cls-13{opacity:0.54;}.cls-14{opacity:0.51;}.cls-15{opacity:0.47;}.cls-16{opacity:0.43;}.cls-17{opacity:0.39;}.cls-18{opacity:0.35;}.cls-19{opacity:0.31;}.cls-20{opacity:0.28;}.cls-21{opacity:0.24;}.cls-22{opacity:0.2;}.cls-23{opacity:0.16;}.cls-24{opacity:0.12;}.cls-25{opacity:0.09;}.cls-26{opacity:0.05;}.cls-27{opacity:0.01;}</style></defs><g id="Layer_2" data-name="Layer 2"><g id="Layer_1-2" data-name="Layer 1"><path class="cls-1" d="M2621,136.44c-163.72-95-98.27-112.1-241-40-97,49-68.89-62.94-132-21-56,37.2-120.62,65.45-187-13-66-78-129.31-56.39-272-25-150,33-132.4,84.29-335,36-214-51-80.22-122.55-327-23-176,71-44,152-199,88-90.46-37.35-157,8-266-37-79.89-33-67.37,61.37-204,12-155-56-176.11-132.93-456-73"/><path class="cls-2" d="M2621,140.1c-161.45-96.28-101-110.49-239.9-40.19a131.31,131.31,0,0,1-25.46,10.15c-66.25,17.5-50.6-65.52-106.61-30.47-37.46,23.44-77.27,41.28-120.51,31.38-21.7-4.9-43.47-18.57-65.63-43.85-23.74-27.26-47.27-42.26-74.79-48.23-50.54-11-107,4.24-196.82,23.41a615.84,615.84,0,0,0-88.06,25.81c-67.6,24.89-98.93,46.52-245.75,10.38-11.06-2.73-21.11-5.75-30.32-8.74-160.46-52-72.74-104.07-278.82-22.46-5.13,2-10.46,4.15-16,6.39C961.39,122.73,1086,203.17,933.48,142.74c-89.4-35.14-156.48,8.79-264.9-36.45-89.52-37.35-83.11,58.61-222.93,8.87C294.33,60.69,272.21-13.93,1.94,43.26"/><path class="cls-3" d="M2620.92,143.75C2461.75,46.2,2517.2,34.88,2382.13,103.37a126.47,126.47,0,0,1-25.36,10.11c-65.79,17-51.63-62.12-106.79-29.74-37.66,22.11-76.06,36.82-119.6,29.25-21.88-3.8-43.58-16.73-65.68-41.19-23.68-26.22-47.12-41.08-75.07-46.65-53.36-10.64-107.63,3.7-196.15,22A661,661,0,0,0,1705.61,72c-68.17,23.93-102.23,47.77-244.75,11.53-10.91-2.77-20.73-6.09-29.75-9.31C1276.34,19,1352.83-27.57,1153.56,50.58c-5.11,2-10.42,4.09-15.92,6.33C971.77,124,1089.13,203.47,939,147c-88.26-33.17-155.92,9.52-263.81-35.9-99.14-41.74-99,56.35-241.85,5.73C285.47,64.47,262.54-8.37,1.88,46.08"/><path class="cls-4" d="M2620.88,147.41C2464,48.58,2514.44,40.16,2383.19,106.83c-9.55,4.89-17.9,8.22-25.26,10.08-65.31,16.59-52.72-58.77-107-29-37.92,20.79-74.87,32.44-118.69,27.12-22.08-2.68-43.64-14.92-65.73-38.53-23.56-25.21-47-39.88-75.34-45.08C1935,21.11,1883,34.56,1795.72,52A711.56,711.56,0,0,0,1708,75.89c-68.72,23-105.52,49-243.75,12.69a261.54,261.54,0,0,1-29.19-9.89c-149-58.28-83.82-99.55-276.27-24.83-5.09,2-10.39,4-15.87,6.29-160.8,65.16-50.78,143.84-198.52,91.18-87.17-31.07-155.35,10.2-262.71-35.35C573,69.84,566.89,169.82,421,118.58,276.72,67.94,252.86-2.81,1.83,48.89"/><path class="cls-5" d="M2620.85,151.06C2466.22,51,2511.52,45.11,2384.26,110.29c-9.51,4.87-17.82,8.23-25.16,10C2294.25,136.47,2305.21,64.89,2252,92c-38.22,19.48-73.68,28.05-117.78,25-22.28-1.55-43.71-13.11-65.78-35.88C2045,57,2021.57,42.49,1992.78,37.66c-59-9.92-108.85,2.4-194.82,19.2-35.23,6.88-62.31,14.91-87.48,22.93-69.28,22.07-108.83,50.19-242.75,13.83a214.46,214.46,0,0,1-28.63-10.46c-143.28-61.24-89.39-97.34-275-26-5.07,2-10.35,4-15.81,6.23C992.7,127,1095.22,204.53,949.92,155.63c-86.08-29-154.77,10.84-261.61-34.8-118.38-50.56-130.65,51.32-279.71-.54C268,71.37,243.19,2.75,1.77,51.71"/><path class="cls-6" d="M2620.81,154.71c-152.35-101.38-112.08-104.39-235.49-41-9.46,4.86-17.73,8.25-25.05,10-64.38,15.69-55.12-52.18-107.32-27.58-38.57,18.18-72.5,23.69-116.87,22.87-22.49-.42-43.77-11.3-65.83-33.22-23.33-23.18-46.69-37.43-75.9-41.92-61.89-9.51-109.45,1.81-194.15,17.8-34.51,6.51-61.53,14.16-87.29,22-69.82,21.16-112.12,51.36-241.75,15-10.48-2.94-19.6-7.11-28.06-11-137.5-64-95-95.16-273.73-27.18-5,1.91-10.31,3.94-15.76,6.18-150.49,61.73-55.37,138.45-198.2,93.3-85-26.86-154.18,11.46-260.53-34.25-128-55-146.46,48.79-298.63-3.66C259.25,74.78,233.51,8.31,1.71,54.53"/><path class="cls-7" d="M2620.77,158.37c-150.08-102.66-114.83-102.83-234.39-41.16-9.41,4.86-17.64,8.26-25,10-63.9,15.24-56.42-49-107.49-26.85-39,16.87-71.33,19.32-116,20.74-22.69.72-43.82-9.49-65.87-30.56-23.21-22.17-46.57-36.18-76.18-40.34-64.76-9.1-110,1.22-193.49,16.39-33.79,6.14-60.74,13.42-87.1,21-70.35,20.27-115.4,52.51-240.75,16.14-10.33-3-19.21-7.42-27.5-11.62-131.7-66.71-100.57-93-272.46-28.37-5,1.89-10.27,3.89-15.7,6.13-145.39,59.86-57.67,135.77-198,94.37-83.94-24.76-153.57,12-259.43-33.7-137.58-59.45-162.26,46.24-317.56-6.8C250.54,78.17,223.84,13.87,1.65,57.34"/><path class="cls-8" d="M2620.73,162c-147.8-103.93-117.58-101.26-233.28-41.35-9.37,4.85-17.57,8.27-24.85,9.94-63.44,14.78-57.8-45.81-107.67-26.13-39.43,15.56-70.16,15-115,18.61C2117,125,2096,115.41,2074,95.19c-23.09-21.17-46.44-34.92-76.46-38.76-67.62-8.66-110.64.63-192.83,15-33.05,5.78-60,12.68-86.89,20.06-70.89,19.39-118.7,53.61-239.76,17.28-10.18-3-18.82-7.73-26.93-12.19C1325.17,27.34,1344.9,5.64,1179.9,67c-5,1.86-10.23,3.84-15.65,6.08-140.3,58-60,133.1-197.88,95.43-82.88-22.64-153,12.61-258.33-33.15C560.86,71.45,530,179.05,371.55,125.43,241.83,81.52,214.16,19.43,1.6,60.16"/><path class="cls-9" d="M2620.69,165.67C2475.16,60.46,2500.36,66,2388.51,124.14c-9.32,4.84-17.48,8.26-24.74,9.9-63,14.19-59.24-42.73-107.85-25.41-39.94,14.23-69,10.61-114.14,16.47-23.11,3-43.92-5.87-66-25.24-22.95-20.15-46.31-33.64-76.73-37.18-70.49-8.19-111.24.06-192.17,13.59-32.33,5.4-59.16,11.94-86.7,19.09-71.4,18.53-122,54.69-238.76,18.44-10-3.12-18.43-8-26.37-12.77-120.14-71.58-111.82-88.85-269.91-30.74-5,1.83-10.19,3.79-15.6,6-135.22,56.08-62.31,130.45-197.72,96.49C890,152.3,819.52,186,714.62,140.21,557.85,71.82,520.76,181.33,359.2,127.14,233.13,84.86,204.48,25,1.54,63"/><path class="cls-10" d="M2620.65,169.33C2477.4,62.84,2497.58,71.22,2389.57,127.6c-9.27,4.84-17.39,8.27-24.64,9.86-62.52,13.73-60.74-39.73-108-24.69-40.5,12.89-67.81,6.27-113.22,14.35-23.32,4.15-44-4.06-66-22.58-22.82-19.15-46.18-32.36-77-35.6-73.36-7.71-111.83-.52-191.5,12.18-31.6,5-58.36,11.22-86.51,18.13-71.92,17.68-125.26,55.74-237.76,19.59-9.89-3.17-18-8.34-25.8-13.35-114.4-73.76-117.47-86.81-268.64-31.91-5,1.8-10.16,3.73-15.55,6-130.13,54.17-64.65,127.8-197.56,97.55-80.77-18.39-151.71,13.71-256.14-32.05-166.34-72.9-209.64,38.53-374.34-16.2-122.41-40.69-152-98.3-345.37-63.07"/><path class="cls-11" d="M2620.62,173c-141-107.76-125.81-96.51-230-41.92-9.22,4.83-17.32,8.28-24.54,9.83-62.06,13.27-62.31-36.82-108.2-24-41.11,11.51-66.64,1.93-112.31,12.22-23.53,5.3-44-2.26-66.08-19.92-22.68-18.15-46.06-31.07-77.28-34C1926,68,1889.8,74.1,1811.39,86c-30.88,4.68-57.57,10.49-86.32,17.18-72.43,16.84-128.53,56.74-236.75,20.74-9.75-3.24-17.66-8.64-25.25-13.93C1354.39,34.16,1340,25.14,1195.71,76.87c-4.94,1.77-10.12,3.68-15.5,5.92-125,52.26-67,125.18-197.4,98.61-79.72-16.24-151.08,14.25-255-31.49C551.85,72.5,502.34,185.84,334.5,130.57,215.76,91.46,185.13,36.12,1.42,68.61"/><path class="cls-12" d="M2620.58,176.64C2481.87,67.6,2492,81.72,2391.7,134.52c-9.17,4.83-17.23,8.29-24.43,9.79-61.59,12.81-63.94-34-108.38-23.24-41.77,10.09-65.47-2.4-111.4,10.09-23.74,6.46-44.06-.46-66.13-17.26-22.54-17.16-45.93-29.78-77.56-32.45-79.12-6.68-113-1.66-190.17,9.38-30.15,4.31-56.78,9.77-86.12,16.21-73,16-131.8,57.72-235.76,21.89-9.6-3.31-17.27-8.91-24.68-14.5C1364,36.75,1338.27,31.57,1201,80.15c-4.92,1.74-10.09,3.63-15.44,5.87-120,50.34-69.36,122.58-197.25,99.68-78.68-14.09-150.44,14.78-253.94-30.95-185.48-81.94-241.21,33.32-412.2-22.47C207.08,94.73,175.46,41.68,1.37,71.43"/><path class="cls-13" d="M2620.54,180.29C2484.11,70,2489.26,87,2392.77,138c-9.13,4.83-17.15,8.31-24.34,9.76-61.12,12.35-65.61-31.25-108.55-22.52-42.47,8.63-64.29-6.73-110.49,8-23.94,7.61-44.09,1.34-66.18-14.61-22.39-16.15-45.81-28.46-77.84-30.86-82-6.14-113.6-2.23-189.5,8-29.42,3.95-56,9-85.93,15.25-73.45,15.21-135,58.66-234.76,23-9.45-3.38-16.88-9.19-24.12-15.08C1373.61,39.5,1336.57,38,1206.24,83.44c-4.89,1.71-10,3.57-15.38,5.82C1076,137.67,1119.13,209.25,993.77,190c-77.65-11.93-149.8,15.29-252.85-30.4C545.88,73.11,484,190.28,309.8,134,198.41,98,165.78,47.24,1.31,74.24"/><path class="cls-14" d="M2620.5,183.94c-134.16-111.59-134-91.7-226.67-42.5-9.07,4.82-17.06,8.32-24.23,9.72-60.65,11.9-67.32-28.6-108.73-21.79-43.21,7.1-63.12-11.05-109.58,5.83-24.15,8.77-44.12,3.13-66.23-11.95S2039.38,96.09,2007,94c-84.87-5.57-114.19-2.78-188.84,6.57-28.7,3.6-55.18,8.35-85.74,14.3-73.95,14.4-138.3,59.55-233.76,24.19-9.3-3.45-16.5-9.45-23.55-15.66-92-81-140.2-79.07-263.55-36.63-4.87,1.67-10,3.51-15.33,5.76-109.84,46.47-74.11,117.44-196.93,101.8-76.62-9.75-149.16,15.81-251.75-29.85-204.59-91-272.73,28-450-28.74C189.75,101.22,156.11,52.8,1.25,77.06"/><path class="cls-15" d="M2620.46,187.6c-131.88-112.87-136.73-90.09-225.57-42.69-9,4.81-17,8.32-24.12,9.68-60.18,11.44-69.07-26.06-108.91-21.08-44,5.51-61.94-15.36-108.67,3.71-24.35,9.93-44.14,4.92-66.28-9.29s-45.55-25.84-78.39-27.71c-87.75-5-114.77-3.34-188.17,5.16-28,3.24-54.39,7.64-85.54,13.34-74.47,13.62-141.55,60.42-232.77,25.35-9.16-3.52-16.13-9.71-23-16.24C1392.5,45.4,1333.13,50.6,1216.78,90c-4.85,1.65-10,3.46-15.28,5.72-104.77,44.52-76.49,114.89-196.76,102.86-75.61-7.57-148.53,16.31-250.66-29.3-214.14-95.63-288.49,25.35-469-31.87-104-33-138.67-79.06-283.91-57.55"/><path class="cls-16" d="M2620.42,191.25C2490.81,77.11,2481,102.79,2396,148.37c-9,4.81-16.9,8.33-24,9.65-59.71,11-70.83-23.62-109.08-20.36-44.77,3.82-60.75-19.67-107.76,1.58-24.55,11.09-44.16,6.71-66.33-6.63-21.92-13.2-45.43-24.52-78.66-26.13-90.63-4.4-115.37-3.89-187.51,3.76-27.24,2.88-53.59,6.94-85.35,12.37-75,12.84-144.77,61.24-231.77,26.5-9-3.6-15.76-10-22.42-16.81-81.26-83.77-151.67-75.44-261-39-4.83,1.61-9.94,3.4-15.23,5.66-99.71,42.57-78.88,112.38-196.6,103.92-74.58-5.36-147.88,16.82-249.57-28.74C537,73.9,456.43,196.78,272.75,139.13c-100.31-31.49-136-75.21-271.62-56.44"/><path class="cls-17" d="M2620.38,194.91C2493.05,79.48,2478.22,108.08,2397,151.83c-8.92,4.81-16.81,8.35-23.92,9.61-59.24,10.54-72.61-21.26-109.26-19.63-45.58,2-59.56-24-106.85-.55-24.75,12.26-44.18,8.49-66.38-4-21.75-12.21-45.3-23.19-78.94-24.55-93.5-3.78-116-4.42-186.84,2.36-26.51,2.54-52.79,6.24-85.16,11.42-75.46,12.07-148,62-230.76,27.64-8.86-3.67-15.42-10.18-21.86-17.38-76.08-85-157.43-73.69-259.73-40.19-4.82,1.58-9.9,3.36-15.18,5.62-94.65,40.6-81.27,109.89-196.44,105C942.13,204,868.47,224.5,767.23,179,534,74.13,447.27,198.89,260.41,140.84c-96.62-30-133.33-71.36-259.33-55.33"/><path class="cls-18" d="M2620.35,198.56c-125.07-116.7-144.88-85.19-222.27-43.27-8.87,4.81-16.72,8.36-23.81,9.58-58.77,10.08-74.39-19-109.44-18.91-46.38.11-58.37-28.29-105.94-2.69-24.95,13.44-44.2,10.27-66.43-1.31-21.59-11.25-45.18-21.86-79.21-23-96.38-3.15-116.53-5-186.18,1-25.78,2.19-52,5.55-85,10.46-76,11.31-151.18,62.76-229.76,28.8-8.71-3.76-15.07-10.41-21.3-18-71-86.16-163.2-72-258.45-41.36-4.8,1.54-9.87,3.3-15.13,5.56-89.59,38.62-83.66,107.44-196.28,106-72.55-.9-146.58,17.81-247.37-27.65C531.09,74.35,438.12,201,248.06,142.55,155.15,114,117.4,75,1,88.32"/><path class="cls-19" d="M2620.31,202.21c-122.79-118-147.59-83.54-221.16-43.46-8.82,4.81-16.64,8.37-23.72,9.54-58.29,9.64-76.15-16.81-109.61-18.18-47.17-1.94-57.18-32.59-105-4.82-25.15,14.6-44.21,12-66.47,1.35-21.42-10.28-45.06-20.52-79.5-21.39-99.25-2.51-117.11-5.49-185.51-.45-25,1.84-51.19,4.86-84.77,9.5-76.47,10.56-154.37,63.45-228.77,29.94-8.56-3.85-14.74-10.63-20.73-18.54-66.1-87.26-169-70.32-257.19-42.54a152.57,152.57,0,0,0-15.06,5.51c-84.55,36.64-86.07,105-196.13,107.1-71.53,1.36-145.93,18.31-246.28-27.1C528.16,74.54,429,203,235.71,144.27,146.51,117.16,107.73,80.6,1,91.14"/><path class="cls-20" d="M2620.27,205.87C2499.76,86.62,2470,124,2400.21,162.21c-8.77,4.81-16.56,8.39-23.61,9.51-57.82,9.19-77.89-14.72-109.79-17.47-47.93-4.13-56-36.89-104.12-6.94-25.34,15.77-44.21,13.8-66.52,4-21.25-9.33-44.93-19.19-79.78-19.82-102.12-1.84-117.69-6-184.84-1.85-24.32,1.5-50.39,4.18-84.58,8.54-77,9.82-157.53,64.1-227.77,31.1-8.4-3.95-14.43-10.85-20.17-19.12-61.3-88.32-174.78-68.7-255.91-43.73a143,143,0,0,0-15,5.46c-79.5,34.65-88.45,102.62-196,108.17-70.51,3.64-145.28,18.79-245.18-26.55C525.23,74.72,419.85,205,223.36,146,137.87,120.3,98.05,86.16.9,94"/><path class="cls-21" d="M2620.23,209.52C2502,89,2467.24,129.3,2401.28,165.68c-8.72,4.8-16.48,8.4-23.51,9.46-57.34,8.86-79.6-12.68-110-16.74-48.64-6.5-54.78-41.19-103.21-9.07-25.53,16.94-44.22,15.55-66.57,6.66-21.08-8.37-44.8-17.84-80-18.23-105-1.17-118.28-6.51-184.18-3.26-23.59,1.17-49.6,3.5-84.39,7.58-77.47,9.09-160.66,64.72-226.77,32.25-8.24-4-14.13-11.05-19.6-19.69-56.65-89.36-180.61-67.14-254.64-44.91a127.46,127.46,0,0,0-15,5.41c-74.46,32.64-90.83,100.25-195.81,109.22-69.48,5.95-144.63,19.29-244.08-26C522.32,74.88,410.74,207,211,147.69,129.24,123.43,88.38,91.72.85,96.77"/><path class="cls-22" d="M2620.19,213.17c-116-121.8-155.68-78.54-217.85-44-8.67,4.81-16.39,8.42-23.41,9.43-56.86,8.4-81.24-10.71-110.14-16-49.26-9.05-53.58-45.49-102.29-11.2-25.73,18.11-44.23,17.29-66.63,9.32-20.9-7.43-44.67-16.5-80.33-16.65-107.86-.49-118.86-7-183.52-4.67-22.85.83-48.79,2.83-84.18,6.63-78,8.35-163.78,65.28-225.78,33.4-8.08-4.16-13.84-11.27-19-20.27-52.13-90.4-186.43-65.62-253.36-46.1a119.4,119.4,0,0,0-14.91,5.36c-69.42,30.63-93.2,97.92-195.65,110.29-68.45,8.27-144,19.77-243-25.45C519.41,75,401.65,208.85,198.66,149.4c-78-22.85-120-52.12-197.87-49.81"/><path class="cls-23" d="M2620.15,216.83C2506.46,93.75,2461.78,140,2403.4,172.6c-8.61,4.81-16.3,8.43-23.3,9.4-56.4,7.95-82.82-8.79-110.32-15.3-49.78-11.79-52.37-49.79-101.38-13.33-25.92,19.28-44.24,19-66.68,12-20.72-6.5-44.54-15.15-80.6-15.08-110.74.22-119.45-7.49-182.86-6.06-22.13.5-48,2.15-84,5.66-78.48,7.64-166.85,65.81-224.78,34.55-7.91-4.27-13.58-11.47-18.47-20.85-47.75-91.46-192.28-64.13-252.09-47.27a108.93,108.93,0,0,0-14.86,5.31c-64.39,28.61-95.55,95.61-195.49,111.35-67.41,10.61-143.32,20.25-241.89-24.9-290.18-132.92-414.12,2.62-620.38-56.94C112,129.65,69,102.85.73,102.41"/><path class="cls-24" d="M2620.12,220.48c-111.42-124.35-161.06-75.18-215.65-44.42-8.56,4.82-16.22,8.44-23.2,9.36-55.93,7.5-84.33-6.9-110.5-14.58-50.17-14.71-51.09-54-100.47-15.45-26.07,20.5-44.24,20.74-66.73,14.64-20.55-5.58-44.41-13.8-80.88-13.5-113.6.93-120-8-182.19-7.47-21.4.17-47.19,1.49-83.8,4.7-79,6.93-169.89,66.29-223.77,35.71-7.74-4.4-13.34-11.68-17.92-21.43-43.48-92.58-198.13-62.71-250.81-48.45a98.8,98.8,0,0,0-14.81,5.25c-59.36,26.58-97.89,93.34-195.32,112.41-66.36,13-142.67,20.74-240.8-24.34C513.62,75.25,383.51,212.44,174,152.83,103.36,132.75,59.35,108.41.67,105.22"/><path class="cls-25" d="M2620.08,224.14c-109.15-125.64-163.74-73.49-214.55-44.62-8.5,4.83-16.13,8.45-23.1,9.33-55.45,7-85.73-5-110.67-13.86-50.39-17.82-49.9-58.32-99.56-17.58-26.27,21.65-44.25,22.45-66.78,17.29-20.38-4.66-44.28-12.44-81.15-11.92-116.47,1.67-120.62-8.42-181.53-8.87-20.67-.15-46.39.83-83.61,3.75-79.49,6.22-172.89,66.73-222.77,36.85-7.56-4.53-13.1-11.88-17.35-22-39.35-93.77-204-61.34-249.55-49.64a90.66,90.66,0,0,0-14.75,5.21c-54.33,24.54-100.19,91.09-195.16,113.47-65.28,15.38-141.95,21.08-239.7-23.8-308.92-142.84-445.38-3.64-658.24-63.21C94.74,135.83,49.67,114,.62,108"/><path class="cls-26" d="M2620,227.79C2513.17,100.88,2453.62,156,2406.6,183c-8.45,4.85-16.06,8.47-23,9.29-55,6.59-87-3.17-110.85-13.13-50.43-21.1-48.71-62.66-98.65-19.72-26.47,22.82-44.26,24.16-66.83,20-20.21-3.76-44.15-11-81.43-10.34-119.32,2.6-121.21-8.75-180.86-10.27-19.94-.44-45.59.22-83.41,2.78-80,5.64-175.85,67.15-221.78,38-7.36-4.67-12.89-12.09-16.79-22.57-35.31-95-209.85-60-248.27-50.82a80.61,80.61,0,0,0-14.69,5.15c-49.32,22.49-102.48,88.88-195,114.53-64.19,17.8-141.32,21.63-238.61-23.24-318.45-147.42-461-6.93-677.16-66.35C86.11,138.9,40,119.53.56,110.86"/><path class="cls-27" d="M2620,231.44c-124.86-153-192.57-40.54-235.23-35.74C2210.07,215.34,2249,95.82,2176,161.44c-50.31,45.23-68.39,11.79-148.59,13.86-162.4,4.19-108.26-19.17-263.41-9.86-94.23,5.66-212.72,90.56-237,16-31.38-96.39-215.71-58.76-247-52-74,16-196,214.34-447,98C505,75.44,356.47,217.11,136.91,158A1401.93,1401.93,0,0,1,.5,113.67"/></g></g></svg>