<svg xmlns="http://www.w3.org/2000/svg" viewBox="0 0 2621.5 264.34"><defs><style>.cls-1,.cls-10,.cls-11,.cls-12,.cls-13,.cls-14,.cls-15,.cls-16,.cls-17,.cls-18,.cls-19,.cls-2,.cls-20,.cls-21,.cls-22,.cls-23,.cls-24,.cls-25,.cls-26,.cls-27,.cls-3,.cls-4,.cls-5,.cls-6,.cls-7,.cls-8,.cls-9{fill:none;stroke:#6b92a6;stroke-linecap:round;stroke-miterlimit:10;}.cls-2{opacity:0.96;}.cls-3{opacity:0.92;}.cls-4{opacity:0.89;}.cls-5{opacity:0.85;}.cls-6{opacity:0.81;}.cls-7{opacity:0.77;}.cls-8{opacity:0.73;}.cls-9{opacity:0.7;}.cls-10{opacity:0.66;}.cls-11{opacity:0.62;}.cls-12{opacity:0.58;}.cls-13{opacity:0.54;}.cls-14{opacity:0.51;}.cls-15{opacity:0.47;}.cls-16{opacity:0.43;}.cls-17{opacity:0.39;}.cls-18{opacity:0.35;}.cls-19{opacity:0.31;}.cls-20{opacity:0.28;}.cls-21{opacity:0.24;}.cls-22{opacity:0.2;}.cls-23{opacity:0.16;}.cls-24{opacity:0.12;}.cls-25{opacity:0.09;}.cls-26{opacity:0.05;}.cls-27{opacity:0.01;}</style></defs><g id="Layer_2" data-name="Layer 2"><g id="Layer_1-2" data-name="Layer 1"><path class="cls-1" d="M.5,127.9c163.72,95,98.27,112.1,241,40,97-49,68.89,62.94,132,21,56-37.2,120.62-65.45,187,13,66,78,129.31,56.39,272,25,150-33,132.4-84.29,335-36,214,51,80.22,122.55,327,23,176-71,44-152,199-88,90.46,37.35,157-8,266,37,79.89,33,67.37-61.37,204-12,155,56,176.11,132.93,456,73"/><path class="cls-2" d="M.54,124.24C162,220.58,101.59,234.67,240.5,164.4a134.85,134.85,0,0,1,23.38-9.55C332.68,135,316.35,220.2,372.69,184c32.83-21.07,67.1-38.78,104.61-36.73,26.7,1.45,53.8,16.13,81.45,48.67,26.5,31.2,52.7,46.83,84.21,51.33,48.65,7,103.47-7.45,187-25.27,41.48-8.91,70.42-19.2,95.5-28.58,62.6-23.42,96.89-41.84,238.42-7.71,13.37,3.28,25.28,6.87,36,10.49,153.63,51.88,68.63,102,276.72,19.46,4-1.6,8.2-3.25,12.47-5,170.94-69,46.35-149.48,198.9-89.09,89.41,35.12,156.5-8.83,265,36.43,89.52,37.35,83.11-58.61,222.93-8.87,151.32,54.47,173.44,129.09,443.71,71.9"/><path class="cls-3" d="M.58,120.59c159.27,97.67,103.83,108.75,238.91,40.31a129.6,129.6,0,0,1,23.3-9.5c68.42-19.31,53.82,62,109.09,27.76,33.09-20.49,66.07-37.27,104-36.89,26.75.28,53.53,15.48,81.1,47.76,26.23,30.79,52.32,46.77,84,50.94,51.33,6.76,104.19-6.82,186.41-23.81,40.62-8.5,69.52-18.31,95.32-27.49,63.25-22.5,100-43.16,237.52-9.08a325.15,325.15,0,0,1,35.4,11.11c148.19,55.06,74.32,99.83,275.52,20.76,4-1.58,8.18-3.21,12.44-4.93,165.87-67,48.54-146.56,198.79-90.19,88.29,33.13,156-9.59,263.94,35.86,99.14,41.75,99-56.35,241.85-5.73C2336,199.87,2359,272.71,2619.62,218.26"/><path class="cls-4" d="M.62,116.93c157,99,106.62,107.09,237.87,40.48A124.13,124.13,0,0,1,261.71,148c68-18.79,55.2,58.68,109.37,26.34,33.36-19.92,65-35.76,103.43-37.05,26.8-.89,53.28,14.81,80.75,46.85,26,30.36,52,46.69,83.79,50.54,54,6.55,104.92-6.2,185.83-22.35,39.76-8.1,68.6-17.43,95.14-26.4,63.9-21.61,103-44.22,236.62-10.45a259.88,259.88,0,0,1,34.8,11.72c142.72,58.13,80,97.66,274.34,22.07,4-1.56,8.15-3.16,12.4-4.88,160.81-65,50.82-143.85,198.69-91.28,87.21,31,155.45-10.3,262.9,35.29,108.76,46.14,114.84-53.85,260.78-2.6,144.23,50.64,168.09,121.39,419.12,69.69"/><path class="cls-5" d="M.65,113.28C155.47,213.62,110.2,219,237.48,153.91a120.57,120.57,0,0,1,23.14-9.4c67.64-18.26,56.62,55.39,109.65,24.92,33.65-19.34,64-34.22,102.84-37.2,26.84-2,53,14.15,80.4,45.94,25.71,29.94,51.6,46.58,83.59,50.14,56.73,6.31,105.68-5.37,185.24-20.89,38.93-7.59,67.69-16.55,95-25.32,64.52-20.72,106.07-45.25,235.71-11.81a214.73,214.73,0,0,1,34.21,12.34c137.22,61.05,85.76,95.52,273.15,23.37,4-1.54,8.13-3.12,12.37-4.84,155.74-62.93,53.11-141.14,198.57-92.37,86.14,28.89,154.9-11,261.87,34.72,118.37,50.57,130.65-51.32,279.71.54,140.62,48.92,165.41,117.54,406.83,68.58"/><path class="cls-6" d="M.69,109.63C153.29,211.31,113,213.69,236.48,150.42c8.61-4.42,16.23-7.58,23.06-9.36,67.25-17.73,58.07,52.14,109.92,23.5,34-18.75,62.91-32.66,102.25-37.35,26.88-3.2,52.76,13.48,80.05,45C577.21,201.76,603,218.7,635.14,222c59.44,6.07,106.41-4.7,184.66-19.43,38.07-7.16,66.77-15.68,94.79-24.23,65.15-19.87,109.1-46.28,234.82-13.18a182.59,182.59,0,0,1,33.6,13c131.71,63.83,91.5,93.41,272,24.67,4-1.52,8.11-3.07,12.34-4.79,150.67-60.92,55.42-138.45,198.47-93.46,85.07,26.75,154.33-11.63,260.84,34.15,128,55,146.46-48.79,298.63,3.66,137,47.23,162.74,113.7,394.54,67.48"/><path class="cls-7" d="M.73,106C151.1,209,115.89,208.41,235.48,146.92c8.57-4.41,16.16-7.58,23-9.31,66.87-17.2,59.56,48.92,110.2,22.09,34.29-18.17,61.84-31.1,101.66-37.51,26.91-4.33,52.5,12.82,79.71,44.12,25.18,29.1,50.88,46.33,83.17,49.34,62.15,5.8,107.14-4,184.07-18,37.21-6.74,65.85-14.83,94.61-23.15,65.76-19,112.14-47.29,233.92-14.55,12.64,3.4,23.32,8.47,33,13.57,126.19,66.47,97.26,91.34,270.77,26,4-1.49,8.08-3,12.3-4.73,145.61-58.91,57.73-135.77,198.36-94.56C1744.25,124.86,1814,88,1920,133.82c137.58,59.45,162.26-46.24,317.56,6.8C2371,186.17,2397.66,250.47,2619.85,207"/><path class="cls-8" d="M.77,102.32c148.14,104.35,118,100.81,233.7,41.1,8.54-4.4,16.1-7.58,22.9-9.26,66.48-16.67,61.07,45.74,110.48,20.67,34.62-17.57,60.77-29.51,101.06-37.66,26.94-5.45,52.24,12.15,79.36,43.21,24.92,28.68,50.52,46.18,83,48.94,64.86,5.51,107.87-3.37,183.49-16.5,36.36-6.32,64.92-14,94.43-22.06,66.37-18.2,115.17-48.28,233-15.92,12.49,3.43,22.92,8.77,32.41,14.19,120.68,68.94,103,89.31,269.59,27.27,3.94-1.47,8-3,12.26-4.69C1597,134.73,1516.49,58.51,1654.69,96c83,22.48,153.17-12.86,258.77,33,147.17,63.92,178.07-43.68,336.49,9.94,129.72,43.91,157.39,106,370,65.27"/><path class="cls-9" d="M.81,98.67c145.92,105.68,120.76,99.17,232.66,41.26,8.5-4.4,16-7.59,22.81-9.22C322.38,114.57,318.9,173.31,367,150c35-17,59.7-27.9,100.47-37.81,27-6.56,52,11.49,79,42.3,24.66,28.25,50.17,46,82.76,48.54,67.57,5.21,108.59-2.71,182.9-15,35.5-5.89,64-13.12,94.25-21,67-17.38,118.2-49.24,232.12-17.28,12.34,3.46,22.52,9.05,31.82,14.81,115.18,71.26,108.83,87.31,268.39,28.57,3.94-1.45,8-2.93,12.23-4.64,135.48-54.87,62.4-130.44,198.16-96.74,81.91,20.34,152.57-13.45,257.73,32.44,156.76,68.4,193.86-41.12,355.42,13.07C2388.37,179.48,2417,239.34,2620,201.36"/><path class="cls-10" d="M.85,95c143.69,107,123.56,97.53,231.62,41.42,8.46-4.39,16-7.58,22.72-9.17,65.72-15.61,64.21,39.5,111,17.84,35.36-16.36,58.63-26.28,99.88-38,27-7.65,51.72,10.82,78.67,41.39,24.39,27.83,49.81,45.86,82.54,48.14,70.29,4.89,109.32-2,182.31-13.58,34.65-5.47,63.07-12.28,94.08-19.89,67.58-16.58,121.23-50.2,231.22-18.65,12.2,3.5,22.12,9.33,31.22,15.42,109.72,73.43,114.64,85.36,267.21,29.88,3.92-1.43,8-2.88,12.19-4.59,130.42-52.86,64.75-127.81,198-97.83,80.88,18.18,152-14,256.71,31.86,166.34,72.9,209.64-38.53,374.34,16.2,122.41,40.69,152,98.3,345.37,63.07"/><path class="cls-11" d="M.88,91.36c141.47,108.36,126.37,95.88,230.58,41.58,8.42-4.39,15.9-7.59,22.65-9.12,65.32-15.09,65.81,36.43,111.31,16.41,35.76-15.73,57.57-24.64,99.29-38.12,27-8.74,51.46,10.16,78.32,40.48,24.13,27.41,49.46,45.69,82.34,47.74,73,4.55,110-1.4,181.72-12.12,33.8-5.05,62.14-11.44,93.91-18.8,68.16-15.8,124.24-51.14,230.31-20,12,3.53,21.71,9.59,30.63,16,104.3,75.43,120.46,83.44,266,31.18,3.91-1.4,8-2.84,12.16-4.54,125.35-50.84,67.11-125.18,198-98.93,79.84,16,151.38-14.6,255.67,31.29,175.91,77.42,225.43-35.93,393.27,19.34,118.74,39.11,149.37,94.45,333.08,62"/><path class="cls-12" d="M.92,87.7c139.24,109.7,129.16,94.23,229.54,41.74,8.38-4.38,15.83-7.59,22.56-9.07,64.94-14.57,67.45,33.41,111.6,15,36.16-15.09,56.5-23,98.69-38.27,27.08-9.81,51.2,9.49,78,39.57,23.87,27,49.11,45.51,82.13,47.34,75.73,4.2,110.77-.75,181.14-10.65,32.94-4.64,61.21-10.61,93.73-17.72,68.76-15,127.25-52,229.41-21.4,11.91,3.58,21.32,9.86,30,16.67,99,77.28,126.3,81.56,264.83,32.48,3.89-1.38,8-2.79,12.13-4.5,120.28-48.82,69.47-122.57,197.83-100,78.82,13.85,150.78-15.16,254.64,30.73,185.48,81.95,241.21-33.32,412.2,22.47,115.07,37.54,146.69,90.6,320.78,60.85"/><path class="cls-13" d="M1,84.05c137,111,132,92.56,228.49,41.89,8.35-4.38,15.78-7.58,22.49-9,64.58-13.9,69.11,30.43,111.87,13.58,36.59-14.43,55.45-21.33,98.1-38.43,27.12-10.88,50.94,8.83,77.62,38.66,23.62,26.57,48.76,45.32,81.93,46.94,78.45,3.83,111.49-.1,180.55-9.19,32.08-4.23,60.28-9.79,93.55-16.63,69.35-14.28,130.27-52.95,228.51-22.77,11.76,3.61,20.92,10.1,29.44,17.28,93.67,79,132.16,79.73,263.64,33.78,3.87-1.35,7.94-2.74,12.09-4.44,115.22-46.81,71.85-120,197.73-101.11,77.8,11.66,150.17-15.72,253.61,30.15,195,86.5,257-30.68,431.12,25.61,111.39,36,144,86.75,308.49,59.75"/><path class="cls-14" d="M1,80.4c134.79,112.36,134.73,90.89,227.45,42.05,8.31-4.38,15.71-7.58,22.4-9,64.2-13.37,70.8,27.5,112.15,12.16,37-13.75,54.4-19.64,97.51-38.58,27.17-11.94,50.68,8.16,77.28,37.75,23.35,26.14,48.4,45.13,81.71,46.54,81.17,3.44,112.22.54,180-7.73,31.22-3.81,59.34-9,93.37-15.55,69.93-13.52,133.28-53.81,227.61-24.13,11.61,3.65,20.53,10.33,28.84,17.9,88.47,80.56,138,77.93,262.45,35.08,3.87-1.33,7.92-2.69,12.06-4.39C1534,127.72,1498,55.1,1621.43,70.31,1698.2,79.78,1771,54.05,1874,99.9c204.59,91.06,272.73-28,450.05,28.73,107.7,34.49,141.34,82.91,296.2,58.65"/><path class="cls-15" d="M1,76.74C133.6,190.45,138.55,166,227.45,119c8.27-4.37,15.64-7.58,22.31-8.93,63.81-12.84,72.52,24.61,112.43,10.74,37.5-13,53.36-18,96.92-38.73,27.22-13,50.42,7.5,76.93,36.84,23.09,25.72,48.05,44.93,81.51,46.14,83.89,3,112.93,1.18,179.38-6.27,30.36-3.4,58.4-8.15,93.19-14.46,70.52-12.79,136.28-54.67,226.72-25.5,11.45,3.7,20.15,10.55,28.24,18.52,83.37,82,143.92,76.17,261.26,36.38,3.85-1.31,7.89-2.66,12-4.35,105-43,76.63-114.87,197.52-103.29,75.77,7.26,148.95-16.81,251.54,29,214.13,95.64,288.49-25.35,469,31.87,104,33,138.67,79.06,283.91,57.54"/><path class="cls-16" d="M1.08,73.09c130.34,115,140.29,87.54,225.36,42.37,8.23-4.37,15.58-7.59,22.24-8.89,63.42-12.32,74.24,21.77,112.7,9.33,38-12.29,52.33-16.26,96.33-38.89,27.28-14,50.16,6.84,76.58,35.93,22.83,25.3,47.7,44.72,81.3,45.74,86.61,2.62,113.66,1.81,178.8-4.81,29.5-3,57.47-7.34,93-13.37,71.1-12.07,139.27-55.5,225.82-26.87,11.31,3.74,19.78,10.76,27.64,19.13,78.38,83.36,149.83,74.47,260.08,37.69,3.83-1.28,7.86-2.61,12-4.3,99.94-41,79-112.36,197.42-104.39,74.76,5,148.34-17.35,250.51,28.44,223.66,100.25,304.22-22.64,487.9,35,100.31,31.49,136,75.21,271.62,56.44"/><path class="cls-17" d="M1.12,69.43C129.23,185.81,144.19,155.29,225.44,112c8.19-4.37,15.51-7.59,22.15-8.83,63-11.8,76,19,113,7.9,38.46-11.5,51.3-14.54,95.73-39,27.34-15.08,49.9,6.17,76.23,35,22.57,24.88,47.35,44.51,81.1,45.34C703,154.53,728,154.78,791.85,149c28.64-2.59,56.53-6.53,92.83-12.28,71.69-11.36,142.26-56.3,224.92-28.24,11.16,3.79,19.42,11,27.05,19.75,73.49,84.61,155.75,72.8,258.88,39,3.83-1.26,7.84-2.57,12-4.25C1502.36,124,1488.92,53.1,1604.79,57.49c73.75,2.79,147.73-17.89,249.48,27.87,233.19,104.86,320-19.91,506.82,38.14,96.62,30,133.33,71.36,259.33,55.33"/><path class="cls-18" d="M1.15,65.78C127,183.49,147,150,224.43,108.46c8.16-4.36,15.44-7.6,22.08-8.78,62.62-11.4,77.75,16.2,113.26,6.48,39-10.67,50.29-12.82,95.14-39.19,27.4-16.12,49.64,5.51,75.89,34.11,22.3,24.46,47,44.3,80.88,44.94,92.05,1.73,115.09,3,177.63-1.88,27.77-2.2,55.59-5.74,92.66-11.2,72.26-10.65,145.24-57.09,224-29.61,11,3.84,19.08,11.16,26.45,20.37,68.74,85.79,161.69,71.18,257.7,40.28,3.81-1.22,7.82-2.51,11.92-4.2,89.81-36.92,83.86-103.8,197.2-106.57,72.72-1.78,147.1-18.41,248.44,27.3C2090.4,190,2183.38,63.37,2373.44,121.78c92.91,28.56,130.66,67.52,247,54.24"/><path class="cls-19" d="M1.19,62.13c123.67,119,148.62,82.46,222.24,42.84,8.11-4.37,15.37-7.61,22-8.74C307.66,85.36,325,109.73,359,101.3c39.49-9.79,49.28-11.11,94.55-39.35,27.48-17.15,49.38,4.84,75.54,33.2,22,24,46.64,44.08,80.68,44.54,94.76,1.26,115.8,3.66,177-.42,26.91-1.8,54.66-5,92.48-10.12,72.85-10,148.21-57.84,223.11-31,10.86,3.89,18.75,11.34,25.86,21,64.09,86.93,167.64,69.61,256.51,41.59,3.79-1.2,7.79-2.47,11.88-4.15,84.75-34.9,86.23-105,197.09-107.66,71.74-1.75,146.49-18.95,247.42,26.73,252.22,114.14,351.4-14.34,544.67,44.4,89.2,27.11,128,63.67,234.75,53.13"/><path class="cls-20" d="M1.23,58.47c121.44,120.39,151.38,80.76,221.2,43,8.07-4.36,15.3-7.61,21.91-8.69,61.85-10.34,81.3,10.83,113.81,3.65,40-8.84,48.29-9.37,94-39.5,27.55-18.18,49.12,4.18,75.19,32.29,21.78,23.61,46.29,44.6,80.47,44.14,97.48-1.34,116.52,4.26,176.46,1,26-1.4,53.72-4.16,92.3-9C950,116.1,1027.7,66.8,1098.74,93c10.7,4,18.44,11.52,25.26,21.6,59.59,88,173.62,68.07,255.32,42.89,3.79-1.17,7.77-2.42,11.85-4.1,79.69-32.87,88.63-102.57,197-108.76,70.73-4,145.87-19.47,246.38,26.16,261.72,118.81,367.11-11.49,563.6,47.54,85.49,25.68,125.31,59.82,222.46,52"/><path class="cls-21" d="M1.27,54.82C120.48,176.54,155.41,133.87,221.42,98c8-4.37,15.24-7.62,21.83-8.65,61.47-9.81,83.08,8.21,114.1,2.23,40.55-7.82,47.29-7.64,93.36-39.65,27.63-19.21,48.86,3.51,74.85,31.38,21.51,23.19,45.93,44.29,80.26,43.73,100.18-1.61,117.24,4.87,175.87,2.51,25.19-1,52.78-3.38,92.12-7.94,74-8.59,154.13-59.28,221.31-33.71,10.55,4,18.15,11.69,24.67,22.22,55.21,89.1,179.6,66.59,254.13,44.19a124.84,124.84,0,0,0,11.81-4.06c74.63-30.83,91-100.19,196.89-109.85C1652.33,34,1727.86,20.39,1828,66c271.22,123.5,382.8-8.59,582.53,50.68,81.77,24.26,122.63,56,210.16,50.92"/><path class="cls-22" d="M1.31,51.17c117,123.05,156.9,77.32,219.11,43.31,8-4.37,15.17-7.62,21.74-8.6,61.08-9.28,84.87,5.63,114.38.81,41.09-6.71,46.31-5.9,92.77-39.81,27.72-20.23,48.6,2.86,74.5,30.47,21.25,22.78,45.58,44,80.05,43.34,102.9-1.88,118,5.45,175.29,4,24.33-.62,51.84-2.6,91.94-6.85,74.6-7.92,157.07-60,220.41-35.09,10.39,4.08,17.88,11.87,24.07,22.84,51,90.2,185.6,65.16,253,45.5a110.84,110.84,0,0,0,11.77-4c69.63-28.66,93.4-97.84,196.78-110.94,68.69-8.7,144.62-20.51,244.31,25,280.71,128.2,398.47-5.64,601.46,53.81,78,22.85,120,52.11,197.87,49.81"/><path class="cls-23" d="M1.35,47.51C116.11,171.9,161,123.11,219.42,91c7.94-4.37,15.1-7.61,21.66-8.54,60.69-8.77,86.63,3.09,114.65-.61,41.63-5.5,45.34-4.16,92.18-40,27.81-21.26,48.34,2.19,74.15,29.56,21,22.36,45.22,43.19,79.85,42.94,105.62-.75,118.67,6,174.7,5.43,23.46-.24,50.91-1.83,91.76-5.77,75.19-7.25,160-60.62,219.52-36.45,10.22,4.16,17.61,12,23.47,23.46,46.82,91.31,191.61,63.77,251.75,46.79a102.64,102.64,0,0,0,11.74-3.95c64.57-26.65,95.76-95.53,196.68-112,67.66-11.06,144-21,243.28,24.45,290.18,132.92,414.12-2.62,620.38,56.94,74.33,21.47,117.28,48.27,185.58,48.71"/><path class="cls-24" d="M1.38,43.86c112.54,125.73,162.41,73.87,217,43.63,7.91-4.38,15-7.62,21.58-8.5,60.31-8.24,88.38.6,114.93-2,42.17-4.17,44.38-2.41,91.59-40.12,27.91-22.28,48.08,1.53,73.8,28.65C541,87.42,565.18,108.45,600,108c108.34-1.29,119.39,6.58,174.12,6.9,22.6.13,50-1.07,91.59-4.69,75.77-6.59,162.9-61.25,218.61-37.82,10.06,4.24,17.38,12.21,22.87,24.08,42.81,92.47,197.63,62.44,250.57,48.09a92.17,92.17,0,0,0,11.7-3.9c59.51-24.64,98.1-93.25,196.57-113.13C1632.6,14.11,1709.36,6,1808.23,51.43c299.65,137.67,429.76.47,639.31,60.08,70.6,20.08,114.61,44.42,173.29,47.61"/><path class="cls-25" d="M1.42,40.2c110.31,127.07,165.16,72.14,216,43.79,7.86-4.38,15-7.62,21.5-8.45,59.92-7.71,90.1-1.85,115.2-3.45,42.69-2.7,43.42-.67,91-40.27,28-23.31,47.82.86,73.46,27.74C539,81.07,563.08,102.29,598,101.7c111-1.85,120.11,7.12,173.53,8.36,21.74.5,49-.3,91.41-3.6,76.36-5.94,165.8-61.85,217.71-39.19,9.9,4.32,17.17,12.38,22.28,24.69,38.9,93.7,203.66,61.16,249.38,49.4A84.59,84.59,0,0,0,1364,137.5c54.43-22.61,100.41-91,196.46-114.22C1626,7.43,1703.12,1.35,1801.65,46.59c308.92,142.84,445.38,3.64,658.24,63.21,66.87,18.71,111.94,40.57,161,46.5"/><path class="cls-26" d="M1.46,36.55c108.09,128.4,167.86,70.3,214.94,44,7.81-4.41,14.91-7.63,21.42-8.41,59.54-7.18,91.8-4.27,115.49-4.86,43.16-1.09,42.54,1.16,90.4-40.43,28.15-24.28,47.56.2,73.11,26.83C537,74.72,561,96.06,596,95.37c113.76-2.61,120.84,7.65,173,9.82,20.88.87,48.1.39,91.23-2.51C937.17,97.26,1028.9,40.25,1077,62.12c9.72,4.42,17,12.55,21.68,25.31,35.1,95,209.69,59.93,248.19,50.7a76.12,76.12,0,0,0,11.64-3.81c49.37-20.6,102.7-88.76,196.36-115.31C1619.36.73,1697-3.5,1795.08,41.74c318.45,147.42,461,6.93,677.16,66.35,63.15,17.35,109.26,36.72,148.7,45.39"/><path class="cls-27" d="M1.5,32.9c124.86,153,192.57,40.54,235.23,35.74C411.43,49,369.3,87.4,442.31,21.78,492.62-23.44,513.89,91.11,594.09,89c162.4-4.19,108.26,19.17,263.41,9.86,94.23-5.66,212.72-90.56,237-16,31.38,96.39,215.71,58.76,247,52,74-16,196-214.34,447-98,328,152,476.53,10.33,696.09,69.47A1401.93,1401.93,0,0,1,2621,150.67"/></g></g></svg>