<svg xmlns="http://www.w3.org/2000/svg" viewBox="0 0 2623.5 452.07"><defs><style>.cls-1,.cls-10,.cls-11,.cls-12,.cls-13,.cls-14,.cls-15,.cls-16,.cls-17,.cls-18,.cls-19,.cls-2,.cls-20,.cls-21,.cls-22,.cls-23,.cls-24,.cls-25,.cls-26,.cls-27,.cls-3,.cls-4,.cls-5,.cls-6,.cls-7,.cls-8,.cls-9{fill:none;stroke:#29abe2;stroke-linecap:round;stroke-miterlimit:10;}.cls-2{opacity:0.96;}.cls-3{opacity:0.92;}.cls-4{opacity:0.89;}.cls-5{opacity:0.85;}.cls-6{opacity:0.81;}.cls-7{opacity:0.77;}.cls-8{opacity:0.73;}.cls-9{opacity:0.7;}.cls-10{opacity:0.66;}.cls-11{opacity:0.62;}.cls-12{opacity:0.58;}.cls-13{opacity:0.54;}.cls-14{opacity:0.51;}.cls-15{opacity:0.47;}.cls-16{opacity:0.43;}.cls-17{opacity:0.39;}.cls-18{opacity:0.35;}.cls-19{opacity:0.31;}.cls-20{opacity:0.28;}.cls-21{opacity:0.24;}.cls-22{opacity:0.2;}.cls-23{opacity:0.16;}.cls-24{opacity:0.12;}.cls-25{opacity:0.09;}.cls-26{opacity:0.05;}.cls-27{opacity:0.01;}</style></defs><g id="Layer_2" data-name="Layer 2"><g id="Layer_1-2" data-name="Layer 1"><path class="cls-1" d="M4.3,157.33C168,252.33,100.77,445.9,243.5,373.8c97-49,68.89-47.06,132-89,56-37.19,120.62-65.45,187,13,66,78,129.31,166.4,272,135,150-33,132.4-194.28,335-146,214,51,80.22,232.56,327,133,176-71,44-262,199-198,90.46,37.36,157,102,266,147,79.89,33,67.37-61.36,204-12,155,56,170.11,132.94,450,73"/><path class="cls-2" d="M4.16,151.3c162.22,97.23,99.67,282.75,239.16,214.46,99.56-48.75,71.34-44.53,134.83-87.38,55.74-37.5,118.16-59.76,185.64,15.08,68,75.39,131.28,158.2,272.22,127.2a203.62,203.62,0,0,0,77.81-35.12c66.72-48.25,94.92-123.46,203.83-111.8a425.92,425.92,0,0,1,51.92,9.39c73.74,17.46,107.11,47.17,128.13,79.83,37.92,58.64,40.52,108.24,198.54,44.51,172.31-69.5,49.18-254,202.26-191,10.28,4.23,20.26,8.82,30,13.7,76.49,38.16,140.14,92.17,235.5,131,79.52,32.21,69.71-58.17,203.4-11,116.85,41.2,155.59,92.89,288.64,91.76,42.8-.37,94.34-5.82,159.71-19.13"/><path class="cls-3" d="M4,145.26c160.73,99.47,103,277.06,239.12,212.45,102.17-48.49,73.79-42,137.66-85.76,55.53-37.81,115.78-54.07,184.29,17.17,70,72.8,133.26,150,272.45,119.4,31.73-7,56.38-19.43,77.72-34.12,67.82-46.55,98.07-121,203.35-105.3,15.2,2.27,32.07,5.91,51,10.36,72.43,17,106.88,42.5,128,75.57,37.13,57.6,42.53,102.92,198.32,40.11,168.63-68,54.36-246,205.52-184,10.23,4.19,20.18,8.75,29.93,13.6,76.93,38.26,141,91,235.16,128.73,79.15,31.44,72.06-55,202.79-10.05,115.7,39.77,156.29,86.62,287.93,88.85,43.46.74,94.83-4.27,158.78-16.59"/><path class="cls-4" d="M3.86,139.23C163.1,240.93,110.22,410.73,243,349.66c104.8-48.22,76.15-39.6,140.49-84.14,55.23-38.23,113.46-48.38,182.94,19.26C638.49,355,701.61,426.57,839,396.38c31.33-6.89,56-19,77.64-33.13,68.92-44.84,101.32-118.33,202.88-98.78,14.93,2.87,31.47,7,50.16,11.32,71.11,16.6,106.56,37.9,127.88,71.31,36.17,56.66,44.53,97.61,198.11,35.7,164.94-66.49,59.54-238,208.78-177,10.18,4.16,20.09,8.68,29.81,13.51,77.37,38.35,141.77,90,234.83,126.48,78.7,30.84,74.41-51.81,202.18-9.07,114.56,38.33,157,84,287.21,86,44.14.65,95.32-2.72,157.85-14.06"/><path class="cls-5" d="M3.72,133.2C161.46,237.13,113.53,399.26,242.77,341.61c107.47-47.94,78.57-37.1,143.32-82.52,55-38.57,111.21-42.72,181.58,21.35C642,348.07,704.87,414,840.55,384.23c30.94-6.79,55.59-18.51,77.56-32.12,70-43.15,104.65-115.58,202.4-92.28,14.68,3.5,30.87,8,49.28,12.29,69.8,16.17,106.31,33.25,127.77,67.06,35.31,55.64,46.52,92.28,197.89,31.29,161.25-65,64.72-230,212-169.93,10.13,4.12,20,8.6,29.7,13.4,77.81,38.45,142.6,88.91,234.49,124.25,78.31,30.11,76.78-48.67,201.58-8.09,113.42,36.87,157.64,79.66,286.49,83,44.81,1.17,95.81-1.18,156.91-11.52"/><path class="cls-6" d="M3.57,127.17c156.25,106.16,113.34,260.74,239,206.39,110.19-47.64,81-34.6,146.15-80.89,54.76-38.91,109-37.09,180.23,23.43,76.51,65,139.18,125.39,273.11,96,30.53-6.7,55.19-18,77.47-31.13,71.12-41.44,108-112.67,201.92-85.77,14.46,4.14,30.28,9.11,48.4,13.26,68.49,15.75,106.06,28.6,127.65,62.8,34.48,54.62,48.52,87,197.67,26.89,157.58-63.5,69.9-222,215.3-162.92,10.08,4.08,19.91,8.53,29.58,13.31,78.24,38.54,143.43,87.79,234.15,122,77.93,29.39,79.16-45.53,201-7.11,112.28,35.41,158.33,75.35,285.77,80.13a793.61,793.61,0,0,0,156-9"/><path class="cls-7" d="M3.43,121.14c154.75,108.39,116.92,255.53,239,204.37,112.92-47.33,83.42-32.09,149-79.27C445.9,207,498.32,214.76,570.25,271.76,649.07,334.22,711.4,389,843.58,360c30.14-6.61,54.8-17.6,77.39-30.13,72.22-39.74,111.48-109.6,201.45-79.27,14.24,4.81,29.67,10.18,47.51,14.23,67.18,15.32,105.81,24,127.53,58.54,33.65,53.6,50.52,81.65,197.46,22.48,153.89-62,75.08-214,218.56-155.89q15,6.06,29.46,13.2c78.68,38.64,144.27,86.67,233.81,119.77,77.55,28.66,81.55-42.42,200.37-6.14,111.17,33.94,159,71.08,285.06,77.23,46.17,2.25,96.79,1.92,155.05-6.45"/><path class="cls-8" d="M3.28,115.1C156.54,225.73,123.85,365.54,242.22,317.47c115.69-47,85.85-29.59,151.81-77.66,54.29-39.56,104.9-25.91,177.51,27.61,81.19,59.84,143.13,109,273.55,80.39,29.74-6.53,54.41-17.14,77.31-29.14,73.33-38,115-106.34,201-72.75,14,5.48,29.07,11.24,46.63,15.19,65.87,14.89,105.56,19.29,127.41,54.29,32.82,52.56,52.52,76.33,197.25,18.07,150.2-60.49,80.26-206,221.81-148.88,10,4,19.73,8.39,29.34,13.11,79.13,38.73,145.11,85.53,233.49,117.53,77.15,27.93,83.94-39.32,199.76-5.17,110.06,32.46,159.73,66.86,284.34,74.32,46.85,2.81,97.28,3.47,154.12-3.91"/><path class="cls-9" d="M3.13,109.07C154.9,221.93,127.41,354.51,242,309.42c118.5-46.62,88.29-27.08,154.64-76,54.06-39.88,102.94-20.38,176.16,29.7,83.62,57.2,145.1,100.79,273.77,72.58,29.35-6.43,54-16.73,77.24-28.13,74.34-36.48,118.44-102.9,200.49-66.25,13.84,6.18,28.47,12.31,45.75,16.16,64.55,14.46,105.31,14.64,127.28,50,32,51.54,54.53,71,197,13.67,146.52-59,85.44-198,225.08-141.87q14.88,6,29.22,13c79.56,38.83,146,84.4,233.15,115.29,76.77,27.2,86.35-36.24,199.16-4.18,108.95,31,160.43,62.67,283.62,71.41,47.53,3.37,97.77,5,153.19-1.37"/><path class="cls-10" d="M3,103C153.26,218.13,131,343.59,241.85,301.37c121.34-46.22,90.72-24.56,157.47-74.41,53.83-40.21,101-14.91,174.81,31.78,86.12,54.51,147.07,92.59,274,64.78,28.94-6.34,53.59-16.27,77.15-27.14,75.44-34.79,121.93-99.25,200-59.74,13.65,6.91,27.87,13.38,44.87,17.13,63.24,14,105.06,10,127.17,45.78,31.18,50.49,56.52,65.69,196.81,9.25,142.83-57.49,90.62-190,228.34-134.84q14.79,5.88,29.1,12.91c80,38.92,146.8,83.26,232.81,113.05,76.4,26.46,88.77-33.19,198.55-3.21,107.86,29.45,161.14,58.52,282.91,68.5,48.21,4,98.26,6.57,152.26,1.17"/><path class="cls-11" d="M2.84,97C151.62,214.33,134.67,332.75,241.67,293.32c124.2-45.77,93.15-22,160.29-72.79C455.57,180,501.16,211,575.42,254.4c88.68,51.78,149,84.39,274.21,57,28.55-6.25,53.2-15.82,77.07-26.14,76.55-33.1,125.38-95.43,199.53-53.24,13.47,7.67,27.28,14.46,44,18.1,61.93,13.6,104.82,5.32,127,41.52,30.36,49.46,58.52,60.37,196.6,4.85,139.14-56,95.8-182,231.59-127.83,9.82,3.89,19.46,8.17,29,12.81,80.44,39,147.64,82.12,232.47,110.81,76,25.72,91.21-30.15,197.95-2.23s161.84,54.42,282.19,65.6c48.9,4.54,98.75,8.11,151.32,3.7"/><path class="cls-12" d="M2.69,91C150,210.53,138.37,322,241.48,285.27c127.11-45.28,95.6-19.52,163.13-71.17,53.39-40.83,97.4-4.12,172.1,36,91.3,49,151,76.19,274.43,49.18,28.15-6.16,52.81-15.37,77-25.15,77.65-31.39,128.79-91.43,199.06-46.72,13.27,8.44,26.67,15.52,43.1,19,60.62,13.18,104.59.68,126.93,37.27,29.56,48.42,60.52,55.06,196.38.45,135.46-54.5,101-174,234.86-120.82q14.64,5.79,28.87,12.72c80.88,39.1,148.49,81,232.14,108.57,75.64,25,93.64-27.15,197.34-1.26,105.69,26.4,162.54,50.35,281.47,62.7,49.58,5.14,99.24,9.66,150.39,6.23"/><path class="cls-13" d="M2.55,85C148.34,206.73,142.1,311.35,241.3,277.23c130-44.74,98-17,166-69.56,53.16-41.14,95.65,1.18,170.74,38.05,94,46.13,153,68,274.66,41.37,27.75-6.07,52.41-14.91,76.9-24.14,78.75-29.7,132.12-87.26,198.58-40.22,13.07,9.25,26.07,16.59,42.22,20,59.31,12.75,104.35-4,126.81,33,28.76,47.37,62.52,49.73,196.17-4,131.77-53,106.16-166,238.11-113.79,9.72,3.81,19.28,8,28.75,12.61,81.32,39.2,149.35,79.81,231.81,106.33,75.26,24.22,96.09-24.16,196.74-.27C2293.37,301.51,2352,323,2469.5,336.46c50.26,5.77,99.73,11.21,149.46,8.78"/><path class="cls-14" d="M2.4,78.91c144.29,124,143.47,221.87,238.72,190.27,133-44.12,100.48-14.46,168.78-67.93,53-41.45,93.94,6.42,169.39,40.13,96.68,43.19,155,59.79,274.88,33.57,27.35-6,52-14.45,76.82-23.15,79.86-28,135.37-82.94,198.11-33.71,12.85,10.09,25.47,17.66,41.34,21,58,12.32,104.11-8.65,126.68,28.76,28,46.33,64.52,44.42,196-8.37,128.08-51.49,111.33-158,241.37-106.78q14.49,5.67,28.63,12.51c81.76,39.3,150.2,78.65,231.47,104.1,74.9,23.46,98.55-21.21,196.13.7,103.57,23.25,163.94,42.3,280.05,56.88,50.93,6.39,100.21,12.75,148.52,11.31"/><path class="cls-15" d="M2.26,72.88c142.79,126.25,147.4,217.4,238.67,188.25,136-43.43,102.94-11.93,171.62-66.31,52.73-41.75,92.25,11.6,168,42.22,99.43,40.17,156.94,51.59,275.1,25.77,27-5.89,51.63-14,76.74-22.15,81-26.29,138.52-78.51,197.63-27.21,12.61,11,24.87,18.73,40.46,22,56.67,11.89,103.88-13.31,126.57,24.51,27.15,45.27,66.51,39.09,195.73-12.78,124.41-50,116.52-150,244.64-99.77q14.41,5.61,28.51,12.42c82.2,39.39,151.06,77.47,231.13,101.86,74.53,22.69,101-18.28,195.53,1.67,102.52,21.65,164.63,38.33,279.33,54,51.61,7,100.7,14.31,147.59,13.85"/><path class="cls-16" d="M2.11,66.85c141.3,128.48,151.38,213,238.64,186.23,139-42.65,105.39-9.39,174.45-64.69,52.52-42,90.58,16.71,166.68,44.31,102.2,37.06,158.91,43.39,275.32,18,26.56-5.8,51.23-13.54,76.65-21.16,82.07-24.58,141.56-74,197.15-20.69,12.35,11.83,24.28,19.79,39.58,22.92,55.36,11.47,103.66-18,126.45,20.25,26.36,44.22,68.52,33.78,195.52-17.19,120.72-48.49,121.7-142,247.89-92.74q14.34,5.55,28.4,12.31c82.63,39.49,151.92,76.3,230.79,99.62,74.16,21.93,103.5-15.38,194.93,2.66,101.47,20,165.31,34.38,278.61,51.06,52.29,7.7,101.19,15.85,146.66,16.38"/><path class="cls-17" d="M2,60.82C141.77,191.53,157.33,269.51,240.57,245c142.07-41.77,107.84-6.84,177.27-63.07,52.31-42.35,88.94,21.76,165.33,46.4,105,33.86,160.88,35.19,275.54,10.16,26.16-5.71,50.84-13.07,76.57-20.15,83.18-22.88,144.48-69.35,196.68-14.19,12,12.73,23.67,20.86,38.69,23.89,54,11,103.43-22.65,126.33,16,25.58,43.17,70.52,28.46,195.31-21.59,117-47,126.87-134,251.15-85.73q14.25,5.5,28.28,12.22c83.07,39.58,152.77,75.11,230.46,97.38,73.79,21.15,106-12.51,194.31,3.63,100.44,18.35,166,30.47,277.9,48.15,53,8.38,101.68,17.4,145.73,18.93"/><path class="cls-18" d="M1.82,54.79C140.13,187.73,161.2,259.22,240.38,237c145.17-40.76,110.3-4.3,180.11-61.44,52.1-42.65,87.29,26.73,164,48.48,107.81,30.56,162.86,27,275.76,2.36,25.77-5.62,50.45-12.61,76.5-19.15,84.28-21.17,147.27-64.68,196.19-7.69,11.73,13.66,23.07,21.93,37.81,24.86,52.74,10.61,103.22-27.32,126.21,11.74,24.8,42.11,72.52,23.14,195.1-26,113.34-45.49,132-126,254.41-78.72q14.18,5.45,28.16,12.12c83.51,39.68,153.64,73.93,230.12,95.14,73.43,20.37,108.47-9.67,193.71,4.61,99.41,16.65,166.67,26.58,277.18,45.25,53.63,9.06,102.17,18.95,144.79,21.46"/><path class="cls-19" d="M1.67,48.75C138.49,183.93,165.08,249,240.2,228.94c148.29-39.62,112.76-1.76,182.94-59.83,51.89-42.94,85.63,31.66,162.61,50.56,110.62,27.17,164.83,18.8,276-5.43,25.36-5.53,50.06-12.11,76.41-18.16,85.42-19.29,149.95-60,195.72-1.18,11.36,14.6,22.47,23,36.93,25.83,51.42,10.18,103-32,126.08,7.48,24,41.06,74.52,17.82,194.88-30.41,109.66-44,137.24-118,257.67-71.69q14.1,5.38,28,12c84,39.77,154.51,72.73,229.79,92.9,73.06,19.58,111-6.87,193.11,5.58,98.39,14.92,167.33,22.72,276.46,42.35,54.3,9.76,102.66,20.49,143.86,24"/><path class="cls-20" d="M1.52,42.72C136.85,180.13,169,238.85,240,220.89c151.46-38.3,115.22.8,185.76-58.21,51.69-43.23,84,36.53,161.26,52.65C700.47,239,753.85,225.93,863.25,202.1c25-5.44,49.67-11.65,76.33-17.16,86.52-17.59,152.5-55.28,195.24,5.33,11,15.54,21.87,24.06,36,26.79,50.11,9.75,102.78-36.67,126,3.23s76.51,12.5,194.66-34.82c106-42.49,142.41-110,260.93-64.68q14,5.33,27.92,11.92c84.39,39.87,155.37,71.53,229.45,90.67,72.71,18.77,113.47-4.1,192.51,6.56,97.37,13.13,168,18.87,275.74,39.43,55,10.49,103.15,22,142.93,26.54"/><path class="cls-21" d="M1.38,36.69C135.21,176.33,172.87,228.76,239.83,212.84c154.67-36.77,117.69,3.36,188.6-56.59,51.48-43.52,82.3,41.34,159.91,54.74,116.21,20.07,168.77,2.4,276.42-21,24.57-5.34,49.28-11.19,76.25-16.16,87.62-15.88,154.94-50.59,194.77,11.84,10.52,16.5,21.26,25.13,35.16,27.76,48.8,9.32,102.58-41.35,125.85-1,22.47,38.93,78.51,7.18,194.45-39.22,102.28-41,147.59-102,264.18-57.66q13.95,5.26,27.81,11.82c84.83,40,156.24,70.31,229.12,88.42,72.34,18,116-1.36,191.89,7.54,96.37,11.3,168.64,15.06,275,36.53,55.61,11.22,103.64,23.59,142,29.07"/><path class="cls-22" d="M1.23,30.66C133.57,172.53,176.78,218.72,239.65,204.79c157.92-35,120.16,5.92,191.43-55,51.28-43.82,80.59,46.1,158.55,56.82,119,16.37,170.75-5.8,276.65-28.84,24.17-5.26,48.88-10.73,76.16-15.16,88.73-14.18,157.27-45.95,194.29,18.34,10,17.46,20.67,26.2,34.28,28.73,47.49,8.89,102.38-46,125.73-5.29,21.7,37.87,80.52,1.87,194.23-43.63,98.6-39.48,152.78-94,267.45-50.64q13.88,5.22,27.69,11.72c85.27,40.06,157.1,69.1,228.78,86.19,72,17.16,118.47,1.33,191.29,8.51,95.36,9.41,169.28,11.27,274.31,33.62,56.26,12,104.13,25.14,141.07,31.61"/><path class="cls-23" d="M1.09,24.63c130.84,144.1,179.59,184.11,238.38,172.11,161.2-32.9,122.63,8.48,194.25-53.34,51.09-44.1,78.87,50.82,157.2,58.91,121.71,12.58,172.73-14,276.87-36.64,23.77-5.17,48.49-10.28,76.08-14.17,89.83-12.47,159.51-41.35,193.81,24.85,9.54,18.42,20.07,27.27,33.41,29.69,46.17,8.47,102.18-50.7,125.6-9.53,20.94,36.8,82.52-3.45,194-48,94.92-38,158-86,270.71-43.63q13.78,5.16,27.57,11.63c85.7,40.15,158,67.87,228.44,83.94,71.63,16.34,121,4,190.69,9.5,94.34,7.45,169.91,7.49,273.59,30.71,56.91,12.74,104.62,26.68,140.14,34.14"/><path class="cls-24" d="M.94,18.6C130.29,164.93,184.57,198.82,239.28,188.69,403.82,158.26,364.5,199.86,436.37,137c51-44.29,77.1,55.5,155.84,61,124.41,8.7,174.7-22.2,277.09-44.44,23.38-5.08,48.09-9.82,76-13.17,90.93-10.77,161.65-36.82,193.34,31.36,9,19.36,19.47,28.33,32.52,30.65,44.86,8,102-55.39,125.48-13.79,20.18,35.73,84.52-8.77,193.81-52.45,91.23-36.48,163.13-78,274-36.6q13.72,5.1,27.46,11.52c86.14,40.25,158.84,66.64,228.1,81.71,71.27,15.51,123.47,6.6,190.09,10.47,93.32,5.42,170.53,3.74,272.87,27.8,57.55,13.54,105.12,28.24,139.2,36.69"/><path class="cls-25" d="M.79,12.56C128.65,161.13,188.44,188.94,239.1,180.65,407,153.15,366.77,194.34,439,130.54c50.75-44.6,75.31,60.14,154.49,63.09,127.06,4.74,176.68-30.4,277.31-52.25a662.15,662.15,0,0,1,75.92-12.17c92-9.06,163.71-32.36,192.86,37.87,8.43,20.3,18.87,29.4,31.64,31.62,43.55,7.61,101.82-60.08,125.37-18,19.41,34.66,86.51-14.09,193.58-56.86,87.55-35,168.32-70,277.23-29.59q13.63,5,27.33,11.42c86.59,40.35,159.72,65.4,227.77,79.47,70.92,14.67,126,9.17,189.48,11.45,92.31,3.31,171.14,0,272.16,24.9,58.18,14.34,105.61,29.78,138.27,39.22"/><path class="cls-26" d="M.65,6.53C127,157.33,192.28,179.12,238.92,172.6,410.21,148.65,369,188.83,441.66,124.12c50.53-44.92,73.47,65.94,153.13,65.17,129.66-1.25,178.65-38.61,277.54-60a565.14,565.14,0,0,1,75.83-11.17c93.13-7.37,165.7-28,192.39,44.37,7.83,21.23,18.26,30.48,30.75,32.59,42.24,7.18,101.71-64.82,125.25-22.3,18.71,33.56,88.51-19.41,193.37-61.26,83.86-33.48,173.49-62,280.49-22.58q13.54,5,27.21,11.33c87,40.44,160.6,64.05,227.44,77.23,70.58,13.72,128.42,11.7,188.87,12.42,91.26,1.1,171.74-3.71,271.44,22,58.8,15.16,106.1,31.33,137.34,41.75"/><path class="cls-27" d="M.5.5c124.86,153,195.57,168.85,238.23,164.05,174.7-19.64,132.57,18.76,205.58-46.86C494.62,72.47,515.89,187,596.09,185c162.4-4.19,198.36-68.71,353.51-78,94.22-5.66,167.62-23.67,191.9,50.88,31.38,96.39,124.31-48.73,155,7,33.09,60.09,253-186.33,504-70,328,152,466.53,48.34,686.09,107.48A1405.23,1405.23,0,0,1,2623,246.57"/></g></g></svg>