<svg xmlns="http://www.w3.org/2000/svg" viewBox="0 0 572.28 1148.98"><defs><style>.cls-1,.cls-10,.cls-11,.cls-12,.cls-13,.cls-14,.cls-15,.cls-16,.cls-17,.cls-18,.cls-19,.cls-2,.cls-20,.cls-21,.cls-22,.cls-23,.cls-24,.cls-25,.cls-26,.cls-27,.cls-28,.cls-29,.cls-3,.cls-30,.cls-31,.cls-32,.cls-4,.cls-5,.cls-6,.cls-7,.cls-8,.cls-9{fill:none;stroke:#6c93a7;stroke-miterlimit:10;}.cls-1{opacity:0.5;}.cls-2{opacity:0.49;}.cls-3{opacity:0.48;}.cls-4{opacity:0.47;}.cls-5{opacity:0.46;}.cls-6{opacity:0.45;}.cls-7{opacity:0.44;}.cls-8{opacity:0.43;}.cls-9{opacity:0.42;}.cls-10{opacity:0.41;}.cls-11{opacity:0.4;}.cls-12{opacity:0.39;}.cls-13{opacity:0.38;}.cls-14{opacity:0.37;}.cls-15{opacity:0.36;}.cls-16{opacity:0.35;}.cls-17{opacity:0.35;}.cls-18{opacity:0.34;}.cls-19{opacity:0.33;}.cls-20{opacity:0.32;}.cls-21{opacity:0.31;}.cls-22{opacity:0.3;}.cls-23{opacity:0.29;}.cls-24{opacity:0.28;}.cls-25{opacity:0.27;}.cls-26{opacity:0.26;}.cls-27{opacity:0.25;}.cls-28{opacity:0.24;}.cls-29{opacity:0.23;}.cls-30{opacity:0.22;}.cls-31{opacity:0.21;}.cls-32{opacity:0.2;}</style></defs><g id="Layer_2" data-name="Layer 2"><g id="Layer_1-2" data-name="Layer 1"><path class="cls-1" d="M.13,29.5C170,45.67,165.43,84,192.13,132.5c25.61,46.57,17-22,88,113,56.31,107.06-97.73,144.41-114,206-6.32,23.93,117,113,109,141-17.77,62.58,86.61,72.17,79,121-12,77.23-97,37-206,117-49.48,36.31,102,124.33,96,176-4.4,37.94,30,71-238,85"/><path class="cls-2" d="M.32,28.56C172.7,44.34,170.51,82.86,196.84,131.21c17.81,32.59,18.72,9.22,43.16,40.34,10.75,13.67,25.39,34.7,45.9,73.6C323.13,315.82,267.08,356,222.22,394c-21.94,18.59-41.73,36-46.4,56.19-5.63,24.28,115.19,111.11,107.57,140-9,33.59,13.57,51.63,37.22,69.71,21.11,16.15,42.6,30.71,39.8,53.7-1.72,14.12-5.77,24.37-12.43,32.29-29.76,35.32-108.31,19.53-195,84.88-48.37,36.48,101.13,120.26,96,175.19-3,32.58,20.8,61.86-152.19,80.05-26.21,2.86-56.33,5.33-90.94,7.37"/><path class="cls-3" d="M.52,27.63C175.4,43,175.59,81.76,201.55,129.92c17.43,32.09,18.32,10.4,42.72,41.46,11.53,14.65,26.94,34.69,47.41,73.41,36.72,69.6-18.64,109.46-61.93,148.08-21,18.76-40.25,36-44.25,56C180.57,473.52,299,558.15,291.64,587.79c-8.5,34.24,12,52,35.05,71.16,20.48,17,42,31.8,40,54.67-1.23,14.15-4.72,24.46-11.27,32.59-29.26,36.08-113.3,19.45-197.49,84.74C110.66,867.62,258.16,947.1,254,1005.34c-2.29,32.09,19.75,60.71-155.85,81.45-27.18,3.2-57.83,6.11-92.41,8.39"/><path class="cls-4" d="M.71,26.69c177.38,15,179.85,54,205.55,101.94,17,31.64,17.92,11.58,42.28,42.58,12.3,15.63,28.48,34.68,48.91,73.23C333.67,313,279,352.5,237.28,391.76c-20.11,18.92-38.75,36-42.09,55.78C191,472.6,307,555,299.9,585.44c-8.08,34.86,10.35,52.4,32.88,72.6,19.85,17.8,41.4,32.89,40.2,55.64-.76,14.18-3.67,24.56-10.12,32.88-28.76,36.84-118.29,19.39-200,84.62-46.17,36.84,99.3,112,96.09,173.58-1.64,31.59,18.76,60-159.51,82.84-28.13,3.62-59.31,6.91-93.87,9.42"/><path class="cls-5" d="M.9,25.76C180.79,40.37,185.6,79.64,211,127.34c16.56,31.15,17.51,12.75,41.84,43.7,13.08,16.61,30,34.67,50.42,73,35.71,67.45-18.25,106.65-58.42,146.56-19.2,19.08-37.23,36-39.93,55.58-3.51,25.48,110,105.61,103.28,136.86-7.66,35.49,8.74,52.77,30.7,74,19.22,18.62,40.82,34,40.4,56.61-.27,14.22-2.6,24.66-9,33.18C342.14,784.59,247,766.26,167.74,831.4c-45.07,37,98.34,107.8,96.13,172.78-1.06,31.08,17.75,59.22-163.17,84.24-29.09,4-60.8,7.69-95.35,10.43"/><path class="cls-6" d="M1.1,24.82C183.48,39,190.65,78.56,215.68,126.05c16.16,30.67,17.11,13.93,41.4,44.82,13.86,17.59,31.57,34.66,51.92,72.86C344.2,310.1,291,348.94,252.34,389.52c-18.29,19.23-35.69,36-37.77,55.38-2.78,25.92,108.29,103.77,101.85,135.83-7.25,36.11,7.12,53.13,28.52,75.48,18.6,19.43,40.24,35.11,40.6,57.59.23,14.26-1.54,24.76-7.8,33.47-27.64,38.45-128.28,19.31-205.1,84.36-44,37.23,97.35,103.58,96.17,172-.53,30.56,16.75,58.53-166.84,85.64-30,4.43-62.29,8.48-96.81,11.45"/><path class="cls-7" d="M1.29,23.89C186.18,37.72,195.7,77.47,220.39,124.76c15.75,30.18,16.71,15.11,41,46,14.63,18.56,33.11,34.63,53.42,72.66,34.7,65.3-17.84,103.77-54.9,145-17.38,19.36-34.13,36.07-35.61,55.17-2,26.38,106.54,101.93,100.42,134.79-6.85,36.74,5.51,53.49,26.35,76.93,18,20.23,39.66,36.21,40.79,58.56.73,14.3-.48,24.85-6.65,33.77-27.11,39.22-133.25,19.28-207.62,84.22-42.86,37.43,96.31,99.35,96.19,171.17-.05,30,15.75,57.87-170.49,87-31,4.85-63.78,9.27-98.28,12.47"/><path class="cls-8" d="M1.48,23C188.87,36.39,200.75,76.39,225.1,123.47c15.35,29.69,16.31,16.29,40.53,47.07,15.4,19.54,34.65,34.62,54.92,72.48,34.19,64.22-17.65,102.29-53.15,144.27-16.47,19.48-32.55,36.11-33.45,55-1.28,26.85,104.79,100.09,99,133.76-6.43,37.36,3.92,53.83,24.18,78.37,17.36,21,39.1,37.33,41,59.53,1.23,14.34.57,24.94-5.49,34.06-26.59,40-138.23,19.27-210.16,84.1-41.76,37.64,95.23,95.09,96.23,170.36.39,29.5,14.75,57.24-174.16,88.43-31.95,5.28-65.27,10.06-99.75,13.5"/><path class="cls-9" d="M1.68,22C191.57,35.07,205.8,75.3,229.81,122.18c14.95,29.2,15.91,17.46,40.09,48.19,16.18,20.52,36.19,34.61,56.42,72.29,33.69,63.14-17.45,100.8-51.39,143.51-15.57,19.6-31,36.16-31.3,54.78-.5,27.32,103,98.24,97.56,132.71-6,38,2.32,54.17,22,79.82,16.74,21.81,38.54,38.44,41.19,60.5,1.73,14.39,1.62,25-4.34,34.36-26.08,40.76-143.21,19.27-212.7,84-40.65,37.84,94.12,90.81,96.26,169.54.79,29,13.77,56.65-177.81,89.84-32.91,5.7-66.76,10.85-101.22,14.52"/><path class="cls-10" d="M1.87,21.08c192.39,12.66,209,53.13,232.65,99.81,14.55,28.71,15.51,18.64,39.65,49.31,17,21.51,37.73,34.6,57.93,72.11,33.17,62.06-17.26,99.28-49.64,142.75-14.67,19.7-29.33,36.2-29.14,54.57.3,27.81,101.29,96.39,96.13,131.68-5.64,38.6.72,54.5,19.83,81.26,16.13,22.59,38,39.56,41.39,61.46,2.24,14.45,2.68,25.14-3.18,34.66C381.93,790.23,259.31,768,192.26,832.53c-39.55,38.07,92.95,86.54,96.29,168.74,1.15,28.44,12.77,56.06-181.48,91.24-33.86,6.13-68.24,11.63-102.68,15.54"/><path class="cls-11" d="M2.06,20.15c194.9,12.26,213.85,53,237.17,99.45,14.16,28.22,15.11,19.82,39.21,50.43,17.73,22.49,39.28,34.59,59.43,71.92,32.67,61-17.07,97.75-47.88,142-13.78,19.79-27.69,36.26-27,54.37,1.11,28.31,99.53,94.55,94.7,130.64-5.25,39.23-.87,54.83,17.65,82.7C390.89,675,412.82,692.34,417,714.09c2.75,14.5,3.73,25.23-2,35-25.05,42.3-153.15,19.31-217.77,83.71-38.43,38.29,91.73,82.25,96.32,167.93,1.5,27.9,11.79,55.5-185.13,92.64-34.82,6.56-69.74,12.42-104.16,16.56"/><path class="cls-12" d="M2.26,19.21C199.65,31.09,221,72,243.93,118.31c13.77,27.73,14.72,21,38.78,51.55,18.51,23.47,40.82,34.58,60.93,71.74,32.17,59.91-16.89,96.19-46.12,141.23-12.89,19.86-26,36.32-24.82,54.16,1.95,28.82,97.76,92.7,93.27,129.61-4.86,39.85-2.46,55.14,15.48,84.14,14.92,24.14,36.92,41.8,41.78,63.41,3.28,14.55,4.79,25.32-.87,35.25-24.53,43.07-158.09,19.36-220.3,83.58-37.32,38.54,90.47,78,96.36,167.13,1.81,27.36,10.8,55-188.8,94-35.77,7-71.22,13.2-105.62,17.58"/><path class="cls-13" d="M2.45,18.27C202.35,29.76,226,70.94,248.64,117,262,144.25,263,139.19,287,169.7c19.29,24.44,42.36,34.56,62.44,71.54,31.66,58.84-16.73,94.61-44.37,140.47-12,19.94-24.35,36.38-22.66,54,2.82,29.33,96,90.86,91.84,128.57-4.47,40.47-4,55.46,13.3,85.59,14.33,24.9,36.4,42.92,42,64.38,3.8,14.6,5.84,25.42.29,35.55-24,43.83-163,19.41-222.83,83.45-36.21,38.77,89.14,73.67,96.38,166.32,2.1,26.82,9.83,54.44-192.45,95.43-36.72,7.44-72.72,14-107.09,18.6"/><path class="cls-14" d="M2.64,17.34c202.4,11.1,228.44,52.5,250.71,98.39,13,26.74,13.92,23.35,37.9,53.8,20.07,25.42,43.91,34.55,63.94,71.36,31.15,57.76-16.59,93-42.61,139.7-11.14,20-22.66,36.45-20.5,53.76,3.7,29.84,94.23,89,90.4,127.54-4.08,41.08-5.6,55.77,11.14,87,13.74,25.66,35.88,44,42.18,65.35,4.33,14.64,6.89,25.51,1.44,35.84-23.51,44.59-168,19.49-225.37,83.33-35.08,39,87.76,69.38,96.42,165.51,2.37,26.28,8.85,53.93-196.12,96.83C74.5,1103.67,38,1110.56,3.61,1115.4"/><path class="cls-15" d="M2.84,16.4c204.9,10.71,233.31,52.35,255.22,98,12.6,26.25,13.52,24.53,37.46,54.92,20.84,26.4,45.52,34.5,65.45,71.17,30.76,56.63-16.47,91.39-40.86,139-10.28,20-20.94,36.5-18.35,53.55,4.63,30.36,92.47,87.16,89,126.5-3.7,41.71-7.17,56.08,9,88.48,13.16,26.42,35.37,45.15,42.38,66.32,4.86,14.69,7.94,25.6,2.6,36.14-23,45.35-172.92,19.57-227.91,83.19-34,39.29,86.32,65.1,96.46,164.71,2.61,25.74,7.87,53.44-199.78,98.23-38.63,8.33-75.69,15.57-110,20.64"/><path class="cls-16" d="M3,15.47c207.4,10.32,238.19,52.18,259.74,97.68,12.21,25.75,13.12,25.71,37,56,21.62,27.38,47.07,34.49,66.95,71,30.25,55.54-16.36,89.75-39.1,138.18-9.43,20.1-19.22,36.56-16.19,53.35C317,462.57,402.15,517,399,557.18c-3.32,42.32-8.73,56.39,6.78,89.91,12.58,27.19,34.87,46.27,42.58,67.3,5.4,14.74,9,25.69,3.76,36.43-22.5,46.12-177.84,19.67-230.44,83.07-32.83,39.55,84.8,60.82,96.48,163.9,2.86,25.21,6.91,53-203.44,99.63-39.57,8.78-77.18,16.36-111.49,21.66"/><path class="cls-17" d="M3.23,14.53c209.9,9.93,243.06,52,264.25,97.32,11.82,25.26,12.72,26.89,36.58,57.17,22.4,28.36,48.62,34.47,68.46,70.8,29.74,54.47-16.29,88.1-37.35,137.42-8.59,20.14-17.47,36.62-14,53.15,6.54,31.36,88.92,83.47,86.12,124.43-2.94,42.95-10.28,56.7,4.61,91.36,12,28,34.37,47.38,42.77,68.27,5.95,14.78,10.05,25.78,4.92,36.73-22,46.87-182.74,19.78-233,82.93-31.68,39.83,83.23,56.56,96.52,163.1,3.07,24.68,5.94,52.5-207.1,101-40.52,9.23-78.67,17.15-113,22.69"/><path class="cls-18" d="M3.42,13.6c212.4,9.54,247.94,51.85,268.77,97,11.44,24.76,12.32,28.07,36.15,58.29,23.17,29.34,50.15,34.46,70,70.62,29.24,53.39-16.23,86.43-35.58,136.66-7.78,20.17-15.73,36.67-11.88,52.94,7.53,31.86,87.14,81.63,84.69,123.4-2.57,43.56-11.83,57,2.43,92.8,11.44,28.71,33.88,48.49,43,69.24,6.49,14.82,11.1,25.87,6.06,37-21.49,47.64-187.63,19.92-235.51,82.81C201,874.45,313.06,886.65,328,996.63c3.29,24.15,5,52-210.76,102.42C75.8,1108.74,37.11,1117,2.84,1122.76"/><path class="cls-19" d="M3.61,12.66c214.9,9.15,252.83,51.69,273.29,96.61,11.05,24.26,11.92,29.25,35.71,59.42s51.69,34.44,71.45,70.42c28.74,52.32-16.21,84.76-33.82,135.9-7,20.2-14,36.72-9.72,52.74,8.55,32.34,85.36,79.78,83.25,122.36-2.19,44.18-13.36,57.3.27,94.25,10.86,29.46,33.39,49.59,43.17,70.21,7,14.86,12.15,26,7.22,37.32-21,48.39-192.5,20.05-238,82.67C207,875,316.23,882.64,333,996.05c3.48,23.62,4,51.6-214.42,103.82C76.13,1110,36.9,1118.59,2.64,1124.6"/><path class="cls-20" d="M3.81,11.73c217.4,8.76,257.71,51.52,277.8,96.25,10.67,23.76,11.52,30.43,35.27,60.54,24.72,31.29,53.24,34.43,73,70.24,28.22,51.24-16.23,83.07-32.07,135.14-6.16,20.22-12.19,36.75-7.57,52.53,9.61,32.81,83.59,77.93,81.83,121.33-1.82,44.8-14.9,57.6-1.91,95.69,10.31,30.22,32.91,50.69,43.37,71.18,7.6,14.89,13.2,26,8.38,37.61-20.5,49.15-197.37,20.21-240.58,82.55-28.21,40.7,78,43.85,96.61,160.68,3.68,23.1,3.07,51.17-218.08,105.22-43.36,10.6-83.14,19.51-117.37,25.75"/><path class="cls-21" d="M4,10.79c219.9,8.37,262.6,51.35,282.32,95.9,10.3,23.26,11.12,31.6,34.83,61.66,25.5,32.27,54.78,34.42,74.46,70.05,27.71,50.17-16.27,81.38-30.31,134.38-5.37,20.24-10.4,36.79-5.41,52.33,10.69,33.27,81.81,76.09,80.4,120.29-1.45,45.42-16.43,57.91-4.09,97.13,9.75,31,32.44,51.79,43.57,72.16,8.16,14.93,14.25,26.14,9.54,37.91C469.31,802.51,287.1,773,246.19,835c-27,41,76.14,39.65,96.65,159.87,3.85,22.58,2.12,50.74-221.74,106.61-44.31,11.07-84.63,20.3-118.84,26.77"/><path class="cls-22" d="M4.19,9.85C226.6,17.84,271.69,61,291,105.4c9.92,22.76,10.72,32.78,34.39,62.78,26.27,33.25,56.32,34.41,76,69.87,27.2,49.09-16.36,79.69-28.56,133.61-4.59,20.27-8.61,36.82-3.25,52.14,11.79,33.7,80,74.23,79,119.25-1.08,46-18,58.21-6.26,98.57,9.19,31.74,32,52.88,43.76,73.13,8.73,15,15.3,26.23,10.7,38.2-19.51,50.67-207,20.55-245.65,82.29-25.85,41.32,74.15,35.48,96.67,159.07,4,22.06,1.17,50.33-225.39,108-45.27,11.53-86.12,21.09-120.32,27.79"/><path class="cls-23" d="M4.39,8.92c224.9,7.59,272.4,51,291.35,95.19,9.55,22.26,10.32,34,33.95,63.9,27.05,34.23,57.86,34.4,77.47,69.68,26.69,48-16.48,78-26.8,132.86-3.82,20.29-6.81,36.84-1.09,51.93,12.92,34.12,78.24,72.39,77.54,118.21-.72,46.66-19.48,58.52-8.44,100,8.65,32.5,31.49,54,44,74.1,9.28,15,16.35,26.32,11.84,38.5C485.17,804.73,292.34,774,256,835.47c-24.64,41.64,72.07,31.33,96.71,158.26,4.18,21.55.23,49.92-229.06,109.41C77.44,1115.13,36,1125,1.87,1132"/><path class="cls-24" d="M4.58,8C232,15.19,281.88,58.81,300.45,102.82c9.18,21.75,9.92,35.14,33.51,65,27.83,35.2,59.33,34.42,79,69.49,26.09,47-16.63,76.31-25,132.09-3.07,20.32-5,36.85,1.07,51.73,14.08,34.52,76.45,70.54,76.1,117.18-.35,47.28-21,58.82-10.6,101.46,8.1,33.26,31,55.05,44.16,75.07,9.85,15,17.4,26.41,13,38.79-18.52,52.18-216.62,20.93-250.72,82-23.42,42,69.89,27.23,96.74,157.46,4.34,21-.71,49.52-232.71,110.81-47.15,12.45-89.1,22.66-123.25,29.83"/><path class="cls-25" d="M4.77,7.05C234.68,13.86,287,57.7,305.16,101.53c8.81,21.25,9.52,36.32,33.07,66.15,28.61,36.18,60.88,34.41,80.48,69.3,25.58,45.93-16.83,74.65-23.29,131.33-2.33,20.36-3.19,36.86,3.23,51.53,15.25,34.91,74.66,68.7,74.67,116.14,0,47.9-22.5,59.14-12.78,102.9,7.55,34,30.55,56.14,44.36,76,10.42,15,18.45,26.5,14.16,39.08-18,53-221.39,21.14-253.25,81.91-22.19,42.3,67.59,23.14,96.77,156.64,4.49,20.54-1.65,49.14-236.38,112.22-48.09,12.92-90.59,23.45-124.72,30.85"/><path class="cls-26" d="M5,6.11c232.41,6.43,287.13,50.48,304.9,94.13,8.44,20.74,9.12,37.49,32.63,67.27,29.38,37.16,62.42,34.4,82,69.12,25.07,44.85-17.05,73-21.53,130.57-1.59,20.39-1.37,36.85,5.38,51.32,16.46,35.27,72.88,66.86,73.25,115.11.38,48.52-24,59.44-15,104.34,7,34.79,30.09,57.21,44.56,77,11,15,19.5,26.59,15.32,39.38-17.54,53.7-226.13,21.34-255.79,81.78-20.93,42.64,65.18,19.1,96.81,155.83,4.63,20-2.59,48.75-240,113.61-49,13.4-92.08,24.24-126.19,31.88"/><path class="cls-27" d="M5.16,5.18c234.91,6,292.06,50.29,309.42,93.77,8.08,20.23,8.72,38.67,32.19,68.39,30.16,38.15,64,34.39,83.49,68.93C454.82,280,413,307.61,410.48,366.08c-.87,20.44.45,36.84,7.54,51.12,17.68,35.6,71.08,65,71.82,114.07S464.33,591,472.71,637.06c6.47,35.55,29.62,58.27,44.76,78C529,730.1,538,741.73,533.94,754.72c-17.16,54.43-230.84,21.55-258.33,81.65-19.65,43,62.66,15.11,96.84,155,4.78,19.55-3.52,48.38-243.7,115-50,13.87-93.56,25-127.65,32.9"/><path class="cls-28" d="M5.35,4.24c237.42,5.65,297,50.11,313.94,93.42,7.72,19.73,8.31,39.85,31.75,69.51,30.94,39.13,65.51,34.38,85,68.75,24.06,42.69-17.6,69.71-18,129.05-.15,20.48,2.27,36.81,9.7,50.91,18.93,35.92,69.29,63.17,70.39,113s-27,60.06-19.31,107.23c5.94,36.32,29.16,59.34,45,79,12.13,15.06,21.57,26.78,17.63,40-16.66,55.19-235.54,21.75-260.86,81.52-18.37,43.32,60,11.16,96.87,154.22,4.91,19.06-4.45,48-247.36,116.41C79.11,1121.57,35,1133,.9,1141.15"/><path class="cls-29" d="M5.55,3.31C245.46,8.56,307.48,53.23,324,96.37c7.36,19.22,7.91,41,31.32,70.63,31.71,40.11,67,34.37,86.49,68.56,23.55,41.62-17.92,68.11-16.27,128.29.56,20.55,4.1,36.79,11.86,50.71,20.18,36.21,67.41,61.33,69,112,1.38,50.39-28.51,60.38-21.47,108.68,5.4,37.08,28.69,60.4,45.15,79.92,12.7,15.07,22.62,26.87,18.78,40.27-16.14,56-240.19,22-263.39,81.39-17.05,43.68,57.22,7.28,96.9,153.42,5.05,18.58-5.24,48.09-251,117.81C79.47,1123,34.76,1134.65.71,1143"/><path class="cls-30" d="M5.74,2.37c242.42,4.86,306.88,49.73,323,92.71,7,18.71,7.51,42.2,30.88,71.76,32.48,41.08,68.58,34.34,88,68.37,23,40.54-18.26,66.52-14.51,127.52,1.26,20.62,5.92,36.75,14,50.51,21.46,36.47,65.64,59.48,67.52,111,1.76,51-30,60.69-23.65,110.11,4.87,37.86,28.22,61.46,45.35,80.9,13.28,15.07,23.67,27,19.94,40.57C540.61,812.5,311.42,778,290.32,837.05c-15.71,44,54.3,3.44,96.94,152.61,5.17,18.11-6.21,47.58-254.68,119.2-52.79,15.36-98,27.39-132.06,36"/><path class="cls-31" d="M5.93,1.44c244.92,4.47,311.92,49.5,327.49,92.35,6.69,18.19,7.11,43.38,30.44,72.88C397.12,208.73,434,201,453.35,234.85c22.54,39.47-18.62,65-12.75,126.77,2,20.69,7.74,36.7,16.18,50.3,22.75,36.72,63.87,57.64,66.09,109.93,2.14,51.63-31.44,61-25.83,111.56,4.39,38.62,27.76,62.52,45.55,81.87,13.86,15.07,24.73,27.05,21.1,40.86-15.14,57.48-249.45,22.36-268.46,81.13-14.35,44.36,51.22-.31,97,151.81,5.31,17.64-7.17,47.07-258.34,120.6-53.73,15.81-99.52,28.18-133.53,37"/><path class="cls-32" d="M6.13.5c247.42,4.08,316.8,49.34,332,92,6.3,17.69,6.71,44.56,30,74,34,43,71.67,34.32,91,68,22,38.39-19,63.42-11,126,9.95,77.83,79.5,86.55,83,159,2.52,52.25-33,61.33-28,113,6.78,70.18,76,92,68,124-14.64,58.24-254,22.54-271,81-13,44.69,48-4,97,151,5.43,17.18-8.14,46.55-262,122-54.68,16.25-101,29-135,38"/></g></g></svg>