<?xml version="1.0" encoding="UTF-8"?>
<svg width="143px" height="129px" viewBox="0 0 143 129" version="1.1" xmlns="http://www.w3.org/2000/svg" xmlns:xlink="http://www.w3.org/1999/xlink">
    <title>Technology Solution</title>
    <defs>
        <filter x="-10.5%" y="-12.0%" width="120.2%" height="124.0%" filterUnits="objectBoundingBox" id="filter-1">
            <feOffset dx="0" dy="2" in="SourceAlpha" result="shadowOffsetOuter1"></feOffset>
            <feGaussianBlur stdDeviation="2" in="shadowOffsetOuter1" result="shadowBlurOuter1"></feGaussianBlur>
            <feColorMatrix values="0 0 0 0 0.0941176471   0 0 0 0 0.560784314   0 0 0 0 1  0 0 0 0.5 0" type="matrix" in="shadowBlurOuter1" result="shadowMatrixOuter1"></feColorMatrix>
            <feMerge>
                <feMergeNode in="shadowMatrixOuter1"></feMergeNode>
                <feMergeNode in="SourceGraphic"></feMergeNode>
            </feMerge>
        </filter>
    </defs>
    <g id="Page-1" stroke="none" stroke-width="1" fill="none" fill-rule="evenodd">
        <g id="Home" transform="translate(-130.000000, -862.000000)">
            <g id="Technology-Solution" filter="url(#filter-1)" transform="translate(140.000006, 872.179430)">
                <path d="M113.748735,26.0718284 C127.41708,39.7401735 127.41708,61.9008156 113.748735,75.5693107 C100.08039,89.2376559 77.9197478,89.2376559 64.2512527,75.5693107 C50.5829076,61.9009656 50.5829076,39.7403235 64.2512527,26.0718284 C77.9195978,12.4034833 100.08024,12.4034833 113.748735,26.0718284" id="Path" fill="#FFFFFF" fill-rule="nonzero"></path>
                <polyline id="Path" stroke="#2A5082" stroke-width="2" points="6.99999385 22.8205696 25.2499939 22.8205696 35.4999939 38.8205696 41.9999939 38.8205696"></polyline>
                <g id="Group" stroke="#2A5082" stroke-width="2">
                    <line x1="7.37664083" y1="51.7190071" x2="51.6365227" y2="51.7190071" id="Path"></line>
                    <path d="M12.5927171,19.4037054 C15.4734699,22.2890627 15.4734699,26.967175 12.5927171,29.8525323 C9.71196432,32.7378895 5.04131734,32.7378895 2.16056458,29.8525323 C-0.720188192,26.967175 -0.720188192,22.2890627 2.16056458,19.4037054 C5.04131734,16.5183482 9.71196432,16.5183482 12.5927171,19.4037054" id="Path" fill="#188FFF" fill-rule="nonzero"></path>
                    <polyline id="Path" points="7.37664083 78.8099446 25.3264818 78.8099446 35.1620111 64.0330696 51.6365227 64.0330696"></polyline>
                    <path d="M12.5927171,73.5855804 C15.4734699,76.4709377 15.4734699,81.14905 12.5927171,84.0344073 C9.71196432,86.9197645 5.04131734,86.9197645 2.16056458,84.0344073 C-0.720188192,81.14905 -0.720188192,76.4709377 2.16056458,73.5855804 C5.04131734,70.7002232 9.71196432,70.7002232 12.5927171,73.5855804" id="Path" fill="#188FFF" fill-rule="nonzero"></path>
                    <path d="M12.5927171,46.4946429 C15.4734699,49.3800002 15.4734699,54.0581125 12.5927171,56.9434698 C9.71196432,59.828827 5.04131734,59.828827 2.16056458,56.9434698 C-0.720188192,54.0581125 -0.720188192,49.3800002 2.16056458,46.4946429 C5.04131734,43.6092857 9.71196432,43.6092857 12.5927171,46.4946429" id="Path" fill="#188FFF" fill-rule="nonzero"></path>
                    <polyline id="Path" points="30.4901347 100.975257 47.4564227 76.3471321 66.3898167 76.3471321"></polyline>
                    <path d="M34.7226088,95.7508929 C37.6033616,98.6362502 37.6033616,103.314363 34.7226088,106.19972 C31.8418561,109.085077 27.1712091,109.085077 24.2904563,106.19972 C21.4097036,103.314363 21.4097036,98.6362502 24.2904563,95.7508929 C27.1712091,92.8655357 31.8418561,92.8655357 34.7226088,95.7508929" id="Path" fill="#188FFF" fill-rule="nonzero"></path>
                    <polyline id="Path" points="30.4901347 7.38838209 47.4564227 27.0908821 66.3898167 27.0908821"></polyline>
                    <path d="M34.7226088,2.16401793 C37.6033616,5.04937517 37.6033616,9.72748751 34.7226088,12.6128448 C31.8418561,15.498202 27.1712091,15.498202 24.2904563,12.6128448 C21.4097036,9.72748751 21.4097036,5.04937517 24.2904563,2.16401793 C27.1712091,-0.72133931 31.8418561,-0.72133931 34.7226088,2.16401793" id="Path" fill="#188FFF" fill-rule="nonzero"></path>
                    <line x1="66.3898167" y1="51.7190071" x2="51.6365227" y2="51.7190071" id="Path"></line>
                    <polyline id="Path" points="51.6365227 64.0330696 93.4375222 64.0330696 93.4375222 71.4215071 121.714669 52.2115696 93.4375222 32.0165071 93.4375222 39.4049446 56.5542874 39.4049446"></polyline>
                    <line x1="81.1431106" y1="51.7190071" x2="86.0608753" y2="51.7190071" id="Path"></line>
                    <line x1="71.3075813" y1="51.7190071" x2="76.225346" y2="51.7190071" id="Path"></line>
                    <line x1="71.3075813" y1="27.0908821" x2="76.225346" y2="27.0908821" id="Path"></line>
                    <line x1="71.3075813" y1="76.3471321" x2="76.225346" y2="76.3471321" id="Path"></line>
                    <line x1="51.6365227" y1="39.4049446" x2="46.7187581" y2="39.4049446" id="Path"></line>
                </g>
            </g>
        </g>
    </g>
</svg>