<svg id="Ebene_1" data-name="Ebene 1" xmlns="http://www.w3.org/2000/svg" viewBox="0 0 121 36.76"><defs><style>.cls-1{fill:#231f20;}.cls-1,.cls-2{fill-rule:evenodd;}.cls-2{fill:#47bfb3;}</style></defs><g id="_-1-Brand-_-1-Logos-_-0-New-_-1-Horizontal-_-Master" data-name="-1-Brand-/-1-Logos-/-0-New-/-1-Horizontal-/-Master"><path id="Text" class="cls-1" d="M106.11,11.22a1,1,0,0,1,.75.47l5,11.44h0l5.3-11.44a.91.91,0,0,1,.93-.47h2.52c.7,0,1.06.56.75,1.12l-11.57,24.4a.87.87,0,0,1-.75.52h-2.65a.77.77,0,0,1-.75-1.16l4-8.28-7.19-15.48a.76.76,0,0,1,.75-1.12Zm-49.39,0a.82.82,0,0,1,.8.47l4.61,10.14h0L67,11.69c.2-.43.64-.47,1.09-.47h2.14c.66,0,.93.43.66,1L63,28.41a.79.79,0,0,1-.75.43H62a.81.81,0,0,1-.76-.43l-7.84-16.2c-.26-.56,0-1,.67-1ZM78,10.83a.89.89,0,0,1,.88.84l0,16.33a.89.89,0,0,1-.88.84H75.4a.89.89,0,0,1-.87-.84l0-16.33a.89.89,0,0,1,.88-.84Zm7.82.39a.82.82,0,0,1,.8.47l4.61,10.14h0l4.79-10.14c.2-.43.64-.47,1.09-.47h2.14c.67,0,.93.43.67,1l-7.85,16.2a.78.78,0,0,1-.75.43h-.22a.78.78,0,0,1-.75-.43l-7.85-16.2c-.26-.56,0-1,.67-1ZM76.65.5a2.64,2.64,0,0,1,2.73,2.59,2.63,2.63,0,0,1-2.73,2.55,2.57,2.57,0,1,1,0-5.14Z" transform="translate(-0.5 -0.5)"/><path id="Icon" class="cls-2" d="M14.93,15.09a5.45,5.45,0,0,1-7.77,0,5.6,5.6,0,0,1,0-7.86,5.47,5.47,0,0,1,7.77,0l3.85,3.9ZM41.84,4.5a10.45,10.45,0,0,0-8.53-4A10.8,10.8,0,0,0,26,3.8L22.33,7.49,18.67,3.8a10.61,10.61,0,0,0-14.8-.45A10.75,10.75,0,0,0,.73,13.43a10.26,10.26,0,0,0,1.32,3.32,10.49,10.49,0,0,0,16.46,1.94l3.84-4L26.56,19a.92.92,0,0,0,1.32,0l2.25-2.28a.94.94,0,0,0,0-1.33L25.9,11.1l3.82-3.87a5.47,5.47,0,0,1,5.22-1.46,4.89,4.89,0,0,1,1.46.6,5.6,5.6,0,0,1,1.09,8.72L22.33,30.43l-5.95-6a.92.92,0,0,0-1.32,0l-2.25,2.28a.94.94,0,0,0,0,1.33l8.86,9A.91.91,0,0,0,23,37L41.06,18.7a10.7,10.7,0,0,0,3-9A10.56,10.56,0,0,0,41.84,4.5Z" transform="translate(-0.5 -0.5)"/></g></svg>