<svg xmlns="http://www.w3.org/2000/svg" viewBox="0 0 2620.2 567.19"><defs><style>.cls-1,.cls-10,.cls-11,.cls-12,.cls-13,.cls-14,.cls-15,.cls-16,.cls-17,.cls-18,.cls-19,.cls-2,.cls-20,.cls-21,.cls-22,.cls-23,.cls-24,.cls-25,.cls-26,.cls-27,.cls-28,.cls-29,.cls-3,.cls-30,.cls-31,.cls-32,.cls-33,.cls-34,.cls-35,.cls-36,.cls-37,.cls-38,.cls-39,.cls-4,.cls-40,.cls-41,.cls-42,.cls-43,.cls-44,.cls-45,.cls-46,.cls-47,.cls-48,.cls-49,.cls-5,.cls-50,.cls-51,.cls-52,.cls-6,.cls-7,.cls-8,.cls-9{fill:none;stroke:#aac8db;stroke-linecap:round;}.cls-1,.cls-10,.cls-11,.cls-12,.cls-13,.cls-14,.cls-15,.cls-16,.cls-17,.cls-18,.cls-19,.cls-20,.cls-21,.cls-22,.cls-23,.cls-24,.cls-25,.cls-26,.cls-27,.cls-28,.cls-29,.cls-30,.cls-31,.cls-32,.cls-33,.cls-34,.cls-35,.cls-36,.cls-37,.cls-38,.cls-39,.cls-40,.cls-41,.cls-42,.cls-43,.cls-44,.cls-45,.cls-46,.cls-47,.cls-48,.cls-49,.cls-5,.cls-50,.cls-51,.cls-52,.cls-6,.cls-8,.cls-9{stroke-miterlimit:10;}.cls-2,.cls-3,.cls-4{stroke-miterlimit:10;}.cls-2{opacity:0.98;}.cls-3{opacity:0.96;}.cls-4{opacity:0.94;}.cls-5{opacity:0.92;}.cls-6{opacity:0.9;}.cls-7{stroke-miterlimit:10;opacity:0.88;}.cls-8{opacity:0.86;}.cls-9{opacity:0.84;}.cls-10{opacity:0.83;}.cls-11{opacity:0.81;}.cls-12{opacity:0.79;}.cls-13{opacity:0.77;}.cls-14{opacity:0.75;}.cls-15{opacity:0.73;}.cls-16{opacity:0.71;}.cls-17{opacity:0.69;}.cls-18{opacity:0.67;}.cls-19{opacity:0.65;}.cls-20{opacity:0.63;}.cls-21{opacity:0.61;}.cls-22{opacity:0.59;}.cls-23{opacity:0.57;}.cls-24{opacity:0.55;}.cls-25{opacity:0.53;}.cls-26{opacity:0.51;}.cls-27{opacity:0.5;}.cls-28{opacity:0.48;}.cls-29{opacity:0.46;}.cls-30{opacity:0.44;}.cls-31{opacity:0.42;}.cls-32{opacity:0.4;}.cls-33{opacity:0.38;}.cls-34{opacity:0.36;}.cls-35{opacity:0.34;}.cls-36{opacity:0.32;}.cls-37{opacity:0.3;}.cls-38{opacity:0.28;}.cls-39{opacity:0.26;}.cls-40{opacity:0.24;}.cls-41{opacity:0.22;}.cls-42{opacity:0.2;}.cls-43{opacity:0.18;}.cls-44{opacity:0.17;}.cls-45{opacity:0.15;}.cls-46{opacity:0.13;}.cls-47{opacity:0.11;}.cls-48{opacity:0.09;}.cls-49{opacity:0.07;}.cls-50{opacity:0.05;}.cls-51{opacity:0.03;}.cls-52{opacity:0.01;}</style></defs><g id="Layer_2" data-name="Layer 2"><g id="Layer_1-2" data-name="Layer 1"><path class="cls-1" d="M2619.7,382.48C2456,287.48,2523.23-6.1,2380.5,66c-97,49-68.89,147.06-132,189-56,37.19-120.62-34.55-187-113-66-78-129.31-166.39-272-135-150,33-132.4,294.28-335,246-214-51-159.44-353.71-318-140-138,186-15,320-170,256-90.46-37.35-195-253-304-298-79.89-33-67.37,61.36-204,12C303.5,27,280.39,38.06.5,98"/><path class="cls-2" d="M2619.69,385.13c-55-33.48-82-82.05-102.4-134.61-42.06-108.43-43-228-138.4-178.79-26.38,13.6-43.4,30.77-56.78,48.6-36.38,48.48-34.12,104.16-82.22,135-56,35.93-119.68-33.17-186-108.8C1999.09,84.09,1945.68,15.65,1849.13,9.94c-19.71-1.16-41.33.36-65.23,5.43C1699.26,33.24,1666.85,125,1619.14,190.3c-36.14,49.76-82.57,87-169.4,67.26-211.53-48.12-160-344.15-317.35-136.85q-6.87,9-12.89,17.79c-116.57,170.84-9.61,291.11-157.36,229.33-91-38.06-195.2-249.47-303.9-293.39-79.29-32.23-68,60.35-203.06,11.73-9.63-3.45-18.76-6.66-27.47-9.62C297.83,32.41,258.34,49.19.5,104.06"/><path class="cls-3" d="M2619.69,387.79c-56.39-35.88-81.61-80.64-102.82-131.9-43.94-106.22-44.81-228.25-139.59-178.44-26.91,14.14-44,31.93-58.56,49.55-39.21,47.32-37.5,97.73-87.44,128.67-56,34.7-118.75-31.81-185.06-104.61-54.71-60.07-108.54-125-203.4-131.9a235.06,235.06,0,0,0-64.52,4.59c-84,17-117.92,107.84-165,171.09C1577.49,243,1531.2,280.78,1445,262.12,1235.93,216.88,1284.86-72,1128.27,128.41c-4.53,5.81-8.85,11.5-12.83,17.18-116,165.37-12,282.75-157.66,221.08C866.17,327.89,762.29,121,654,77.88c-78.77-31.33-68.66,59.34-202.12,11.47-9.58-3.42-18.66-6.59-27.35-9.53C296.06,36.24,253.78,56.58.5,110.12"/><path class="cls-4" d="M2619.68,390.45c-57.78-38.27-81.21-79.25-103.22-129.19-45.86-104-46.61-228.5-140.78-178.08-27.44,14.69-44.52,33.08-60.36,50.49-42,46.16-40.84,91.31-92.64,122.33-56,33.53-117.84-30.45-184.1-100.41-54.65-57.71-108.91-119-202.07-127.21a226.42,226.42,0,0,0-63.82,3.74C1689.3,48.2,1654,138.25,1607.51,199.37c-35.46,46.61-81.67,84.87-167.28,67.31C1233.66,224.3,1279.76-57.7,1124.16,136.12c-4.51,5.61-8.83,11.08-12.78,16.56C996,312.56,1097,427,953.42,365.5,861.23,326,757.69,123.42,649.73,81.32c-78.21-30.5-69.31,58.33-201.18,11.2C439,89.15,430,86,421.34,83.09,294.28,40.07,249.22,64,.5,116.18"/><path class="cls-5" d="M2619.68,393.11c-59.18-40.66-80.84-77.87-103.64-126.48-47.79-101.9-48.39-228.73-142-177.73-28,15.24-45,34.24-62.14,51.45-44.71,45-44.16,84.88-97.86,116-55.93,32.4-116.93-29.11-183.12-96.21C1976.33,104.75,1921.65,47,1830.19,37.6a220.15,220.15,0,0,0-63.1,2.9c-82.73,15.37-119.45,104.4-165.39,163.4-35.09,45.06-81.21,83.81-166.22,67.34C1231.41,231.71,1274.66-43.35,1120,143.82c-4.47,5.42-8.8,10.67-12.72,16-114.74,154.38-16.71,266-158.26,204.57-92.77-40.23-196-238.45-303.59-279.58-77.64-29.68-70,57.31-200.24,10.94-9.46-3.34-18.46-6.45-27.08-9.34C292.51,43.9,244.66,71.35.5,122.24"/><path class="cls-6" d="M2619.68,395.76c-60.58-43.05-80.48-76.49-104.06-123.76-49.76-99.8-50.16-228.93-143.16-177.37C2344,110.42,2326.91,130,2308.54,147c-47.39,43.86-47.47,78.46-103.08,109.65-55.82,31.3-116-27.78-182.15-92-54.59-53-109.69-107.26-199.43-117.82a212.27,212.27,0,0,0-62.39,2c-82.1,14.52-120.22,102.68-165.61,159.57-34.7,43.5-80.74,82.73-165.16,67.36C1229.18,239.11,1269.55-29,1115.93,151.53c-4.44,5.22-8.77,10.24-12.67,15.33-114.12,148.87-19.07,257.52-158.57,196.31-93.34-41-196.19-234.82-303.48-275-77.07-28.85-70.5,56-199.29,10.68-9.41-3.31-18.37-6.37-26.95-9.24C290.73,47.73,240.1,78.73.5,128.29"/><path class="cls-7" d="M2619.67,398.42c-62-45.44-80.13-75.12-104.46-121-51.76-97.73-51.93-229.11-144.36-177-29,16.36-46,36.55-65.7,53.34-50,42.74-50.75,72.05-108.3,103.31-55.67,30.25-115.16-26.46-181.18-87.82-54.58-50.72-110.1-101.38-198.1-113.13a204.71,204.71,0,0,0-61.68,1.19c-81.48,13.67-121,101-165.82,155.73-34.33,41.95-80.27,81.66-164.1,67.39-199-33.87-161.54-295-314.15-121.13-4.42,5-8.75,9.83-12.62,14.72C985.71,317.29,1077.78,423,940.33,362,846.41,320.31,743.9,130.82,637,91.63c-76.51-28-71.13,55-198.36,10.42-9.35-3.28-18.26-6.3-26.81-9.15C289,51.56,235.54,86.12.5,134.35"/><path class="cls-8" d="M2619.67,401.08c-63.37-47.83-79.82-73.77-104.88-118.34C2461,187,2461.11,53.47,2369.25,106.08c-29.55,16.92-46.54,37.71-67.5,54.29-52.63,41.63-54,65.63-113.5,97-55.51,29.23-114.31-25.15-180.22-83.62-54.59-48.42-110.51-95.52-196.77-108.44a197.46,197.46,0,0,0-61,.35c-80.85,12.82-121.76,99.22-166,151.88-34,40.4-79.79,80.58-163,67.42-196.46-31.06-161.91-285.15-313.51-118-4.38,4.83-8.72,9.4-12.56,14.1C982.28,318.83,1071.38,421.65,936,360.84,841.47,318.4,739.31,133.28,632.7,95.07,556.77,67.86,560.94,149,435.28,105.22,426,102,417.12,99,408.6,96.16,287.18,55.4,231,93.5.5,140.41"/><path class="cls-9" d="M2619.67,403.73c-64.77-50.22-79.52-72.41-105.29-115.62C2458.5,194.41,2459,58.7,2367.64,111.8c-30.07,17.49-47,38.89-69.28,55.24-55.21,40.54-57.25,59.23-118.72,90.63-55.31,28.24-113.46-23.86-179.25-79.43-54.61-46.13-110.93-89.67-195.45-103.75a190.7,190.7,0,0,0-60.25-.5c-80.23,12-122.52,97.49-166.24,148.05-33.58,38.83-79.31,79.49-162,67.44-193.9-28.27-162.29-275.32-312.87-114.83-4.36,4.63-8.69,9-12.51,13.48C978.86,320.35,1065,420.25,931.61,359.67,836.53,316.48,734.72,135.74,628.44,98.51c-75.36-26.4-72.39,52.86-196.47,9.89-9.24-3.2-18.07-6.16-26.55-9-120-40.2-179,1.46-404.92,47"/><path class="cls-10" d="M2619.66,406.39c-66.17-52.61-79.24-71.06-105.7-112.91C2456,201.76,2456.8,64,2366,117.53c-30.59,18.05-47.47,40.06-71.06,56.18C2237.2,213.19,2234.5,226.55,2171,258c-55.09,27.3-112.64-22.57-178.28-75.23-54.65-43.86-111.37-83.83-194.12-99.06a183.77,183.77,0,0,0-59.55-1.34c-79.6,11.11-123.28,95.74-166.45,144.2C1539.44,263.84,1493.82,305,1411.7,294,1220.38,268.55,1249,28.56,1099.47,182.35c-4.32,4.45-8.66,8.56-12.45,12.87C975.46,321.85,1058.59,418.84,927.25,358.5,831.59,314.56,730.14,138.2,624.19,102c-74.79-25.58-73,51.81-195.54,9.62-9.18-3.16-18-6.08-26.42-8.87C283.63,63.06,221.86,108.27.5,152.53"/><path class="cls-11" d="M2619.66,409.05c-67.57-55-79-69.72-106.11-110.2-60.16-89.78-58.9-229.63-149.13-175.6-31.11,18.63-47.92,41.26-72.84,57.14-60.3,38.43-63.68,46.45-129.16,77.94-54.85,26.38-111.85-21.28-177.31-71-54.72-41.59-111.81-78-192.79-94.37a177.35,177.35,0,0,0-58.84-2.19c-79,10.26-124,94-166.66,140.37C1534,266.8,1488.51,308.42,1407,298.6,1218.22,275.87,1243.87,43,1095.36,190.06c-4.3,4.25-8.63,8.13-12.4,12.25-110.89,121-30.75,215.09-160.07,155-96.24-44.7-197.33-216.69-303-251.95-74.21-24.78-73.66,50.75-194.59,9.36-9.13-3.13-17.88-6-26.29-8.78C281.78,67.13,217.3,115.65.5,158.59"/><path class="cls-12" d="M2619.65,411.71c-69-57.4-78.75-68.39-106.52-107.49-62.37-87.86-60.61-229.71-150.32-175.24-31.62,19.21-48.37,42.45-74.62,58.08-62.81,37.41-66.87,40.09-134.38,71.61-54.58,25.48-111.08-20-176.34-66.84-54.81-39.34-112.27-72.22-191.47-89.68a170.64,170.64,0,0,0-58.12-3c-78.35,9.4-124.79,92.24-166.87,136.52-32.43,34.12-77.8,76.22-158.82,67.52-186.12-20-163.48-245.76-311-105.4-4.26,4.06-8.59,7.72-12.34,11.64C968.69,324.8,1045.83,416,918.53,356.17,821.71,310.71,721,143.1,615.67,108.83c-73.63-24-74.29,49.7-193.65,9.09-9.07-3.08-17.78-5.91-26.15-8.68C280,71,212.74,123,.5,164.65"/><path class="cls-13" d="M2619.65,414.36c-70.36-59.78-78.56-67-106.94-104.77-64.63-86-62.32-229.78-151.5-174.88-32.15,19.78-48.82,43.64-76.42,59-65.31,36.41-70,33.74-139.58,65.27-54.31,24.62-110.35-18.74-175.37-62.64-54.94-37.1-112.74-66.44-190.15-85a164.81,164.81,0,0,0-57.41-3.88C1644.55,116,1596.74,198,1555.2,240.17c-32,32.55-77.29,75.13-157.76,67.55-183.51-17.28-163.91-235.89-310.31-102.25-4.24,3.87-8.57,7.29-12.29,11-109.5,109.75-35.38,198-160.67,138.52-97.4-46.24-197.77-209.46-302.76-242.74-73-23.17-74.92,48.65-192.71,8.83-9-3-17.68-5.84-26-8.59C278.22,74.83,208.17,130.42.5,170.71"/><path class="cls-14" d="M2619.65,417c-71.76-62.17-78.39-65.7-107.35-102.06-67-84.07-64-229.84-152.7-174.53-32.66,20.38-49.26,44.86-78.2,60-67.8,35.42-73.2,27.39-144.8,58.92-54,23.79-109.65-17.47-174.4-58.44C1907.11,166,1849,140.2,1773.38,120.59a159,159,0,0,0-56.7-4.73c-77.11,7.69-126.29,88.73-167.3,128.85-31.66,31-76.76,74-156.7,67.57-180.86-14.58-164.35-226-309.66-99.11-4.21,3.68-8.54,6.87-12.24,10.41C962,327.67,1033.09,413,909.8,353.84c-98-47-198-205.84-302.64-238.13-72.47-22.36-75.56,47.6-191.77,8.56-9-3-17.59-5.77-25.89-8.49-113.06-37.1-185.89,22-389,61"/><path class="cls-15" d="M2619.64,419.68c-73.15-64.57-78.24-64.35-107.76-99.36-69.31-82.18-65.73-229.87-153.89-174.16-33.18,21-49.69,46.07-80,60.92-70.28,34.45-76.35,21.07-150,52.59-53.7,23-109-16.2-173.43-54.25-55.27-32.63-113.69-54.95-187.49-75.6-16.58-4.64-34.9-7.47-56-5.58-76.49,6.82-127,87-167.5,125-31.27,29.39-76.23,72.9-155.64,67.6-178.22-11.91-164.82-216.11-309-96-4.18,3.48-8.5,6.44-12.18,9.79-108,98.4-40,180.83-161.28,122C806.9,304.88,707.25,150.44,602.9,119.14,531,97.58,526.7,165.7,412.07,127.45c-8.9-3-17.48-5.7-25.76-8.4C274.66,82.53,199.05,145.19.5,182.82"/><path class="cls-16" d="M2619.64,422.34c-74.55-67-78.13-63-108.17-96.65-71.74-80.31-67.43-229.9-155.09-173.81-33.69,21.56-50.12,47.3-81.76,61.88-72.75,33.5-79.49,14.76-155.24,46.24C2066,282.18,2011,245.09,1946.92,210c-55.49-30.41-114.18-49.24-186.17-70.91-16.35-4.93-34.4-8.07-55.28-6.43-75.87,6-127.75,85.19-167.71,121.17-30.87,27.79-75.69,71.78-154.59,67.62-175.55-9.25-165.29-206.21-308.38-92.81-4.16,3.29-8.47,6-12.13,9.17C955.43,330.45,1020.38,410,901.08,351.51,802,302.92,702.68,152.88,598.64,122.58c-71.3-20.76-76.83,45.52-189.89,8-8.84-2.93-17.38-5.62-25.62-8.3C272.88,86.38,194.49,152.58.5,188.88"/><path class="cls-17" d="M2619.63,425c-76-69.35-78-61.64-108.58-93.93-74.21-78.44-69.11-229.92-156.28-173.45-34.19,22.15-50.55,48.53-83.54,62.82-75.22,32.56-82.61,8.47-160.46,39.9-53,21.42-107.75-13.62-171.49-45.85-55.74-28.19-114.68-43.56-184.84-66.22-16.14-5.22-33.91-8.68-54.57-7.27-75.25,5.1-128.48,83.4-167.93,117.32-30.47,26.2-75.14,70.65-153.52,67.65-172.88-6.63-165.8-196.3-307.75-89.67-4.13,3.1-8.43,5.58-12.07,8.56-106.41,87-44.57,163.61-161.88,105.49C797,301,698.11,155.32,594.39,126c-70.72-20-77.47,44.48-188.95,7.77-8.79-2.89-17.29-5.54-25.5-8.2C271.1,90.22,189.93,160,.5,194.94"/><path class="cls-18" d="M2619.63,427.65c-77.35-71.74-78-60.27-109-91.22-76.75-76.56-70.79-229.92-157.47-173.1-34.71,22.76-51,49.78-85.34,63.77-77.68,31.65-85.71,2.21-165.66,33.57-52.7,20.66-107.2-12.32-170.53-41.66-56-26-115.18-37.9-183.51-61.53-15.93-5.51-33.42-9.28-53.86-8.12-74.64,4.24-129.2,81.62-168.14,113.48-30.06,24.61-74.59,69.52-152.47,67.68-170.19-4-166.33-186.38-307.1-86.52-4.1,2.91-8.4,5.15-12,7.94-105.55,81.23-46.85,155-162.18,97.24C792.1,299,693.55,157.75,590.13,129.46,520,110.28,512,172.89,402.12,137c-8.73-2.85-17.19-5.47-25.36-8.12C269.32,94.07,185.37,167.35.5,201"/><path class="cls-19" d="M2619.63,430.31c-78.75-74.13-77.94-58.89-109.41-88.51-79.34-74.67-72.46-229.92-158.66-172.74-35.21,23.36-51.41,51-87.12,64.72-80.15,30.73-88.81-4.05-170.88,27.22-52.34,19.94-106.69-11-169.56-37.46-56.34-23.73-115.68-32.28-182.18-56.84-15.73-5.81-32.93-9.89-53.15-9-74,3.37-129.91,79.83-168.35,109.65-29.65,23-74,68.37-151.41,67.7-167.49-1.46-166.89-176.46-306.46-83.38-4.08,2.72-8.36,4.72-12,7.33C945.85,334.51,1001.36,405.35,888,348,787.18,297,689,160.18,585.87,132.9c-69.53-18.39-78.75,42.4-187.07,7.24-8.67-2.81-17.09-5.39-25.22-8C267.54,97.91,180.81,174.73.5,207.06"/><path class="cls-20" d="M2619.62,433c-80.14-76.53-77.93-57.5-109.82-85.8-82-72.76-74.12-229.91-159.85-172.39-35.72,24-51.83,52.28-88.9,65.67-82.61,29.84-91.9-10.27-176.1,20.88-52,19.23-106.21-9.63-168.59-33.26-56.7-21.48-116.19-26.68-180.86-52.15-15.51-6.11-32.43-10.49-52.44-9.81-73.4,2.5-130.6,78-168.55,105.8-29.23,21.4-73.48,67.22-150.36,67.73-164.77,1.09-167.48-166.53-305.82-80.23-4.06,2.53-8.31,4.29-11.91,6.71C942.76,335.84,995,403.78,883.64,346.84,782.25,295,684.42,162.6,581.61,136.34c-68.94-17.61-79.38,41.36-186.12,7-8.62-2.78-17-5.32-25.1-7.93C265.76,101.75,176.25,182.11.5,213.12"/><path class="cls-21" d="M2619.62,435.62c-81.54-78.91-77.95-56.08-110.23-83.08-84.69-70.82-75.79-229.88-161-172-36.22,24.58-52.25,53.53-90.68,66.61-85.08,29-95-16.47-181.32,14.55-51.6,18.54-105.78-8.26-167.61-29.07-57.1-19.22-116.71-21.11-179.54-47.46-15.31-6.42-31.94-11.1-51.73-10.66-72.79,1.63-131.28,76.21-168.77,102-28.8,19.79-72.9,66.05-149.29,67.75-162.05,3.6-168.12-156.61-305.18-77.08-4,2.34-8.27,3.85-11.86,6.09-102.63,64-53.66,129-163.08,72.47C777.33,293,679.86,165,577.36,139.78c-68.35-16.83-80,40.32-185.19,6.71-8.56-2.73-16.89-5.24-25-7.83C264,105.59,171.69,189.5.5,219.18"/><path class="cls-22" d="M2619.62,438.28c-82.94-81.3-78-54.65-110.65-80.37-87.44-68.85-77.44-229.85-162.23-171.67-36.72,25.19-52.69,54.79-92.48,67.56-87.53,28.08-98-22.66-186.52,8.2-51.23,17.86-105.4-6.84-166.65-24.87-57.53-16.94-117.22-15.57-178.21-42.77-15.11-6.73-31.45-11.71-51-11.5-72.17.75-131.95,74.39-169,98.12-28.36,18.18-72.33,64.88-148.24,67.78-159.31,6.08-168.78-146.69-304.54-73.94-4,2.15-8.22,3.43-11.8,5.48-101.54,58.2-55.91,120.29-163.38,64.21C772.41,291,675.31,167.43,573.1,143.22c-67.75-16.06-80.67,39.29-184.25,6.45-8.5-2.7-16.79-5.17-24.83-7.74C262.21,109.43,167.13,196.88.5,225.24"/><path class="cls-23" d="M2619.61,440.94c-84.33-83.7-78.05-53.21-111.05-77.66-90.25-66.84-79.09-229.81-163.43-171.32-37.22,25.81-53.11,56.06-94.26,68.51-90,27.23-101.1-28.81-191.74,1.86-50.85,17.21-105-5.38-165.68-20.67-58-14.63-117.72-10.06-176.88-38.07-14.91-7.06-31-12.33-50.31-12.36-71.56-.12-132.6,72.57-169.19,94.28-27.91,16.57-71.75,63.7-147.18,67.81-156.57,8.53-169.49-136.78-303.9-70.79-4,2-8.18,3-11.75,4.86-100.37,52.46-58.17,111.58-163.69,56C767.49,289,670.75,169.84,568.84,146.66c-67.15-15.28-81.31,38.26-183.3,6.18-8.45-2.66-16.7-5.1-24.7-7.64C260.43,113.27,162.57,204.27.5,231.29"/><path class="cls-24" d="M2619.61,443.59c-85.74-86.08-78.13-51.74-111.47-74.94-93.1-64.79-80.73-229.76-164.62-171-37.71,26.43-53.54,57.33-96,69.45-92.46,26.37-104.15-34.93-197-4.47-50.46,16.56-104.71-3.88-164.71-16.48-58.49-12.29-118.22-4.59-175.56-33.38-14.7-7.39-30.46-12.94-49.59-13.21-71-1-133.24,70.75-169.4,90.45-27.45,14.94-71.17,62.49-146.13,67.83C1191.31,368.83,1174.9,231,1041.88,290.23c-4,1.77-8.13,2.57-11.7,4.25-99.12,46.74-60.41,102.86-164,47.7s-200-169.93-301.6-192.08c-66.56-14.52-82,37.23-182.37,5.92-8.39-2.62-16.6-5-24.56-7.55C258.65,117.11,158,211.65.5,237.35"/><path class="cls-25" d="M2619.6,446.25c-87.13-88.47-78.22-50.26-111.87-72.23-96-62.68-82.38-229.71-165.82-170.61-38.2,27.06-54,58.61-97.82,70.41-94.93,25.52-107.19-41-202.18-10.82-50.06,15.93-104.41-2.32-163.74-12.28-59-9.91-118.72.85-174.23-28.69-14.5-7.72-30-13.55-48.88-14.05-70.34-1.88-133.85,68.91-169.62,86.6-27,13.33-70.57,61.28-145.06,67.86-151.07,13.34-171-117-302.62-64.5-4,1.58-8.07,2.13-11.64,3.63-97.79,41.06-62.65,94.14-164.29,39.44-104.15-56-200.18-166.36-301.5-187.48-66-13.74-82.6,36.22-181.43,5.66-8.34-2.58-16.49-4.95-24.43-7.45C256.88,121,153.45,219,.5,243.41"/><path class="cls-26" d="M2619.6,448.91c-88.53-90.87-78.34-48.75-112.29-69.52-98.95-60.52-84-229.65-167-170.25-38.69,27.68-54.38,59.89-99.6,71.35-97.41,24.69-110.22-47.11-207.4-17.16-49.66,15.31-104.14-.72-162.77-8.08-59.56-7.48-119.21,6.26-172.9-24-14.3-8.06-29.48-14.16-48.18-14.9-69.72-2.76-134.42,67.09-169.82,82.77-26.46,11.72-70,60.05-144,67.88-148.3,15.69-171.87-107.16-302-61.36-4,1.39-8,1.71-11.59,3-96.38,35.43-64.88,85.39-164.59,31.19C752.77,282.93,657.11,177,556.07,157c-65.35-13-83.24,35.2-180.48,5.4-8.29-2.54-16.4-4.88-24.3-7.36C255.1,124.78,148.89,226.42.5,249.47"/><path class="cls-27" d="M2619.6,451.57c-89.93-93.26-78.46-47.23-112.71-66.81-101.93-58.29-85.63-229.58-168.19-169.9-39.18,28.32-54.82,61.18-101.4,72.3C2137.43,311,2124.06,234,2024.7,263.67c-49.27,14.7-103.89.93-161.81-3.89-60.12-5-119.69,11.64-171.57-19.31-14.1-8.41-29-14.77-47.47-15.74-69.11-3.65-135,65.26-170,78.92-26,10.12-69.39,58.81-143,67.91-145.54,18-172.76-97.34-301.34-58.21-3.92,1.2-7.95,1.27-11.53,2.4-94.88,29.86-67.11,76.64-164.89,22.93-105.24-57.8-200.55-159.25-301.3-178.27-64.75-12.22-83.89,34.18-179.54,5.13-8.23-2.5-16.3-4.8-24.17-7.26C253.33,128.62,144.33,233.81.5,255.53"/><path class="cls-28" d="M2619.59,454.22c-91.32-95.64-78.59-45.67-113.11-64.09-104.94-56-87.26-229.51-169.39-169.54-39.66,28.95-55.25,62.46-103.18,73.25-102.34,23-116.26-59.18-217.82-29.84-48.87,14.11-103.64,2.65-160.84.31-60.69-2.49-120.16,17-170.25-14.62-13.88-8.76-28.5-15.38-46.75-16.59-68.5-4.53-135.52,63.44-170.25,75.08-25.4,8.52-68.79,57.55-141.89,67.94-142.77,20.28-173.68-87.57-300.69-55.06-3.92,1-7.89.84-11.48,1.78-93.31,24.38-69.33,67.87-165.19,14.67C743,278.82,648,181.82,547.56,163.85,483.41,152.38,463,197,369,168.72c-8.18-2.46-16.21-4.73-24-7.18C251.55,132.45,139.77,241.19.5,261.59"/><path class="cls-29" d="M2619.59,456.88c-92.72-98-78.74-44.1-113.53-61.38-108-53.63-88.87-229.43-170.58-169.19-40.14,29.6-55.68,63.76-105,74.2-104.82,22.21-119.27-65.16-223-36.18-48.46,13.54-103.4,4.41-159.86,4.51-61.28.1-120.63,22.3-168.93-9.93-13.68-9.12-28-16-46-17.43-67.9-5.43-136,61.63-170.46,71.24-24.84,6.93-68.19,56.27-140.83,68-140,22.52-174.66-77.85-300.06-51.92-3.9.81-7.82.42-11.42,1.17-91.66,19-71.55,59.1-165.49,6.42C738.1,276.75,643.47,184.19,543.3,167.29c-63.55-10.72-85.19,32.14-177.66,4.6-8.12-2.42-16.11-4.66-23.9-7.08C249.78,136.28,135.21,248.57.5,267.65"/><path class="cls-30" d="M2619.58,459.54c-94.11-100.43-78.88-42.51-113.93-58.67C2394.6,349.68,2415.16,171.53,2333.87,232c-40.61,30.23-56.1,65-106.74,75.14-107.3,21.4-122.28-71.1-228.26-42.51-48,13-103.15,6.23-158.89,8.7-61.85,2.74-121.07,27.58-167.6-5.24-13.46-9.49-27.52-16.61-45.33-18.28-67.29-6.32-136.5,59.84-170.67,67.4-24.27,5.37-67.6,55-139.78,68-137.23,24.72-175.66-68.19-299.41-48.77-3.89.61-7.75,0-11.37.55-90,13.69-73.76,50.31-165.79-1.84-106.81-60.52-201.1-148.62-301-164.45-62.94-10-85.83,31.13-176.72,4.34-8.06-2.38-16-4.59-23.77-7C248,140.11,130.65,256,.5,273.71"/><path class="cls-31" d="M2619.58,462.2c-95.52-102.82-79-40.9-114.35-56-114.13-48.67-92.1-229.25-173-168.48-41.09,30.89-56.53,66.35-108.52,76.1-109.79,20.58-125.28-77-233.48-48.86-47.64,12.4-102.89,8.1-157.92,12.9-62.41,5.44-121.5,32.83-166.28-.55-13.24-9.87-27-17.22-44.62-19.13-66.67-7.22-136.93,58.08-170.87,63.57-23.67,3.82-67,53.67-138.72,68-134.47,26.89-176.69-58.59-298.77-45.63-3.89.41-7.69-.41-11.32-.06-88.19,8.52-76,41.51-166.09-10.09C728.34,272.57,634.39,188.93,534.78,174.17c-62.33-9.24-86.48,30.12-175.77,4.07-8-2.34-15.91-4.51-23.64-6.89C246.23,143.94,126.09,263.34.5,279.76"/><path class="cls-32" d="M2619.58,464.85c-96.92-105.21-79.2-39.26-114.76-53.24-117.22-46.08-93.71-229.16-174.16-168.12-41.57,31.53-57,67.64-110.32,77-112.26,19.78-128.26-82.9-238.68-55.2-47.24,11.86-102.63,10-157,17.1-63,8.2-121.9,38.06-165,4.15-13-10.26-26.53-17.85-43.91-20-66.06-8.12-137.36,56.34-171.09,59.72-23,2.31-66.41,52.34-137.66,68-131.71,29-177.73-49.06-298.13-42.48-3.87.21-7.61-.83-11.26-.68-86.41,3.47-78.16,32.71-166.4-18.35C723.48,270.46,629.85,191.28,530.53,177.61c-61.73-8.5-87.14,29.12-174.84,3.8-7.95-2.29-15.81-4.43-23.51-6.79C244.46,147.77,121.53,270.73.5,285.82"/><path class="cls-33" d="M2619.57,467.51c-98.31-107.6-79.34-37.61-115.17-50.53-120.32-43.4-95.3-229.06-175.35-167.76-42,32.18-57.41,68.94-112.1,78-114.75,19-131.25-88.75-243.9-61.53-46.83,11.31-102.33,12-156,21.29-63.47,11-122.29,43.27-163.62,8.84-12.79-10.66-26-18.46-43.2-20.83-65.45-9-137.76,54.65-171.3,55.88-22.43.83-65.83,51-136.6,68.07-129,31.11-178.79-39.61-297.49-39.34-3.87,0-7.54-1.23-11.21-1.29-84.61-1.45-80.35,23.89-166.7-26.61-108.32-63.34-201.63-138-300.67-150.63-61.12-7.77-87.79,28.11-173.9,3.54-7.9-2.25-15.71-4.37-23.37-6.7-86.31-26.3-212,100.22-328.5,114"/><path class="cls-34" d="M2619.57,470.17c-99.71-110-79.49-35.94-115.59-47.82-123.41-40.64-96.9-228.95-176.54-167.41-42.5,32.84-57.84,70.25-113.88,78.94-117.24,18.18-134.24-94.56-249.12-67.88-46.42,10.78-102,14-155,25.49-64,13.9-122.65,48.45-162.29,13.53-12.56-11.06-25.56-19.08-42.49-21.67-64.84-9.93-138.16,53-171.51,52-21.8-.63-65.25,49.62-135.55,68.09-126.22,33.16-179.84-30.22-296.85-36.19-3.85-.2-7.46-1.63-11.15-1.91-82.83-6.25-82.53,15.06-167-34.86C713.77,266.2,620.78,196,522,184.48c-60.51-7-88.44,27.12-172.95,3.28-7.85-2.21-15.61-4.29-23.25-6.6C240.91,155.42,112.41,285.5.5,297.94"/><path class="cls-35" d="M2619.57,472.83c-101.11-112.39-79.64-34.25-116-45.11-126.51-37.8-98.49-228.85-177.74-167-43,33.5-58.27,71.55-115.66,79.88-119.74,17.38-137.22-100.33-254.34-74.22-46,10.26-101.65,16-154,29.69-64.4,16.83-123,53.61-161,18.22-12.3-11.47-25.06-19.7-41.77-22.52-64.23-10.84-138.55,51.41-171.72,48.2-21.17-2-64.67,48.23-134.49,68.12-123.5,35.18-180.88-20.91-296.21-33-3.84-.41-7.4-2-11.1-2.53-81.08-10.93-84.71,6.22-167.3-43.12-109.29-65.3-202-131-300.46-141.43-59.91-6.31-89.1,26.13-172,3-7.79-2.17-15.51-4.22-23.11-6.51C239.14,159.24,107.85,292.88.5,304"/><path class="cls-36" d="M2619.56,475.48c-102.5-114.77-79.77-32.54-116.41-42.39-129.58-34.88-100.08-228.74-178.92-166.7-43.43,34.17-58.72,72.86-117.46,80.83-122.22,16.6-140.19-106.05-259.54-80.55-45.61,9.74-101.27,18-153.09,33.88-64.81,19.8-123.29,58.75-159.64,22.91-12-11.88-24.57-20.32-41.07-23.37-63.61-11.75-138.94,49.87-171.93,44.37-20.53-3.43-64.1,46.81-133.43,68.14-120.79,37.16-181.88-11.67-295.56-29.9-3.84-.61-7.33-2.41-11-3.14-79.39-15.5-86.89-2.62-167.6-51.37C704.1,261.89,611.7,200.63,513.5,191.36c-59.3-5.6-89.75,25.13-171.08,2.75-7.73-2.12-15.41-4.14-23-6.41C237.37,163.06,103.29,300.27.5,310.06"/><path class="cls-37" d="M2619.56,478.14c-103.9-117.16-79.91-30.81-116.82-39.68-132.65-31.88-101.67-228.62-180.12-166.34-43.88,34.83-59.15,74.16-119.24,81.78-124.72,15.8-143.16-111.75-264.76-86.9-45.21,9.24-100.84,20.12-152.11,38.08-65.18,22.82-123.58,63.87-158.32,27.6-11.79-12.3-24.08-20.94-40.36-24.21-63-12.67-139.37,48.38-172.14,40.52-19.92-4.78-63.55,45.37-132.37,68.17-118.1,39.11-182.86-2.5-294.93-26.75-3.82-.83-7.26-2.8-11-3.76-77.78-20-89-11.47-167.9-59.63C699.28,259.71,607.17,203,509.24,194.8c-58.68-4.88-90.4,24.14-170.13,2.49-7.68-2.09-15.32-4.08-22.85-6.32C235.6,166.88,98.73,307.65.5,316.12"/><path class="cls-38" d="M2619.55,480.8c-105.3-119.56-80-29.08-117.23-37-135.7-28.81-103.24-228.51-181.31-166-44.33,35.5-59.59,75.48-121,82.73-127.22,15-146.13-117.39-270-93.24-44.8,8.74-100.37,22.21-151.14,42.28-65.48,25.87-123.84,69-157,32.29-11.51-12.73-23.59-21.56-39.65-25.06-62.38-13.59-139.82,47-172.35,36.68-19.32-6.1-63,43.92-131.32,68.2-115.42,41-183.77,6.63-294.28-23.61-3.81-1-7.21-3.18-10.94-4.37-76.25-24.4-91.22-20.34-168.2-67.89C694.48,257.51,602.63,205.26,505,198.24c-58.07-4.18-91.06,23.15-169.19,2.22-7.63-2-15.22-4-22.71-6.23C233.83,170.7,94.17,315,.5,322.18"/><path class="cls-39" d="M2619.55,483.45c-106.7-121.94-80.13-27.32-117.65-34.25-138.71-25.66-104.81-228.39-182.5-165.63-44.78,36.17-60,76.79-122.8,83.67-129.72,14.24-149.1-123-275.2-99.57-44.4,8.24-99.86,24.31-150.17,46.47-65.74,28.95-124.06,74.1-155.67,37-11.21-13.17-23.09-22.18-38.93-25.9-61.76-14.52-140.32,45.57-172.56,32.84-18.76-7.4-62.48,42.43-130.26,68.22C1161,469.19,1089.17,442,980.16,405.82c-3.79-1.26-7.15-3.55-10.88-5-74.82-28.75-93.37-29.21-168.5-76.14-111.1-69.4-202.69-117.13-300-123-57.47-3.47-91.72,22.17-168.26,2-7.57-2-15.11-3.93-22.58-6.14C232.06,174.52,89.61,322.42.5,328.24"/><path class="cls-40" d="M2619.55,486.11c-108.1-124.34-80.23-25.55-118.06-31.55-141.71-22.44-106.39-228.25-183.7-165.27-45.22,36.85-60.46,78.11-124.58,84.63C2061,387.37,2041.14,245.36,1912.79,268c-44,7.76-99.31,26.42-149.2,50.67-65.95,32.06-124.25,79.2-154.34,41.68-10.91-13.61-22.6-22.81-38.22-26.76-61.15-15.45-140.88,44.22-172.78,29-18.21-8.69-62,40.92-129.2,68.25-110.14,44.76-185.44,24.75-293-17.32-3.77-1.47-7.1-3.92-10.83-5.6-73.5-33.08-95.52-38.09-168.81-84.4-111.5-70.47-202.86-113.67-299.94-118.4-56.86-2.77-92.38,21.19-167.31,1.69-7.52-1.95-15-3.86-22.45-6C230.29,178.33,85.05,329.8.5,334.29"/><path class="cls-41" d="M2619.54,488.77C2510.05,362,2539.23,465,2501.07,459.93c-144.67-19.17-108-228.13-184.88-164.91-45.67,37.53-60.91,79.42-126.38,85.57-134.72,12.67-155-134.07-285.62-112.26-43.61,7.29-98.74,28.52-148.24,54.87-66.11,35.18-124.42,84.3-153,46.37-10.6-14.06-22.11-23.43-37.51-27.61-60.53-16.38-141.48,42.91-173,25.17-17.7-10-61.47,39.39-128.14,68.27-107.55,46.58-186.18,33.77-292.37-14.17-3.75-1.69-7-4.3-10.77-6.22-72.28-37.39-97.66-47-169.11-92.66C680.14,250.79,589,212.13,492.21,208.56c-56.25-2.08-93,20.21-166.37,1.43-7.46-1.91-14.92-3.79-22.31-6-75-21.89-223,133.15-303,136.31"/><path class="cls-42" d="M2619.54,491.43c-110.89-129.12-80.39-22-118.88-26.13-147.6-15.84-109.53-228-186.08-164.56-46.11,38.22-61.35,80.74-128.16,86.53-137.23,11.89-158-139.54-290.84-118.6-43.22,6.81-98.11,30.62-147.27,59.06-66.22,38.31-124.55,89.4-151.68,51.06-10.27-14.5-21.61-24.06-36.81-28.45-59.89-17.32-142.13,41.59-173.19,21.32-17.23-11.24-61,37.84-127.09,68.3-105,48.38-186.85,42.79-291.72-11-3.73-1.92-7-4.67-10.72-6.84-71.18-41.7-99.8-55.86-169.41-100.91C675.39,248.51,584.47,214.4,488,212c-55.66-1.39-93.7,19.24-165.44,1.16-7.4-1.87-14.81-3.71-22.18-5.85C226.75,186,75.93,344.57.5,346.41"/><path class="cls-43" d="M2619.53,494.08c-112.28-131.51-80.44-20.19-119.29-23.41C2349.75,458.22,2389.15,242.8,2313,306.47c-46.55,38.9-61.79,82-129.94,87.47C2043.29,405.05,2022.06,249,1887,269c-42.83,6.34-97.45,32.72-146.3,63.26C1674.38,373.7,1616,426.77,1590.31,388c-9.91-14.95-21.11-24.68-36.09-29.3C1495,340.46,1411.37,399,1380.81,376.19c-16.77-12.52-60.54,36.27-126,68.33-102.44,50.15-187.46,51.79-291.08-7.88-3.71-2.13-7-5-10.67-7.45-70.17-46-101.93-64.76-169.71-109.17C670.66,246.21,579.93,216.67,483.7,215.43c-55.05-.7-94.36,18.28-164.49.91-7.36-1.83-14.72-3.65-22-5.76C225,189.77,71.37,352,.5,352.47"/><path class="cls-44" d="M2619.53,496.74c-113.68-133.9-80.49-18.39-119.7-20.7-153.34-9-112.65-227.74-188.47-163.84-47,39.59-62.23,83.36-131.72,88.41C2037.38,411,2015.7,250.29,1878.36,269.33c-42.44,5.89-96.75,34.81-145.32,67.46-66.32,44.57-124.73,99.62-149,60.44-9.56-15.4-20.62-25.31-35.38-30.14-58.64-19.2-143.61,39-173.62,13.64-16.35-13.81-60.12,34.66-125,68.35-99.93,51.9-188,60.81-290.44-4.73-3.68-2.36-7-5.4-10.61-8.07-69.25-50.4-104.05-73.67-170-117.42-113-75-203.58-99.94-299.53-100-54.44,0-95,17.32-163.55.64-7.3-1.78-14.62-3.57-21.92-5.66C223.22,193.58,66.81,359.34.5,358.53"/><path class="cls-45" d="M2619.53,499.4c-115.09-136.29-80.52-16.58-120.12-18-156.15-5.54-114.2-227.6-189.66-163.49-47.4,40.28-62.67,84.68-133.5,89.37-144.77,9.56-166.91-155.64-306.5-137.62-42.06,5.43-96,36.88-144.35,71.65-66.31,47.7-124.77,104.75-147.71,65.13-9.18-15.85-20.13-25.94-34.67-31-58-20.14-144.42,37.66-173.83,9.8-16-15.11-59.72,33.05-123.91,68.38-97.48,53.64-188.5,69.84-289.8-1.59-3.65-2.57-6.93-5.77-10.56-8.68-68.42-54.8-106.16-82.58-170.31-125.68-113.35-76.16-203.77-96.53-299.43-95.38-53.84.65-95.67,16.36-162.6.38-7.25-1.73-14.53-3.51-21.79-5.57C221.45,197.39,62.25,366.72.5,364.59"/><path class="cls-46" d="M2619.52,502.06C2503,363.37,2539,487.29,2499,486.78c-158.92-2-115.75-227.47-190.84-163.13-47.84,41-63.13,86-135.3,90.31-147.28,8.8-169.88-160.9-311.7-144-41.69,5-95.27,38.94-143.39,75.85-66.26,50.81-124.78,109.9-146.38,69.82-8.79-16.3-19.63-26.56-34-31.83-57.38-21.1-145.26,36.3-174,6-15.59-16.44-59.35,31.41-122.86,68.4-95,55.36-188.93,78.89-289.16,1.56-3.62-2.8-6.9-6.15-10.5-9.3C873.2,391.21,832.59,359,770.25,316.52c-113.66-77.37-204-93.13-299.32-90.77-53.25,1.32-96.34,15.4-161.67.11-7.19-1.68-14.42-3.43-21.66-5.47C219.68,201.2,57.69,374.11.5,370.65"/><path class="cls-47" d="M2619.52,504.71c-117.88-141.07-80.53-12.94-120.94-12.56-161.65,1.53-117.3-227.33-192-162.78-48.26,41.68-63.57,87.32-137.08,91.26-149.8,8-172.86-166.1-316.92-150.3-41.32,4.54-94.49,41-142.42,80.05-66.17,53.92-124.77,115.06-145.06,74.51-8.38-16.75-19.13-27.19-33.25-32.68-56.74-22-146.11,34.94-174.25,2.12-15.23-17.76-59,29.75-121.79,68.43-92.67,57.06-189.32,88-288.52,4.7-3.59-3-6.88-6.51-10.45-9.91-67-63.75-110.37-100.42-170.91-142.19-113.95-78.62-204.16-89.75-299.22-86.17-52.65,2-97,14.45-160.73-.15-7.14-1.64-14.32-3.37-21.52-5.39C217.91,205,53.13,381.49.5,376.71"/><path class="cls-48" d="M2619.52,507.37c-119.28-143.46-80.53-11.12-121.36-9.85-164.34,5.11-118.84-227.19-193.23-162.42-48.67,42.38-64,88.64-138.86,92.21-152.32,7.25-175.85-171.27-322.14-156.64-41,4.09-93.68,43-141.45,84.24-66.06,57-124.73,120.24-143.73,79.2-8-17.19-18.63-27.82-32.54-33.53-56.1-23-147,33.55-174.46-1.72-14.88-19.11-58.69,28.08-120.74,68.46-90.32,58.76-189.67,97.07-287.87,7.85-3.56-3.23-6.87-6.89-10.4-10.53-66.33-68.29-112.47-109.35-171.21-150.45-114.2-79.89-204.36-86.37-299.12-81.56-52.05,2.64-97.66,13.5-159.78-.42-7.09-1.59-14.23-3.29-21.39-5.29C216.15,208.8,48.56,388.88.5,382.76"/><path class="cls-49" d="M2619.51,510c-120.67-145.86-80.49-9.29-121.76-7.14-167,8.72-120.39-227-194.43-162.07-49.09,43.09-64.46,90-140.64,93.16-154.84,6.49-178.84-176.36-327.36-163-40.59,3.66-92.85,45-140.48,88.44-65.93,60.08-124.66,125.45-142.4,83.9-7.53-17.64-18.13-28.46-31.83-34.38-55.45-24-147.9,32.12-174.67-5.56-14.55-20.48-58.41,26.39-119.68,68.48-88,60.46-190,106.2-287.24,11-3.52-3.45-6.85-7.28-10.34-11.15C863,398.84,814.13,353.45,757.16,313c-114.42-81.21-204.55-83-299-77-51.47,3.3-98.33,12.56-158.85-.69-7-1.53-14.12-3.23-21.26-5.19C214.41,212.5,44,396.26.5,388.82"/><path class="cls-50" d="M2619.51,512.69c-122.07-148.25-80.46-7.47-122.18-4.43-169.6,12.34-121.92-226.91-195.61-161.71-49.51,43.79-64.91,91.41-142.44,94.1-157.34,6-181.83-181.4-332.56-169.32-40.25,3.23-92,47-139.52,92.64-65.77,63.14-124.57,130.68-141.07,88.59-7.09-18.08-17.64-29.09-31.12-35.23-54.8-24.93-148.81,30.67-174.88-9.4-14.23-21.86-58.17,24.69-118.63,68.51-85.77,62.16-190.26,115.36-286.59,14.14-3.49-3.66-6.84-7.65-10.29-11.76C859.45,401.28,808,351.6,752.8,311.86,638.18,229.31,548,232.2,453.9,239.51c-50.87,4-99,11.62-157.91-.95-7-1.49-14-3.16-21.12-5.1C212.63,216.33,39.44,403.65.5,394.88"/><path class="cls-51" d="M2619.5,515.34c-123.46-150.63-80.4-5.63-122.58-1.71-172.17,16-123.35-226.64-196.81-161.36-49.84,44.6-65.36,92.67-144.22,95.06-159.87,5.08-184.84-186.39-337.78-175.66-39.9,2.8-91.14,49-138.55,96.83-65.59,66.18-124.46,135.94-139.75,93.28-6.63-18.51-17.12-29.74-30.4-36.07-54.12-26-149.73,29.2-175.1-13.24-13.9-23.26-58,23-117.56,68.53-83.57,63.85-190.53,124.56-286,17.29-3.45-3.88-6.82-8-10.23-12.38-64.64-82.24-118.7-136.16-172.12-175.22-114.78-83.93-205-76.32-298.8-67.74-50.29,4.59-99.67,10.77-157-1.22q-10.4-2.13-21-5C210.86,220.16,34.88,411,.5,400.94"/><path class="cls-52" d="M2619.5,518c-124.86-153-80.34-3.8-123,1-174.7,19.64-125-226.62-198-161-50.31,45.22-65.81,93.93-146,96-162.4,4.19-187.85-191.32-343-182-94.23,5.66-251.72,273.56-276,199-31.38-96.39-174.31,1.73-205-54-33.09-60.08-247.8,298.69-412,76-292-396-428.43-193.86-648-253C209.08,224,30.32,418.42.5,407"/></g></g></svg>