<svg xmlns="http://www.w3.org/2000/svg" viewBox="0 0 2665 458.14"><defs><style>.cls-1,.cls-10,.cls-11,.cls-12,.cls-13,.cls-14,.cls-15,.cls-16,.cls-17,.cls-18,.cls-19,.cls-2,.cls-20,.cls-21,.cls-22,.cls-23,.cls-24,.cls-25,.cls-26,.cls-27,.cls-28,.cls-29,.cls-3,.cls-30,.cls-31,.cls-32,.cls-33,.cls-34,.cls-35,.cls-36,.cls-37,.cls-38,.cls-39,.cls-4,.cls-40,.cls-41,.cls-42,.cls-43,.cls-44,.cls-45,.cls-46,.cls-47,.cls-48,.cls-49,.cls-5,.cls-50,.cls-51,.cls-52,.cls-6,.cls-7,.cls-8,.cls-9{fill:none;stroke:#29abe2;stroke-linecap:round;}.cls-1,.cls-10,.cls-11,.cls-12,.cls-13,.cls-14,.cls-15,.cls-16,.cls-17,.cls-18,.cls-19,.cls-20,.cls-21,.cls-22,.cls-23,.cls-24,.cls-25,.cls-26,.cls-27,.cls-28,.cls-29,.cls-30,.cls-31,.cls-32,.cls-33,.cls-34,.cls-35,.cls-36,.cls-37,.cls-38,.cls-39,.cls-40,.cls-41,.cls-42,.cls-43,.cls-44,.cls-45,.cls-46,.cls-47,.cls-48,.cls-49,.cls-5,.cls-50,.cls-51,.cls-52,.cls-6,.cls-8,.cls-9{stroke-miterlimit:10;}.cls-2,.cls-3,.cls-4{stroke-miterlimit:10;}.cls-2{opacity:0.98;}.cls-3{opacity:0.96;}.cls-4{opacity:0.94;}.cls-5{opacity:0.92;}.cls-6{opacity:0.9;}.cls-7{stroke-miterlimit:10;opacity:0.88;}.cls-8{opacity:0.86;}.cls-9{opacity:0.84;}.cls-10{opacity:0.83;}.cls-11{opacity:0.81;}.cls-12{opacity:0.79;}.cls-13{opacity:0.77;}.cls-14{opacity:0.75;}.cls-15{opacity:0.73;}.cls-16{opacity:0.71;}.cls-17{opacity:0.69;}.cls-18{opacity:0.67;}.cls-19{opacity:0.65;}.cls-20{opacity:0.63;}.cls-21{opacity:0.61;}.cls-22{opacity:0.59;}.cls-23{opacity:0.57;}.cls-24{opacity:0.55;}.cls-25{opacity:0.53;}.cls-26{opacity:0.51;}.cls-27{opacity:0.5;}.cls-28{opacity:0.48;}.cls-29{opacity:0.46;}.cls-30{opacity:0.44;}.cls-31{opacity:0.42;}.cls-32{opacity:0.4;}.cls-33{opacity:0.38;}.cls-34{opacity:0.36;}.cls-35{opacity:0.34;}.cls-36{opacity:0.32;}.cls-37{opacity:0.3;}.cls-38{opacity:0.28;}.cls-39{opacity:0.26;}.cls-40{opacity:0.24;}.cls-41{opacity:0.22;}.cls-42{opacity:0.2;}.cls-43{opacity:0.18;}.cls-44{opacity:0.17;}.cls-45{opacity:0.15;}.cls-46{opacity:0.13;}.cls-47{opacity:0.11;}.cls-48{opacity:0.09;}.cls-49{opacity:0.07;}.cls-50{opacity:0.05;}.cls-51{opacity:0.03;}.cls-52{opacity:0.01;}</style></defs><g id="Layer_2" data-name="Layer 2"><g id="Layer_2-2" data-name="Layer 2"><path class="cls-1" d="M3.8,74C167.52,169,100.27,462.6,243,390.5c97-49,68.89-147.06,132-189,56-37.19,120.62,34.55,187,113,66,78,129.31,166.39,272,135,150-33,132.4-294.28,335-246,214,51,80.22,332.55,327,233,176-71,44-362,199-298,90.46,37.35,157,202,266,247,79.89,33,82.28,67.31,204-12,374.5-244,177.61-3.06,457.5-63"/><path class="cls-2" d="M3.74,72.58c77.78,46.71,103.2,131.5,124.3,203.69,24.18,81.6,41.28,145.51,116.32,108.91,96.21-46.93,69.38-141.1,132.16-183,55.25-36.82,119.4,33.49,185.35,110.49C627.49,389.2,690.6,476.09,831.36,445.43c41.67-9,70.36-35.69,94.45-68.38,62.25-83.79,94.12-206.27,237.57-171.58,210.67,51,80.09,328.21,323.87,230.5,119-47.39,99.56-201,121.55-269.12,10.33-32,31-47.28,80.54-26.87,24.74,10.17,47.77,29.31,69.87,53.15,59.56,64.09,117.11,155,199,187.1,25.93,10.16,43.77,20.95,60.36,27.81,35.23,14.57,63.54,13,145.22-39,136.42-86.79,195.79-107.88,233.54-105.19,61.08,4.36,51.54,86.12,226,49.11"/><path class="cls-3" d="M3.67,71.14C82.39,120,107,201.3,128.81,271.87c24.68,79.92,42.58,142.92,116.91,108C341.15,335,315.6,244.72,378,202.79c54.55-36.43,118.18,32.44,183.69,108,65.25,75.13,128.16,160.5,267,130.59,41.24-8.79,69.61-35,93.65-66.93,62-82.39,94.23-201.64,235.4-167,207.33,50.93,79.73,323.3,320.72,228,118.43-46.83,102.13-204,124.33-269.28,10.35-30.43,31.48-45,80.85-24.69,25.08,10.26,48.5,29.2,70.46,53.13,59,63.87,117.07,149.06,201.32,180.36,26,9.67,44,20.43,60.88,27.09,36.41,14.36,65.28,12.82,146.29-37.45,135.61-84.17,193.84-102.07,234-98.83,61,4.94,56,85.71,227.53,49.67"/><path class="cls-4" d="M3.61,69.7c79.66,51,103.62,128.79,126,197.78,25.34,78.19,43.89,140.32,117.5,107,94.65-42.78,70.37-129.17,132.48-171.09,53.84-36.05,117,31.38,182,105.48,64.86,73.69,127.57,157.56,264.48,128.38,40.82-8.54,68.92-34.21,92.84-65.47,61.88-80.87,94.35-197,233.23-162.41,204,50.89,79.49,318.67,317.59,225.49,117.88-46.13,104.68-207.12,127.09-269.44,10.38-28.86,32-42.69,81.18-22.52,25.42,10.36,49.17,29.14,71,53.11,58.22,63.79,117,143.14,203.62,173.64,26.08,9.18,44.19,19.88,61.39,26.36,37.59,14.15,67,12.66,147.35-35.92,134.83-81.54,191.9-96.26,234.46-92.45,60.95,5.45,60.44,85.29,229.09,50.22"/><path class="cls-5" d="M3.54,68.26c80.61,53.09,103.9,127.42,126.81,194.82,26,76.47,45.2,137.73,118.09,106.13,93.89-40.71,70.76-123.36,132.64-165.12,53-35.8,115.74,30.32,180.39,103,64.48,72.25,126.92,154.29,262,126.18,40.37-8.4,68.24-33.45,92-64,61.78-79.35,94.47-192.38,231.06-157.83,200.68,50.85,79.26,314.07,314.45,223,117.34-45.43,107.23-210.21,129.86-269.59,10.41-27.31,32.49-40.41,81.51-20.35,25.76,10.44,49.87,29.05,71.63,53.09,57.58,63.61,116.88,137.21,205.93,166.9,26.13,8.71,44.39,19.35,61.89,25.64,38.78,13.93,68.8,12.51,148.43-34.38,134-78.93,189.95-90.47,234.91-86.09,60.89,5.93,64.89,84.88,230.65,50.78"/><path class="cls-6" d="M3.48,66.82C85,122,107.66,192.88,131.12,258.69c26.65,74.75,46.52,135.14,118.67,105.2C342.93,325.25,321,246.45,382.6,204.74,434.92,169.29,497.12,234,561.33,305.19c64.11,70.82,126.34,151.28,259.47,124,39.94-8.18,67.55-32.69,91.23-62.56,61.67-77.83,94.58-187.75,228.89-153.25,197.34,50.82,79,309.47,311.31,220.49C1569,389.12,1562,220.54,1584.86,164.1c10.43-25.76,33-38.11,81.82-18.18,26.11,10.54,50.58,29,72.23,53.08,56.93,63.42,116.74,131.31,208.22,160.16,26.19,8.26,44.62,18.81,62.41,24.92,40,13.71,70.56,12.36,149.5-32.84,133.27-76.31,188-84.69,235.37-79.73,60.83,6.37,69.34,84.47,232.21,51.34"/><path class="cls-7" d="M3.41,65.37C85.9,122.72,107.87,190.08,131.89,254.29c27.32,73,47.84,132.55,119.26,104.28,92.39-36.57,71.71-111.51,133-153.19,51.59-35.09,113.3,28.2,177.08,97.95,63.73,69.39,125.74,148.26,257,121.78,39.5-8,66.86-31.93,90.41-61.11,61.58-76.31,94.7-183.13,226.72-148.67,194,50.78,78.8,304.88,308.17,218,116.25-44,112.31-216.42,135.4-269.91,10.46-24.21,33.44-35.71,82.15-16,26.42,10.69,51.28,28.87,72.81,53.07,56.3,63.24,116.58,125.42,210.53,153.42,26.23,7.82,44.83,18.27,62.92,24.2,41.17,13.48,72.33,12.21,150.57-31.3,132.51-73.7,186-78.91,235.82-73.36,60.77,6.77,73.79,84.06,233.77,51.89"/><path class="cls-8" d="M3.35,63.93c83.43,59.47,104.74,123.35,129.31,186,28,71.34,49.17,130,119.85,103.35,91.65-34.5,72.17-105.59,133.13-147.22,50.86-34.74,112.07,27.14,175.43,95.44C624.42,369.42,686.21,446.71,815.53,421c39.07-7.75,66.18-31.16,89.61-59.65,61.49-74.8,94.81-178.5,224.54-144.09,190.69,50.75,78.59,300.3,305,215.49,115.7-43.33,114.83-219.54,138.17-270.06,10.47-22.68,33.93-33.42,82.47-13.84,26.75,10.79,52,28.78,73.4,53,55.65,63.06,116.39,119.56,212.83,146.7,26.26,7.39,45,17.72,63.43,23.47,42.36,13.25,74.11,12.06,151.63-29.76,131.76-71.08,184.09-73.15,236.28-67,60.72,7.15,78.25,83.65,235.33,52.45"/><path class="cls-9" d="M3.29,62.49c84.37,61.6,105,122,130.14,183,28.65,69.64,50.51,127.37,120.44,102.42,90.91-32.43,72.64-99.65,133.29-141.24C437.3,172.29,498,232.76,560.93,299.61c63,66.51,124.56,142.22,252,117.37,38.64-7.54,65.5-30.4,88.8-58.2,61.41-73.28,94.94-173.87,222.38-139.5C1311.42,270,1202.44,515,1426,432.26,1541.13,389.64,1543.31,209.57,1566.9,162c10.49-21.15,34.43-31.11,82.79-11.67a195.61,195.61,0,0,1,74,53c55,62.87,116.18,113.72,215.12,140,26.3,7,45.27,17.17,64,22.75,43.57,13,75.89,11.91,152.7-28.23,131-68.46,182.13-67.39,236.73-60.63,60.67,7.51,82.71,83.24,236.9,53"/><path class="cls-10" d="M3.22,61.05c85.31,63.72,105.33,120.64,131,180.06,29.33,67.94,51.85,124.78,121,101.49,90.19-30.36,73.11-93.72,133.45-135.28,49.41-34,109.63,25,172.12,90.43,62.59,65.07,124,139.21,249.45,115.16,38.21-7.32,64.83-29.64,88-56.74,61.33-71.77,95.06-169.24,220.21-134.92,184,50.67,78.16,291.15,298.76,210.49,114.63-41.92,119.86-225.86,143.7-270.39,10.52-19.63,34.93-28.81,83.12-9.49a194.21,194.21,0,0,1,74.58,53c54.38,62.68,116,107.89,217.43,133.22,26.31,6.57,45.49,16.62,64.46,22,44.77,12.77,77.68,11.78,153.77-26.68,130.29-65.84,180.17-61.65,237.19-54.27,60.61,7.85,87.15,82.83,238.45,53.58"/><path class="cls-11" d="M3.16,59.61C89.41,125.46,108.78,178.91,135,236.71c30,66.25,53.2,122.2,121.62,100.57C346.06,309,330.17,249.49,390.2,208c48.69-33.67,108.41,24,170.47,87.92,62.21,63.64,123.37,136.2,246.94,113,37.79-7.11,64.15-28.88,87.19-55.3,61.25-70.25,95.17-164.6,218-130.33,180.69,50.64,78,286.59,295.62,208,114.1-41.21,122.37-229.06,146.48-270.54,10.53-18.13,35.41-26.51,83.44-7.33,27.77,11.09,54.1,28.5,75.17,53,53.74,62.5,115.7,102.11,219.73,126.49,26.33,6.18,45.71,16.06,65,21.3,46,12.52,79.48,11.63,154.85-25.14,129.58-63.23,178.21-55.92,237.64-47.9,60.56,8.16,91.61,82.41,240,54.13"/><path class="cls-12" d="M3.09,58.17c87.2,68,105.93,118,132.64,174.15C166.43,296.88,190.3,351.93,258,332c88.77-26.21,74.05-81.87,133.77-123.34,48-33.32,107.06,23,168.81,85.41S683.32,427.21,805,404.78c37.36-6.89,63.48-28.11,86.38-53.84,61.19-68.74,95.29-160,215.87-125.75,177.35,50.6,77.76,282,292.48,205.49,113.56-40.5,124.87-232.29,149.24-270.7,10.56-16.64,35.91-24.21,83.76-5.15,28.11,11.19,54.82,28.4,75.76,53,53.11,62.31,115.44,96.33,222,119.75,26.35,5.79,45.94,15.51,65.48,20.58,47.2,12.26,81.28,11.5,155.92-23.6,128.87-60.61,176.25-50.2,238.09-41.54,60.51,8.47,96.06,82,241.58,54.69"/><path class="cls-13" d="M3,56.72c88.13,70.1,106.23,116.62,133.47,171.2,31.39,62.88,55.93,117,122.81,98.72,88.08-24.14,74.52-75.94,133.93-117.38,47.24-32.95,105.83,22,167.16,82.91S682.6,422.35,802.33,400.72c36.93-6.68,62.81-27.35,85.57-52.39C949,281.1,983.31,193,1101.6,227.16c174,50.57,77.57,277.51,289.34,203,113-39.78,127.37-235.55,152-270.86,10.58-15.16,36.41-21.91,84.08-3,28.45,11.29,55.52,28.31,76.35,53,52.48,62.11,115.16,90.59,224.33,113,26.35,5.41,46.16,14.94,66,19.85,48.41,12,83.09,11.36,157-22.06,128.19-58,174.3-44.48,238.56-35.18,60.45,8.76,100.51,81.6,243.13,55.25"/><path class="cls-14" d="M3,55.28C92,127.51,109.51,170.56,137.27,223.53c32.09,61.2,57.3,114.46,123.4,97.78,87.39-22.05,75-70,134.08-111.4,46.53-32.59,104.61,21,165.52,80.4S681.88,417.48,799.69,396.65c36.5-6.45,62.15-26.58,84.77-50.93C945.53,280,980,195,1096,229.14c170.69,50.52,77.38,273,286.2,200.48,112.51-39.06,129.87-238.86,154.78-271,10.62-13.72,36.91-19.61,84.41-.82,28.78,11.39,56.23,28.22,76.94,53C1750.16,272.65,1813.18,295.6,1925,317c26.35,5.05,46.38,14.38,66.5,19.13,49.63,11.73,84.91,11.23,158-20.53,127.51-55.35,172.35-38.77,239-28.81,60.41,9,105,81.19,244.7,55.81"/><path class="cls-15" d="M2.9,53.84c90,74.35,106.86,114,135.14,165.29C170.83,278.66,196.72,331,262,316c86.72-20,75.46-64.06,134.24-105.43,45.8-32.23,103.39,19.9,163.86,77.89s121,124.17,236.92,104.13c36.07-6.23,61.48-25.81,84-49.47,61-64.22,95.64-146.09,209.36-112,167.36,50.49,77.2,268.45,283.06,198,112-38.34,132.41-242.22,157.55-271.17,10.68-12.29,37.41-17.31,84.74,1.36,29.12,11.49,56.93,28.11,77.52,52.92,51.22,61.73,114.56,79.18,228.93,99.55,26.36,4.7,46.62,13.81,67,18.41,50.84,11.46,86.74,11.1,159.12-19,126.85-52.72,170.39-33.08,239.46-22.44,60.37,9.29,109.42,80.77,246.26,56.36"/><path class="cls-16" d="M2.83,52.4c91,76.48,107.2,112.62,136,162.33,33.5,57.86,60.07,109.34,124.57,95.94,86.07-17.88,75.94-58.13,134.41-99.46C442.87,179.34,500,230.06,560,286.58S680.44,407.75,794.41,388.52c35.64-6,60.82-25,83.16-48,61-62.71,95.76-141.46,207.18-107.42,164,50.45,77,263.95,279.93,195.48,111.46-37.61,135-245.63,160.32-271.33,10.74-10.88,37.9-15,85,3.53,29.46,11.59,57.65,28,78.12,52.91,50.59,61.52,114.24,73.52,231.23,92.81,26.36,4.35,46.84,13.25,67.52,17.69,52.07,11.18,88.58,11,160.2-17.45,126.19-50.09,168.44-27.4,239.92-16.08,60.31,9.55,113.87,80.37,247.81,56.92"/><path class="cls-17" d="M2.77,51c91.9,78.6,107.53,111.29,136.81,159.38,34.22,56.19,61.47,106.78,125.16,95,85.42-15.78,76.42-52.19,134.57-93.5,44.36-31.5,100.93,17.81,160.56,72.87s119.85,118.17,231.9,99.73c35.22-5.79,60.16-24.28,82.35-46.56,60.94-61.2,95.88-136.84,205-102.84,160.7,50.42,76.85,259.45,276.78,193,110.95-36.88,137.57-249.09,163.09-271.49,10.84-9.51,38.4-12.72,85.38,5.71,29.8,11.68,58.35,27.92,78.7,52.89,50,61.32,113.92,67.88,233.54,86.08,26.35,4,47.06,12.67,68,17,53.29,10.9,90.42,10.86,161.26-15.91,125.57-47.45,166.5-21.72,240.38-9.72,60.27,9.8,118.32,80,249.38,57.48"/><path class="cls-18" d="M2.7,49.52c92.85,80.73,107.87,110,137.65,156.42,35,54.54,62.87,104.23,125.75,94.09,84.78-13.68,76.89-46.26,134.73-87.53,43.64-31.14,99.7,16.75,158.9,70.36C619.12,336.64,679,398,789.14,380.39c34.78-5.58,59.5-23.52,81.53-45.11,60.91-59.69,96-132.21,202.85-98.26,157.37,50.38,76.69,255,273.65,190.48,110.42-36.15,140.25-252.59,165.86-271.64,11-8.17,38.89-10.43,85.7,7.87,30.13,11.78,59.06,27.82,79.29,52.88,49.34,61.12,113.58,62.28,235.83,79.34,26.35,3.68,47.3,12.1,68.55,16.24,54.51,10.61,92.27,10.75,162.33-14.37,124.95-44.8,164.55-16.06,240.83-3.35,60.23,10,122.78,79.54,250.94,58"/><path class="cls-19" d="M2.64,48.07c93.79,82.86,108.22,108.64,138.48,153.48,35.68,52.88,64.28,101.68,126.34,93.15,84.15-11.56,77.36-40.31,134.89-81.55,42.93-30.77,98.48,15.7,157.25,67.85,59,52.35,118.69,112.18,226.9,95.32,34.35-5.35,58.85-22.75,80.73-43.65,60.89-58.19,96.11-127.58,200.67-93.68,154,50.35,76.53,250.49,270.51,188,109.91-35.42,143-256.12,168.63-271.8,11.16-6.84,39.4-8.13,86,10,30.48,11.88,59.78,27.73,79.89,52.86,48.72,60.92,113.24,56.71,238.13,72.61,26.34,3.35,47.52,11.53,69.06,15.52,55.73,10.32,94.13,10.64,163.4-12.83,124.34-42.15,162.6-10.41,241.28,3,60.2,10.26,127.23,79.13,252.5,58.59"/><path class="cls-20" d="M2.57,46.63c94.73,85,108.59,107.31,139.32,150.52,36.43,51.23,65.7,99.15,126.93,92.23,83.53-9.44,77.84-34.37,135.05-75.59,42.21-30.4,97.25,14.66,155.6,65.35,58.62,50.92,118.11,109.19,224.39,93.12,33.93-5.13,58.2-22,79.92-42.21C924.66,273.38,960,207.11,1062.29,241c150.7,50.31,76.37,246,267.37,185.47,109.4-34.68,148.68-255.16,171.39-272,12.23-3.33,39.9-5.83,86.35,12.22,30.81,12,60.49,27.62,80.47,52.84,48.1,60.71,112.9,51.16,240.44,65.87,26.33,3,47.75,11,69.57,14.8,56.95,10,96,10.55,164.47-11.3,123.75-39.48,160.65-4.75,241.74,9.38,60.15,10.49,131.68,78.72,254.06,59.15"/><path class="cls-21" d="M2.51,45.19c95.67,87.11,109,106,140.15,147.57,37.19,49.57,67.12,96.62,127.52,91.3,82.92-7.31,78.31-28.43,135.21-69.62,41.49-30,96,13.61,153.94,62.84,58.24,49.5,117.54,106.2,221.89,90.91,33.5-4.91,57.55-21.21,79.11-40.75,60.87-55.16,96.35-118.31,196.34-84.5,147.37,50.27,76.22,241.56,264.23,183C1429.79,392,1472.3,167.74,1495.07,153.8c12.33-1.75,40.39-3.55,86.67,14.38,31.15,12.07,61.2,27.53,81.06,52.83,47.48,60.5,112.55,45.65,242.73,59.13,26.33,2.73,48,10.38,70.09,14.08,58.17,9.72,97.87,10.46,165.54-9.76,123.17-36.8,158.7.88,242.19,15.74,60.11,10.71,136.14,78.32,255.62,59.71"/><path class="cls-22" d="M2.44,43.75c96.62,89.24,109.34,104.66,141,144.61,38,47.92,68.55,94.11,128.11,90.38,82.32-5.17,78.79-22.49,135.37-63.65,40.78-29.66,94.8,12.56,152.29,60.33,57.85,48.07,116.95,103.22,219.38,88.71,33.07-4.69,56.91-20.44,78.31-39.3,60.87-53.64,96.46-113.69,194.16-79.92,144,50.24,76.08,237.12,261.1,180.47,108.38-33.18,154.12-261.18,176.93-272.27,12.44-.15,40.89-1.25,87,16.56,31.5,12.16,61.92,27.42,81.65,52.81,46.87,60.29,112.2,40.17,245,52.4,26.31,2.42,48.21,9.8,70.59,13.34,59.4,9.42,99.76,10.39,166.61-8.21,122.61-34.12,156.77,6.5,242.65,22.11,60.08,10.91,140.59,77.9,257.18,60.26"/><path class="cls-23" d="M2.38,42.31C99.93,133.67,112.11,145.65,144.2,184c38.74,46.26,70.06,85.89,128.7,89.45,81.63,4.94,79.27-16.55,135.53-57.68,40.06-29.29,93.58,11.51,150.64,57.82,57.47,46.64,116.37,100.24,216.87,86.5,32.65-4.46,56.27-19.66,77.5-37.84,60.89-52.13,96.58-109.06,192-75.34,140.71,50.2,75.93,232.69,258,178,107.88-32.43,156.84-264.19,179.71-272.43,12.53,1.44,41.39,1,87.31,18.73,31.83,12.26,62.63,27.32,82.24,52.79,46.26,60.09,111.84,34.72,247.34,45.67,26.3,2.12,48.43,9.22,71.1,12.62,60.63,9.11,101.65,10.32,167.68-6.67,122.07-31.42,154.83,12.12,243.11,28.47,60,11.12,145,77.49,258.74,60.82"/><path class="cls-24" d="M2.31,40.87c98.5,93.49,110.13,102,142.65,138.7,39.54,44.61,71.67,83.31,129.3,88.52C355.08,275.4,354,257.49,410,216.38c39.35-28.91,92.35,10.47,149,55.32C616,316.91,674.73,369,773.3,356c32.22-4.24,55.64-18.89,76.7-36.39,60.9-50.61,96.7-104.43,189.82-70.76,137.38,50.17,75.8,228.28,254.82,175.47,107.37-31.67,159.56-267.2,182.47-272.58,12.64,3,41.89,3.32,87.64,20.89,32.17,12.36,63.34,27.22,82.82,52.78,45.65,59.87,111.49,29.3,249.64,38.93,26.3,1.83,48.67,8.64,71.62,11.9,61.85,8.8,103.55,10.26,168.75-5.13,121.53-28.7,152.89,17.72,243.56,34.83,60,11.33,149.49,77.08,260.3,61.38"/><path class="cls-25" d="M2.25,39.42C101.69,135,112.8,140.11,145.73,175.18c40.35,42.95,73.29,80.76,129.88,87.59,80,9.66,80.23-4.65,135.86-45.74,38.63-28.54,91.13,9.41,147.33,52.81,56.71,43.78,115.22,94.28,211.86,82.09,31.8-4,55-18.11,75.89-34.93,60.94-49.09,96.82-99.8,187.65-66.17,134,50.12,75.68,223.87,251.68,173,106.88-30.91,162.28-270.22,185.24-272.74,12.74,4.62,42.4,5.62,88,23.07,32.52,12.45,64.06,27.11,83.42,52.76,45,59.65,113.51,5.11,251.94,32.19,25.84,5.06,48.9,8.06,72.13,11.18,63.07,8.48,105.46,10.21,169.82-3.6,121-26,151,23.33,244,41.21,60,11.52,153.95,76.67,261.86,61.93"/><path class="cls-26" d="M2.18,38c100.38,97.75,111,99.35,144.32,132.8C187.67,212.08,221.42,249,277,257.45c79.19,12,80.71,1.3,136-39.77C450.91,189.52,502.9,226,558.67,268,615,310.33,673.31,359.29,768,347.87c31.37-3.79,54.38-17.34,75.08-33.48,61-47.56,96.94-95.17,185.49-61.59,130.71,50.09,75.55,219.48,248.54,170.46,106.38-30.14,165-273.23,188-272.9,12.84,6.21,42.89,7.91,88.28,25.24,32.85,12.55,64.77,27,84,52.75,44.42,59.44,112.94-.35,254.24,25.46,25.87,4.72,49.12,7.47,72.64,10.45,64.29,8.16,107.37,10.17,170.88-2.06,120.51-23.21,149,28.91,244.47,47.57,59.94,11.71,158.4,76.26,263.43,62.49"/><path class="cls-27" d="M2.12,36.54c101.32,99.87,111.41,98,145.15,129.84,42,39.64,75.8,81.73,131.06,85.75,79.44,5.78,81.19,7.24,136.18-33.81,37.21-27.78,88.69,7.32,144,47.79,56,40.93,114.07,88.35,206.84,77.69,31-3.56,53.76-16.55,74.28-32,61-46,97.05-90.55,183.31-57,127.39,50,75.44,215.1,245.4,168,105.89-29.37,167.72-276.25,190.78-273.07,12.95,7.81,43.4,10.2,88.61,27.42,33.19,12.64,65.49,26.9,84.59,52.72,43.82,59.23,112.38-5.7,256.54,18.73,25.92,4.39,49.36,6.88,73.15,9.73,65.53,7.84,109.3,10.15,172-.52,120-20.44,147.09,34.49,244.93,53.93,59.9,11.91,162.85,75.85,265,63.06"/><path class="cls-28" d="M2.05,35.1c102.27,102,111.87,96.66,146,126.89,42.85,38,77.25,79.28,131.65,84.81C358.57,254.83,361.37,260,416,219c36.5-27.4,87.47,6.26,142.37,45.28,55.58,39.5,113.5,85.39,204.34,75.48,30.53-3.32,53.14-15.76,73.47-30.56,61.09-44.49,97.17-85.92,181.14-52.43,124.06,50,75.33,210.74,242.27,165.47C1365,393.62,1430.06,143,1453.17,149c13,9.39,43.89,12.48,88.92,29.58,33.54,12.73,66.21,26.8,85.19,52.71,43.22,59,111.79-11,258.84,12,26,4,49.58,6.3,73.66,9,66.75,7.51,111.22,10.14,173,1,119.53-17.64,145.16,40.05,245.38,60.29,59.88,12.1,167.31,75.44,266.54,63.62"/><path class="cls-29" d="M2,33.66C105.2,137.78,114.31,129,148.81,157.59c43.71,36.29,78.71,76.86,132.24,83.89,78.32,10.29,82.16,19.16,136.5-21.86,35.79-27,86.25,5.21,140.72,42.77,55.19,38.07,112.93,82.43,201.84,73.28,30.09-3.1,52.51-15,72.65-29.12,61.16-42.94,97.29-81.28,179-47.84,120.72,50,75.21,206.39,239.12,163,104.91-27.79,174.93-286,196.32-273.38,14.77,8.68,44.4,14.77,89.25,31.75,33.88,12.83,66.93,26.7,85.77,52.7,42.62,58.78,111.22-16.15,261.15,5.25,26,3.71,49.81,5.72,74.17,8.29,68,7.18,113.15,10.14,174.1,2.56,119.06-14.83,143.23,45.61,245.83,66.66,59.85,12.27,171.76,75,268.11,64.17"/><path class="cls-30" d="M1.93,32.22c104.14,106.24,112.79,93.94,147.65,121,44.59,34.59,80.16,74.45,132.83,83,77.76,12.57,82.64,25.11,136.66-15.9,35.08-26.63,85,4.16,139.07,40.27C613,297.17,670.49,340,757.47,331.6c29.67-2.86,51.9-14.18,71.85-27.66,61.24-41.38,97.47-76.81,176.8-43.25,117.5,49.7,75.11,202,236,160.46,104.42-27,177.83-288.52,199.08-273.54,14.93,10.53,44.9,17.06,89.58,33.93,34.21,12.92,67.64,26.59,86.36,52.68,42,58.56,110.64-21.22,263.44-1.48,26,3.36,50,5.12,74.69,7.56,69.19,6.84,115.09,10.16,175.17,4.09,118.59-12,141.31,51.17,246.29,73,59.81,12.46,176.21,74.62,269.66,64.73"/><path class="cls-31" d="M1.86,30.77C107,139.15,115.14,123.34,150.35,148.8c45.48,32.89,81.62,72.06,133.42,82,77.19,14.87,83.13,31.07,136.82-9.93C455,194.66,504.41,224,558,258.67c54.45,35.21,111.79,76.53,196.83,68.87,29.25-2.64,51.29-13.39,71-26.21,61.33-39.82,97.6-72.19,174.63-38.67,114.17,49.67,75,197.72,232.85,158,103.94-26.19,180.64-291.13,201.86-273.69,15,12.36,45.4,19.34,89.89,36.09,34.56,13,68.37,26.49,87,52.66,41.42,58.34,110.07-26.2,265.74-8.21,26.06,3,50.27,4.53,75.2,6.84,70.42,6.5,117,10.19,176.23,5.63,118.14-9.1,139.4,56.71,246.75,79.39,59.79,12.64,180.66,74.21,271.23,65.29"/><path class="cls-32" d="M1.8,29.33c106,110.5,113.77,91.19,149.32,115.08,46.38,31.17,83.07,69.68,134,81.11,76.62,17.19,83.62,37,137-4,33.67-25.87,82.6,2,135.76,35.25,54.07,33.77,111.22,73.58,194.32,66.66,28.83-2.4,50.69-12.58,70.24-24.75,61.43-38.24,97.71-67.56,172.46-34.09,110.84,49.63,74.92,193.42,229.71,155.46,103.45-25.37,183.39-293.77,204.62-273.85,15.11,14.18,45.9,21.63,90.22,38.27,34.9,13.1,69.09,26.37,87.54,52.64,40.83,58.11,109.51-31.08,268-15,26.09,2.66,50.49,4,75.71,6.12,71.64,6.16,119,3.21,177.3,7.17,117.58,8,137.48,62.23,247.2,85.75C2435,334.06,2560.36,395,2648,387.09"/><path class="cls-33" d="M1.73,27.89C108.7,140.52,116,117.68,151.89,140c47.29,29.44,84.52,67.32,134.6,80.18,76,19.55,84.11,43,137.14,2,33-25.48,81.39,1,134.11,32.74,53.69,32.34,110.65,70.64,191.81,64.46,28.4-2.17,50.09-11.78,69.43-23.3,61.55-36.66,97.83-62.93,170.29-29.51,107.51,49.6,74.83,189.13,226.57,153,103-24.55,186.09-296.46,207.4-274,15.15,16,46.4,23.92,90.54,40.44,35.24,13.19,69.81,26.27,88.13,52.63,40.23,57.88,108.95-35.88,270.34-21.69,26.13,2.3,50.73,3.36,76.22,5.4,72.87,5.82,121.14,3.38,178.38,8.71,116.78,10.87,135.56,67.75,247.65,92.12,59.74,13,189.58,73.38,274.35,66.4"/><path class="cls-34" d="M1.67,26.45c107.91,114.75,114.78,88.37,151,109.17,48.21,27.68,86,65,135.19,79.25,75.46,21.91,84.6,49,137.3,8,32.26-25.09,80.17-.06,132.45,30.24,53.33,30.9,110.09,67.71,189.31,62.25,28-1.93,49.49-11,68.62-21.84,61.68-35.06,98-58.3,168.12-24.93,104.19,49.56,74.75,184.86,223.44,150.46,102.5-23.71,188.76-299.19,210.16-274.16,15.18,17.74,46.9,26.2,90.86,42.61,35.59,13.28,70.54,26.16,88.72,52.61,39.64,57.65,108.42-40.57,272.65-28.43,26.16,1.94,51,2.77,76.73,4.67,74.09,5.48,123.25,3.61,179.45,10.26,116,13.72,133.64,73.26,248.11,98.48,59.71,13.16,194,73,275.91,67"/><path class="cls-35" d="M1.6,25C110.46,141.89,116.9,112,153.42,131.22c49.15,25.92,87.4,62.63,135.78,78.33,74.87,24.3,85.1,54.93,137.47,13.95,31.56-24.7,79-1.13,130.8,27.73,52.95,29.47,109.52,64.78,186.8,60,27.56-1.69,48.9-10.16,67.82-20.39,61.8-33.44,98.07-53.67,165.95-20.34,100.85,49.52,74.66,180.59,220.29,148,102-22.87,191.4-301.95,212.93-274.32,15.19,19.5,47.41,28.49,91.19,44.78,35.93,13.37,71.26,26,89.31,52.59,39,57.43,107.89-45.17,275-35.15,26.19,1.57,51.18,2.17,77.24,3.94,75.31,5.13,125.35,3.88,180.52,11.79C2239.65,238.67,2256.2,300.9,2373,327c59.69,13.33,198.48,72.57,277.47,67.52"/><path class="cls-36" d="M1.54,23.57c109.79,119,115.81,85.51,152.65,103.26C204.27,151,243,187.12,290.56,204.23c74.26,26.71,85.6,60.89,137.63,19.92,30.86-24.31,77.74-2.19,129.15,25.21,52.58,28,108.95,61.87,184.29,57.85,27.14-1.45,48.31-9.33,67-18.93,62-31.8,98.19-49,163.78-15.76C1070,322,1047,448.87,1189.58,418c101.56-22,194-304.75,215.7-274.48,15.19,21.23,47.91,30.77,91.51,46.95,36.26,13.46,72,25.94,89.9,52.58,38.46,57.2,107.42-33.27,277.24-41.89,26.22-1.33,51.41,1.58,77.76,3.22,76.53,4.78,127.44,4.19,181.58,13.33,114.41,19.31,129.83,84.26,249,111.22,59.67,13.49,202.93,72.15,279,68.07"/><path class="cls-37" d="M1.47,22.12C112.21,143.26,117.8,106.18,155,122.43c51,22.31,90.24,58,137,76.48,73.64,29.14,86.1,66.86,137.79,25.88,30.16-23.91,76.53-3.24,127.49,22.71,52.21,26.6,108.39,58.95,181.79,55.65,26.72-1.21,47.72-8.51,66.2-17.48,62.11-30.15,98.32-44.41,161.62-11.18,94.19,49.46,74.51,172.13,214,143,101.1-21.14,196.64-307.57,218.47-274.64,15.2,22.94,48.41,33.06,91.83,49.13,36.61,13.54,72.72,25.83,90.49,52.56,37.88,57,107.13-38.29,279.55-48.63,26.22-1.57,51.64,1,78.27,2.5,77.75,4.43,128.67,10.74,182.65,14.87C2237.5,222.06,2250,303,2371.56,330.81c59.64,13.66,207.38,71.74,280.59,68.63"/><path class="cls-38" d="M1.41,20.68C113.09,143.94,118.26,103.27,155.73,118c52,20.47,91.65,55.67,137.55,75.54,73,31.6,86.6,72.85,138,31.86,29.46-23.52,75.32-4.31,125.84,20.2,51.84,25.16,107.82,56,179.28,53.44,26.3-1,47.14-7.68,65.4-16,62.27-28.47,98.43-39.78,159.44-6.6,90.87,49.43,74.44,167.92,210.88,140.45,100.63-20.26,199.24-310.42,221.23-274.79,15.21,24.63,48.92,35.33,92.16,51.29,37,13.64,73.44,25.72,91.08,52.55,37.29,56.73,106.83-43.27,281.85-55.37,26.22-1.81,51.86.4,78.78,1.78,79,4.07,130.6,10.89,183.72,16.41,114.94,11.95,126,95.21,249.93,123.94,59.62,13.83,211.83,71.33,282.15,69.19"/><path class="cls-39" d="M1.34,19.24C114,144.63,118.71,100.34,156.5,113.64c52.9,18.62,93,53.38,138.14,74.62,72.33,34.07,87.1,78.83,138.1,37.83,28.77-23.13,74.12-5.38,124.2,17.69,51.47,23.71,107.25,53.14,176.77,51.23,25.87-.7,46.55-6.83,64.59-14.57,62.44-26.77,98.55-35.14,157.27-2,87.54,49.4,74.37,163.73,207.74,138,100.17-19.36,201.85-313.29,224-274.95,15.21,26.32,49.42,37.62,92.48,53.47,37.29,13.72,74.17,25.6,91.66,52.52,36.72,56.5,106.55-48.22,284.15-62.09,26.23-2.05,52.09-.21,79.29,1,80.2,3.71,132.54,11.05,184.8,18,114.45,15.1,124.12,100.67,250.38,130.3,59.6,14,216.29,70.93,283.71,69.75"/><path class="cls-40" d="M1.28,17.8c113.56,127.51,117.88,79.6,156,91.44,53.84,16.74,94.42,51.1,138.73,73.7,71.65,36.55,87.61,84.81,138.26,43.8,28.08-22.73,72.91-6.44,122.54,15.18,51.11,22.27,106.7,47.6,174.28,49,25.44.54,46-6,63.77-13.12,62.63-25,98.67-30.51,155.11,2.58,84.2,49.36,74.3,159.55,204.6,135.44C1254.27,397.4,1359,99.67,1381.33,140.74c15.22,28,49.92,39.91,92.8,55.64,37.64,13.81,74.91,25.49,92.26,52.51,36.14,56.26,106.28-53.15,286.45-68.83,26.23-2.29,52.32-.8,79.8.33,81.42,3.35,134.45,11.23,185.86,19.48,114,18.3,122.23,106.14,250.84,136.68,59.59,14.15,220.75,70.51,285.28,70.3"/><path class="cls-41" d="M1.21,16.36C115.72,146,119.61,94.44,158,104.85c54.77,14.83,95.79,48.81,139.32,72.77,70.94,39,88.11,90.79,138.42,49.76,27.38-22.33,71.7-7.51,120.89,12.68,50.74,20.82,106.16,44.83,171.77,46.82,25,.77,45.38-5.14,63-11.66,62.8-23.29,98.78-25.87,152.93,7.16,80.87,49.34,74.24,155.4,201.46,132.94,99.25-17.51,207-319.08,229.55-275.26,15.22,29.65,50.42,42.18,93.12,57.8,38,13.9,75.63,25.38,92.85,52.5,35.56,56,106-58.05,288.75-75.57,26.23-2.52,52.54-1.39,80.31-.39,82.64,3,136.36,11.42,186.93,21,113.43,21.54,120.34,111.58,251.3,143,59.56,14.31,225.19,70.1,286.83,70.86"/><path class="cls-42" d="M1.15,14.92c115.45,131.76,118.9,76.56,157.66,85.53C214.5,113.35,256,147,298.72,172.3c70.22,41.55,88.63,96.78,138.58,55.73,26.69-21.93,70.49-8.58,119.24,10.17,50.37,19.37,105.61,42.08,169.26,44.62,24.58,1,44.8-4.28,62.16-10.21,63-21.51,98.9-21.24,150.76,11.74,77.55,49.31,74.18,151.27,198.33,130.44,98.79-16.57,209.65-322,232.31-275.42,15.24,31.31,50.93,44.46,93.45,60,38.32,14,76.36,25.26,93.43,52.48,35,55.79,105.76-62.92,291-82.31,26.25-2.74,52.77-2,80.83-1.11C2012,171,2066.37,180,2116.12,191c112.87,24.81,118.44,117,251.75,149.4,59.55,14.47,229.65,69.69,288.39,71.42"/><path class="cls-43" d="M1.08,13.47c116.39,133.89,119.4,75,158.5,82.59,56.6,11,98.49,44.26,140.5,70.91,69.47,44.08,89.14,102.78,138.74,61.71,26-21.53,69.28-9.65,117.58,7.66,50,17.92,105.07,39.36,166.76,42.41,24.15,1.2,44.22-3.41,61.36-8.75,63.18-19.69,99-16.6,148.59,16.32,74.21,49.29,74.11,147.15,195.18,127.94,98.34-15.6,212.25-324.92,235.08-275.58,15.26,33,51.43,46.75,93.78,62.15,38.66,14.07,77.1,25.15,94,52.46,34.42,55.56,105.52-67.75,293.35-89,26.26-3,53-2.58,81.34-1.83,85.07,2.25,140.13,11.85,189.07,24.1,112.29,28.12,116.55,122.44,252.2,155.77,59.53,14.62,234.1,69.27,290,72"/><path class="cls-44" d="M1,12c117.33,136,119.88,73.47,159.33,79.63,57.51,9,99.81,42,141.09,70,68.7,46.6,89.66,108.77,138.9,67.67,25.31-21.12,68.07-10.72,115.93,5.16,49.64,16.46,104.43,38.74,164.25,40.21a202.54,202.54,0,0,0,60.55-7.3c63.37-17.84,99.13-12,146.42,20.9,70.87,49.27,74,143.06,192,125.45,97.88-14.62,214.85-327.86,237.85-275.74,15.27,34.59,51.93,49,94.09,64.32,39,14.15,77.84,25,94.61,52.44,33.85,55.31,105.3-72.57,295.66-95.77,26.27-3.21,53.22-3.19,81.84-2.56,86.3,1.88,142,12.08,190.15,25.64,111.67,31.46,114.67,127.85,252.66,162.13,59.51,14.78,238.55,68.87,291.51,72.54"/><path class="cls-45" d="M1,10.59C119.23,148.73,121.31,82.5,161.12,87.27c58.4,7,101.12,39.72,141.67,69.06C370.7,205.46,393,271.1,441.86,230c24.62-20.71,66.86-11.8,114.28,2.65,49.27,15,103.86,35.89,161.74,38,23.34.85,43.06-1.65,59.74-5.84,63.56-16,99.25-7.33,144.25,25.48,67.54,49.25,74,139,188.91,123,97.43-13.6,217.46-330.8,240.62-275.9,15.29,36.23,52.44,51.31,94.42,66.49,39.35,14.24,78.57,24.92,95.2,52.43,33.28,55.07,105.07-77.36,298-102.51,26.29-3.43,53.45-3.78,82.36-3.28,87.52,1.51,143.86,12.32,191.21,27.17,111,34.84,112.79,133.27,253.12,168.5,59.5,14.94,243,68.46,293.07,73.1"/><path class="cls-46" d="M.89,9.15c119.21,140.27,120.82,70.33,161,73.72,59.28,5,102.43,37.45,142.27,68.14,67.09,51.67,90.72,120.78,139.23,79.61,23.93-20.31,65.66-12.88,112.62.13,48.91,13.56,103.29,33.06,159.24,35.81,22.91,1.12,42.47-.77,58.94-4.39,63.73-14,99.36-2.69,142.08,30.07,64.2,49.22,73.92,134.92,185.77,120.44,97-12.56,220.06-333.75,243.39-276.06,15.31,37.86,53,53.51,94.74,68.66,39.72,14.25,79.31,24.81,95.78,52.42,32.73,54.83,104.87-82.12,300.26-109.25,26.3-3.65,53.68-4.38,82.87-4,88.73,1.14,145.7,12.57,192.28,28.72C2221.7,211.41,2222.26,311.83,2364.92,348c59.49,15.1,247.46,68.05,294.64,73.66"/><path class="cls-47" d="M.82,7.71C121,150.1,122.09,76.46,162.65,78.48c60.14,3,103.72,35.18,142.86,67.21,66.24,54.2,91.25,126.79,139.39,85.57,23.25-19.9,64.45-14,111-2.37,48.54,12.1,102.72,30.22,156.73,33.6,22.49,1.41,41.88.13,58.13-2.93,63.91-12.07,99.41,2,139.91,34.65,60.76,49.33,73.85,130.89,182.63,117.94,96.53-11.5,222.67-336.71,246.16-276.22,15.34,39.49,53.47,55.81,95.06,70.84,40.07,14.34,80.06,24.68,96.38,52.39,32.16,54.59,104.67-86.84,302.56-116,26.32-3.87,53.9-5,83.38-4.73,90,.77,147.51,12.83,193.35,30.26,109.62,41.69,109,144.06,254,181.23,59.47,15.24,251.91,67.63,296.19,74.21"/><path class="cls-48" d="M.76,6.27c121.1,144.52,121.71,68.61,162.66,67.81,61-1.18,105,32.91,143.45,66.28,65.38,56.74,91.79,132.81,139.55,91.55,22.56-19.49,63.24-15,109.32-4.88,48.16,10.63,102.14,27.4,154.22,31.4,22.06,1.69,41.29,1,57.32-1.49,64.07-10.06,99.53,6.67,137.74,39.24,57.43,49.29,73.78,126.88,179.5,115.44,96.07-10.4,225.27-339.67,248.92-276.37,15.37,41.11,54,58.09,95.39,73,40.4,14.44,80.79,24.57,97,52.38,31.6,54.35,104.49-91.56,304.85-122.71,26.34-4.1,54.13-5.58,83.9-5.46,91.16.39,149.31,13.09,194.42,31.8,108.85,45.15,107.16,149.44,254.48,187.59,59.46,15.4,256.36,67.23,297.76,74.77"/><path class="cls-49" d="M.69,4.82c122,146.65,122.14,65.59,163.5,64.87,61.81-1.08,106.25,30.62,144,65.35,64.49,59.27,92.34,138.83,139.71,97.52,21.88-19.08,62-16.14,107.66-7.39,47.8,9.16,101.56,24.59,151.72,29.19,21.63,2,40.69,1.95,56.52,0,64.21-8,99.64,11.3,135.57,43.82,54.1,49.26,73.7,122.89,176.35,112.94,95.62-9.27,227.89-342.64,251.7-276.53,15.39,42.73,54.46,60.39,95.71,75.18,40.74,14.52,81.54,24.45,97.55,52.36,31,54.1,104.32-96.24,307.16-129.45,26.36-4.32,54.35-6,84.41-6.18,92.37-.41,151.1,13.36,195.48,33.34,108.05,48.63,105.3,154.8,254.94,194,59.45,15.55,260.82,66.82,299.32,75.33"/><path class="cls-50" d="M.63,3.38c123,148.78,122.55,64,164.33,61.91,62.62-3.12,107.5,28.34,144.63,64.43,63.58,61.8,92.89,144.86,139.87,103.49,21.2-18.67,60.82-17.3,106-9.9,47.44,7.62,101,21.79,149.21,27,21.21,2.28,40.09,2.87,55.71,1.42,64.34-5.94,99.76,15.93,133.4,48.4C944.56,349.34,967.41,419,1067,410.56c95.16-8.11,230.49-345.61,254.46-276.69,15.43,44.35,55,62.68,96,77.35s82.34,24.3,98.15,52.35c30.6,53.79,104.16-100.9,309.46-136.19a508,508,0,0,1,84.91-6.9c93.6-.51,152.87,13.62,196.56,34.88C2213.77,207.49,2210,315.53,2362,355.67c59.44,15.71,265.27,66.41,300.88,75.89"/><path class="cls-51" d="M.56,1.94c123.93,150.9,123,62.4,165.17,59C229.14,55.73,274.46,87,311,124.4c62.66,64.32,93.51,151,140,109.45,20.55-18.21,59.6-18.35,104.36-12.4,47.06,6.18,100.38,19,146.71,24.78,20.76,2.59,39.46,3.8,54.9,2.88,64.43-3.82,99.87,20.55,131.22,53,47.44,49.18,73.53,115,170.08,107.93,94.7-6.9,233-348.54,257.24-276.84,15.39,46,55.46,65,96.35,79.51,41.42,14.72,83.06,24.2,98.73,52.33,30,53.59,104-105.53,311.76-142.92a502.13,502.13,0,0,1,85.43-7.62c94.81-.83,154.61,13.89,197.63,36.41,106.29,55.65,101.63,165.29,255.85,206.69,59.45,15.76,269.72,66,302.44,76.44"/><path class="cls-52" d="M.5.5c124.86,153,123.34,60.8,166,56,174.7-19.64,213,243.62,286,178,50.31-45.22,220.81,14.07,301,12,162.4-4.19,140.85,172.32,296,163,94.23-5.66,235.72-351.56,260-277,31.38,96.39,165.31,78.27,196,134,33.09,60.08,123.34-154.72,400-158,334.8-4,235.43,191.86,455,251,59.41,16,274.18,65.58,304,77"/></g></g></svg>