<svg xmlns="http://www.w3.org/2000/svg" viewBox="0 0 2665 153.64"><defs><style>.cls-1,.cls-10,.cls-11,.cls-12,.cls-13,.cls-14,.cls-15,.cls-16,.cls-17,.cls-18,.cls-19,.cls-2,.cls-20,.cls-21,.cls-22,.cls-23,.cls-24,.cls-25,.cls-26,.cls-27,.cls-28,.cls-29,.cls-3,.cls-30,.cls-31,.cls-32,.cls-33,.cls-34,.cls-35,.cls-36,.cls-37,.cls-38,.cls-39,.cls-4,.cls-40,.cls-41,.cls-42,.cls-43,.cls-44,.cls-45,.cls-46,.cls-47,.cls-48,.cls-49,.cls-5,.cls-50,.cls-51,.cls-52,.cls-6,.cls-7,.cls-8,.cls-9{fill:none;stroke:#aac8db;stroke-linecap:round;}.cls-1,.cls-10,.cls-11,.cls-12,.cls-13,.cls-14,.cls-15,.cls-16,.cls-17,.cls-18,.cls-19,.cls-20,.cls-21,.cls-22,.cls-23,.cls-24,.cls-25,.cls-26,.cls-27,.cls-28,.cls-29,.cls-30,.cls-31,.cls-32,.cls-33,.cls-34,.cls-35,.cls-36,.cls-37,.cls-38,.cls-39,.cls-40,.cls-41,.cls-42,.cls-43,.cls-44,.cls-45,.cls-46,.cls-47,.cls-48,.cls-49,.cls-5,.cls-50,.cls-51,.cls-52,.cls-6,.cls-8,.cls-9{stroke-miterlimit:10;}.cls-2,.cls-3,.cls-4{stroke-miterlimit:10;}.cls-2{opacity:0.98;}.cls-3{opacity:0.96;}.cls-4{opacity:0.94;}.cls-5{opacity:0.92;}.cls-6{opacity:0.9;}.cls-7{stroke-miterlimit:10;opacity:0.88;}.cls-8{opacity:0.86;}.cls-9{opacity:0.84;}.cls-10{opacity:0.83;}.cls-11{opacity:0.81;}.cls-12{opacity:0.79;}.cls-13{opacity:0.77;}.cls-14{opacity:0.75;}.cls-15{opacity:0.73;}.cls-16{opacity:0.71;}.cls-17{opacity:0.69;}.cls-18{opacity:0.67;}.cls-19{opacity:0.65;}.cls-20{opacity:0.63;}.cls-21{opacity:0.61;}.cls-22{opacity:0.59;}.cls-23{opacity:0.57;}.cls-24{opacity:0.55;}.cls-25{opacity:0.53;}.cls-26{opacity:0.51;}.cls-27{opacity:0.5;}.cls-28{opacity:0.48;}.cls-29{opacity:0.46;}.cls-30{opacity:0.44;}.cls-31{opacity:0.42;}.cls-32{opacity:0.4;}.cls-33{opacity:0.38;}.cls-34{opacity:0.36;}.cls-35{opacity:0.34;}.cls-36{opacity:0.32;}.cls-37{opacity:0.3;}.cls-38{opacity:0.28;}.cls-39{opacity:0.26;}.cls-40{opacity:0.24;}.cls-41{opacity:0.22;}.cls-42{opacity:0.2;}.cls-43{opacity:0.18;}.cls-44{opacity:0.17;}.cls-45{opacity:0.15;}.cls-46{opacity:0.13;}.cls-47{opacity:0.11;}.cls-48{opacity:0.09;}.cls-49{opacity:0.07;}.cls-50{opacity:0.05;}.cls-51{opacity:0.03;}.cls-52{opacity:0.01;}</style></defs><g id="Layer_2" data-name="Layer 2"><g id="Layer_2-2" data-name="Layer 2"><path class="cls-1" d="M3.8,25.05C167.52,56.77,100.27,154.8,243,130.72c97-16.36,68.89-49.1,132-63.11,56-12.41,120.62,11.54,187,37.74,66,26,129.31,55.55,272,45.07,150-11,132.4-98.26,335-82.14,214,17,80.22,111,327,77.8,176-23.71,44-120.87,199-99.5,90.46,12.47,157,67.45,266,82.47,79.89,11,82.28,22.48,204-4,374.5-81.48,177.61-1,457.5-21"/><path class="cls-2" d="M3.74,24.57c86.17,17.22,108.15,50.61,130.94,75.87,21,23.32,41.78,39.49,109.38,28.4,96.51-15.6,69.61-47,132.46-61,55.48-12.36,120.42,11.21,187,37C598.64,118.39,633,133,678.41,142c41.24,8.15,90.51,12.14,156.91,7.58,74.68-5.14,107.77-29.1,148.5-50.08C1023.63,79,1070.25,61.29,1170,68.38c47,3.33,77.28,10.2,98.25,19.26,69.34,29.89,43.15,75.19,192.91,61.45,10.86-1,22.71-2.33,35.68-4.1,173.3-23.4,45.22-119.17,199.59-98.47,48.53,6.5,90.38,25.12,135.71,43.24,39,15.53,80.32,30.71,130.32,37.56,80.55,11,83.4,22.65,203.71-2.92,60.25-12.76,105.89-21.2,141.7-26.92,179-28.57,85.06,23.71,315.44,7.36"/><path class="cls-3" d="M3.67,24.09C90.62,42,112,74.19,135.32,98.82c21.64,22.9,42.86,38.65,109.8,28.15,96-15.06,70.33-44.88,132.92-58.92,55-12.31,120.23,10.88,186.92,36.21,35.34,13.37,69.84,27.89,115,36.58,42,8.08,91,12.16,156.71,8,73.9-4.76,107-27.83,148.51-48.53,40.09-20,87-38,185.88-31.81,46.88,2.93,77.3,9.21,98.06,18.3,68.59,29.94,45.56,73.71,193,61.12,10.8-.92,22.63-2.19,35.64-4,170.61-23.09,46.46-117.47,200.19-97.44,48.36,6.29,90.27,24.48,135.74,42.24,39.33,15.21,80.64,30.11,130.32,36.88,81.21,10.94,84.53,22.84,203.43-1.83,59.63-12.27,105.12-20.19,141.56-25.81,176.7-27.24,88.84,23.67,315.22,7.72"/><path class="cls-4" d="M3.61,23.61C91.33,42.18,112.19,73.19,136,97.19c22.25,22.48,43.95,37.9,110.22,27.9,95.48-14.41,71.05-42.77,133.38-56.83,54.53-12.24,120,10.55,186.88,35.46,35.51,13.15,70.15,27.53,115,35.93,42.7,8,91.46,12.18,156.53,8.35,73.11-4.36,106.3-26.55,148.5-47,40.38-19.53,87.67-37.72,185.58-32.46,46.8,2.51,77.31,8.2,97.88,17.34,67.83,30,48,72.23,193,60.79,10.73-.85,22.54-2.06,35.6-3.89C1666.46,120,1546.22,27,1699.32,46.4c48.18,6.08,90.13,23.94,135.77,41.23,39.58,15,81,29.53,130.32,36.22,81.88,10.9,85.66,23,203.14-.75,59-11.78,104.36-19.18,141.43-24.7,174.4-26,92.63,23.63,315,8.08"/><path class="cls-5" d="M3.54,23.12C92,42.38,112.36,72.19,136.59,95.57c22.87,22.05,45,37.14,110.65,27.64,95-13.75,71.77-40.65,133.84-54.73,54.05-12.19,119.84,10.22,186.84,34.7,35.69,12.93,70.47,27.16,115,35.28,43.44,7.93,91.93,12.19,156.34,8.73,72.33-4,105.56-25.28,148.5-45.41,40.66-19,88.3-37.48,185.28-33.12,46.73,2.1,77.33,7.21,97.69,16.39,67.07,30,50.37,70.77,193.1,60.45,10.66-.77,22.45-2,35.56-3.77,165.16-22.9,48.9-114.08,201.37-95.39,48,5.87,90,23.34,135.79,40.23,39.87,14.7,81.27,28.94,130.33,35.54,82.54,10.86,86.79,23.2,202.86.35,58.39-11.3,103.58-18.19,141.29-23.6,172.09-24.72,96.41,23.6,314.76,8.45"/><path class="cls-6" d="M3.48,22.64c89.26,19.94,109.05,48.55,133.75,71.3,23.49,21.64,46.15,36.39,111.07,27.39,94.47-13.09,72.49-38.54,134.3-52.64,53.57-12.13,119.64,9.9,186.8,34,35.86,12.7,70.79,26.78,115,34.64s92.41,12.2,156.16,9.1c71.54-3.57,104.81-24,148.5-43.84C1030,84,1078,65.29,1174.05,68.76c46.66,1.68,77.34,6.2,97.51,15.43,66.31,30.07,52.79,69.32,193.15,60.12,10.6-.7,22.36-1.84,35.52-3.67,162.46-22.68,50.14-112.38,202-94.36C1750,51.94,1792.09,69,1838,85.5c40.15,14.42,81.58,28.36,130.33,34.88,83.2,10.82,87.87,23.14,202.57,1.43,57.75-10.93,102.82-17.18,141.17-22.5,169.76-23.52,100.19,23.57,314.53,8.82"/><path class="cls-7" d="M3.41,22.16c90,20.61,109.3,48,134.46,70.16C162,113.53,185.12,128,249.36,119.46,343.33,107,322.57,83,384.12,68.91c53.1-12.07,119.4,9.71,186.75,33.19,36,12.56,71.12,26.4,115,34,44.92,7.76,92.89,12.21,156,9.49,70.75-3.18,104.05-22.76,148.49-42.29,41.2-18.11,89.55-37,184.67-34.44,46.59,1.27,77.36,5.21,97.32,14.48,65.55,30.12,55.21,67.89,193.22,59.78,10.54-.62,22.27-1.71,35.48-3.56,159.75-22.46,51.36-110.68,202.56-93.32,47.65,5.44,89.78,22.11,135.85,38.21,40.43,14.13,81.88,27.87,130.33,34.21,83.84,11,89,23.27,202.28,2.51,57.13-10.46,102.05-16.18,141-21.39,167.43-22.36,104,23.53,314.3,9.19"/><path class="cls-8" d="M3.35,21.68C94.16,43,112.89,69.18,138.5,90.69c24.76,20.8,48.35,34.9,111.92,26.89,93.47-11.78,73.93-34.32,135.22-48.45,52.62-12,119.19,9.39,186.71,32.43,36.19,12.35,71.44,26,115.07,33.34,45.66,7.67,93.36,12.23,155.79,9.87,70-2.78,103.3-21.5,148.5-40.73,41.46-17.65,90.18-36.8,184.36-35.09,46.52.84,77.35,4.25,97.14,13.52,64.72,30.31,57.64,66.47,193.28,59.45,10.47-.55,22.18-1.59,35.43-3.46,157-22.23,52.59-109,203.16-92.29,47.47,5.23,89.67,21.5,135.87,37.21,40.72,13.83,82.2,27.29,130.34,33.53,84.5,11,90.11,23.41,202,3.6,56.5-10,101.27-15.18,140.9-20.28C2479.28,79,2422,123.72,2628.26,109.78"/><path class="cls-9" d="M3.29,21.2c91.58,22,109.8,47,135.85,67.87,25.4,20.37,49.45,34.15,112.34,26.63,93-11.11,74.65-32.2,135.68-46.36,52.14-12,119,9.09,186.67,31.68,36.36,12.13,71.77,25.61,115.1,32.69C735.32,141.3,782.76,146,844.53,144c69.18-2.39,102.53-20.24,148.49-39.17,41.73-17.19,90.85-33.4,184.06-35.75,46.45-1.17,77.37,3.26,97,12.57,64,30.38,60.08,65.07,193.34,59.11,10.41-.46,22.1-1.46,35.4-3.35,154.34-22,53.81-107.28,203.75-91.26,47.29,5,89.55,20.89,135.9,36.2,41,13.55,82.51,26.72,130.34,32.87,85.16,10.94,91.23,23.54,201.71,4.69,55.88-9.54,100.5-14.19,140.77-19.18,162.74-20.17,111.54,23.45,313.85,9.92"/><path class="cls-10" d="M3.22,20.72C95.58,43.36,113.29,67.16,139.77,87.44c26.06,20,50.56,33.41,112.77,26.38C345,103.38,327.91,83.73,388.68,69.56c51.66-11.9,118.79,8.78,186.63,30.92,36.54,11.92,72.1,25.21,115.12,32,47.13,7.5,94.31,12.26,155.42,10.63,68.4-2,101.76-19,148.48-37.61,42-16.74,91.54-32.87,183.76-36.4,46.36-1.78,77.38,2.26,96.77,11.61,63.18,30.44,62.52,63.69,193.4,58.78a335.27,335.27,0,0,0,35.36-3.25c151.63-21.76,55-105.58,204.34-90.23,47.12,4.8,89.44,20.28,135.93,35.2,41.29,13.25,82.82,26.14,130.34,32.19,85.82,10.93,92.35,23.68,201.42,5.78,55.26-9.07,99.73-13.19,140.65-18.07,160.38-19.13,115.31,23.41,313.61,10.28"/><path class="cls-11" d="M3.16,20.24C96.29,43.56,113.5,66.15,140.41,85.82c26.71,19.52,51.66,32.66,113.18,26.12,92-9.77,76.1-28,136.61-42.16,51.18-11.85,118.59,8.46,186.59,30.16,36.71,11.71,72.42,24.8,115.14,31.4,47.88,7.39,94.78,12.27,155.23,11,67.62-1.59,101-17.74,148.49-36,42.24-16.29,92.22-32.38,183.44-37.06,46.29-2.37,77.4,1.28,96.59,10.65,62.42,30.51,65,53.4,193.47,58.45,10.28.4,21.91-1.2,35.31-3.14,148.93-21.52,56.27-103.88,204.94-89.2,46.94,4.59,89.33,19.66,135.95,34.19,41.58,13,83.14,25.57,130.35,31.53,86.48,10.91,93.48,23.82,201.14,6.86,54.63-8.61,98.94-12.2,140.51-17,158-18.11,119.1,23.39,313.38,10.66"/><path class="cls-12" d="M3.09,19.75c93.91,24,110.63,45.38,138,64.44s52.76,31.93,113.6,25.88C346.15,101,331.47,84.2,391.72,70c50.71-11.78,118.39,8.15,186.55,29.41,36.88,11.5,72.75,24.38,115.16,30.75,48.62,7.3,95.26,12.28,155.05,11.39C915.31,140.34,948.7,125,997,107c42.49-15.84,92.93-31.91,183.14-37.71,46.2-3,77.41.28,96.41,9.69,61.64,30.57,67.57,51.34,193.52,58.11,10.21.55,21.83-1.07,35.28-3,146.22-21.27,57.49-102.18,205.53-88.17,46.76,4.38,89.22,19,136,33.19,41.86,12.67,83.45,25,130.36,30.85,87.13,10.9,94.59,24,200.84,8,54-8.14,98.17-11.21,140.38-15.86,155.65-17.14,122.88,23.35,313.16,11"/><path class="cls-13" d="M3,19.27C97.71,44,113.94,64.11,141.68,82.57c28,18.66,53.87,31.19,114,25.62,91-8.43,77.54-23.75,137.53-38C443.47,58.48,511.44,78,579.75,98.86c37.06,11.28,73.08,24,115.18,30.1,49.37,7.19,95.74,12.3,154.86,11.77,66.05-.81,99.45-15.27,148.48-32.94C1041,92.38,1091.68,72,1181.11,69.42c46.23-1.31,77.43-.71,96.22,8.74,60.88,30.63,70.15,49.33,193.59,57.78,10.14.69,21.74-.95,35.24-2.93,143.52-21,58.72-100.48,206.12-87.14,46.59,4.17,89.11,18.43,136,32.19,42.15,12.36,83.76,24.4,130.36,30.18,87.79,10.88,95.72,24.1,200.56,9,53.39-7.68,97.38-10.23,140.24-14.76,153.28-16.2,126.67,23.31,312.93,11.39"/><path class="cls-14" d="M3,18.79C98.42,44.14,114.17,63.08,142.32,80.94c28.71,18.22,55,30.46,114.45,25.37,90.52-7.75,78.26-21.64,138-35.89,49.76-11.67,118,7.53,186.48,27.89,37.23,11.08,73.41,23.55,115.2,29.46,50.12,7.09,96.21,12.32,154.68,12.15,65.26-.41,98.67-14,148.48-31.38,43-15,94.05-35.67,182.53-39,46.17-1.75,77.44-1.71,96,7.78,60.12,30.69,72.76,47.38,193.66,57.44,10.06.84,21.65-.82,35.19-2.82,140.82-20.76,60-98.78,206.73-86.11,46.4,4,89,17.81,136,31.18,42.44,12.07,84.07,23.83,130.36,29.51,88.45,10.87,96.84,24.25,200.27,10.13,52.77-7.21,96.6-9.25,140.12-13.65,150.89-15.28,130.44,23.27,312.7,11.75"/><path class="cls-15" d="M2.9,18.31C99.13,44.34,114.4,62,143,79.32,172.35,97.1,199,109.05,257.83,104.43c90-7.07,79-19.52,138.44-33.79C445.55,59,514.08,77.85,582.71,97.77c37.4,10.87,73.74,23.12,115.23,28.82,50.86,7,96.68,12.32,154.49,12.52,64.47,0,97.89-12.8,148.47-29.82,43.23-14.54,94.71-35.52,182.23-39.68,46.12-2.19,77.45-2.7,95.85,6.83,59.34,30.75,75.38,45.49,193.71,57.11,10,1,21.56-.7,35.16-2.72C1646,110.33,1569,33.75,1715.17,45.76c46.22,3.74,88.89,17.18,136,30.17,42.73,11.77,84.39,23.24,130.37,28.84,89.11,10.85,98,24.39,200,11.21,52.16-6.74,95.82-8.26,140-12.55C2470.06,89,2455.79,126.67,2634,115.56"/><path class="cls-16" d="M2.83,17.83C99.84,44.54,114.64,61,143.59,77.69c30.08,17.34,57.2,29,115.3,24.86,89.54-6.38,79.67-17.53,138.9-31.69,48.78-11.66,117.61,6.88,186.4,26.37,37.58,10.65,74.08,22.69,115.25,28.17,51.61,6.86,97.16,12.34,154.3,12.9,63.69.38,97.11-11.58,148.47-28.26,43.48-14.12,95.37-35.37,181.93-40.33,46.07-2.64,77.46-3.7,95.66,5.87,58.58,30.8,78,43.66,193.78,56.77,9.92,1.13,21.47-.57,35.12-2.61,135.41-20.23,62.4-95.38,207.91-84,46.05,3.53,88.78,16.55,136.08,29.16,43,11.48,84.7,22.67,130.37,28.18,89.77,10.82,99.1,24.53,199.7,12.29,51.53-6.27,95-7.29,139.85-11.44,146.12-13.54,138,23.2,312.24,12.49"/><path class="cls-17" d="M2.77,17.35C100.54,44.73,114.88,60,144.23,76.07,175,93,202.53,104.35,260,100.68,349,95,340.33,85.24,399.31,71.07c48.3-11.6,117.42,6.57,186.36,25.62,37.75,10.44,74.41,22.25,115.27,27.52,52.36,6.75,97.63,12.47,154.12,13.29,62.9.9,96.32-10.37,148.47-26.71,43.71-13.7,96-35.24,181.62-41,46-3.09,77.48-4.69,95.48,4.92,57.81,30.86,80.68,41.89,193.84,56.44,9.84,1.26,21.38-.45,35.07-2.51,132.72-20,63.63-93.68,208.51-83,45.87,3.32,88.68,15.93,136.11,28.16,43.31,11.17,85,22.08,130.37,27.5,90.43,10.81,100.22,24.68,199.41,13.39,50.92-5.81,94.25-6.32,139.72-10.34,143.72-12.71,141.8,23.17,312,12.86"/><path class="cls-18" d="M2.7,16.87c98.55,28.06,112.43,42.05,142.16,57.57C176.33,90.87,204.28,102,261,98.8c88.58-5,81.1-13.33,139.82-27.51,47.82-11.55,117.22,6.25,186.31,24.86C625.08,106.37,661.9,118,702.44,123c53.11,6.63,98.11,12.49,153.93,13.67,62.12,1.3,95.54-9.15,148.47-25.15,43.95-13.28,96.69-35.11,181.32-41.64,46-3.55,77.49-5.69,95.29,4,57,30.92,83.36,40.19,193.9,56.1,9.77,1.41,21.3-.31,35-2.39,130-19.7,64.85-92,209.1-82,45.69,3.1,88.57,15.3,136.13,27.16C1899.23,83.6,1941,94.23,1986,99.57c91.09,10.78,101.35,24.83,199.13,14.47,50.29-5.33,93.46-5.35,139.59-9.23C2466,92.91,2470.29,127.94,2636.5,118"/><path class="cls-19" d="M2.64,16.39C102,45.12,115.38,57.86,145.5,72.82c32.16,16,60.53,26.84,116.57,24.1,88.1-4.31,81.82-11.22,140.28-25.42,47.34-11.49,117,5.93,186.27,24.11,38.11,10,75.09,21.37,115.32,26.22,53.86,6.51,98.58,12.51,153.75,14,61.33,1.71,94.75-7.94,148.46-23.59,44.19-12.87,97.35-35,181-42.3,45.91-4,77.5-6.69,95.11,3,56.27,31,86,38.56,194,55.78,9.69,1.54,21.21-.19,35-2.29,127.31-19.42,66.07-90.3,209.69-81,45.52,2.89,88.47,14.68,136.16,26.15,43.9,10.57,85.65,20.92,130.38,26.16,91.75,10.76,102.48,25,198.84,15.56,49.68-4.86,92.67-4.38,139.46-8.12,138.92-11.13,149.36,23.09,311.55,13.59"/><path class="cls-20" d="M2.57,15.9c100.1,29.42,113.06,40.9,143.57,55.29C179,86.7,207.78,97.32,263.13,95c87.62-3.61,82.54-9.11,140.74-23.32C450.73,60.28,520.7,77.33,590.1,95.07c38.29,9.79,75.43,20.92,115.34,25.58C760.05,127,804.5,133.18,859,135.07c60.54,2.11,94-6.73,148.46-22,44.42-12.46,98-34.89,180.71-43,45.87-4.47,77.52-7.68,94.92,2,55.51,31,88.74,37,194,55.44,9.61,1.69,21.11-.06,34.95-2.18,124.62-19.13,67.31-88.6,210.29-79.93,45.34,2.68,88.36,14,136.19,25.15,44.18,10.26,86,20.33,130.38,25.49,92.41,10.73,103.61,25.13,198.55,16.64,49.06-4.39,91.89-3.42,139.33-7,136.52-10.36,153.14,23.06,311.33,14"/><path class="cls-21" d="M2.51,15.42c100.87,30.1,113.38,40.32,144.26,54.15,33.57,15,62.76,25.42,117.42,23.6,87.14-2.91,83.26-7,141.2-21.23C451.77,60.55,522,77.22,591.58,94.53,630,104.1,667.34,115,707,119.46c55.36,6.24,99.52,12.55,153.37,14.8,59.76,2.51,93.17-5.53,148.46-20.46,44.65-12.07,98.67-34.81,180.41-43.62,45.82-4.94,77.53-8.68,94.74,1.09,54.74,31.09,91.44,35.49,194.08,55.11,9.54,1.82,21,.06,34.92-2.08,121.91-18.84,68.53-86.9,210.88-78.9C1769,47.87,1812.07,58.82,1860,69.54c44.48,10,86.28,19.75,130.39,24.82,93.08,10.71,104.75,25.29,198.27,17.73,48.44-3.91,91.09-2.46,139.19-5.91,134.11-9.63,156.93,23,311.1,14.33"/><path class="cls-22" d="M2.44,14.94c101.65,30.77,113.71,39.73,145,53,34.27,14.56,63.87,24.72,117.84,23.35,86.66-2.2,84-4.89,141.66-19.14,45.91-11.33,116.44,5,186.15,21.84,38.64,9.35,76.1,20,115.39,24.28,56.11,6.11,100,12.57,153.19,15.19,59,2.9,92.37-4.34,148.45-18.91,44.89-11.67,99.34-34.72,180.11-44.28,45.77-5.41,77.54-9.67,94.55.14,54,31.14,94.16,34.06,194.15,54.77,9.46,2,20.94.2,34.87-2C1633,104.66,1583.53,38,1725.25,45.34c45,2.26,88.16,12.78,136.24,23.14,44.77,9.64,86.59,19.16,130.39,24.15,93.74,10.68,105.88,25.45,198,18.82,47.83-3.44,90.31-1.51,139.07-4.81,131.69-8.92,160.7,23,310.86,14.69"/><path class="cls-23" d="M2.38,14.46c102.42,31.45,114,39.13,145.67,51.86C183,80.39,213,88,266.31,89.41c86.17,2.21,84.69-2.78,142.12-17C453.86,61.09,524.67,77,594.54,93.45,633.36,102.58,671,113,710,117.08c56.87,6,100.47,12.59,153,15.57,58.18,3.3,91.57-3.15,148.45-17.35,45.11-11.27,100-34.65,179.8-44.93,45.72-5.89,77.56-10.67,94.37-.82,53.21,31.19,96.88,32.7,194.21,54.44,9.38,2.09,20.85.32,34.83-1.87,116.52-18.25,71-83.5,212.07-76.83,44.81,2,88,12.14,136.27,22.13C1908,76.75,1949.87,86,1993.35,90.89c94.4,10.66,107,25.61,197.69,19.91,47.22-3,89.52-.56,138.94-3.7,129.28-8.23,164.49,22.94,310.64,15.06"/><path class="cls-24" d="M2.31,14c103.2,32.13,114.36,38.53,146.37,50.71,35.69,13.59,66.13,21,118.69,22.84,85.66,3,85.41-.67,142.58-15C454.9,61.36,526,76.9,596,92.91c39,8.91,76.77,19.08,115.43,23,57.62,5.82,100.95,12.59,152.82,15.94,57.4,3.7,90.78-2,148.45-15.79,45.35-10.88,100.66-34.58,179.5-45.59,45.67-6.37,77.57-11.67,94.18-1.77,52.45,31.24,97.24,46.34,194.27,54.1a146.79,146.79,0,0,0,34.8-1.76c113.82-18,72.21-81.8,212.66-75.8,44.63,1.83,87.95,11.51,136.29,21.12,45.37,9,87.23,18,130.4,22.81,95.06,10.62,108.15,25.77,197.41,21,46.59-2.49,88.72.39,138.8-2.6C2457.9,100,2499.3,130.47,2641.44,123"/><path class="cls-25" d="M2.25,13.5c104,32.8,114.69,37.93,147.07,49.57,36.4,13.09,67.26,20.27,119.11,22.58,85.15,3.81,86.13,1.44,143-12.85,44.47-11.17,115.86,4,186,19.56,39.17,8.7,77.11,18.62,115.45,22.35,58.38,5.67,101.43,12.61,152.64,16.32,56.61,4.1,90-.78,148.44-14.23,45.58-10.49,101.33-34.53,179.2-46.24,45.63-6.86,77.59-12.67,94-2.73,51.68,31.28,99.75,45.26,194.33,53.76,9.48.86,20.67.59,34.75-1.65,111.13-17.64,73.44-80.1,213.26-74.77C1774,46.79,1817.42,56,1865.89,65.29c45.66,8.71,87.54,17.39,130.4,22.13C2092,98,2105.57,113.36,2193.41,109.5c46-2,87.93,1.33,138.67-1.49,124.45-6.9,172.06,22.88,310.18,15.8"/><path class="cls-26" d="M2.18,13C106.93,46.5,117.21,50.34,150,61.44,187.07,74,218.36,81,269.49,83.78,354.13,88.37,356.34,87.32,413,73c44-11.11,115.66,3.65,186,18.8,39.34,8.48,77.45,18.15,115.48,21.7,59.12,5.52,101.89,12.63,152.44,16.7,55.83,4.5,89.19.4,148.45-12.67,45.8-10.1,102-34.48,178.89-46.9,45.58-7.35,77.6-13.66,93.81-3.68,50.92,31.33,102.26,44.21,194.4,53.43,9.43.94,20.58.71,34.71-1.55,108.43-17.33,74.67-78.4,213.85-73.74,44.28,1.41,87.74,10.23,136.35,19.11,46,8.4,87.85,16.81,130.4,21.47,96.39,10.56,110.42,26.1,196.84,23.17,45.36-1.54,87.69,7.61,138.54-.39,120.7-19,175.83,22.84,310,16.16"/><path class="cls-27" d="M2.12,12.53C107.64,46.69,117.47,49.24,150.59,59.82c37.83,12.08,69.54,18.85,120,22.08,84.12,5.38,87.57,5.66,144-8.67,43.51-11.05,115.47,3.33,186,18C640,99.54,678.25,109,716,112.33c59.88,5.36,102.37,12.65,152.26,17.09,55,4.89,88.38,1.56,148.44-11.12,46-9.72,102.65-34.45,178.59-47.55,45.53-7.86,77.61-14.66,93.63-4.64,50.15,31.38,104.77,43.19,194.45,53.09,9.38,1,20.5.84,34.68-1.44,105.73-17,75.89-76.7,214.44-72.71,44.1,1.19,87.64,9.59,136.38,18.11,46.24,8.08,88.16,16.22,130.4,20.8,97.05,10.52,111.55,26.26,196.55,24.25,44.75-1.06,86.89,8.65,138.41.72,118.35-18.23,179.62,22.8,309.72,16.53"/><path class="cls-28" d="M2.05,12.05C108.35,46.89,117.74,48.14,151.23,58.2,189.77,69.76,221.79,78.74,271.61,80c83.81,2.16,88.29,7.77,144.42-6.57,43-11,115.27,3,185.91,17.29,39.7,8,78.13,17.21,115.52,20.41,60.64,5.19,102.84,12.66,152.08,17.46,54.25,5.29,87.58,2.73,148.44-9.56,46.26-9.34,103.3-34.43,178.28-48.21,45.48-8.36,77.63-15.66,93.44-5.6,49.39,31.43,107.29,42.2,194.52,52.77,9.33,1.13,20.41,1,34.63-1.34,103-16.7,77.12-75,215-71.68,43.93,1,87.54,8.95,136.4,17.11,46.54,7.76,88.49,15.62,130.41,20.12,97.71,10.49,112.69,26.44,196.26,25.34,44.14-.58,86.09,9.67,138.28,1.83,116-17.45,183.4,22.76,309.49,16.89"/><path class="cls-29" d="M2,11.57C109.05,47.09,118,47,151.86,56.57c39.26,11.05,71.69,19.86,120.81,21.57,83.34,2.91,89,9.88,144.88-4.48,42.56-10.93,115.08,2.67,185.87,16.54C643.29,98,681.89,106.93,719,110c61.4,5,103.32,12.67,151.89,17.84,53.47,5.69,86.79,3.9,148.44-8,46.49-9,104-34.41,178-48.86,45.43-8.87,77.64-16.66,93.26-6.56,48.63,31.47,109.8,41.22,194.58,52.43,9.27,1.23,20.32,1.1,34.59-1.23,100.35-16.38,78.34-73.3,215.63-70.65,43.75.77,87.44,8.31,136.43,16.1,46.83,7.45,88.8,15,130.41,19.46,98.38,10.45,113.84,24.71,196,26.42,43.51.91,85.28,10.67,138.14,2.93,113.65-16.64,187.19,22.73,309.27,17.27"/><path class="cls-30" d="M1.93,11.09C109.76,47.28,118.27,45.93,152.5,55c40,10.52,72.8,19.18,121.22,21.31,82.88,3.66,89.74,12,145.35-2.38C461.15,63,534,76.22,604.89,89.66c40.06,7.59,78.82,16.24,115.57,19.11,62.15,4.85,103.79,12.69,151.71,18.22,52.68,6.08,86,5.06,148.43-6.44,46.72-8.6,104.62-34.41,177.68-49.52,45.38-9.38,77.66-17.66,93.07-7.51C1339.22,95,1403.67,103.8,1486,115.62c9.23,1.32,20.23,1.23,34.56-1.13,97.65-16,79.57-71.6,216.22-69.62,43.57.56,87.34,7.67,136.46,15.1,47.12,7.13,89.11,14.44,130.41,18.78,99,10.41,115,24.89,195.69,27.52,42.89,1.39,84.47,11.64,138,4,111.29-15.82,191,22.7,309,17.63"/><path class="cls-31" d="M1.86,10.61C110.47,47.48,118.54,44.82,153.14,53.32c40.69,10,73.91,18.51,121.64,21.07,82.4,4.41,90.46,14.1,145.81-.29,41.6-10.82,114.7,2,185.78,15,40.24,7.37,79.16,15.76,115.59,18.46,62.91,4.67,104.27,12.71,151.52,18.6,51.9,6.48,85.19,6.21,148.44-4.88,46.94-8.23,105.27-34.41,177.36-50.17,45.34-9.91,77.68-18.66,92.9-8.47,47.1,31.56,114.83,39.36,194.7,51.76,9.17,1.43,20.14,1.36,34.51-1,95-15.73,80.8-69.91,216.82-68.6,43.4.35,87.24,7,136.48,14.09,47.43,6.81,89.43,13.85,130.42,18.12,99.7,10.37,116.1,27,195.41,28.6,42.29.87,83.65,12.6,137.88,5.14,108.95-15,194.75,22.66,308.81,18"/><path class="cls-32" d="M1.8,10.13c109.38,37.54,117,33.57,152,41.57,41.41,9.46,75,17.83,122.07,20.81,81.93,5.18,91.17,16.22,146.27,1.8C463.23,63.55,536.61,76,607.85,88.58c40.41,7.14,79.49,15.27,115.62,17.81,63.66,4.48,104.73,12.72,151.33,19,51.11,6.87,84.39,7.35,148.43-3.33,47.17-7.86,105.93-34.43,177.06-50.83,45.29-10.44,77.7-19.66,92.71-9.42,46.35,31.6,117.35,38.47,194.77,51.43,9.12,1.52,20,1.49,34.47-.91,92.27-15.39,82-68.21,217.41-67.56,43.22.13,87.14,6.37,136.51,13.08,47.72,6.49,89.75,13.26,130.42,17.44C2107,85.61,2123.82,102.43,2201.7,105c41.68,1.36,82.83,13.53,137.75,6.25C2446.05,97.08,2538,133.84,2648,129.58"/><path class="cls-33" d="M1.73,9.65C111.89,47.87,119.07,42.58,154.41,50.07,196.53,59,230.56,67.24,276.9,70.63c81.46,6,91.89,18.34,146.73,3.9,40.65-10.7,114.31,1.33,185.7,13.51C649.92,95,689.16,102.82,725,105.21c64.42,4.28,105.21,12.73,151.15,19.36,50.32,7.26,83.58,8.5,148.42-1.77,47.4-7.5,106.58-34.45,176.76-51.48,45.23-11,77.71-20.66,92.53-10.38,45.58,31.64,119.86,37.6,194.82,51.09,9.07,1.63,20,1.63,34.43-.8,89.58-15,83.26-66.51,218-66.53,43-.08,87,5.72,136.54,12.08,48,6.16,90.06,12.66,130.43,16.77,101,10.28,118.37,27.34,194.82,30.77,41.07,1.85,82,14.43,137.62,7.35,104.26-13.27,202.31,22.59,308.35,18.74"/><path class="cls-34" d="M1.67,9.16C112.6,48.07,119.34,41.46,155.05,48.45,197.88,56.83,232.31,65,278,68.75c81,6.74,92.61,20.45,147.19,6,40.17-10.64,114.12,1,185.66,12.76C651.58,94.19,691,101.79,726.47,104c65.18,4.09,105.68,12.74,151,19.74,49.54,7.66,82.79,9.64,148.43-.21,47.62-7.14,107.22-34.48,176.45-52.14,45.17-11.51,77.73-21.66,92.34-11.33,44.83,31.67,122.38,36.77,194.89,50.76,9,1.74,19.88,1.75,34.39-.7,86.89-14.71,84.48-64.81,218.6-65.5,42.87-.29,86.93,5.07,136.56,11.07,48.31,5.84,90.38,12.07,130.44,16.1,101.68,10.24,119.51,27.53,194.54,31.87,40.45,2.33,81.19,15.3,137.49,8.45,101.91-12.39,206.09,22.55,308.12,19.1"/><path class="cls-35" d="M1.6,8.68c111.71,39.58,118,31.65,154.08,38.14C199.23,54.65,234.07,62.68,279,66.88,359.53,74.4,372.35,89.44,426.67,75c39.69-10.58,113.92.66,185.62,12,40.94,6.47,80.51,13.8,115.68,15.87,65.94,3.89,106.16,12.76,150.78,20.12,48.75,8,82,10.77,148.42,1.35C1075,117.52,1135,89.77,1203.32,71.51c45.11-12.07,77.74-22.67,92.16-12.29,44.07,31.71,124.88,36,195,50.42,9,1.85,19.79,1.89,34.35-.59,84.2-14.36,85.7-63.11,219.19-64.47,42.69-.5,86.83,4.42,136.59,10.07,48.6,5.51,90.69,11.47,130.44,15.43,102.35,10.19,120.65,27.72,194.25,33,39.84,2.83,80.36,16.14,137.36,9.56,99.57-11.51,209.87,22.51,307.89,19.47"/><path class="cls-36" d="M1.54,8.2c112.48,40.26,118.32,31,154.78,37,44.26,7.27,79.5,15.2,123.76,19.8,80,8.31,94.05,24.68,148.11,10.18,39.21-10.53,113.73.32,185.58,11.24,41.12,6.24,80.85,13.3,115.7,15.22,66.69,3.68,106.63,12.77,150.6,20.5,48,8.45,81.18,11.91,148.41,2.92,48.09-6.43,108.51-34.59,175.85-53.46,45.05-12.62,77.76-23.66,92-13.25,43.32,31.76,127.38,35.19,195,50.09,8.92,2,19.7,2,34.31-.48,81.51-14,86.94-61.41,219.79-63.44,42.51-.72,86.73,3.77,136.62,9.07,48.9,5.18,91,10.87,130.44,14.75,103,10.15,121.79,27.92,194,34,39.23,3.33,79.54,17,137.23,10.67,97.24-10.6,213.66,22.47,307.66,19.83"/><path class="cls-37" d="M1.47,7.72C114.73,48.65,120.12,38.07,157,43.57c45,6.72,80.62,14.55,124.19,19.55,79.56,9.12,94.77,26.8,148.57,12.27,38.74-10.46,113.54,0,185.54,10.48,41.3,6,81.19,12.81,115.72,14.59,67.45,3.46,107.11,12.77,150.41,20.88,47.18,8.83,80.39,13,148.42,4.47,48.31-6.08,109.14-34.65,175.54-54.11,45-13.19,77.78-24.67,91.79-14.21,42.56,31.79,129.87,34.44,195.07,49.76,8.86,2.08,19.61,2.16,34.27-.38,78.82-13.66,88.16-59.71,220.38-62.41,42.33-.93,86.63,3.12,136.65,8.06,49.19,4.86,91.32,10.28,130.44,14.09,103.68,10.09,122.93,28.12,193.68,35.12,38.61,3.83,78.7,17.73,137.09,11.78,94.9-9.69,217.44,22.44,307.44,20.2"/><path class="cls-38" d="M1.41,7.24c114,41.61,119,29.69,156.18,34.71,45.68,6.15,81.73,13.91,124.61,19.29,79.08,9.93,95.5,28.92,149,14.37,38.26-10.4,113.35-.35,185.5,9.72,41.47,5.8,81.53,12.31,115.75,13.94,68.2,3.24,107.57,12.78,150.22,21.26,46.39,9.22,79.58,14.15,148.41,6,48.54-5.73,109.77-34.72,175.24-54.77,44.92-13.75,77.79-25.67,91.6-15.16,41.81,31.82,132.37,33.71,195.14,49.42,8.8,2.21,19.52,2.3,34.23-.27,76.13-13.3,89.38-58,221-61.38,42.16-1.14,86.53,2.47,136.67,7.06,49.49,4.53,91.64,9.68,130.45,13.42,104.34,10,124.06,28.32,193.39,36.21,38,4.32,77.87,18.46,137,12.87,92.55-8.75,221.22,22.41,307.2,20.57"/><path class="cls-39" d="M1.34,6.76c114.81,42.29,119.3,29,156.89,33.56,46.38,5.59,82.84,13.27,125,19,78.6,10.76,96.22,31,149.48,16.46,37.79-10.33,113.16-.69,185.47,9C659.86,90.36,700.08,96.6,734,98.08c69,3,108,12.79,150,21.64,45.61,9.61,78.79,15.27,148.41,7.59,48.77-5.38,110.4-34.8,174.94-55.42,44.84-14.33,77.81-26.68,91.42-16.12,41,31.86,134.84,33,195.19,49.09,8.76,2.33,19.44,2.43,34.19-.17,73.45-12.94,90.61-56.31,221.58-60.35,42-1.35,86.41,1.81,136.69,6,49.78,4.2,92,9.09,130.45,12.75,105,10,125.2,28.54,193.11,37.3,37.38,4.82,77,19.16,136.83,14,90.21-7.81,225,22.37,307,20.94"/><path class="cls-40" d="M1.28,6.28c115.58,43,119.62,28.37,157.58,32.42,47.09,5,83.95,12.63,125.46,18.79C362.44,69.07,381.26,90.64,434.26,76c37.32-10.27,113-1,185.43,8.21,41.83,5.34,82.21,11.31,115.79,12.64,69.72,2.78,108.53,12.8,149.85,22,44.82,10,78,16.38,148.41,9.15,49-5,111-34.88,174.63-56.08,44.77-14.91,77.83-27.68,91.23-17.07,40.3,31.89,137.32,32.35,195.26,48.75,8.7,2.46,19.35,2.57,34.15-.06C1599.77,91,1620.85,49,1751.18,44.29c41.79-1.57,86.31,1.15,136.72,5,50.07,3.87,92.27,8.49,130.45,12.08,105.67,9.92,126.34,28.75,192.82,38.38,36.77,5.33,76.2,19.81,136.7,15.09,87.87-6.86,228.79,22.33,306.75,21.3"/><path class="cls-41" d="M1.21,5.8C117.56,49.44,121.15,33.51,159.5,37.07c47.79,4.44,85.06,12,125.88,18.54C363,68,383,90.88,435.78,76.26c36.84-10.21,112.78-1.38,185.38,7.45,42,5.11,82.55,10.8,115.82,12,70.48,2.52,109,12.8,149.67,22.4,44,10.38,77.19,17.49,148.4,10.7,49.23-4.69,111.63-35,174.33-56.73,44.69-15.51,77.85-28.68,91-18C1340,86,1440.2,85.76,1495.75,102.47c8.63,2.6,19.26,2.71,34.11,0,68.07-12.21,93.06-52.91,222.76-58.28,41.62-1.78,86.21.49,136.74,4s92.59,7.89,130.46,11.4c106.33,9.87,127.47,29,192.53,39.47,36.16,5.84,75.37,20.42,136.57,16.2,85.53-5.9,232.57,22.29,306.52,21.67"/><path class="cls-42" d="M1.15,5.31c117.12,44.33,120.26,27.05,159,30.14,48.49,3.86,86.17,11.37,126.3,18.28C363.58,67,384.82,91.12,437.3,76.47c36.36-10.15,112.59-1.72,185.34,6.7,42.19,4.88,82.89,10.29,115.84,11.35C809.71,96.8,848,107.33,888,117.3c43.26,10.77,76.4,18.59,148.4,12.26,49.47-4.35,112.25-35.08,174-57.39,44.6-16.1,77.87-29.68,90.86-19,38.8,31.94,142.22,31.1,195.38,48.08,8.58,2.74,19.18,2.85,34.07.15,65.39-11.84,94.29-51.21,223.36-57.25,41.44-2,86.11-.17,136.77,3s92.9,7.3,130.46,10.74c107,9.8,128.6,29.2,192.25,40.56,35.53,6.34,74.53,21,136.43,17.29,83.18-4.92,236.36,22.26,306.29,22"/><path class="cls-43" d="M1.08,4.83c117.9,45,120.58,26.38,159.69,29,49.2,3.28,87.28,10.76,126.73,18C364.15,66,386.6,91.36,438.82,76.69c35.89-10.09,112.39-2.07,185.3,5.94,42.37,4.65,83.23,9.78,115.86,10.7,72,2,110,12.82,149.3,23.16,42.47,11.16,75.6,19.7,148.4,13.82,49.69-4,112.84-35.19,173.72-58,44.51-16.72,77.89-30.69,90.68-19.94,38,32,144.64,30.51,195.44,47.75,8.51,2.89,19.09,3,34,.25,62.7-11.46,95.52-49.51,224-56.22,41.26-2.2,86-.83,136.8,2,51,2.86,93.22,6.69,130.46,10.06,107.66,9.74,129.74,29.43,192,41.65,34.92,6.85,73.71,21.45,136.31,18.4,80.83-3.94,240.13,22.23,306.06,22.41"/><path class="cls-44" d="M1,4.35C119.69,50,121.91,30.06,161.41,32.2c49.9,2.69,88.38,10.13,127.15,17.77,76.15,15,99.82,41.64,151.78,26.93,35.41-10,112.2-2.4,185.26,5.19,42.54,4.42,83.57,9.27,115.89,10,72.74,1.76,110.42,12.83,149.1,23.54,41.69,11.55,74.81,20.8,148.4,15.38,49.93-3.67,113.44-35.3,173.42-58.7,44.42-17.33,77.91-31.69,90.49-20.9,37.3,32,147.06,30,195.51,47.42,8.44,3,19,3.13,34,.37,60-11.09,96.74-47.82,224.54-55.2,41.09-2.42,85.9-1.49,136.82,1,51.26,2.53,93.54,6.1,130.47,9.4,108.33,9.67,130.86,29.66,191.68,42.73,34.3,7.37,72.87,21.88,136.17,19.51,78.47-2.94,243.92,22.19,305.83,22.77"/><path class="cls-45" d="M1,3.87c119.45,46.35,121.2,25,161.1,26.7,50.59,2.11,89.48,9.52,127.57,17.53C365.27,64,390.19,92,441.86,77.12c34.95-9.89,112-2.75,185.22,4.43C669.8,85.74,711,90.31,743,91c73.49,1.48,110.9,12.83,148.92,23.92,40.9,11.93,74,21.89,148.4,16.94,50.16-3.34,114-35.42,173.11-59.35,44.31-17.95,77.93-32.7,90.31-21.86,36.55,32,149.45,29.42,195.56,47.09,8.37,3.2,18.92,3.27,34,.47,57.34-10.71,98-46.12,225.14-54.17,40.91-2.63,85.8-2.15,136.85,0,51.55,2.19,93.85,5.5,130.47,8.72,109,9.61,132,29.91,191.39,43.82,33.68,7.89,72.08,18.15,136,20.62,76.09,2.93,247.7,22.15,305.6,23.14"/><path class="cls-46" d="M.89,3.39C121.11,50.42,122.4,27.76,162.68,29c51.29,1.52,90.58,8.91,128,17.27C365.82,63,392,92.19,443.38,77.34c34.48-9.83,111.83-3.23,185.18,3.67,42.9,3.88,84.24,8.24,115.93,8.76,74.25,1.2,111.38,12.83,148.74,24.3,40.12,12.31,73.21,23,148.39,18.49,50.39-3,114.61-35.55,172.81-60,44.21-18.58,78-33.7,90.12-22.81,35.81,32.06,151.82,28.91,195.63,46.75,8.29,3.38,18.83,3.42,33.91.58,54.65-10.32,99.2-44.42,225.73-53.14,40.73-2.84,85.7-2.81,136.88-1,51.84,1.84,94.16,4.89,130.47,8,109.66,9.54,133.11,30.15,191.1,44.91,33.06,8.41,71.31,18.82,135.91,21.71,73.69,3.31,251.49,22.12,305.38,23.51"/><path class="cls-47" d="M.82,2.91c121,47.71,121.82,23.69,162.5,24.41,52,.93,91.68,8.31,128.42,17C366.37,62,393.75,92.42,444.9,77.55,478.9,67.78,556.53,74,630,80.47c43.08,3.66,84.58,7.73,116,8.11,75,.91,111.88,12.76,148.55,24.68,39.36,12.62,72.42,24.07,148.39,20,50.63-2.67,115.19-35.69,172.51-60.66,44.09-19.22,78-34.72,89.94-23.77C1340.44,81,1459.53,77.29,1501.07,95.3c8.21,3.55,18.74,3.57,33.86.68,52-9.94,100.43-42.72,226.33-52.11,40.56-3,85.59-3.47,136.91-2,52.13,1.51,94.48,4.23,130.47,7.39,110.34,9.25,134.23,30.4,190.82,46,32.43,8.94,70.52,19.47,135.78,22.82,71.29,3.67,255.26,22.08,305.14,23.88"/><path class="cls-48" d="M.76,2.43C122.53,50.81,122.89,26,164,25.7c52.68-.44,92.77,7.71,128.85,16.76,74.11,18.61,102.73,50.19,153.62,35.31,33.52-9.72,111.43-3.89,185.1,2.15,43.25,3.45,84.91,7.22,116,7.47,75.76.61,112.36,12.78,148.37,25.06,38.57,13,71.63,25.15,148.39,21.61,50.86-2.34,115.75-35.83,172.2-61.32,44-19.86,78-35.72,89.75-24.72C1340.53,80.12,1462.67,76,1502,94.1c8.12,3.75,18.67,3.72,33.83.79,49.29-9.54,101.65-41,226.92-51.07,40.38-3.27,85.49-4.15,136.93-3,52.43,1.16,94.81,3.64,130.48,6.71,111,9.22,135.35,30.66,190.53,47.08,31.81,9.47,69.75,20.09,135.65,23.93,68.9,4,259.05,22,304.92,24.24"/><path class="cls-49" d="M.69,1.94C123.24,51,123.13,24.74,164.59,24.07c53.36-.85,93.86,7.11,129.26,16.52C367.44,60.13,397.31,92.89,447.94,78c33-9.66,111.24-4.22,185.06,1.39,43.43,3.23,85.25,7.07,116,6.82,76.51-.61,112.84,12.8,148.19,25.44C935,125.05,968,137.87,1045.56,134.81c51.1-2,116.31-36,171.9-62,43.84-20.52,78-36.73,89.57-25.68,33.58,32.12,158.74,27.47,195.81,45.74,8,4,18.58,3.88,33.79.9,46.61-9.15,102.87-39.32,227.51-50,40.2-3.48,85.38-4.9,137-4,52.72.74,95.12,3,130.48,6C2143.25,55,2168,76.71,2221.83,94c31.17,10,69,20.68,135.51,25s262.83,22,304.69,24.61"/><path class="cls-50" d="M.63,1.46C124,51.2,123.37,23.12,165.23,22.45c54-.87,94.94,6.52,129.68,16.26C368,59.19,399.09,93.12,449.46,78.2c32.56-9.6,111-4.54,185,.64,43.6,3,85.58,6.43,116,6.18,77.25-.65,113.3,12.8,148,25.81,37,13.81,70,27.31,148.38,24.74,51.34-1.69,116.86-36.13,171.6-62.64,43.71-21.17,78-37.75,89.38-26.63,32.9,32.09,161,27,195.88,45.41,7.9,4.16,18.49,4,33.74,1,43.94-8.75,104.11-37.62,228.11-49,40-3.69,85.28-5.54,137-5,53,.42,95.43,2.46,130.48,5.37,112.33,9.14,137.56,31.19,190,49.26,30.54,10.53,68.22,21.22,135.38,26.14,64.15,4.69,266.62,22,304.46,25"/><path class="cls-51" d="M.56,1c124.1,50.42,123,20.91,165.3,19.84,54.73-1.57,96,5.93,130.11,16,72.51,21.44,104.9,56.53,155,41.59,32.09-9.55,110.85-4.87,185-.12,43.78,2.78,85.91,5.66,116,5.53,78-.34,113.78,12.82,147.81,26.2,36.22,14.2,69.25,28.27,148.38,26.29,51.57-1.43,117.4-36.28,171.28-63.29,43.58-21.85,78.08-38.75,89.21-27.59,32.14,32.14,163.16,26.57,195.93,45.07,7.78,4.4,18.42,4.21,33.71,1.11,41.26-8.35,105.33-35.92,228.7-48a1360.58,1360.58,0,0,1,137-6c53.31.1,95.75,1.87,130.49,4.7,113,9.1,138.63,31.55,189.67,50.34,29.89,11.13,67.47,21.73,135.26,27.24,61.77,5,270.39,21.94,304.23,25.35"/><path class="cls-52" d="M.5.5c124.86,51.1,123.34,20.3,166,18.7,174.7-6.56,213,81.34,286,59.43,50.31-15.1,220.81,4.7,301,4,162.4-1.4,140.85,57.54,296,54.43,94.23-1.89,235.72-117.39,260-92.49,31.38,32.18,165.31,26.13,196,44.74,33.09,20.06,123.34-51.66,400-52.76,334.8-1.32,235.43,64.06,455,83.81,59.41,5.35,274.18,21.9,304,25.71"/></g></g></svg>