<svg xmlns="http://www.w3.org/2000/svg" viewBox="0 0 2662 334.73"><defs><style>.cls-1,.cls-10,.cls-11,.cls-12,.cls-13,.cls-14,.cls-15,.cls-16,.cls-17,.cls-18,.cls-19,.cls-2,.cls-20,.cls-21,.cls-22,.cls-23,.cls-24,.cls-25,.cls-26,.cls-27,.cls-28,.cls-29,.cls-3,.cls-30,.cls-31,.cls-32,.cls-33,.cls-34,.cls-35,.cls-36,.cls-37,.cls-38,.cls-39,.cls-4,.cls-40,.cls-41,.cls-42,.cls-43,.cls-44,.cls-45,.cls-46,.cls-47,.cls-48,.cls-49,.cls-5,.cls-50,.cls-51,.cls-52,.cls-6,.cls-7,.cls-8,.cls-9{fill:none;stroke:#aac8db;stroke-linecap:round;}.cls-1,.cls-10,.cls-11,.cls-12,.cls-13,.cls-14,.cls-15,.cls-16,.cls-17,.cls-18,.cls-19,.cls-20,.cls-21,.cls-22,.cls-23,.cls-24,.cls-25,.cls-26,.cls-27,.cls-28,.cls-29,.cls-30,.cls-31,.cls-32,.cls-33,.cls-34,.cls-35,.cls-36,.cls-37,.cls-38,.cls-39,.cls-40,.cls-41,.cls-42,.cls-43,.cls-44,.cls-45,.cls-46,.cls-47,.cls-48,.cls-49,.cls-5,.cls-50,.cls-51,.cls-52,.cls-6,.cls-8,.cls-9{stroke-miterlimit:10;}.cls-2,.cls-3,.cls-4{stroke-miterlimit:10;}.cls-2{opacity:0.98;}.cls-3{opacity:0.96;}.cls-4{opacity:0.94;}.cls-5{opacity:0.92;}.cls-6{opacity:0.9;}.cls-7{stroke-miterlimit:10;opacity:0.88;}.cls-8{opacity:0.86;}.cls-9{opacity:0.84;}.cls-10{opacity:0.83;}.cls-11{opacity:0.81;}.cls-12{opacity:0.79;}.cls-13{opacity:0.77;}.cls-14{opacity:0.75;}.cls-15{opacity:0.73;}.cls-16{opacity:0.71;}.cls-17{opacity:0.69;}.cls-18{opacity:0.67;}.cls-19{opacity:0.65;}.cls-20{opacity:0.63;}.cls-21{opacity:0.61;}.cls-22{opacity:0.59;}.cls-23{opacity:0.57;}.cls-24{opacity:0.55;}.cls-25{opacity:0.53;}.cls-26{opacity:0.51;}.cls-27{opacity:0.5;}.cls-28{opacity:0.48;}.cls-29{opacity:0.46;}.cls-30{opacity:0.44;}.cls-31{opacity:0.42;}.cls-32{opacity:0.4;}.cls-33{opacity:0.38;}.cls-34{opacity:0.36;}.cls-35{opacity:0.34;}.cls-36{opacity:0.32;}.cls-37{opacity:0.3;}.cls-38{opacity:0.28;}.cls-39{opacity:0.26;}.cls-40{opacity:0.24;}.cls-41{opacity:0.22;}.cls-42{opacity:0.2;}.cls-43{opacity:0.18;}.cls-44{opacity:0.17;}.cls-45{opacity:0.15;}.cls-46{opacity:0.13;}.cls-47{opacity:0.11;}.cls-48{opacity:0.09;}.cls-49{opacity:0.07;}.cls-50{opacity:0.05;}.cls-51{opacity:0.03;}.cls-52{opacity:0.01;}</style></defs><g id="Layer_2" data-name="Layer 2"><g id="Layer_2-2" data-name="Layer 2"><path class="cls-1" d="M30.5,243.5c163.72,31.72,66.77,65.8,209.5,41.72,97-16.36,68.89-49.1,132-63.11,56-12.41,120.62,11.54,187,37.74,66,26,143.21-97.08,258.5-12.35,180.22,132.44,167.84,63.34,348.5-24.72,193-94.06,80.22,111,327,77.8,176-23.71,44-120.87,199-99.5,90.46,12.47,157,67.45,266,82.47,79.89,11,110.78,70.43,232.5,43.95,374.5-81.47,168.11-307,448-327"/><path class="cls-2" d="M29.91,239.7c163,32.1,67.82,67,208.59,43.34,96.34-16.09,69.62-48.27,132.25-61.47,45.34-9.56,95.7,4.54,148.25,23.22,12.69,4.54,25.58,9.36,38.59,14.23,66,25,143.52-96.38,258.32-14.13,11.77,8.44,22.78,16,33,22.81,146.84,98,146.11,37.2,314.73-43.57,166.89-80.49,106.66,59.51,248.93,76.62,21,2.52,46.66,2.38,78.14-1.69C1575,288,1589,260,1597.6,236.63c9.08-25.1,13-45.6,92.74-35.06,89.81,11.94,156.69,65.5,266,80.18a186,186,0,0,1,29,6.33c61.23,18.18,98.85,59.43,203.49,37,137.22-29,196-76.3,231.14-127.24C2479.16,112.13,2465,18.7,2639,6.38"/><path class="cls-3" d="M29.32,235.89C191.52,268.37,98.2,304,237,280.85,332.68,265,307.35,233.44,369.49,221c45.65-9.12,95.73,5.39,148.12,23.53,12.62,4.38,25.52,9,38.58,13.65,66,23.66,143.84-95.71,258.13-15.92,11.8,8.25,22.89,15.54,33.14,22.24,147.15,96,145.72,40.62,313.85-39C1327,147,1270.62,280.94,1410.46,298.71c20.84,2.65,46.54,2.79,78-1.17,83.58-10.53,98.55-38,107.23-60.77,9.31-24.37,13.66-44.73,93-34.7,89.15,11.41,156.38,63.54,266,77.87a194.49,194.49,0,0,1,29,6.2c62,18,100,58.08,203.49,36.54,136.41-28.39,194.81-73,231.55-123.29,60.54-82.9,49.64-175.13,220.67-187.12"/><path class="cls-4" d="M28.74,232.09C190.17,265,98.66,301.41,235.5,278.66c95-15.54,71.09-46.55,132.74-58.19,46-8.68,95.73,6.3,148,23.85,12.54,4.22,25.45,8.6,38.56,13.06,66,22.47,144.18-95,257.94-17.71,11.84,8.05,23,15.11,33.27,21.66,147.46,94,145.21,43.82,313-34.5,164.29-76.7,112,51.42,249.37,69.85,20.67,2.77,46.4,3.16,77.85-.67,82.89-10.07,98.76-37.05,107.6-59.09,9.49-23.66,14.32-43.87,93.24-34.36,88.49,10.88,156.07,61.6,266,75.57a201,201,0,0,1,29,6.06c62.69,17.72,101.25,56.88,203.49,36.08,135.64-27.58,193.59-69.63,231.95-119.34,61.79-80.09,54.23-171.11,222.37-182.78"/><path class="cls-5" d="M28.15,228.28c160.67,33.24,71,70.51,205.85,48.2,94.37-15.27,71.84-45.68,133-56.56,46.28-8.23,95.73,7.21,147.84,24.17,12.47,4.06,25.38,8.22,38.54,12.47,66,21.28,144.55-94.38,257.76-19.49,11.87,7.85,23.11,14.66,33.39,21.08,147.77,92,144.7,47,312.11-30,162.92-74.93,114.61,47.4,249.59,66.47,20.5,2.89,46.27,3.52,77.7-.16,82.19-9.62,99-36.06,108-57.43,9.68-22.94,15-43,93.48-34,87.83,10.34,155.76,59.64,266,73.27a206.41,206.41,0,0,1,29,5.92c63.44,17.43,102.47,55.67,203.49,35.61,134.87-26.77,192.33-66.23,232.36-115.39C2479.16,125.18,2475,35.39,2640.3,24"/><path class="cls-6" d="M27.56,224.48c159.91,33.62,72,71.38,204.94,49.81,93.68-15.2,72.59-44.79,133.23-54.92,46.61-7.78,95.73,8.12,147.71,24.48,12.39,3.91,25.31,7.86,38.53,11.89,66,20.09,144.92-93.73,257.57-21.28,11.9,7.65,23.21,14.22,33.52,20.5,148.08,90,144.18,50.21,311.22-25.43,161.56-73.16,117.27,43.4,249.82,63.08,20.34,3,46.13,3.9,77.55.36,81.49-9.17,99.16-35.07,108.34-55.76,9.86-22.22,15.64-42.14,93.72-33.66,87.18,9.82,155.45,57.69,266,71a213.3,213.3,0,0,1,29,5.79c64.19,17.14,103.69,54.46,203.49,35.15,134.11-26,191-62.8,232.77-111.45,63.95-74.52,63.39-163.06,225.77-174.09"/><path class="cls-7" d="M27,220.68c159.15,34,73,72.5,204,51.42,93-15,73.35-43.88,133.48-53.28,46.93-7.33,95.73,9,147.57,24.8,12.32,3.75,25.24,7.49,38.51,11.3,66,18.91,145.33-93.09,257.38-23.07,11.95,7.46,23.33,13.79,33.65,19.93,148.39,88,143.66,53.39,310.35-20.91,160.19-71.39,119.93,39.42,250,59.71,20.18,3.15,46,4.26,77.4.87,80.79-8.73,99.36-34.08,108.71-54.1,10-21.5,16.32-41.45,94-33.3,86.55,9.08,155.17,55.51,266,68.67a215.09,215.09,0,0,1,29,5.65c64.94,16.85,104.9,53.26,203.48,34.68,133.35-25.14,189.64-59.32,233.18-107.5,64.86-71.77,68-159,227.48-169.75"/><path class="cls-8" d="M26.38,216.87c158.39,34.38,74.06,73.63,203.12,53.05,92.35-14.74,74.12-43,133.73-51.64,47.26-6.88,95.72,9.94,147.43,25.11,12.24,3.59,25.16,7.12,38.5,10.7,65.92,17.75,145.74-92.44,257.19-24.85,12,7.27,23.43,13.35,33.77,19.36,148.7,86,143.13,56.57,309.48-16.38,158.8-69.63,122.59,35.45,250.26,56.33,20,3.27,45.85,4.62,77.26,1.37,80.08-8.28,99.55-33.08,109.06-52.43,10.23-20.77,17-40.61,94.21-33,85.9,8.53,154.86,53.53,266,66.37a220.76,220.76,0,0,1,29,5.52c65.69,16.55,106.13,52.06,203.48,34.21,132.6-24.32,188.21-55.82,233.59-103.55,65.65-69.06,72.56-155,229.18-165.4"/><path class="cls-9" d="M25.79,213.07C183.42,247.83,100.9,287.82,228,267.73c91.69-14.5,74.89-42,134-50,47.61-6.42,95.72,10.86,147.3,25.43,12.16,3.43,25.09,6.74,38.48,10.11,65.9,16.58,146.18-91.82,257-26.64,12,7.07,23.53,12.92,33.89,18.78,149,84.07,142.6,59.75,308.61-11.84,157.41-67.88,125.25,31.49,250.47,52.94,19.87,3.41,45.72,5,77.12,1.89,79.38-7.85,99.74-32.09,109.43-50.76,10.4-20,17.66-39.77,94.46-32.6,85.23,8,154.55,51.54,266,64.06a228.68,228.68,0,0,1,29,5.39c66.45,16.24,107.35,50.87,203.48,33.74,131.85-23.5,186.73-52.29,234-99.6,66.34-66.39,77.14-151,230.88-161.06"/><path class="cls-10" d="M25.21,209.26c156.86,35.14,76.14,75.89,201.29,56.28,91-14.26,75.67-41.1,134.22-48.36,47.95-6,95.71,11.78,147.16,25.74,12.08,3.28,25,6.38,38.46,9.53C612.21,267.86,693,161.24,803.17,224c12.06,6.88,23.64,12.48,34,18.21,149.33,82.07,142.06,62.92,307.73-7.31,156-66.14,127.93,27.56,250.7,49.56,19.71,3.53,45.59,5.36,77,2.4,78.68-7.42,99.94-31.09,109.8-49.1,10.58-19.32,18.32-38.93,94.7-32.25,84.58,7.41,154.24,49.57,266.06,61.77a234.32,234.32,0,0,1,29,5.25c67.2,15.94,108.57,49.68,203.48,33.27,131.09-22.67,185.19-48.75,234.4-95.65,66.92-63.77,81.72-147,232.58-156.71"/><path class="cls-11" d="M24.62,205.46c156.1,35.52,77.19,77,200.38,57.89,90.36-14,76.45-40.14,134.47-46.72,48.29-5.47,95.7,12.7,147,26.06,12,3.13,24.93,6,38.45,8.94,65.82,14.25,147.12-90.62,256.63-30.22,12.11,6.68,23.75,12.05,34.14,17.63,149.64,80.09,141.52,66.1,306.86-2.77,154.63-64.41,130.59,23.64,250.92,46.18,19.55,3.66,45.45,5.72,76.82,2.91,78-7,100.14-30.09,110.17-47.44,10.76-18.59,19-38.09,94.94-31.89,83.93,6.84,153.94,47.58,266.07,59.46a241.62,241.62,0,0,1,29,5.12c68,15.63,109.8,48.49,203.48,32.8,130.34-21.83,183.6-45.19,234.81-91.7,67.39-61.2,86.31-143,234.28-152.37"/><path class="cls-12" d="M24,201.66c155.34,35.9,78.23,78.14,199.47,59.51,89.7-13.79,77.24-39.18,134.71-45.09,48.65-5,95.7,13.62,146.89,26.38,11.93,3,24.86,5.64,38.43,8.35,65.78,13.1,147.62-90,256.45-32,12.16,6.48,23.86,11.6,34.26,17.05,150,78.1,141,69.26,306,1.76,153.23-62.68,133.26,19.73,251.14,42.79,19.39,3.8,45.31,6.09,76.67,3.42,77.28-6.56,100.33-29.08,110.54-45.76,10.93-17.87,19.64-37.25,95.18-31.55,83.27,6.29,153.63,45.61,266.08,57.16a251.15,251.15,0,0,1,28.94,5c68.73,15.31,111,47.31,203.48,32.33,129.59-21,182-41.63,235.22-87.75,67.77-58.68,90.89-138.93,236-148"/><path class="cls-13" d="M23.44,197.85C178,234.13,102.72,277.13,222,259c89-13.55,78-38.2,135-43.45,49-4.51,95.68,14.54,146.75,26.69,11.85,2.82,24.78,5.29,38.41,7.77,65.74,11.95,148.15-89.46,256.27-33.79,12.2,6.28,24,11.17,34.39,16.48C983,308.79,973.19,305.09,1137.88,239c151.83-61,135.94,15.85,251.37,39.41,19.24,3.93,45.17,6.45,76.52,3.93,76.57-6.14,100.52-28.08,110.9-44.1,11.11-17.13,20.31-36.4,95.43-31.19,82.62,5.73,153.32,43.63,266.09,54.86a256.9,256.9,0,0,1,28.93,4.85c69.5,15,112.27,46.14,203.48,31.86,128.85-20.16,180.26-38.06,235.63-83.8,68.06-56.21,95.47-134.91,237.68-143.68"/><path class="cls-14" d="M22.85,194.05c153.82,36.66,80.32,80.41,197.65,62.74,88.37-13.3,78.82-37.21,135.21-41.8,49.36-4,95.67,15.46,146.61,27,11.77,2.67,24.7,4.92,38.4,7.17C606.4,260,689.4,160.26,796.8,213.59c12.25,6.08,24.06,10.73,34.51,15.9,150.57,74.13,139.86,75.57,304.23,10.83,150.41-59.25,138.61,12,251.59,36,19.08,4.06,45,6.8,76.37,4.44,75.87-5.72,100.71-27.08,111.27-42.43,11.28-16.4,21-35.57,95.67-30.85,82,5.18,153,41.66,266.1,52.56a266.28,266.28,0,0,1,28.93,4.72c70.26,14.68,113.5,45,203.47,31.39,128.11-19.32,178.52-34.5,236-79.85C2473.24,162.53,2505,85.44,2644.36,77"/><path class="cls-15" d="M22.26,190.25c153.06,37,81.37,81.55,196.74,64.36,87.71-13.07,79.62-36.21,135.45-40.17,49.73-3.53,95.66,16.38,146.48,27.32,11.69,2.51,24.62,4.55,38.38,6.58C604.94,258,688.55,160,795.2,211c12.31,5.89,24.18,10.3,34.64,15.33C980.72,298.45,969.13,305,1133.2,241.66c149-57.54,141.29,8.16,251.8,32.65,18.94,4.2,44.9,7.17,76.23,5,75.16-5.31,100.9-26.07,111.64-40.77,11.45-15.66,21.63-34.72,95.92-30.49,81.3,4.63,152.7,39.68,266.1,50.26a272.71,272.71,0,0,1,28.92,4.58c71,14.35,114.74,43.8,203.47,30.93,127.37-18.48,169.71-42.26,236.46-75.91,58.17-62.76,104.63-126.87,241.07-135"/><path class="cls-16" d="M21.68,186.44c152.29,37.42,82.41,82.69,195.82,66,87.05-12.83,80.42-35.19,135.7-38.53,50.09-3,95.64,17.31,146.34,27.63,11.61,2.37,24.54,4.2,38.36,6,65.58,8.55,149.83-87.85,255.71-39.15,12.36,5.69,24.28,9.86,34.76,14.75C979.56,293.28,967.1,305,1130.85,243c147.57-55.84,144,4.33,252,29.27,18.79,4.33,44.76,7.52,76.08,5.46,74.45-4.89,101.08-25.05,112-39.1,11.61-14.92,22.29-33.87,96.16-30.14,80.64,4.08,152.39,37.71,266.11,48a282.14,282.14,0,0,1,28.91,4.45c71.8,14,116,42.63,203.48,30.46,126.62-17.63,167.75-39.59,236.86-72,58.2-60.92,109.21-122.85,242.77-130.65"/><path class="cls-17" d="M21.09,182.64c151.53,37.8,83.46,83.83,194.91,67.59,86.39-12.58,81.25-39.95,135.94-36.89,50.45,2.82,95.63,18.24,146.21,27.95,11.53,2.21,24.46,3.83,38.35,5.41C602,254.12,686.92,159.35,792,205.76c12.42,5.49,24.39,9.43,34.88,14.18,151.51,68.16,138.15,85,301.61,24.42,146.14-54.15,146.65.53,252.25,25.89,18.64,4.47,44.62,7.88,75.93,6,73.75-4.48,101.26-24,112.38-37.43,11.77-14.19,23-33,96.4-29.79,80,3.52,152.08,35.74,266.12,45.65,10.06.88,19.6,2.57,28.91,4.32,72.56,13.69,117.21,41.48,203.47,30,125.89-16.77,165.79-36.93,237.27-68,58.24-59.08,113.79-118.83,244.48-126.31"/><path class="cls-18" d="M20.5,178.83c150.77,38.18,84.51,85,194,69.22,85.73-12.35,82.13-39.06,136.19-35.26,50.75,3.57,95.6,19.18,146.07,28.27,11.45,2.06,24.38,3.47,38.33,4.82,65.45,6.3,151-86.87,255.33-42.72,12.48,5.28,24.5,9,35,13.6,151.82,66.17,137.58,88.12,300.74,29,144.71-52.47,149.33-3.25,252.47,22.5,18.49,4.62,44.48,8.24,75.78,6.49,73-4.08,101.44-23,112.75-35.77,11.93-13.44,23.61-32.18,96.64-29.44,79.33,3,151.78,33.77,266.13,43.36,10,.84,19.58,2.48,28.9,4.18,73.33,13.35,118.45,40.32,203.47,29.52,125.16-15.91,163.84-34.26,237.68-64.06,58.27-57.24,118.37-114.81,246.18-122"/><path class="cls-19" d="M19.91,175c150,38.56,85.55,86.13,193.09,70.83,85.07-12.1,83-38.13,136.44-33.62,51.05,4.32,95.58,20.12,145.93,28.58,11.37,1.92,24.3,3.12,38.31,4.23,65.39,5.2,151.68-86.4,255.15-44.5,12.54,5.07,24.61,8.54,35.13,13,152.13,64.19,137,91.24,299.86,33.49,143.28-50.8,152-7,252.7,19.12,18.34,4.76,44.33,8.59,75.63,7,72.33-3.69,101.61-22,113.11-34.11,12.09-12.7,24.27-31.32,96.89-29.08,78.68,2.43,151.47,31.8,266.14,41,10,.81,19.56,2.41,28.89,4.05,74.1,13,119.69,39.18,203.47,29,124.43-15,161.89-31.59,238.09-60.11,58.3-55.4,123-110.78,247.88-117.62"/><path class="cls-20" d="M19.32,171.23c149.25,38.93,86.6,87.27,192.18,72.44,84.41-11.85,83.9-37.16,136.68-32,51.35,5,95.56,21,145.8,28.89,11.29,1.77,24.21,2.76,38.3,3.64,65.32,4.1,152.32-86,255-46.29,12.6,4.87,24.71,8.11,35.26,12.45,152.43,62.2,136.39,94.35,299,38,141.83-49.14,154.69-10.74,252.92,15.74,18.19,4.9,44.19,8.94,75.48,7.51,71.62-3.29,101.78-21,113.48-32.44,12.24-12,24.93-30.48,97.14-28.74,78,1.89,151.15,29.84,266.14,38.75,10,.78,19.53,2.34,28.89,3.92,74.87,12.67,120.93,38,203.46,28.58,123.71-14.17,159.93-28.93,238.5-56.16C2455.83,172,2525,118.81,2647.07,112.3"/><path class="cls-21" d="M18.74,167.42c148.48,39.32,87.64,88.43,191.26,74.07,83.75-11.61,84.79-36.17,136.93-30.34,51.65,5.77,95.54,22,145.66,29.21,11.21,1.61,24.13,2.4,38.28,3,65.26,3,153-85.55,254.78-48.08C798.31,200,810.46,203,821,207.2c152.75,60.22,135.8,97.46,298.11,42.56,140.38-47.49,157.37-14.45,253.13,12.35,18.06,5.05,44.06,9.3,75.35,8,70.9-2.89,101.93-20,113.84-30.77,12.38-11.21,25.59-29.62,97.38-28.38,77.35,1.34,150.84,27.87,266.14,36.45,10,.74,19.52,2.25,28.89,3.78,75.64,12.32,122.18,36.9,203.46,28.11,123-13.29,158-26.26,238.91-52.2,58.37-51.72,132.12-102.75,251.28-108.94"/><path class="cls-22" d="M18.15,163.62c147.72,39.7,88.69,89.58,190.35,75.68,83.09-11.36,85.68-35.13,137.18-28.7,51.94,6.48,95.51,22.93,145.52,29.53,11.12,1.46,24.05,2,38.26,2.46,65.19,1.9,153.69-85.16,254.59-49.87C796.79,197.18,809,200,819.56,204c153.06,58.23,135.2,100.55,297.23,47.09,138.93-45.85,160-18.14,253.36,9,17.91,5.2,43.92,9.65,75.2,8.53,70.19-2.51,102.09-19,114.21-29.1,12.51-10.48,26.25-28.78,97.62-28,76.7.8,150.53,25.92,266.15,34.15,10,.71,19.5,2.18,28.88,3.65,76.42,12,123.43,35.76,203.47,27.64,122.25-12.4,156-23.6,239.31-48.25,58.41-49.88,136.71-98.73,253-104.6"/><path class="cls-23" d="M17.56,159.81c147,40.08,89.75,90.74,189.44,77.3,82.43-11.11,86.58-34.06,137.42-27.06,52.24,7.19,95.49,23.88,145.39,29.84,11,1.32,24,1,38.25,1.88,65,4.15,154.38-84.79,254.4-51.66,12.81,4.24,25,6.8,35.63,10.73,153.37,56.23,134.6,103.64,296.36,51.61,137.47-44.21,162.72-21.79,253.58,5.6,17.77,5.35,43.78,10,75,9,69.48-2.13,102.24-17.95,114.58-27.44,12.64-9.73,26.91-28.87,97.86-27.68,76,1.28,150.22,23.95,266.16,31.85,9.94.67,19.48,2.1,28.87,3.51,77.2,11.61,124.68,34.64,203.47,27.17,121.53-11.51,154.06-20.93,239.72-44.3,58.44-48,141.29-94.71,254.68-100.25"/><path class="cls-24" d="M17,156c146.2,40.46,90.8,91.9,188.53,78.92,81.77-10.86,87.47-33,137.67-25.43,52.54,7.89,95.46,24.83,145.25,30.16,11,1.17,23.9.6,38.23,1.29,65,3.09,155.1-84.45,254.22-53.45,12.87,4,25.14,6.37,35.75,10.15,153.69,54.25,134,106.72,295.49,56.15,136-42.58,165.4-25.43,253.8,2.21,17.62,5.51,43.63,10.35,74.9,9.56,68.77-1.75,102.39-16.93,114.94-25.78,12.78-9,27.58-28,98.11-27.32,75.38.75,149.91,22,266.17,29.54,9.92.64,19.46,2,28.87,3.38,78,11.25,125.92,33.52,203.46,26.71,120.81-10.62,152.11-18.27,240.13-40.36a448,448,0,0,1,256.38-95.91"/><path class="cls-25" d="M16.38,152.21C161.82,193,108.23,245.27,204,232.74c81.11-10.61,88.35-31.83,137.92-23.79,52.83,8.58,95.43,25.78,145.11,30.48,10.88,1,23.8.25,38.21.69,65,2,155.84-84.12,254-55.22,12.94,3.81,25.24,5.92,35.87,9.57,154,52.26,133.38,109.78,294.61,60.68,134.54-41,168.07-29.05,254-1.17,17.48,5.67,43.49,10.69,74.75,10.06,68.06-1.36,102.53-15.91,115.31-24.1s28.23-26.21,98.36-27c74.71-.82,149.59,20,266.17,27.24,9.9.62,19.44,2,28.86,3.25,78.74,10.89,127.17,32.41,203.46,26.24,120.1-9.72,150.15-15.61,240.54-36.41,58.51-44.36,150.45-86.67,258.08-91.56"/><path class="cls-26" d="M15.79,148.4c144.68,41.22,92.9,94.23,186.71,82.15,80.45-10.35,89.24-30.66,138.16-22.14,53.14,9.25,95.41,26.73,145,30.78,10.79.89,23.72.65,38.2.11,64.91-2.4,156.58-83.83,253.84-57,13,3.59,25.35,5.49,36,9C968,241.56,946.44,304.13,1107.42,256.5c133.07-39.37,170.74-32.64,254.24-4.56a201.59,201.59,0,0,0,74.61,10.58c67.26-3.48,102.66-14.91,115.68-22.44s28.89-25.34,98.6-26.62c74.06-1.37,149.28,18.08,266.18,24.94,9.88.58,19.42,1.86,28.85,3.11C2025.1,252,2074,272.81,2149,267.28c119.39-8.8,148.2-12.94,240.95-32.46,58.54-42.52,155-82.65,259.78-87.22"/><path class="cls-27" d="M15.21,144.6C159.12,186.2,109.15,240,201,228.37c79.79-10.1,90.12-29.48,138.41-20.51,53.43,9.91,95.38,27.69,144.84,31.1,10.71.74,23.63.3,38.18-.48,64.85-3.46,157.33-83.57,253.66-58.8,13.1,3.37,25.46,5,36.13,8.42C966.83,236.39,944.35,304,1105.08,257.85c131.59-37.78,173.4-36.2,254.46-7.94A198.66,198.66,0,0,0,1434,261c66.56-3.11,102.8-13.9,116-20.78s29.54-24.48,98.84-26.27c73.4-1.9,149,16.13,266.19,22.64,9.86.55,19.4,1.78,28.85,3,80.29,10.15,129.68,30.2,203.45,25.3,118.68-7.88,146.25-10.27,241.36-28.51,58.58-40.68,159.62-78.62,261.49-82.88"/><path class="cls-28" d="M14.62,140.79c143.15,42,95,96.57,184.88,85.39,79.14-9.84,90.19-22.12,138.66-18.87C392.8,211,433.51,236,482.86,238.73c10.63.59,23.55,0,38.17-1.07,64.77-4.52,158.09-83.33,253.47-60.59,13.17,3.14,25.56,4.62,36.25,7.85,154.93,46.3,131.5,118.92,292,74.28,130.1-36.19,176.06-39.74,254.68-11.32a196.19,196.19,0,0,0,74.31,11.6c65.86-2.75,102.92-12.9,116.42-19.11,13.21-6.08,30.2-23.62,99.08-25.92,72.74-2.43,148.66,14.17,266.2,20.34,9.84.51,19.38,1.7,28.84,2.84,81.07,9.77,130.93,29.1,203.46,24.83,118-6.95,144.28-7.61,241.76-24.56,58.61-38.83,164.2-74.6,263.19-78.53"/><path class="cls-29" d="M14,137c142.39,42.36,96.05,97.74,184,87,78.48-9.58,91-21,138.9-17.23,55,4.29,95.33,29.62,144.57,31.73,10.55.46,23.47-.39,38.15-1.65,64.71-5.57,158.87-83.12,253.29-62.38,13.24,2.91,25.67,4.18,36.37,7.27,155.24,44.32,130.87,122,291.11,78.82,128.63-34.62,178.72-43.25,254.91-14.71A193,193,0,0,0,1429.46,258c65.17-2.36,103-11.9,116.78-17.44,13.32-5.36,30.87-22.76,99.33-25.57,72.08-3,148.35,12.23,266.21,18,9.81.48,19.36,1.62,28.83,2.71,81.85,9.39,132.19,28,203.46,24.36,117.25-6,142.33-4.94,242.17-20.61,58.64-37,168.78-70.58,264.89-74.19"/><path class="cls-30" d="M13.44,133.19c141.63,42.73,97.11,98.91,183.06,88.62,77.82-9.32,91.82-19.8,139.15-15.6,55.4,4.92,95.29,30.59,144.43,32,10.46.31,23.39-.74,38.13-2.24,64.64-6.62,159.65-82.94,253.1-64.17,13.33,2.68,25.78,3.74,36.5,6.7,155.55,42.32,130.23,125,290.24,83.34,127.14-33,181.37-46.72,255.13-18.08a190.39,190.39,0,0,0,74,12.62c64.47-2,103.16-10.92,117.15-15.77,13.42-4.66,31.52-21.9,99.57-25.22,71.42-3.5,148,10.27,266.22,15.73,9.79.46,19.34,1.54,28.83,2.58,82.62,9,133.44,26.93,203.45,23.89C2259,252.58,2282.79,255.36,2385,241c58.68-35.15,173.37-66.56,266.59-69.85"/><path class="cls-31" d="M12.85,129.38C153.72,172.5,111,229.48,195,219.62c77.16-9.06,92.63-18.62,139.4-14,55.78,5.57,95.34,29.45,144.29,32.37,10.36.62,23.3-1.08,38.12-2.84,64.57-7.65,160.43-82.77,252.91-65.95,13.41,2.44,25.89,3.31,36.62,6.12,155.86,40.34,129.59,128,289.37,87.88,125.64-31.51,184-50.18,255.35-21.46a188.06,188.06,0,0,0,73.86,13.13c63.77-1.6,103.28-9.94,117.52-14.11,13.51-4,32.18-21,99.82-24.87,70.76-4,147.72,8.33,266.22,13.44,9.77.42,19.32,1.45,28.82,2.44,83.4,8.62,134.7,25.86,203.45,23.42,115.84-4.1,138.42.39,243-12.71,58.71-33.31,178-62.54,268.29-65.5"/><path class="cls-32" d="M12.26,125.58c140.11,43.5,99.22,101.28,181.24,91.85C270,208.64,287,200,333.14,205.12c56.16,6.22,95.29,30.44,144.16,32.67,10.29.48,23.22-1.41,38.1-3.42,64.51-8.68,161.22-82.64,252.73-67.73,13.48,2.19,26,2.86,36.74,5.54,156.18,38.35,129,130.93,288.49,92.41,124.16-30,186.66-53.61,255.57-24.85a185.27,185.27,0,0,0,73.72,13.65c63.07-1.22,103.39-9,117.89-12.45,13.6-3.26,32.84-20.15,100.06-24.51,70.1-4.55,147.41,6.38,266.23,11.13,9.75.39,19.3,1.38,28.81,2.31,84.18,8.23,136,20.68,203.45,22.95,115.11,3.88,136.47,3.06,243.4-8.76,58.75-31.47,182.53-58.52,270-61.16"/><path class="cls-33" d="M11.68,121.77C151,165.65,111.94,224.24,192,215.25c75.85-8.52,94.26-16.24,139.89-10.68,56.53,6.89,95.23,31.44,144,33,10.21.33,23.14-1.76,38.08-4C578.45,223.84,676,151,766.53,164c13.57,1.95,26.1,2.43,36.87,5C959.89,205.36,931.7,302.89,1091,265.94c122.66-28.44,189.28-57,255.79-28.23,16.34,7.07,42.37,13.4,73.57,14.15,62.36,1.51,103.5-8,118.26-10.77,13.69-2.58,33.49-19.29,100.3-24.17,69.44-5.07,147.1,4.45,266.23,8.83,9.74.36,19.29,1.3,28.81,2.18,85,7.83,137.27,19.68,203.46,22.49,114.34,4.85,134.51,5.71,243.8-4.82,58.78-29.63,187.12-54.5,271.69-56.81"/><path class="cls-34" d="M11.09,118c138.58,44.26,101.32,103.66,179.41,95.09,75.2-8.25,95.06-15,140.14-9,56.9,7.57,95.17,34.5,143.88,33.31,10.13-.25,23.06-2.1,38.07-4.6C577,222,675.4,150.26,764.94,161.42c13.65,1.7,26.21,2,37,4.39,156.8,34.38,127.65,136.84,286.75,101.48,121.15-26.93,191.9-60.39,256-31.61,16.2,7.27,42.22,13.73,73.43,14.66,61.64,1.85,103.61-7.05,118.61-9.11,13.79-1.9,34.16-18.42,100.55-23.81,68.78-5.6,146.79,2.5,266.24,6.53,9.71.33,19.26,1.21,28.81,2,85.73,7.43,138.55,18.69,203.45,22,113.57,5.81,132.55,8.38,244.21-.87,58.81-27.79,191.7-50.47,273.39-52.47"/><path class="cls-35" d="M10.5,114.17C148.32,158.8,112.87,219,189,210.87c74.54-8,95.87-13.82,140.38-7.4,57.27,8.27,95.15,35.49,143.75,33.63,10.05-.39,23-2.44,38.05-5.19,64.34-11.76,163.6-82.43,252.17-73.1,13.73,1.45,26.31,1.56,37.12,3.82,157.1,32.39,127,139.77,285.86,106,119.66-25.43,194.51-63.74,256.24-35,16,7.48,42.08,14.06,73.28,15.18,60.93,2.18,103.73-6.1,119-7.45,13.89-1.22,34.82-17.54,100.79-23.46,68.13-6.11,146.48.57,266.25,4.23,9.69.3,19.24,1.13,28.8,1.91,86.51,7,139.85,17.73,203.45,21.55,112.81,6.77,133.67,30.53,244.62,3.08,62.43-15.44,196.28-46.45,275.09-48.13"/><path class="cls-36" d="M9.91,110.36c137.06,45,103.43,106.05,177.59,98.33,73.89-7.7,96.67-12.61,140.63-5.77,57.63,9,95.12,36.48,143.61,33.94,10-.52,22.9-2.77,38-5.77,64.29-12.77,164.4-82.41,252-74.89,13.81,1.19,26.42,1.12,37.24,3.24C956.42,189.85,925.33,302.13,1084,270c118.15-23.94,197.11-67.06,256.46-38.38,15.89,7.68,41.94,14.38,73.13,15.69,60.22,2.51,104-3.41,119.35-5.78,13.83-2.14,35.48-16.67,101-23.11,67.46-6.64,146.16-1.37,266.25,1.93,9.67.26,19.22,1,28.79,1.77,87.29,6.62,141.14,16.79,203.45,21.08,112.05,7.71,131.34,32.81,245,7,62.05-14.07,200.86-42.43,276.79-43.78"/><path class="cls-37" d="M9.32,106.56C145.62,152,113.81,213.81,186,206.5c73.23-7.41,97.47-11.38,140.88-4.13,58,9.7,95.09,37.48,143.47,34.26,9.89-.66,22.82-3.11,38-6.37,64.23-13.77,165.24-70,251.79-76.67,13.88-1.07,26.53.69,37.37,2.67,157.73,28.41,125.67,145.59,284.12,115.08,116.64-22.47,199.69-70.36,256.68-41.76,15.73,7.89,41.8,14.7,73,16.19,59.51,2.85,104-2.54,119.72-4.11,14-1.4,36.13-15.79,101.28-22.76,66.8-7.15,145.85-3.3,266.26-.37,9.65.23,19.2,1,28.79,1.64,88.06,6.21,142.42,15.88,203.44,20.61,111.29,8.63,129,35,245.44,11,61.69-12.72,205.45-38.41,278.5-39.44"/><path class="cls-38" d="M8.74,102.75C144.27,148.53,114.28,211.21,184.5,204.31c72.58-7.12,98.27-10.15,141.12-2.48C384,212.26,420.69,240.3,469,236.4c9.8-.8,22.74-3.44,38-7,64.18-14.78,166.23-70.6,251.61-78.46,13.93-1.28,26.63.25,37.49,2.1,158,26.42,125,148.46,283.24,119.6,115.14-21,202.27-73.61,256.9-45.14,15.58,8.12,41.66,15,72.84,16.71,58.8,3.18,104.1-3.3,120.09-2.44,14.19.75,36.79-14.91,101.52-22.41,66.15-7.67,145.54-5.24,266.27-2.68,9.63.21,19.18.88,28.78,1.51,88.83,5.8,143.71,15,203.44,20.14,110.53,9.54,126.71,37.08,245.85,14.93,61.34-11.39,210-34.39,280.2-35.09"/><path class="cls-39" d="M8.15,99C142.92,145.11,114.74,208.61,183,202.13c71.93-6.84,99.06-8.91,141.37-.85,58.7,11.18,95,39.48,143.2,34.88,9.72-.92,22.67-3.77,38-7.54,64.14-15.79,167.18-71.27,251.43-80.24,14-1.49,26.74-.19,37.61,1.51C953,174.33,918.93,301.22,1077,274c113.63-19.54,204.82-76.86,257.12-48.52,15.42,8.35,41.52,15.34,72.69,17.22,58.09,3.49,104.23-2.38,120.46-.78,14.3,1.41,37.45-14,101.76-22.06,65.49-8.18,145.23-7.17,266.28-5,9.61.17,19.16.79,28.77,1.37,89.61,5.38,144.77,17.53,203.45,19.67,110.19,4,124.4,39.06,246.25,18.88,61-10.1,214.61-30.37,281.9-30.75"/><path class="cls-40" d="M7.56,95.15C141.57,141.68,115.21,206,181.5,199.94c71.27-6.54,99.85-7.66,141.61.79,59.05,12,95,40.49,143.07,35.2,9.64-1.06,22.59-4.1,38-8.13,64.09-16.79,168.09-72,251.24-82a142.4,142.4,0,0,1,37.73.94c158.67,22.45,123.68,154.16,281.5,128.67C1186.74,257.27,1282,195.3,1332,223.48c15.25,8.59,41.38,15.65,72.54,17.73,57.38,3.81,104.37-1.46,120.82.88,14.43,2.06,38.12-13.14,102-21.7,64.84-8.69,144.92-9.1,266.29-7.28,9.58.14,19.14.71,28.76,1.23,90.39,5,146,16.53,203.45,19.21,109.48,5.11,122.12,40.94,246.67,22.84,60.7-8.83,219.18-26.36,283.59-26.42"/><path class="cls-41" d="M7,91.34c133.25,46.92,108.71,112.1,173,106.41,70.62-6.24,100.63-6.41,141.86,2.43,59.38,12.73,95,41.5,142.93,35.52,9.56-1.2,22.51-4.44,37.95-8.72,64.06-17.78,169-72.82,251-83.82a143.14,143.14,0,0,1,37.86.36c159,20.47,123,157,280.62,133.21,110.62-16.68,209.88-83.27,257.57-55.29,15.07,8.85,41.24,16,72.39,18.24,56.67,4.13,104.52-.54,121.19,2.56,14.55,2.7,38.78-12.26,102.26-21.36,64.17-9.2,144.61-11,266.29-9.58,9.56.12,19.12.63,28.76,1.1,91.16,4.54,147.27,15.54,203.44,18.74,108.77,6.22,119.86,42.72,247.08,26.79,60.42-7.57,223.77-22.33,285.29-22.07"/><path class="cls-42" d="M6.38,87.54c132.49,47.3,109.77,113.31,172.12,108,70-5.94,101.41-5.16,142.11,4.06,59.71,13.53,95,42.52,142.79,35.83,9.48-1.32,22.44-4.76,37.93-9.3,64-18.78,169.81-73.69,250.87-85.61a143.57,143.57,0,0,1,38-.21c159.28,18.48,122.34,159.77,279.74,137.74,109.11-15.27,212.38-86.44,257.79-58.67,14.88,9.1,41.1,16.28,72.24,18.75,56,4.44,104.67.37,121.56,4.22,14.67,3.35,39.44-11.37,102.5-21,63.52-9.71,144.3-12.95,266.3-11.88,9.54.08,19.1.53,28.75,1,91.94,4.11,148.53,14.55,203.44,18.28,108.06,7.33,124,73.08,247.49,30.73,57.23-19.63,228.35-18.31,287-17.73"/><path class="cls-43" d="M5.79,83.74C137.52,131.41,116.62,198.28,177,193.38c69.31-5.62,102.19-3.89,142.35,5.7,60,14.34,95,43.55,142.66,36.15,9.4-1.46,22.37-5.09,37.92-9.9,64-19.76,169.7-83,250.68-87.39,14.34-.78,27.17-1.94,38.11-.78,159.6,16.48,121.68,162.53,278.87,142.27,107.61-13.87,214.86-89.59,258-62.05,14.69,9.37,41,16.58,72.09,19.26,55.26,4.74,104.83,1.27,121.93,5.88,14.81,4,40.1-10.47,102.74-20.65,62.87-10.21,144-14.87,266.31-14.18,9.52.06,19.08.45,28.74.83,92.72,3.68,149.78,13.57,203.44,17.81,107.34,8.48,120.5,72.71,247.9,34.68,57.65-17.22,232.93-14.29,288.69-13.38"/><path class="cls-44" d="M5.21,79.93C136.17,128,117.09,195.7,175.5,191.19c68.66-5.3,103-2.61,142.6,7.35,60.35,15.16,94.95,44.57,142.52,36.46,9.32-1.59,22.29-5.42,37.9-10.49,64-20.75,170.41-83.13,250.5-89.18,14.4-1.08,27.27-2.37,38.23-1.36,159.91,14.5,121,165.28,278,146.81,106.1-12.49,217.31-92.72,258.22-65.44,14.49,9.66,40.83,16.9,72,19.78,54.55,5,105,2.18,122.3,7.55,14.94,4.64,40.77-9.59,103-20.3s143.68-17.43,266.32-16.48c9.5.07,19.06.36,28.74.69,93.48,3.24,151,12.59,203.43,17.34,106.61,9.65,117.14,72,248.31,38.63,58-14.78,237.51-10.27,290.39-9"/><path class="cls-45" d="M4.62,76.13C134.82,124.56,117.56,193.13,174,189c68-5,103.73-1.35,142.85,9,60.66,16,94.93,45.6,142.38,36.77,9.24-1.71,22.22-5.75,37.88-11.07,63.94-21.73,171.09-83.32,250.31-91,14.48-1.39,27.38-2.81,38.36-1.93C946,143.3,906.13,298.78,1062.9,282.13c104.61-11.12,219.74-95.83,258.45-68.82,14.27,10,40.69,17.19,71.8,20.28,53.85,5.35,105.16,3.1,122.66,9.22,15.1,5.28,41.44-8.69,103.23-19.95,61.56-11.21,143.37-19.28,266.33-18.78,9.47,0,19,.28,28.73.56,94.26,2.8,152.27,11.63,203.44,16.87,105.87,10.84,113.92,71,248.71,42.58,58.37-12.31,242.1-6.25,292.09-4.7"/><path class="cls-46" d="M4,72.32c129.44,48.82,114,118.25,168.47,114.5,67.36-4.64,104.48-.06,143.09,10.62,61,16.87,94.93,46.64,142.25,37.09,9.16-1.85,22.15-6.07,37.87-11.66,63.91-22.72,171.75-83.53,250.12-92.75,14.54-1.71,27.49-3.25,38.48-2.52C944.84,138.13,904,298.29,1060.56,283.47c103.11-9.75,222.13-98.92,258.67-72.19,14,10.26,40.55,17.49,71.65,20.79,53.15,5.64,105.33,4,123,10.89,15.24,5.92,42.1-7.8,103.47-19.6,60.91-11.72,143.06-20.63,266.33-21.09,9.46,0,19,.19,28.73.43,95,2.35,153.51,10.67,203.44,16.4C2221,231.16,2226.76,288.78,2365,265.63c58.67-9.83,246.68-2.23,293.79-.35"/><path class="cls-47" d="M3.44,68.52C132.12,117.72,118.5,188,171,184.63c66.71-4.29,105.24,1.22,143.34,12.26,61.25,17.74,94.92,47.68,142.11,37.41,9.08-2,22.08-6.4,37.85-12.25,63.9-23.7,172.4-83.76,249.94-94.54,14.59-2,27.59-3.69,38.6-3.09,160.85,8.54,119,173.34,275.38,160.4,101.61-8.41,224.5-102,258.89-75.58,13.79,10.6,40.42,17.79,71.5,21.31,52.45,5.93,105.51,4.91,123.4,12.55,15.39,6.57,42.77-6.9,103.72-19.25,60.25-12.21,142.74-22.33,266.33-23.38,9.44-.05,19,.1,28.73.29,95.8,1.9,154.74,9.73,203.43,15.93,104.39,13.3,108,68.07,249.53,50.48,58.92-7.33,251.26,1.79,295.5,4"/><path class="cls-48" d="M2.85,64.72C130.77,114.29,119,185.46,169.5,182.45c66.06-3.94,106,2.51,143.59,13.89,61.52,18.63,94.91,48.72,142,37.73,9-2.11,22-6.73,37.84-12.84,63.88-24.68,173-84,249.74-96.33,14.65-2.36,27.71-4.12,38.73-3.66,161.16,6.55,118.39,176,274.5,164.93,100.13-7.08,226.83-105.07,259.12-79,13.52,10.94,40.28,18.08,71.36,21.82,51.74,6.22,105.68,5.82,123.76,14.21,15.55,7.22,43.44-6,104-18.89,59.6-12.71,142.44-24.29,266.34-25.69,9.42-.08,19,0,28.72.16,96.58,1.45,156,8.79,203.43,15.46,103.64,14.57,105.4,66.19,249.94,54.43,59.12-4.81,255.85,5.81,297.2,8.34"/><path class="cls-49" d="M2.26,60.91c127.16,50,117.18,122,165.74,119.35,65.41-3.57,106.73,3.8,143.83,15.53,61.8,19.54,94.92,49.77,141.84,38,8.93-2.23,21.94-7.05,37.82-13.43,63.87-25.64,173.61-84.23,249.56-98.11,14.7-2.68,27.81-4.56,38.86-4.24,161.46,4.57,117.74,178.57,273.62,169.47,98.64-5.76,229.12-108.15,259.34-82.34,13.22,11.29,40.15,18.36,71.21,22.32,51,6.51,105.87,6.74,124.13,15.89,15.71,7.87,44.1-5.09,104.2-18.55,59-13.2,142.13-26.24,266.35-28,9.4-.11,19-.07,28.71,0,97.35,1,157.2,7.86,203.43,15,102.87,15.88,103,64.06,250.35,58.38,59.27-2.28,260.43,9.84,298.9,12.68"/><path class="cls-50" d="M1.68,57.11c126.39,50.33,118.22,123.26,164.82,121,64.76-3.19,107.46,5.1,144.08,17.18,62.05,20.46,94.92,50.82,141.7,38.35,8.85-2.36,21.87-7.38,37.8-14C554,193,664.26,135.08,739.46,119.68c14.74-3,27.91-5,39-4.81,161.77,2.57,117.1,181.14,272.75,174,97.16-4.46,231.37-111.22,259.55-85.73,12.91,11.68,40,18.65,71.07,22.84,50.34,6.79,106.06,7.65,124.49,17.55,15.88,8.52,44.8-4.09,104.45-18.19,58.33-13.61,141.82-28.19,266.36-30.29q14.07-.23,28.7-.11c98.12.35,158.43,6.94,203.43,14.52C2211.33,226.67,2210.29,264,2360,271.79c59.29,3.07,265,13.86,300.6,17"/><path class="cls-51" d="M1.09,53.3C126.71,104,120.37,177.83,165,175.89c64.1-2.8,108.19,6.39,144.33,18.81,62.29,21.4,94.95,52,141.56,38.67,8.78-2.47,21.81-7.68,37.79-14.61,63.9-27.5,174.71-84.77,249.19-101.69,14.78-3.36,28-5.43,39.1-5.39,162.09.59,116.47,183.68,271.87,178.54,95.69-3.17,233.58-114.3,259.78-89.11,12.56,12.07,39.9,18.87,70.92,23.35,49.66,7,106.25,8.57,124.86,19.21,16,9.18,45.46-3.22,104.69-17.84,57.68-14.13,141.51-30.14,266.37-32.59q14-.26,28.7-.24c98.88,0,159.64,6,203.43,14.06,101.29,18.57,99.17,55.49,251.16,66.27,59.34,4.21,269.59,17.88,302.3,21.37"/><path class="cls-52" d="M.5,49.5c124.86,51.1,120.34,125.8,163,124.2,174.7-6.56,213,81.34,286,59.43,50.31-15.1,245.81-123.94,326-124.63,162.4-1.4,115.85,186.18,271,183.07,94.23-1.89,235.72-117.39,260-92.49,31.38,32.18,165.31,26.13,196,44.74,33.09,20.06,123.34-51.66,400-52.76,334.8-1.32,235.43,64.06,455,83.81,59.42,5.35,274.18,21.9,304,25.71"/></g></g></svg>