<svg xmlns="http://www.w3.org/2000/svg" viewBox="0 0 2620.2 567.19"><defs><style>.cls-1,.cls-10,.cls-11,.cls-12,.cls-13,.cls-14,.cls-15,.cls-16,.cls-17,.cls-18,.cls-19,.cls-2,.cls-20,.cls-21,.cls-22,.cls-23,.cls-24,.cls-25,.cls-26,.cls-27,.cls-28,.cls-29,.cls-3,.cls-30,.cls-31,.cls-32,.cls-33,.cls-34,.cls-35,.cls-36,.cls-37,.cls-38,.cls-39,.cls-4,.cls-40,.cls-41,.cls-42,.cls-43,.cls-44,.cls-45,.cls-46,.cls-47,.cls-48,.cls-49,.cls-5,.cls-50,.cls-51,.cls-52,.cls-6,.cls-7,.cls-8,.cls-9{fill:none;stroke:#aac8db;stroke-linecap:round;}.cls-1,.cls-10,.cls-11,.cls-12,.cls-13,.cls-14,.cls-15,.cls-16,.cls-17,.cls-18,.cls-19,.cls-20,.cls-21,.cls-22,.cls-23,.cls-24,.cls-25,.cls-26,.cls-27,.cls-28,.cls-29,.cls-30,.cls-31,.cls-32,.cls-33,.cls-34,.cls-35,.cls-36,.cls-37,.cls-38,.cls-39,.cls-40,.cls-41,.cls-42,.cls-43,.cls-44,.cls-45,.cls-46,.cls-47,.cls-48,.cls-49,.cls-5,.cls-50,.cls-51,.cls-52,.cls-6,.cls-8,.cls-9{stroke-miterlimit:10;}.cls-2,.cls-3,.cls-4{stroke-miterlimit:10;}.cls-2{opacity:0.98;}.cls-3{opacity:0.96;}.cls-4{opacity:0.94;}.cls-5{opacity:0.92;}.cls-6{opacity:0.9;}.cls-7{stroke-miterlimit:10;opacity:0.88;}.cls-8{opacity:0.86;}.cls-9{opacity:0.84;}.cls-10{opacity:0.83;}.cls-11{opacity:0.81;}.cls-12{opacity:0.79;}.cls-13{opacity:0.77;}.cls-14{opacity:0.75;}.cls-15{opacity:0.73;}.cls-16{opacity:0.71;}.cls-17{opacity:0.69;}.cls-18{opacity:0.67;}.cls-19{opacity:0.65;}.cls-20{opacity:0.63;}.cls-21{opacity:0.61;}.cls-22{opacity:0.59;}.cls-23{opacity:0.57;}.cls-24{opacity:0.55;}.cls-25{opacity:0.53;}.cls-26{opacity:0.51;}.cls-27{opacity:0.5;}.cls-28{opacity:0.48;}.cls-29{opacity:0.46;}.cls-30{opacity:0.44;}.cls-31{opacity:0.42;}.cls-32{opacity:0.4;}.cls-33{opacity:0.38;}.cls-34{opacity:0.36;}.cls-35{opacity:0.34;}.cls-36{opacity:0.32;}.cls-37{opacity:0.3;}.cls-38{opacity:0.28;}.cls-39{opacity:0.26;}.cls-40{opacity:0.24;}.cls-41{opacity:0.22;}.cls-42{opacity:0.2;}.cls-43{opacity:0.18;}.cls-44{opacity:0.17;}.cls-45{opacity:0.15;}.cls-46{opacity:0.13;}.cls-47{opacity:0.11;}.cls-48{opacity:0.09;}.cls-49{opacity:0.07;}.cls-50{opacity:0.05;}.cls-51{opacity:0.03;}.cls-52{opacity:0.01;}</style></defs><g id="Layer_2" data-name="Layer 2"><g id="Layer_1-2" data-name="Layer 1"><path class="cls-1" d="M.5,184.71c163.72,95,96.47,388.58,239.2,316.48,97-49,68.89-147.06,132-189,56-37.19,120.62,34.55,187,113,66,78,129.31,166.39,272,135,150-33,132.39-294.28,335-246,214,51,159.44,353.71,318,140,138-186,15-320,170-256,90.46,37.35,195,253,304,298,79.88,33,67.36-61.37,204-12,155,56,178.11,44.93,458-15"/><path class="cls-2" d="M.5,182.06c55,33.48,82,82.05,102.41,134.61,42.06,108.43,43,228,138.39,178.79,26.39-13.6,43.41-30.77,56.79-48.6,36.38-48.48,34.12-104.16,82.21-135,56-35.93,119.69,33.17,186,108.8,54.77,62.44,108.18,130.88,204.73,136.59,19.71,1.16,41.33-.36,65.23-5.43,84.64-17.87,117-109.64,164.76-174.93,36.13-49.76,82.57-87,169.39-67.26,211.54,48.12,160.06,344.15,317.36,136.85q6.86-9,12.89-17.79c116.56-170.84,9.6-291.11,157.36-229.33,91,38.06,195.2,249.47,303.89,293.39C2041.25,525,2030,432.4,2165,481c9.63,3.46,18.76,6.67,27.48,9.63,129.87,44.14,169.37,27.35,427.21-27.51"/><path class="cls-3" d="M.51,179.4C56.89,215.28,82.12,260,103.32,311.3c44,106.22,44.82,228.25,139.59,178.44,26.91-14.14,44-31.93,58.57-49.55,39.21-47.32,37.49-97.74,87.43-128.67,56-34.7,118.76,31.81,185.06,104.61,54.71,60.07,108.55,125,203.41,131.9a235.06,235.06,0,0,0,64.52-4.59c84-17,117.92-107.84,165-171.09,35.84-48.15,82.13-85.94,168.34-67.28,209.06,45.24,160.12,334.16,316.71,133.71,4.54-5.81,8.86-11.5,12.84-17.18,116-165.37,12-282.75,157.66-221.08,91.61,38.78,195.49,245.72,303.79,288.79,78.77,31.32,68.66-59.34,202.12-11.47,9.58,3.42,18.66,6.59,27.34,9.53,128.47,43.58,170.75,23.24,424-30.3"/><path class="cls-4" d="M.51,176.74C58.29,215,81.73,256,103.74,305.93,149.6,410,150.34,534.43,244.52,484,272,469.32,289,450.93,304.87,433.52c42-46.16,40.84-91.31,92.65-122.33,56-33.53,117.84,30.45,184.09,100.41,54.66,57.71,108.92,119,202.08,127.21a226.72,226.72,0,0,0,63.81-3.74C930.9,519,966.19,428.94,1012.69,367.82c35.46-46.61,81.67-84.87,167.27-67.31,206.57,42.38,160.47,324.38,316.08,130.56,4.5-5.61,8.82-11.08,12.78-16.56,115.35-159.88,14.35-274.36,158-212.82,92.19,39.5,195.73,242.08,303.69,284.18,78.2,30.5,69.3-58.33,201.18-11.2,9.52,3.37,18.56,6.51,27.21,9.43,127,43,172.12,19.13,420.84-33.09"/><path class="cls-5" d="M.52,174.08C59.7,214.74,81.36,252,104.16,300.56c47.79,101.9,48.38,228.73,142,177.73,28-15.24,45-34.24,62.14-51.45,44.71-45,44.16-84.88,97.86-116,55.92-32.4,116.93,29.1,183.12,96.21C643.87,462.44,698.55,520.22,790,529.59a220.5,220.5,0,0,0,63.1-2.9c82.74-15.37,119.46-104.4,165.4-163.4,35.08-45.06,81.21-83.81,166.22-67.34,204.06,39.53,160.82,314.59,315.43,127.42,4.48-5.42,8.8-10.67,12.73-15.95,114.73-154.38,16.71-266,158.26-204.57,92.77,40.23,196,238.45,303.59,279.58,77.64,29.68,69.94-57.31,200.23-10.94,9.47,3.33,18.47,6.45,27.08,9.34,125.65,42.46,173.5,15,417.66-35.88"/><path class="cls-6" d="M.52,171.43c60.58,43,80.48,76.48,104.05,123.76,49.76,99.8,50.16,228.93,143.17,177.37,28.49-15.79,45.55-35.39,63.92-52.39,47.39-43.86,47.46-78.46,103.08-109.65,55.81-31.3,116,27.78,182.15,92,54.59,53,109.69,107.26,199.43,117.82a212.62,212.62,0,0,0,62.39-2c82.1-14.52,120.22-102.68,165.6-159.57,34.71-43.5,80.75-82.73,165.16-67.36,201.55,36.69,161.18,304.78,314.8,124.27,4.44-5.22,8.77-10.24,12.67-15.33C1631.05,251.46,1536,142.81,1675.5,204c93.35,41,196.2,234.82,303.48,275,77.08,28.86,70.5-56,199.3-10.67,9.4,3.31,18.36,6.37,26.95,9.24,124.23,41.9,174.87,10.9,414.47-38.66"/><path class="cls-7" d="M.52,168.77c62,45.44,80.14,75.12,104.47,121,51.76,97.73,51.92,229.11,144.35,177,29-16.36,46-36.55,65.71-53.34,50-42.74,50.75-72.05,108.29-103.31C479,279.94,538.51,336.65,604.53,398c54.58,50.72,110.09,101.38,198.1,113.13a204.73,204.73,0,0,0,61.68-1.2c81.48-13.67,121-100.95,165.81-155.72,34.34-42,80.28-81.66,164.11-67.39,199,33.87,161.54,295,314.15,121.12,4.41-5,8.75-9.82,12.62-14.71,113.49-143.34,21.41-249.07,158.86-188,93.93,41.69,196.43,231.18,303.38,270.37,76.5,28,71.13-55,198.36-10.42,9.34,3.28,18.26,6.3,26.81,9.15,122.83,41.33,176.25,6.78,411.29-41.45"/><path class="cls-8" d="M.53,166.11C63.9,213.94,80.34,239.88,105.4,284.45c53.8,95.7,53.68,229.27,145.55,176.66,29.54-16.92,46.53-37.71,67.49-54.29,52.64-41.63,54-65.63,113.51-97,55.51-29.23,114.3,25.15,180.22,83.62C666.75,441.9,722.68,489,808.94,501.92a197.46,197.46,0,0,0,61-.35c80.85-12.82,121.76-99.22,166-151.89,34-40.39,79.79-80.57,163-67.41,196.47,31.06,161.91,285.15,313.52,118,4.38-4.83,8.71-9.4,12.56-14.1,112.86-137.79,23.76-240.61,159.16-179.8,94.51,42.44,196.66,227.56,303.28,265.77,75.93,27.21,71.76-53.92,197.41-10.15,9.29,3.23,18.17,6.22,26.68,9,121.42,40.77,177.63,2.67,408.11-44.24"/><path class="cls-9" d="M.53,163.45c64.77,50.23,79.52,72.42,105.29,115.63,55.88,93.69,55.42,229.41,146.74,176.31,30.06-17.49,47-38.89,69.27-55.24,55.22-40.54,57.25-59.23,118.73-90.63C495.87,281.28,554,333.38,619.81,389c54.61,46.13,110.93,89.67,195.44,103.75a190.76,190.76,0,0,0,60.26.5c80.23-12,122.52-97.49,166.24-148,33.58-38.83,79.3-79.49,162-67.44C1397.64,306,1366,553,1516.61,392.54c4.35-4.64,8.69-9,12.51-13.48,112.21-132.22,26.09-232.12,159.47-171.54,95.08,43.19,196.88,223.93,303.16,261.16,75.37,26.4,72.4-52.87,196.48-9.89,9.23,3.2,18.07,6.16,26.55,9,120,40.2,179-1.46,404.92-47"/><path class="cls-10" d="M.53,160.8c66.17,52.61,79.24,71.06,105.7,112.91,58,91.72,57.17,229.53,147.94,176,30.58-18.05,47.47-40.06,71.06-56.18C383,354,385.7,340.64,449.17,309.19c55.09-27.3,112.64,22.57,178.27,75.23,54.66,43.86,111.38,83.83,194.13,99.06a183.72,183.72,0,0,0,59.54,1.34c79.6-11.11,123.28-95.74,166.45-144.2,33.2-37.27,78.81-78.41,160.93-67.47,191.33,25.49,162.68,265.48,312.23,111.69,4.33-4.45,8.66-8.56,12.46-12.87C1644.74,245.34,1561.6,148.35,1693,208.68,1788.61,252.63,1890.06,429,1996,465.24c74.79,25.58,73-51.81,195.53-9.62,9.18,3.16,18,6.08,26.42,8.87,118.6,39.64,180.38-5.57,401.74-49.83"/><path class="cls-11" d="M.54,158.14c67.56,55,79,69.72,106.11,110.2C166.81,358.12,165.54,498,255.77,443.93c31.11-18.62,47.93-41.25,72.85-57.13,60.3-38.43,63.68-46.45,129.15-77.94,54.85-26.38,111.86,21.28,177.31,71,54.73,41.59,111.82,78,192.8,94.37a177.35,177.35,0,0,0,58.84,2.19c79-10.26,124-94,166.66-140.37,32.81-35.69,78.3-77.31,159.87-67.49,188.73,22.73,163.07,255.63,311.59,108.54,4.29-4.25,8.63-8.13,12.4-12.25,110.89-121,30.75-215.09,160.07-155,96.24,44.7,197.33,216.69,303,252,74.21,24.77,73.66-50.75,194.59-9.36,9.12,3.13,17.88,6,26.29,8.78,117.27,38.83,181.75-9.69,398.55-52.62"/><path class="cls-12" d="M.54,155.48c69,57.4,78.76,68.38,106.53,107.49,62.37,87.86,60.61,229.71,150.31,175.24C289,419,305.76,395.76,332,380.13c62.81-37.41,66.87-40.09,134.37-71.61,54.59-25.48,111.09,20,176.34,66.84C697.54,414.7,755,447.58,834.19,465a171,171,0,0,0,58.13,3c78.35-9.4,124.79-92.24,166.87-136.52C1091.62,297.43,1137,255.33,1218,264c186.13,20,163.49,245.76,311,105.4,4.27-4.06,8.6-7.72,12.35-11.64,110.2-115.4,33.07-206.55,160.37-146.77,96.82,45.46,197.55,213.07,302.86,247.34,73.63,24,74.29-49.7,193.65-9.09,9.06,3.08,17.78,5.91,26.15,8.68,115.87,38.25,183.13-13.8,395.37-55.41"/><path class="cls-13" d="M.55,152.83c70.36,59.78,78.55,67,106.93,104.77C172.11,343.55,169.81,487.38,259,432.48c32.15-19.78,48.82-43.64,76.41-59,65.31-36.4,70.05-33.73,139.59-65.26,54.31-24.62,110.35,18.74,175.37,62.64,54.94,37.1,112.74,66.44,190.14,85a164.87,164.87,0,0,0,57.42,3.88C975.65,451.15,1023.46,369.21,1065,327c32-32.54,77.28-75.12,157.76-67.54,183.5,17.28,163.91,235.89,310.31,102.25,4.23-3.87,8.56-7.29,12.29-11,109.5-109.75,35.38-198,160.67-138.52,97.39,46.24,197.77,209.46,302.75,242.74,73.06,23.16,74.93-48.65,192.71-8.83,9,3.05,17.68,5.84,26,8.59,114.46,37.67,184.5-17.91,392.18-58.2"/><path class="cls-14" d="M.55,150.17c71.76,62.17,78.39,65.7,107.35,102.06,66.94,84.07,64,229.84,152.7,174.53,32.66-20.38,49.25-44.86,78.19-60,67.8-35.42,73.21-27.39,144.81-58.92,54-23.79,109.64,17.46,174.4,58.44,55.09,34.86,113.21,60.69,188.82,80.29a158.74,158.74,0,0,0,56.7,4.74c77.11-7.69,126.29-88.73,167.29-128.85,31.66-31,76.76-74,156.7-67.57,180.87,14.58,164.36,226,309.67,99.1,4.21-3.67,8.54-6.86,12.24-10.4,108.77-104.09,37.68-189.42,161-130.26,98,47,198,205.84,302.65,238.13,72.47,22.36,75.56-47.6,191.77-8.56,9,3,17.58,5.76,25.89,8.49,113.06,37.1,185.88-22,389-61"/><path class="cls-15" d="M.55,147.51c73.16,64.57,78.24,64.35,107.76,99.35,69.32,82.19,65.74,229.88,153.9,174.17,33.17-21,49.69-46.07,80-60.92,70.27-34.45,76.35-21.07,150-52.59,53.7-23,109,16.2,173.43,54.25,55.27,32.63,113.69,55,187.49,75.6,16.57,4.64,34.89,7.46,56,5.58,76.49-6.83,127-87,167.51-125,31.26-29.39,76.22-72.9,155.64-67.6,178.22,11.9,164.81,216.11,309,96,4.19-3.49,8.51-6.44,12.19-9.79,108-98.4,40-180.83,161.27-122C1813.3,262.31,1913,416.75,2017.3,448c71.88,21.57,76.19-46.55,190.83-8.3,8.89,3,17.48,5.7,25.75,8.4,111.66,36.52,187.26-26.14,385.82-63.77"/><path class="cls-16" d="M.56,144.85c74.55,67,78.12,63,108.17,96.64,71.73,80.32,67.42,229.91,155.08,173.82,33.69-21.56,50.13-47.3,81.77-61.88,72.75-33.5,79.48-14.76,155.23-46.24C554.19,285,609.16,322.1,673.28,357.24c55.48,30.41,114.18,49.24,186.16,70.91,16.36,4.93,34.4,8.07,55.28,6.43,75.88-6,127.76-85.19,167.72-121.17,30.87-27.79,75.69-71.78,154.58-67.62C1412.58,255,1402.32,452,1545.41,338.6c4.15-3.29,8.47-6,12.13-9.17,107.23-92.69,42.28-172.23,161.57-113.75,99.12,48.59,198.41,198.63,302.44,228.93,71.31,20.76,76.84-45.52,189.89-8,8.85,2.93,17.39,5.62,25.63,8.3,110.25,35.94,188.63-30.26,382.63-66.56"/><path class="cls-17" d="M.56,142.2c76,69.34,78,61.63,108.59,93.93,74.21,78.44,69.11,229.92,156.27,173.45,34.2-22.15,50.55-48.53,83.55-62.82,75.22-32.56,82.61-8.47,160.45-39.9,53.05-21.42,107.75,13.62,171.5,45.85,55.73,28.18,114.67,43.56,184.83,66.22,16.15,5.21,33.91,8.67,54.58,7.27,75.25-5.1,128.48-83.4,167.92-117.32,30.47-26.2,75.74-77.72,153.53-67.65,171.57,22.21,165.8,196.3,307.74,89.67,4.13-3.1,8.44-5.58,12.08-8.56,106.41-87,44.56-163.61,161.88-105.49,99.68,49.38,198.61,195,302.33,224.32,70.72,20,77.47-44.48,189-7.78,8.79,2.9,17.29,5.55,25.49,8.21,108.85,35.37,190-34.37,379.45-69.35"/><path class="cls-18" d="M.57,139.54c77.34,71.74,78,60.27,109,91.22,76.75,76.56,70.79,229.92,157.47,173.1,34.71-22.76,51-49.78,85.33-63.77,77.69-31.65,85.72-2.21,165.67-33.57,52.7-20.67,107.2,12.32,170.52,41.66,56,26,115.18,37.9,183.52,61.53,15.93,5.51,33.41,9.28,53.86,8.12,74.63-4.24,129.2-81.62,168.13-113.49,30.07-24.6,75.13-76.93,152.47-67.67,169,20.24,166.33,186.38,307.11,86.52,4.1-2.91,8.39-5.15,12-7.94,105.54-81.23,46.85-155,162.18-97.24,100.25,50.19,198.81,191.43,302.23,219.72,70.12,19.18,78.11-43.43,188-7.51,8.73,2.85,17.19,5.47,25.36,8.11,107.44,34.79,191.38-38.49,376.26-72.14"/><path class="cls-19" d="M.57,136.88C79.32,211,78.51,195.77,110,225.39c79.33,74.67,72.46,229.92,158.66,172.74,35.21-23.36,51.4-51,87.12-64.72,80.14-30.73,88.81,4,170.88-27.22,52.34-19.94,106.68,11,169.55,37.46,56.35,23.73,115.69,32.28,182.19,56.84,15.72,5.81,32.92,9.89,53.15,9,74-3.37,129.91-79.83,168.35-109.65,29.65-23,74.49-76.13,151.41-67.7,166.5,18.24,166.89,176.46,306.46,83.38,4.08-2.73,8.36-4.73,12-7.33,104.63-75.48,49.12-146.32,162.48-89,100.82,51,199,187.83,302.13,215.11,69.53,18.39,78.74-42.4,187.06-7.24,8.68,2.81,17.09,5.39,25.23,8,106,34.21,192.76-42.61,373.08-74.94"/><path class="cls-20" d="M.57,134.22c80.15,76.52,77.93,57.5,109.82,85.8,82,72.76,74.13,229.91,159.86,172.39,35.71-24,51.83-52.28,88.9-65.67,82.61-29.84,91.9,10.27,176.1-20.88,52-19.24,106.21,9.63,168.58,33.26C760.54,360.6,820,365.8,884.69,391.27c15.52,6.11,32.43,10.49,52.44,9.81,73.41-2.5,130.6-78,168.56-105.8,29.23-21.4,73.84-75.3,150.35-67.73,164,16.22,167.49,166.53,305.82,80.23,4.06-2.53,8.32-4.29,11.92-6.71,103.66-69.72,51.39-137.66,162.78-80.72,101.39,51.82,199.21,184.24,302,210.5,68.94,17.61,79.39-41.36,186.13-7,8.62,2.78,17,5.32,25.09,7.93,104.63,33.64,194.14-46.72,369.9-77.73"/><path class="cls-21" d="M.58,131.57c81.54,78.91,77.94,56.08,110.23,83.08,84.68,70.82,75.79,229.88,161,172,36.22-24.58,52.26-53.53,90.69-66.61,85.07-29,95,16.47,181.31-14.55,51.61-18.54,105.79,8.26,167.62,29.07,57.1,19.22,116.7,21.11,179.54,47.46,15.3,6.42,31.93,11.1,51.72,10.66,72.79-1.63,131.29-76.21,168.77-102,28.8-19.79,73.18-74.43,149.3-67.75,161.47,14.16,168.11,156.61,305.18,77.08,4-2.34,8.27-3.86,11.86-6.09,102.63-64,53.65-129,163.08-72.47,101.95,52.65,199.41,180.66,301.92,205.9,68.35,16.83,80-40.32,185.19-6.71,8.56,2.73,16.89,5.24,25,7.83,103.22,33.06,195.51-50.84,366.71-80.52"/><path class="cls-22" d="M.58,128.91c82.94,81.3,78,54.65,110.64,80.37C198.67,278.13,188.67,439.13,273.46,381c36.72-25.19,52.68-54.79,92.47-67.56C453.47,285.3,464,336,552.46,305.19c51.23-17.86,105.39,6.84,166.65,24.87,57.53,16.94,117.21,15.57,178.21,42.77a125.45,125.45,0,0,0,51,11.5c72.17.82,131.95-74.39,169-98.12,28.36-18.18,72.49-73.54,148.23-67.78,159,12.08,168.78,146.69,304.54,73.94,4-2.15,8.23-3.43,11.81-5.48,101.54-58.2,55.91-120.29,163.38-64.21C1847.79,276.16,1944.89,399.75,2047.1,424c67.75,16.06,80.67-39.29,184.24-6.45,8.51,2.7,16.8,5.17,24.83,7.74C2358,457.75,2453.06,370.31,2619.7,342"/><path class="cls-23" d="M.58,126.25c84.34,83.7,78.05,53.21,111.06,77.66,90.25,66.84,79.09,229.81,163.43,171.32,37.21-25.81,53.11-56.06,94.25-68.51,90-27.23,101.1,28.81,191.75-1.86,50.85-17.21,105,5.37,165.68,20.67,58,14.63,117.72,10.06,176.88,38.07,14.9,7.06,31,11.89,50.31,12.36,71.54,1.73,132.6-72.57,169.19-94.29,27.91-16.56,71.79-72.6,147.18-67.8,156.49,10,169.49,136.78,303.9,70.79,4-2,8.17-3,11.75-4.86,100.37-52.46,58.16-111.58,163.68-56,103.06,54.33,199.8,173.5,301.71,196.69,67.16,15.28,81.32-38.26,183.31-6.18,8.45,2.65,16.7,5.1,24.7,7.64,100.41,31.93,198.26-59.07,360.34-86.09"/><path class="cls-24" d="M.59,123.59c85.73,86.09,78.13,51.75,111.47,74.95,93.1,64.79,80.73,229.76,164.62,171,37.71-26.43,53.53-57.33,96-69.45,92.46-26.38,104.15,34.93,197,4.47C620.13,288,674.39,308.4,734.39,321c58.49,12.29,118.22,4.59,175.55,33.38,14.7,7.39,30.47,12.94,49.6,13.2,71,1,133.23-70.74,169.4-90.44,27.44-14.95,71.16-62.49,146.12-67.83,153.83-10.95,170.24,126.88,303.26,67.65,4-1.77,8.13-2.57,11.7-4.25,99.12-46.74,60.41-102.87,164-47.7s200,169.93,301.61,192.08c66.56,14.52,82-37.23,182.37-5.92,8.39,2.62,16.59,5,24.56,7.55,99,31.36,199.64-63.18,357.16-88.88"/><path class="cls-25" d="M.59,120.94c87.13,88.47,78.23,50.25,111.88,72.23,96,62.68,82.37,229.71,165.81,170.61,38.2-27.06,54-58.61,97.83-70.41,94.93-25.52,107.19,41,202.17,10.82,50.07-15.93,104.42,2.32,163.75,12.28,59,9.91,118.72-.85,174.23,28.69,14.49,7.72,30,13.55,48.88,14,70.34,1.88,133.84-68.92,169.61-86.6,27-13.33,70.58-61.28,145.07-67.86,151.06-13.34,171,117,302.62,64.5,4-1.58,8.07-2.13,11.64-3.63,97.79-41.06,62.65-94.14,164.28-39.44,104.16,56,200.18,166.36,301.51,187.48,66,13.74,82.6-36.22,181.42-5.66,8.34,2.58,16.5,4.95,24.43,7.45,97.6,30.79,201-67.3,354-91.67"/><path class="cls-26" d="M.6,118.28C89.12,209.15,78.93,167,112.89,187.8c99,60.52,84,229.65,167,170.25,38.69-27.68,54.39-59.89,99.61-71.35,97.4-24.69,110.22,47.11,207.39,17.16,49.67-15.32,104.38,17.16,162.77,8.08,59.32-9.22,119.22-6.26,172.91,24,14.29,8.06,29.48,14.16,48.17,14.9,69.73,2.76,134.43-67.09,169.83-82.77,26.46-11.72,70-60,144-67.88,148.31-15.69,171.88,107.16,302,61.36,3.94-1.39,8-1.71,11.59-3,96.38-35.43,64.88-85.39,164.59-31.19,104.69,56.92,200.36,162.8,301.4,182.88,65.35,13,83.24-35.2,180.48-5.4,8.28,2.54,16.4,4.88,24.3,7.36,96.18,30.23,202.4-71.41,350.79-94.46"/><path class="cls-27" d="M.6,115.62c89.93,93.26,78.46,47.23,112.7,66.81C215.23,240.72,198.94,412,281.5,352.33,320.68,324,336.32,291.15,382.89,280c99.88-23.86,113.25,53.15,212.61,23.49,49.27-14.7,104.84,15.41,161.8,3.89,59.14-12,119.7-11.64,171.58,19.31,14.09,8.4,29,14.77,47.47,15.74,69.11,3.65,135-65.26,170-78.92,25.94-10.12,69.39-58.81,142.95-67.91,145.54-18,172.76,97.34,301.33,58.21,3.93-1.2,8-1.27,11.54-2.4,94.88-29.86,67.11-76.64,164.89-22.93,105.23,57.8,200.55,159.25,301.29,178.27,64.76,12.22,83.89-34.18,179.54-5.13,8.23,2.5,16.31,4.8,24.17,7.26,94.78,29.66,203.78-75.53,347.61-97.25"/><path class="cls-28" d="M.6,113c91.33,95.64,78.6,45.67,113.12,64.09,104.94,56,87.26,229.5,169.39,169.54,39.66-29,55.24-62.46,103.17-73.25,102.35-23,116.27,59.17,217.83,29.84,48.86-14.11,105.27,13.48,160.83-.31,59-14.63,120.17-17,170.25,14.62,13.89,8.76,28.5,15.38,46.76,16.59,68.5,4.53,135.51-63.44,170.24-75.09,25.41-8.51,68.79-57.55,141.89-67.93,142.77-20.28,173.69,87.57,300.7,55.06,3.91-1,7.89-.84,11.48-1.78,93.3-24.38,69.33-67.87,165.19-14.68,105.76,58.7,200.73,155.7,301.19,173.67,64.15,11.47,84.54-33.16,178.6-4.87,8.18,2.46,16.2,4.73,24,7.17,93.36,29.1,205.15-79.64,344.42-100"/><path class="cls-29" d="M.61,110.31c92.72,98,78.74,44.1,113.52,61.38,108,53.63,88.88,229.42,170.59,169.19,40.14-29.6,55.67-63.76,105-74.2,104.82-22.21,119.27,65.15,223,36.18,48.46-13.54,105.68,11.39,159.86-4.51,58.79-17.25,120.63-22.3,168.93,9.93,13.67,9.12,28,16,46,17.43,67.89,5.43,136-61.63,170.45-71.24,24.85-6.94,68.2-56.27,140.84-68,140-22.52,174.65,77.85,300.05,51.92,3.9-.81,7.82-.42,11.43-1.17,91.66-19,71.54-59.1,165.49-6.42C1882.1,290.44,1976.72,383,2076.9,399.9c63.54,10.72,85.18-32.14,177.66-4.6,8.12,2.42,16.1,4.66,23.9,7.08,92,28.53,206.53-83.76,341.24-102.84"/><path class="cls-30" d="M.61,107.65c94.12,100.43,78.89,42.51,113.94,58.67C225.6,217.51,205,395.66,286.32,335.15c40.62-30.24,56.11-65,106.75-75.14,107.3-21.4,122.28,71.1,228.25,42.51,48.06-13,106,9.16,158.9-8.7,58.65-19.81,121.07-27.58,167.6,5.24,13.46,9.49,27.52,16.61,45.33,18.28,67.28,6.32,136.49-59.84,170.67-67.4,24.27-5.37,67.6-55,139.77-68,137.24-24.72,175.66,68.19,299.42,48.77,3.89-.61,7.75,0,11.37-.55,89.95-13.69,73.75-50.31,165.79,1.84,106.81,60.52,201.1,148.62,301,164.45,62.94,10,85.84-31.13,176.72-4.34,8.07,2.38,16,4.59,23.78,7,90.54,28,207.9-87.88,338-105.63"/><path class="cls-31" d="M.62,105c95.51,102.82,79,40.9,114.35,56,114.12,48.67,92.09,229.25,173,168.47,41.09-30.88,56.54-66.34,108.53-76.09,109.78-20.58,125.28,77,233.47,48.86,47.65-12.4,106.31,6.79,157.93-12.9,58.53-22.32,121.49-32.84,166.27.54,13.25,9.88,27,17.23,44.62,19.14,66.67,7.21,136.94-58.08,170.88-63.57,23.67-3.83,67-53.67,138.72-68C1442.82,150.5,1485,236,1607.12,223c3.88-.42,7.94,1.46,11.32.06,81.87-33.87,76-41.51,166.09,10.09,107.32,61.45,201.28,145.09,300.88,159.85,62.33,9.24,86.49-30.12,175.78-4.07,8,2.34,15.91,4.51,23.64,6.89,89.13,27.41,209.28-92,334.87-108.42"/><path class="cls-32" d="M.62,102.34c96.91,105.21,79.19,39.26,114.76,53.24,117.22,46.07,93.7,229.16,174.16,168.12,41.56-31.53,57-67.64,110.31-77,112.27-19.78,128.27,82.9,238.69,55.2,47.24-11.86,106.51,4.29,157-17.1C854,260,917.4,246.7,960.44,280.61c13,10.26,26.54,17.85,43.91,20,66.06,8.12,139.19-48.28,171.09-59.72,21.81-7.82,66.42-52.34,137.66-68,131.72-29,178,32.35,298.13,42.48,3.87.33,7.82,1.89,11.27.68,81.57-28.71,78.15-32.71,166.39,18.35,107.83,62.39,201.45,141.57,300.78,155.24,61.72,8.5,87.14-29.12,174.84-3.81,7.95,2.3,15.81,4.44,23.5,6.8,87.73,26.85,210.66-96.11,331.69-111.2"/><path class="cls-33" d="M.62,99.68C98.93,207.28,80,137.29,115.8,150.21,236.11,193.61,211.1,379.27,291.15,318c42-32.18,57.4-68.94,112.1-78C518,221,534.5,328.74,647.15,301.52c46.83-11.31,102.33-12,156-21.29,63.47-11,122.28-43.27,163.62-8.84,12.79,10.66,26,18.46,43.2,20.83,65.45,9,139.11-46.39,171.3-55.88,21.52-6.36,65.82-51,136.6-68.07,129-31.11,179.89,23.19,297.49,39.34,3.83.52,7.68,2.3,11.21,1.29,81.32-23.42,80.35-23.89,166.69,26.61,108.33,63.34,201.63,138.05,300.68,150.63,61.11,7.77,87.78-28.11,173.89-3.54,7.9,2.25,15.71,4.36,23.38,6.7,86.31,26.3,212-100.22,328.5-114"/><path class="cls-34" d="M.63,97C100.34,207,80.12,133,116.21,144.84c123.42,40.64,96.9,229,176.55,167.41,42.49-32.84,57.83-70.25,113.88-78.94,117.24-18.18,134.23,94.56,249.12,67.88,46.42-10.78,102-14,155-25.49,64-13.9,122.65-48.45,162.3-13.53,12.55,11.06,25.55,19.08,42.49,21.67,64.84,9.93,139-44.62,171.51-52,21.26-4.85,65.24-49.62,135.54-68.09,126.23-33.16,181.77,14.25,296.85,36.19,3.79.72,7.55,2.71,11.16,1.91,81.09-18,82.53-15.06,167,34.86,108.82,64.31,201.81,134.54,300.57,146,60.51,7,88.44-27.11,173-3.28,7.84,2.22,15.61,4.3,23.24,6.61,84.9,25.74,213.41-104.34,325.32-116.78"/><path class="cls-35" d="M.63,94.36c101.11,112.39,79.64,34.25,116,45.11,126.5,37.79,98.49,228.85,177.73,167C337.32,273,352.64,235,410,226.64,529.76,209.25,547.25,327,664.36,300.86c46-10.26,101.66-16,154-29.69,64.41-16.83,123-53.61,161-18.22,12.31,11.46,25.06,19.7,41.78,22.52,64.22,10.84,138.8-43,171.72-48.2,21-3.32,64.67-48.23,134.49-68.12,123.5-35.18,180.88,20.91,296.21,33,3.84.41,7.4,3.1,11.1,2.53,80.86-12.48,84.71-6.23,167.3,43.12,109.28,65.29,202,131,300.46,141.43,59.9,6.31,89.1-26.13,172-3,7.79,2.17,15.51,4.22,23.11,6.51,83.48,25.19,214.78-108.45,322.13-119.57"/><path class="cls-36" d="M.63,91.71C103.14,206.48,80.41,124.24,117,134.1,246.63,169,217.12,362.84,296,300.8c43.42-34.17,58.71-72.86,117.45-80.84C535.65,203.37,553.61,326,673,300.52c45.61-9.74,101.27-18,153.08-33.88,64.81-19.8,123.3-58.75,159.64-22.91,12.06,11.88,24.57,20.32,41.07,23.36,63.61,11.76,139-49.86,171.93-44.36,20.54,3.43,64.11-46.81,133.43-68.14,120.79-37.16,181.89,11.67,295.57,29.9,3.83.61,7.33,2.41,11,3.14,79.39,15.5,86.88,2.62,167.6,51.37,109.75,66.3,202.15,127.56,300.36,136.83,59.29,5.6,89.75-25.13,171.07-2.75,7.74,2.12,15.42,4.14,23,6.41,82.08,24.64,216.16-112.57,318.95-122.36"/><path class="cls-37" d="M.64,89.05c103.9,117.16,79.9,30.81,116.82,39.68,132.65,31.88,101.66,228.62,180.12,166.34,43.88-34.83,59.15-74.17,119.23-81.78C541.54,197.49,560,325,681.58,300.19c45.2-9.24,100.84-20.12,152.11-38.08,65.17-22.82,123.58-63.88,158.32-27.6,11.78,12.3,24.07,20.94,40.35,24.21,63,12.67,139.37-48.38,172.15-40.52,19.91,4.78,63.55-45.37,132.37-68.17,118.09-39.11,182.85,2.5,294.93,26.75,3.82.83,7.26,2.8,11,3.76,77.77,20,89,11.47,167.9,59.63C1920.91,307.48,2013,364.24,2111,372.39c58.69,4.88,90.41-24.14,170.14-2.49,7.68,2.09,15.31,4.08,22.84,6.32,80.67,24.09,217.54-116.68,315.77-125.15"/><path class="cls-38" d="M.64,86.39c105.3,119.56,80,29.08,117.24,37,135.69,28.81,103.24,228.51,181.31,166,44.33-35.5,59.58-75.48,121-82.73,127.22-15,146.13,117.39,270,93.24,44.8-8.74,100.37-22.21,151.14-42.28,65.48-25.87,123.83-69,157-32.29,11.51,12.73,23.58,21.56,39.65,25.06,62.38,13.59,139.82-47,172.35-36.68,19.32,6.1,63-43.92,131.31-68.2,115.42-41,183.78-6.63,294.29,23.61,3.81,1,7.2,3.17,10.94,4.37,76.25,24.4,91.21,20.34,168.2,67.89,110.66,68.34,202.51,120.59,300.15,127.61,58.08,4.17,91.06-23.15,169.2-2.22,7.62,2,15.21,4,22.71,6.23C2386.37,396.49,2526,252.16,2619.7,245"/><path class="cls-39" d="M.65,83.73c106.69,122,80.13,27.33,117.64,34.26C257,143.65,223.11,346.38,300.79,283.62c44.78-36.17,60-76.79,122.81-83.68,129.72-14.23,149.1,123,275.19,99.58,44.41-8.24,99.87-24.31,150.18-46.47,65.74-29,124.06-74.1,155.66-37,11.22,13.17,23.09,22.19,38.94,25.91,61.76,14.52,140.32-45.57,172.56-32.84,18.75,7.4,62.48-42.43,130.26-68.22C1459.16,98,1531,125.2,1640,161.37c3.8,1.26,7.15,3.55,10.89,5,74.82,28.75,93.37,29.21,168.5,76.14,111.09,69.4,202.68,117.13,300,123,57.47,3.47,91.72-22.17,168.25-2,7.57,2,15.12,3.93,22.58,6.14,77.84,23,220.29-124.92,309.4-130.74"/><path class="cls-40" d="M.65,81.08c108.09,124.33,80.23,25.55,118.06,31.54C260.42,135.07,225.1,340.88,302.4,277.9,347.63,241,362.87,199.79,427,193.27,559.21,179.82,579.06,321.83,707.4,299.19c44-7.76,99.32-26.42,149.21-50.67,65.95-32.06,124.25-79.2,154.34-41.68,10.91,13.61,22.59,22.81,38.22,26.76,61.14,15.45,140.87-44.22,172.77-29,18.21,8.69,62-40.92,129.2-68.25,110.15-44.76,185.45-24.75,293,17.31,3.77,1.48,7.1,3.93,10.83,5.61,73.5,33.08,95.52,38.08,168.8,84.4,111.51,70.47,202.86,113.67,300,118.4,56.86,2.77,92.37-21.19,167.31-1.69,7.52,1.95,15,3.86,22.45,6,76.42,22.44,221.66-129,306.21-133.52"/><path class="cls-41" d="M.65,78.42C110.15,205.15,81,102.2,119.12,107.26c144.67,19.17,108,228.13,184.89,164.91,45.67-37.53,60.91-79.42,126.37-85.57,134.73-12.67,155,134.07,285.63,112.26,43.61-7.29,98.73-28.53,148.24-54.87,66.11-35.18,124.41-84.3,153-46.37,10.59,14.06,22.1,23.43,37.51,27.6,60.52,16.38,141.48-42.9,173-25.16,17.7,10,61.47-39.39,128.14-68.27C1463.44,85.21,1542.08,98,1648.26,146c3.76,1.69,7.06,4.29,10.78,6.22,72.28,37.39,97.66,47,169.1,92.65,111.92,71.57,203,110.23,299.84,113.8,56.26,2.08,93-20.21,166.38-1.43,7.46,1.91,14.91,3.79,22.31,5.95,75,21.89,223-133.15,303-136.31"/><path class="cls-42" d="M.66,75.76c110.89,129.12,80.38,22,118.88,26.13,147.6,15.84,109.52,228,186.08,164.55,46.11-38.21,61.35-80.73,128.15-86.52C571,168,591.78,319.46,724.62,298.52c43.21-6.81,98.11-30.62,147.26-59.06,66.23-38.31,124.55-89.4,151.69-51.06,10.26,14.5,21.61,24.06,36.8,28.45,59.9,17.32,142.14-41.59,173.2-21.32,17.22,11.24,61-37.84,127.09-68.3,105-48.38,186.85-42.79,291.72,11,3.73,1.92,7,4.67,10.72,6.84,71.17,41.7,99.79,55.86,169.4,100.91,112.3,72.67,203.22,106.78,299.74,109.19,55.65,1.39,93.69-19.24,165.43-1.16,7.41,1.86,14.82,3.71,22.19,5.85,73.58,21.35,224.41-137.26,299.84-139.1"/><path class="cls-43" d="M.66,73.11C113,204.61,81.1,93.3,120,96.52,270.44,109,231,324.39,307.23,260.72c46.54-38.9,61.79-82.05,129.94-87.47,139.74-11.12,161,145,296.06,124.94,42.82-6.34,97.44-32.72,146.29-63.26,66.3-41.44,124.66-94.51,150.36-55.75,9.92,14.95,21.12,24.68,36.09,29.3,59.28,18.25,142.85-40.29,173.41-17.48,16.78,12.52,60.55-36.27,126-68.33,102.44-50.15,187.46-51.8,291.08,7.88,3.71,2.13,7,5,10.67,7.45,70.17,46,101.92,64.76,169.71,109.17C1949.54,321,2040.34,347.72,2136.5,351.75c55,2.31,94.35-18.27,164.49-.9,7.35,1.82,14.72,3.65,22.05,5.76,72.17,20.81,225.79-141.38,296.66-141.89"/><path class="cls-44" d="M.67,70.45c113.68,133.9,80.48,18.39,119.7,20.7C273.71,100.17,233,318.89,308.83,255c47-39.59,62.24-83.36,131.73-88.41C582.81,156.24,604.5,316.89,741.83,297.86c42.45-5.89,96.76-34.81,145.33-67.46,66.32-44.57,124.73-99.63,149-60.44,9.55,15.4,20.62,25.31,35.38,30.14,58.64,19.2,143.61-39,173.61-13.64,16.36,13.81,60.13-34.67,125-68.35,99.93-51.9,188-60.81,290.43,4.73,3.68,2.36,7,5.4,10.62,8.07,69.25,50.4,104,73.67,170,117.42,113,75,203.62,97.36,299.52,100,54.43,1.49,95-17.32,163.55-.64,7.31,1.77,14.63,3.57,21.92,5.66,70.76,20.27,227.17-145.49,293.48-144.68"/><path class="cls-45" d="M.67,67.79c115.08,136.29,80.56,20.28,120.12,18,156-9,114.2,227.6,189.65,163.49C357.85,209,373.12,164.59,444,159.9c144.77-9.56,166.91,155.64,306.49,137.62,42.07-5.43,96-36.88,144.36-71.65,66.3-47.7,124.77-104.75,147.71-65.13,9.18,15.85,20.12,25.94,34.67,31,58,20.14,144.41-37.66,173.83-9.8,16,15.11,59.72-33.05,123.91-68.38,97.47-53.64,188.49-69.84,289.8,1.59,3.65,2.57,6.92,5.77,10.56,8.68,68.42,54.8,106.16,82.58,170.31,125.68,113.35,76.16,203.77,94.19,299.42,95.38,53.85.66,95.68-16.36,162.61-.38,7.25,1.73,14.52,3.51,21.79,5.57C2398.75,369.8,2558,200.46,2619.7,202.6"/><path class="cls-46" d="M.67,65.13c116.48,138.69,80.62,18,120.53,15.28C279.78,69.77,237,307.88,312.05,243.54c47.83-41,63.12-86,135.29-90.31,147.28-8.8,169.89,160.9,311.71,144,41.69-5,95.27-38.94,143.39-75.85,66.25-50.81,124.78-109.9,146.38-69.82,8.79,16.3,19.63,26.56,34,31.83,57.38,21.1,145.25-36.3,174-6,15.59,16.43,59.35-31.41,122.86-68.4,95-55.36,188.92-78.89,289.15-1.56,3.62,2.79,6.9,6.14,10.51,9.3C1747,176,1787.61,208.23,1850,250.66c113.66,77.38,204,93.14,299.32,90.78,53.24-1.32,96.34-15.4,161.67-.11,7.19,1.68,14.42,3.43,21.65,5.47,67.93,19.19,229.92-153.72,287.11-150.26"/><path class="cls-47" d="M.68,62.48C118.55,203.55,81.32,78.09,121.62,75c161.2-12.2,117.3,227.33,192,162.78,48.25-41.68,63.57-87.32,137.08-91.26,149.79-8,172.86,166.1,316.92,150.3,41.32-4.54,94.49-41,142.42-80.05,66.17-53.92,124.76-115.06,145.05-74.51,8.39,16.75,19.13,27.19,33.25,32.68,56.74,22.05,146.12-34.94,174.25-2.12,15.23,17.76,59-29.75,121.8-68.43,92.66-57.07,189.32-88,288.52-4.71,3.59,3,6.88,6.52,10.45,9.92,67,63.75,110.37,100.42,170.91,142.19,113.94,78.62,204.15,89.75,299.22,86.17,52.64-2,97-14.45,160.72.15,7.14,1.64,14.33,3.37,21.53,5.38,66.5,18.66,231.29-157.83,283.92-153"/><path class="cls-48" d="M.68,59.82C120,203.28,81.2,70.94,122,69.67c164.34-5.11,118.85,227.19,193.24,162.42,48.67-42.38,64-88.64,138.86-92.21C606.44,132.63,630,311.14,776.27,296.52c41-4.09,93.68-43,141.45-84.24,66.06-57,124.72-120.24,143.73-79.21,8,17.2,18.63,27.83,32.53,33.54,56.1,23,147-33.55,174.47,1.72,14.88,19.11,58.69-28.08,120.74-68.46C1479.51,41.1,1578.85,2.8,1677.06,92c3.56,3.23,6.86,6.89,10.4,10.53,66.33,68.29,112.46,109.35,171.21,150.45,114.2,79.89,204.35,86.37,299.11,81.56,52.06-2.64,97.67-13.5,159.79.42,7.09,1.59,14.22,3.29,21.39,5.29,65.09,18.12,232.67-162,280.74-155.85"/><path class="cls-49" d="M.68,57.16C121.36,203,81.18,66.45,122.45,64.3c167-8.72,120.39,227.05,194.42,162.07,49.09-43.09,64.46-90,140.65-93.16,154.83-6.49,178.84,176.36,327.35,163,40.6-3.66,92.86-45,140.49-88.44,65.92-60.08,124.66-125.45,142.4-83.9,7.53,17.64,18.13,28.46,31.83,34.38,55.45,24,147.9-32.12,174.67,5.56,14.55,20.48,58.41-26.39,119.68-68.48,88-60.46,190-106.2,287.23-11,3.53,3.45,6.85,7.27,10.35,11.15,65.73,72.89,114.55,118.28,171.51,158.7,114.43,81.21,204.56,83,299,77,51.46-3.3,98.33-12.56,158.85.68,7,1.54,14.12,3.24,21.25,5.2,63.65,17.69,234.05-166.07,277.56-158.63"/><path class="cls-50" d="M.69,54.5C122.76,202.75,81.14,62,122.87,58.93,292.46,46.59,244.79,285.84,318.48,220.64c49.5-43.8,64.91-91.41,142.43-94.1,157.35-6,181.84,181.4,332.57,169.32,40.24-3.23,92-47,139.51-92.64,65.77-63.14,124.58-130.68,141.08-88.59,7.09,18.08,17.63,29.09,31.12,35.23,54.8,24.93,148.81-30.68,174.88,9.4,14.23,21.86,58.16-24.69,118.63-68.51C1484.47,28.59,1589-24.62,1685.29,76.61c3.48,3.66,6.83,7.65,10.29,11.76,65.17,77.54,116.63,127.22,171.81,167C1982,337.88,2072.15,335,2166.3,327.68c50.87-3.95,99-11.62,157.9.95,7,1.49,14,3.16,21.13,5.1,62.23,17.13,235.42-170.19,274.37-161.42"/><path class="cls-51" d="M.69,51.85c123.47,150.63,80.41,5.63,122.59,1.71,172.17-16,123.35,226.64,196.81,161.36,49.83-44.6,65.35-92.68,144.21-95.06,159.88-5.08,184.84,186.39,337.79,175.66,39.89-2.8,91.14-49,138.54-96.83,65.6-66.18,124.47-135.94,139.75-93.28,6.63,18.51,17.12,29.74,30.41,36.07,54.11,26,149.72-29.2,175.09,13.24,13.91,23.26,57.95-23,117.57-68.53C1487,22.34,1594-38.37,1689.4,68.9c3.45,3.88,6.82,8,10.24,12.38,64.64,82.24,118.7,136.16,172.11,175.22,114.79,83.93,205,76.32,298.81,67.74,50.28-4.59,99.67-10.77,157,1.22q10.39,2.13,21,5c60.83,16.57,236.8-174.3,271.19-164.21"/><path class="cls-52" d="M.7,49.19c124.86,153,80.33,3.8,123-1,174.7-19.64,125,226.62,198,161,50.31-45.22,65.8-93.93,146-96,162.4-4.19,187.85,191.32,343,182,94.22-5.66,251.72-273.56,276-199,31.38,96.39,174.3-1.73,205,54,33.09,60.08,247.79-298.69,412-76,292,396,428.43,193.86,648,253,59.41,16,238.17-178.42,268-167"/></g></g></svg>