<svg xmlns="http://www.w3.org/2000/svg" viewBox="0 0 2623.5 1383.44"><defs><style>.cls-1{opacity:0.32;}.cls-10,.cls-11,.cls-12,.cls-13,.cls-14,.cls-15,.cls-16,.cls-17,.cls-18,.cls-19,.cls-2,.cls-20,.cls-21,.cls-22,.cls-23,.cls-24,.cls-25,.cls-26,.cls-27,.cls-28,.cls-29,.cls-3,.cls-30,.cls-31,.cls-32,.cls-33,.cls-34,.cls-35,.cls-36,.cls-37,.cls-38,.cls-39,.cls-4,.cls-40,.cls-41,.cls-42,.cls-43,.cls-44,.cls-45,.cls-46,.cls-47,.cls-48,.cls-49,.cls-5,.cls-50,.cls-51,.cls-52,.cls-53,.cls-6,.cls-7,.cls-8,.cls-9{fill:none;stroke:#fff;stroke-linecap:round;}.cls-10,.cls-11,.cls-12,.cls-13,.cls-14,.cls-15,.cls-16,.cls-17,.cls-18,.cls-19,.cls-2,.cls-20,.cls-21,.cls-22,.cls-23,.cls-24,.cls-25,.cls-26,.cls-27,.cls-28,.cls-29,.cls-30,.cls-31,.cls-32,.cls-33,.cls-34,.cls-35,.cls-36,.cls-37,.cls-38,.cls-39,.cls-40,.cls-41,.cls-42,.cls-43,.cls-44,.cls-45,.cls-46,.cls-47,.cls-48,.cls-49,.cls-50,.cls-51,.cls-52,.cls-53,.cls-6,.cls-7,.cls-9{stroke-miterlimit:10;}.cls-3,.cls-4,.cls-5{stroke-miterlimit:10;}.cls-3{opacity:0.98;}.cls-4{opacity:0.96;}.cls-5{opacity:0.94;}.cls-6{opacity:0.92;}.cls-7{opacity:0.9;}.cls-8{stroke-miterlimit:10;opacity:0.88;}.cls-9{opacity:0.86;}.cls-10{opacity:0.84;}.cls-11{opacity:0.83;}.cls-12{opacity:0.81;}.cls-13{opacity:0.79;}.cls-14{opacity:0.77;}.cls-15{opacity:0.75;}.cls-16{opacity:0.73;}.cls-17{opacity:0.71;}.cls-18{opacity:0.69;}.cls-19{opacity:0.67;}.cls-20{opacity:0.65;}.cls-21{opacity:0.63;}.cls-22{opacity:0.61;}.cls-23{opacity:0.59;}.cls-24{opacity:0.57;}.cls-25{opacity:0.55;}.cls-26{opacity:0.53;}.cls-27{opacity:0.51;}.cls-28{opacity:0.5;}.cls-29{opacity:0.48;}.cls-30{opacity:0.46;}.cls-31{opacity:0.44;}.cls-32{opacity:0.42;}.cls-33{opacity:0.4;}.cls-34{opacity:0.38;}.cls-35{opacity:0.36;}.cls-36{opacity:0.34;}.cls-37{opacity:0.32;}.cls-38{opacity:0.3;}.cls-39{opacity:0.28;}.cls-40{opacity:0.26;}.cls-41{opacity:0.24;}.cls-42{opacity:0.22;}.cls-43{opacity:0.2;}.cls-44{opacity:0.18;}.cls-45{opacity:0.17;}.cls-46{opacity:0.15;}.cls-47{opacity:0.13;}.cls-48{opacity:0.11;}.cls-49{opacity:0.09;}.cls-50{opacity:0.07;}.cls-51{opacity:0.05;}.cls-52{opacity:0.03;}.cls-53{opacity:0.01;}</style></defs><g id="Layer_2" data-name="Layer 2"><g id="Layer_1-2" data-name="Layer 1"><g class="cls-1"><path class="cls-2" d="M4.3,811.75c163.72,95,96.47,388.58,239.2,316.48,97-49,68.89-147.06,132-189,56-37.2,120.62,34.55,187,113,66,78,129.31,166.39,272,135,150-33,132.4-294.29,335-246,214,51,80.22,332.55,327,233,176-71,44-362,199-298,90.46,37.35,157,202,266,247,79.89,33,67.37-61.37,204-12,155,56,170.11,322.93,450,263"/><path class="cls-3" d="M4.23,799.66c161,93.76,95.55,382.09,235.91,311.82,95.4-47.75,68.12-143.64,130.25-184.55,55.22-36.2,118.92,34.34,184.28,111.39,65.34,76.79,127.79,163,268.15,132.67,53.57-11.6,83.83-50.72,112.28-94.21,16.47-25.07,31.12-48.63,48.3-72.32,40.51-55.87,86.79-103.69,181.79-81.66,171.09,39.68,120.06,227.43,220.5,249.22,24.26,5.26,57.41.8,104.65-17.9,73.05-28.62,93.52-95.71,103-158.37,13.23-87.45,7.18-168.4,96.82-131.93,89.9,36.62,156.72,197.93,265.46,242,79.18,32.3,67.5-59.34,202.73-11.85,139.37,48.94,170.17,256.62,363.78,269.21,28,1.82,58.92-.15,93.53-7.21"/><path class="cls-4" d="M4.15,787.56c158.33,92.53,94.65,375.62,232.63,307.17,93.8-46.49,67.27-140.34,128.51-180.1,54.38-35.31,117.2,34.13,181.55,109.78,64.67,75.58,126.28,159.75,264.3,130.34,56-11.93,84.8-52.33,114.14-96.26,17.15-25.48,32-46.22,50.37-69.54,43.11-54.7,89.09-106.27,185.23-84.58,169.66,38.28,121.1,222.84,219.92,246.05,24,5.63,56.68,1.53,103.37-16.4,72.3-27.78,93.65-93.36,103.23-154,13.44-85.15,8.2-164.36,97.4-128.61s156.55,193.58,264.93,236.92c78.54,31.41,67.65-57.38,201.46-11.69,143,48.82,176.12,253.28,370.22,267.17,28.6,2,59.87.51,94.38-6.18"/><path class="cls-5" d="M4.08,775.47C159.71,866.76,97.81,1144.6,233.42,1078c92.2-45.23,66.46-137,126.76-175.65C413.78,868,475.51,936.4,539,1010.51c63.84,74.51,124.79,156.5,260.45,128,58.35-12.26,85.67-54,116-98.32,17.75-25.92,32.86-43.79,52.44-66.74,45.67-53.53,91.37-108.86,188.65-87.51,168.23,36.91,122.16,218.25,219.36,242.88,23.71,6,56,2.35,102.09-14.91,71.59-26.79,93.78-91,103.45-149.62,13.67-82.85,9.23-160.32,98-125.29s156.32,189.38,264.38,231.88c77.87,30.63,67.85-55.49,200.19-11.54,146.6,48.7,182.08,250,376.67,265.14a365.85,365.85,0,0,0,95.24-5.15"/><path class="cls-6" d="M4,763.37C156.94,853.43,96.82,1126,230.06,1061.24c90.59-44,65.65-133.64,125-171.21,52.82-33.43,113.57,33.9,176.1,106.57,63.12,73.35,123.31,153.29,256.6,125.67,60.74-12.59,86.61-55.65,117.88-100.37,18.42-26.34,33.72-41.38,54.51-63.95,48.23-52.37,93.66-111.43,192.09-90.44C1319,903.08,1275.47,1081.2,1371,1107.23c23.45,6.38,55.28,3.15,100.81-13.42,70.9-25.81,93.91-88.63,103.68-145.25,13.91-80.54,10.26-156.27,98.59-122S1830.2,1011.76,1938,1053.44c77.18,29.85,68.07-53.67,198.91-11.39,150.26,48.56,188,246.7,383.12,263.11a373.91,373.91,0,0,0,96.1-4.13"/><path class="cls-7" d="M3.93,751.28c150.24,88.83,91.91,356.17,222.76,293.21,89-42.73,64.85-130.28,123.28-166.76,52-32.49,111.8,33.74,173.37,105,62.4,72.19,121.83,150.13,252.75,123.34,63.13-12.92,87.56-57.28,119.75-102.42,19.07-26.76,34.57-39,56.57-61.16,50.77-51.2,95.94-114,195.53-93.37,165.32,34.25,124.29,209.13,218.21,236.55,23.18,6.77,54.58,4,99.53-11.93,70.2-24.82,94-86.26,103.91-140.87,14.14-78.23,11.27-152.23,99.17-118.65,87.63,33.72,155.85,181,263.31,221.81,76.5,29.08,68.33-51.91,197.65-11.23,153.93,48.41,194,243.45,389.56,261.07a383.43,383.43,0,0,0,97-3.1"/><path class="cls-8" d="M3.86,739.18c147.53,87.6,91,349.7,219.47,288.56,87.4-41.47,64-126.92,121.53-162.31C396.1,833.88,454.91,899,515.51,968.79c61.69,71,120.36,147,248.9,121,65.52-13.24,88.51-58.9,121.61-104.47,19.74-27.17,35.42-36.54,58.65-58.36,53.28-50.05,98.2-116.57,199-96.3,163.85,33,125.36,204.6,217.64,233.39,22.91,7.14,53.88,4.77,98.24-10.44,69.51-23.85,94.18-83.89,104.14-136.5,14.38-75.92,12.3-148.19,99.76-115.33,87.07,33,155.62,176.77,262.77,216.77,75.82,28.31,68.62-50.2,196.38-11.08,157.63,48.27,200,240.24,396,259,31.14,3,63.68,3.15,97.81-2.07"/><path class="cls-9" d="M3.78,727.09C148.62,813.45,93.86,1070.3,220,1011c85.8-40.21,63.23-123.56,119.78-157.86C390.22,822.52,448,886.55,507.67,954.88c61,69.86,118.9,143.88,245.06,118.66C820.64,1060,842.19,1013,876.2,967c20.41-27.59,36.26-34.13,60.72-55.57,55.78-48.89,100.48-119.13,202.4-99.23,162.37,31.71,126.44,200.07,217.06,230.22,22.65,7.53,53.19,5.59,97-9,68.81-22.86,94.3-81.51,104.36-132.12,14.63-73.6,13.33-144.14,100.36-112,86.49,32.27,155.37,172.58,262.23,211.74,75.13,27.53,68.91-48.55,195.1-10.93,161.35,48.1,205.91,237,402.46,257,31.77,3.23,64.64,3.81,98.67-1"/><path class="cls-10" d="M3.71,715c142.14,85.13,89.17,336.74,212.9,279.26,84.2-39,62.43-120.21,118-153.42C384.33,811.16,441.18,874.08,499.84,941c60.26,68.71,117.45,140.81,241.21,116.33,70.31-13.9,90.41-62.16,125.34-108.57,21.07-28,37.08-31.72,62.79-52.79C987.43,848.2,1031.91,774.27,1135,793.79c160.89,30.47,127.53,195.57,216.49,227.05,22.39,7.93,52.5,6.41,95.68-7.45,68.13-21.87,94.44-79.14,104.6-127.75,14.88-71.28,14.35-140.1,100.94-108.69,85.93,31.54,155.13,168.38,261.69,206.7,74.45,26.76,69.24-46.95,193.84-10.78,165.08,47.93,211.87,233.87,408.9,255,32.41,3.47,65.59,4.47,99.53,0"/><path class="cls-11" d="M3.63,702.9c139.45,83.89,88.26,330.25,209.62,274.6,82.6-37.71,61.62-116.85,116.29-149,48.9-28.73,104.77,33.09,162.47,98.53,59.54,67.55,116,137.76,237.35,114,72.71-14.23,91.38-63.78,127.21-110.63,21.74-28.41,37.91-29.31,64.86-50,60.73-46.6,105-124.22,209.26-105.08,159.4,29.27,128.64,191.09,215.93,223.89,22.13,8.32,51.81,7.22,94.4-6,67.44-20.88,94.58-76.74,104.82-123.37C1561,801,1561.28,733.67,1647.37,764.54c85.43,30.64,154.88,164.19,261.16,201.66,73.75,26,69.58-45.39,192.56-10.62,168.83,47.74,217.83,230.71,415.35,252.93,33,3.72,66.54,5.13,100.38,1"/><path class="cls-12" d="M3.56,690.8c136.75,82.66,87.34,323.78,206.33,270,81-36.45,60.82-113.49,114.54-144.52,48.12-27.79,103,32.92,159.75,96.93,58.83,66.38,114.54,134.72,233.5,111.66,75.11-14.55,92.34-65.41,129.08-112.68,22.4-28.82,38.72-26.9,66.92-47.2,63.19-45.47,107.25-126.75,212.7-108,157.9,28.07,129.74,186.61,215.35,220.71,21.88,8.72,51.13,8,93.12-4.47,66.77-19.9,94.72-74.36,105.05-119,15.42-66.61,16.48-132.21,102.12-102,84.87,29.89,154.63,160,260.62,196.61,73.06,25.25,69.95-43.88,191.29-10.46,172.61,47.53,223.79,227.58,421.8,250.89,33.68,4,67.49,5.8,101.24,2.06"/><path class="cls-13" d="M3.48,678.71C137.53,760.13,89.91,996,206.53,944c79.39-35.2,60-110.14,112.8-140.07,47.34-26.85,101.26,32.76,157,95.32C534.46,964.47,589.45,1031,706,1008.58c77.5-14.87,93.3-67,130.94-114.73,23.07-29.24,39.54-24.5,69-44.41,65.63-44.35,109.5-129.28,216.13-110.93,156.39,26.91,130.84,182.16,214.78,217.55,21.62,9.11,50.44,8.85,91.84-3,66.09-18.91,94.85-72,105.28-114.63,15.7-64.25,17.5-128.17,102.7-98.71,84.31,29.15,154.38,155.81,260.08,191.58,72.37,24.48,70.33-42.43,190-10.32,176.39,47.32,229.75,224.47,428.25,248.86,34.31,4.22,68.45,6.46,102.1,3.09"/><path class="cls-14" d="M3.41,666.61C134.76,746.8,88.93,977.43,203.17,927.26c77.79-34,59.22-106.79,111.05-135.63,46.57-25.91,99.51,32.59,154.29,93.71,57.41,64.06,111.67,128.72,225.81,107,79.9-15.2,94.26-68.65,132.81-116.79,23.73-29.64,40.35-22.1,71.06-41.61,68.07-43.24,111.75-131.81,219.57-113.86,154.87,25.77,132,177.74,214.2,214.38,21.38,9.52,49.76,9.68,90.56-1.49,65.42-17.92,95-69.55,105.51-110.26,16-61.9,18.53-124.15,103.3-95.39,83.74,28.41,154.12,151.63,259.54,186.54,71.67,23.73,70.72-41,188.75-10.16,180.19,47.08,235.7,221.37,434.68,246.83,35,4.47,69.41,7.11,103,4.11"/><path class="cls-15" d="M3.33,654.52c128.66,79,84.61,304.33,196.47,256,76.2-32.69,58.43-103.43,109.31-131.18,45.8-25,97.77,32.42,151.57,92.11,56.7,62.89,110.23,125.73,222,104.66,82.3-15.52,95.23-70.28,134.67-118.84,24.41-30.06,41.16-19.71,73.13-38.82,70.51-42.14,114-134.32,223-116.79C1266.8,726.31,1246.51,875,1327.08,912.87c21.12,9.93,49.08,10.5,89.28,0,64.75-16.92,95.14-67.13,105.73-105.88,16.29-59.53,19.57-120.12,103.89-92.07,83.18,27.67,153.86,147.46,259,181.5,71,23,71.13-39.61,187.48-10,184,46.83,241.65,218.3,441.13,244.8,35.59,4.72,70.36,7.77,103.82,5.14"/><path class="cls-16" d="M3.26,642.42c126,77.73,83.69,297.86,193.18,251.34C271,862.32,254.07,793.69,304,767c45-24,96,32.25,148.84,90.5,56,61.73,108.8,122.77,218.11,102.33C755.65,944,767.15,888,807.49,839c25.09-30.47,42-17.32,75.21-36,72.92-41,116.23-136.82,226.43-119.71,151.83,23.56,134.18,168.95,213.07,208,20.87,10.34,48.4,11.33,88,1.49,64.08-15.93,95.27-64.71,106-101.51,16.59-57.15,20.59-116.09,104.47-88.75,82.62,26.93,153.6,143.28,258.47,176.47,70.27,22.23,71.55-38.28,186.2-9.86,187.84,46.55,247.61,215.23,447.58,242.76,36.23,5,71.32,8.43,104.68,6.18"/><path class="cls-17" d="M3.18,630.33C126.45,706.82,86,921.71,193.08,877c73-30.18,56.84-96.71,105.82-122.28,44.25-23.1,94.27,32.08,146.12,88.89,55.27,60.57,107.37,119.82,214.25,100,87.1-16.15,97.17-73.51,138.41-123,25.75-30.87,42.76-14.93,77.27-33.24,75.35-40,118.47-139.31,229.87-122.64,150.3,22.49,135.29,164.59,212.49,204.88,20.63,10.77,47.73,12.16,86.72,3,63.43-14.93,95.42-62.27,106.19-97.13,16.92-54.76,21.62-112.06,105.06-85.43,82.06,26.19,153.34,139.11,257.93,171.43,69.57,21.49,72-37,184.94-9.71,191.67,46.26,253.55,212.19,454,240.73,36.86,5.25,72.27,9.1,105.54,7.21"/><path class="cls-18" d="M3.11,618.24c120.56,75.25,81.87,284.89,186.61,242,71.39-28.92,56-93.35,104.07-117.83,43.48-22.16,92.53,31.91,143.39,87.29,54.57,59.4,106,116.88,210.41,97.66,89.5-16.46,98.14-75.13,140.27-125,26.43-31.28,43.56-12.55,79.35-30.45C945,733,987.91,630.13,1100.51,646.36c148.76,21.44,136.39,160.25,211.92,201.72,20.38,11.19,47,13,85.44,4.46,62.77-13.93,95.56-59.82,106.41-92.75,17.26-52.34,22.65-108,105.66-82.11,81.49,25.45,153.07,135,257.38,166.39,68.87,20.76,72.43-35.68,183.67-9.55,195.53,45.93,259.51,209.16,460.47,238.69,37.49,5.51,73.22,9.76,106.39,8.24"/><path class="cls-19" d="M3,606.14C120.9,680.16,84,884.56,186.36,843.52c69.79-27.68,55.25-90,102.33-113.39,42.71-21.22,90.78,31.74,140.66,85.68,53.87,58.24,104.53,114,206.56,95.33,91.9-16.78,99.11-76.75,142.14-127,27.1-31.69,44.36-10.18,81.41-27.66,80.17-37.82,122.93-144.28,236.74-128.5,147.21,20.41,137.5,155.93,211.35,198.55,20.12,11.62,46.38,13.82,84.15,6,62.13-12.93,95.71-57.35,106.65-88.38,17.6-49.91,23.67-104,106.24-78.79,80.93,24.71,152.8,130.79,256.85,161.35,68.15,20,72.88-34.43,182.39-9.39,199.4,45.58,265.46,206.14,466.92,236.65,38.13,5.78,74.17,10.42,107.25,9.27"/><path class="cls-20" d="M3,594.05c115.17,72.78,80,271.73,180,232.72,68.14-26.56,54.46-86.64,100.58-108.94,41.95-20.29,89,31.57,137.94,84.07C474.68,859,524.62,913,624.23,894.9c94.3-17.09,100.08-78.36,144-129.11,27.78-32.09,45.16-7.8,83.48-24.86,82.58-36.77,125.16-146.74,240.18-131.43,145.67,19.4,138.6,151.63,210.77,195.39,19.88,12.05,45.72,14.65,82.88,7.44,61.48-11.92,95.84-54.86,106.87-84,18-47.46,24.7-100,106.83-75.47,80.37,24,152.53,126.63,256.31,156.32,67.45,19.29,73.35-33.22,181.13-9.25,203.28,45.22,271.4,203.14,473.36,234.62,38.76,6,75.13,11.08,108.11,10.3"/><path class="cls-21" d="M2.89,582C115.36,653.5,81.94,847.19,179.64,810c66.53-25.31,53.68-83.28,98.84-104.49,41.18-19.35,87.29,31.39,135.21,82.47,52.45,55.91,101.68,108.14,198.86,90.66,96.7-17.39,101.06-80,145.86-131.16,28.46-32.5,46-5.43,85.56-22.07,85-35.72,127.38-149.2,243.6-134.36,144.12,18.41,139.71,147.36,210.21,192.22,19.63,12.49,45,15.49,81.59,8.94,60.84-10.91,96-52.36,107.1-79.63,18.34-45,25.73-95.93,107.42-72.15,79.8,23.24,152.25,122.48,255.77,151.28,66.74,18.56,73.82-32,179.86-9.09,207.17,44.82,277.35,200.14,479.81,232.58,39.4,6.32,76.08,11.74,109,11.33"/><path class="cls-22" d="M2.81,569.86C112.59,640.17,81,828.6,176.28,793.27c64.93-24.06,52.9-79.91,97.09-100,40.42-18.41,85.56,31.22,132.49,80.86,51.75,54.74,100.26,105.25,195,88.33,99.11-17.7,102-81.59,147.73-133.21,29.13-32.91,46.75-3.07,87.62-19.29,87.39-34.66,129.61-151.64,247-137.28,142.57,17.44,140.8,143.11,209.64,189.06,19.38,12.93,44.39,16.33,80.31,10.42,60.2-9.89,96.11-49.82,107.33-75.25,18.72-42.45,26.75-91.9,108-68.83,79.23,22.51,152,118.33,255.23,146.24,66,17.84,74.29-30.87,178.58-8.94,211.07,44.4,283.29,197.16,486.26,230.56,40,6.58,77,12.39,109.82,12.35"/><path class="cls-23" d="M2.74,557.76C109.81,626.84,80,810,172.92,776.53c63.33-22.82,52.12-76.56,95.34-95.6,39.67-17.47,83.82,31,129.76,79.25,51.06,53.58,98.85,102.37,191.16,86,101.52-18,103-83.2,149.6-135.27,29.81-33.31,47.55-.7,89.69-16.49,89.8-33.63,131.83-154.07,250.48-140.2C1220,570.69,1220.83,693.09,1288,740.1c19.13,13.39,43.74,17.18,79,11.92,59.58-8.88,96.24-47.26,107.56-70.88,19.12-39.9,27.78-87.87,108.6-65.5,78.67,21.76,151.69,114.18,254.69,141.19,65.31,17.13,74.79-29.73,177.32-8.78,215,43.93,289.23,194.19,492.7,228.52,40.66,6.86,78,13.06,110.68,13.39"/><path class="cls-24" d="M2.66,545.67C107,613.52,79,791.43,169.55,759.78c61.74-21.57,51.35-73.2,93.61-91.15,38.91-16.53,82.09,30.86,127,77.64,50.36,52.42,97.44,99.5,187.31,83.67,103.92-18.3,104-84.81,151.47-137.32,30.48-33.72,48.34,1.65,91.76-13.7,92.2-32.6,134-156.49,253.91-143.13,139.45,15.54,142.95,134.66,208.49,182.71,18.88,13.85,43.08,18,77.75,13.41,58.94-7.85,96.35-44.66,107.78-66.5,19.53-37.3,28.81-83.83,109.19-62.18,78.1,21,151.4,110,254.16,136.16,64.59,16.41,75.27-28.63,176-8.63C2227,774.2,2303.22,922,2507.2,957.24c41.29,7.13,78.94,13.72,111.54,14.42"/><path class="cls-25" d="M2.59,533.57C104.27,600.19,78,772.85,166.19,743c60.13-20.32,50.57-69.83,91.86-86.7,38.16-15.59,80.36,30.68,124.31,76,49.66,51.24,96,96.62,183.46,81.33,106.33-18.59,105-86.42,153.33-139.37,31.16-34.12,49.13,4,93.83-10.91,94.6-31.58,136.26-158.9,257.35-146.06,137.88,14.62,144,130.47,207.91,179.55,18.63,14.3,42.43,18.88,76.47,14.9,58.33-6.83,93.11-44.35,108-62.13,13.57-37.59,29.83-79.8,109.77-58.86,77.54,20.3,151.12,105.92,253.62,131.12,63.87,15.7,75.77-27.54,174.77-8.48,222.84,42.91,301.11,188.28,505.6,224.45,41.93,7.41,79.89,14.38,112.39,15.45"/><path class="cls-26" d="M2.51,521.48c99,65.38,74.49,232.78,160.32,204.8,58.53-19.07,49.8-66.46,90.11-82.25,37.42-14.65,78.63,30.5,121.59,74.43,49,50.08,94.61,93.76,179.61,79,108.73-18.88,105.94-88,155.2-141.43,31.84-34.52,49.92,6.37,95.89-8.11,97-30.56,138.48-161.3,260.79-149,136.32,13.72,145.07,126.29,207.34,176.38,18.36,14.77,41.77,19.75,75.19,16.39,57.7-5.79,93.09-42,108.24-57.75,13.6-35.33,30.85-75.76,110.36-55.54,77,19.57,150.83,101.8,253.08,126.08,63.15,15,76.28-26.48,173.51-8.32,226.78,42.34,307,185.34,512,222.41,42.56,7.7,80.84,15,113.25,16.48"/><path class="cls-27" d="M2.44,509.38c96.29,64.15,73.57,226.29,157,200.16,56.93-17.83,49-63.1,88.37-77.81,36.67-13.71,76.9,30.32,118.86,72.82,48.27,48.91,93.2,90.91,175.76,76.67,111.14-19.17,106.92-89.64,157.06-143.48,32.52-34.92,50.72,8.72,98-5.32C896.9,602.87,938.17,468.74,1061.7,480.5c134.76,12.83,146.12,122.14,206.78,173.22,18.1,15.24,41.12,20.6,73.9,17.88,57.1-4.75,93.08-39.68,108.47-53.38,13.62-33.06,31.88-71.72,111-52.22,76.4,18.84,150.53,97.68,252.54,121,62.43,14.29,76.78-25.44,172.23-8.18,230.73,41.74,313,182.41,518.49,220.38,43.19,8,81.8,15.7,114.11,17.51"/><path class="cls-28" d="M2.36,497.29C96,560.2,75,717.09,156.11,692.79c55.33-16.58,48.28-59.73,86.62-73.36,35.93-12.77,75.18,30.13,116.13,71.22,47.59,47.74,91.8,88.05,171.92,74.33,113.55-19.45,107.9-91.25,158.92-145.53,33.21-35.33,51.52,11.06,100-2.54,101.82-28.53,142.9-166,267.65-154.84,133.19,12,147.15,118,206.2,170.05,17.84,15.72,40.48,21.48,72.63,19.37,56.48-3.69,93.07-37.34,108.7-49,13.64-30.79,32.9-67.68,111.54-48.9,75.83,18.11,150.24,93.57,252,116,61.71,13.6,77.3-24.42,171-8,234.7,41.09,318.91,179.49,524.94,218.34,43.82,8.27,82.75,16.37,115,18.54"/><path class="cls-29" d="M2.29,485.19C93.18,546.87,74,698.5,152.75,676c53.73-15.33,47.52-56.36,84.87-68.91,35.2-11.83,73.47,29.94,113.41,69.61,46.9,46.57,90.39,85.22,168.06,72C635.06,729,628,655.88,679.89,601.15c33.88-35.72,52.31,13.42,102.11.26C886.22,573.88,927.1,433,1053.08,443.64c131.61,11.11,148.17,113.89,205.63,166.89,17.57,16.2,39.85,19.07,71.35,20.86,55.84,3.18,93-35,108.92-44.63,13.67-28.53,33.92-63.64,112.13-45.58,75.26,17.38,149.94,89.47,251.47,111,61,12.92,77.81-23.42,169.68-7.86,238.67,40.39,324.84,176.57,531.39,216.3,44.45,8.56,83.7,17,115.82,19.57"/><path class="cls-30" d="M2.22,473.1c88.19,60.44,70.83,206.82,147.17,186.19,52.13-14.08,46.76-53,83.13-64.46,34.46-10.88,71.74,29.75,110.68,68,46.21,45.4,89,82.38,164.21,69.67,118.37-20,109.87-94.46,162.66-149.64,34.57-36.13,53.11,15.76,104.18,3,106.63-26.53,147.31-170.74,274.52-160.7,130,10.27,149.17,109.78,205.06,163.72,17.29,16.69,39.27,19.94,70.06,22.35,55.13,4.33,93-32.67,109.15-40.25,13.7-26.26,35-59.6,112.72-42.26,74.7,16.66,149.65,85.38,250.93,105.93,60.25,12.23,78.34-22.43,168.42-7.71,242.64,39.65,330.76,173.67,537.83,214.28,45.08,8.84,84.65,17.68,116.68,20.6"/><path class="cls-31" d="M2.14,461C87.64,520.21,72.07,661.34,146,642.55c50.53-12.84,46-49.61,81.38-60,33.73-9.93,70,29.56,108,66.4,45.53,44.22,87.57,79.54,160.36,67.33C616.52,696,606.58,620.19,660.26,564.57c35.24-36.53,53.9,18.1,106.24,5.84,109-25.53,149.52-173.07,278-163.63s150.15,105.69,204.48,160.55c17,17.18,38.7,20.82,68.79,23.85,54.4,5.47,93-30.34,109.38-35.88,13.72-24,36-55.56,113.31-38.94,74.12,15.93,149.34,81.29,250.38,100.9,59.53,11.55,78.86-21.47,167.15-7.56,246.63,38.85,336.69,170.77,544.27,212.24,45.72,9.13,85.62,18.34,117.54,21.63"/><path class="cls-32" d="M2.07,448.91c82.8,58,69,193.84,140.59,176.89,48.94-11.59,45.28-46.22,79.64-55.57,33-9,68.33,29.37,105.23,64.79,44.86,43.05,86.17,76.72,156.52,65,123.2-20.53,111.83-97.67,166.39-153.75,35.93-36.92,54.7,20.44,108.32,8.64,111.45-24.54,151.72-175.38,281.38-166.56C1167,397,1191.27,490,1244.06,545.74c16.73,17.67,38.13,21.72,67.5,25.33,53.68,6.61,93-28,109.61-31.5,13.74-21.73,37-51.51,113.9-35.62,73.55,15.21,149,77.21,249.85,95.86,58.79,10.87,79.38-20.52,165.87-7.41,250.62,38,342.62,167.88,550.72,210.21,46.34,9.42,86.57,19,118.4,22.66"/><path class="cls-33" d="M2,436.82C82.09,493.56,70.1,624.17,139.3,609.05c47.34-10.34,44.54-42.83,77.9-51.12,32.29-8,66.62,29.17,102.5,63.18C363.88,663,404.46,695,472.37,683.78,598,663,585.19,584.5,640.62,528c36.61-37.33,55.51,22.78,110.39,11.43,113.87-23.56,153.93-177.67,284.82-169.48,125.33,7.83,152.08,97.53,203.34,154.21,16.44,18.17,37.57,22.65,66.23,26.83,52.95,7.72,93-25.66,109.83-27.13,13.77-19.46,38-47.47,114.49-32.3,73,14.48,148.73,73.14,249.31,90.82,58.06,10.21,79.91-19.59,164.61-7.25,254.62,37.09,348.53,165,557.16,208.17,47,9.72,87.52,19.66,119.26,23.69"/><path class="cls-34" d="M1.92,424.72c77.4,55.51,67.2,180.87,134,167.58,45.74-9.09,43.81-39.43,76.15-46.67,31.58-7.07,64.92,29,99.78,61.58,43.5,40.69,83.36,71.07,148.82,60.33,128-21,113.8-100.88,170.12-157.85C668.1,472,687.11,534.8,743.26,523.9,859.54,501.34,899.4,344,1031.52,351.5c123.75,7.05,153,93.48,202.77,151.05,16.14,18.67,37,23.59,64.94,28.31,52.23,8.84,93-23.32,110.07-22.75,13.79-17.19,39-43.42,115.07-29,72.42,13.75,148.43,69.07,248.78,85.77,57.33,9.55,80.43-18.67,163.33-7.1,258.63,36.13,354.45,162.12,563.61,206.14,47.6,10,88.47,20.33,120.12,24.72"/><path class="cls-35" d="M1.84,412.63C76.55,466.9,68.14,587,132.58,575.56c44.14-7.85,43.08-36,74.4-42.23,30.88-6.1,63.23,28.76,97.06,60,42.83,39.51,81.95,68.26,145,58,130.45-21.25,114.79-102.48,172-159.91,38-38.12,57.1,27.46,114.53,17,118.69-21.58,158.34-182.19,291.69-175.33,122.18,6.28,153.93,89.43,202.2,147.88,15.83,19.18,36,27.74,63.66,29.81,52.3,3.92,93-21,110.29-18.39,13.82-14.91,40.06-39.36,115.66-25.64,71.85,13,148.12,65,248.24,80.74,56.6,8.88,81-17.78,162.06-7,262.64,35.08,360.37,159.24,570.06,204.1,48.23,10.32,89.43,21,121,25.75"/><path class="cls-36" d="M1.77,400.53c72,53,65.39,167.89,127.45,158.28,42.55-6.59,42.36-32.62,72.66-37.78s61.53,28.55,94.33,58.36c42.17,38.33,80.55,65.46,141.11,55.67C570.19,613.58,553.09,531,611.18,473.1c38.66-38.52,57.89,29.79,116.59,19.8,121.11-20.6,160.55-184.43,295.13-178.26,120.6,5.53,154.83,85.38,201.62,144.71,15.53,19.69,35.36,28.66,62.38,31.3,51.71,5.06,93-18.65,110.52-14,13.85-12.65,41.08-35.31,116.26-22.32,71.27,12.31,147.8,61,247.69,75.7,55.87,8.23,81.5-16.89,160.8-6.79,266.66,34,366.28,156.37,576.5,202.06,48.85,10.62,90.38,21.65,121.83,26.78"/><path class="cls-37" d="M1.69,388.44C71,440.24,66.18,549.84,125.86,542.06c41-5.34,41.64-29.2,70.91-33.33,29.48-4.16,59.84,28.34,91.6,56.76,41.52,37.13,79.15,62.64,137.27,53.33,135.29-21.69,116.76-105.69,175.72-164,39.34-38.92,58.7,32.12,118.67,22.59,123.52-19.62,162.75-186.65,298.55-181.19,119,4.78,155.72,81.34,201.06,141.55,15.21,20.2,34.72,29.59,61.1,32.79,51.12,6.2,93-16.32,110.75-9.64,13.86-10.38,42.1-31.26,116.84-19,70.71,11.6,147.5,57,247.16,70.66,55.13,7.59,82-16,159.52-6.64,270.68,32.77,372.2,153.51,583,200,49.48,10.93,91.33,22.31,122.69,27.82"/><path class="cls-38" d="M1.62,376.34c66.62,50.57,63.58,154.93,120.88,149,39.36-4.09,40.93-25.77,69.16-28.88,28.8-3.17,58.16,28.13,88.88,55.15,40.86,35.94,77.75,59.84,133.42,51C551.67,580.7,531.7,495.29,591.55,436.51,631.57,397.2,651,471,712.28,461.9c126-18.65,165-188.85,302-184.12,117.46,4.05,156.58,77.31,200.49,138.38,14.89,20.71,34.08,30.53,59.81,34.28,50.53,7.38,92.94-14,111-5.26,13.89-8.11,43.12-27.21,117.43-15.68,70.14,10.88,147.19,52.94,246.62,65.63,54.4,6.94,82.55-15.17,158.25-6.49,274.72,31.49,378.11,150.65,589.4,198,50.1,11.22,92.29,23,123.54,28.84"/><path class="cls-39" d="M1.54,364.25c63.92,49.33,62.68,148.44,117.6,144.32,37.76-2.84,40.23-22.33,67.42-24.44C214.66,482,243,512,272.71,537.67c40.21,34.75,76.35,57.05,129.57,48.67C542.41,564.27,521,477.45,581.73,418.22,622.44,378.51,642,455,704.53,446.4c128.37-17.68,167.73-200.2,305.43-187,115.42,11,157.42,73.27,199.91,135.22,14.56,21.22,33.44,31.47,58.54,35.77,49.92,8.55,92.92-11.65,111.2-.89,13.92-5.85,44.14-23.15,118-12.36,69.57,10.16,146.88,48.93,246.09,60.59,53.66,6.3,83.08-14.32,157-6.34,278.74,30.13,384,147.81,595.84,196,50.73,11.53,93.24,23.63,124.4,29.87"/><path class="cls-40" d="M1.47,352.15c61.22,48.1,61.78,142,114.31,139.67,36.17-1.58,39.63-22.59,65.67-20,27.32,2.74,54.81,27.68,83.43,51.93C304.45,557.31,339.82,578,390.6,570.1c142.56-22.23,119.71-110.49,181.31-170.17,41.4-40.11,61.11,39.11,124.88,31,130.79-16.7,169.85-202,308.86-190C1119.57,250.82,1163.9,310.16,1205,373c14.22,21.74,32.8,32.42,57.25,37.26,49.32,9.76,92.92-9.31,111.44,3.49,13.94-3.58,45.16-19.1,118.61-9,69,9.45,146.56,44.94,245.54,55.55,52.93,5.68,83.61-13.49,155.71-6.18,282.78,28.66,389.92,145,602.29,193.93,51.35,11.84,94.19,24.29,125.26,30.9"/><path class="cls-41" d="M1.39,340.06c58.53,46.86,60.88,135.48,111,135,34.59-.33,39.08-19,63.93-15.54,26.5,3.71,53.14,27.44,80.7,50.33,38.94,32.33,73.55,51.45,121.87,44,145-22.38,120.71-112.09,183.19-172.23,42.08-40.5,61.9,41.44,126.94,33.76,133.21-15.73,172-203.83,312.3-192.9,112.43,8.76,159.06,65.2,198.76,128.89,13.88,22.25,32.16,33.38,56,38.75,48.71,11,92.9-7,111.66,7.86,14-1.31,46.18-15,119.2-5.72,68.42,8.74,146.25,41,245,50.51,52.2,5.06,84.14-12.67,154.44-6,286.83,27.09,395.83,142.12,608.74,191.89,52,12.15,95.14,25,126.12,31.93"/><path class="cls-42" d="M1.32,328c55.83,45.64,60,129,107.73,130.36,33,.93,38.51-15.38,62.19-11.09,25.67,4.66,51.48,27.2,78,48.72,38.31,31.11,72.15,48.66,118,41.67,147.43-22.5,121.69-113.69,185-174.28,42.77-40.9,62.71,43.77,129,36.55C816.93,385.13,855.41,194.35,997,204.06c110.93,7.62,159.85,61.17,198.19,125.72,13.53,22.78,31.5,34.35,54.7,40.24,48.08,12.21,92.88-4.64,111.88,12.24,14,.95,47.21-11,119.79-2.4,67.86,8,145.94,37,244.47,45.48,51.46,4.43,84.65-11.86,153.17-5.88,290.86,25.41,401.73,139.29,615.18,189.86,52.6,12.46,96.1,25.61,127,33"/><path class="cls-43" d="M1.25,315.87c53.13,44.4,59.08,122.54,104.44,125.7,31.4,2.2,37.44-8.41,60.44-6.64,25.4,2,49.83,27,75.25,47.11,37.69,29.89,70.75,45.88,114.17,39.34,149.86-22.59,122.68-115.29,186.92-176.33,43.45-41.3,63.51,46.09,131.08,39.34,138.06-13.8,176.25-207.18,319.16-198.76,109.45,6.46,160.64,57.13,197.63,122.55,13.17,23.3,30.84,35.33,53.41,41.74,47.46,13.46,92.87-2.31,112.12,16.61,14,3.22,48.22-6.92,120.37.92,67.29,7.32,145.63,33,243.93,40.44,50.73,3.82,85.18-11.06,151.9-5.72C2167,425.78,2279.7,538.62,2493.7,590c53.22,12.78,97.05,26.27,127.83,34"/><path class="cls-44" d="M1.17,303.77C51.6,346.94,59.36,419.85,102.33,424.83c29.81,3.45,36.73-4.9,58.69-2.2,24.72,3,48.18,26.7,72.53,45.51,37.08,28.64,69.35,43.09,110.32,37,152.3-22.64,123.67-116.87,188.78-178.38,44.14-41.68,64.32,48.42,133.15,42.14,140.5-12.83,178.4-208.75,322.6-201.68,107.95,5.28,161.4,53.07,197.05,119.38,12.81,23.81,30.19,36.31,52.14,43.22,46.81,14.74,92.86,0,112.34,21,14,5.49,49.25-2.86,121,4.24,66.72,6.61,145.32,29.1,243.4,35.4,50,3.22,85.69-10.27,150.62-5.57,299,21.68,413.53,133.63,628.08,185.79,53.84,13.09,98,26.93,128.69,35"/><path class="cls-45" d="M1.1,291.68C48.83,333.61,58.38,401.29,99,408.08c28.22,4.72,36-1.36,56.95,2.25,24,4.15,46.53,26.44,69.8,43.9,36.48,27.39,67.94,40.31,106.47,34.66C486.94,466.22,457,370.54,522.83,308.46c44.9-42,65.13,50.75,135.23,44.93C801,341.52,838.6,143.16,984.09,148.78c106.44,4.1,162.14,49,196.48,116.21,12.43,24.33,29.52,37.31,50.85,44.72,46.16,16,92.85,2.36,112.57,25.36,14.07,7.75,50.27,1.2,121.56,7.57,66.14,5.9,145,25.16,242.85,30.36,49.26,2.61,86.2-9.5,149.35-5.42,303,19.59,419.43,130.8,634.53,183.75,54.46,13.41,98.95,27.6,129.54,36.06"/><path class="cls-46" d="M1,279.59c45,40.69,56.39,103.15,94.59,111.74,26.63,6,35.31,2.21,55.2,6.7,23.33,5.28,44.9,26.16,67.07,42.29,35.9,26.12,66.55,37.53,102.63,32.33C477.71,450,446.25,352.69,513,290.17c45.57-42.41,65.93,53.07,137.29,47.71C795.66,327,833,126.27,979.78,130.35c104.93,2.92,162.87,45,195.91,113.05,12,24.84,28.84,38.3,49.57,46.2,45.48,17.34,89.54,7.73,112.8,29.74,12.55,11.88,51.28,5.27,122.14,10.89,65.57,5.19,144.7,21.25,242.31,25.32,48.54,2,86.71-8.74,148.09-5.26,307,17.36,425.32,128,641,181.72,55.08,13.72,99.91,28.25,130.4,37.08"/><path class="cls-47" d="M1,267.49c42.34,39.46,55.49,96.7,91.3,107.09,25,7.27,34.58,5.79,53.45,11.15,22.62,6.43,43.28,25.88,64.35,40.69,35.33,24.82,65.15,34.75,98.77,30C468.49,433.85,435.54,334.84,503.2,271.87c46.26-42.8,66.74,55.4,139.36,50.51,147.79-9.94,184.89-207.56,332.91-210.46,103.41-2,163.59,40.91,195.33,109.88,11.67,25.36,28.16,39.31,48.29,47.7,44.79,18.67,90.06,9.34,113,34.11,12.72,13.72,52.31,9.34,122.73,14.21,65,4.49,144.4,17.36,241.78,20.28,47.81,1.43,87.21-8,146.81-5.11,311,15,431.21,125.17,647.42,179.69,55.7,14,100.86,28.91,131.26,38.11"/><path class="cls-48" d="M.87,255.4c39.65,38.22,54.59,90.25,88,102.44,23.44,8.54,33.83,9.38,51.71,15.59,21.88,7.61,41.65,25.58,61.62,39.08,34.77,23.5,63.75,32,94.92,27.66C459.28,417.76,424.83,317,493.39,253.58c46.93-43.21,67.54,57.72,141.43,53.3C785,297.9,821.94,97.38,971.15,93.49c101.88-2.66,164.3,36.83,194.77,106.72,11.28,25.87,27.46,40.31,47,49.18,44.07,20,90.57,11.09,113.25,38.49,12.94,15.63,53.34,13.41,123.32,17.53,64.44,3.79,144.11,13.49,241.24,15.24,47.09.85,87.71-7.22,145.54-4.95,315.06,12.37,437.11,122.35,653.86,177.65,56.33,14.37,101.82,29.57,132.12,39.14"/><path class="cls-49" d="M.8,243.3c36.94,37,53.67,83.82,84.72,97.79,21.85,9.83,33.07,13,50,20,21.12,8.82,40,25.27,58.9,37.47,34.22,22.15,62.35,29.2,91.07,25.33,164.62-22.17,128.67-124.79,198.11-188.64,47.61-43.61,68.35,60,143.5,56.09C779.72,283.36,816.43,80,966.84,75.06c100.34-3.27,165,32.75,194.19,103.55,10.89,26.38,26.77,41.32,45.73,50.68,43.34,21.37,91.07,12.93,113.49,42.86,13.18,17.6,54.34,17.62,123.91,20.85,63.86,3.22,143.84,7.55,240.7,10.21,46.34,1.27,88.19-6.49,144.27-4.81,319,9.59,443,119.54,660.3,175.62,57,14.69,102.78,30.23,133,40.17"/><path class="cls-50" d="M.72,231.21C35,267,53.48,308.59,82.16,324.34c20.24,11.12,32.27,16.61,48.22,24.49,20.32,10,38.43,24.94,56.17,35.87,33.71,20.75,60.95,26.42,87.23,23,167.11-21.82,129.64-126.41,200-190.7,48.28-44,69.15,62.25,145.56,58.89,155.08-7.3,191.6-213.29,343.21-219.25,98.8-3.88,165.66,28.66,193.62,100.38,10.48,26.89,26,42.34,44.45,52.17,42.58,22.75,91.53,14.87,113.71,47.24,13.45,19.62,55.37,21.66,124.5,24.17,63.29,2.49,143.52,4.17,240.16,5.17,45.64.47,88.68-3.26,143-4.65,323-8.28,448.88,116.73,666.75,173.58,57.57,15,103.73,30.9,133.84,41.2"/><path class="cls-51" d="M.65,219.11c31.55,34.53,51.83,70.95,78.15,88.48,18.63,12.41,31.44,20.23,46.48,28.94,19.48,11.28,36.82,24.59,53.44,34.26,33.21,19.31,59.55,23.66,83.38,20.66,169.61-21.32,130.61-128,201.84-192.75,49-44.42,70,64.61,147.64,61.68C769.1,254.12,805.43,45.24,958.22,38.2c97.27-4.48,166.33,24.56,193,97.22,10.07,27.39,25.32,43.35,43.16,53.66,41.8,24.14,92,16.87,113.94,51.61,13.72,21.68,56.4,25.7,125.09,27.49,62.73,1.77,143.24,2,239.62.13,44.93-.86,89.15-3.35,141.73-4.5,326.93-7.11,454.67,114.29,673.2,171.55,58.16,15.44,104.68,31.56,134.7,42.23"/><path class="cls-52" d="M.57,207c28.86,33.29,50.89,64.52,74.87,83.83,17,13.69,30.57,23.85,44.73,33.38,18.61,12.53,35.22,24.22,50.72,32.65,32.73,17.8,58.14,20.89,79.53,18.33C422.56,354.59,382,245.58,454.12,180.41c49.64-44.82,70.78,67,149.71,64.46,160-5.22,196.1-216.94,350.08-225.1,95.74-5.07,167,20.45,192.47,94.05,9.67,27.9,24.59,44.37,41.89,55.15,41,25.54,92.37,18.94,114.17,56,14,23.77,57.42,29.75,125.67,30.81,62.17,1,143-1.83,239.09-4.91,44.21-1.41,89.6-3.47,140.46-4.34,330.86-5.69,460.6,111.31,679.64,169.51,58.79,15.72,105.63,32.22,135.55,43.27"/><path class="cls-53" d="M.5,194.92C125.36,348,196.07,363.77,238.73,359c174.7-19.64,132.57-131.24,205.58-196.86,50.31-45.22,71.58,69.33,151.78,67.26,162.4-4.19,198.36-218.71,353.51-228,94.22-5.65,167.62,16.33,191.9,90.89,31.38,96.39,124.31,61.27,155,117,33.09,60.08,227.34,23.28,504,20,334.8-4,466.53,108.33,686.09,167.47A1401.93,1401.93,0,0,1,2623,441"/></g></g></g></svg>