<svg xmlns="http://www.w3.org/2000/svg" viewBox="0 0 1349.5 1383.44"><defs><style>.cls-1{opacity:0.74;}.cls-10,.cls-11,.cls-12,.cls-13,.cls-14,.cls-15,.cls-16,.cls-17,.cls-18,.cls-19,.cls-2,.cls-20,.cls-21,.cls-22,.cls-23,.cls-24,.cls-25,.cls-26,.cls-27,.cls-28,.cls-29,.cls-3,.cls-30,.cls-31,.cls-32,.cls-33,.cls-34,.cls-35,.cls-36,.cls-37,.cls-38,.cls-39,.cls-4,.cls-40,.cls-41,.cls-42,.cls-43,.cls-44,.cls-45,.cls-46,.cls-47,.cls-48,.cls-49,.cls-5,.cls-50,.cls-51,.cls-52,.cls-53,.cls-6,.cls-7,.cls-8,.cls-9{fill:none;stroke:#fff;stroke-linecap:round;}.cls-10,.cls-11,.cls-12,.cls-13,.cls-14,.cls-15,.cls-16,.cls-17,.cls-18,.cls-19,.cls-2,.cls-20,.cls-21,.cls-22,.cls-23,.cls-24,.cls-25,.cls-26,.cls-27,.cls-28,.cls-29,.cls-30,.cls-31,.cls-32,.cls-33,.cls-34,.cls-35,.cls-36,.cls-37,.cls-38,.cls-39,.cls-40,.cls-41,.cls-42,.cls-43,.cls-44,.cls-45,.cls-46,.cls-47,.cls-48,.cls-49,.cls-50,.cls-51,.cls-52,.cls-53,.cls-6,.cls-7,.cls-9{stroke-miterlimit:10;}.cls-3,.cls-4,.cls-5{stroke-miterlimit:10;}.cls-3{opacity:0.98;}.cls-4{opacity:0.96;}.cls-5{opacity:0.94;}.cls-6{opacity:0.92;}.cls-7{opacity:0.9;}.cls-8{stroke-miterlimit:10;opacity:0.88;}.cls-9{opacity:0.86;}.cls-10{opacity:0.84;}.cls-11{opacity:0.83;}.cls-12{opacity:0.81;}.cls-13{opacity:0.79;}.cls-14{opacity:0.77;}.cls-15{opacity:0.75;}.cls-16{opacity:0.73;}.cls-17{opacity:0.71;}.cls-18{opacity:0.69;}.cls-19{opacity:0.67;}.cls-20{opacity:0.65;}.cls-21{opacity:0.63;}.cls-22{opacity:0.61;}.cls-23{opacity:0.59;}.cls-24{opacity:0.57;}.cls-25{opacity:0.55;}.cls-26{opacity:0.53;}.cls-27{opacity:0.51;}.cls-28{opacity:0.5;}.cls-29{opacity:0.48;}.cls-30{opacity:0.46;}.cls-31{opacity:0.44;}.cls-32{opacity:0.42;}.cls-33{opacity:0.4;}.cls-34{opacity:0.38;}.cls-35{opacity:0.36;}.cls-36{opacity:0.34;}.cls-37{opacity:0.32;}.cls-38{opacity:0.3;}.cls-39{opacity:0.28;}.cls-40{opacity:0.26;}.cls-41{opacity:0.24;}.cls-42{opacity:0.22;}.cls-43{opacity:0.2;}.cls-44{opacity:0.18;}.cls-45{opacity:0.17;}.cls-46{opacity:0.15;}.cls-47{opacity:0.13;}.cls-48{opacity:0.11;}.cls-49{opacity:0.09;}.cls-50{opacity:0.07;}.cls-51{opacity:0.05;}.cls-52{opacity:0.03;}.cls-53{opacity:0.01;}</style></defs><g id="Layer_2" data-name="Layer 2"><g id="Layer_1-2" data-name="Layer 1"><g class="cls-1"><path class="cls-2" d="M2.46,811.75c84.18,95,49.6,388.58,123,316.48,49.88-49,35.43-147.06,67.88-189,28.77-37.2,62,34.55,96.15,113,33.94,78,66.49,166.39,139.87,135,77.13-33,68.07-294.29,172.25-246,110,51,41.26,332.55,168.15,233,90.5-71,22.62-362,102.33-298,46.51,37.35,80.73,202,136.77,247,41.08,33,34.64-61.37,104.9-12,79.7,56,87.47,322.93,231.39,263"/><path class="cls-3" d="M2.42,799.66c82.78,93.73,49.1,382,121.27,311.75,49.05-47.74,35-143.62,67-184.53,28.38-36.21,61.12,34.32,94.72,111.38C319,1115.1,351,1201.43,423.34,1171c28.7-12.09,44.56-54.21,59.65-100.11,6.62-19.86,12.73-37.36,19.52-56.21,21.83-60.63,45.26-115.18,96.88-91.87,91,41.12,59.71,240.78,118.85,250.65,11.81,2,27.15-3.93,48.06-19.9,48-36.68,51.7-137.14,56.56-210.76,4-63.22,9.67-107.93,46.14-79,46.28,36.69,81,197.76,137,242,40.77,32.16,34.25-59.47,104.08-11.84,67.15,45.81,85.53,232.32,170.1,265.07,18.38,7.14,39.7,7.14,65-3.07"/><path class="cls-4" d="M2.38,787.56c81.38,92.46,48.61,375.5,119.54,307,48.24-46.47,34.64-140.18,66.1-180,28-35.23,60.21,34.08,93.28,109.74,33.32,75.7,64.83,160,136,130.47,29.86-12.39,44.87-55.81,60.58-102,6.92-20.4,13.33-35.17,20.68-53.75,23.48-59.32,46.51-117.5,98.58-94.59,90.38,39.76,60.2,236.49,118.45,247.45,11.6,2.19,26.57-3.6,47.22-18.94,47.2-35.07,52-133.59,56.9-204.76C824,866.6,829.67,823,865.93,851.38c46.05,36,81.19,193.52,137.19,236.92,40.46,31.36,33.91-57.61,103.27-11.66,68.78,45.56,88.62,229.84,173.76,263.12,18.62,7.31,40,7.65,65.14-2.13"/><path class="cls-5" d="M2.34,775.47c80,91.19,48.12,369,117.81,302.3,47.42-45.21,34.16-136.82,65.21-175.58,27.49-34.31,59.17,33.92,91.85,108.12,32.86,74.61,64,156.87,134.12,128.2,31-12.7,45.27-57.37,61.49-104,7.28-20.91,13.94-33,21.86-51.27,25.09-58,47.73-119.82,100.27-97.32,89.7,38.42,60.68,232.19,118,244.26,11.39,2.4,26-3.29,46.39-18,46.39-33.46,52.26-130,57.23-198.75,4.33-59.82,10.2-102.39,46.24-74.5,45.81,35.36,81.41,189.29,137.39,231.89,40.15,30.55,33.61-55.8,102.46-11.5,70.44,45.34,91.71,227.37,177.41,261.17,18.86,7.49,40.3,8.16,65.25-1.18"/><path class="cls-6" d="M2.3,763.37C80.88,853.29,49.92,1125.79,118.39,1061,165,1017,152.12,927.54,182.7,889.84c27.06-33.35,58.22,33.72,90.42,106.5,32.5,73.48,63.24,153.76,132.2,125.93,32.19-13,45.68-58.94,62.42-105.92,7.63-21.43,14.53-30.76,23-48.8,26.68-56.68,49-122.14,102-100,89,37.1,61.15,227.89,117.64,241.07,11.18,2.6,25.42-3,45.56-17.06,45.6-31.85,52.49-126.49,57.56-192.74,4.45-58.12,10.47-99.62,46.29-72.26,45.58,34.7,81.62,185.05,137.6,226.86,39.82,29.75,33.35-54,101.64-11.33,72.14,45.11,94.8,224.88,181.06,259.22,19.11,7.66,40.61,8.67,65.36-.24"/><path class="cls-7" d="M2.26,751.28c77.18,88.65,47.13,355.88,114.36,292.85,45.78-42.68,33.31-130,63.43-166.63,26.63-32.4,57.27,33.5,89,104.87,32.15,72.35,62.47,150.69,130.28,123.66,33.36-13.3,46.1-60.5,63.34-107.85,8-21.95,15.12-28.55,24.2-46.33C515.09,896.51,537,827.39,590.52,849.08c88.28,35.79,61.61,223.58,117.24,237.87,11,2.82,24.85-2.67,44.73-16.1,44.82-30.28,52.72-122.94,57.89-186.75,4.57-56.4,10.73-96.84,46.34-70,45.34,34,81.83,180.81,137.8,221.82,39.49,28.94,33.14-52.31,100.83-11.16,73.86,44.89,97.88,222.4,184.72,257.26,19.35,7.84,40.9,9.19,65.45.71"/><path class="cls-8" d="M2.23,739.18C78,826.56,48.85,1088.53,114.86,1027.31c45-41.41,32.88-126.58,62.53-162.16,26.2-31.44,56.32,33.29,87.55,103.25,31.79,71.22,61.71,147.64,128.37,121.38,34.52-13.6,46.52-62,64.26-109.78,8.35-22.46,15.69-26.33,25.36-43.86,29.77-54,51.39-126.76,105.37-105.49,87.56,34.51,62.07,219.27,116.84,234.68,10.75,3,24.28-2.38,43.89-15.16,44.07-28.7,53-119.39,58.23-180.74,4.7-54.7,11-94.07,46.39-67.76,45.11,33.38,82,176.57,138,216.79,39.17,28.14,33-50.63,100-11,75.6,44.69,101,219.92,188.37,255.31,19.6,8,41.21,9.71,65.56,1.66"/><path class="cls-9" d="M2.19,727.09c74.37,86.11,46,342.67,110.9,283.4,44.06-40.23,32.46-123.17,61.65-157.68,25.77-30.49,55.37,33.08,86.11,101.62,31.43,70.08,61,144.62,126.45,119.11,35.7-13.9,46.95-63.61,65.18-111.71,8.71-23,16.27-24.12,26.54-41.4,31.27-52.62,52.59-129.07,107.06-108.21,86.82,33.24,62.52,214.94,116.44,231.48,10.53,3.24,23.71-2.08,43.06-14.2,43.32-27.15,53.21-115.84,58.57-174.74,4.82-53,11.25-91.29,46.43-65.51C895.45,822,932.81,961.58,988.79,1001c38.82,27.34,32.83-49,99.2-10.83,77.38,44.48,104.13,217.25,192,253.36,19.86,8.15,41.51,10.22,65.66,2.61"/><path class="cls-10" d="M2.15,715c73,84.84,45.5,336.12,109.18,278.68,43.22-39,32-119.76,60.75-153.21,25.35-29.52,54.42,32.87,84.68,100,31.07,68.95,60.22,141.62,124.53,116.84,36.88-14.2,47.39-65.17,66.1-113.65,9.08-23.5,16.83-21.89,27.71-38.92,32.74-51.27,53.79-131.38,108.77-110.94,86.06,32,63,210.61,116,228.29,10.32,3.44,23.15-1.79,42.23-13.26,42.6-25.6,53.45-112.28,58.9-168.73,5-51.29,11.52-88.52,46.48-63.27,44.64,32,82.42,168.1,138.41,206.72,38.48,26.55,32.73-47.38,98.39-10.67,79.18,44.28,107.23,214.76,195.68,251.41,20.1,8.33,41.81,10.74,65.76,3.56"/><path class="cls-11" d="M2.11,702.9c71.57,83.57,45,329.56,107.45,274C152,939.12,141.18,860.5,169.43,828.12c24.91-28.57,53.47,32.66,83.24,98.36,30.72,67.83,59.49,138.65,122.62,114.58,38-14.5,47.82-66.73,67-115.58,9.44-24,17.38-19.67,28.88-36.46,34.16-49.9,55-133.67,110.46-113.66C667,806.13,645,981.63,697.28,1000.45c10.1,3.64,22.59-1.5,41.4-12.3,41.9-24.08,53.69-108.73,59.23-162.73,5.08-49.58,11.78-85.75,46.53-61,44.4,31.38,82.6,163.85,138.61,201.68,38.14,25.75,32.66-45.82,97.58-10.5,81,44.07,110.32,212.26,199.33,249.46,20.35,8.5,42.12,11.25,65.86,4.5"/><path class="cls-12" d="M2.07,690.8c70.17,82.3,44.47,323,105.72,269.24,41.57-36.49,31.2-112.95,59-144.27,24.49-27.62,52.53,32.45,81.8,96.74,30.37,66.7,58.77,135.69,120.71,112.31,39.22-14.8,48.26-68.28,67.94-117.52,9.81-24.53,17.93-17.43,30-34,35.56-48.55,56.16-136,112.16-116.38C664,786.49,643.25,958.86,694.65,978.83c9.89,3.84,22.05-1.22,40.57-11.36,41.24-22.56,53.94-105.17,59.57-156.72,5.22-47.88,12.05-83,46.57-58.78,44.17,30.72,82.79,159.62,138.83,196.65,37.78,25,32.61-44.3,96.76-10.33,82.85,43.86,113.42,209.76,203,247.5,20.59,8.68,42.41,11.77,66,5.45"/><path class="cls-13" d="M2,678.71c68.77,81,44,316.44,104,264.51C146.76,908,136.8,833.68,164.11,803.43c24.07-26.67,51.59,32.23,80.37,95.11,30,65.57,58.06,132.75,118.79,110,40.41-15.1,48.71-69.84,68.87-119.45,10.17-25,18.45-15.21,31.22-31.52,36.92-47.19,57.32-138.26,113.86-119.1C660.94,766.88,641.45,936.07,692,957.2c9.67,4,21.5-.94,39.74-10.4,40.59-21.07,54.19-101.61,59.9-150.72,5.37-46.17,12.27-80.14,46.62-56.54,43.88,30.15,83,155.39,139,191.62,37.43,24.18,32.6-42.81,95.95-10.17,84.72,43.66,116.51,207.27,206.64,245.55,20.84,8.85,42.72,12.29,66.07,6.4"/><path class="cls-14" d="M2,666.61C69.36,746.38,45.44,976.5,104.26,926.4c39.9-34,30.36-106.13,57.2-135.32,23.64-25.71,50.64,32,78.93,93.49,29.66,64.44,57.35,129.82,116.87,107.77C398.85,976.94,406.43,921,427.05,871c10.55-25.56,19-13,32.39-29.05C497.7,796.06,517.94,701.36,575,720.08c82.92,27.2,64.65,193.19,114.41,215.5,9.45,4.24,21-.67,38.91-9.46,40-19.58,54.43-98,60.23-144.71,5.52-44.45,12.53-77.37,46.67-54.29,43.64,29.49,83.12,151.15,139.24,186.58,37.06,23.4,32.61-41.36,95.13-10,86.62,43.44,119.6,204.78,210.29,243.6,21.08,9,43,12.79,66.17,7.34"/><path class="cls-15" d="M2,654.52C67.92,733,44.89,957.84,102.5,909.58c39.07-32.74,29.93-102.72,56.3-130.85C182,754,208.5,810.55,236.3,870.6c29.31,63.31,56.64,126.91,115,105.5C394,960.41,400.87,903.16,422,852.78c10.91-26.08,19.49-10.76,33.56-26.58,39.56-44.51,59.65-142.82,117.25-124.55,82.11,26.05,65.06,188.81,114,212.31,9.23,4.43,20.44-.4,38.08-8.51,39.39-18.12,54.68-94.48,60.56-138.72,5.68-42.73,12.79-74.58,46.72-52,43.4,28.84,83.27,146.92,139.44,181.54,36.69,22.63,32.65-39.93,94.32-9.83,88.54,43.23,122.7,202.29,213.95,241.65,21.32,9.2,43.32,13.31,66.27,8.29"/><path class="cls-16" d="M1.92,642.42c64.56,77.23,42.42,296.77,98.81,250.34,38.24-31.49,29.52-99.32,55.42-126.37,22.79-23.81,48.76,31.6,76.06,90.24,29,62.18,55.94,124,113,103.23,43.95-16,50.07-74.49,71.63-125.26,11.29-26.59,20-8.53,34.73-24.11,40.84-43.18,60.81-145.09,118.95-127.27C651.85,708.13,636,867.64,684.17,892.33c9,4.62,19.92-.13,37.24-7.56,38.86-16.66,55-90.9,60.9-132.71,5.84-41,13.06-71.8,46.77-49.79C872.24,730.45,912.5,845,968.72,878.77c36.32,21.85,32.72-38.55,93.51-9.66,90.48,43,125.79,199.8,217.6,239.7,21.57,9.37,43.63,13.82,66.37,9.24"/><path class="cls-17" d="M1.88,630.33C65,706.28,43.8,920.53,99,875.94,136.38,845.7,128.06,780,153.49,754c22.37-22.85,47.82,31.39,74.63,88.62,28.6,61.05,55.25,121.12,111.12,101,45.13-16.28,50.54-76,72.55-127.19,11.67-27.11,20.49-6.31,35.91-21.64,42.08-41.87,62-147.36,120.65-130,80.45,23.8,65.87,180,113.2,205.92,8.79,4.81,19.41.13,36.41-6.61,38.35-15.23,55.2-87.33,61.23-126.71s13.32-69,46.82-47.55c42.92,27.53,83.56,138.46,139.85,171.47,35.93,21.09,32.8-37.2,92.69-9.5,92.44,42.76,128.88,197.32,221.25,237.75,21.82,9.55,43.93,14.34,66.48,10.19"/><path class="cls-18" d="M1.84,618.24C63.6,692.92,43.25,901.88,97.2,859.12c36.58-29,28.68-92.51,53.64-117.42,21.94-21.91,46.88,31.17,73.19,87,28.25,59.91,54.56,118.25,109.21,98.69,46.31-16.57,51-77.59,73.47-129.13,12-27.62,21-4.09,37.07-19.17,43.31-40.57,63.11-149.61,122.35-132.72C645.74,669.07,632.4,822,678.93,849.08c8.57,5,20.28,3.29,35.58-5.66,39.75-6.79,55.46-83.74,61.56-120.7,6.2-37.56,13.59-66.25,46.87-45.31,42.68,26.87,83.7,134.24,140,166.44,35.55,20.32,32.91-35.88,91.88-9.33,94.42,42.51,132,194.83,224.91,235.79,22.06,9.73,44.23,14.86,66.57,11.14"/><path class="cls-19" d="M1.8,606.14C62.16,679.55,42.7,883.22,95.43,842.3c35.76-27.74,28.27-89.1,52.75-112.95,21.52-21,45.94,31,71.76,85.36,27.9,58.79,53.88,115.4,107.29,96.43,47.5-16.86,51.46-79.14,74.39-131.07,12.43-28.13,21.46-1.88,38.25-16.7,44.51-39.28,64.24-151.86,124-135.44,78.77,21.63,66.68,171.16,112.4,199.53,8.35,5.18,19.81,3.76,34.75-4.72,39.18-4.82,55.73-80.15,61.9-114.69,6.39-35.82,13.84-63.48,46.91-43.06,42.45,26.21,83.82,130,140.25,161.4,35.16,19.56,33-34.59,91.07-9.16,96.42,42.24,135.06,192.34,228.56,233.84,22.31,9.9,44.53,15.37,66.68,12.08"/><path class="cls-20" d="M1.77,594.05c59,72.14,40.38,270.51,91.9,231.43C128.59,799,121.51,739.78,145.52,717c21.11-20,45,30.74,70.33,83.73,27.55,57.66,53.2,112.54,105.37,94.16,48.69-17.15,51.94-80.69,75.32-133,12.8-28.65,21.92.32,39.41-14.23,45.69-38,65.38-154.11,125.75-138.17,77.9,20.57,67.07,166.72,112,196.33,8.13,5.36,19.35,4.24,33.91-3.76,38.62-2.85,56-76.56,62.24-108.69,6.61-34.08,14.1-60.7,46.95-40.82,42.22,25.56,84,125.79,140.47,156.37,34.76,18.81,33.17-33.33,90.25-9,98.44,42,138.15,189.86,232.22,231.89,22.54,10.08,44.83,15.89,66.77,13"/><path class="cls-21" d="M1.73,582C59.28,652.82,41.61,845.9,91.9,808.66c34.1-25.24,27.43-82.3,51-104,20.68-19.06,44.07,30.54,68.89,82.11,27.2,56.53,52.52,109.7,103.46,91.89,49.87-17.44,52.4-82.23,76.23-134.94,13.18-29.15,22.39,2.52,40.59-11.76,46.85-36.78,66.5-156.34,127.44-140.89,77,19.54,67.48,162.26,111.59,193.14,7.91,5.54,18.88,4.71,33.08-2.82,38.05-.88,56.28-72.94,62.57-102.68,6.84-32.33,14.37-57.93,47-38.57,42,24.89,84.06,121.57,140.67,151.33,34.36,18.06,33.33-32.1,89.44-8.83,100.48,41.67,141.24,187.37,235.87,229.94,22.79,10.25,45.13,16.4,66.88,14"/><path class="cls-22" d="M1.69,569.86c56.15,69.6,39.37,257.39,88.45,222,33.27-24,27-78.91,50.07-99.53,20.27-18.13,43.14,30.31,67.46,80.48,26.85,55.4,51.85,106.87,101.54,89.62,51.07-17.72,52.88-83.77,77.16-136.87,13.56-29.67,22.85,4.71,41.75-9.29,48-35.56,67.63-158.57,129.14-143.62,76.16,18.51,67.89,157.79,111.19,189.94,7.69,5.72,18.41,5.18,32.25-1.86,37.48,1.09,56.55-69.32,62.9-96.68,7.09-30.56,14.63-55.15,47-36.33C852.39,652,894.81,745.08,951.52,774c34,17.32,33.51-30.9,88.63-8.67,102.54,41.36,144.33,184.9,239.52,228,23,10.43,45.44,16.92,67,14.92"/><path class="cls-23" d="M1.65,557.76C56.4,626.09,40.51,808.59,88.37,775,120.81,752.28,115,699.51,137.56,680c19.85-17.18,42.21,30.1,66,78.86,26.5,54.27,51.18,104,99.62,87.35,52.26-18,53.35-85.32,78.08-138.81,14-30.17,23.31,6.89,42.93-6.82C473.34,666.21,493,539.78,555,554.22c75.28,17.5,68.31,153.3,110.79,186.74,7.47,5.89,17.95,5.65,31.41-.92,36.92,3.06,56.84-65.68,63.24-90.68,7.37-28.77,14.9-52.37,47.1-34.07,41.51,23.58,84.26,113.16,141.08,141.26,33.54,16.58,33.69-29.72,87.81-8.5,104.61,41,147.42,182.41,243.18,226,23.28,10.61,45.74,17.43,67.08,15.88"/><path class="cls-24" d="M1.61,545.67C55,612.73,40,789.93,86.61,758.21c31.61-21.51,26.19-72.12,48.29-90.59,19.44-16.23,41.28,29.89,64.59,77.24C225.64,798,250,846.08,297.2,829.94c53.44-18.28,53.82-86.86,79-140.74,14.34-30.69,23.76,9.06,44.1-4.36,50.26-33.15,69.86-163,132.54-149.05,74.39,16.52,68.72,148.8,110.38,183.55,7.26,6,17.48,6.12,30.58,0,36.35,5,57.12-62,63.57-84.68,7.67-27,15.16-49.59,47.15-31.83,41.27,22.92,84.34,109,141.28,136.23,33.12,15.85,33.9-28.57,87-8.33,106.71,40.66,150.51,179.93,246.83,224.08,23.53,10.78,46,17.94,67.19,16.82"/><path class="cls-25" d="M1.57,533.57c51.94,65.79,37.86,237.7,83.27,207.82,30.79-20.26,25.79-68.73,47.41-86.11,19-15.3,40.35,29.67,63.14,75.61,25.82,52,49.86,98.41,95.8,82.81,54.64-18.55,54.31-88.4,79.92-142.68,14.72-31.19,24.2,11.24,45.27-1.88,51.36-32,71-165.17,134.23-151.78,73.5,15.55,69.16,144.29,110,180.35,7,6.23,17,6.59,29.75,1,35.78,7,57.4-58.31,63.9-78.67,8-25.12,15.43-46.82,47.2-29.59,41,22.27,84.42,104.79,141.48,131.2,32.7,15.13,34.11-27.44,86.19-8.17,108.82,40.28,153.59,177.46,250.48,222.13,23.77,11,46.35,18.46,67.29,17.77"/><path class="cls-26" d="M1.54,521.48C52.07,586,38.89,752.61,83.07,724.57c30-19,25.39-65.33,46.52-81.64,18.61-14.36,39.43,29.46,61.71,74,25.47,50.89,49.19,95.61,93.88,80.55C341,778.64,340,707.52,366,652.85c15.11-31.71,24.65,13.39,46.44.58,52.48-30.83,72.07-167.35,135.93-154.5C621,513.53,618,638.69,658,676.09c6.84,6.39,16.56,7.06,28.93,1.93,35.21,9,57.68-54.57,64.23-72.67,8.41-23.24,15.7-44.05,47.25-27.34,40.8,21.6,84.49,100.6,141.69,126.16,32.27,14.41,34.33-26.34,85.37-8,110.94,39.86,156.68,175,254.14,220.18,24,11.13,46.64,19,67.39,18.71"/><path class="cls-27" d="M1.5,509.38c49.13,63.26,36.85,224.56,79.81,198.37,29.14-17.77,25-61.94,45.62-77.16,18.21-13.43,38.51,29.24,60.28,72.35,25.13,49.76,48.53,92.82,92,78.28,57-19.09,55.27-91.48,81.76-146.55,15.49-32.21,25.08,15.54,47.61,3.06C462.12,608,481.71,468.21,546.18,480.5c71.69,13.67,70,135.23,109.16,174,6.62,6.56,16.09,7.54,28.09,2.88,34.65,10.94,58-50.77,64.57-66.66,8.86-21.3,16-41.27,47.3-25.1C835.86,586.53,879.86,662,937.19,686.7c31.83,13.72,34.57-25.25,84.56-7.83,113.09,39.42,159.77,172.5,257.79,218.23,24.26,11.31,47,19.49,67.49,19.66"/><path class="cls-28" d="M1.46,497.29c47.73,62,36.35,218,78.08,193.64,28.33-16.52,24.59-58.55,44.74-72.69,17.8-12.49,37.58,29,58.84,70.73,24.79,48.63,47.88,90,90.05,76,58.23-19.35,55.75-93,82.68-148.48,15.88-32.72,25.52,17.68,48.78,5.52C459.31,593.43,478.9,450.35,544,462.07c70.78,12.75,70.49,130.68,108.76,170.77,6.41,6.71,15.62,8,27.26,3.83,34.08,12.9,55.46-48.62,64.9-60.66,5.08-20.82,16.23-38.5,47.34-22.85,40.34,20.28,84.62,92.26,142.1,116.08,31.4,13,34.82-24.19,83.75-7.66,115.25,38.94,162.85,170,261.45,216.27,24.5,11.5,47.25,20,67.59,20.61"/><path class="cls-29" d="M1.42,485.19c46.33,60.72,35.85,211.43,76.36,188.92C105.28,658.83,102,619,121.62,605.9,139,594.34,158.29,634.7,179,675c24.45,47.5,47.22,87.24,88.13,73.74,59.43-19.61,56.24-94.55,83.6-150.42,16.28-33.22,26,19.82,50,8,55.77-27.48,75.35-173.8,141-162.67,69.87,11.85,71,126.13,108.36,167.57,6.21,6.88,15.16,8.48,26.43,4.78,33.51,14.88,55.61-45.08,65.23-54.65,5.12-19.13,16.5-35.73,47.39-20.61,40.11,19.63,84.67,88.12,142.31,111,30.95,12.32,35.06-23.16,82.93-7.49,117.42,38.42,165.94,167.54,265.1,214.32,24.74,11.67,47.55,20.52,67.7,21.55"/><path class="cls-30" d="M1.38,473.1C46.31,532.54,36.74,678,76,657.29c26.69-14,23.81-51.77,43-63.74,17-10.63,35.75,28.58,56,67.48,24.11,46.37,46.57,84.46,86.22,71.47,60.63-19.86,56.72-96.09,84.52-152.35,16.66-33.73,26.39,21.94,51.12,10.46,56.87-26.41,76.45-175.93,142.72-165.4,69,11,71.45,121.56,108,164.38,6,7,14.69,8.95,25.6,5.72,32.94,16.85,55.75-41.53,65.57-48.64,5.15-17.43,16.75-33,47.43-18.36,39.87,19,84.71,84,142.51,106,30.5,11.63,35.32-22.14,82.12-7.33,119.62,37.86,169,165.08,268.75,212.37,25,11.85,47.86,21,67.8,22.51"/><path class="cls-31" d="M1.34,461c43.53,58.17,34.87,198.28,72.9,179.46,25.87-12.79,23.43-48.39,42.07-59.26,16.63-9.7,34.84,28.36,54.54,65.85,23.77,45.23,45.91,81.68,84.3,69.2C317,696.15,312.36,618.63,340.59,562c17.06-34.23,26.83,24.06,52.29,12.93,58-25.33,77.54-178,144.43-168.12,68,10.1,71.94,117,107.55,161.18,5.8,7.2,14.22,9.42,24.76,6.68,32.38,18.82,55.91-38,65.91-42.65,5.19-15.73,17-30.18,47.48-16.11,39.64,18.3,84.74,79.85,142.71,101,30,10.95,35.59-21.14,81.31-7.16,121.82,37.25,172.11,162.6,272.41,210.42,25.23,12,48.15,21.55,67.9,23.45"/><path class="cls-32" d="M1.31,448.91c42.12,56.9,34.37,191.72,71.17,174.75,25-11.56,23-45,41.18-54.8,16.24-8.77,33.92,28.14,53.1,64.23C190.2,677.19,212,712,249.14,700c63.05-20.35,57.71-99.16,86.37-156.22C353,509.06,362.77,570,389,559.2,448,534.91,467.6,379.06,535.09,388.35c67.12,9.25,72.45,112.41,107.15,158,5.6,7.35,13.76,9.89,23.93,7.62,31.81,20.79,56.06-34.45,66.24-36.64,5.24-14,17.29-27.4,47.53-13.87,39.4,17.65,84.77,75.74,142.92,95.95,29.59,10.28,35.86-20.16,80.49-7,124.05,36.6,175.19,160.13,276.06,208.47,25.47,12.21,48.46,22.06,68,24.4"/><path class="cls-33" d="M1.27,436.82C42,492.45,35.16,622,70.71,606.84,95,596.52,93.39,565.22,111,556.51c15.87-7.84,33,27.92,51.67,62.61,23.11,43,44.61,76.14,80.47,64.66,64.25-20.59,58.19-100.69,87.28-158.16,17.85-35.24,27.7,28.27,54.63,17.87,60.18-23.24,79.72-182.21,147.82-173.56,66.2,8.4,73,107.82,106.75,154.79,5.4,7.5,13.29,10.36,23.1,8.57,31.24,22.76,56.21-30.91,66.57-30.64,5.28-12.34,17.56-24.63,47.58-11.62C816,508,861.66,562.67,920,581.94c29.13,9.62,36.14-19.21,79.68-6.83C1126,611,1178,732.76,1279.38,781.62c25.72,12.39,48.77,22.58,68.11,25.35"/><path class="cls-34" d="M1.23,424.72C40.55,479.08,34.64,603.3,69,590c23.43-9.07,22.32-38.23,39.39-45.85,15.51-6.92,32.12,27.69,50.24,61,22.78,41.85,44,73.39,78.55,62.4,65.46-20.81,58.68-102.23,88.21-160.1,18.23-35.74,28.13,30.38,55.8,20.35,61.28-22.22,80.8-184.27,149.51-176.29,65.29,7.58,73.52,103.23,106.35,151.59,5.2,7.66,12.82,10.83,22.27,9.52,30.67,24.73,56.35-27.37,66.9-24.63,5.32-10.64,17.82-21.86,47.63-9.38,38.94,16.32,84.8,67.56,143.32,85.88,28.67,9,36.43-18.26,78.87-6.67,128.54,35.13,181.36,155.19,283.37,204.57,26,12.56,49.06,23.09,68.2,26.29"/><path class="cls-35" d="M1.19,412.63c37.92,53.09,32.93,172,66,160.57,22.63-7.83,22-34.84,38.51-41.38,15.15-6,31.21,27.47,48.8,59.35,22.45,40.71,43.32,70.63,76.63,60.13,66.68-21,59.18-103.76,89.13-162,18.63-36.25,28.57,32.46,57,22.81,62.4-21.2,81.88-186.31,151.22-179,64.36,6.77,74.07,98.63,105.94,148.4,5,7.81,12.36,11.3,21.43,10.47,30.11,26.69,56.51-23.83,67.24-18.63,5.36-8.95,18.09-19.09,47.68-7.13,38.71,15.65,84.8,63.49,143.53,80.84,28.2,8.33,36.7-17.34,78-6.5,130.8,34.29,184.44,152.71,287,202.61,26.2,12.75,49.37,23.61,68.31,27.24"/><path class="cls-36" d="M1.15,400.53C37.67,452.35,33.61,566,65.42,556.38c21.82-6.59,21.63-31.44,37.61-36.9,14.8-5.06,30.32,27.24,47.37,57.72,22.13,39.58,42.67,67.88,74.72,57.86,67.89-21.24,59.67-105.29,90-164,19-36.75,29,34.55,58.15,25.28,63.51-20.2,83-188.33,152.91-181.73,63.44,6,74.64,94,105.54,145.2,4.81,8,11.89,11.78,20.6,11.42C681.9,499.93,709,451,719.93,458.64c5.41-7.25,18.36-16.33,47.73-4.89,38.47,15,84.81,59.45,143.73,75.81,27.73,7.69,37-16.43,77.24-6.33,133.09,33.38,187.53,150.24,290.68,200.66,26.44,12.92,49.66,24.12,68.4,28.18"/><path class="cls-37" d="M1.11,388.44c35.12,50.55,32,158.87,62.54,151.12,21-5.34,21.31-28,36.73-32.43,14.46-4.12,29.42,27,45.93,56.1,21.81,38.44,42,65.13,72.8,55.59,69.11-21.44,60.16-106.82,91-165.9,19.43-37.26,29.45,36.62,59.31,27.75C434,461.46,453.44,290.34,524,296.21c62.52,5.2,75.23,89.44,105.14,142,4.62,8.12,11.43,12.25,19.77,12.37,29,30.63,56.81-16.75,67.9-6.62,5.45-5.56,18.63-13.56,47.77-2.64,38.25,14.32,84.81,55.42,143.94,70.77,27.26,7.07,37.29-15.54,76.43-6.17,135.38,32.41,190.61,147.78,294.33,198.71,26.68,13.1,50,24.64,68.51,29.14"/><path class="cls-38" d="M1.08,376.34c33.71,49.29,31.54,152.32,60.8,146.4,20.24-4.09,21-24.62,35.84-27.95,14.14-3.18,28.53,26.77,44.49,54.47,21.5,37.31,41.4,62.38,70.89,53.32C283.43,581,273.76,494.22,305,434.74c19.83-37.75,29.9,38.7,60.49,30.22,65.76-18.22,85.13-192.3,156.31-187.18,61.59,4.43,75.82,84.84,104.73,138.81,4.43,8.28,11,12.72,18.94,13.32,28.4,32.61,56.95-13.21,68.23-.61,5.49-3.86,18.9-10.79,47.82-.4,38,13.66,84.8,51.43,144.15,65.73,26.78,6.46,37.57-14.65,75.61-6C1119,520,1175,633.94,1279.25,685.39c26.93,13.29,50.28,25.16,68.62,30.09"/><path class="cls-39" d="M1,364.25c32.31,48,31.09,145.76,59.08,141.67,19.45-2.84,20.69-21.19,34.95-23.48,13.82-2.22,27.65,26.55,43.05,52.85,21.19,36.17,40.76,59.64,69,51.05,71.56-21.79,61.15-109.89,92.81-169.77,20.22-38.26,30.34,40.76,61.65,32.69,66.9-17.25,87.36-203.41,158-189.91C579.28,270.76,596,339.59,623.9,395c4.24,8.43,10.49,13.19,18.1,14.27,27.84,34.57,57.11-9.67,68.57,5.38,5.53-2.16,19.17-8,47.87,1.85,37.79,13,84.79,47.46,144.35,60.7,26.31,5.86,37.86-13.79,74.8-5.83,140,30.18,196.77,142.84,301.64,194.81,27.17,13.46,50.57,25.67,68.71,31"/><path class="cls-40" d="M1,352.15c30.91,46.75,30.65,139.22,57.35,137,18.67-1.58,20.43-20.6,34.06-19s26.77,26.3,41.62,51.22c20.89,35,40.11,56.9,67.06,48.78,72.79-22,61.65-111.41,93.73-171.71,20.62-38.76,30.79,42.83,62.83,35.16,68-16.28,88.29-205.06,159.7-192.63,59,10.27,77.07,75.65,103.93,132.42,4.06,8.59,10,13.67,17.27,15.22,27.27,36.55,57.26-6.13,68.91,11.39,5.57-.46,19.43-5.24,47.91,4.1,37.56,12.32,84.78,43.5,144.55,55.66,25.84,5.26,38.16-12.94,74-5.66C1116.25,483,1173.67,594.62,1279.2,646.9c27.39,13.7,50.88,26.19,68.82,32"/><path class="cls-41" d="M1,340.06C30.47,385.53,31.2,471,56.59,472.28c17.86.94,20.35-17,33.16-14.53,13,2.55,25.9,26.07,40.19,49.59,20.59,33.89,39.47,54.17,65.14,46.52,74-22.09,62.15-112.94,94.66-173.64,21-39.26,31.23,44.88,64,37.62,69.19-15.32,89.22-206.65,161.4-195.35,58.2,9.11,77.71,71.05,103.52,129.23,3.89,8.75,9.57,14.13,16.45,16.17,26.7,38.51,57.41-2.59,69.24,17.39,5.61,1.23,19.7-2.48,48,6.34,37.33,11.65,84.77,39.58,144.76,50.63,25.36,4.67,38.44-12.1,73.17-5.49,144.68,27.53,202.84,138.09,308.94,190.9,27.63,13.87,51.18,26.69,68.92,32.92"/><path class="cls-42" d="M.92,328C29,372.17,30.7,454.12,54.82,455.47c17.12.95,20.27-13.42,32.28-10.07,12.48,3.49,25,25.83,38.75,48,20.3,32.75,38.83,51.44,63.23,44.25,75.27-22.2,62.64-114.47,95.57-175.58,21.42-39.76,31.69,46.94,65.17,40.1C420.17,387.77,440,194,512.92,204.06c57.42,7.94,78.36,66.47,103.11,126,3.7,8.9,9.1,14.6,15.62,17.11,26.13,40.49,57.56,1,69.57,23.4,5.65,2.93,20,.29,48,8.59,37.09,11,84.75,35.69,145,45.59,24.89,4.1,38.73-11.28,72.36-5.33,147,26,205.93,135.61,312.6,189,27.87,14.05,51.48,27.21,69,33.87"/><path class="cls-43" d="M.88,315.87C27.59,358.8,30.23,435.52,53.06,438.65c16.34,2.23,19.54-7.27,31.38-5.59,12.64,1.79,24.17,25.58,37.32,46.34,20,31.59,38.19,48.71,61.31,42,76.52-22.29,63.15-116,96.49-177.51,21.83-40.26,32.14,49,66.34,42.56C417.41,373,437,176.85,510.7,185.63c56.65,6.76,79,61.88,102.71,122.84,3.52,9.06,8.64,15.08,14.78,18.06C653.76,369,685.9,331,698.1,355.94c5.69,4.62,20.24,3.05,48.06,10.83C783,377.08,830.9,398.6,891.32,407.33c24.42,3.53,39-10.47,71.55-5.16,149.39,24.38,209,133.13,316.25,187,28.12,14.23,51.79,27.73,69.12,34.82"/><path class="cls-44" d="M.85,303.77c25.3,41.67,28.91,113.17,50.44,118.06,15.57,3.53,19.25-3.72,30.5-1.12,12.33,2.86,23.31,25.34,35.88,44.72,19.74,30.44,37.55,46,59.39,39.7,77.78-22.34,63.65-117.52,97.42-179.44,22.23-40.75,32.59,51,67.51,45C414.67,358.25,434,159.8,508.48,167.21c55.88,5.56,79.71,57.29,102.31,119.64,3.35,9.22,8.17,15.54,14,19,25,44.43,53.75,10.3,70.24,35.41,4.68,7.13,20.5,5.81,48.11,13.08,36.63,9.64,84.73,28,145.37,35.52,23.95,3,39.28-9.68,70.73-5,151.75,22.58,212.1,130.66,319.9,185,28.36,14.41,52.09,28.24,69.23,35.76"/><path class="cls-45" d="M.81,291.68C24.71,332.07,29.28,398.38,49.52,405c14.79,4.84,18.94-.16,29.61,3.36,12,3.95,22.47,25.08,34.45,43.09,19.47,29.27,36.92,43.25,57.48,37.43,79-22.37,64.14-119,98.33-181.37,22.63-41.26,33.06,53.07,68.68,47.5,73.86-11.54,93-212.19,168.2-206.24,55.09,4.35,80.39,52.71,101.9,116.44,3.17,9.38,7.7,16,13.12,20,24.43,46.4,54.72,13.19,70.57,41.42,4.84,8.61,20.77,8.58,48.15,15.32,36.41,9,84.74,24.21,145.58,30.49,23.49,2.42,39.55-8.89,69.92-4.83,154.11,20.61,215.19,128.17,323.56,183.09,28.6,14.59,52.39,28.76,69.33,36.72"/><path class="cls-46" d="M.77,279.59c22.5,39.12,28,100.24,47,108.6,14,6.17,18.6,3.43,28.72,7.83,11.66,5.08,21.63,24.83,33,41.47,19.22,28.1,36.28,40.53,55.56,35.16,80.32-22.35,64.65-120.57,99.26-183.31,23-41.75,33.51,55.11,69.85,50,75-10.61,94-213.35,169.89-209,54.3,3.14,81.09,48.14,101.5,113.25,3,9.54,7.24,16.49,12.29,20.91,23.86,48.36,55.55,16.27,70.9,47.42,5,10.15,21,11.34,48.2,17.56,36.18,8.3,84.74,20.46,145.78,25.46,23,1.88,39.81-8.12,69.11-4.66C1108.3,368.73,1170.11,476,1279,531.43c28.85,14.76,52.69,29.27,69.43,37.66"/><path class="cls-47" d="M.73,267.49C21.83,305.34,28.28,361.3,46,371.37c13.2,7.5,18.24,7,27.83,12.31,11.28,6.22,20.8,24.56,31.58,39.84,19,26.92,35.64,37.81,53.64,32.89,81.61-22.28,65.15-122.09,100.18-185.25,23.44-42.24,34,57.16,71,52.45,76.23-9.69,95-214.42,171.59-211.69,53.51,1.91,81.8,43.58,101.1,110.05,2.82,9.71,7.64,16.26,11.45,21.86,31.24,45.84,56.27,19.49,71.24,53.42,5.18,11.74,21.31,14.11,48.25,19.82,36,7.62,84.76,16.74,146,20.42,22.57,1.35,40-7.36,68.29-4.5C1107,349.07,1169.51,456.2,1279,512.18c29.09,14.94,53,29.79,69.53,38.61"/><path class="cls-48" d="M.69,255.4c19.7,36.58,27.06,87.38,43.54,99.15,12.37,8.85,17.84,10.62,26.93,16.78,10.87,7.37,20,24.29,30.15,38.22,18.77,25.72,35,35.09,51.72,30.62C236,418,218.68,316.55,254.14,253c23.84-42.75,34.44,59.18,72.19,54.91,77.43-8.76,96.16-210.68,173.28-214.41,52.64-2.54,82.52,39,100.7,106.86,2.64,9.87,7.06,16.9,10.62,22.81C640.41,272,667.83,246,682.5,282.58c5.35,13.34,21.58,16.87,48.3,22.06,35.72,6.94,85.18,8,146.19,15.39,22,2.65,40.29-6.61,67.48-4.33,161.14,13.48,224.45,120.73,334.52,177.23,29.33,15.12,53.29,30.31,69.63,39.56"/><path class="cls-49" d="M.65,243.3C19,278.61,27.2,324.25,42.46,337.73,54,347.92,59.89,351.94,68.51,359c10.41,8.51,19.17,24,28.71,36.58C115.8,420.08,131.58,428,147,423.93c84.24-21.93,66.28-125.07,102-189.12C273.38,191.62,284,296,322.41,292.2c78.63-7.85,97.31-212.37,175-217.14,51.78-3.18,83.24,34.47,100.29,103.66,2.47,10,6.46,17.53,9.79,23.76,27.62,51.71,57.45,26.15,71.9,65.43,5.51,15,21.86,19.58,48.35,24.31,35.5,6.19,85,5.21,146.39,10.34,21.61,1.81,40.51-2.44,66.67-4.16,163.44-10.71,227.54,118.26,338.17,175.29,29.58,15.29,53.6,30.82,69.74,40.5"/><path class="cls-50" d="M.62,231.21c16.89,34,26,74.51,40.08,89.7,10.68,11.53,17,17.78,25.15,25.73,9.94,9.65,18.37,23.71,27.28,35,18.41,23.26,33.72,29.67,47.89,26.09,85.59-21.61,66.75-126.61,102.94-191,24.72-43.7,35.39,63.25,74.54,59.85,79.84-6.92,98.46-214,176.68-219.86,50.93-3.81,84,29.92,99.89,100.47a114.87,114.87,0,0,0,9,24.71c25.7,54.49,57.94,29.55,72.24,71.43,5.66,16.61,22.12,22.35,48.39,26.55,35.26,5.53,84.93,2.55,146.6,5.31,21.22,1,40.72-2.55,65.85-4,165.61-9.53,230.63,115.77,341.83,173.33,29.82,15.47,53.9,31.33,69.83,41.45"/><path class="cls-51" d="M.58,219.11c15.49,32.78,25.44,68.06,38.35,85,9.81,12.86,16.51,21.34,24.27,30.2C72.63,345.06,80.77,357.7,89,367.63c18.3,22,33.08,27,46,23.82,87-21.16,67.23-128.16,103.87-193,25.1-44.2,35.85,65.28,75.7,62.32,81.06-6,99.63-215.6,178.38-222.58,50.1-4.43,84.71,25.39,99.49,97.28a136.94,136.94,0,0,0,8.12,25.65c23.77,57.16,58.4,33,72.58,77.44,5.82,18.26,22.38,25.12,48.44,28.8,35,4.86,84.95,2.29,146.8.27,20.82-.68,40.92-2.67,65-3.83,167.79-8,233.71,113.3,345.48,171.39,30.07,15.65,54.2,31.84,69.94,42.39"/><path class="cls-52" d="M.54,207c14.09,31.5,24.86,61.59,36.62,80.25,8.94,14.18,16,24.88,23.38,34.68,8.91,11.87,16.79,23.09,24.4,31.71,18.22,20.64,32.44,24.25,44.07,21.55,88.37-20.52,67.69-129.7,104.78-194.92,25.49-44.72,36.33,67.3,76.88,64.79C393,240,411.47,27.9,490.75,19.77c49.26-5,85.44,20.85,99.08,94.08a163.32,163.32,0,0,0,7.29,26.61c21.82,59.7,58.82,36.43,72.91,83.44,6,19.91,22.65,27.89,48.49,31,34.79,4.2,85-1.21,147-4.76,20.41-1.17,41.07-2.82,64.23-3.66,170-6.19,236.8,110.82,349.13,169.43a606.44,606.44,0,0,1,70,43.35"/><path class="cls-53" d="M.5,194.92C64.71,348,101.06,363.77,123,359c89.83-19.64,68.17-131.24,105.71-196.86,25.87-45.22,36.81,69.33,78,67.26,83.51-4.19,102-218.71,181.78-228C537-4.31,574.72,17.67,587.21,92.23c16.13,96.39,63.92,61.27,79.7,117,17,60.08,116.9,23.28,259.16,20,172.15-4,239.89,108.33,352.79,167.47A531.33,531.33,0,0,1,1349,441"/></g></g></g></svg>