<svg xmlns="http://www.w3.org/2000/svg" viewBox="0 0 631.5 925.23"><defs><style>.cls-1{opacity:0.74;}.cls-10,.cls-11,.cls-12,.cls-13,.cls-14,.cls-15,.cls-16,.cls-17,.cls-18,.cls-19,.cls-2,.cls-20,.cls-21,.cls-22,.cls-23,.cls-24,.cls-25,.cls-26,.cls-27,.cls-28,.cls-29,.cls-3,.cls-30,.cls-31,.cls-32,.cls-33,.cls-34,.cls-35,.cls-36,.cls-37,.cls-38,.cls-39,.cls-4,.cls-40,.cls-41,.cls-42,.cls-43,.cls-44,.cls-45,.cls-46,.cls-47,.cls-48,.cls-49,.cls-5,.cls-50,.cls-51,.cls-52,.cls-53,.cls-6,.cls-7,.cls-8,.cls-9{fill:none;stroke:#fff;stroke-linecap:round;}.cls-10,.cls-11,.cls-12,.cls-13,.cls-14,.cls-15,.cls-16,.cls-17,.cls-18,.cls-19,.cls-2,.cls-20,.cls-21,.cls-22,.cls-23,.cls-24,.cls-25,.cls-26,.cls-27,.cls-28,.cls-29,.cls-30,.cls-31,.cls-32,.cls-33,.cls-34,.cls-35,.cls-36,.cls-37,.cls-38,.cls-39,.cls-40,.cls-41,.cls-42,.cls-43,.cls-44,.cls-45,.cls-46,.cls-47,.cls-48,.cls-49,.cls-50,.cls-51,.cls-52,.cls-53,.cls-6,.cls-7,.cls-9{stroke-miterlimit:10;}.cls-3,.cls-4,.cls-5{stroke-miterlimit:10;}.cls-3{opacity:0.98;}.cls-4{opacity:0.96;}.cls-5{opacity:0.94;}.cls-6{opacity:0.92;}.cls-7{opacity:0.9;}.cls-8{stroke-miterlimit:10;opacity:0.88;}.cls-9{opacity:0.86;}.cls-10{opacity:0.84;}.cls-11{opacity:0.83;}.cls-12{opacity:0.81;}.cls-13{opacity:0.79;}.cls-14{opacity:0.77;}.cls-15{opacity:0.75;}.cls-16{opacity:0.73;}.cls-17{opacity:0.71;}.cls-18{opacity:0.69;}.cls-19{opacity:0.67;}.cls-20{opacity:0.65;}.cls-21{opacity:0.63;}.cls-22{opacity:0.61;}.cls-23{opacity:0.59;}.cls-24{opacity:0.57;}.cls-25{opacity:0.55;}.cls-26{opacity:0.53;}.cls-27{opacity:0.51;}.cls-28{opacity:0.5;}.cls-29{opacity:0.48;}.cls-30{opacity:0.46;}.cls-31{opacity:0.44;}.cls-32{opacity:0.42;}.cls-33{opacity:0.4;}.cls-34{opacity:0.38;}.cls-35{opacity:0.36;}.cls-36{opacity:0.34;}.cls-37{opacity:0.32;}.cls-38{opacity:0.3;}.cls-39{opacity:0.28;}.cls-40{opacity:0.26;}.cls-41{opacity:0.24;}.cls-42{opacity:0.22;}.cls-43{opacity:0.2;}.cls-44{opacity:0.18;}.cls-45{opacity:0.17;}.cls-46{opacity:0.15;}.cls-47{opacity:0.13;}.cls-48{opacity:0.11;}.cls-49{opacity:0.09;}.cls-50{opacity:0.07;}.cls-51{opacity:0.05;}.cls-52{opacity:0.03;}.cls-53{opacity:0.01;}</style></defs><g id="Layer_2" data-name="Layer 2"><g id="Layer_1-2" data-name="Layer 1"><g class="cls-1"><path class="cls-2" d="M1.41,542.86c39.37,63.51,23.2,259.78,57.51,211.58,23.32-32.76,16.57-98.32,31.74-126.36,13.45-24.86,29,23.1,45,75.55,15.86,52.15,31.08,111.24,65.39,90.25,36.06-22.06,31.83-196.74,80.54-164.46,51.45,34.1,19.29,222.33,78.62,155.77,42.31-47.46,10.58-242,47.84-199.22,21.75,25,37.75,135,63.95,165.13,19.21,22,16.2-41,49.05-8C558.27,780.51,561.91,959,629.2,918.9"/><path class="cls-3" d="M1.4,534.77c38.7,62.65,23,255.39,56.69,208.4C81,711.25,74.47,647.15,89.4,619.8c13.27-24.21,28.57,22.94,44.28,74.46S164.34,803.42,198.2,783c13.51-8.14,21-36.72,28.07-67.73,2.82-12.09,5.45-22.49,8.31-34,10.43-41.81,21.3-80.15,45.93-64.23,45.38,29.33,25.83,178.75,61.5,167,4.54-1.49,9.89-5.68,16.51-12.92,26.23-28.68,24-116.27,27.8-165,2.16-28.34,6.55-44.07,20-28.64,21.63,24.65,38,132.29,64.27,161.83,19.12,21.5,15.85-39.85,48.66-7.91,29.44,28.67,39,140.59,72.82,172.25,10,9.32,22,11.7,37.12,2.91"/><path class="cls-4" d="M1.38,526.69c38,61.79,22.71,251,55.87,205.21,22.55-31.07,16.2-93.72,30.9-120.37,13.07-23.57,28.14,22.77,43.6,73.35S162,792,195.39,772.17c14-8.32,21.09-37.76,28.5-69,3-12.46,5.76-21.09,8.87-32.4,11.29-40.95,21.92-81.61,46.72-66,45.08,28.41,26.17,175.6,61.19,164.9,4.46-1.37,9.65-5.5,16.2-12.47,25.66-27.29,24.19-113.27,28-160.3,2.21-27.58,6.53-42.88,19.88-27.69,21.5,24.33,38.26,129.53,64.58,158.53,19,21,15.53-38.7,48.27-7.8,30.11,28.43,40.43,139.22,74.66,171,10,9.34,22,11.9,37,3.44"/><path class="cls-5" d="M1.36,518.6c37.38,60.93,22.48,246.61,55.06,202,22.16-30.23,16-91.42,30.48-117.38,12.88-22.92,27.71,22.6,42.91,72.26,15.47,49.92,29.84,105.07,62.77,85.8,14.55-8.51,21.26-38.79,28.93-70.28,3.12-12.83,6.07-19.68,9.44-30.82,12.13-40.07,22.52-83.08,47.49-67.75C323.22,620,305,764.92,339.33,755.23c4.38-1.24,9.4-5.31,15.9-12,25.08-25.91,24.34-110.28,28.12-155.63,2.24-26.83,6.53-41.69,19.72-26.75,21.38,24,38.51,126.77,64.9,155.23,18.93,20.41,15.24-37.55,47.88-7.68,30.81,28.2,41.89,137.86,76.5,169.84,10.13,9.37,22.11,12.11,36.95,4"/><path class="cls-6" d="M1.34,510.52c36.73,60.06,22.24,242.21,54.24,198.84C77.37,680,71.35,620.2,85.65,595c12.63-22.3,27.17,22.47,42.23,71.16,15.22,49.23,29.45,103,61.9,84.32,15.07-8.7,21.43-39.82,29.35-71.55,3.29-13.2,6.37-18.28,10-29.24,13-39.2,23.13-84.55,48.27-69.52,44.47,26.58,26.84,169.32,60.58,160.64,4.31-1.11,9.17-5.12,15.6-11.55,24.51-24.54,24.49-107.29,28.29-151,2.26-26.06,6.47-40.46,19.56-25.79,21.18,23.75,38.75,124,65.21,151.93,18.82,19.86,15-36.43,47.49-7.57,31.52,28,43.35,136.49,78.35,168.63,10.21,9.4,22.18,12.32,36.86,4.51"/><path class="cls-7" d="M1.32,502.43c36.07,59.2,22,237.82,53.43,195.66,21.4-28.54,15.56-86.87,29.64-111.4C96.82,565,111.11,609,125.94,656.76c15.07,48.49,29.08,101,61,82.84,15.59-8.89,21.62-40.86,29.78-72.84,3.46-13.56,6.68-16.86,10.56-27.66,13.78-38.3,23.73-86,49.06-71.28C320.51,593.5,303.52,734,336.64,726.34c4.23-1,8.92-4.94,15.29-11.11,24-23.17,24.65-104.28,28.45-146.29,2.3-25.3,6.45-39.27,19.4-24.85,21.05,23.45,39,121.24,65.53,148.63C484,712,480.06,657.4,512.4,685.26s44.83,135.14,80.2,167.43c10.3,9.43,22.25,12.52,36.77,5"/><path class="cls-8" d="M1.31,494.34c35.4,58.35,21.76,233.43,52.6,192.48,21-27.69,15.37-84.58,29.23-108.41,12.22-21,26.26,22.16,40.87,69,14.9,47.76,28.7,99.07,60.15,81.36,16.12-9.08,21.8-41.89,30.2-74.11,3.64-13.93,7-15.45,11.13-26.08,14.58-37.41,24.33-87.49,49.84-73,43.81,24.79,27.45,163.06,60,156.39,4.16-.85,8.68-4.76,15-10.65C373.7,679.41,375.08,600,378.9,559.62c2.32-24.55,6.43-38.08,19.23-23.9C419,558.86,437.36,654.19,464,681.05c18.61,18.77,14.55-34.23,46.7-7.35,33,27.59,46.29,133.77,82,166.23,10.39,9.45,22.33,12.72,36.69,5.57"/><path class="cls-9" d="M1.29,486.26c34.75,57.48,21.43,229,51.79,189.29,20.57-26.9,15.16-82.29,28.81-105.42,12-20.37,25.8,22,40.18,67.88,14.75,47,28.35,97.09,59.28,79.87,16.65-9.26,22-42.91,30.63-75.39,3.81-14.3,7.28-14,11.7-24.5,15.36-36.5,24.91-89,50.61-74.81C317.75,567.09,302,703.11,334,697.45c4.07-.73,8.43-4.59,14.69-10.2,22.88-20.51,24.95-98.29,28.77-137,2.36-23.78,6.41-36.87,19.08-22.95,20.77,22.84,39.45,115.7,66.16,142,18.49,18.24,14.37-33.16,46.31-7.23,33.77,27.41,47.75,132.41,83.88,165,10.48,9.48,22.4,12.93,36.6,6.11"/><path class="cls-10" d="M1.27,478.17c34.09,56.62,21.18,224.57,51,186.11,20.18-26.06,15-80,28.39-102.43,11.81-19.73,25.36,21.85,39.51,66.78,14.59,46.3,28,95.13,58.4,78.39,17.18-9.45,22.19-43.94,31.06-76.66,4-14.67,7.58-12.61,12.26-22.93,16.14-35.59,25.5-90.42,51.4-76.58,43.1,23,28,156.81,59.35,152.15,4-.59,8.18-4.42,14.38-9.74C369.36,654.06,372.1,578,375.93,541c2.38-23,6.39-35.68,18.91-22,20.63,22.53,39.68,112.92,66.48,138.73,18.37,17.69,14.21-32.11,45.92-7.12,34.56,27.23,49.22,131,85.72,163.81,10.56,9.51,22.48,13.14,36.52,6.64"/><path class="cls-11" d="M1.25,470.09C34.68,525.84,22.18,690.25,51.41,653c19.78-25.21,14.76-77.7,28-99.43,11.61-19.09,24.9,21.7,38.82,65.69,14.43,45.57,27.65,93.18,57.53,76.91,17.71-9.65,22.39-45,31.49-77.95,4.15-15,7.87-11.17,12.82-21.34,16.89-34.67,26.08-91.9,52.18-78.35,42.74,22.19,28.26,153.69,59,150,3.91-.46,7.95-4.25,14.09-9.28,21.86-17.91,25.25-92.3,29.09-127.63,2.42-22.25,6.37-34.47,18.75-21.05,20.5,22.23,39.9,110.15,66.8,135.44,18.24,17.14,14.09-31.08,45.53-7,35.36,27.05,50.68,129.68,87.57,162.6,10.64,9.54,22.54,13.35,36.43,7.18"/><path class="cls-12" d="M1.24,462C34,516.89,21.91,677.76,50.57,641.73,70,617.36,65.14,566.32,78.13,545.3c11.4-18.46,24.44,21.53,38.14,64.59,14.27,44.83,27.31,91.24,56.65,75.42,18.24-9.83,22.59-46,31.92-79.22,4.32-15.4,8.15-9.75,13.38-19.77,17.63-33.75,26.65-93.36,53-80.11,42.36,21.34,28.49,150.56,58.74,147.9,3.82-.34,7.7-4.1,13.78-8.83,21.39-16.65,25.41-89.3,29.26-123,2.45-21.49,6.35-33.28,18.59-20.1,20.35,21.93,40.1,107.37,67.11,132.13,18.11,16.61,14-30.06,45.14-6.9,36.17,26.89,52.14,128.32,89.41,161.41,10.73,9.56,22.62,13.54,36.34,7.71"/><path class="cls-13" d="M1.22,453.92c32.11,54,20.42,211.35,48.52,176.54,19-23.54,14.36-73.12,27.13-93.44,11.2-17.81,24,21.38,37.47,63.49,14.1,44.11,27,89.32,55.78,73.94,18.77-10,22.78-47,32.34-80.5,4.5-15.77,8.43-8.31,13.94-18.19,18.34-32.82,27.22-94.82,53.75-81.87,42,20.5,29.36,152.2,58.42,145.77,3.66-.81,7.46-3.95,13.48-8.38C363,615.89,367.63,545,371.47,513c2.5-20.73,6.34-32.09,18.43-19.15,20.22,21.62,40.31,104.59,67.43,128.83,18,16.07,13.9-29.07,44.75-6.79,37,26.73,53.6,127,91.25,160.2,10.82,9.59,22.69,13.75,36.26,8.24"/><path class="cls-14" d="M1.2,445.83c31.45,53.17,20.17,207,47.7,173.36,18.61-22.7,14.16-70.84,26.72-90.45,11-17.17,23.54,21.22,36.78,62.4,13.95,43.37,26.65,87.4,54.91,72.45,19.3-10.2,23-48,32.77-81.77,4.67-16.14,8.7-6.89,14.51-16.61,19-31.91,27.78-96.29,54.52-83.64,41.57,19.66,29.49,149.53,58.12,143.65,3.57-.74,7.22-3.81,13.18-7.93C360.93,603.11,366.14,534,370,503.67c2.53-20,6.31-30.88,18.26-18.2C408.34,506.79,428.76,587.28,456,611c17.84,15.54,13.84-28.09,44.36-6.67,37.85,26.56,55.07,125.59,93.09,159,10.91,9.62,22.77,14,36.17,8.78"/><path class="cls-15" d="M1.18,437.74C32,490.05,21.1,640.29,48.07,607.92c18.21-21.87,14-68.55,26.3-87.46,10.78-16.53,23.09,21.07,36.1,61.3,13.79,42.65,26.33,85.49,54,71,19.84-10.4,23.2-49.08,33.19-83.06,4.86-16.5,9-5.45,15.08-15,19.7-31,28.33-97.74,55.3-85.4,41.16,18.84,29.57,146.84,57.82,141.52,3.49-.66,7.77-2.66,12.87-7.47,22.17-9.09,25.89-80.29,29.74-108.95,2.58-19.2,6.3-29.69,18.11-17.25,19.94,21,40.7,99,68.06,122.23,17.69,15,13.8-27.14,44-6.56,38.72,26.4,56.53,124.23,94.93,157.78,11,9.65,22.84,14.17,36.09,9.32"/><path class="cls-16" d="M1.16,429.66c30.14,51.44,19.68,198.14,46.07,167,17.82-21,13.76-66.26,25.88-84.47,10.59-15.89,22.64,20.91,35.42,60.21,13.64,41.91,26,83.59,53.16,69.49,20.37-10.58,23.41-50.1,33.62-84.33,5-16.87,9.25-4,15.64-13.45C231.31,514,239.84,444.89,267,456.93c40.74,18,29.59,144.14,57.5,139.39,3.42-.58,7.59-2.4,12.57-7C358.92,581.83,363.17,512,367,485c2.63-18.42,6.28-28.49,17.94-16.3,19.81,20.7,40.89,96.25,68.37,118.93,17.55,14.48,13.79-26.2,43.59-6.44,39.6,26.24,58,122.86,96.77,156.58,11.09,9.67,22.92,14.37,36,9.84"/><path class="cls-17" d="M1.15,421.57C30.62,472.16,20.57,615.31,46.4,585.38c17.43-20.19,13.56-64,25.46-81.48C82.24,488.64,94.05,524.66,106.6,563c13.47,41.19,25.7,81.7,52.28,68,20.91-10.76,23.62-51.12,34.05-85.61,5.21-17.23,9.51-2.58,16.2-11.87,21-29.14,29.44-100.66,56.87-88.93,40.32,17.24,29.56,141.43,57.2,137.27,3.34-.51,7.41-2.16,12.27-6.56,21.45-5.87,26.22-74.27,30.06-99.62,2.69-17.66,6.26-27.3,17.78-15.35C403,480.74,424.38,553.81,452,576c17.39,13.95,13.79-25.28,43.2-6.34,40.49,26.09,59.46,121.51,98.62,155.38,11.16,9.7,23,14.57,35.91,10.38"/><path class="cls-18" d="M1.13,413.49C29.94,463.21,20.3,602.81,45.56,574.11c17-19.36,13.36-61.69,25-78.49,10.17-14.62,21.74,20.6,34.05,58,13.32,40.46,25.4,79.81,51.41,66.53,21.45-10.95,23.84-52.15,34.48-86.89,5.39-17.6,9.76-1.15,16.76-10.3,21.61-28.22,30-102.11,57.65-90.69,39.88,16.45,29.48,138.69,56.9,135.14,3.26-.42,7.22-1.91,12-6.1,21.1-4.25,26.39-71.26,30.23-95,2.74-16.89,6.24-26.1,17.62-14.41,19.54,20.09,41.23,90.68,69,112.33,17.23,13.43,13.8-24.38,42.81-6.22C534.89,584,554.4,678.22,593.94,712.25,605.19,722,617,727,629.76,723.17"/><path class="cls-19" d="M1.11,405.4C29.26,454.26,20,590.32,44.73,562.84c16.64-18.52,13.16-59.41,24.63-75.5,10-14,21.28,20.44,33.37,56.93,13.16,39.72,25.09,77.92,50.54,65,22-11.13,24-53.17,34.9-88.17,5.57-18,10,.29,17.33-8.71C227.7,485.11,236,408.87,263.93,420c39.43,15.68,29.55,128.51,56.58,133,3.17.52,7-1.67,11.66-5.66,20.74-2.63,26.56-68.24,30.4-90.28,2.8-16.11,6.22-24.9,17.45-13.45,19.41,19.78,41.4,87.89,69.32,109,17.06,12.91,13.84-23.5,42.42-6.11,42.33,25.77,62.38,118.78,102.3,153,11.34,9.76,23.13,15,35.74,11.45"/><path class="cls-20" d="M1.09,397.31c27.5,48,18.67,180.52,42.8,154.26,16.26-17.69,13-57.13,24.21-72.51,9.77-13.34,20.84,20.29,32.69,55.83,13,39,24.79,76.06,49.67,63.56C173,587.14,174.72,544.26,185.79,509c5.75-18.33,10.25,1.72,17.89-7.14,22.77-26.41,31-105,59.21-94.22,39,14.92,29.63,125.31,56.28,130.89,3.07.64,6.86-1.41,11.36-5.2,20.38-1,26.73-65.22,30.55-85.61,2.88-15.34,6.21-23.71,17.29-12.51C397.65,454.7,419.93,520.34,448,541c16.88,12.4,13.89-22.64,42-6,43.27,25.6,63.85,117.41,104.14,151.75,11.43,9.79,23.21,15.2,35.65,12"/><path class="cls-21" d="M1.07,389.23c26.84,47.14,18.42,176.11,42,151.07,15.86-16.86,12.76-54.84,23.79-69.51,9.56-12.72,20.39,20.12,32,54.73,12.85,38.26,24.49,74.18,48.79,62.07,23.06-11.49,24.48-55.21,35.76-90.72,5.93-18.69,10.49,3.15,18.45-5.56,23.33-25.52,31.57-106.44,60-96,38.52,14.16,29.69,122.09,56,128.76,3,.76,6.68-1.16,11.06-4.74,20,.59,26.91-62.19,30.72-80.94,2.95-14.56,6.19-22.52,17.13-11.56,19.14,19.17,41.7,82.33,69.95,102.43,16.7,11.88,17.22-26.47,41.64-5.88,48,17.15,65.31,116.05,106,150.55,11.52,9.81,23.29,15.4,35.57,12.52"/><path class="cls-22" d="M1.06,381.14C27.23,427.42,19.22,552.84,42.22,529c15.47-16,12.56-52.56,23.38-66.52,9.35-12.08,19.94,20,31.33,53.63,12.69,37.54,24.19,72.33,47.91,60.6s24.7-56.24,36.18-92c6.13-19.06,10.73,4.58,19-4,23.87-24.64,32.09-107.88,60.78-97.75,38.05,13.43,29.72,118.85,55.66,126.64,2.86.86,6.5-.92,10.75-4.29,19.67,2.21,27.09-59.15,30.88-76.28,3.05-13.77,6.18-21.32,17-10.61,19,18.87,41.84,79.56,70.27,99.13,16.52,11.38,17.28-25.69,41.25-5.77,49.06,16.54,66.77,114.69,107.83,149.35,11.6,9.84,23.35,15.6,35.47,13.05"/><path class="cls-23" d="M1,373.06C26.56,418.47,19,540.35,41.39,517.76c15.08-15.19,12.36-50.28,23-63.53C73.49,442.78,83.84,474,95,506.77c12.54,36.8,23.9,70.47,47,59.11C166.18,554,167,508.62,178.64,472.6c6.31-19.42,11,6,19.59-2.4,24.39-23.77,32.6-109.3,61.55-99.51,37.57,12.7,29.76,115.57,55.36,124.51,2.76,1,6.31-.67,10.45-3.83,19.3,3.82,27.26-56.11,31-71.61,3.16-13,6.16-20.13,16.81-9.66,18.87,18.55,42,76.78,70.58,95.83,16.32,10.87,17.33-24.93,40.85-5.66C535,516.19,553.12,613.6,594.55,648.41c11.69,9.87,23.43,15.81,35.39,13.59"/><path class="cls-24" d="M1,365c24.86,44.55,17.67,162.88,39.53,141.52,14.69-14.36,12.17-48,22.54-60.54,9-10.82,19.06,19.65,30,51.44C105.44,533.47,116.67,566,139.22,555c24.69-12,25.14-58.28,37-94.55,6.49-19.79,11.18,7.42,20.15-.82,24.9-22.91,33.11-110.73,62.33-101.29,37.09,12,29.79,112.28,55.05,122.4,2.66,1.06,6.14-.43,10.15-3.38,18.95,5.43,27.44-53,31.2-66.95,3.29-12.16,6.15-18.93,16.65-8.7,18.74,18.24,42.09,74,70.9,92.53,16.12,10.37,17.38-24.17,40.46-5.55,51.09,15.3,69.71,112,111.52,146.93,11.77,9.9,23.5,16,35.3,14.13"/><path class="cls-25" d="M1,356.88c24.2,43.69,17.42,158.47,38.72,138.34,14.3-13.53,12-45.73,22.12-57.55,8.74-10.18,18.61,19.49,29.28,50.35,12.23,35.34,23.33,66.77,45.29,56.14,25.24-12.2,25.37-59.3,37.47-95.83,6.68-20.15,11.4,8.84,20.71.76C220,427,228.21,336.94,257.71,346c36.6,11.3,29.81,109,54.74,120.27,2.55,1.16,5.95-.17,9.84-2.93,18.59,7.06,27.63-49.95,31.37-62.27,3.44-11.35,6.13-17.74,16.48-7.76,18.61,17.94,42.21,71.23,71.22,89.23,15.92,9.88,17.44-23.4,40.07-5.43,52.11,14.68,71.17,110.6,113.36,145.73,11.86,9.92,23.58,16.22,35.22,14.65"/><path class="cls-26" d="M1,348.8C24.52,391.63,18.16,502.86,38.88,484c13.91-12.7,11.77-43.45,21.7-54.56,8.55-9.55,18.17,19.34,28.61,49.25,12.07,34.62,23,64.93,44.42,54.67,25.77-12.38,25.58-60.32,37.89-97.11,6.86-20.52,11.61,10.25,21.27,2.33,25.89-21.22,34.13-113.55,63.9-104.81,36.11,10.61,32.45,101.44,54.43,118.14,2.64.8,5.78.08,9.54-2.47,18.24,8.67,27.82-46.84,31.53-57.6,3.63-10.5,6.12-16.55,16.33-6.81C387,402.6,410.8,453.44,440,470.91c15.71,9.38,17.49-22.64,39.68-5.32,53.12,14.06,72.64,109.23,115.2,144.52,12,9.95,23.65,16.43,35.14,15.19"/><path class="cls-27" d="M1,340.71c22.88,42,16.92,149.65,37.08,132,13.52-11.87,11.57-41.18,21.28-51.57,8.35-8.93,17.73,19.18,27.92,48.16,11.92,33.88,22.76,63.09,43.55,53.18,26.32-12.55,25.81-61.34,38.32-98.39,7-20.87,11.82,11.66,21.83,3.92,26.37-20.41,34.63-115,64.68-106.58,35.61,9.93,32.74,98.08,54.13,116,2.55.9,5.59.32,9.24-2,17.88,10.28,26.36-44.52,31.69-52.94,2-10.16,6.1-15.35,16.16-5.86,18.35,17.32,42.4,65.71,71.85,82.63,15.49,8.91,17.54-21.86,39.29-5.2,54.13,13.44,74.1,107.87,117,143.31,12,10,23.72,16.63,35,15.72"/><path class="cls-28" d="M1,332.63c22.22,41.1,16.68,145.23,36.26,128.78,13.13-11,11.38-38.91,20.87-48.58,8.15-8.3,17.28,19,27.24,47.07,11.76,33.15,22.47,61.25,42.67,51.69,26.87-12.71,26-62.36,38.75-99.66,7.23-21.24,12,13.06,22.4,5.49,26.83-19.6,35.12-116.35,65.46-108.34,35.1,9.27,33,94.73,53.82,113.89,2.47,1,5.4.57,8.93-1.56,17.52,11.9,26.46-41.53,31.85-48.27,2-9.41,6.1-14.16,16-4.91,18.23,17,42.49,62.95,72.17,79.33,15.27,8.43,17.6-21.1,38.9-5.1C531.42,455.28,551.83,549,595.16,584.57c12.12,10,23.79,16.84,35,16.26"/><path class="cls-29" d="M.93,324.54c21.56,40.24,16.44,140.81,35.45,125.6,12.74-10.21,11.18-36.64,20.45-45.59,7.94-7.67,16.84,18.86,26.55,46,11.62,32.43,22.2,59.42,41.8,50.21,27.42-12.88,26.26-63.37,39.17-100.94,7.43-21.6,12.25,14.46,23,7.07,27.29-18.8,35.61-117.73,66.24-110.1,34.59,8.62,33.32,91.38,53.51,111.77,2.39,1.1,5.23.82,8.63-1.11,17.17,13.51,26.56-38.55,32-43.6,2-8.65,6.08-13,15.84-4,18.09,16.7,42.57,60.21,72.48,76,15,8,17.65-20.33,38.51-5,56.16,12.2,77,105.15,120.73,140.91,12.21,10,23.87,17,34.87,16.79"/><path class="cls-30" d="M.91,316.46c20.9,39.38,16.19,136.39,34.63,122.41,12.36-9.38,11-34.37,20-42.59C63.33,389.22,72,415,81.45,441.15c11.46,31.69,21.92,57.59,40.92,48.73,28-13.05,26.49-64.4,39.6-102.23,7.62-22,12.45,15.86,23.53,8.66,27.75-18,36.11-119.11,67-111.87,34.08,8,33.62,88,53.21,109.64,2.3,1.2,5,1.07,8.33-.65,16.8,15.12,26.65-35.56,32.17-38.94,2-7.89,6.07-11.77,15.68-3,18,16.38,42.64,57.47,72.8,72.73,14.81,7.49,17.7-19.57,38.12-4.87C530,430.92,551.32,523.12,595.4,559c12.29,10.06,23.94,17.25,34.79,17.32"/><path class="cls-31" d="M.89,308.37c20.25,38.52,16,132,33.82,119.22,12-8.55,10.8-32.09,19.61-39.59,7.56-6.44,16,18.54,25.19,43.77,11.32,31,21.65,55.77,40.05,47.25,28.53-13.2,26.72-65.41,40-103.5,7.8-22.32,12.65,17.23,24.09,10.23,28.21-17.25,36.59-120.47,67.81-113.63,33.55,7.35,30.24,88.29,52.89,107.51,2,1.67,4.87,1.32,8-.2,16.45,16.75,26.75-32.56,32.34-34.26,2-7.14,6.06-10.59,15.51-2.07,17.85,16.08,42.7,54.75,73.12,69.43,14.57,7,17.76-18.8,37.73-4.75,58.19,11,79.95,102.41,124.41,138.49,12.38,10.09,24,17.46,34.7,17.86"/><path class="cls-32" d="M.88,300.28c19.58,37.66,15.71,127.56,33,116,11.59-7.72,10.62-29.83,19.2-36.6,7.37-5.82,15.53,18.38,24.51,42.68,11.17,30.23,21.37,53.94,39.17,45.76,29.09-13.36,26.95-66.43,40.46-104.78,8-22.68,12.84,18.62,24.66,11.81,28.65-16.49,37.07-121.82,68.58-115.39,33,6.73,30.41,84.75,52.59,105.39,1.87,1.74,4.68,1.56,7.72.25,16.09,18.36,26.86-29.57,32.5-29.6,2-6.37,6.05-9.39,15.36-1.11,17.72,15.76,42.75,52,73.43,66.13,14.33,6.59,17.81-18,37.34-4.64,59.2,10.34,81.42,101,126.26,137.28,12.46,10.12,24.08,17.66,34.61,18.4"/><path class="cls-33" d="M.86,292.2C19.78,329,16.34,415.33,33,405.05c11.22-6.9,10.44-27.57,18.78-33.61C59,366.23,66.92,389.66,75.65,413c11,29.51,21.09,52.13,38.3,44.28,29.64-13.5,27.17-67.44,40.88-106,8.18-23.05,13,20,25.22,13.39,29.1-15.76,37.55-123.16,69.36-117.16,32.52,6.13,30.61,81.19,52.29,103.26,1.78,1.82,4.5,1.81,7.42.71,15.73,20,26.95-26.58,32.66-24.93,2-5.62,6-8.2,15.19-.17,17.6,15.45,42.79,49.33,73.74,62.83,14.09,6.15,17.87-17.26,37-4.53,60.21,9.73,82.88,99.69,128.1,136.08,12.55,10.15,24.16,17.87,34.52,18.93"/><path class="cls-34" d="M.84,284.11C19.11,320.05,16.09,402.82,32.2,393.78c10.83-6.07,10.26-25.31,18.36-30.62,7-4.6,14.67,18.06,23.15,40.49,10.87,28.77,20.82,50.3,37.43,42.8,30.2-13.66,27.4-68.47,41.31-107.34,8.37-23.41,13.23,21.35,25.78,15,29.55-15,38-124.49,70.15-118.92s30.85,77.62,52,101.14c1.7,1.89,4.32,2.06,7.12,1.16,15.37,21.58,27-23.6,32.82-20.26,2-4.87,6-7,15,.78,17.48,15.13,42.83,46.64,74.06,59.53,13.84,5.71,17.93-16.5,36.57-4.42,61.23,9.11,84.34,98.33,129.94,134.88,12.64,10.17,24.23,18.07,34.44,19.46"/><path class="cls-35" d="M.82,276c17.61,35.07,15,114.28,30.54,106.48,10.47-5.25,10.1-23.05,18-27.63,6.83-4,14.24,17.9,22.47,39.39,10.72,28.05,20.55,48.5,36.55,41.32C139.09,421.79,136,366.11,150.07,327c8.56-23.77,13.43,22.71,26.34,16.55,30-14.32,38.52-125.81,70.93-120.69,31.47,5,31.13,74,51.67,99,1.62,2,4.14,2.31,6.81,1.62,15,23.2,27.15-20.61,33-15.6,2-4.1,6-5.82,14.87,1.74,17.35,14.81,42.85,44,74.37,56.23,13.59,5.28,18-15.74,36.18-4.31C526.47,370,550,458.49,596,495.2c12.73,10.2,24.31,18.28,34.35,20"/><path class="cls-36" d="M.8,267.94c17,34.21,14.8,109.86,29.73,103.3,10.09-4.43,9.93-20.79,17.52-24.64,6.68-3.38,13.82,17.74,21.79,38.3,10.59,27.31,20.28,46.68,35.68,39.83,31.32-13.93,27.87-70.5,42.16-109.89,8.76-24.13,13.63,24.06,26.91,18.13,30.46-13.61,39-127.11,71.71-122.45,30.94,4.39,31.45,70.44,51.36,96.88,1.54,2.05,4,2.56,6.52,2.08,14.65,24.81,27.24-17.62,33.14-10.93,2-3.35,6-4.64,14.71,2.68,17.23,14.5,42.88,41.32,74.69,52.93,13.33,4.86,18-15,35.79-4.19,63.25,7.87,87.27,95.6,133.62,132.46C609,492.66,620.51,500.92,630.4,503"/><path class="cls-37" d="M.79,259.85C17.07,293.2,15.37,365.29,29.69,360c9.73-3.61,9.79-18.53,17.11-21.65,6.52-2.77,13.39,17.57,21.11,37.21,10.44,26.58,20,44.87,34.8,38.34,31.89-14.06,28.1-71.51,42.59-111.16,8.95-24.49,13.83,25.4,27.48,19.7C203.69,309.5,212.24,194,245.27,198.2c30.41,3.84,31.79,66.85,51,94.76a6.26,6.26,0,0,0,6.21,2.52c14.3,26.43,27.35-14.62,33.31-6.26,2-2.58,6-3.44,14.55,3.64,17.1,14.17,42.89,38.68,75,49.63,13.07,4.45,18.09-14.21,35.4-4.08,64.27,7.25,88.73,94.23,135.46,131.25,12.9,10.26,24.46,18.69,34.18,21.07"/><path class="cls-38" d="M.77,251.77c15.63,32.48,14.38,101,28.09,96.93,9.37-2.79,9.65-16.27,16.69-18.66,6.37-2.16,13,17.41,20.42,36.11C76.28,392,85.72,409.22,99.9,403c32.46-14.19,28.34-72.53,43-112.45,9.15-24.85,14,26.75,28,21.29,31.37-12.23,39.94-129.66,73.27-126,29.89,3.3,32.19,63.27,50.75,92.64a6.39,6.39,0,0,0,5.9,3c13.95,28.05,27.45-11.64,33.48-1.59,2-1.83,6-2.26,14.38,4.58,17,13.86,42.9,36.07,75.32,46.33,12.8,4.05,18.14-13.44,35-4,65.29,6.63,90.21,92.88,137.32,130.06,13,10.28,24.52,18.89,34.09,21.6"/><path class="cls-39" d="M.75,243.68c15,31.63,14.19,96.6,27.27,93.75,9-2,9.53-14,16.27-15.66,6.25-1.55,12.55,17.24,19.75,35C74.2,381.89,83.52,398,97.1,392.16c33-14.3,28.56-73.55,43.44-113.72,9.34-25.21,14.22,28.08,28.6,22.86C201,289.75,210.78,164,243.19,173.55c28.31,8.31,32.61,59.68,50.44,90.52a6.73,6.73,0,0,0,5.61,3.43c13.58,29.66,27.54-8.65,33.63,3.08,2-1.08,6-1.08,14.22,5.53,16.88,13.53,42.9,33.48,75.64,43,12.54,3.65,18.19-12.67,34.61-3.86,66.3,6,91.67,91.51,139.16,128.85,13.07,10.31,24.6,19.1,34,22.13"/><path class="cls-40" d="M.73,235.6c14.31,30.76,14,92.19,26.46,90.56C35.86,325,36.6,314.45,43,313.49c6.12-.92,12.13,17.07,19.06,33.91,10,24.38,19.22,39.46,32.19,33.9,33.61-14.4,28.8-74.56,43.87-115,9.53-25.57,14.42,29.41,29.16,24.44,32.31-10.89,42-138.33,74.84-129.51,27.94,7.51,33.06,56.11,50.13,88.39a7.2,7.2,0,0,0,5.3,3.89c13.23,31.27,27.64-5.66,33.8,7.74,1.95-.31,6,.11,14.06,6.48,16.75,13.21,42.9,30.93,75.95,39.73,12.28,3.27,18.25-11.9,34.22-3.74,67.32,5.39,93.13,90.15,141,127.64,13.16,10.34,24.67,19.31,33.92,22.67"/><path class="cls-41" d="M.72,227.51c13.65,29.9,13.85,86.44,25.63,87.38,8.31.67,9.44-11,15.44-9.68S53.51,322.12,60.17,338c9.9,23.65,19,37.66,31.31,32.41,34.19-14.49,29-75.57,44.3-116.27,9.72-25.93,14.62,30.73,29.72,26,32.79-10.24,42.29-139.36,75.62-131.28,27.58,6.69,33.54,52.54,49.83,86.26a7.87,7.87,0,0,0,5,4.35c12.87,32.89,27.74-2.67,34,12.41,2,.44,6,1.3,13.9,7.43a205,205,0,0,0,76.27,36.43c12,2.89,18.3-11.14,33.83-3.63,68.33,4.77,94.6,88.78,142.84,126.43C610,429,621.49,438.11,630.58,441.8"/><path class="cls-42" d="M.7,219.43c13,29,13.66,83.41,24.82,84.19,8,.56,9.5-8.54,15-6.69s11.3,16.74,17.69,31.72c9.78,22.92,18.69,35.86,30.44,30.94C123.45,345,117.94,283,133.4,242c9.92-26.29,14.82,32.06,30.29,27.6,33.26-9.58,42.61-140.32,76.39-133,27.22,5.87,34,49,49.52,84.14a8.92,8.92,0,0,0,4.7,4.8c12.51,34.5,27.84.31,34.12,17.08,1.94,1.2,6,2.48,13.73,8.37,16.53,12.56,42.9,25.91,76.59,33.13,11.75,2.52,18.35-10.37,33.44-3.51,69.34,4.15,96.06,87.42,144.68,125.23,13.34,10.39,24.82,19.71,33.75,23.73"/><path class="cls-43" d="M.68,211.34c12.33,28.18,13.49,79.06,24,81,7.67,1.42,9.12-4.72,14.6-3.7,5.8,1.07,10.9,16.57,17,30.63,9.65,22.17,18.42,34.06,29.56,29.45,35.37-14.64,29.5-77.61,45.15-118.83,10.12-26.65,15,33.37,30.86,29.18,33.75-8.95,42.94-141.23,77.18-134.81,26.85,5,34.57,45.45,49.21,82a10.14,10.14,0,0,0,4.39,5.25c12.15,36.12,27.94,3.31,34.28,21.75,1.94,2,6,3.66,13.58,9.33,16.42,12.23,42.89,23.44,76.9,29.83,11.49,2.16,18.41-9.61,33-3.41,70.36,3.54,97.52,86.06,146.53,124,13.41,10.42,24.89,19.92,33.66,24.27"/><path class="cls-44" d="M.66,203.25C12.33,230.57,14,278,23.85,281.08c7.33,2.3,9-2.34,14.18-.71,5.67,1.79,10.5,16.4,16.34,29.54,9.53,21.43,18.15,32.26,28.68,28,36-14.69,29.74-78.62,45.58-120.11,10.32-27,15.24,34.68,31.42,30.76,34.25-8.31,43.28-142.06,78-136.57,26.48,4.19,35.11,41.93,48.9,79.89a12.1,12.1,0,0,0,4.09,5.7c11.8,37.73,25,7.54,34.45,26.42,1.49,3,6,4.84,13.41,10.27,16.31,11.9,42.89,21,77.22,26.53,11.23,1.81,17.74-6.42,32.66-3.29,69.91,14.65,99,84.7,148.37,122.82,13.5,10.45,25,20.13,33.57,24.81"/><path class="cls-45" d="M.64,195.17c11,26.45,13.13,70.4,22.37,74.64,7,3.19,8.87.05,13.77,2.28,5.53,2.53,10.09,16.23,15.65,28.44C61.85,321.22,70.32,331,80.24,327c36.58-14.72,30-79.64,46-121.39,10.51-27.37,15.45,36,32,32.33C193,230.28,201.87,95.14,237,99.63c26.1,3.33,35.67,38.42,48.6,77.76a14.51,14.51,0,0,0,3.79,6.16c11.43,39.35,25.79,10.13,34.6,31.08,1.54,3.67,6,6,13.25,11.23,16.2,11.56,42.9,18.62,77.54,23.23,11,1.46,17.92-5.89,32.27-3.18,71.16,13.44,100.45,83.33,150.21,121.61,13.59,10.48,25,20.34,33.49,25.34"/><path class="cls-46" d="M.63,187.08c10.35,25.59,12.91,66.1,21.55,71.46,6.61,4.1,8.71,2.45,13.34,5.27,5.36,3.28,9.7,16.06,15,27.35,9.31,19.95,17.63,28.68,26.94,25,37.19-14.72,30.21-80.65,46.43-122.67,10.71-27.73,15.66,37.3,32.55,33.92,35.26-7.06,44-143.52,79.52-140.1,25.71,2.47,36.23,34.93,48.29,75.64a18,18,0,0,0,3.48,6.61c11.08,41,26.43,12.86,34.77,35.75,1.59,4.37,6,7.2,13.09,12.18,16.09,11.22,42.91,16.27,77.85,19.92,10.72,1.13,18.1-5.36,31.88-3.06,72.41,12.1,101.91,82,152.05,120.4,13.68,10.51,25.11,20.55,33.4,25.88"/><path class="cls-47" d="M.61,179c9.69,24.73,12.68,61.79,20.73,68.27,6.24,5,8.54,4.84,12.93,8.26,5.16,4,9.31,15.88,14.29,26.25,9.22,19.2,17.37,26.9,26.07,23.52,37.82-14.68,30.44-81.66,46.86-123.94,10.9-28.09,15.87,38.59,33.11,35.49C190.38,210.41,199,72.72,234.9,75c25.31,1.6,36.8,31.46,48,73.51a23,23,0,0,0,3.18,7.07C296.79,198.14,313,171.24,321,196c1.64,5.08,6,8.38,12.93,13.12,16,10.88,43.84,8.27,78.17,16.63,10.21,2.49,18.26-4.86,31.49-3C517.24,233.39,547,303.39,597.47,342c13.77,10.53,25.19,20.74,33.32,26.4"/><path class="cls-48" d="M.59,170.91C9.63,194.78,13,228.4,20.51,236c5.83,5.92,8.33,7.23,12.51,11.26C38,252,41.94,263,46.63,272.41c9.14,18.44,17.1,25.11,25.19,22,38.46-14.61,30.68-82.67,47.29-125.22,11.1-28.44,16.09,39.89,33.67,37.07C189.09,200.47,197.67,65,233.86,62.67c24.87-1.61,37.38,28,47.68,71.38a51.11,51.11,0,0,0,2.88,7.53c16.33,42.34,27.38,18.53,35.09,45.08,1.69,5.82,6,9.56,12.76,14.08,15.89,10.53,43.56,6.71,78.49,13.33,10.07,1.9,18.42-4.36,31.1-2.85,74.89,8.94,104.84,79.25,155.74,118,13.85,10.56,25.25,20.95,33.22,26.94"/><path class="cls-49" d="M.57,162.82c8.38,23,12.16,53.17,19.1,61.91,5.42,6.81,8.12,9.6,12.09,14.25,4.71,5.5,8.55,15.51,12.93,24,9.07,17.68,16.84,23.33,24.32,20.56,39.12-14.49,31-83.66,47.72-126.5C128.08,128.3,133,198.27,151,195.74c36.84-5.22,45.43-142.33,81.87-145.39,24.39-2.06,38,24.55,47.36,69.26a67.07,67.07,0,0,0,2.58,8C297.41,172.12,310.53,149,318,177.34c1.74,6.55,6,10.73,12.61,15,15.78,10.19,43.34,5.3,78.8,10,9.92,1.32,18.57-1.54,30.71-2.73,76.07-7.43,106.3,77.88,157.58,116.79,13.94,10.59,25.33,21.16,33.14,27.48"/><path class="cls-50" d="M.55,154.74c7.72,22.14,11.88,48.84,18.29,58.71,5,7.71,7.89,12,11.67,17.25,4.46,6.22,8.17,15.33,12.25,23,9,16.9,16.57,21.54,23.44,19.07C106,258.42,97.42,188.05,114.34,145c11.54-29.14,16.53,42.48,34.8,40.23,37.38-4.61,46-143.34,82.65-147.15,23.94-2.5,38.55,21.12,47.06,67.13.6,3.23,1.59,6,2.27,8.43,13,46.61,28.1,24.36,35.42,54.43,1.77,7.29,5.95,11.9,12.44,16,15.69,9.83,43.21,4,79.12,6.73,9.77.73,18.71-1.63,30.32-2.62,77.17-6.6,107.77,76.52,159.42,115.58,14,10.62,25.4,21.37,33,28"/><path class="cls-51" d="M.54,146.65C7.59,167.93,12.12,191.14,18,202.18c4.58,8.59,7.66,14.32,11.26,20.24,4.2,6.92,7.8,15.14,11.56,21.86,9,16.11,16.31,19.76,22.57,17.59,40.5-14,31.44-85.7,48.57-129,11.73-29.51,16.76,43.77,35.37,41.81,37.92-4,46.53-144.33,83.42-148.92,23.51-2.93,39.14,17.71,46.76,65,.53,3.32,1.34,6.24,2,8.88,11.45,48.58,28.39,27.3,35.57,59.09,1.82,8,6,13.08,12.29,16.92,15.58,9.47,43.21,5.22,79.42,3.43,9.59-.47,18.83-1.71,29.94-2.5C515,171,545.93,251.69,598,290.92c14.11,10.64,25.48,21.57,33,28.54"/><path class="cls-52" d="M.52,138.57C6.92,159,11.81,178.7,17.17,190.91c4.15,9.46,7.42,16.66,10.83,23.23,4,7.61,7.45,14.94,10.89,20.77,9,15.29,16,18,21.69,16.1,41.23-13.66,31.66-86.72,49-130.33,11.91-29.87,17,45.06,35.93,43.39,38.48-3.4,47.1-145.29,84.21-150.69,23.07-3.35,39.72,14.31,46.44,62.89.48,3.42,1.11,6.51,1.67,9.34,10,50.45,28.67,30.24,35.74,63.76,1.85,8.78,6,14.25,12.12,17.87,15.49,9.1,43.35,3.14,79.74.13,9.39-.78,18.91-1.83,29.55-2.39,79.39-4.24,110.69,73.79,163.1,113.17A311.07,311.07,0,0,1,631,307.23"/><path class="cls-53" d="M.5,130.48c30,102.31,47,112.88,57.28,109.68,42-13.14,31.87-87.74,49.42-131.61,12.1-30.24,17.21,46.35,36.49,45,39-2.8,47.69-146.22,85-152.45C251.33-2.72,269,12,274.82,61.82c7.54,64.44,29.88,41,37.26,78.22,8,40.17,54.66,15.57,121.18,13.37,80.49-2.65,112.16,72.43,164.94,112A257.58,257.58,0,0,1,631,295"/></g></g></g></svg>