<svg xmlns="http://www.w3.org/2000/svg" viewBox="0 0 223.44 43.08"><defs><style>.cls-1{fill:#188fff;}.cls-2{fill:#464e56;}</style></defs><title>Asset 2</title><g id="Layer_2" data-name="Layer 2"><g id="Layer_1-2" data-name="Layer 1"><path class="cls-1" d="M61,13.73H46.09C42.06,6,37.8,0,32,0c-7.55,0-11.1,6.59-14.53,13l-.3.56H0v3.81H10c3.53,0,4.25,1.19,4.25,1.19-2.77,4.3-6.1,8.55-11.65,8.55H0v4H2.62c10.76,0,15.46-8.73,19.23-15.74C25.31,8.91,27.72,5,32,5c4.44,0,9.11,9.66,13.22,18.19.6,1.24,1.21,2.51,1.83,3.77-15.76.5-23.27,4.19-29.38,7.2-4.47,2.2-8,4.93-13.81,4.93H0v4H3.83c7,0,11.36-2.16,16-4.45,6.43-3.16,13.72-6.74,30.9-6.74h9.93v-4H55.05a3,3,0,0,1-2.47-1C51.6,25,50.64,23,49.7,21L48.4,18.34s.93-1,3.51-1H61Z"/><path class="cls-2" d="M79.83,13.7H69.44v3.74H79.6c4.2,0,6.61,1.91,6.61,5.33,0,3.24-2.66,5.33-6.77,5.33h-10v13h4V31.8h5.93c5.42,0,10.88-2.83,10.88-9.22C90.22,17.18,86.14,13.7,79.83,13.7Z"/><path class="cls-2" d="M113.31,29.57c0,5.31-2.66,8.24-7.48,8.24s-7.6-3.07-7.6-8.43V13.7h-4V29.57c0,7.39,4.4,12,11.49,12S117.28,37,117.28,29.34V13.7h-4Z"/><polygon class="cls-2" points="127.33 13.7 123.36 13.7 123.36 41.14 142.22 41.14 142.22 37.39 127.33 37.39 127.33 13.7"/><path class="cls-2" d="M156.69,25.5c-5.74-1.23-6.79-2.53-6.79-4.74S152,17,155,17a11.12,11.12,0,0,1,7.32,2.76l.4.32L165.08,17l-.37-.3a14.22,14.22,0,0,0-9.61-3.36c-5.32,0-9.18,3.24-9.18,7.79,0,5.06,3.71,6.91,9.27,8.12s6.49,2.44,6.49,4.62c0,2.36-2.22,4-5.41,4-3.37,0-5.9-1-8.74-3.62l-.38-.34-2.49,2.95.36.32a15.91,15.91,0,0,0,11.14,4.36c5.61,0,9.52-3.28,9.52-8C165.69,29.26,163,26.87,156.69,25.5Z"/><path class="cls-2" d="M180.19,13.51l-12.5,27.63h4.14l3.14-7h13.76l3.1,7h4.29l-12.5-27.63Zm-3.61,17,5.29-11.8,5.26,11.8Z"/><path class="cls-2" d="M215.18,30.15c4.29-1,6.82-4,6.82-8.11a7.77,7.77,0,0,0-2.18-5.56,11,11,0,0,0-7.87-2.79H200.08V41.14h4V30.85h6.82l7.67,10.28h4.9Zm-11.14-3V17.44h7.67c4,0,6.28,1.72,6.28,4.8s-2.48,5-6.31,5Z"/></g></g></svg>